%TF.GenerationSoftware,KiCad,Pcbnew,10.0.3*%
%TF.CreationDate,2026-07-03T16:31:44+09:00*%
%TF.ProjectId,switchBox,73776974-6368-4426-9f78-2e6b69636164,rev?*%
%TF.SameCoordinates,Original*%
%TF.FileFunction,Legend,Top*%
%TF.FilePolarity,Positive*%
%FSLAX46Y46*%
G04 Gerber Fmt 4.6, Leading zero omitted, Abs format (unit mm)*
G04 Created by KiCad (PCBNEW 10.0.3) date 2026-07-03 16:31:44*
%MOMM*%
%LPD*%
G01*
G04 APERTURE LIST*
%ADD10C,0.100000*%
%ADD11C,0.300000*%
%ADD12C,0.150000*%
%ADD13C,0.158750*%
%ADD14C,0.120000*%
%ADD15C,0.052000*%
G04 APERTURE END LIST*
D10*
X107950000Y-86360000D02*
X132140000Y-86360000D01*
X132140000Y-134690000D01*
X107950000Y-134690000D01*
X107950000Y-86360000D01*
X113030000Y-77470000D02*
X127000000Y-77470000D01*
X127000000Y-86360000D01*
X113030000Y-86360000D01*
X113030000Y-77470000D01*
D11*
X121420600Y-121204510D02*
X121420600Y-122347368D01*
X121134885Y-122061653D02*
X121420600Y-122347368D01*
X121420600Y-122347368D02*
X121706314Y-122061653D01*
X121277742Y-122990225D02*
X121277742Y-123704511D01*
X120849171Y-122847368D02*
X122349171Y-123347368D01*
X122349171Y-123347368D02*
X120849171Y-123847368D01*
X120849171Y-124347367D02*
X122349171Y-124347367D01*
X122349171Y-124347367D02*
X120849171Y-125204510D01*
X120849171Y-125204510D02*
X122349171Y-125204510D01*
X122349171Y-125704511D02*
X122349171Y-126561654D01*
X120849171Y-126133082D02*
X122349171Y-126133082D01*
D12*
X193823333Y-98864819D02*
X193490000Y-98388628D01*
X193251905Y-98864819D02*
X193251905Y-97864819D01*
X193251905Y-97864819D02*
X193632857Y-97864819D01*
X193632857Y-97864819D02*
X193728095Y-97912438D01*
X193728095Y-97912438D02*
X193775714Y-97960057D01*
X193775714Y-97960057D02*
X193823333Y-98055295D01*
X193823333Y-98055295D02*
X193823333Y-98198152D01*
X193823333Y-98198152D02*
X193775714Y-98293390D01*
X193775714Y-98293390D02*
X193728095Y-98341009D01*
X193728095Y-98341009D02*
X193632857Y-98388628D01*
X193632857Y-98388628D02*
X193251905Y-98388628D01*
X194775714Y-98864819D02*
X194204286Y-98864819D01*
X194490000Y-98864819D02*
X194490000Y-97864819D01*
X194490000Y-97864819D02*
X194394762Y-98007676D01*
X194394762Y-98007676D02*
X194299524Y-98102914D01*
X194299524Y-98102914D02*
X194204286Y-98150533D01*
X103057200Y-147003332D02*
X103104819Y-146860475D01*
X103104819Y-146860475D02*
X103104819Y-146622380D01*
X103104819Y-146622380D02*
X103057200Y-146527142D01*
X103057200Y-146527142D02*
X103009580Y-146479523D01*
X103009580Y-146479523D02*
X102914342Y-146431904D01*
X102914342Y-146431904D02*
X102819104Y-146431904D01*
X102819104Y-146431904D02*
X102723866Y-146479523D01*
X102723866Y-146479523D02*
X102676247Y-146527142D01*
X102676247Y-146527142D02*
X102628628Y-146622380D01*
X102628628Y-146622380D02*
X102581009Y-146812856D01*
X102581009Y-146812856D02*
X102533390Y-146908094D01*
X102533390Y-146908094D02*
X102485771Y-146955713D01*
X102485771Y-146955713D02*
X102390533Y-147003332D01*
X102390533Y-147003332D02*
X102295295Y-147003332D01*
X102295295Y-147003332D02*
X102200057Y-146955713D01*
X102200057Y-146955713D02*
X102152438Y-146908094D01*
X102152438Y-146908094D02*
X102104819Y-146812856D01*
X102104819Y-146812856D02*
X102104819Y-146574761D01*
X102104819Y-146574761D02*
X102152438Y-146431904D01*
X102104819Y-146098570D02*
X103104819Y-145860475D01*
X103104819Y-145860475D02*
X102390533Y-145669999D01*
X102390533Y-145669999D02*
X103104819Y-145479523D01*
X103104819Y-145479523D02*
X102104819Y-145241428D01*
X102200057Y-144908094D02*
X102152438Y-144860475D01*
X102152438Y-144860475D02*
X102104819Y-144765237D01*
X102104819Y-144765237D02*
X102104819Y-144527142D01*
X102104819Y-144527142D02*
X102152438Y-144431904D01*
X102152438Y-144431904D02*
X102200057Y-144384285D01*
X102200057Y-144384285D02*
X102295295Y-144336666D01*
X102295295Y-144336666D02*
X102390533Y-144336666D01*
X102390533Y-144336666D02*
X102533390Y-144384285D01*
X102533390Y-144384285D02*
X103104819Y-144955713D01*
X103104819Y-144955713D02*
X103104819Y-144336666D01*
X130476666Y-84314819D02*
X130476666Y-85029104D01*
X130476666Y-85029104D02*
X130429047Y-85171961D01*
X130429047Y-85171961D02*
X130333809Y-85267200D01*
X130333809Y-85267200D02*
X130190952Y-85314819D01*
X130190952Y-85314819D02*
X130095714Y-85314819D01*
X130857619Y-84314819D02*
X131524285Y-84314819D01*
X131524285Y-84314819D02*
X131095714Y-85314819D01*
D13*
X200529033Y-147371667D02*
X200529033Y-146948333D01*
X201194271Y-146766905D02*
X201194271Y-147371667D01*
X201194271Y-147371667D02*
X199924271Y-147371667D01*
X199924271Y-147371667D02*
X199924271Y-146766905D01*
X201073318Y-145496904D02*
X201133795Y-145557380D01*
X201133795Y-145557380D02*
X201194271Y-145738809D01*
X201194271Y-145738809D02*
X201194271Y-145859761D01*
X201194271Y-145859761D02*
X201133795Y-146041190D01*
X201133795Y-146041190D02*
X201012842Y-146162142D01*
X201012842Y-146162142D02*
X200891890Y-146222619D01*
X200891890Y-146222619D02*
X200649985Y-146283095D01*
X200649985Y-146283095D02*
X200468556Y-146283095D01*
X200468556Y-146283095D02*
X200226652Y-146222619D01*
X200226652Y-146222619D02*
X200105699Y-146162142D01*
X200105699Y-146162142D02*
X199984747Y-146041190D01*
X199984747Y-146041190D02*
X199924271Y-145859761D01*
X199924271Y-145859761D02*
X199924271Y-145738809D01*
X199924271Y-145738809D02*
X199984747Y-145557380D01*
X199984747Y-145557380D02*
X200045223Y-145496904D01*
X201194271Y-144287380D02*
X201194271Y-145013095D01*
X201194271Y-144650238D02*
X199924271Y-144650238D01*
X199924271Y-144650238D02*
X200105699Y-144771190D01*
X200105699Y-144771190D02*
X200226652Y-144892142D01*
X200226652Y-144892142D02*
X200287128Y-145013095D01*
X200045223Y-143803571D02*
X199984747Y-143743095D01*
X199984747Y-143743095D02*
X199924271Y-143622142D01*
X199924271Y-143622142D02*
X199924271Y-143319761D01*
X199924271Y-143319761D02*
X199984747Y-143198809D01*
X199984747Y-143198809D02*
X200045223Y-143138333D01*
X200045223Y-143138333D02*
X200166175Y-143077856D01*
X200166175Y-143077856D02*
X200287128Y-143077856D01*
X200287128Y-143077856D02*
X200468556Y-143138333D01*
X200468556Y-143138333D02*
X201194271Y-143864047D01*
X201194271Y-143864047D02*
X201194271Y-143077856D01*
X201194271Y-142533571D02*
X199924271Y-142533571D01*
X199924271Y-142533571D02*
X199924271Y-142231190D01*
X199924271Y-142231190D02*
X199984747Y-142049761D01*
X199984747Y-142049761D02*
X200105699Y-141928809D01*
X200105699Y-141928809D02*
X200226652Y-141868332D01*
X200226652Y-141868332D02*
X200468556Y-141807856D01*
X200468556Y-141807856D02*
X200649985Y-141807856D01*
X200649985Y-141807856D02*
X200891890Y-141868332D01*
X200891890Y-141868332D02*
X201012842Y-141928809D01*
X201012842Y-141928809D02*
X201133795Y-142049761D01*
X201133795Y-142049761D02*
X201194271Y-142231190D01*
X201194271Y-142231190D02*
X201194271Y-142533571D01*
D12*
X190004166Y-94644819D02*
X190004166Y-95359104D01*
X190004166Y-95359104D02*
X189956547Y-95501961D01*
X189956547Y-95501961D02*
X189861309Y-95597200D01*
X189861309Y-95597200D02*
X189718452Y-95644819D01*
X189718452Y-95644819D02*
X189623214Y-95644819D01*
X191004166Y-95644819D02*
X190432738Y-95644819D01*
X190718452Y-95644819D02*
X190718452Y-94644819D01*
X190718452Y-94644819D02*
X190623214Y-94787676D01*
X190623214Y-94787676D02*
X190527976Y-94882914D01*
X190527976Y-94882914D02*
X190432738Y-94930533D01*
X165257200Y-147003332D02*
X165304819Y-146860475D01*
X165304819Y-146860475D02*
X165304819Y-146622380D01*
X165304819Y-146622380D02*
X165257200Y-146527142D01*
X165257200Y-146527142D02*
X165209580Y-146479523D01*
X165209580Y-146479523D02*
X165114342Y-146431904D01*
X165114342Y-146431904D02*
X165019104Y-146431904D01*
X165019104Y-146431904D02*
X164923866Y-146479523D01*
X164923866Y-146479523D02*
X164876247Y-146527142D01*
X164876247Y-146527142D02*
X164828628Y-146622380D01*
X164828628Y-146622380D02*
X164781009Y-146812856D01*
X164781009Y-146812856D02*
X164733390Y-146908094D01*
X164733390Y-146908094D02*
X164685771Y-146955713D01*
X164685771Y-146955713D02*
X164590533Y-147003332D01*
X164590533Y-147003332D02*
X164495295Y-147003332D01*
X164495295Y-147003332D02*
X164400057Y-146955713D01*
X164400057Y-146955713D02*
X164352438Y-146908094D01*
X164352438Y-146908094D02*
X164304819Y-146812856D01*
X164304819Y-146812856D02*
X164304819Y-146574761D01*
X164304819Y-146574761D02*
X164352438Y-146431904D01*
X164304819Y-146098570D02*
X165304819Y-145860475D01*
X165304819Y-145860475D02*
X164590533Y-145669999D01*
X164590533Y-145669999D02*
X165304819Y-145479523D01*
X165304819Y-145479523D02*
X164304819Y-145241428D01*
X164304819Y-144431904D02*
X164304819Y-144622380D01*
X164304819Y-144622380D02*
X164352438Y-144717618D01*
X164352438Y-144717618D02*
X164400057Y-144765237D01*
X164400057Y-144765237D02*
X164542914Y-144860475D01*
X164542914Y-144860475D02*
X164733390Y-144908094D01*
X164733390Y-144908094D02*
X165114342Y-144908094D01*
X165114342Y-144908094D02*
X165209580Y-144860475D01*
X165209580Y-144860475D02*
X165257200Y-144812856D01*
X165257200Y-144812856D02*
X165304819Y-144717618D01*
X165304819Y-144717618D02*
X165304819Y-144527142D01*
X165304819Y-144527142D02*
X165257200Y-144431904D01*
X165257200Y-144431904D02*
X165209580Y-144384285D01*
X165209580Y-144384285D02*
X165114342Y-144336666D01*
X165114342Y-144336666D02*
X164876247Y-144336666D01*
X164876247Y-144336666D02*
X164781009Y-144384285D01*
X164781009Y-144384285D02*
X164733390Y-144431904D01*
X164733390Y-144431904D02*
X164685771Y-144527142D01*
X164685771Y-144527142D02*
X164685771Y-144717618D01*
X164685771Y-144717618D02*
X164733390Y-144812856D01*
X164733390Y-144812856D02*
X164781009Y-144860475D01*
X164781009Y-144860475D02*
X164876247Y-144908094D01*
X98893333Y-89159580D02*
X98845714Y-89207200D01*
X98845714Y-89207200D02*
X98702857Y-89254819D01*
X98702857Y-89254819D02*
X98607619Y-89254819D01*
X98607619Y-89254819D02*
X98464762Y-89207200D01*
X98464762Y-89207200D02*
X98369524Y-89111961D01*
X98369524Y-89111961D02*
X98321905Y-89016723D01*
X98321905Y-89016723D02*
X98274286Y-88826247D01*
X98274286Y-88826247D02*
X98274286Y-88683390D01*
X98274286Y-88683390D02*
X98321905Y-88492914D01*
X98321905Y-88492914D02*
X98369524Y-88397676D01*
X98369524Y-88397676D02*
X98464762Y-88302438D01*
X98464762Y-88302438D02*
X98607619Y-88254819D01*
X98607619Y-88254819D02*
X98702857Y-88254819D01*
X98702857Y-88254819D02*
X98845714Y-88302438D01*
X98845714Y-88302438D02*
X98893333Y-88350057D01*
X99274286Y-88350057D02*
X99321905Y-88302438D01*
X99321905Y-88302438D02*
X99417143Y-88254819D01*
X99417143Y-88254819D02*
X99655238Y-88254819D01*
X99655238Y-88254819D02*
X99750476Y-88302438D01*
X99750476Y-88302438D02*
X99798095Y-88350057D01*
X99798095Y-88350057D02*
X99845714Y-88445295D01*
X99845714Y-88445295D02*
X99845714Y-88540533D01*
X99845714Y-88540533D02*
X99798095Y-88683390D01*
X99798095Y-88683390D02*
X99226667Y-89254819D01*
X99226667Y-89254819D02*
X99845714Y-89254819D01*
X118607200Y-147003332D02*
X118654819Y-146860475D01*
X118654819Y-146860475D02*
X118654819Y-146622380D01*
X118654819Y-146622380D02*
X118607200Y-146527142D01*
X118607200Y-146527142D02*
X118559580Y-146479523D01*
X118559580Y-146479523D02*
X118464342Y-146431904D01*
X118464342Y-146431904D02*
X118369104Y-146431904D01*
X118369104Y-146431904D02*
X118273866Y-146479523D01*
X118273866Y-146479523D02*
X118226247Y-146527142D01*
X118226247Y-146527142D02*
X118178628Y-146622380D01*
X118178628Y-146622380D02*
X118131009Y-146812856D01*
X118131009Y-146812856D02*
X118083390Y-146908094D01*
X118083390Y-146908094D02*
X118035771Y-146955713D01*
X118035771Y-146955713D02*
X117940533Y-147003332D01*
X117940533Y-147003332D02*
X117845295Y-147003332D01*
X117845295Y-147003332D02*
X117750057Y-146955713D01*
X117750057Y-146955713D02*
X117702438Y-146908094D01*
X117702438Y-146908094D02*
X117654819Y-146812856D01*
X117654819Y-146812856D02*
X117654819Y-146574761D01*
X117654819Y-146574761D02*
X117702438Y-146431904D01*
X117654819Y-146098570D02*
X118654819Y-145860475D01*
X118654819Y-145860475D02*
X117940533Y-145669999D01*
X117940533Y-145669999D02*
X118654819Y-145479523D01*
X118654819Y-145479523D02*
X117654819Y-145241428D01*
X117654819Y-144955713D02*
X117654819Y-144336666D01*
X117654819Y-144336666D02*
X118035771Y-144669999D01*
X118035771Y-144669999D02*
X118035771Y-144527142D01*
X118035771Y-144527142D02*
X118083390Y-144431904D01*
X118083390Y-144431904D02*
X118131009Y-144384285D01*
X118131009Y-144384285D02*
X118226247Y-144336666D01*
X118226247Y-144336666D02*
X118464342Y-144336666D01*
X118464342Y-144336666D02*
X118559580Y-144384285D01*
X118559580Y-144384285D02*
X118607200Y-144431904D01*
X118607200Y-144431904D02*
X118654819Y-144527142D01*
X118654819Y-144527142D02*
X118654819Y-144812856D01*
X118654819Y-144812856D02*
X118607200Y-144908094D01*
X118607200Y-144908094D02*
X118559580Y-144955713D01*
X149707200Y-147003332D02*
X149754819Y-146860475D01*
X149754819Y-146860475D02*
X149754819Y-146622380D01*
X149754819Y-146622380D02*
X149707200Y-146527142D01*
X149707200Y-146527142D02*
X149659580Y-146479523D01*
X149659580Y-146479523D02*
X149564342Y-146431904D01*
X149564342Y-146431904D02*
X149469104Y-146431904D01*
X149469104Y-146431904D02*
X149373866Y-146479523D01*
X149373866Y-146479523D02*
X149326247Y-146527142D01*
X149326247Y-146527142D02*
X149278628Y-146622380D01*
X149278628Y-146622380D02*
X149231009Y-146812856D01*
X149231009Y-146812856D02*
X149183390Y-146908094D01*
X149183390Y-146908094D02*
X149135771Y-146955713D01*
X149135771Y-146955713D02*
X149040533Y-147003332D01*
X149040533Y-147003332D02*
X148945295Y-147003332D01*
X148945295Y-147003332D02*
X148850057Y-146955713D01*
X148850057Y-146955713D02*
X148802438Y-146908094D01*
X148802438Y-146908094D02*
X148754819Y-146812856D01*
X148754819Y-146812856D02*
X148754819Y-146574761D01*
X148754819Y-146574761D02*
X148802438Y-146431904D01*
X148754819Y-146098570D02*
X149754819Y-145860475D01*
X149754819Y-145860475D02*
X149040533Y-145669999D01*
X149040533Y-145669999D02*
X149754819Y-145479523D01*
X149754819Y-145479523D02*
X148754819Y-145241428D01*
X148754819Y-144384285D02*
X148754819Y-144860475D01*
X148754819Y-144860475D02*
X149231009Y-144908094D01*
X149231009Y-144908094D02*
X149183390Y-144860475D01*
X149183390Y-144860475D02*
X149135771Y-144765237D01*
X149135771Y-144765237D02*
X149135771Y-144527142D01*
X149135771Y-144527142D02*
X149183390Y-144431904D01*
X149183390Y-144431904D02*
X149231009Y-144384285D01*
X149231009Y-144384285D02*
X149326247Y-144336666D01*
X149326247Y-144336666D02*
X149564342Y-144336666D01*
X149564342Y-144336666D02*
X149659580Y-144384285D01*
X149659580Y-144384285D02*
X149707200Y-144431904D01*
X149707200Y-144431904D02*
X149754819Y-144527142D01*
X149754819Y-144527142D02*
X149754819Y-144765237D01*
X149754819Y-144765237D02*
X149707200Y-144860475D01*
X149707200Y-144860475D02*
X149659580Y-144908094D01*
X203514819Y-151891904D02*
X202514819Y-151891904D01*
X202991009Y-151891904D02*
X202991009Y-151320476D01*
X203514819Y-151320476D02*
X202514819Y-151320476D01*
X202848152Y-150415714D02*
X203514819Y-150415714D01*
X202467200Y-150653809D02*
X203181485Y-150891904D01*
X203181485Y-150891904D02*
X203181485Y-150272857D01*
D10*
X134697115Y-82931533D02*
X133935211Y-82931533D01*
X141555115Y-82931533D02*
X140793211Y-82931533D01*
X141174163Y-82550580D02*
X141174163Y-83312485D01*
D12*
X203514819Y-80771904D02*
X202514819Y-80771904D01*
X202991009Y-80771904D02*
X202991009Y-80200476D01*
X203514819Y-80200476D02*
X202514819Y-80200476D01*
X202610057Y-79771904D02*
X202562438Y-79724285D01*
X202562438Y-79724285D02*
X202514819Y-79629047D01*
X202514819Y-79629047D02*
X202514819Y-79390952D01*
X202514819Y-79390952D02*
X202562438Y-79295714D01*
X202562438Y-79295714D02*
X202610057Y-79248095D01*
X202610057Y-79248095D02*
X202705295Y-79200476D01*
X202705295Y-79200476D02*
X202800533Y-79200476D01*
X202800533Y-79200476D02*
X202943390Y-79248095D01*
X202943390Y-79248095D02*
X203514819Y-79819523D01*
X203514819Y-79819523D02*
X203514819Y-79200476D01*
X108886666Y-84314819D02*
X108886666Y-85029104D01*
X108886666Y-85029104D02*
X108839047Y-85171961D01*
X108839047Y-85171961D02*
X108743809Y-85267200D01*
X108743809Y-85267200D02*
X108600952Y-85314819D01*
X108600952Y-85314819D02*
X108505714Y-85314819D01*
X109791428Y-84314819D02*
X109600952Y-84314819D01*
X109600952Y-84314819D02*
X109505714Y-84362438D01*
X109505714Y-84362438D02*
X109458095Y-84410057D01*
X109458095Y-84410057D02*
X109362857Y-84552914D01*
X109362857Y-84552914D02*
X109315238Y-84743390D01*
X109315238Y-84743390D02*
X109315238Y-85124342D01*
X109315238Y-85124342D02*
X109362857Y-85219580D01*
X109362857Y-85219580D02*
X109410476Y-85267200D01*
X109410476Y-85267200D02*
X109505714Y-85314819D01*
X109505714Y-85314819D02*
X109696190Y-85314819D01*
X109696190Y-85314819D02*
X109791428Y-85267200D01*
X109791428Y-85267200D02*
X109839047Y-85219580D01*
X109839047Y-85219580D02*
X109886666Y-85124342D01*
X109886666Y-85124342D02*
X109886666Y-84886247D01*
X109886666Y-84886247D02*
X109839047Y-84791009D01*
X109839047Y-84791009D02*
X109791428Y-84743390D01*
X109791428Y-84743390D02*
X109696190Y-84695771D01*
X109696190Y-84695771D02*
X109505714Y-84695771D01*
X109505714Y-84695771D02*
X109410476Y-84743390D01*
X109410476Y-84743390D02*
X109362857Y-84791009D01*
X109362857Y-84791009D02*
X109315238Y-84886247D01*
X134157200Y-147003332D02*
X134204819Y-146860475D01*
X134204819Y-146860475D02*
X134204819Y-146622380D01*
X134204819Y-146622380D02*
X134157200Y-146527142D01*
X134157200Y-146527142D02*
X134109580Y-146479523D01*
X134109580Y-146479523D02*
X134014342Y-146431904D01*
X134014342Y-146431904D02*
X133919104Y-146431904D01*
X133919104Y-146431904D02*
X133823866Y-146479523D01*
X133823866Y-146479523D02*
X133776247Y-146527142D01*
X133776247Y-146527142D02*
X133728628Y-146622380D01*
X133728628Y-146622380D02*
X133681009Y-146812856D01*
X133681009Y-146812856D02*
X133633390Y-146908094D01*
X133633390Y-146908094D02*
X133585771Y-146955713D01*
X133585771Y-146955713D02*
X133490533Y-147003332D01*
X133490533Y-147003332D02*
X133395295Y-147003332D01*
X133395295Y-147003332D02*
X133300057Y-146955713D01*
X133300057Y-146955713D02*
X133252438Y-146908094D01*
X133252438Y-146908094D02*
X133204819Y-146812856D01*
X133204819Y-146812856D02*
X133204819Y-146574761D01*
X133204819Y-146574761D02*
X133252438Y-146431904D01*
X133204819Y-146098570D02*
X134204819Y-145860475D01*
X134204819Y-145860475D02*
X133490533Y-145669999D01*
X133490533Y-145669999D02*
X134204819Y-145479523D01*
X134204819Y-145479523D02*
X133204819Y-145241428D01*
X133538152Y-144431904D02*
X134204819Y-144431904D01*
X133157200Y-144669999D02*
X133871485Y-144908094D01*
X133871485Y-144908094D02*
X133871485Y-144289047D01*
%TO.C,R1*%
D14*
X193457133Y-101150000D02*
G75*
G02*
X193457133Y-99510000I-417133J820000D01*
G01*
%TO.C,SW2*%
X114110000Y-145250000D02*
G75*
G02*
X107010000Y-145250000I-3550000J0D01*
G01*
X107010000Y-145250000D02*
G75*
G02*
X114110000Y-145250000I3550000J0D01*
G01*
X116670000Y-139140000D02*
X116670000Y-151360000D01*
X114160000Y-151360000D02*
X116670000Y-151360000D01*
X114160000Y-139140000D02*
X116670000Y-139140000D01*
X109260000Y-151360000D02*
X111860000Y-151360000D01*
X109260000Y-139140000D02*
X111860000Y-139140000D01*
X104450000Y-151360000D02*
X106960000Y-151360000D01*
X104450000Y-151360000D02*
X104450000Y-139140000D01*
X104450000Y-139140000D02*
X106960000Y-139140000D01*
%TO.C,J7*%
X129480000Y-88900000D02*
X129480000Y-127060000D01*
X129480000Y-88900000D02*
X132140000Y-88900000D01*
X129480000Y-127060000D02*
X132140000Y-127060000D01*
X130810000Y-86300000D02*
X132140000Y-86300000D01*
X132140000Y-86300000D02*
X132140000Y-87630000D01*
X132140000Y-88900000D02*
X132140000Y-127060000D01*
%TO.C,RotaryEncoder*%
D15*
X183635000Y-140901000D02*
X183635000Y-140901000D01*
X183687000Y-140901000D02*
X183687000Y-140901000D01*
D10*
X184220000Y-138870000D02*
X189470000Y-138870000D01*
X196720000Y-138870000D02*
X191470000Y-138870000D01*
X196720000Y-151370000D02*
X184220000Y-151370000D01*
D15*
X183635000Y-140901000D02*
G75*
G02*
X183687000Y-140901000I26000J0D01*
G01*
X183687000Y-140901000D02*
G75*
G02*
X183635000Y-140901000I-26000J0D01*
G01*
%TO.C,U4*%
D10*
X149300000Y-81314000D02*
X149300000Y-81314000D01*
G75*
G02*
X151300000Y-79314000I2000000J0D01*
G01*
X174600000Y-79314000D01*
G75*
G02*
X176600000Y-81314000I0J-2000000D01*
G01*
X176600000Y-104614000D01*
G75*
G02*
X174600000Y-106614000I-2000000J0D01*
G01*
X151300000Y-106614000D01*
G75*
G02*
X149300000Y-104614000I0J2000000D01*
G01*
X149300000Y-81314000D01*
X149300000Y-83464000D02*
X176600000Y-83464000D01*
X176600000Y-102464000D01*
X149300000Y-102464000D01*
X149300000Y-83464000D01*
X153600000Y-81364000D02*
G75*
G02*
X151600000Y-81364000I-1000000J0D01*
G01*
X151600000Y-81364000D02*
G75*
G02*
X153600000Y-81364000I1000000J0D01*
G01*
X153600000Y-104564000D02*
G75*
G02*
X151600000Y-104564000I-1000000J0D01*
G01*
X151600000Y-104564000D02*
G75*
G02*
X153600000Y-104564000I1000000J0D01*
G01*
X174301249Y-81314000D02*
G75*
G02*
X172298751Y-81314000I-1001249J0D01*
G01*
X172298751Y-81314000D02*
G75*
G02*
X174301249Y-81314000I1001249J0D01*
G01*
X174301249Y-104564000D02*
G75*
G02*
X172301249Y-104564000I-1000000J0D01*
G01*
X172301249Y-104564000D02*
G75*
G02*
X174301249Y-104564000I1000000J0D01*
G01*
%TO.C,J1*%
D14*
X182577500Y-94070000D02*
X182577500Y-76110000D01*
X182577500Y-94070000D02*
X198097500Y-94070000D01*
X198097500Y-76110000D02*
X182577500Y-76110000D01*
X198097500Y-94070000D02*
X198097500Y-76110000D01*
X198282500Y-90190000D02*
X198782500Y-90690000D01*
X198782500Y-89690000D02*
X198282500Y-90190000D01*
X198782500Y-90690000D02*
X198782500Y-89690000D01*
%TO.C,C1*%
X95250000Y-91340000D02*
X105490000Y-91340000D01*
X95250000Y-94080000D02*
X95250000Y-91340000D01*
X105490000Y-91340000D02*
X105490000Y-94080000D01*
X105490000Y-94080000D02*
X95250000Y-94080000D01*
%TO.C,SW6*%
X166650000Y-139140000D02*
X169160000Y-139140000D01*
X166650000Y-151360000D02*
X166650000Y-139140000D01*
X166650000Y-151360000D02*
X169160000Y-151360000D01*
X171460000Y-139140000D02*
X174060000Y-139140000D01*
X171460000Y-151360000D02*
X174060000Y-151360000D01*
X176360000Y-139140000D02*
X178870000Y-139140000D01*
X176360000Y-151360000D02*
X178870000Y-151360000D01*
X178870000Y-139140000D02*
X178870000Y-151360000D01*
X176310000Y-145250000D02*
G75*
G02*
X169210000Y-145250000I-3550000J0D01*
G01*
X169210000Y-145250000D02*
G75*
G02*
X176310000Y-145250000I3550000J0D01*
G01*
%TO.C,RS485toTTL5V_MAX1348_SH-U12*%
D10*
X147030000Y-118110000D02*
X150840000Y-118110000D01*
X147030000Y-108110000D02*
X206030000Y-108110000D01*
X206030000Y-128110000D01*
X147030000Y-128110000D01*
X147030000Y-108110000D01*
%TO.C,C2*%
D14*
X99497677Y-87595000D02*
X99497677Y-77505000D01*
X99537677Y-87599000D02*
X99537677Y-77501000D01*
X99577677Y-87604000D02*
X99577677Y-77496000D01*
X99617677Y-87607000D02*
X99617677Y-77493000D01*
X99657677Y-87611000D02*
X99657677Y-77489000D01*
X99697677Y-87614000D02*
X99697677Y-77486000D01*
X99737677Y-87617000D02*
X99737677Y-77483000D01*
X99777677Y-87620000D02*
X99777677Y-77480000D01*
X99817677Y-87622000D02*
X99817677Y-77478000D01*
X99857677Y-87624000D02*
X99857677Y-77476000D01*
X99897677Y-87626000D02*
X99897677Y-77474000D01*
X99937677Y-87627000D02*
X99937677Y-77473000D01*
X99977677Y-87629000D02*
X99977677Y-77471000D01*
X100017677Y-87629000D02*
X100017677Y-77471000D01*
X100057677Y-87630000D02*
X100057677Y-77470000D01*
X100097677Y-87630000D02*
X100097677Y-77470000D01*
X105177323Y-85925000D02*
X105177323Y-84925000D01*
X105677323Y-85425000D02*
X104677323Y-85425000D01*
X105160217Y-83810000D02*
G75*
G02*
X105160217Y-81290000I-4962540J1260000D01*
G01*
%TO.C,SW3*%
X120000000Y-139140000D02*
X122510000Y-139140000D01*
X120000000Y-151360000D02*
X120000000Y-139140000D01*
X120000000Y-151360000D02*
X122510000Y-151360000D01*
X124810000Y-139140000D02*
X127410000Y-139140000D01*
X124810000Y-151360000D02*
X127410000Y-151360000D01*
X129710000Y-139140000D02*
X132220000Y-139140000D01*
X129710000Y-151360000D02*
X132220000Y-151360000D01*
X132220000Y-139140000D02*
X132220000Y-151360000D01*
X129660000Y-145250000D02*
G75*
G02*
X122560000Y-145250000I-3550000J0D01*
G01*
X122560000Y-145250000D02*
G75*
G02*
X129660000Y-145250000I3550000J0D01*
G01*
%TO.C,SW5*%
X151100000Y-139140000D02*
X153610000Y-139140000D01*
X151100000Y-151360000D02*
X151100000Y-139140000D01*
X151100000Y-151360000D02*
X153610000Y-151360000D01*
X155910000Y-139140000D02*
X158510000Y-139140000D01*
X155910000Y-151360000D02*
X158510000Y-151360000D01*
X160810000Y-139140000D02*
X163320000Y-139140000D01*
X160810000Y-151360000D02*
X163320000Y-151360000D01*
X163320000Y-139140000D02*
X163320000Y-151360000D01*
X160760000Y-145250000D02*
G75*
G02*
X153660000Y-145250000I-3550000J0D01*
G01*
X153660000Y-145250000D02*
G75*
G02*
X160760000Y-145250000I3550000J0D01*
G01*
%TO.C,J6*%
X107890000Y-88900000D02*
X107890000Y-127060000D01*
X107890000Y-88900000D02*
X110550000Y-88900000D01*
X107890000Y-127060000D02*
X110550000Y-127060000D01*
X109220000Y-86300000D02*
X110550000Y-86300000D01*
X110550000Y-86300000D02*
X110550000Y-87630000D01*
X110550000Y-88900000D02*
X110550000Y-127060000D01*
%TO.C,SW4*%
X135550000Y-139140000D02*
X138060000Y-139140000D01*
X135550000Y-151360000D02*
X135550000Y-139140000D01*
X135550000Y-151360000D02*
X138060000Y-151360000D01*
X140360000Y-139140000D02*
X142960000Y-139140000D01*
X140360000Y-151360000D02*
X142960000Y-151360000D01*
X145260000Y-139140000D02*
X147770000Y-139140000D01*
X145260000Y-151360000D02*
X147770000Y-151360000D01*
X147770000Y-139140000D02*
X147770000Y-151360000D01*
X145210000Y-145250000D02*
G75*
G02*
X138110000Y-145250000I-3550000J0D01*
G01*
X138110000Y-145250000D02*
G75*
G02*
X145210000Y-145250000I3550000J0D01*
G01*
%TD*%
M02*
