M48
; DRILL file KiCad 10.0.3 date 2026-07-03T16:30:49
; FORMAT={-:-/ absolute / metric / decimal}
; #@! TF.CreationDate,2026-07-03T16:30:49+09:00
; #@! TF.GenerationSoftware,Kicad,Pcbnew,10.0.3
; #@! TF.FileFunction,Plated,1,2,PTH
FMAT,2
METRIC
; #@! TA.AperFunction,Plated,PTH,ComponentDrill
T1C0.600
; #@! TA.AperFunction,Plated,PTH,ComponentDrill
T2C0.700
; #@! TA.AperFunction,Plated,PTH,ComponentDrill
T3C0.760
; #@! TA.AperFunction,Plated,PTH,ComponentDrill
T4C0.800
; #@! TA.AperFunction,Plated,PTH,ComponentDrill
T5C1.000
; #@! TA.AperFunction,Plated,PTH,ComponentDrill
T6C1.100
; #@! TA.AperFunction,Plated,PTH,ComponentDrill
T7C1.300
; #@! TA.AperFunction,Plated,PTH,ComponentDrill
T8C2.970
%
G90
G05
T2
X193.04Y-100.33
X195.58Y-100.33
T3
X185.892Y-92.73
X187.162Y-90.19
X188.433Y-92.73
X189.702Y-90.19
X190.972Y-92.73
X192.242Y-90.19
X193.512Y-92.73
X194.782Y-90.19
T4
X97.87Y-92.71
X102.87Y-92.71
T5
X97.498Y-82.55
X102.678Y-82.55
X109.22Y-87.63
X109.22Y-90.17
X109.22Y-92.71
X109.22Y-95.25
X109.22Y-97.79
X109.22Y-100.33
X109.22Y-102.87
X109.22Y-105.41
X109.22Y-107.95
X109.22Y-110.49
X109.22Y-113.03
X109.22Y-115.57
X109.22Y-118.11
X109.22Y-120.65
X109.22Y-123.19
X109.22Y-125.73
X130.81Y-87.63
X130.81Y-90.17
X130.81Y-92.71
X130.81Y-95.25
X130.81Y-97.79
X130.81Y-100.33
X130.81Y-102.87
X130.81Y-105.41
X130.81Y-107.95
X130.81Y-110.49
X130.81Y-113.03
X130.81Y-115.57
X130.81Y-118.11
X130.81Y-120.65
X130.81Y-123.19
X130.81Y-125.73
X135.89Y-82.55
X139.7Y-82.55
X149.86Y-114.3
X149.86Y-116.84
X149.86Y-119.38
X149.86Y-121.92
X153.67Y-114.3
X153.67Y-116.84
X153.67Y-119.38
X153.67Y-121.92
X159.14Y-81.014
X161.68Y-81.014
X164.22Y-81.014
X166.76Y-81.014
X192.06Y-115.57
X192.06Y-118.11
X192.06Y-120.65
X200.95Y-113.03
X200.95Y-118.11
X200.95Y-123.19
T6
X184.92Y-140.97
X184.92Y-149.27
X190.47Y-138.27
X196.02Y-140.97
X196.02Y-149.27
T7
X108.06Y-139.0
X108.06Y-151.5
X113.06Y-139.0
X113.06Y-151.5
X123.61Y-139.0
X123.61Y-151.5
X128.61Y-139.0
X128.61Y-151.5
X139.16Y-139.0
X139.16Y-151.5
X144.16Y-139.0
X144.16Y-151.5
X154.71Y-139.0
X154.71Y-151.5
X159.71Y-139.0
X159.71Y-151.5
X170.26Y-139.0
X170.26Y-151.5
X175.26Y-139.0
X175.26Y-151.5
T8
X184.845Y-145.12
X196.095Y-145.12
T1
G00X133.295Y-79.04
M15
G01X133.295Y-78.44
M16
G05
G00X142.24Y-79.04
M15
G01X142.24Y-78.44
M16
G05
M30
