M48
; DRILL file KiCad 10.0.3 date 2026-06-18T15:04:40
; FORMAT={-:-/ absolute / metric / decimal}
; #@! TF.CreationDate,2026-06-18T15:04:40+09:00
; #@! TF.GenerationSoftware,Kicad,Pcbnew,10.0.3
; #@! TF.FileFunction,Plated,1,2,PTH
FMAT,2
METRIC
; #@! TA.AperFunction,Plated,PTH,ComponentDrill
T1C0.600
; #@! TA.AperFunction,Plated,PTH,ComponentDrill
T2C0.700
; #@! TA.AperFunction,Plated,PTH,ComponentDrill
T3C0.760
; #@! TA.AperFunction,Plated,PTH,ComponentDrill
T4C0.800
; #@! TA.AperFunction,Plated,PTH,ComponentDrill
T5C1.000
; #@! TA.AperFunction,Plated,PTH,ComponentDrill
T6C1.300
; #@! TA.AperFunction,Plated,PTH,ComponentDrill
T7C2.000
%
G90
G05
T2
X193.68Y-100.33
X195.58Y-100.33
T3
X185.892Y-92.73
X187.162Y-90.19
X188.433Y-92.73
X189.702Y-90.19
X190.972Y-92.73
X192.242Y-90.19
X193.512Y-92.73
X194.782Y-90.19
T4
X114.34Y-93.98
X119.34Y-93.98
T5
X114.228Y-83.82
X121.728Y-83.82
X127.0Y-91.44
X127.0Y-93.98
X127.0Y-96.52
X127.0Y-99.06
X127.0Y-101.6
X127.0Y-104.14
X127.0Y-106.68
X127.0Y-109.22
X127.0Y-111.76
X127.0Y-114.3
X127.0Y-116.84
X127.0Y-119.38
X127.0Y-121.92
X127.0Y-124.46
X127.0Y-127.0
X127.0Y-129.54
X135.89Y-82.55
X139.7Y-82.55
X139.7Y-91.44
X139.7Y-93.98
X139.7Y-96.52
X139.7Y-99.06
X139.7Y-101.6
X139.7Y-104.14
X139.7Y-106.68
X139.7Y-109.22
X139.7Y-111.76
X139.7Y-114.3
X139.7Y-116.84
X139.7Y-119.38
X139.7Y-121.92
X139.7Y-124.46
X139.7Y-127.0
X139.7Y-129.54
X149.86Y-114.3
X149.86Y-116.84
X149.86Y-119.38
X149.86Y-121.92
X153.67Y-114.3
X153.67Y-116.84
X153.67Y-119.38
X153.67Y-121.92
X159.14Y-81.014
X161.68Y-81.014
X164.22Y-81.014
X166.76Y-81.014
X191.77Y-137.9
X191.77Y-152.4
X192.06Y-115.57
X192.06Y-118.11
X192.06Y-120.65
X194.27Y-152.4
X196.77Y-137.9
X196.77Y-152.4
X200.95Y-113.03
X200.95Y-118.11
X200.95Y-123.19
T6
X113.07Y-139.0
X113.07Y-151.5
X118.07Y-139.0
X118.07Y-151.5
X128.62Y-139.0
X128.62Y-151.5
X133.62Y-139.0
X133.62Y-151.5
X144.17Y-139.0
X144.17Y-151.5
X149.17Y-139.0
X149.17Y-151.5
X159.72Y-139.0
X159.72Y-151.5
X164.72Y-139.0
X164.72Y-151.5
X175.27Y-139.0
X175.27Y-151.5
X180.27Y-139.0
X180.27Y-151.5
T1
G00X133.295Y-79.04
M15
G01X133.295Y-78.44
M16
G05
G00X142.24Y-79.04
M15
G01X142.24Y-78.44
M16
G05
T7
G00X188.67Y-145.15
M15
G01X188.67Y-144.65
M16
G05
G00X199.87Y-145.15
M15
G01X199.87Y-144.65
M16
G05
M30
