%TF.GenerationSoftware,KiCad,Pcbnew,10.0.3*%
%TF.CreationDate,2026-07-03T16:31:44+09:00*%
%TF.ProjectId,switchBox,73776974-6368-4426-9f78-2e6b69636164,rev?*%
%TF.SameCoordinates,Original*%
%TF.FileFunction,Soldermask,Bot*%
%TF.FilePolarity,Negative*%
%FSLAX46Y46*%
G04 Gerber Fmt 4.6, Leading zero omitted, Abs format (unit mm)*
G04 Created by KiCad (PCBNEW 10.0.3) date 2026-07-03 16:31:44*
%MOMM*%
%LPD*%
G01*
G04 APERTURE LIST*
G04 Aperture macros list*
%AMRoundRect*
0 Rectangle with rounded corners*
0 $1 Rounding radius*
0 $2 $3 $4 $5 $6 $7 $8 $9 X,Y pos of 4 corners*
0 Add a 4 corners polygon primitive as box body*
4,1,4,$2,$3,$4,$5,$6,$7,$8,$9,$2,$3,0*
0 Add four circle primitives for the rounded corners*
1,1,$1+$1,$2,$3*
1,1,$1+$1,$4,$5*
1,1,$1+$1,$6,$7*
1,1,$1+$1,$8,$9*
0 Add four rect primitives between the rounded corners*
20,1,$1+$1,$2,$3,$4,$5,0*
20,1,$1+$1,$4,$5,$6,$7,0*
20,1,$1+$1,$6,$7,$8,$9,0*
20,1,$1+$1,$8,$9,$2,$3,0*%
G04 Aperture macros list end*
%ADD10C,1.400000*%
%ADD11O,1.900000X3.200000*%
%ADD12C,1.700000*%
%ADD13R,1.700000X1.700000*%
%ADD14C,1.650000*%
%ADD15C,4.500000*%
%ADD16C,2.540000*%
%ADD17C,3.200000*%
%ADD18R,1.500000X1.500000*%
%ADD19C,1.500000*%
%ADD20C,1.600000*%
%ADD21C,3.000000*%
%ADD22RoundRect,0.250000X0.750000X0.750000X-0.750000X0.750000X-0.750000X-0.750000X0.750000X-0.750000X0*%
%ADD23C,2.000000*%
%ADD24O,1.100000X1.700000*%
G04 APERTURE END LIST*
D10*
%TO.C,R1*%
X193040000Y-100330000D03*
X195580000Y-100330000D03*
%TD*%
D11*
%TO.C,SW2*%
X113060000Y-139000000D03*
X113060000Y-151500000D03*
X108060000Y-139000000D03*
X108060000Y-151500000D03*
%TD*%
D12*
%TO.C,J7*%
X130810000Y-125730000D03*
D13*
X130810000Y-87630000D03*
D12*
X130810000Y-95250000D03*
X130810000Y-90170000D03*
X130810000Y-97790000D03*
X130810000Y-105410000D03*
X130810000Y-102870000D03*
X130810000Y-100330000D03*
X130810000Y-110490000D03*
X130810000Y-107950000D03*
X130810000Y-115570000D03*
X130810000Y-113030000D03*
X130810000Y-123190000D03*
X130810000Y-92710000D03*
X130810000Y-118110000D03*
X130810000Y-120650000D03*
%TD*%
D14*
%TO.C,RotaryEncoder*%
X184920000Y-140970000D03*
X196020000Y-140970000D03*
X184920000Y-149270000D03*
X196020000Y-149270000D03*
X190470000Y-138270000D03*
D15*
X184845000Y-145120000D03*
X196095000Y-145120000D03*
%TD*%
D16*
%TO.C,U4*%
X152600000Y-81364000D03*
X152600000Y-104564000D03*
X173300000Y-81314000D03*
X173301249Y-104564000D03*
D13*
X159140000Y-81014000D03*
D12*
X164220000Y-81014000D03*
X166760000Y-81014000D03*
X161680000Y-81014000D03*
%TD*%
D17*
%TO.C,J1*%
X196052500Y-83840000D03*
X184622500Y-83840000D03*
D18*
X194782500Y-90190000D03*
D19*
X193512500Y-92730000D03*
X192242500Y-90190000D03*
X190972500Y-92730000D03*
X189702500Y-90190000D03*
X188432500Y-92730000D03*
X187162500Y-90190000D03*
X185892500Y-92730000D03*
%TD*%
D20*
%TO.C,C1*%
X102870000Y-92710000D03*
X97870000Y-92710000D03*
%TD*%
D11*
%TO.C,SW6*%
X170260000Y-151500000D03*
X170260000Y-139000000D03*
X175260000Y-151500000D03*
X175260000Y-139000000D03*
%TD*%
D21*
%TO.C,RS485toTTL5V_MAX1348_SH-U12*%
X192060000Y-125570000D03*
X192060000Y-110618182D03*
X152046378Y-125601818D03*
X152046378Y-110618182D03*
D12*
X153670000Y-114300000D03*
X149860000Y-114300000D03*
X200950000Y-113030000D03*
X192060000Y-115570000D03*
X200950000Y-118110000D03*
X192060000Y-118110000D03*
X200950000Y-123190000D03*
X192060000Y-120650000D03*
X153670000Y-121920000D03*
X149860000Y-121920000D03*
X153670000Y-119380000D03*
X149860000Y-119380000D03*
X153670000Y-116840000D03*
X149860000Y-116840000D03*
%TD*%
D22*
%TO.C,C2*%
X102677677Y-82550000D03*
D23*
X97497677Y-82550000D03*
%TD*%
D11*
%TO.C,SW3*%
X123610000Y-151500000D03*
X123610000Y-139000000D03*
X128610000Y-151500000D03*
X128610000Y-139000000D03*
%TD*%
%TO.C,SW5*%
X154710000Y-151500000D03*
X154710000Y-139000000D03*
X159710000Y-151500000D03*
X159710000Y-139000000D03*
%TD*%
D21*
%TO.C,H4*%
X207010000Y-151130000D03*
%TD*%
D12*
%TO.C,U1*%
X135890000Y-82550000D03*
X139700000Y-82550000D03*
D24*
X142240000Y-78740000D03*
X133295000Y-78740000D03*
%TD*%
D21*
%TO.C,H2*%
X207010000Y-80010000D03*
%TD*%
%TO.C,H3*%
X88900000Y-151130000D03*
%TD*%
D12*
%TO.C,J6*%
X109220000Y-92710000D03*
X109220000Y-90170000D03*
X109220000Y-95250000D03*
X109220000Y-102870000D03*
D13*
X109220000Y-87630000D03*
D12*
X109220000Y-97790000D03*
X109220000Y-100330000D03*
X109220000Y-105410000D03*
X109220000Y-107950000D03*
X109220000Y-113030000D03*
X109220000Y-120650000D03*
X109220000Y-123190000D03*
X109220000Y-110490000D03*
X109220000Y-125730000D03*
X109220000Y-115570000D03*
X109220000Y-118110000D03*
%TD*%
D21*
%TO.C,H1*%
X88900000Y-80010000D03*
%TD*%
D11*
%TO.C,SW4*%
X139160000Y-151500000D03*
X139160000Y-139000000D03*
X144160000Y-151500000D03*
X144160000Y-139000000D03*
%TD*%
M02*
