%TF.GenerationSoftware,KiCad,Pcbnew,10.0.3*%
%TF.CreationDate,2026-07-15T13:53:13+09:00*%
%TF.ProjectId,fixed_switchBox,66697865-645f-4737-9769-746368426f78,rev?*%
%TF.SameCoordinates,Original*%
%TF.FileFunction,Copper,L2,Bot*%
%TF.FilePolarity,Positive*%
%FSLAX46Y46*%
G04 Gerber Fmt 4.6, Leading zero omitted, Abs format (unit mm)*
G04 Created by KiCad (PCBNEW 10.0.3) date 2026-07-15 13:53:13*
%MOMM*%
%LPD*%
G01*
G04 APERTURE LIST*
G04 Aperture macros list*
%AMRoundRect*
0 Rectangle with rounded corners*
0 $1 Rounding radius*
0 $2 $3 $4 $5 $6 $7 $8 $9 X,Y pos of 4 corners*
0 Add a 4 corners polygon primitive as box body*
4,1,4,$2,$3,$4,$5,$6,$7,$8,$9,$2,$3,0*
0 Add four circle primitives for the rounded corners*
1,1,$1+$1,$2,$3*
1,1,$1+$1,$4,$5*
1,1,$1+$1,$6,$7*
1,1,$1+$1,$8,$9*
0 Add four rect primitives between the rounded corners*
20,1,$1+$1,$2,$3,$4,$5,0*
20,1,$1+$1,$4,$5,$6,$7,0*
20,1,$1+$1,$6,$7,$8,$9,0*
20,1,$1+$1,$8,$9,$2,$3,0*%
G04 Aperture macros list end*
%TA.AperFunction,ComponentPad*%
%ADD10RoundRect,0.250000X0.750000X0.750000X-0.750000X0.750000X-0.750000X-0.750000X0.750000X-0.750000X0*%
%TD*%
%TA.AperFunction,ComponentPad*%
%ADD11C,2.000000*%
%TD*%
%TA.AperFunction,WasherPad*%
%ADD12C,3.000000*%
%TD*%
%TA.AperFunction,ComponentPad*%
%ADD13C,1.700000*%
%TD*%
%TA.AperFunction,ComponentPad*%
%ADD14R,1.700000X1.700000*%
%TD*%
%TA.AperFunction,ComponentPad*%
%ADD15C,1.650000*%
%TD*%
%TA.AperFunction,ComponentPad*%
%ADD16C,4.500000*%
%TD*%
%TA.AperFunction,WasherPad*%
%ADD17C,2.540000*%
%TD*%
%TA.AperFunction,ComponentPad*%
%ADD18R,1.500000X1.500000*%
%TD*%
%TA.AperFunction,ComponentPad*%
%ADD19C,1.500000*%
%TD*%
%TA.AperFunction,ComponentPad*%
%ADD20C,1.600000*%
%TD*%
%TA.AperFunction,ComponentPad*%
%ADD21O,1.900000X3.200000*%
%TD*%
%TA.AperFunction,ComponentPad*%
%ADD22C,1.400000*%
%TD*%
%TA.AperFunction,ComponentPad*%
%ADD23O,1.100000X1.700000*%
%TD*%
%TA.AperFunction,Conductor*%
%ADD24C,0.200000*%
%TD*%
G04 APERTURE END LIST*
D10*
%TO.P,C2,1*%
%TO.N,Net-(U1-VDD)*%
X103947677Y-82550000D03*
D11*
%TO.P,C2,2*%
%TO.N,GND*%
X96447677Y-82550000D03*
%TD*%
D12*
%TO.P,,*%
%TO.N,*%
X194310000Y-125441818D03*
X194310000Y-110490000D03*
X154940000Y-125473636D03*
X154940000Y-110490000D03*
D13*
%TO.P,,5VO*%
%TO.N,Net-(U1-VDD)*%
X157480000Y-114171818D03*
X153670000Y-114171818D03*
%TO.P,,A+*%
%TO.N,Net-(J1-Pin_1)*%
X203200000Y-112901818D03*
X194310000Y-115441818D03*
%TO.P,,B-*%
%TO.N,Net-(J1-Pin_2)*%
X203200000Y-117981818D03*
X194310000Y-117981818D03*
%TO.P,,GND*%
%TO.N,GND*%
X203200000Y-123061818D03*
X194310000Y-120521818D03*
X157480000Y-121791818D03*
X153670000Y-121791818D03*
%TO.P,,RXD*%
%TO.N,Net-(J6-Pin_TXO)*%
X157480000Y-119251818D03*
X153670000Y-119251818D03*
%TO.P,,TXD*%
%TO.N,Net-(J6-Pin_RXI)*%
X157480000Y-116711818D03*
X153670000Y-116711818D03*
%TD*%
%TO.P,J7,3V3*%
%TO.N,Net-(J7_Pin_3V3)*%
X130810000Y-125730000D03*
D14*
%TO.P,J7,5V*%
%TO.N,Net-(U1-VDD)*%
X130810000Y-87630000D03*
D13*
%TO.P,J7,12*%
%TO.N,/Net-(J7-Pin_12)*%
X130810000Y-95250000D03*
%TO.P,J7,13*%
%TO.N,/Net-(J7-Pin_13)*%
X130810000Y-90170000D03*
%TO.P,J7,14*%
%TO.N,/Net-(J7-Pin_14)*%
X130810000Y-97790000D03*
%TO.P,J7,25*%
%TO.N,/Net-(J7_Pin_25)*%
X130810000Y-105410000D03*
%TO.P,J7,26*%
%TO.N,/Net-(J7-Pin_26)*%
X130810000Y-102870000D03*
%TO.P,J7,27*%
%TO.N,/Net-(J7-Pin_27)*%
X130810000Y-100330000D03*
%TO.P,J7,32*%
%TO.N,/Net-(J7-Pin_32)*%
X130810000Y-110490000D03*
%TO.P,J7,33*%
%TO.N,/Net-(J7-Pin_33)*%
X130810000Y-107950000D03*
%TO.P,J7,34*%
%TO.N,N/C*%
X130810000Y-115570000D03*
%TO.P,J7,35*%
X130810000Y-113030000D03*
%TO.P,J7,EN*%
X130810000Y-123190000D03*
%TO.P,J7,GND*%
%TO.N,GND*%
X130810000Y-92710000D03*
%TO.P,J7,SVN*%
%TO.N,N/C*%
X130810000Y-118110000D03*
%TO.P,J7,SVP*%
X130810000Y-120650000D03*
%TD*%
D15*
%TO.P,RotaryEncoder,A1*%
%TO.N,/Net-(J7-Pin_33)*%
X184920000Y-140970000D03*
%TO.P,RotaryEncoder,B1*%
%TO.N,/Net-(J7-Pin_32)*%
X196020000Y-140970000D03*
%TO.P,RotaryEncoder,C1*%
%TO.N,GND*%
X184920000Y-149270000D03*
%TO.P,RotaryEncoder,D1*%
%TO.N,/Net-(J7_Pin_25)*%
X196020000Y-149270000D03*
%TO.P,RotaryEncoder,E1*%
%TO.N,GND*%
X190470000Y-138270000D03*
D16*
%TO.P,RotaryEncoder,MH1*%
X184845000Y-145120000D03*
%TO.P,RotaryEncoder,MH2*%
X196095000Y-145120000D03*
%TD*%
D17*
%TO.P,U4,*%
%TO.N,*%
X152600000Y-81364000D03*
X152600000Y-104564000D03*
X173300000Y-81314000D03*
X173301249Y-104564000D03*
D14*
%TO.P,U4,GND*%
%TO.N,GND*%
X159140000Y-81014000D03*
D13*
%TO.P,U4,SCL*%
%TO.N,Net-(J6-Pin_22)*%
X164220000Y-81014000D03*
%TO.P,U4,SDA*%
%TO.N,Net-(J6-Pin_21)*%
X166760000Y-81014000D03*
%TO.P,U4,VCC*%
%TO.N,Net-(U1-VDD)*%
X161680000Y-81014000D03*
%TD*%
D18*
%TO.P,J1,1*%
%TO.N,Net-(J1-Pin_1)*%
X194782500Y-90190000D03*
D19*
%TO.P,J1,2*%
%TO.N,Net-(J1-Pin_2)*%
X193512500Y-92730000D03*
%TO.P,J1,3*%
%TO.N,unconnected-(J1-Pad3)*%
X192242500Y-90190000D03*
%TO.P,J1,4*%
%TO.N,unconnected-(J1-Pad4)*%
X190972500Y-92730000D03*
%TO.P,J1,5*%
%TO.N,unconnected-(J1-Pad5)*%
X189702500Y-90190000D03*
%TO.P,J1,6*%
%TO.N,unconnected-(J1-Pad6)*%
X188432500Y-92730000D03*
%TO.P,J1,7*%
%TO.N,GND*%
X187162500Y-90190000D03*
%TO.P,J1,8*%
X185892500Y-92730000D03*
%TD*%
D20*
%TO.P,C1,1*%
%TO.N,Net-(U1-VDD)*%
X102870000Y-92710000D03*
%TO.P,C1,2*%
%TO.N,GND*%
X97870000Y-92710000D03*
%TD*%
D21*
%TO.P,SW6,1,1_1*%
%TO.N,N/C*%
X170260000Y-151500000D03*
%TO.N,/Net-(J7-Pin_26)*%
X170260000Y-139000000D03*
%TO.P,SW6,2,2_2*%
%TO.N,GND*%
X175260000Y-151500000D03*
X175260000Y-139000000D03*
%TD*%
%TO.P,SW2,1,1_1*%
%TO.N,N/C*%
X108060000Y-151500000D03*
%TO.N,/Net-(J7-Pin_13)*%
X108060000Y-139000000D03*
%TO.P,SW2,2,2_2*%
%TO.N,GND*%
X113060000Y-151500000D03*
X113060000Y-139000000D03*
%TD*%
%TO.P,SW5,1,1_1*%
%TO.N,N/C*%
X154710000Y-151500000D03*
%TO.N,/Net-(J7-Pin_27)*%
X154710000Y-139000000D03*
%TO.P,SW5,2,2_2*%
%TO.N,GND*%
X159710000Y-151500000D03*
X159710000Y-139000000D03*
%TD*%
D22*
%TO.P,R1,1*%
%TO.N,Net-(J1-Pin_1)*%
X195580000Y-100330000D03*
%TO.P,R1,2*%
%TO.N,Net-(J1-Pin_2)*%
X193040000Y-100330000D03*
%TD*%
D13*
%TO.P,U1,5*%
%TO.N,GND*%
X135890000Y-82550000D03*
%TO.P,U1,6*%
%TO.N,Net-(U1-VDD)*%
X139700000Y-82550000D03*
D23*
%TO.P,U1,SH,SHIELD_SH*%
%TO.N,N/C*%
X142240000Y-78740000D03*
X133295000Y-78740000D03*
%TD*%
D13*
%TO.P,J6,0,Pin_3_3*%
%TO.N,Net-(J6-Pin_0)*%
X109220000Y-92710000D03*
%TO.P,J6,2,Pin_2_2*%
%TO.N,Net-(J6-Pin_2)*%
X109220000Y-90170000D03*
%TO.P,J6,4,Pin_4_4*%
%TO.N,Net-(J6-Pin_4)*%
X109220000Y-95250000D03*
%TO.P,J6,5,Pin_5_5*%
%TO.N,unconnected-(J6-Pin_5-Pad5)*%
X109220000Y-102870000D03*
D14*
%TO.P,J6,15,Pin_15_15*%
%TO.N,Net-(J6-Pin_15)*%
X109220000Y-87630000D03*
D13*
%TO.P,J6,16,Pin_16_16*%
%TO.N,/Net-(J6-Pin_16)*%
X109220000Y-97790000D03*
%TO.P,J6,17,Pin_6_6*%
%TO.N,Net-(J6-Pin_17)*%
X109220000Y-100330000D03*
%TO.P,J6,18,Pin_8_8*%
%TO.N,Net-(J6-Pin_18)*%
X109220000Y-105410000D03*
%TO.P,J6,19,Pin_9_9*%
%TO.N,Net-(J6-Pin_19)*%
X109220000Y-107950000D03*
%TO.P,J6,21,Pin_11_11*%
%TO.N,Net-(J6-Pin_21)*%
X109220000Y-113030000D03*
%TO.P,J6,22,Pin_14_14*%
%TO.N,Net-(J6-Pin_22)*%
X109220000Y-120650000D03*
%TO.P,J6,23,Pin_7_7*%
%TO.N,Net-(J6-Pin_23)*%
X109220000Y-123190000D03*
%TO.P,J6,GND,Pin_10_10*%
%TO.N,GND*%
X109220000Y-110490000D03*
%TO.P,J6,GND,Pin_1_1*%
X109220000Y-125730000D03*
%TO.P,J6,RXI,Pin_12_12*%
%TO.N,Net-(J6-Pin_RXI)*%
X109220000Y-115570000D03*
%TO.P,J6,TXO,Pin_13_13*%
%TO.N,Net-(J6-Pin_TXO)*%
X109220000Y-118110000D03*
%TD*%
D21*
%TO.P,SW4,1,1_1*%
%TO.N,N/C*%
X139160000Y-151500000D03*
%TO.N,/Net-(J7-Pin_14)*%
X139160000Y-139000000D03*
%TO.P,SW4,2,2_2*%
%TO.N,GND*%
X144160000Y-151500000D03*
X144160000Y-139000000D03*
%TD*%
%TO.P,SW3,1,1_1*%
%TO.N,N/C*%
X123610000Y-151500000D03*
%TO.N,/Net-(J7-Pin_12)*%
X123610000Y-139000000D03*
%TO.P,SW3,2,2_2*%
%TO.N,GND*%
X128610000Y-151500000D03*
X128610000Y-139000000D03*
%TD*%
%TO.N,/Net-(J7-Pin_26)*%
D24*
X167150000Y-135890000D02*
X170260000Y-139000000D01*
X155536346Y-135890000D02*
X167150000Y-135890000D01*
X131286346Y-111640000D02*
X155536346Y-135890000D01*
X129660000Y-110966346D02*
X130333654Y-111640000D01*
X129660000Y-104020000D02*
X129660000Y-110966346D01*
X130810000Y-102870000D02*
X129660000Y-104020000D01*
X130333654Y-111640000D02*
X131286346Y-111640000D01*
%TO.N,/Net-(J7-Pin_32)*%
X168071818Y-113021818D02*
X196020000Y-140970000D01*
X152408182Y-113021818D02*
X168071818Y-113021818D01*
X152391818Y-113021818D02*
X152400000Y-113030000D01*
X133358182Y-113021818D02*
X152391818Y-113021818D01*
X152400000Y-113030000D02*
X152408182Y-113021818D01*
X133350000Y-113030000D02*
X133358182Y-113021818D01*
X130810000Y-110490000D02*
X133350000Y-113030000D01*
%TO.N,Net-(J1-Pin_1)*%
X200660000Y-115441818D02*
X194310000Y-115441818D01*
X203200000Y-112901818D02*
X200660000Y-115441818D01*
X203200000Y-107950000D02*
X203200000Y-112901818D01*
X195580000Y-100330000D02*
X203200000Y-107950000D01*
%TO.N,Net-(J1-Pin_2)*%
X194310000Y-117981818D02*
X203200000Y-117981818D01*
X190260000Y-113931818D02*
X194310000Y-117981818D01*
X193040000Y-100330000D02*
X190260000Y-103110000D01*
X190260000Y-103110000D02*
X190260000Y-113931818D01*
%TO.N,/Net-(J7-Pin_12)*%
X119450000Y-106610000D02*
X130810000Y-95250000D01*
X119450000Y-134840000D02*
X119450000Y-106610000D01*
X123610000Y-139000000D02*
X119450000Y-134840000D01*
%TO.N,/Net-(J7-Pin_13)*%
X119050000Y-101930000D02*
X130810000Y-90170000D01*
X108060000Y-139000000D02*
X119050000Y-128010000D01*
X119050000Y-128010000D02*
X119050000Y-101930000D01*
%TO.N,/Net-(J7-Pin_14)*%
X128860000Y-128700000D02*
X128860000Y-99740000D01*
X128860000Y-99740000D02*
X130810000Y-97790000D01*
X139160000Y-139000000D02*
X128860000Y-128700000D01*
%TO.N,/Net-(J7_Pin_25)*%
X198645000Y-146645000D02*
X198645000Y-141438324D01*
X163340676Y-106134000D02*
X131534000Y-106134000D01*
X196020000Y-149270000D02*
X198645000Y-146645000D01*
X131534000Y-106134000D02*
X130810000Y-105410000D01*
X198645000Y-141438324D02*
X163340676Y-106134000D01*
%TO.N,/Net-(J7-Pin_27)*%
X129260000Y-101880000D02*
X130810000Y-100330000D01*
X130333654Y-114180000D02*
X129260000Y-113106346D01*
X154710000Y-137603654D02*
X131286346Y-114180000D01*
X131286346Y-114180000D02*
X130333654Y-114180000D01*
X129260000Y-113106346D02*
X129260000Y-101880000D01*
X154710000Y-139000000D02*
X154710000Y-137603654D01*
%TO.N,/Net-(J7-Pin_33)*%
X164590991Y-107950000D02*
X130810000Y-107950000D01*
X197145000Y-140504009D02*
X164590991Y-107950000D01*
X196485991Y-142095000D02*
X197145000Y-141435991D01*
X184920000Y-140970000D02*
X186045000Y-142095000D01*
X186045000Y-142095000D02*
X196485991Y-142095000D01*
X197145000Y-141435991D02*
X197145000Y-140504009D01*
%TO.N,Net-(J6-Pin_22)*%
X156214000Y-89020000D02*
X124696346Y-89020000D01*
X164220000Y-81014000D02*
X156214000Y-89020000D01*
X124696346Y-89020000D02*
X110370000Y-103346346D01*
X110370000Y-119500000D02*
X109220000Y-120650000D01*
X110370000Y-103346346D02*
X110370000Y-119500000D01*
%TO.N,Net-(J6-Pin_21)*%
X166760000Y-81014000D02*
X165540000Y-79794000D01*
X165540000Y-79794000D02*
X151949684Y-79794000D01*
X109456346Y-101720000D02*
X108743654Y-101720000D01*
X108743654Y-101720000D02*
X108070000Y-102393654D01*
X145263684Y-86480000D02*
X124696346Y-86480000D01*
X151949684Y-79794000D02*
X145263684Y-86480000D01*
X108070000Y-102393654D02*
X108070000Y-111880000D01*
X124696346Y-86480000D02*
X109456346Y-101720000D01*
X108070000Y-111880000D02*
X109220000Y-113030000D01*
%TO.N,Net-(J1-Pin_1)*%
X195580000Y-100330000D02*
X195580000Y-90987500D01*
X195580000Y-90987500D02*
X194782500Y-90190000D01*
%TO.N,Net-(J1-Pin_2)*%
X193040000Y-93202500D02*
X193040000Y-100330000D01*
X193512500Y-92730000D02*
X193040000Y-93202500D01*
X193680000Y-92897500D02*
X193512500Y-92730000D01*
%TD*%
%TA.AperFunction,Conductor*%
%TO.N,GND*%
G36*
X129379334Y-92552413D02*
G01*
X129435267Y-92594285D01*
X129459684Y-92659749D01*
X129460000Y-92668595D01*
X129460000Y-92816246D01*
X129493242Y-93026127D01*
X129493242Y-93026130D01*
X129558904Y-93228217D01*
X129655375Y-93417550D01*
X129694728Y-93471716D01*
X130327037Y-92839408D01*
X130344075Y-92902993D01*
X130409901Y-93017007D01*
X130502993Y-93110099D01*
X130617007Y-93175925D01*
X130680590Y-93192962D01*
X130048282Y-93825269D01*
X130048282Y-93825270D01*
X130102452Y-93864626D01*
X130102451Y-93864626D01*
X130111495Y-93869234D01*
X130162292Y-93917208D01*
X130179087Y-93985029D01*
X130156550Y-94051164D01*
X130111499Y-94090202D01*
X130102182Y-94094949D01*
X129930213Y-94219890D01*
X129779890Y-94370213D01*
X129654951Y-94542179D01*
X129558444Y-94731585D01*
X129492753Y-94933760D01*
X129459500Y-95143713D01*
X129459500Y-95356286D01*
X129492754Y-95566244D01*
X129492754Y-95566247D01*
X129506491Y-95608523D01*
X129508486Y-95678364D01*
X129476241Y-95734522D01*
X119862181Y-105348583D01*
X119800858Y-105382068D01*
X119731166Y-105377084D01*
X119675233Y-105335212D01*
X119650816Y-105269748D01*
X119650500Y-105260902D01*
X119650500Y-102230096D01*
X119670185Y-102163057D01*
X119686814Y-102142420D01*
X129248321Y-92580912D01*
X129309642Y-92547429D01*
X129379334Y-92552413D01*
G37*
%TD.AperFunction*%
%TA.AperFunction,Conductor*%
G36*
X157733039Y-80414185D02*
G01*
X157778794Y-80466989D01*
X157790000Y-80518500D01*
X157790000Y-80764000D01*
X158706988Y-80764000D01*
X158674075Y-80821007D01*
X158640000Y-80948174D01*
X158640000Y-81079826D01*
X158674075Y-81206993D01*
X158706988Y-81264000D01*
X157790000Y-81264000D01*
X157790000Y-81911844D01*
X157796401Y-81971372D01*
X157796403Y-81971379D01*
X157846645Y-82106086D01*
X157846649Y-82106093D01*
X157932809Y-82221187D01*
X157932812Y-82221190D01*
X158047906Y-82307350D01*
X158047913Y-82307354D01*
X158182620Y-82357596D01*
X158182627Y-82357598D01*
X158242155Y-82363999D01*
X158242172Y-82364000D01*
X158890000Y-82364000D01*
X158890000Y-81447012D01*
X158947007Y-81479925D01*
X159074174Y-81514000D01*
X159205826Y-81514000D01*
X159332993Y-81479925D01*
X159390000Y-81447012D01*
X159390000Y-82364000D01*
X160037828Y-82364000D01*
X160037844Y-82363999D01*
X160097372Y-82357598D01*
X160097379Y-82357596D01*
X160232086Y-82307354D01*
X160232093Y-82307350D01*
X160347187Y-82221190D01*
X160347190Y-82221187D01*
X160433350Y-82106093D01*
X160433354Y-82106086D01*
X160482422Y-81974529D01*
X160524293Y-81918595D01*
X160589757Y-81894178D01*
X160658030Y-81909030D01*
X160686285Y-81930181D01*
X160800213Y-82044109D01*
X160972179Y-82169048D01*
X160972181Y-82169049D01*
X160972184Y-82169051D01*
X161161588Y-82265557D01*
X161363757Y-82331246D01*
X161573713Y-82364500D01*
X161573714Y-82364500D01*
X161720901Y-82364500D01*
X161787940Y-82384185D01*
X161833695Y-82436989D01*
X161843639Y-82506147D01*
X161814614Y-82569703D01*
X161808582Y-82576181D01*
X156001584Y-88383181D01*
X155940261Y-88416666D01*
X155913903Y-88419500D01*
X132284500Y-88419500D01*
X132217461Y-88399815D01*
X132171706Y-88347011D01*
X132160500Y-88295500D01*
X132160499Y-87204500D01*
X132180184Y-87137461D01*
X132232987Y-87091706D01*
X132284499Y-87080500D01*
X145177015Y-87080500D01*
X145177031Y-87080501D01*
X145184627Y-87080501D01*
X145342738Y-87080501D01*
X145342741Y-87080501D01*
X145495469Y-87039577D01*
X145545588Y-87010639D01*
X145632400Y-86960520D01*
X145744204Y-86848716D01*
X145744204Y-86848714D01*
X145754412Y-86838507D01*
X145754414Y-86838504D01*
X150712782Y-81880135D01*
X150774103Y-81846652D01*
X150843795Y-81851636D01*
X150899728Y-81893508D01*
X150917818Y-81930733D01*
X150918557Y-81930483D01*
X150919861Y-81934326D01*
X151008677Y-82148745D01*
X151008685Y-82148762D01*
X151124720Y-82349743D01*
X151124721Y-82349745D01*
X151266009Y-82533875D01*
X151266015Y-82533882D01*
X151430117Y-82697984D01*
X151430124Y-82697990D01*
X151614254Y-82839278D01*
X151614256Y-82839279D01*
X151815237Y-82955314D01*
X151815240Y-82955315D01*
X151815248Y-82955320D01*
X152029670Y-83044137D01*
X152253851Y-83104206D01*
X152483955Y-83134500D01*
X152483962Y-83134500D01*
X152716038Y-83134500D01*
X152716045Y-83134500D01*
X152946149Y-83104206D01*
X153170330Y-83044137D01*
X153384752Y-82955320D01*
X153585748Y-82839276D01*
X153769877Y-82697989D01*
X153933989Y-82533877D01*
X154075276Y-82349748D01*
X154076426Y-82347757D01*
X154179602Y-82169048D01*
X154191320Y-82148752D01*
X154280137Y-81934330D01*
X154340206Y-81710149D01*
X154370500Y-81480045D01*
X154370500Y-81247955D01*
X154340206Y-81017851D01*
X154280137Y-80793670D01*
X154191320Y-80579248D01*
X154191313Y-80579236D01*
X154189527Y-80575613D01*
X154190713Y-80575027D01*
X154175571Y-80512595D01*
X154198425Y-80446569D01*
X154253348Y-80403381D01*
X154299430Y-80394500D01*
X157666000Y-80394500D01*
X157733039Y-80414185D01*
G37*
%TD.AperFunction*%
%TA.AperFunction,Conductor*%
G36*
X209565677Y-76219685D02*
G01*
X209586319Y-76236319D01*
X210783681Y-77433681D01*
X210817166Y-77495004D01*
X210820000Y-77521362D01*
X210820000Y-153618638D01*
X210800315Y-153685677D01*
X210783681Y-153706319D01*
X209586319Y-154903681D01*
X209524996Y-154937166D01*
X209498638Y-154940000D01*
X86411362Y-154940000D01*
X86344323Y-154920315D01*
X86323681Y-154903681D01*
X85126319Y-153706319D01*
X85092834Y-153644996D01*
X85090000Y-153618638D01*
X85090000Y-151015258D01*
X87149500Y-151015258D01*
X87149500Y-151244741D01*
X87174446Y-151434215D01*
X87179452Y-151472238D01*
X87237693Y-151689598D01*
X87238842Y-151693887D01*
X87326650Y-151905876D01*
X87326657Y-151905890D01*
X87441392Y-152104617D01*
X87581081Y-152286661D01*
X87581089Y-152286670D01*
X87743330Y-152448911D01*
X87743338Y-152448918D01*
X87925382Y-152588607D01*
X87925385Y-152588608D01*
X87925388Y-152588611D01*
X88124112Y-152703344D01*
X88124117Y-152703346D01*
X88124123Y-152703349D01*
X88215480Y-152741190D01*
X88336113Y-152791158D01*
X88557762Y-152850548D01*
X88785266Y-152880500D01*
X88785273Y-152880500D01*
X89014727Y-152880500D01*
X89014734Y-152880500D01*
X89242238Y-152850548D01*
X89463887Y-152791158D01*
X89675888Y-152703344D01*
X89874612Y-152588611D01*
X90056661Y-152448919D01*
X90056665Y-152448914D01*
X90056670Y-152448911D01*
X90218911Y-152286670D01*
X90218914Y-152286665D01*
X90218919Y-152286661D01*
X90358611Y-152104612D01*
X90473344Y-151905888D01*
X90561158Y-151693887D01*
X90620548Y-151472238D01*
X90650500Y-151244734D01*
X90650500Y-151015266D01*
X90620548Y-150787762D01*
X90606635Y-150735837D01*
X106609500Y-150735837D01*
X106609500Y-152264162D01*
X106645215Y-152489660D01*
X106715770Y-152706803D01*
X106804273Y-152880499D01*
X106819421Y-152910228D01*
X106953621Y-153094937D01*
X107115063Y-153256379D01*
X107299772Y-153390579D01*
X107395884Y-153439550D01*
X107503196Y-153494229D01*
X107503198Y-153494229D01*
X107503201Y-153494231D01*
X107619592Y-153532049D01*
X107720339Y-153564784D01*
X107945838Y-153600500D01*
X107945843Y-153600500D01*
X108174162Y-153600500D01*
X108399660Y-153564784D01*
X108401165Y-153564295D01*
X108616799Y-153494231D01*
X108820228Y-153390579D01*
X109004937Y-153256379D01*
X109166379Y-153094937D01*
X109300579Y-152910228D01*
X109404231Y-152706799D01*
X109474784Y-152489660D01*
X109481238Y-152448911D01*
X109510500Y-152264162D01*
X109510500Y-150735883D01*
X111610000Y-150735883D01*
X111610000Y-151250000D01*
X112459999Y-151250000D01*
X112434979Y-151310402D01*
X112410000Y-151435981D01*
X112410000Y-151564019D01*
X112434979Y-151689598D01*
X112459999Y-151750000D01*
X111610000Y-151750000D01*
X111610000Y-152264116D01*
X111645704Y-152489544D01*
X111716230Y-152706604D01*
X111819849Y-152909966D01*
X111954004Y-153094614D01*
X112115385Y-153255995D01*
X112300033Y-153390150D01*
X112503395Y-153493769D01*
X112720455Y-153564295D01*
X112810000Y-153578478D01*
X112810000Y-152100001D01*
X112870402Y-152125021D01*
X112995981Y-152150000D01*
X113124019Y-152150000D01*
X113249598Y-152125021D01*
X113310000Y-152100001D01*
X113310000Y-153578477D01*
X113399544Y-153564295D01*
X113616604Y-153493769D01*
X113819966Y-153390150D01*
X114004614Y-153255995D01*
X114165995Y-153094614D01*
X114300150Y-152909966D01*
X114403769Y-152706604D01*
X114474295Y-152489544D01*
X114510000Y-152264116D01*
X114510000Y-151750000D01*
X113660001Y-151750000D01*
X113685021Y-151689598D01*
X113710000Y-151564019D01*
X113710000Y-151435981D01*
X113685021Y-151310402D01*
X113660001Y-151250000D01*
X114510000Y-151250000D01*
X114510000Y-150735883D01*
X114509993Y-150735837D01*
X122159500Y-150735837D01*
X122159500Y-152264162D01*
X122195215Y-152489660D01*
X122265770Y-152706803D01*
X122354273Y-152880499D01*
X122369421Y-152910228D01*
X122503621Y-153094937D01*
X122665063Y-153256379D01*
X122849772Y-153390579D01*
X122945884Y-153439550D01*
X123053196Y-153494229D01*
X123053198Y-153494229D01*
X123053201Y-153494231D01*
X123169592Y-153532049D01*
X123270339Y-153564784D01*
X123495838Y-153600500D01*
X123495843Y-153600500D01*
X123724162Y-153600500D01*
X123949660Y-153564784D01*
X123951165Y-153564295D01*
X124166799Y-153494231D01*
X124370228Y-153390579D01*
X124554937Y-153256379D01*
X124716379Y-153094937D01*
X124850579Y-152910228D01*
X124954231Y-152706799D01*
X125024784Y-152489660D01*
X125031238Y-152448911D01*
X125060500Y-152264162D01*
X125060500Y-150735883D01*
X127160000Y-150735883D01*
X127160000Y-151250000D01*
X128009999Y-151250000D01*
X127984979Y-151310402D01*
X127960000Y-151435981D01*
X127960000Y-151564019D01*
X127984979Y-151689598D01*
X128009999Y-151750000D01*
X127160000Y-151750000D01*
X127160000Y-152264116D01*
X127195704Y-152489544D01*
X127266230Y-152706604D01*
X127369849Y-152909966D01*
X127504004Y-153094614D01*
X127665385Y-153255995D01*
X127850033Y-153390150D01*
X128053395Y-153493769D01*
X128270455Y-153564295D01*
X128360000Y-153578478D01*
X128360000Y-152100001D01*
X128420402Y-152125021D01*
X128545981Y-152150000D01*
X128674019Y-152150000D01*
X128799598Y-152125021D01*
X128860000Y-152100001D01*
X128860000Y-153578477D01*
X128949544Y-153564295D01*
X129166604Y-153493769D01*
X129369966Y-153390150D01*
X129554614Y-153255995D01*
X129715995Y-153094614D01*
X129850150Y-152909966D01*
X129953769Y-152706604D01*
X130024295Y-152489544D01*
X130060000Y-152264116D01*
X130060000Y-151750000D01*
X129210001Y-151750000D01*
X129235021Y-151689598D01*
X129260000Y-151564019D01*
X129260000Y-151435981D01*
X129235021Y-151310402D01*
X129210001Y-151250000D01*
X130060000Y-151250000D01*
X130060000Y-150735883D01*
X130059993Y-150735837D01*
X137709500Y-150735837D01*
X137709500Y-152264162D01*
X137745215Y-152489660D01*
X137815770Y-152706803D01*
X137904273Y-152880499D01*
X137919421Y-152910228D01*
X138053621Y-153094937D01*
X138215063Y-153256379D01*
X138399772Y-153390579D01*
X138495884Y-153439550D01*
X138603196Y-153494229D01*
X138603198Y-153494229D01*
X138603201Y-153494231D01*
X138719592Y-153532049D01*
X138820339Y-153564784D01*
X139045838Y-153600500D01*
X139045843Y-153600500D01*
X139274162Y-153600500D01*
X139499660Y-153564784D01*
X139501165Y-153564295D01*
X139716799Y-153494231D01*
X139920228Y-153390579D01*
X140104937Y-153256379D01*
X140266379Y-153094937D01*
X140400579Y-152910228D01*
X140504231Y-152706799D01*
X140574784Y-152489660D01*
X140581238Y-152448911D01*
X140610500Y-152264162D01*
X140610500Y-150735883D01*
X142710000Y-150735883D01*
X142710000Y-151250000D01*
X143559999Y-151250000D01*
X143534979Y-151310402D01*
X143510000Y-151435981D01*
X143510000Y-151564019D01*
X143534979Y-151689598D01*
X143559999Y-151750000D01*
X142710000Y-151750000D01*
X142710000Y-152264116D01*
X142745704Y-152489544D01*
X142816230Y-152706604D01*
X142919849Y-152909966D01*
X143054004Y-153094614D01*
X143215385Y-153255995D01*
X143400033Y-153390150D01*
X143603395Y-153493769D01*
X143820455Y-153564295D01*
X143910000Y-153578478D01*
X143910000Y-152100001D01*
X143970402Y-152125021D01*
X144095981Y-152150000D01*
X144224019Y-152150000D01*
X144349598Y-152125021D01*
X144410000Y-152100001D01*
X144410000Y-153578477D01*
X144499544Y-153564295D01*
X144716604Y-153493769D01*
X144919966Y-153390150D01*
X145104614Y-153255995D01*
X145265995Y-153094614D01*
X145400150Y-152909966D01*
X145503769Y-152706604D01*
X145574295Y-152489544D01*
X145610000Y-152264116D01*
X145610000Y-151750000D01*
X144760001Y-151750000D01*
X144785021Y-151689598D01*
X144810000Y-151564019D01*
X144810000Y-151435981D01*
X144785021Y-151310402D01*
X144760001Y-151250000D01*
X145610000Y-151250000D01*
X145610000Y-150735883D01*
X145609993Y-150735837D01*
X153259500Y-150735837D01*
X153259500Y-152264162D01*
X153295215Y-152489660D01*
X153365770Y-152706803D01*
X153454273Y-152880499D01*
X153469421Y-152910228D01*
X153603621Y-153094937D01*
X153765063Y-153256379D01*
X153949772Y-153390579D01*
X154045884Y-153439550D01*
X154153196Y-153494229D01*
X154153198Y-153494229D01*
X154153201Y-153494231D01*
X154269592Y-153532049D01*
X154370339Y-153564784D01*
X154595838Y-153600500D01*
X154595843Y-153600500D01*
X154824162Y-153600500D01*
X155049660Y-153564784D01*
X155051165Y-153564295D01*
X155266799Y-153494231D01*
X155470228Y-153390579D01*
X155654937Y-153256379D01*
X155816379Y-153094937D01*
X155950579Y-152910228D01*
X156054231Y-152706799D01*
X156124784Y-152489660D01*
X156131238Y-152448911D01*
X156160500Y-152264162D01*
X156160500Y-150735883D01*
X158260000Y-150735883D01*
X158260000Y-151250000D01*
X159109999Y-151250000D01*
X159084979Y-151310402D01*
X159060000Y-151435981D01*
X159060000Y-151564019D01*
X159084979Y-151689598D01*
X159109999Y-151750000D01*
X158260000Y-151750000D01*
X158260000Y-152264116D01*
X158295704Y-152489544D01*
X158366230Y-152706604D01*
X158469849Y-152909966D01*
X158604004Y-153094614D01*
X158765385Y-153255995D01*
X158950033Y-153390150D01*
X159153395Y-153493769D01*
X159370455Y-153564295D01*
X159460000Y-153578478D01*
X159460000Y-152100001D01*
X159520402Y-152125021D01*
X159645981Y-152150000D01*
X159774019Y-152150000D01*
X159899598Y-152125021D01*
X159960000Y-152100001D01*
X159960000Y-153578477D01*
X160049544Y-153564295D01*
X160266604Y-153493769D01*
X160469966Y-153390150D01*
X160654614Y-153255995D01*
X160815995Y-153094614D01*
X160950150Y-152909966D01*
X161053769Y-152706604D01*
X161124295Y-152489544D01*
X161160000Y-152264116D01*
X161160000Y-151750000D01*
X160310001Y-151750000D01*
X160335021Y-151689598D01*
X160360000Y-151564019D01*
X160360000Y-151435981D01*
X160335021Y-151310402D01*
X160310001Y-151250000D01*
X161160000Y-151250000D01*
X161160000Y-150735883D01*
X161159993Y-150735837D01*
X168809500Y-150735837D01*
X168809500Y-152264162D01*
X168845215Y-152489660D01*
X168915770Y-152706803D01*
X169004273Y-152880499D01*
X169019421Y-152910228D01*
X169153621Y-153094937D01*
X169315063Y-153256379D01*
X169499772Y-153390579D01*
X169595884Y-153439550D01*
X169703196Y-153494229D01*
X169703198Y-153494229D01*
X169703201Y-153494231D01*
X169819592Y-153532049D01*
X169920339Y-153564784D01*
X170145838Y-153600500D01*
X170145843Y-153600500D01*
X170374162Y-153600500D01*
X170599660Y-153564784D01*
X170601165Y-153564295D01*
X170816799Y-153494231D01*
X171020228Y-153390579D01*
X171204937Y-153256379D01*
X171366379Y-153094937D01*
X171500579Y-152910228D01*
X171604231Y-152706799D01*
X171674784Y-152489660D01*
X171681238Y-152448911D01*
X171710500Y-152264162D01*
X171710500Y-150735883D01*
X173810000Y-150735883D01*
X173810000Y-151250000D01*
X174659999Y-151250000D01*
X174634979Y-151310402D01*
X174610000Y-151435981D01*
X174610000Y-151564019D01*
X174634979Y-151689598D01*
X174659999Y-151750000D01*
X173810000Y-151750000D01*
X173810000Y-152264116D01*
X173845704Y-152489544D01*
X173916230Y-152706604D01*
X174019849Y-152909966D01*
X174154004Y-153094614D01*
X174315385Y-153255995D01*
X174500033Y-153390150D01*
X174703395Y-153493769D01*
X174920455Y-153564295D01*
X175010000Y-153578478D01*
X175010000Y-152100001D01*
X175070402Y-152125021D01*
X175195981Y-152150000D01*
X175324019Y-152150000D01*
X175449598Y-152125021D01*
X175510000Y-152100001D01*
X175510000Y-153578477D01*
X175599544Y-153564295D01*
X175816604Y-153493769D01*
X176019966Y-153390150D01*
X176204614Y-153255995D01*
X176365995Y-153094614D01*
X176500150Y-152909966D01*
X176603769Y-152706604D01*
X176674295Y-152489544D01*
X176710000Y-152264116D01*
X176710000Y-151750000D01*
X175860001Y-151750000D01*
X175885021Y-151689598D01*
X175910000Y-151564019D01*
X175910000Y-151435981D01*
X175885021Y-151310402D01*
X175860001Y-151250000D01*
X176710000Y-151250000D01*
X176710000Y-151015258D01*
X205259500Y-151015258D01*
X205259500Y-151244741D01*
X205284446Y-151434215D01*
X205289452Y-151472238D01*
X205347693Y-151689598D01*
X205348842Y-151693887D01*
X205436650Y-151905876D01*
X205436657Y-151905890D01*
X205551392Y-152104617D01*
X205691081Y-152286661D01*
X205691089Y-152286670D01*
X205853330Y-152448911D01*
X205853338Y-152448918D01*
X206035382Y-152588607D01*
X206035385Y-152588608D01*
X206035388Y-152588611D01*
X206234112Y-152703344D01*
X206234117Y-152703346D01*
X206234123Y-152703349D01*
X206325480Y-152741190D01*
X206446113Y-152791158D01*
X206667762Y-152850548D01*
X206895266Y-152880500D01*
X206895273Y-152880500D01*
X207124727Y-152880500D01*
X207124734Y-152880500D01*
X207352238Y-152850548D01*
X207573887Y-152791158D01*
X207785888Y-152703344D01*
X207984612Y-152588611D01*
X208166661Y-152448919D01*
X208166665Y-152448914D01*
X208166670Y-152448911D01*
X208328911Y-152286670D01*
X208328914Y-152286665D01*
X208328919Y-152286661D01*
X208468611Y-152104612D01*
X208583344Y-151905888D01*
X208671158Y-151693887D01*
X208730548Y-151472238D01*
X208760500Y-151244734D01*
X208760500Y-151015266D01*
X208730548Y-150787762D01*
X208671158Y-150566113D01*
X208603692Y-150403236D01*
X208583349Y-150354123D01*
X208583346Y-150354117D01*
X208583344Y-150354112D01*
X208468611Y-150155388D01*
X208468608Y-150155385D01*
X208468607Y-150155382D01*
X208328918Y-149973338D01*
X208328911Y-149973330D01*
X208166670Y-149811089D01*
X208166661Y-149811081D01*
X207984617Y-149671392D01*
X207785890Y-149556657D01*
X207785876Y-149556650D01*
X207573887Y-149468842D01*
X207352238Y-149409452D01*
X207314215Y-149404446D01*
X207124741Y-149379500D01*
X207124734Y-149379500D01*
X206895266Y-149379500D01*
X206895258Y-149379500D01*
X206678715Y-149408009D01*
X206667762Y-149409452D01*
X206574076Y-149434554D01*
X206446112Y-149468842D01*
X206234123Y-149556650D01*
X206234109Y-149556657D01*
X206035382Y-149671392D01*
X205853338Y-149811081D01*
X205691081Y-149973338D01*
X205551392Y-150155382D01*
X205436657Y-150354109D01*
X205436650Y-150354123D01*
X205348842Y-150566112D01*
X205348842Y-150566113D01*
X205303364Y-150735843D01*
X205289453Y-150787759D01*
X205289451Y-150787770D01*
X205259500Y-151015258D01*
X176710000Y-151015258D01*
X176710000Y-150735883D01*
X176674295Y-150510455D01*
X176624900Y-150358430D01*
X176624899Y-150358428D01*
X176603770Y-150293397D01*
X176500150Y-150090033D01*
X176365995Y-149905385D01*
X176204614Y-149744004D01*
X176019966Y-149609849D01*
X175816602Y-149506229D01*
X175599541Y-149435703D01*
X175510000Y-149421521D01*
X175510000Y-150899998D01*
X175449598Y-150874979D01*
X175324019Y-150850000D01*
X175195981Y-150850000D01*
X175070402Y-150874979D01*
X175010000Y-150899998D01*
X175010000Y-149421521D01*
X175009999Y-149421521D01*
X174920458Y-149435703D01*
X174703397Y-149506229D01*
X174500033Y-149609849D01*
X174315385Y-149744004D01*
X174154004Y-149905385D01*
X174019849Y-150090033D01*
X173916230Y-150293395D01*
X173845704Y-150510455D01*
X173810000Y-150735883D01*
X171710500Y-150735883D01*
X171710500Y-150735837D01*
X171674784Y-150510339D01*
X171625425Y-150358430D01*
X171604231Y-150293201D01*
X171604229Y-150293198D01*
X171604229Y-150293196D01*
X171534009Y-150155382D01*
X171500579Y-150089772D01*
X171366379Y-149905063D01*
X171204937Y-149743621D01*
X171020228Y-149609421D01*
X171016866Y-149607708D01*
X170816803Y-149505770D01*
X170599660Y-149435215D01*
X170374162Y-149399500D01*
X170374157Y-149399500D01*
X170145843Y-149399500D01*
X170145838Y-149399500D01*
X169920339Y-149435215D01*
X169703196Y-149505770D01*
X169499771Y-149609421D01*
X169315061Y-149743622D01*
X169153622Y-149905061D01*
X169019421Y-150089771D01*
X168915770Y-150293196D01*
X168845215Y-150510339D01*
X168809500Y-150735837D01*
X161159993Y-150735837D01*
X161124295Y-150510455D01*
X161053769Y-150293395D01*
X160950150Y-150090033D01*
X160815995Y-149905385D01*
X160654614Y-149744004D01*
X160469966Y-149609849D01*
X160266602Y-149506229D01*
X160049541Y-149435703D01*
X159960000Y-149421521D01*
X159960000Y-150899998D01*
X159899598Y-150874979D01*
X159774019Y-150850000D01*
X159645981Y-150850000D01*
X159520402Y-150874979D01*
X159460000Y-150899998D01*
X159460000Y-149421521D01*
X159459999Y-149421521D01*
X159370458Y-149435703D01*
X159153397Y-149506229D01*
X158950033Y-149609849D01*
X158765385Y-149744004D01*
X158604004Y-149905385D01*
X158469849Y-150090033D01*
X158366230Y-150293395D01*
X158295704Y-150510455D01*
X158260000Y-150735883D01*
X156160500Y-150735883D01*
X156160500Y-150735837D01*
X156124784Y-150510339D01*
X156075425Y-150358430D01*
X156054231Y-150293201D01*
X156054229Y-150293198D01*
X156054229Y-150293196D01*
X155984009Y-150155382D01*
X155950579Y-150089772D01*
X155816379Y-149905063D01*
X155654937Y-149743621D01*
X155470228Y-149609421D01*
X155466866Y-149607708D01*
X155266803Y-149505770D01*
X155049660Y-149435215D01*
X154824162Y-149399500D01*
X154824157Y-149399500D01*
X154595843Y-149399500D01*
X154595838Y-149399500D01*
X154370339Y-149435215D01*
X154153196Y-149505770D01*
X153949771Y-149609421D01*
X153765061Y-149743622D01*
X153603622Y-149905061D01*
X153469421Y-150089771D01*
X153365770Y-150293196D01*
X153295215Y-150510339D01*
X153259500Y-150735837D01*
X145609993Y-150735837D01*
X145574295Y-150510455D01*
X145503769Y-150293395D01*
X145400150Y-150090033D01*
X145265995Y-149905385D01*
X145104614Y-149744004D01*
X144919966Y-149609849D01*
X144716602Y-149506229D01*
X144499541Y-149435703D01*
X144410000Y-149421521D01*
X144410000Y-150899998D01*
X144349598Y-150874979D01*
X144224019Y-150850000D01*
X144095981Y-150850000D01*
X143970402Y-150874979D01*
X143910000Y-150899998D01*
X143910000Y-149421521D01*
X143909999Y-149421521D01*
X143820458Y-149435703D01*
X143603397Y-149506229D01*
X143400033Y-149609849D01*
X143215385Y-149744004D01*
X143054004Y-149905385D01*
X142919849Y-150090033D01*
X142816230Y-150293395D01*
X142745704Y-150510455D01*
X142710000Y-150735883D01*
X140610500Y-150735883D01*
X140610500Y-150735837D01*
X140574784Y-150510339D01*
X140525425Y-150358430D01*
X140504231Y-150293201D01*
X140504229Y-150293198D01*
X140504229Y-150293196D01*
X140434009Y-150155382D01*
X140400579Y-150089772D01*
X140266379Y-149905063D01*
X140104937Y-149743621D01*
X139920228Y-149609421D01*
X139916866Y-149607708D01*
X139716803Y-149505770D01*
X139499660Y-149435215D01*
X139274162Y-149399500D01*
X139274157Y-149399500D01*
X139045843Y-149399500D01*
X139045838Y-149399500D01*
X138820339Y-149435215D01*
X138603196Y-149505770D01*
X138399771Y-149609421D01*
X138215061Y-149743622D01*
X138053622Y-149905061D01*
X137919421Y-150089771D01*
X137815770Y-150293196D01*
X137745215Y-150510339D01*
X137709500Y-150735837D01*
X130059993Y-150735837D01*
X130024295Y-150510455D01*
X129953769Y-150293395D01*
X129850150Y-150090033D01*
X129715995Y-149905385D01*
X129554614Y-149744004D01*
X129369966Y-149609849D01*
X129166602Y-149506229D01*
X128949541Y-149435703D01*
X128860000Y-149421521D01*
X128860000Y-150899998D01*
X128799598Y-150874979D01*
X128674019Y-150850000D01*
X128545981Y-150850000D01*
X128420402Y-150874979D01*
X128360000Y-150899998D01*
X128360000Y-149421521D01*
X128359999Y-149421521D01*
X128270458Y-149435703D01*
X128053397Y-149506229D01*
X127850033Y-149609849D01*
X127665385Y-149744004D01*
X127504004Y-149905385D01*
X127369849Y-150090033D01*
X127266230Y-150293395D01*
X127195704Y-150510455D01*
X127160000Y-150735883D01*
X125060500Y-150735883D01*
X125060500Y-150735837D01*
X125024784Y-150510339D01*
X124975425Y-150358430D01*
X124954231Y-150293201D01*
X124954229Y-150293198D01*
X124954229Y-150293196D01*
X124884009Y-150155382D01*
X124850579Y-150089772D01*
X124716379Y-149905063D01*
X124554937Y-149743621D01*
X124370228Y-149609421D01*
X124366866Y-149607708D01*
X124166803Y-149505770D01*
X123949660Y-149435215D01*
X123724162Y-149399500D01*
X123724157Y-149399500D01*
X123495843Y-149399500D01*
X123495838Y-149399500D01*
X123270339Y-149435215D01*
X123053196Y-149505770D01*
X122849771Y-149609421D01*
X122665061Y-149743622D01*
X122503622Y-149905061D01*
X122369421Y-150089771D01*
X122265770Y-150293196D01*
X122195215Y-150510339D01*
X122159500Y-150735837D01*
X114509993Y-150735837D01*
X114474295Y-150510455D01*
X114403769Y-150293395D01*
X114300150Y-150090033D01*
X114165995Y-149905385D01*
X114004614Y-149744004D01*
X113819966Y-149609849D01*
X113616602Y-149506229D01*
X113399541Y-149435703D01*
X113310000Y-149421521D01*
X113310000Y-150899998D01*
X113249598Y-150874979D01*
X113124019Y-150850000D01*
X112995981Y-150850000D01*
X112870402Y-150874979D01*
X112810000Y-150899998D01*
X112810000Y-149421521D01*
X112809999Y-149421521D01*
X112720458Y-149435703D01*
X112503397Y-149506229D01*
X112300033Y-149609849D01*
X112115385Y-149744004D01*
X111954004Y-149905385D01*
X111819849Y-150090033D01*
X111716230Y-150293395D01*
X111645704Y-150510455D01*
X111610000Y-150735883D01*
X109510500Y-150735883D01*
X109510500Y-150735837D01*
X109474784Y-150510339D01*
X109425425Y-150358430D01*
X109404231Y-150293201D01*
X109404229Y-150293198D01*
X109404229Y-150293196D01*
X109334009Y-150155382D01*
X109300579Y-150089772D01*
X109166379Y-149905063D01*
X109004937Y-149743621D01*
X108820228Y-149609421D01*
X108816866Y-149607708D01*
X108616803Y-149505770D01*
X108399660Y-149435215D01*
X108174162Y-149399500D01*
X108174157Y-149399500D01*
X107945843Y-149399500D01*
X107945838Y-149399500D01*
X107720339Y-149435215D01*
X107503196Y-149505770D01*
X107299771Y-149609421D01*
X107115061Y-149743622D01*
X106953622Y-149905061D01*
X106819421Y-150089771D01*
X106715770Y-150293196D01*
X106645215Y-150510339D01*
X106609500Y-150735837D01*
X90606635Y-150735837D01*
X90561158Y-150566113D01*
X90493692Y-150403236D01*
X90473349Y-150354123D01*
X90473346Y-150354117D01*
X90473344Y-150354112D01*
X90358611Y-150155388D01*
X90358608Y-150155385D01*
X90358607Y-150155382D01*
X90218918Y-149973338D01*
X90218911Y-149973330D01*
X90056670Y-149811089D01*
X90056661Y-149811081D01*
X89874617Y-149671392D01*
X89675890Y-149556657D01*
X89675876Y-149556650D01*
X89463887Y-149468842D01*
X89242238Y-149409452D01*
X89204215Y-149404446D01*
X89014741Y-149379500D01*
X89014734Y-149379500D01*
X88785266Y-149379500D01*
X88785258Y-149379500D01*
X88568715Y-149408009D01*
X88557762Y-149409452D01*
X88464076Y-149434554D01*
X88336112Y-149468842D01*
X88124123Y-149556650D01*
X88124109Y-149556657D01*
X87925382Y-149671392D01*
X87743338Y-149811081D01*
X87581081Y-149973338D01*
X87441392Y-150155382D01*
X87326657Y-150354109D01*
X87326650Y-150354123D01*
X87238842Y-150566112D01*
X87238842Y-150566113D01*
X87193364Y-150735843D01*
X87179453Y-150787759D01*
X87179451Y-150787770D01*
X87149500Y-151015258D01*
X85090000Y-151015258D01*
X85090000Y-138235837D01*
X106609500Y-138235837D01*
X106609500Y-139764162D01*
X106645215Y-139989660D01*
X106715770Y-140206803D01*
X106819288Y-140409966D01*
X106819421Y-140410228D01*
X106953621Y-140594937D01*
X107115063Y-140756379D01*
X107299772Y-140890579D01*
X107395884Y-140939550D01*
X107503196Y-140994229D01*
X107503198Y-140994229D01*
X107503201Y-140994231D01*
X107619592Y-141032049D01*
X107720339Y-141064784D01*
X107945838Y-141100500D01*
X107945843Y-141100500D01*
X108174162Y-141100500D01*
X108399660Y-141064784D01*
X108401165Y-141064295D01*
X108616799Y-140994231D01*
X108820228Y-140890579D01*
X109004937Y-140756379D01*
X109166379Y-140594937D01*
X109300579Y-140410228D01*
X109404231Y-140206799D01*
X109474784Y-139989660D01*
X109474802Y-139989544D01*
X109510500Y-139764162D01*
X109510500Y-138450097D01*
X109530185Y-138383058D01*
X109546819Y-138362416D01*
X109673352Y-138235883D01*
X111610000Y-138235883D01*
X111610000Y-138750000D01*
X112459999Y-138750000D01*
X112434979Y-138810402D01*
X112410000Y-138935981D01*
X112410000Y-139064019D01*
X112434979Y-139189598D01*
X112459999Y-139250000D01*
X111610000Y-139250000D01*
X111610000Y-139764116D01*
X111645704Y-139989544D01*
X111716230Y-140206604D01*
X111819849Y-140409966D01*
X111954004Y-140594614D01*
X112115385Y-140755995D01*
X112300033Y-140890150D01*
X112503395Y-140993769D01*
X112720455Y-141064295D01*
X112810000Y-141078478D01*
X112810000Y-139600001D01*
X112870402Y-139625021D01*
X112995981Y-139650000D01*
X113124019Y-139650000D01*
X113249598Y-139625021D01*
X113310000Y-139600001D01*
X113310000Y-141078477D01*
X113399544Y-141064295D01*
X113616604Y-140993769D01*
X113819966Y-140890150D01*
X114004614Y-140755995D01*
X114165995Y-140594614D01*
X114300150Y-140409966D01*
X114403769Y-140206604D01*
X114474295Y-139989544D01*
X114510000Y-139764116D01*
X114510000Y-139250000D01*
X113660001Y-139250000D01*
X113685021Y-139189598D01*
X113710000Y-139064019D01*
X113710000Y-138935981D01*
X113685021Y-138810402D01*
X113660001Y-138750000D01*
X114510000Y-138750000D01*
X114510000Y-138235883D01*
X114474295Y-138010455D01*
X114403769Y-137793395D01*
X114300150Y-137590033D01*
X114165995Y-137405385D01*
X114004614Y-137244004D01*
X113819966Y-137109849D01*
X113616602Y-137006229D01*
X113399541Y-136935703D01*
X113310000Y-136921521D01*
X113310000Y-138399998D01*
X113249598Y-138374979D01*
X113124019Y-138350000D01*
X112995981Y-138350000D01*
X112870402Y-138374979D01*
X112810000Y-138399998D01*
X112810000Y-136921521D01*
X112809999Y-136921521D01*
X112720458Y-136935703D01*
X112503397Y-137006229D01*
X112300033Y-137109849D01*
X112115385Y-137244004D01*
X111954004Y-137405385D01*
X111819849Y-137590033D01*
X111716230Y-137793395D01*
X111645704Y-138010455D01*
X111610000Y-138235883D01*
X109673352Y-138235883D01*
X118637819Y-129271416D01*
X118699142Y-129237931D01*
X118768834Y-129242915D01*
X118824767Y-129284787D01*
X118849184Y-129350251D01*
X118849500Y-129359097D01*
X118849500Y-134753330D01*
X118849499Y-134753348D01*
X118849499Y-134919054D01*
X118849498Y-134919054D01*
X118890423Y-135071785D01*
X118919358Y-135121900D01*
X118919359Y-135121904D01*
X118919360Y-135121904D01*
X118969479Y-135208714D01*
X118969481Y-135208717D01*
X119088349Y-135327585D01*
X119088355Y-135327590D01*
X122123181Y-138362416D01*
X122156666Y-138423739D01*
X122159500Y-138450097D01*
X122159500Y-139764162D01*
X122195215Y-139989660D01*
X122265770Y-140206803D01*
X122369288Y-140409966D01*
X122369421Y-140410228D01*
X122503621Y-140594937D01*
X122665063Y-140756379D01*
X122849772Y-140890579D01*
X122945884Y-140939550D01*
X123053196Y-140994229D01*
X123053198Y-140994229D01*
X123053201Y-140994231D01*
X123169592Y-141032049D01*
X123270339Y-141064784D01*
X123495838Y-141100500D01*
X123495843Y-141100500D01*
X123724162Y-141100500D01*
X123949660Y-141064784D01*
X123951165Y-141064295D01*
X124166799Y-140994231D01*
X124370228Y-140890579D01*
X124554937Y-140756379D01*
X124716379Y-140594937D01*
X124850579Y-140410228D01*
X124954231Y-140206799D01*
X125024784Y-139989660D01*
X125024802Y-139989544D01*
X125060500Y-139764162D01*
X125060500Y-138235883D01*
X127160000Y-138235883D01*
X127160000Y-138750000D01*
X128009999Y-138750000D01*
X127984979Y-138810402D01*
X127960000Y-138935981D01*
X127960000Y-139064019D01*
X127984979Y-139189598D01*
X128009999Y-139250000D01*
X127160000Y-139250000D01*
X127160000Y-139764116D01*
X127195704Y-139989544D01*
X127266230Y-140206604D01*
X127369849Y-140409966D01*
X127504004Y-140594614D01*
X127665385Y-140755995D01*
X127850033Y-140890150D01*
X128053395Y-140993769D01*
X128270455Y-141064295D01*
X128360000Y-141078478D01*
X128360000Y-139600001D01*
X128420402Y-139625021D01*
X128545981Y-139650000D01*
X128674019Y-139650000D01*
X128799598Y-139625021D01*
X128860000Y-139600001D01*
X128860000Y-141078477D01*
X128949544Y-141064295D01*
X129166604Y-140993769D01*
X129369966Y-140890150D01*
X129554614Y-140755995D01*
X129715995Y-140594614D01*
X129850150Y-140409966D01*
X129953769Y-140206604D01*
X130024295Y-139989544D01*
X130060000Y-139764116D01*
X130060000Y-139250000D01*
X129210001Y-139250000D01*
X129235021Y-139189598D01*
X129260000Y-139064019D01*
X129260000Y-138935981D01*
X129235021Y-138810402D01*
X129210001Y-138750000D01*
X130060000Y-138750000D01*
X130060000Y-138235883D01*
X130024295Y-138010455D01*
X129953769Y-137793395D01*
X129850150Y-137590033D01*
X129715995Y-137405385D01*
X129554614Y-137244004D01*
X129369966Y-137109849D01*
X129166602Y-137006229D01*
X128949541Y-136935703D01*
X128860000Y-136921521D01*
X128860000Y-138399998D01*
X128799598Y-138374979D01*
X128674019Y-138350000D01*
X128545981Y-138350000D01*
X128420402Y-138374979D01*
X128360000Y-138399998D01*
X128360000Y-136921521D01*
X128359999Y-136921521D01*
X128270458Y-136935703D01*
X128053397Y-137006229D01*
X127850033Y-137109849D01*
X127665385Y-137244004D01*
X127504004Y-137405385D01*
X127369849Y-137590033D01*
X127266230Y-137793395D01*
X127195704Y-138010455D01*
X127160000Y-138235883D01*
X125060500Y-138235883D01*
X125060500Y-138235837D01*
X125024784Y-138010339D01*
X124992049Y-137909592D01*
X124954231Y-137793201D01*
X124954229Y-137793198D01*
X124954229Y-137793196D01*
X124899550Y-137685884D01*
X124850579Y-137589772D01*
X124716379Y-137405063D01*
X124554937Y-137243621D01*
X124370228Y-137109421D01*
X124166803Y-137005770D01*
X123949660Y-136935215D01*
X123724162Y-136899500D01*
X123724157Y-136899500D01*
X123495843Y-136899500D01*
X123495838Y-136899500D01*
X123270339Y-136935215D01*
X123053196Y-137005770D01*
X122849769Y-137109422D01*
X122772629Y-137165467D01*
X122706823Y-137188946D01*
X122638769Y-137173120D01*
X122612064Y-137152829D01*
X120086819Y-134627584D01*
X120053334Y-134566261D01*
X120050500Y-134539903D01*
X120050500Y-106910096D01*
X120070185Y-106843057D01*
X120086814Y-106822420D01*
X129247819Y-97661414D01*
X129309142Y-97627930D01*
X129378834Y-97632914D01*
X129434767Y-97674786D01*
X129459184Y-97740250D01*
X129459500Y-97749096D01*
X129459500Y-97896286D01*
X129492754Y-98106244D01*
X129492754Y-98106247D01*
X129506491Y-98148523D01*
X129508486Y-98218364D01*
X129476241Y-98274522D01*
X128491286Y-99259478D01*
X128379481Y-99371282D01*
X128379475Y-99371290D01*
X128337863Y-99443366D01*
X128337863Y-99443368D01*
X128300423Y-99508214D01*
X128300423Y-99508215D01*
X128259499Y-99660943D01*
X128259499Y-99660945D01*
X128259499Y-99829046D01*
X128259500Y-99829059D01*
X128259500Y-128613330D01*
X128259499Y-128613348D01*
X128259499Y-128779054D01*
X128259498Y-128779054D01*
X128300423Y-128931785D01*
X128329358Y-128981900D01*
X128329359Y-128981904D01*
X128329360Y-128981904D01*
X128379479Y-129068714D01*
X128379481Y-129068717D01*
X128498349Y-129187585D01*
X128498355Y-129187590D01*
X137673181Y-138362416D01*
X137706666Y-138423739D01*
X137709500Y-138450097D01*
X137709500Y-139764162D01*
X137745215Y-139989660D01*
X137815770Y-140206803D01*
X137919288Y-140409966D01*
X137919421Y-140410228D01*
X138053621Y-140594937D01*
X138215063Y-140756379D01*
X138399772Y-140890579D01*
X138495884Y-140939550D01*
X138603196Y-140994229D01*
X138603198Y-140994229D01*
X138603201Y-140994231D01*
X138719592Y-141032049D01*
X138820339Y-141064784D01*
X139045838Y-141100500D01*
X139045843Y-141100500D01*
X139274162Y-141100500D01*
X139499660Y-141064784D01*
X139501165Y-141064295D01*
X139716799Y-140994231D01*
X139920228Y-140890579D01*
X140104937Y-140756379D01*
X140266379Y-140594937D01*
X140400579Y-140410228D01*
X140504231Y-140206799D01*
X140574784Y-139989660D01*
X140574802Y-139989544D01*
X140610500Y-139764162D01*
X140610500Y-138235883D01*
X142710000Y-138235883D01*
X142710000Y-138750000D01*
X143559999Y-138750000D01*
X143534979Y-138810402D01*
X143510000Y-138935981D01*
X143510000Y-139064019D01*
X143534979Y-139189598D01*
X143559999Y-139250000D01*
X142710000Y-139250000D01*
X142710000Y-139764116D01*
X142745704Y-139989544D01*
X142816230Y-140206604D01*
X142919849Y-140409966D01*
X143054004Y-140594614D01*
X143215385Y-140755995D01*
X143400033Y-140890150D01*
X143603395Y-140993769D01*
X143820455Y-141064295D01*
X143910000Y-141078478D01*
X143910000Y-139600001D01*
X143970402Y-139625021D01*
X144095981Y-139650000D01*
X144224019Y-139650000D01*
X144349598Y-139625021D01*
X144410000Y-139600001D01*
X144410000Y-141078477D01*
X144499544Y-141064295D01*
X144716604Y-140993769D01*
X144919966Y-140890150D01*
X145104614Y-140755995D01*
X145265995Y-140594614D01*
X145400150Y-140409966D01*
X145503769Y-140206604D01*
X145574295Y-139989544D01*
X145610000Y-139764116D01*
X145610000Y-139250000D01*
X144760001Y-139250000D01*
X144785021Y-139189598D01*
X144810000Y-139064019D01*
X144810000Y-138935981D01*
X144785021Y-138810402D01*
X144760001Y-138750000D01*
X145610000Y-138750000D01*
X145610000Y-138235883D01*
X145574295Y-138010455D01*
X145503769Y-137793395D01*
X145400150Y-137590033D01*
X145265995Y-137405385D01*
X145104614Y-137244004D01*
X144919966Y-137109849D01*
X144716602Y-137006229D01*
X144499541Y-136935703D01*
X144410000Y-136921521D01*
X144410000Y-138399998D01*
X144349598Y-138374979D01*
X144224019Y-138350000D01*
X144095981Y-138350000D01*
X143970402Y-138374979D01*
X143910000Y-138399998D01*
X143910000Y-136921521D01*
X143909999Y-136921521D01*
X143820458Y-136935703D01*
X143603397Y-137006229D01*
X143400033Y-137109849D01*
X143215385Y-137244004D01*
X143054004Y-137405385D01*
X142919849Y-137590033D01*
X142816230Y-137793395D01*
X142745704Y-138010455D01*
X142710000Y-138235883D01*
X140610500Y-138235883D01*
X140610500Y-138235837D01*
X140574784Y-138010339D01*
X140542049Y-137909592D01*
X140504231Y-137793201D01*
X140504229Y-137793198D01*
X140504229Y-137793196D01*
X140449550Y-137685884D01*
X140400579Y-137589772D01*
X140266379Y-137405063D01*
X140104937Y-137243621D01*
X139920228Y-137109421D01*
X139716803Y-137005770D01*
X139499660Y-136935215D01*
X139274162Y-136899500D01*
X139274157Y-136899500D01*
X139045843Y-136899500D01*
X139045838Y-136899500D01*
X138820339Y-136935215D01*
X138603196Y-137005770D01*
X138399767Y-137109423D01*
X138322631Y-137165466D01*
X138256824Y-137188946D01*
X138188771Y-137173120D01*
X138162065Y-137152829D01*
X129496819Y-128487583D01*
X129463334Y-128426260D01*
X129460500Y-128399902D01*
X129460500Y-126551813D01*
X129480185Y-126484774D01*
X129532989Y-126439019D01*
X129602147Y-126429075D01*
X129665703Y-126458100D01*
X129684816Y-126478924D01*
X129737772Y-126551813D01*
X129779896Y-126609792D01*
X129930213Y-126760109D01*
X130102179Y-126885048D01*
X130102181Y-126885049D01*
X130102184Y-126885051D01*
X130291588Y-126981557D01*
X130493757Y-127047246D01*
X130703713Y-127080500D01*
X130703714Y-127080500D01*
X130916286Y-127080500D01*
X130916287Y-127080500D01*
X131126243Y-127047246D01*
X131328412Y-126981557D01*
X131517816Y-126885051D01*
X131641079Y-126795496D01*
X131689786Y-126760109D01*
X131689788Y-126760106D01*
X131689792Y-126760104D01*
X131840104Y-126609792D01*
X131840106Y-126609788D01*
X131840109Y-126609786D01*
X131965048Y-126437820D01*
X131965047Y-126437820D01*
X131965051Y-126437816D01*
X132061557Y-126248412D01*
X132127246Y-126046243D01*
X132160500Y-125836287D01*
X132160500Y-125623713D01*
X132127246Y-125413757D01*
X132061557Y-125211588D01*
X131965051Y-125022184D01*
X131965049Y-125022181D01*
X131965048Y-125022179D01*
X131840109Y-124850213D01*
X131689786Y-124699890D01*
X131517820Y-124574951D01*
X131509600Y-124570763D01*
X131509054Y-124570485D01*
X131458259Y-124522512D01*
X131441463Y-124454692D01*
X131463999Y-124388556D01*
X131509054Y-124349515D01*
X131517816Y-124345051D01*
X131541266Y-124328014D01*
X131689786Y-124220109D01*
X131689788Y-124220106D01*
X131689792Y-124220104D01*
X131840104Y-124069792D01*
X131840106Y-124069788D01*
X131840109Y-124069786D01*
X131965048Y-123897820D01*
X131965047Y-123897820D01*
X131965051Y-123897816D01*
X132061557Y-123708412D01*
X132127246Y-123506243D01*
X132160500Y-123296287D01*
X132160500Y-123083713D01*
X132127246Y-122873757D01*
X132061557Y-122671588D01*
X131965051Y-122482184D01*
X131965049Y-122482181D01*
X131965048Y-122482179D01*
X131840109Y-122310213D01*
X131689786Y-122159890D01*
X131517820Y-122034951D01*
X131517115Y-122034591D01*
X131509054Y-122030485D01*
X131458259Y-121982512D01*
X131441463Y-121914692D01*
X131463999Y-121848556D01*
X131509054Y-121809515D01*
X131517816Y-121805051D01*
X131539789Y-121789086D01*
X131689786Y-121680109D01*
X131689788Y-121680106D01*
X131689792Y-121680104D01*
X131840104Y-121529792D01*
X131840106Y-121529788D01*
X131840109Y-121529786D01*
X131965048Y-121357820D01*
X131965047Y-121357820D01*
X131965051Y-121357816D01*
X132061557Y-121168412D01*
X132127246Y-120966243D01*
X132160500Y-120756287D01*
X132160500Y-120543713D01*
X132127246Y-120333757D01*
X132061557Y-120131588D01*
X131965051Y-119942184D01*
X131965049Y-119942181D01*
X131965048Y-119942179D01*
X131840109Y-119770213D01*
X131689786Y-119619890D01*
X131517820Y-119494951D01*
X131517115Y-119494591D01*
X131509054Y-119490485D01*
X131458259Y-119442512D01*
X131441463Y-119374692D01*
X131463999Y-119308556D01*
X131509054Y-119269515D01*
X131517816Y-119265051D01*
X131561417Y-119233373D01*
X131689786Y-119140109D01*
X131689788Y-119140106D01*
X131689792Y-119140104D01*
X131840104Y-118989792D01*
X131840106Y-118989788D01*
X131840109Y-118989786D01*
X131965048Y-118817820D01*
X131965047Y-118817820D01*
X131965051Y-118817816D01*
X132061557Y-118628412D01*
X132127246Y-118426243D01*
X132160500Y-118216287D01*
X132160500Y-118003713D01*
X132127246Y-117793757D01*
X132061557Y-117591588D01*
X131965051Y-117402184D01*
X131965049Y-117402181D01*
X131965048Y-117402179D01*
X131840109Y-117230213D01*
X131689786Y-117079890D01*
X131517820Y-116954951D01*
X131517115Y-116954591D01*
X131509054Y-116950485D01*
X131458259Y-116902512D01*
X131441463Y-116834692D01*
X131463999Y-116768556D01*
X131509054Y-116729515D01*
X131517816Y-116725051D01*
X131601059Y-116664572D01*
X131689786Y-116600109D01*
X131689788Y-116600106D01*
X131689792Y-116600104D01*
X131840104Y-116449792D01*
X131840106Y-116449788D01*
X131840109Y-116449786D01*
X131965048Y-116277820D01*
X131965047Y-116277820D01*
X131965051Y-116277816D01*
X132061557Y-116088412D01*
X132068667Y-116066528D01*
X132108102Y-116008856D01*
X132172460Y-115981657D01*
X132241306Y-115993570D01*
X132274278Y-116017167D01*
X153553373Y-137296262D01*
X153586858Y-137357585D01*
X153581874Y-137427277D01*
X153566010Y-137456828D01*
X153469423Y-137589768D01*
X153365770Y-137793196D01*
X153295215Y-138010339D01*
X153259500Y-138235837D01*
X153259500Y-139764162D01*
X153295215Y-139989660D01*
X153365770Y-140206803D01*
X153469288Y-140409966D01*
X153469421Y-140410228D01*
X153603621Y-140594937D01*
X153765063Y-140756379D01*
X153949772Y-140890579D01*
X154045884Y-140939550D01*
X154153196Y-140994229D01*
X154153198Y-140994229D01*
X154153201Y-140994231D01*
X154269592Y-141032049D01*
X154370339Y-141064784D01*
X154595838Y-141100500D01*
X154595843Y-141100500D01*
X154824162Y-141100500D01*
X155049660Y-141064784D01*
X155051165Y-141064295D01*
X155266799Y-140994231D01*
X155470228Y-140890579D01*
X155654937Y-140756379D01*
X155816379Y-140594937D01*
X155950579Y-140410228D01*
X156054231Y-140206799D01*
X156124784Y-139989660D01*
X156124802Y-139989544D01*
X156160500Y-139764162D01*
X156160500Y-138235883D01*
X158260000Y-138235883D01*
X158260000Y-138750000D01*
X159109999Y-138750000D01*
X159084979Y-138810402D01*
X159060000Y-138935981D01*
X159060000Y-139064019D01*
X159084979Y-139189598D01*
X159109999Y-139250000D01*
X158260000Y-139250000D01*
X158260000Y-139764116D01*
X158295704Y-139989544D01*
X158366230Y-140206604D01*
X158469849Y-140409966D01*
X158604004Y-140594614D01*
X158765385Y-140755995D01*
X158950033Y-140890150D01*
X159153395Y-140993769D01*
X159370455Y-141064295D01*
X159460000Y-141078478D01*
X159460000Y-139600001D01*
X159520402Y-139625021D01*
X159645981Y-139650000D01*
X159774019Y-139650000D01*
X159899598Y-139625021D01*
X159960000Y-139600001D01*
X159960000Y-141078477D01*
X160049544Y-141064295D01*
X160266604Y-140993769D01*
X160469966Y-140890150D01*
X160654614Y-140755995D01*
X160815995Y-140594614D01*
X160950150Y-140409966D01*
X161053769Y-140206604D01*
X161124295Y-139989544D01*
X161160000Y-139764116D01*
X161160000Y-139250000D01*
X160310001Y-139250000D01*
X160335021Y-139189598D01*
X160360000Y-139064019D01*
X160360000Y-138935981D01*
X160335021Y-138810402D01*
X160310001Y-138750000D01*
X161160000Y-138750000D01*
X161160000Y-138235883D01*
X161124295Y-138010455D01*
X161053769Y-137793395D01*
X160950150Y-137590033D01*
X160815995Y-137405385D01*
X160654614Y-137244004D01*
X160469966Y-137109849D01*
X160266602Y-137006229D01*
X160049541Y-136935703D01*
X159960000Y-136921521D01*
X159960000Y-138399998D01*
X159899598Y-138374979D01*
X159774019Y-138350000D01*
X159645981Y-138350000D01*
X159520402Y-138374979D01*
X159460000Y-138399998D01*
X159460000Y-136921521D01*
X159459999Y-136921521D01*
X159370458Y-136935703D01*
X159153397Y-137006229D01*
X158950033Y-137109849D01*
X158765385Y-137244004D01*
X158604004Y-137405385D01*
X158469849Y-137590033D01*
X158366230Y-137793395D01*
X158295704Y-138010455D01*
X158260000Y-138235883D01*
X156160500Y-138235883D01*
X156160500Y-138235837D01*
X156124784Y-138010339D01*
X156092049Y-137909592D01*
X156054231Y-137793201D01*
X156054229Y-137793198D01*
X156054229Y-137793196D01*
X155999550Y-137685884D01*
X155950579Y-137589772D01*
X155816379Y-137405063D01*
X155654937Y-137243621D01*
X155470228Y-137109421D01*
X155266799Y-137005769D01*
X155049660Y-136935216D01*
X155049658Y-136935215D01*
X155049656Y-136935215D01*
X154900693Y-136911621D01*
X154837558Y-136881691D01*
X154832410Y-136876829D01*
X131925623Y-113970042D01*
X131892138Y-113908719D01*
X131897122Y-113839027D01*
X131912982Y-113809481D01*
X131965051Y-113737816D01*
X132061557Y-113548412D01*
X132068667Y-113526528D01*
X132108102Y-113468856D01*
X132172460Y-113441657D01*
X132241306Y-113453570D01*
X132274278Y-113477167D01*
X155051485Y-136254374D01*
X155051495Y-136254385D01*
X155055825Y-136258715D01*
X155055826Y-136258716D01*
X155167630Y-136370520D01*
X155254441Y-136420639D01*
X155254443Y-136420641D01*
X155292497Y-136442611D01*
X155304561Y-136449577D01*
X155457289Y-136490501D01*
X155457292Y-136490501D01*
X155622999Y-136490501D01*
X155623015Y-136490500D01*
X166849903Y-136490500D01*
X166916942Y-136510185D01*
X166937584Y-136526819D01*
X168773181Y-138362416D01*
X168806666Y-138423739D01*
X168809500Y-138450097D01*
X168809500Y-139764162D01*
X168845215Y-139989660D01*
X168915770Y-140206803D01*
X169019288Y-140409966D01*
X169019421Y-140410228D01*
X169153621Y-140594937D01*
X169315063Y-140756379D01*
X169499772Y-140890579D01*
X169595884Y-140939550D01*
X169703196Y-140994229D01*
X169703198Y-140994229D01*
X169703201Y-140994231D01*
X169819592Y-141032049D01*
X169920339Y-141064784D01*
X170145838Y-141100500D01*
X170145843Y-141100500D01*
X170374162Y-141100500D01*
X170599660Y-141064784D01*
X170601165Y-141064295D01*
X170816799Y-140994231D01*
X171020228Y-140890579D01*
X171204937Y-140756379D01*
X171366379Y-140594937D01*
X171500579Y-140410228D01*
X171604231Y-140206799D01*
X171674784Y-139989660D01*
X171674802Y-139989544D01*
X171710500Y-139764162D01*
X171710500Y-138235883D01*
X173810000Y-138235883D01*
X173810000Y-138750000D01*
X174659999Y-138750000D01*
X174634979Y-138810402D01*
X174610000Y-138935981D01*
X174610000Y-139064019D01*
X174634979Y-139189598D01*
X174659999Y-139250000D01*
X173810000Y-139250000D01*
X173810000Y-139764116D01*
X173845704Y-139989544D01*
X173916230Y-140206604D01*
X174019849Y-140409966D01*
X174154004Y-140594614D01*
X174315385Y-140755995D01*
X174500033Y-140890150D01*
X174703395Y-140993769D01*
X174920455Y-141064295D01*
X175010000Y-141078478D01*
X175010000Y-139600001D01*
X175070402Y-139625021D01*
X175195981Y-139650000D01*
X175324019Y-139650000D01*
X175449598Y-139625021D01*
X175510000Y-139600001D01*
X175510000Y-141078477D01*
X175599544Y-141064295D01*
X175816604Y-140993769D01*
X176019966Y-140890150D01*
X176204614Y-140755995D01*
X176365995Y-140594614D01*
X176500150Y-140409966D01*
X176603769Y-140206604D01*
X176674295Y-139989544D01*
X176710000Y-139764116D01*
X176710000Y-139250000D01*
X175860001Y-139250000D01*
X175885021Y-139189598D01*
X175910000Y-139064019D01*
X175910000Y-138935981D01*
X175885021Y-138810402D01*
X175860001Y-138750000D01*
X176710000Y-138750000D01*
X176710000Y-138235883D01*
X176701188Y-138180246D01*
X176674295Y-138010455D01*
X176603769Y-137793395D01*
X176500150Y-137590033D01*
X176365995Y-137405385D01*
X176204614Y-137244004D01*
X176019966Y-137109849D01*
X175816602Y-137006229D01*
X175599541Y-136935703D01*
X175510000Y-136921521D01*
X175510000Y-138399998D01*
X175449598Y-138374979D01*
X175324019Y-138350000D01*
X175195981Y-138350000D01*
X175070402Y-138374979D01*
X175010000Y-138399998D01*
X175010000Y-136921521D01*
X175009999Y-136921521D01*
X174920458Y-136935703D01*
X174703397Y-137006229D01*
X174500033Y-137109849D01*
X174315385Y-137244004D01*
X174154004Y-137405385D01*
X174019849Y-137590033D01*
X173916230Y-137793395D01*
X173845704Y-138010455D01*
X173810000Y-138235883D01*
X171710500Y-138235883D01*
X171710500Y-138235837D01*
X171674784Y-138010339D01*
X171642049Y-137909592D01*
X171604231Y-137793201D01*
X171604229Y-137793198D01*
X171604229Y-137793196D01*
X171549550Y-137685884D01*
X171500579Y-137589772D01*
X171366379Y-137405063D01*
X171204937Y-137243621D01*
X171020228Y-137109421D01*
X170816803Y-137005770D01*
X170599660Y-136935215D01*
X170374162Y-136899500D01*
X170374157Y-136899500D01*
X170145843Y-136899500D01*
X170145838Y-136899500D01*
X169920339Y-136935215D01*
X169703196Y-137005770D01*
X169499769Y-137109422D01*
X169422629Y-137165467D01*
X169356823Y-137188946D01*
X169288769Y-137173120D01*
X169262064Y-137152829D01*
X167637590Y-135528355D01*
X167637588Y-135528352D01*
X167518717Y-135409481D01*
X167518716Y-135409480D01*
X167431904Y-135359360D01*
X167431904Y-135359359D01*
X167431900Y-135359358D01*
X167381785Y-135330423D01*
X167229057Y-135289499D01*
X167070943Y-135289499D01*
X167063347Y-135289499D01*
X167063331Y-135289500D01*
X155836443Y-135289500D01*
X155769404Y-135269815D01*
X155748762Y-135253181D01*
X145838089Y-125342508D01*
X152939500Y-125342508D01*
X152939500Y-125604763D01*
X152955989Y-125729999D01*
X152973730Y-125864752D01*
X153033079Y-126086246D01*
X153041602Y-126118054D01*
X153041605Y-126118064D01*
X153141953Y-126360326D01*
X153141958Y-126360336D01*
X153273075Y-126587439D01*
X153432718Y-126795487D01*
X153432726Y-126795496D01*
X153618140Y-126980910D01*
X153618148Y-126980917D01*
X153826196Y-127140560D01*
X154053299Y-127271677D01*
X154053309Y-127271682D01*
X154295571Y-127372030D01*
X154295581Y-127372034D01*
X154548884Y-127439906D01*
X154808880Y-127474136D01*
X154808887Y-127474136D01*
X155071113Y-127474136D01*
X155071120Y-127474136D01*
X155331116Y-127439906D01*
X155584419Y-127372034D01*
X155826697Y-127271679D01*
X156053803Y-127140560D01*
X156261851Y-126980918D01*
X156261855Y-126980913D01*
X156261860Y-126980910D01*
X156447274Y-126795496D01*
X156447277Y-126795491D01*
X156447282Y-126795487D01*
X156606924Y-126587439D01*
X156738043Y-126360333D01*
X156751223Y-126328515D01*
X156838394Y-126118064D01*
X156838398Y-126118055D01*
X156906270Y-125864752D01*
X156940500Y-125604756D01*
X156940500Y-125342516D01*
X156906270Y-125082520D01*
X156838398Y-124829217D01*
X156825219Y-124797399D01*
X156738046Y-124586945D01*
X156738041Y-124586935D01*
X156606924Y-124359832D01*
X156447281Y-124151784D01*
X156447274Y-124151776D01*
X156261860Y-123966362D01*
X156261851Y-123966354D01*
X156053803Y-123806711D01*
X155826700Y-123675594D01*
X155826690Y-123675589D01*
X155584428Y-123575241D01*
X155584421Y-123575239D01*
X155584419Y-123575238D01*
X155331116Y-123507366D01*
X155273339Y-123499759D01*
X155071127Y-123473136D01*
X155071120Y-123473136D01*
X154808880Y-123473136D01*
X154808872Y-123473136D01*
X154577772Y-123503562D01*
X154548884Y-123507366D01*
X154295581Y-123575238D01*
X154295571Y-123575241D01*
X154053309Y-123675589D01*
X154053299Y-123675594D01*
X153826196Y-123806711D01*
X153618148Y-123966354D01*
X153432718Y-124151784D01*
X153273075Y-124359832D01*
X153141958Y-124586935D01*
X153141953Y-124586945D01*
X153041605Y-124829207D01*
X153041602Y-124829217D01*
X152982256Y-125050703D01*
X152973730Y-125082521D01*
X152939500Y-125342508D01*
X145838089Y-125342508D01*
X134329580Y-113833999D01*
X134296095Y-113772676D01*
X134301079Y-113702984D01*
X134342951Y-113647051D01*
X134408415Y-113622634D01*
X134417261Y-113622318D01*
X152257873Y-113622318D01*
X152324912Y-113642003D01*
X152370667Y-113694807D01*
X152380611Y-113763965D01*
X152375804Y-113784636D01*
X152352753Y-113855578D01*
X152340661Y-113931927D01*
X152319500Y-114065531D01*
X152319500Y-114278105D01*
X152323053Y-114300535D01*
X152347587Y-114455443D01*
X152352754Y-114488061D01*
X152418437Y-114690213D01*
X152418444Y-114690232D01*
X152514951Y-114879638D01*
X152639890Y-115051604D01*
X152790213Y-115201927D01*
X152962182Y-115326868D01*
X152970946Y-115331334D01*
X153021742Y-115379309D01*
X153038536Y-115447130D01*
X153015998Y-115513265D01*
X152970946Y-115552302D01*
X152962182Y-115556767D01*
X152790213Y-115681708D01*
X152639890Y-115832031D01*
X152514951Y-116003997D01*
X152418444Y-116193403D01*
X152352753Y-116395578D01*
X152340661Y-116471927D01*
X152319500Y-116605531D01*
X152319500Y-116818105D01*
X152352754Y-117028061D01*
X152418437Y-117230213D01*
X152418444Y-117230232D01*
X152514951Y-117419638D01*
X152639890Y-117591604D01*
X152790213Y-117741927D01*
X152962182Y-117866868D01*
X152970946Y-117871334D01*
X153021742Y-117919309D01*
X153038536Y-117987130D01*
X153015998Y-118053265D01*
X152970946Y-118092302D01*
X152962182Y-118096767D01*
X152790213Y-118221708D01*
X152639890Y-118372031D01*
X152514951Y-118543997D01*
X152418444Y-118733403D01*
X152352753Y-118935578D01*
X152340661Y-119011927D01*
X152319500Y-119145531D01*
X152319500Y-119358105D01*
X152352754Y-119568061D01*
X152418437Y-119770213D01*
X152418444Y-119770232D01*
X152514951Y-119959638D01*
X152639890Y-120131604D01*
X152790213Y-120281927D01*
X152962179Y-120406866D01*
X152962181Y-120406867D01*
X152962184Y-120406869D01*
X152971493Y-120411612D01*
X153022290Y-120459584D01*
X153039087Y-120527405D01*
X153016552Y-120593540D01*
X152971505Y-120632578D01*
X152962446Y-120637194D01*
X152962440Y-120637198D01*
X152908282Y-120676545D01*
X152908282Y-120676546D01*
X153540591Y-121308855D01*
X153477007Y-121325893D01*
X153362993Y-121391719D01*
X153269901Y-121484811D01*
X153204075Y-121598825D01*
X153187037Y-121662409D01*
X152554728Y-121030100D01*
X152554727Y-121030100D01*
X152515380Y-121084257D01*
X152418904Y-121273600D01*
X152353242Y-121475687D01*
X152353242Y-121475690D01*
X152320000Y-121685571D01*
X152320000Y-121898064D01*
X152353242Y-122107945D01*
X152353242Y-122107948D01*
X152418904Y-122310035D01*
X152515375Y-122499368D01*
X152554728Y-122553534D01*
X153187037Y-121921226D01*
X153204075Y-121984811D01*
X153269901Y-122098825D01*
X153362993Y-122191917D01*
X153477007Y-122257743D01*
X153540590Y-122274780D01*
X152908282Y-122907087D01*
X152908282Y-122907088D01*
X152962449Y-122946442D01*
X153151782Y-123042913D01*
X153353870Y-123108575D01*
X153563754Y-123141818D01*
X153776246Y-123141818D01*
X153986127Y-123108575D01*
X153986130Y-123108575D01*
X154188217Y-123042913D01*
X154377554Y-122946440D01*
X154431716Y-122907088D01*
X154431717Y-122907088D01*
X153799408Y-122274780D01*
X153862993Y-122257743D01*
X153977007Y-122191917D01*
X154070099Y-122098825D01*
X154135925Y-121984811D01*
X154152962Y-121921226D01*
X154785270Y-122553535D01*
X154785270Y-122553534D01*
X154824622Y-122499372D01*
X154921095Y-122310035D01*
X154986757Y-122107948D01*
X154986757Y-122107945D01*
X155020000Y-121898064D01*
X155020000Y-121685571D01*
X154986757Y-121475690D01*
X154986757Y-121475687D01*
X154921095Y-121273600D01*
X154824624Y-121084267D01*
X154785270Y-121030100D01*
X154785269Y-121030100D01*
X154152962Y-121662408D01*
X154135925Y-121598825D01*
X154070099Y-121484811D01*
X153977007Y-121391719D01*
X153862993Y-121325893D01*
X153799409Y-121308855D01*
X154431716Y-120676546D01*
X154377547Y-120637191D01*
X154377547Y-120637190D01*
X154368500Y-120632581D01*
X154317706Y-120584606D01*
X154300912Y-120516784D01*
X154323451Y-120450650D01*
X154368508Y-120411611D01*
X154377816Y-120406869D01*
X154485235Y-120328825D01*
X154549786Y-120281927D01*
X154549788Y-120281924D01*
X154549792Y-120281922D01*
X154700104Y-120131610D01*
X154700106Y-120131606D01*
X154700109Y-120131604D01*
X154825048Y-119959638D01*
X154825047Y-119959638D01*
X154825051Y-119959634D01*
X154921557Y-119770230D01*
X154987246Y-119568061D01*
X155020500Y-119358105D01*
X155020500Y-119145531D01*
X154987246Y-118935575D01*
X154921557Y-118733406D01*
X154825051Y-118544002D01*
X154825049Y-118543999D01*
X154825048Y-118543997D01*
X154700109Y-118372031D01*
X154549786Y-118221708D01*
X154377820Y-118096769D01*
X154377115Y-118096409D01*
X154369054Y-118092303D01*
X154318259Y-118044330D01*
X154301463Y-117976510D01*
X154323999Y-117910374D01*
X154369054Y-117871333D01*
X154377816Y-117866869D01*
X154478447Y-117793757D01*
X154549786Y-117741927D01*
X154549788Y-117741924D01*
X154549792Y-117741922D01*
X154700104Y-117591610D01*
X154700106Y-117591606D01*
X154700109Y-117591604D01*
X154825048Y-117419638D01*
X154825047Y-117419638D01*
X154825051Y-117419634D01*
X154921557Y-117230230D01*
X154987246Y-117028061D01*
X155020500Y-116818105D01*
X155020500Y-116605531D01*
X154987246Y-116395575D01*
X154921557Y-116193406D01*
X154825051Y-116004002D01*
X154825049Y-116003999D01*
X154825048Y-116003997D01*
X154700109Y-115832031D01*
X154549786Y-115681708D01*
X154377820Y-115556769D01*
X154377115Y-115556409D01*
X154369054Y-115552303D01*
X154318259Y-115504330D01*
X154301463Y-115436510D01*
X154323999Y-115370374D01*
X154369054Y-115331333D01*
X154377816Y-115326869D01*
X154478447Y-115253757D01*
X154549786Y-115201927D01*
X154549788Y-115201924D01*
X154549792Y-115201922D01*
X154700104Y-115051610D01*
X154700106Y-115051606D01*
X154700109Y-115051604D01*
X154825048Y-114879638D01*
X154825047Y-114879638D01*
X154825051Y-114879634D01*
X154921557Y-114690230D01*
X154987246Y-114488061D01*
X155020500Y-114278105D01*
X155020500Y-114065531D01*
X154987246Y-113855575D01*
X154964195Y-113784634D01*
X154962201Y-113714795D01*
X154998281Y-113654962D01*
X155060982Y-113624134D01*
X155082127Y-113622318D01*
X156067873Y-113622318D01*
X156134912Y-113642003D01*
X156180667Y-113694807D01*
X156190611Y-113763965D01*
X156185804Y-113784636D01*
X156162753Y-113855578D01*
X156150661Y-113931927D01*
X156129500Y-114065531D01*
X156129500Y-114278105D01*
X156133053Y-114300535D01*
X156157587Y-114455443D01*
X156162754Y-114488061D01*
X156228437Y-114690213D01*
X156228444Y-114690232D01*
X156324951Y-114879638D01*
X156449890Y-115051604D01*
X156600213Y-115201927D01*
X156772182Y-115326868D01*
X156780946Y-115331334D01*
X156831742Y-115379309D01*
X156848536Y-115447130D01*
X156825998Y-115513265D01*
X156780946Y-115552302D01*
X156772182Y-115556767D01*
X156600213Y-115681708D01*
X156449890Y-115832031D01*
X156324951Y-116003997D01*
X156228444Y-116193403D01*
X156162753Y-116395578D01*
X156150661Y-116471927D01*
X156129500Y-116605531D01*
X156129500Y-116818105D01*
X156162754Y-117028061D01*
X156228437Y-117230213D01*
X156228444Y-117230232D01*
X156324951Y-117419638D01*
X156449890Y-117591604D01*
X156600213Y-117741927D01*
X156772182Y-117866868D01*
X156780946Y-117871334D01*
X156831742Y-117919309D01*
X156848536Y-117987130D01*
X156825998Y-118053265D01*
X156780946Y-118092302D01*
X156772182Y-118096767D01*
X156600213Y-118221708D01*
X156449890Y-118372031D01*
X156324951Y-118543997D01*
X156228444Y-118733403D01*
X156162753Y-118935578D01*
X156150661Y-119011927D01*
X156129500Y-119145531D01*
X156129500Y-119358105D01*
X156162754Y-119568061D01*
X156228437Y-119770213D01*
X156228444Y-119770232D01*
X156324951Y-119959638D01*
X156449890Y-120131604D01*
X156600213Y-120281927D01*
X156772179Y-120406866D01*
X156772181Y-120406867D01*
X156772184Y-120406869D01*
X156781493Y-120411612D01*
X156832290Y-120459584D01*
X156849087Y-120527405D01*
X156826552Y-120593540D01*
X156781505Y-120632578D01*
X156772446Y-120637194D01*
X156772440Y-120637198D01*
X156718282Y-120676545D01*
X156718282Y-120676546D01*
X157350591Y-121308855D01*
X157287007Y-121325893D01*
X157172993Y-121391719D01*
X157079901Y-121484811D01*
X157014075Y-121598825D01*
X156997037Y-121662409D01*
X156364728Y-121030100D01*
X156364727Y-121030100D01*
X156325380Y-121084257D01*
X156228904Y-121273600D01*
X156163242Y-121475687D01*
X156163242Y-121475690D01*
X156130000Y-121685571D01*
X156130000Y-121898064D01*
X156163242Y-122107945D01*
X156163242Y-122107948D01*
X156228904Y-122310035D01*
X156325375Y-122499368D01*
X156364728Y-122553534D01*
X156997036Y-121921225D01*
X157014075Y-121984811D01*
X157079901Y-122098825D01*
X157172993Y-122191917D01*
X157287007Y-122257743D01*
X157350590Y-122274780D01*
X156718282Y-122907087D01*
X156718282Y-122907088D01*
X156772449Y-122946442D01*
X156961782Y-123042913D01*
X157163870Y-123108575D01*
X157373754Y-123141818D01*
X157586246Y-123141818D01*
X157796127Y-123108575D01*
X157796130Y-123108575D01*
X157998217Y-123042913D01*
X158187554Y-122946440D01*
X158241716Y-122907088D01*
X158241717Y-122907088D01*
X157609408Y-122274780D01*
X157672993Y-122257743D01*
X157787007Y-122191917D01*
X157880099Y-122098825D01*
X157945925Y-121984811D01*
X157962962Y-121921226D01*
X158595270Y-122553535D01*
X158595270Y-122553534D01*
X158634622Y-122499372D01*
X158731095Y-122310035D01*
X158796757Y-122107948D01*
X158796757Y-122107945D01*
X158830000Y-121898064D01*
X158830000Y-121685571D01*
X158796757Y-121475690D01*
X158796757Y-121475687D01*
X158731095Y-121273600D01*
X158634624Y-121084267D01*
X158595270Y-121030100D01*
X158595269Y-121030100D01*
X157962962Y-121662408D01*
X157945925Y-121598825D01*
X157880099Y-121484811D01*
X157787007Y-121391719D01*
X157672993Y-121325893D01*
X157609409Y-121308855D01*
X158241716Y-120676546D01*
X158187547Y-120637191D01*
X158187547Y-120637190D01*
X158178500Y-120632581D01*
X158127706Y-120584606D01*
X158110912Y-120516784D01*
X158133451Y-120450650D01*
X158178508Y-120411611D01*
X158187816Y-120406869D01*
X158295235Y-120328825D01*
X158359786Y-120281927D01*
X158359788Y-120281924D01*
X158359792Y-120281922D01*
X158510104Y-120131610D01*
X158510106Y-120131606D01*
X158510109Y-120131604D01*
X158635048Y-119959638D01*
X158635047Y-119959638D01*
X158635051Y-119959634D01*
X158731557Y-119770230D01*
X158797246Y-119568061D01*
X158830500Y-119358105D01*
X158830500Y-119145531D01*
X158797246Y-118935575D01*
X158731557Y-118733406D01*
X158635051Y-118544002D01*
X158635049Y-118543999D01*
X158635048Y-118543997D01*
X158510109Y-118372031D01*
X158359786Y-118221708D01*
X158187820Y-118096769D01*
X158187115Y-118096409D01*
X158179054Y-118092303D01*
X158128259Y-118044330D01*
X158111463Y-117976510D01*
X158133999Y-117910374D01*
X158179054Y-117871333D01*
X158187816Y-117866869D01*
X158288447Y-117793757D01*
X158359786Y-117741927D01*
X158359788Y-117741924D01*
X158359792Y-117741922D01*
X158510104Y-117591610D01*
X158510106Y-117591606D01*
X158510109Y-117591604D01*
X158635048Y-117419638D01*
X158635047Y-117419638D01*
X158635051Y-117419634D01*
X158731557Y-117230230D01*
X158797246Y-117028061D01*
X158830500Y-116818105D01*
X158830500Y-116605531D01*
X158797246Y-116395575D01*
X158731557Y-116193406D01*
X158635051Y-116004002D01*
X158635049Y-116003999D01*
X158635048Y-116003997D01*
X158510109Y-115832031D01*
X158359786Y-115681708D01*
X158187820Y-115556769D01*
X158187115Y-115556409D01*
X158179054Y-115552303D01*
X158128259Y-115504330D01*
X158111463Y-115436510D01*
X158133999Y-115370374D01*
X158179054Y-115331333D01*
X158187816Y-115326869D01*
X158288447Y-115253757D01*
X158359786Y-115201927D01*
X158359788Y-115201924D01*
X158359792Y-115201922D01*
X158510104Y-115051610D01*
X158510106Y-115051606D01*
X158510109Y-115051604D01*
X158635048Y-114879638D01*
X158635047Y-114879638D01*
X158635051Y-114879634D01*
X158731557Y-114690230D01*
X158797246Y-114488061D01*
X158830500Y-114278105D01*
X158830500Y-114065531D01*
X158797246Y-113855575D01*
X158774195Y-113784634D01*
X158772201Y-113714795D01*
X158808281Y-113654962D01*
X158870982Y-113624134D01*
X158892127Y-113622318D01*
X167771721Y-113622318D01*
X167838760Y-113642003D01*
X167859402Y-113658637D01*
X191004789Y-136804024D01*
X191038274Y-136865347D01*
X191033290Y-136935039D01*
X190991418Y-136990972D01*
X190925954Y-137015389D01*
X190878790Y-137009636D01*
X190780274Y-136977626D01*
X190574279Y-136945000D01*
X190365721Y-136945000D01*
X190159727Y-136977626D01*
X189961372Y-137042075D01*
X189775552Y-137136757D01*
X189726180Y-137172627D01*
X190299766Y-137746212D01*
X190257708Y-137757482D01*
X190132292Y-137829890D01*
X190029890Y-137932292D01*
X189957482Y-138057708D01*
X189946212Y-138099765D01*
X189372627Y-137526180D01*
X189336757Y-137575552D01*
X189242075Y-137761372D01*
X189177626Y-137959727D01*
X189145000Y-138165720D01*
X189145000Y-138374279D01*
X189177626Y-138580272D01*
X189242075Y-138778627D01*
X189336759Y-138964451D01*
X189372627Y-139013818D01*
X189372627Y-139013819D01*
X189946212Y-138440234D01*
X189957482Y-138482292D01*
X190029890Y-138607708D01*
X190132292Y-138710110D01*
X190257708Y-138782518D01*
X190299765Y-138793787D01*
X189726179Y-139367371D01*
X189726180Y-139367372D01*
X189775543Y-139403236D01*
X189775556Y-139403244D01*
X189961372Y-139497924D01*
X190159727Y-139562373D01*
X190365721Y-139595000D01*
X190574279Y-139595000D01*
X190780272Y-139562373D01*
X190978627Y-139497924D01*
X191164451Y-139403240D01*
X191213818Y-139367372D01*
X191213818Y-139367371D01*
X190640234Y-138793787D01*
X190682292Y-138782518D01*
X190807708Y-138710110D01*
X190910110Y-138607708D01*
X190982518Y-138482292D01*
X190993787Y-138440233D01*
X191567371Y-139013818D01*
X191567372Y-139013818D01*
X191603240Y-138964451D01*
X191697924Y-138778627D01*
X191762373Y-138580272D01*
X191795000Y-138374279D01*
X191795000Y-138165720D01*
X191762374Y-137959727D01*
X191730363Y-137861210D01*
X191728368Y-137791369D01*
X191764448Y-137731536D01*
X191827148Y-137700707D01*
X191896563Y-137708671D01*
X191935975Y-137735210D01*
X194706081Y-140505316D01*
X194739566Y-140566639D01*
X194736332Y-140631313D01*
X194727138Y-140659610D01*
X194694500Y-140865675D01*
X194694500Y-141074324D01*
X194727138Y-141280390D01*
X194727138Y-141280393D01*
X194743966Y-141332182D01*
X194745961Y-141402023D01*
X194709881Y-141461856D01*
X194647180Y-141492684D01*
X194626035Y-141494500D01*
X186345097Y-141494500D01*
X186315656Y-141485855D01*
X186285670Y-141479332D01*
X186280654Y-141475577D01*
X186278058Y-141474815D01*
X186257416Y-141458181D01*
X186233918Y-141434683D01*
X186200433Y-141373360D01*
X186203669Y-141308681D01*
X186212862Y-141280389D01*
X186239617Y-141111466D01*
X186245500Y-141074324D01*
X186245500Y-140865675D01*
X186212862Y-140659610D01*
X186148387Y-140461179D01*
X186053669Y-140275285D01*
X185931035Y-140106495D01*
X185783505Y-139958965D01*
X185614714Y-139836330D01*
X185428820Y-139741612D01*
X185230389Y-139677137D01*
X185024324Y-139644500D01*
X185024319Y-139644500D01*
X184815681Y-139644500D01*
X184815676Y-139644500D01*
X184609610Y-139677137D01*
X184411179Y-139741612D01*
X184225285Y-139836330D01*
X184056493Y-139958966D01*
X183908966Y-140106493D01*
X183786330Y-140275285D01*
X183691612Y-140461179D01*
X183627137Y-140659610D01*
X183594500Y-140865675D01*
X183594500Y-141074324D01*
X183627137Y-141280389D01*
X183691612Y-141478820D01*
X183779210Y-141650740D01*
X183786330Y-141664714D01*
X183908965Y-141833505D01*
X184056495Y-141981035D01*
X184225286Y-142103670D01*
X184351079Y-142167764D01*
X184377407Y-142181179D01*
X184428203Y-142229153D01*
X184444998Y-142296974D01*
X184422461Y-142363109D01*
X184367746Y-142406561D01*
X184348705Y-142412555D01*
X184082500Y-142473314D01*
X183790960Y-142575328D01*
X183512679Y-142709341D01*
X183251144Y-142873675D01*
X183251140Y-142873678D01*
X183084845Y-143006292D01*
X183986632Y-143908079D01*
X183877587Y-143987305D01*
X183712305Y-144152587D01*
X183633079Y-144261632D01*
X182731292Y-143359845D01*
X182598678Y-143526140D01*
X182598675Y-143526144D01*
X182434341Y-143787679D01*
X182300328Y-144065960D01*
X182198314Y-144357500D01*
X182129583Y-144658632D01*
X182129581Y-144658644D01*
X182095000Y-144965558D01*
X182095000Y-145274441D01*
X182129581Y-145581355D01*
X182129583Y-145581367D01*
X182198314Y-145882499D01*
X182300328Y-146174039D01*
X182434341Y-146452320D01*
X182598669Y-146713845D01*
X182731293Y-146880152D01*
X183633078Y-145978366D01*
X183712305Y-146087413D01*
X183877587Y-146252695D01*
X183986631Y-146331920D01*
X183084845Y-147233706D01*
X183251142Y-147366323D01*
X183251144Y-147366324D01*
X183512679Y-147530658D01*
X183790960Y-147664671D01*
X184082501Y-147766685D01*
X184082503Y-147766686D01*
X184349465Y-147827618D01*
X184410444Y-147861726D01*
X184443302Y-147923388D01*
X184437607Y-147993025D01*
X184395167Y-148048529D01*
X184378169Y-148058993D01*
X184225555Y-148136755D01*
X184176180Y-148172627D01*
X184749766Y-148746212D01*
X184707708Y-148757482D01*
X184582292Y-148829890D01*
X184479890Y-148932292D01*
X184407482Y-149057708D01*
X184396212Y-149099765D01*
X183822627Y-148526180D01*
X183786757Y-148575552D01*
X183692075Y-148761372D01*
X183627626Y-148959727D01*
X183595000Y-149165720D01*
X183595000Y-149374279D01*
X183627626Y-149580272D01*
X183692075Y-149778627D01*
X183786759Y-149964451D01*
X183822627Y-150013818D01*
X183822627Y-150013819D01*
X184396212Y-149440234D01*
X184407482Y-149482292D01*
X184479890Y-149607708D01*
X184582292Y-149710110D01*
X184707708Y-149782518D01*
X184749765Y-149793787D01*
X184176179Y-150367371D01*
X184176180Y-150367372D01*
X184225543Y-150403236D01*
X184225556Y-150403244D01*
X184411372Y-150497924D01*
X184609727Y-150562373D01*
X184815721Y-150595000D01*
X185024279Y-150595000D01*
X185230272Y-150562373D01*
X185428627Y-150497924D01*
X185614451Y-150403240D01*
X185663818Y-150367372D01*
X185663818Y-150367371D01*
X185090234Y-149793787D01*
X185132292Y-149782518D01*
X185257708Y-149710110D01*
X185360110Y-149607708D01*
X185432518Y-149482292D01*
X185443787Y-149440234D01*
X186017371Y-150013818D01*
X186017372Y-150013818D01*
X186053240Y-149964451D01*
X186147924Y-149778627D01*
X186212373Y-149580272D01*
X186245000Y-149374279D01*
X186245000Y-149165720D01*
X186212373Y-148959727D01*
X186147924Y-148761372D01*
X186053244Y-148575556D01*
X186053236Y-148575543D01*
X186017372Y-148526180D01*
X186017371Y-148526179D01*
X185443787Y-149099764D01*
X185432518Y-149057708D01*
X185360110Y-148932292D01*
X185257708Y-148829890D01*
X185132292Y-148757482D01*
X185090233Y-148746212D01*
X185663819Y-148172627D01*
X185614451Y-148136759D01*
X185428621Y-148042072D01*
X185424130Y-148040213D01*
X185424901Y-148038349D01*
X185374236Y-148003717D01*
X185347028Y-147939363D01*
X185358931Y-147870514D01*
X185406167Y-147819031D01*
X185442625Y-147804317D01*
X185607496Y-147766686D01*
X185607498Y-147766685D01*
X185899039Y-147664671D01*
X186177320Y-147530658D01*
X186438851Y-147366326D01*
X186605153Y-147233706D01*
X185703367Y-146331920D01*
X185812413Y-146252695D01*
X185977695Y-146087413D01*
X186056920Y-145978367D01*
X186958706Y-146880153D01*
X187091326Y-146713851D01*
X187255658Y-146452320D01*
X187389671Y-146174039D01*
X187491685Y-145882499D01*
X187560416Y-145581367D01*
X187560418Y-145581355D01*
X187594999Y-145274441D01*
X187595000Y-145274439D01*
X187595000Y-144965560D01*
X187594999Y-144965558D01*
X187560418Y-144658644D01*
X187560416Y-144658632D01*
X187491685Y-144357500D01*
X187389671Y-144065960D01*
X187255658Y-143787679D01*
X187091324Y-143526144D01*
X187091323Y-143526142D01*
X186958706Y-143359845D01*
X186056920Y-144261631D01*
X185977695Y-144152587D01*
X185812413Y-143987305D01*
X185703366Y-143908078D01*
X186605152Y-143006293D01*
X186492489Y-142916448D01*
X186452348Y-142859259D01*
X186449498Y-142789448D01*
X186484843Y-142729178D01*
X186547162Y-142697584D01*
X186569801Y-142695500D01*
X194370198Y-142695500D01*
X194437237Y-142715185D01*
X194482992Y-142767989D01*
X194492936Y-142837147D01*
X194463911Y-142900703D01*
X194447510Y-142916448D01*
X194334846Y-143006293D01*
X195236632Y-143908079D01*
X195127587Y-143987305D01*
X194962305Y-144152587D01*
X194883079Y-144261632D01*
X193981292Y-143359845D01*
X193848678Y-143526140D01*
X193848675Y-143526144D01*
X193684341Y-143787679D01*
X193550328Y-144065960D01*
X193448314Y-144357500D01*
X193379583Y-144658632D01*
X193379581Y-144658644D01*
X193345000Y-144965558D01*
X193345000Y-145274441D01*
X193379581Y-145581355D01*
X193379583Y-145581367D01*
X193448314Y-145882499D01*
X193550328Y-146174039D01*
X193684341Y-146452320D01*
X193848669Y-146713845D01*
X193981293Y-146880152D01*
X194883078Y-145978366D01*
X194962305Y-146087413D01*
X195127587Y-146252695D01*
X195236631Y-146331920D01*
X194334845Y-147233706D01*
X194501142Y-147366323D01*
X194501144Y-147366324D01*
X194762679Y-147530658D01*
X195040960Y-147664671D01*
X195332501Y-147766685D01*
X195332499Y-147766685D01*
X195496424Y-147804100D01*
X195557402Y-147838209D01*
X195590260Y-147899870D01*
X195584565Y-147969507D01*
X195542125Y-148025011D01*
X195515271Y-148038771D01*
X195515677Y-148039750D01*
X195511185Y-148041610D01*
X195325285Y-148136330D01*
X195156493Y-148258966D01*
X195008966Y-148406493D01*
X194886330Y-148575285D01*
X194791612Y-148761179D01*
X194727137Y-148959610D01*
X194694500Y-149165675D01*
X194694500Y-149374324D01*
X194727137Y-149580389D01*
X194791612Y-149778820D01*
X194886196Y-149964451D01*
X194886330Y-149964714D01*
X195008965Y-150133505D01*
X195156495Y-150281035D01*
X195325286Y-150403670D01*
X195413116Y-150448421D01*
X195511179Y-150498387D01*
X195511181Y-150498387D01*
X195511184Y-150498389D01*
X195617545Y-150532948D01*
X195709610Y-150562862D01*
X195915676Y-150595500D01*
X195915681Y-150595500D01*
X196124324Y-150595500D01*
X196330389Y-150562862D01*
X196331894Y-150562373D01*
X196528816Y-150498389D01*
X196714714Y-150403670D01*
X196883505Y-150281035D01*
X197031035Y-150133505D01*
X197153670Y-149964714D01*
X197248389Y-149778816D01*
X197312862Y-149580389D01*
X197324608Y-149506229D01*
X197345500Y-149374324D01*
X197345500Y-149165675D01*
X197312880Y-148959727D01*
X197312862Y-148959611D01*
X197312860Y-148959606D01*
X197312860Y-148959603D01*
X197303669Y-148931317D01*
X197301672Y-148861476D01*
X197333916Y-148805318D01*
X199125520Y-147013716D01*
X199204577Y-146876784D01*
X199245501Y-146724057D01*
X199245501Y-146565942D01*
X199245501Y-146558347D01*
X199245500Y-146558329D01*
X199245500Y-141527384D01*
X199245501Y-141527371D01*
X199245501Y-141359269D01*
X199245501Y-141359267D01*
X199204577Y-141206539D01*
X199143355Y-141100500D01*
X199125520Y-141069608D01*
X199013716Y-140957804D01*
X199013713Y-140957802D01*
X183366601Y-125310690D01*
X192309500Y-125310690D01*
X192309500Y-125572945D01*
X192330178Y-125729999D01*
X192343730Y-125832934D01*
X192400885Y-126046239D01*
X192411602Y-126086236D01*
X192411605Y-126086246D01*
X192511953Y-126328508D01*
X192511958Y-126328518D01*
X192643075Y-126555621D01*
X192802718Y-126763669D01*
X192802726Y-126763678D01*
X192988140Y-126949092D01*
X192988148Y-126949099D01*
X192988149Y-126949100D01*
X193036554Y-126986242D01*
X193196196Y-127108742D01*
X193423299Y-127239859D01*
X193423309Y-127239864D01*
X193665571Y-127340212D01*
X193665581Y-127340216D01*
X193918884Y-127408088D01*
X194178880Y-127442318D01*
X194178887Y-127442318D01*
X194441113Y-127442318D01*
X194441120Y-127442318D01*
X194701116Y-127408088D01*
X194954419Y-127340216D01*
X195196697Y-127239861D01*
X195423803Y-127108742D01*
X195631851Y-126949100D01*
X195631855Y-126949095D01*
X195631860Y-126949092D01*
X195817274Y-126763678D01*
X195817277Y-126763673D01*
X195817282Y-126763669D01*
X195976924Y-126555621D01*
X196108043Y-126328515D01*
X196208398Y-126086237D01*
X196276270Y-125832934D01*
X196310500Y-125572938D01*
X196310500Y-125310698D01*
X196276270Y-125050702D01*
X196208398Y-124797399D01*
X196168011Y-124699896D01*
X196108046Y-124555127D01*
X196108041Y-124555117D01*
X195976924Y-124328014D01*
X195882773Y-124205316D01*
X195817281Y-124119966D01*
X195817274Y-124119958D01*
X195631860Y-123934544D01*
X195631851Y-123934536D01*
X195423803Y-123774893D01*
X195196700Y-123643776D01*
X195196690Y-123643771D01*
X194954428Y-123543423D01*
X194954421Y-123543421D01*
X194954419Y-123543420D01*
X194701116Y-123475548D01*
X194643339Y-123467941D01*
X194441127Y-123441318D01*
X194441120Y-123441318D01*
X194178880Y-123441318D01*
X194178872Y-123441318D01*
X193947772Y-123471744D01*
X193918884Y-123475548D01*
X193724089Y-123527743D01*
X193665581Y-123543420D01*
X193665571Y-123543423D01*
X193423309Y-123643771D01*
X193423299Y-123643776D01*
X193196196Y-123774893D01*
X192988148Y-123934536D01*
X192802718Y-124119966D01*
X192643075Y-124328014D01*
X192511958Y-124555117D01*
X192511953Y-124555127D01*
X192411605Y-124797389D01*
X192411602Y-124797399D01*
X192351301Y-125022449D01*
X192343730Y-125050703D01*
X192309500Y-125310690D01*
X183366601Y-125310690D01*
X181011482Y-122955571D01*
X201850000Y-122955571D01*
X201850000Y-123168064D01*
X201883242Y-123377945D01*
X201883242Y-123377948D01*
X201948904Y-123580035D01*
X202045375Y-123769368D01*
X202084728Y-123823534D01*
X202717037Y-123191226D01*
X202734075Y-123254811D01*
X202799901Y-123368825D01*
X202892993Y-123461917D01*
X203007007Y-123527743D01*
X203070590Y-123544780D01*
X202438282Y-124177087D01*
X202438282Y-124177088D01*
X202492449Y-124216442D01*
X202681782Y-124312913D01*
X202883870Y-124378575D01*
X203093754Y-124411818D01*
X203306246Y-124411818D01*
X203516127Y-124378575D01*
X203516130Y-124378575D01*
X203718217Y-124312913D01*
X203907554Y-124216440D01*
X203961716Y-124177088D01*
X203961717Y-124177088D01*
X203329408Y-123544780D01*
X203392993Y-123527743D01*
X203507007Y-123461917D01*
X203600099Y-123368825D01*
X203665925Y-123254811D01*
X203682962Y-123191226D01*
X204315270Y-123823535D01*
X204315270Y-123823534D01*
X204354622Y-123769372D01*
X204451095Y-123580035D01*
X204516757Y-123377948D01*
X204516757Y-123377945D01*
X204550000Y-123168064D01*
X204550000Y-122955571D01*
X204516757Y-122745690D01*
X204516757Y-122745687D01*
X204451095Y-122543600D01*
X204354624Y-122354267D01*
X204315270Y-122300100D01*
X204315269Y-122300100D01*
X203682962Y-122932408D01*
X203665925Y-122868825D01*
X203600099Y-122754811D01*
X203507007Y-122661719D01*
X203392993Y-122595893D01*
X203329409Y-122578855D01*
X203961716Y-121946546D01*
X203907550Y-121907193D01*
X203718217Y-121810722D01*
X203516129Y-121745060D01*
X203306246Y-121711818D01*
X203093754Y-121711818D01*
X202883872Y-121745060D01*
X202883869Y-121745060D01*
X202681782Y-121810722D01*
X202492439Y-121907198D01*
X202438282Y-121946545D01*
X202438282Y-121946546D01*
X203070591Y-122578855D01*
X203007007Y-122595893D01*
X202892993Y-122661719D01*
X202799901Y-122754811D01*
X202734075Y-122868825D01*
X202717037Y-122932408D01*
X202084728Y-122300100D01*
X202084727Y-122300100D01*
X202045380Y-122354257D01*
X201948904Y-122543600D01*
X201883242Y-122745687D01*
X201883242Y-122745690D01*
X201850000Y-122955571D01*
X181011482Y-122955571D01*
X163828266Y-105772355D01*
X163828264Y-105772352D01*
X163709393Y-105653481D01*
X163709392Y-105653480D01*
X163622580Y-105603360D01*
X163622580Y-105603359D01*
X163622576Y-105603358D01*
X163572461Y-105574423D01*
X163419733Y-105533499D01*
X163261619Y-105533499D01*
X163254023Y-105533499D01*
X163254007Y-105533500D01*
X154299430Y-105533500D01*
X154232391Y-105513815D01*
X154186636Y-105461011D01*
X154176692Y-105391853D01*
X154190230Y-105352733D01*
X154189527Y-105352387D01*
X154191314Y-105348762D01*
X154191320Y-105348752D01*
X154280137Y-105134330D01*
X154340206Y-104910149D01*
X154370500Y-104680045D01*
X154370500Y-104447955D01*
X154370499Y-104447947D01*
X171530749Y-104447947D01*
X171530749Y-104680052D01*
X171561043Y-104910148D01*
X171621111Y-105134328D01*
X171709926Y-105348745D01*
X171709934Y-105348762D01*
X171825969Y-105549743D01*
X171825970Y-105549745D01*
X171967258Y-105733875D01*
X171967264Y-105733882D01*
X172131366Y-105897984D01*
X172131373Y-105897990D01*
X172315503Y-106039278D01*
X172315505Y-106039279D01*
X172516486Y-106155314D01*
X172516489Y-106155315D01*
X172516497Y-106155320D01*
X172730919Y-106244137D01*
X172955100Y-106304206D01*
X173185204Y-106334500D01*
X173185211Y-106334500D01*
X173417287Y-106334500D01*
X173417294Y-106334500D01*
X173647398Y-106304206D01*
X173871579Y-106244137D01*
X174086001Y-106155320D01*
X174286997Y-106039276D01*
X174471126Y-105897989D01*
X174635238Y-105733877D01*
X174776525Y-105549748D01*
X174892569Y-105348752D01*
X174981386Y-105134330D01*
X175041455Y-104910149D01*
X175071749Y-104680045D01*
X175071749Y-104447955D01*
X175041455Y-104217851D01*
X174981386Y-103993670D01*
X174892569Y-103779248D01*
X174875563Y-103749792D01*
X174776528Y-103578256D01*
X174776527Y-103578254D01*
X174635239Y-103394124D01*
X174635233Y-103394117D01*
X174471131Y-103230015D01*
X174471124Y-103230009D01*
X174286994Y-103088721D01*
X174286992Y-103088720D01*
X174086011Y-102972685D01*
X174086003Y-102972681D01*
X174086001Y-102972680D01*
X173871579Y-102883863D01*
X173871580Y-102883863D01*
X173871577Y-102883862D01*
X173729452Y-102845780D01*
X173647398Y-102823794D01*
X173618635Y-102820007D01*
X173417301Y-102793500D01*
X173417294Y-102793500D01*
X173185204Y-102793500D01*
X173185196Y-102793500D01*
X172955100Y-102823794D01*
X172730920Y-102883862D01*
X172516503Y-102972677D01*
X172516486Y-102972685D01*
X172315505Y-103088720D01*
X172315503Y-103088721D01*
X172131373Y-103230009D01*
X172131366Y-103230015D01*
X171967264Y-103394117D01*
X171967258Y-103394124D01*
X171825970Y-103578254D01*
X171825969Y-103578256D01*
X171709934Y-103779237D01*
X171709926Y-103779254D01*
X171621111Y-103993671D01*
X171561043Y-104217851D01*
X171530749Y-104447947D01*
X154370499Y-104447947D01*
X154340206Y-104217851D01*
X154280137Y-103993670D01*
X154191320Y-103779248D01*
X154174314Y-103749792D01*
X154075279Y-103578256D01*
X154075278Y-103578254D01*
X153933990Y-103394124D01*
X153933984Y-103394117D01*
X153769882Y-103230015D01*
X153769875Y-103230009D01*
X153585745Y-103088721D01*
X153585743Y-103088720D01*
X153384762Y-102972685D01*
X153384754Y-102972681D01*
X153384752Y-102972680D01*
X153170330Y-102883863D01*
X153170331Y-102883863D01*
X153170328Y-102883862D01*
X153028203Y-102845780D01*
X152946149Y-102823794D01*
X152917386Y-102820007D01*
X152716052Y-102793500D01*
X152716045Y-102793500D01*
X152483955Y-102793500D01*
X152483947Y-102793500D01*
X152253851Y-102823794D01*
X152029671Y-102883862D01*
X151815254Y-102972677D01*
X151815237Y-102972685D01*
X151614256Y-103088720D01*
X151614254Y-103088721D01*
X151430124Y-103230009D01*
X151430117Y-103230015D01*
X151266015Y-103394117D01*
X151266009Y-103394124D01*
X151124721Y-103578254D01*
X151124720Y-103578256D01*
X151008685Y-103779237D01*
X151008677Y-103779254D01*
X150919862Y-103993671D01*
X150859794Y-104217851D01*
X150829500Y-104447947D01*
X150829500Y-104680052D01*
X150859794Y-104910148D01*
X150919862Y-105134328D01*
X151008677Y-105348745D01*
X151010473Y-105352387D01*
X151009286Y-105352972D01*
X151024429Y-105415405D01*
X151001575Y-105481431D01*
X150946652Y-105524619D01*
X150900570Y-105533500D01*
X132284500Y-105533500D01*
X132217461Y-105513815D01*
X132171706Y-105461011D01*
X132160500Y-105409500D01*
X132160500Y-105303713D01*
X132133672Y-105134330D01*
X132127246Y-105093757D01*
X132061557Y-104891588D01*
X131965051Y-104702184D01*
X131965049Y-104702181D01*
X131965048Y-104702179D01*
X131840109Y-104530213D01*
X131689786Y-104379890D01*
X131517820Y-104254951D01*
X131517115Y-104254591D01*
X131509054Y-104250485D01*
X131458259Y-104202512D01*
X131441463Y-104134692D01*
X131463999Y-104068556D01*
X131509054Y-104029515D01*
X131517816Y-104025051D01*
X131561009Y-103993670D01*
X131689786Y-103900109D01*
X131689788Y-103900106D01*
X131689792Y-103900104D01*
X131840104Y-103749792D01*
X131840106Y-103749788D01*
X131840109Y-103749786D01*
X131965048Y-103577820D01*
X131965047Y-103577820D01*
X131965051Y-103577816D01*
X132061557Y-103388412D01*
X132127246Y-103186243D01*
X132160500Y-102976287D01*
X132160500Y-102763713D01*
X132127246Y-102553757D01*
X132061557Y-102351588D01*
X131965051Y-102162184D01*
X131965049Y-102162181D01*
X131965048Y-102162179D01*
X131840109Y-101990213D01*
X131689786Y-101839890D01*
X131517820Y-101714951D01*
X131517115Y-101714591D01*
X131509054Y-101710485D01*
X131458259Y-101662512D01*
X131441463Y-101594692D01*
X131463999Y-101528556D01*
X131509054Y-101489515D01*
X131517816Y-101485051D01*
X131566776Y-101449480D01*
X131689786Y-101360109D01*
X131689788Y-101360106D01*
X131689792Y-101360104D01*
X131840104Y-101209792D01*
X131840106Y-101209788D01*
X131840109Y-101209786D01*
X131965048Y-101037820D01*
X131965047Y-101037820D01*
X131965051Y-101037816D01*
X132061557Y-100848412D01*
X132127246Y-100646243D01*
X132160500Y-100436287D01*
X132160500Y-100223713D01*
X132127246Y-100013757D01*
X132061557Y-99811588D01*
X131965051Y-99622184D01*
X131965049Y-99622181D01*
X131965048Y-99622179D01*
X131840109Y-99450213D01*
X131689786Y-99299890D01*
X131517820Y-99174951D01*
X131517115Y-99174591D01*
X131509054Y-99170485D01*
X131458259Y-99122512D01*
X131441463Y-99054692D01*
X131463999Y-98988556D01*
X131509054Y-98949515D01*
X131517816Y-98945051D01*
X131539789Y-98929086D01*
X131689786Y-98820109D01*
X131689788Y-98820106D01*
X131689792Y-98820104D01*
X131840104Y-98669792D01*
X131840106Y-98669788D01*
X131840109Y-98669786D01*
X131965048Y-98497820D01*
X131965047Y-98497820D01*
X131965051Y-98497816D01*
X132061557Y-98308412D01*
X132127246Y-98106243D01*
X132160500Y-97896287D01*
X132160500Y-97683713D01*
X132127246Y-97473757D01*
X132061557Y-97271588D01*
X131965051Y-97082184D01*
X131965049Y-97082181D01*
X131965048Y-97082179D01*
X131840109Y-96910213D01*
X131689786Y-96759890D01*
X131517820Y-96634951D01*
X131517115Y-96634591D01*
X131509054Y-96630485D01*
X131458259Y-96582512D01*
X131441463Y-96514692D01*
X131463999Y-96448556D01*
X131509054Y-96409515D01*
X131517816Y-96405051D01*
X131539789Y-96389086D01*
X131689786Y-96280109D01*
X131689788Y-96280106D01*
X131689792Y-96280104D01*
X131840104Y-96129792D01*
X131840106Y-96129788D01*
X131840109Y-96129786D01*
X131965048Y-95957820D01*
X131965047Y-95957820D01*
X131965051Y-95957816D01*
X132061557Y-95768412D01*
X132127246Y-95566243D01*
X132160500Y-95356287D01*
X132160500Y-95143713D01*
X132127246Y-94933757D01*
X132061557Y-94731588D01*
X131965051Y-94542184D01*
X131965049Y-94542181D01*
X131965048Y-94542179D01*
X131840109Y-94370213D01*
X131689786Y-94219890D01*
X131517817Y-94094949D01*
X131508504Y-94090204D01*
X131457707Y-94042230D01*
X131440912Y-93974409D01*
X131463449Y-93908274D01*
X131508507Y-93869232D01*
X131517555Y-93864622D01*
X131571716Y-93825270D01*
X131571717Y-93825270D01*
X131560547Y-93814100D01*
X130939408Y-93192962D01*
X131002993Y-93175925D01*
X131117007Y-93110099D01*
X131210099Y-93017007D01*
X131275925Y-92902993D01*
X131292962Y-92839408D01*
X131925270Y-93471717D01*
X131925270Y-93471716D01*
X131964622Y-93417554D01*
X132061095Y-93228217D01*
X132126757Y-93026130D01*
X132126757Y-93026127D01*
X132160000Y-92816246D01*
X132160000Y-92631617D01*
X184642500Y-92631617D01*
X184642500Y-92828382D01*
X184673278Y-93022705D01*
X184734081Y-93209835D01*
X184823405Y-93385145D01*
X184848819Y-93420125D01*
X184848820Y-93420125D01*
X185512500Y-92756445D01*
X185512500Y-92780028D01*
X185538396Y-92876675D01*
X185588424Y-92963325D01*
X185659175Y-93034076D01*
X185745825Y-93084104D01*
X185842472Y-93110000D01*
X185866053Y-93110000D01*
X185202373Y-93773677D01*
X185202373Y-93773678D01*
X185237358Y-93799096D01*
X185412664Y-93888418D01*
X185599794Y-93949221D01*
X185794118Y-93980000D01*
X185990882Y-93980000D01*
X186185205Y-93949221D01*
X186372335Y-93888418D01*
X186547643Y-93799095D01*
X186582625Y-93773678D01*
X186582626Y-93773678D01*
X185918948Y-93110000D01*
X185942528Y-93110000D01*
X186039175Y-93084104D01*
X186125825Y-93034076D01*
X186196576Y-92963325D01*
X186246604Y-92876675D01*
X186272500Y-92780028D01*
X186272500Y-92756448D01*
X186936178Y-93420126D01*
X186936178Y-93420125D01*
X186961597Y-93385141D01*
X187051734Y-93208236D01*
X187099708Y-93157439D01*
X187167529Y-93140644D01*
X187233664Y-93163181D01*
X187272704Y-93208235D01*
X187273615Y-93210024D01*
X187273616Y-93210025D01*
X187362976Y-93385405D01*
X187478672Y-93544646D01*
X187617854Y-93683828D01*
X187777095Y-93799524D01*
X187827623Y-93825269D01*
X187952470Y-93888882D01*
X187952472Y-93888882D01*
X187952475Y-93888884D01*
X188039647Y-93917208D01*
X188139673Y-93949709D01*
X188334078Y-93980500D01*
X188334083Y-93980500D01*
X188530922Y-93980500D01*
X188725326Y-93949709D01*
X188726828Y-93949221D01*
X188912525Y-93888884D01*
X189087905Y-93799524D01*
X189247146Y-93683828D01*
X189386328Y-93544646D01*
X189502024Y-93385405D01*
X189519016Y-93352057D01*
X189592015Y-93208787D01*
X189639989Y-93157990D01*
X189707810Y-93141195D01*
X189773945Y-93163732D01*
X189812985Y-93208787D01*
X189902974Y-93385403D01*
X189907484Y-93391610D01*
X190018672Y-93544646D01*
X190157854Y-93683828D01*
X190317095Y-93799524D01*
X190367623Y-93825269D01*
X190492470Y-93888882D01*
X190492472Y-93888882D01*
X190492475Y-93888884D01*
X190579647Y-93917208D01*
X190679673Y-93949709D01*
X190874078Y-93980500D01*
X190874083Y-93980500D01*
X191070922Y-93980500D01*
X191265326Y-93949709D01*
X191266828Y-93949221D01*
X191452525Y-93888884D01*
X191627905Y-93799524D01*
X191787146Y-93683828D01*
X191926328Y-93544646D01*
X192042024Y-93385405D01*
X192059016Y-93352057D01*
X192132015Y-93208787D01*
X192140659Y-93199634D01*
X192145395Y-93187966D01*
X192164195Y-93174712D01*
X192179989Y-93157990D01*
X192192211Y-93154963D01*
X192202502Y-93147709D01*
X192225482Y-93146723D01*
X192247810Y-93141195D01*
X192259727Y-93145256D01*
X192272308Y-93144717D01*
X192292173Y-93156312D01*
X192313945Y-93163732D01*
X192323218Y-93174434D01*
X192332649Y-93179939D01*
X192352985Y-93208786D01*
X192353615Y-93210023D01*
X192353616Y-93210025D01*
X192362985Y-93228412D01*
X192425985Y-93352057D01*
X192439500Y-93408352D01*
X192439500Y-99219207D01*
X192419815Y-99286246D01*
X192388386Y-99319525D01*
X192257925Y-99414311D01*
X192124312Y-99547924D01*
X192124312Y-99547925D01*
X192124310Y-99547927D01*
X192076610Y-99613579D01*
X192013240Y-99700800D01*
X191927454Y-99869163D01*
X191869059Y-100048881D01*
X191839500Y-100235513D01*
X191839500Y-100424486D01*
X191864725Y-100583750D01*
X191855770Y-100653043D01*
X191829933Y-100690829D01*
X189891286Y-102629478D01*
X189779481Y-102741282D01*
X189779475Y-102741290D01*
X189731843Y-102823793D01*
X189731843Y-102823794D01*
X189700423Y-102878215D01*
X189659499Y-103030943D01*
X189659499Y-103030945D01*
X189659499Y-103199046D01*
X189659500Y-103199059D01*
X189659500Y-113845148D01*
X189659499Y-113845166D01*
X189659499Y-114010872D01*
X189659498Y-114010872D01*
X189659499Y-114010875D01*
X189700423Y-114163603D01*
X189710954Y-114181844D01*
X189712805Y-114185049D01*
X189712806Y-114185051D01*
X189779477Y-114300530D01*
X189779481Y-114300535D01*
X189898349Y-114419403D01*
X189898355Y-114419408D01*
X192976241Y-117497294D01*
X193009726Y-117558617D01*
X193006492Y-117623291D01*
X192992753Y-117665575D01*
X192972451Y-117793760D01*
X192959500Y-117875531D01*
X192959500Y-118088105D01*
X192992754Y-118298061D01*
X193016788Y-118372031D01*
X193058444Y-118500232D01*
X193154951Y-118689638D01*
X193279890Y-118861604D01*
X193430213Y-119011927D01*
X193602179Y-119136866D01*
X193602181Y-119136867D01*
X193602184Y-119136869D01*
X193611493Y-119141612D01*
X193662290Y-119189584D01*
X193679087Y-119257405D01*
X193656552Y-119323540D01*
X193611505Y-119362578D01*
X193602446Y-119367194D01*
X193602440Y-119367198D01*
X193548282Y-119406545D01*
X193548282Y-119406546D01*
X194180591Y-120038855D01*
X194117007Y-120055893D01*
X194002993Y-120121719D01*
X193909901Y-120214811D01*
X193844075Y-120328825D01*
X193827037Y-120392409D01*
X193194728Y-119760100D01*
X193194727Y-119760100D01*
X193155380Y-119814257D01*
X193058904Y-120003600D01*
X192993242Y-120205687D01*
X192993242Y-120205690D01*
X192960000Y-120415571D01*
X192960000Y-120628064D01*
X192993242Y-120837945D01*
X192993242Y-120837948D01*
X193058904Y-121040035D01*
X193155375Y-121229368D01*
X193194728Y-121283534D01*
X193827037Y-120651226D01*
X193844075Y-120714811D01*
X193909901Y-120828825D01*
X194002993Y-120921917D01*
X194117007Y-120987743D01*
X194180590Y-121004780D01*
X193548282Y-121637087D01*
X193548282Y-121637088D01*
X193602449Y-121676442D01*
X193791782Y-121772913D01*
X193993870Y-121838575D01*
X194203754Y-121871818D01*
X194416241Y-121871818D01*
X194419316Y-121871331D01*
X194419326Y-121871330D01*
X194626127Y-121838575D01*
X194626130Y-121838575D01*
X194828217Y-121772913D01*
X195017554Y-121676440D01*
X195071716Y-121637088D01*
X195071717Y-121637088D01*
X194439408Y-121004780D01*
X194502993Y-120987743D01*
X194617007Y-120921917D01*
X194710099Y-120828825D01*
X194775925Y-120714811D01*
X194792962Y-120651226D01*
X195425270Y-121283535D01*
X195425270Y-121283534D01*
X195464622Y-121229372D01*
X195561095Y-121040035D01*
X195626757Y-120837948D01*
X195626757Y-120837945D01*
X195660000Y-120628064D01*
X195660000Y-120415571D01*
X195626757Y-120205690D01*
X195626757Y-120205687D01*
X195561095Y-120003600D01*
X195464624Y-119814267D01*
X195425270Y-119760100D01*
X195425269Y-119760100D01*
X194792962Y-120392408D01*
X194775925Y-120328825D01*
X194710099Y-120214811D01*
X194617007Y-120121719D01*
X194502993Y-120055893D01*
X194439409Y-120038855D01*
X195071716Y-119406546D01*
X195017547Y-119367191D01*
X195017547Y-119367190D01*
X195008500Y-119362581D01*
X194957706Y-119314606D01*
X194940912Y-119246784D01*
X194963451Y-119180650D01*
X195008508Y-119141611D01*
X195017816Y-119136869D01*
X195097007Y-119079333D01*
X195189786Y-119011927D01*
X195189788Y-119011924D01*
X195189792Y-119011922D01*
X195340104Y-118861610D01*
X195340106Y-118861606D01*
X195340109Y-118861604D01*
X195433251Y-118733403D01*
X195465051Y-118689634D01*
X195465349Y-118689048D01*
X195485235Y-118650023D01*
X195533209Y-118599227D01*
X195595719Y-118582318D01*
X201914281Y-118582318D01*
X201981320Y-118602003D01*
X202024765Y-118650023D01*
X202044947Y-118689632D01*
X202044948Y-118689633D01*
X202169890Y-118861604D01*
X202320213Y-119011927D01*
X202492179Y-119136866D01*
X202492181Y-119136867D01*
X202492184Y-119136869D01*
X202681588Y-119233375D01*
X202883757Y-119299064D01*
X203093713Y-119332318D01*
X203093714Y-119332318D01*
X203306286Y-119332318D01*
X203306287Y-119332318D01*
X203516243Y-119299064D01*
X203718412Y-119233375D01*
X203907816Y-119136869D01*
X203929789Y-119120904D01*
X204079786Y-119011927D01*
X204079788Y-119011924D01*
X204079792Y-119011922D01*
X204230104Y-118861610D01*
X204230106Y-118861606D01*
X204230109Y-118861604D01*
X204355048Y-118689638D01*
X204355047Y-118689638D01*
X204355051Y-118689634D01*
X204451557Y-118500230D01*
X204517246Y-118298061D01*
X204550500Y-118088105D01*
X204550500Y-117875531D01*
X204517246Y-117665575D01*
X204451557Y-117463406D01*
X204355051Y-117274002D01*
X204355049Y-117273999D01*
X204355048Y-117273997D01*
X204230109Y-117102031D01*
X204079786Y-116951708D01*
X203907820Y-116826769D01*
X203718414Y-116730262D01*
X203718413Y-116730261D01*
X203718412Y-116730261D01*
X203516243Y-116664572D01*
X203516241Y-116664571D01*
X203516240Y-116664571D01*
X203354957Y-116639026D01*
X203306287Y-116631318D01*
X203093713Y-116631318D01*
X203045042Y-116639026D01*
X202883760Y-116664571D01*
X202681585Y-116730262D01*
X202492179Y-116826769D01*
X202320213Y-116951708D01*
X202169890Y-117102031D01*
X202044948Y-117274002D01*
X202044947Y-117274003D01*
X202024765Y-117313613D01*
X201976791Y-117364409D01*
X201914281Y-117381318D01*
X195595719Y-117381318D01*
X195528680Y-117361633D01*
X195485235Y-117313613D01*
X195465052Y-117274003D01*
X195465051Y-117274002D01*
X195340109Y-117102031D01*
X195189786Y-116951708D01*
X195017820Y-116826769D01*
X195017115Y-116826409D01*
X195009054Y-116822303D01*
X194958259Y-116774330D01*
X194941463Y-116706510D01*
X194963999Y-116640374D01*
X195009054Y-116601333D01*
X195017816Y-116596869D01*
X195039789Y-116580904D01*
X195189786Y-116471927D01*
X195189788Y-116471924D01*
X195189792Y-116471922D01*
X195340104Y-116321610D01*
X195340106Y-116321606D01*
X195340109Y-116321604D01*
X195433251Y-116193403D01*
X195465051Y-116149634D01*
X195465349Y-116149048D01*
X195485235Y-116110023D01*
X195533209Y-116059227D01*
X195595719Y-116042318D01*
X200573331Y-116042318D01*
X200573347Y-116042319D01*
X200580943Y-116042319D01*
X200739054Y-116042319D01*
X200739057Y-116042319D01*
X200891785Y-116001395D01*
X200941904Y-115972457D01*
X201028716Y-115922338D01*
X201140520Y-115810534D01*
X201140520Y-115810532D01*
X201150728Y-115800325D01*
X201150730Y-115800322D01*
X202715478Y-114235573D01*
X202776799Y-114202090D01*
X202841473Y-114205324D01*
X202883757Y-114219064D01*
X203093713Y-114252318D01*
X203093714Y-114252318D01*
X203306286Y-114252318D01*
X203306287Y-114252318D01*
X203516243Y-114219064D01*
X203718412Y-114153375D01*
X203907816Y-114056869D01*
X203971126Y-114010872D01*
X204079786Y-113931927D01*
X204079788Y-113931924D01*
X204079792Y-113931922D01*
X204230104Y-113781610D01*
X204230106Y-113781606D01*
X204230109Y-113781604D01*
X204355048Y-113609638D01*
X204355047Y-113609638D01*
X204355051Y-113609634D01*
X204451557Y-113420230D01*
X204517246Y-113218061D01*
X204550500Y-113008105D01*
X204550500Y-112795531D01*
X204517246Y-112585575D01*
X204451557Y-112383406D01*
X204355051Y-112194002D01*
X204355049Y-112193999D01*
X204355048Y-112193997D01*
X204230109Y-112022031D01*
X204079786Y-111871708D01*
X203907815Y-111746766D01*
X203907814Y-111746765D01*
X203868205Y-111726583D01*
X203817409Y-111678609D01*
X203800500Y-111616099D01*
X203800500Y-107870945D01*
X203800500Y-107870943D01*
X203759577Y-107718216D01*
X203759573Y-107718209D01*
X203680524Y-107581290D01*
X203680521Y-107581286D01*
X203680520Y-107581284D01*
X203568716Y-107469480D01*
X203568715Y-107469479D01*
X203564385Y-107465149D01*
X203564374Y-107465139D01*
X196790066Y-100690831D01*
X196756581Y-100629508D01*
X196755274Y-100583752D01*
X196755275Y-100583750D01*
X196762042Y-100541017D01*
X196780500Y-100424486D01*
X196780500Y-100235513D01*
X196750940Y-100048881D01*
X196692545Y-99869163D01*
X196633619Y-99753515D01*
X196606760Y-99700801D01*
X196495690Y-99547927D01*
X196362073Y-99414310D01*
X196302850Y-99371282D01*
X196231614Y-99319525D01*
X196188948Y-99264194D01*
X196180500Y-99219207D01*
X196180500Y-90908445D01*
X196180500Y-90908443D01*
X196139577Y-90755716D01*
X196139577Y-90755715D01*
X196100719Y-90688412D01*
X196060520Y-90618784D01*
X196057059Y-90615323D01*
X196050536Y-90604399D01*
X196043530Y-90577271D01*
X196033429Y-90551139D01*
X196032999Y-90540825D01*
X196032999Y-89392129D01*
X196032998Y-89392123D01*
X196032997Y-89392116D01*
X196026591Y-89332517D01*
X196010813Y-89290215D01*
X195976297Y-89197671D01*
X195976293Y-89197664D01*
X195890047Y-89082455D01*
X195890044Y-89082452D01*
X195774835Y-88996206D01*
X195774828Y-88996202D01*
X195639982Y-88945908D01*
X195639983Y-88945908D01*
X195580383Y-88939501D01*
X195580381Y-88939500D01*
X195580373Y-88939500D01*
X195580364Y-88939500D01*
X193984629Y-88939500D01*
X193984623Y-88939501D01*
X193925016Y-88945908D01*
X193790171Y-88996202D01*
X193790164Y-88996206D01*
X193674955Y-89082452D01*
X193674952Y-89082455D01*
X193588706Y-89197664D01*
X193588702Y-89197671D01*
X193538408Y-89332517D01*
X193533803Y-89375354D01*
X193532001Y-89392123D01*
X193532000Y-89392135D01*
X193532000Y-89455732D01*
X193512315Y-89522771D01*
X193459511Y-89568526D01*
X193390353Y-89578470D01*
X193326797Y-89549445D01*
X193307682Y-89528618D01*
X193208520Y-89392135D01*
X193196328Y-89375354D01*
X193057146Y-89236172D01*
X192897905Y-89120476D01*
X192887845Y-89115350D01*
X192722529Y-89031117D01*
X192535326Y-88970290D01*
X192340922Y-88939500D01*
X192340917Y-88939500D01*
X192144083Y-88939500D01*
X192144078Y-88939500D01*
X191949673Y-88970290D01*
X191762470Y-89031117D01*
X191587094Y-89120476D01*
X191548636Y-89148418D01*
X191427854Y-89236172D01*
X191427852Y-89236174D01*
X191427851Y-89236174D01*
X191288674Y-89375351D01*
X191288674Y-89375352D01*
X191288672Y-89375354D01*
X191276480Y-89392135D01*
X191172976Y-89534594D01*
X191082985Y-89711213D01*
X191035011Y-89762009D01*
X190967190Y-89778804D01*
X190901055Y-89756267D01*
X190862015Y-89711213D01*
X190815795Y-89620501D01*
X190772024Y-89534595D01*
X190656328Y-89375354D01*
X190517146Y-89236172D01*
X190357905Y-89120476D01*
X190347845Y-89115350D01*
X190182529Y-89031117D01*
X189995326Y-88970290D01*
X189800922Y-88939500D01*
X189800917Y-88939500D01*
X189604083Y-88939500D01*
X189604078Y-88939500D01*
X189409673Y-88970290D01*
X189222470Y-89031117D01*
X189047094Y-89120476D01*
X189008636Y-89148418D01*
X188887854Y-89236172D01*
X188887852Y-89236174D01*
X188887851Y-89236174D01*
X188748674Y-89375351D01*
X188748674Y-89375352D01*
X188748672Y-89375354D01*
X188736480Y-89392135D01*
X188632976Y-89534594D01*
X188542704Y-89711764D01*
X188494729Y-89762560D01*
X188426908Y-89779355D01*
X188360774Y-89756818D01*
X188321734Y-89711764D01*
X188231596Y-89534858D01*
X188206178Y-89499873D01*
X188206177Y-89499873D01*
X187542500Y-90163551D01*
X187542500Y-90139972D01*
X187516604Y-90043325D01*
X187466576Y-89956675D01*
X187395825Y-89885924D01*
X187309175Y-89835896D01*
X187212528Y-89810000D01*
X187188947Y-89810000D01*
X187852625Y-89146320D01*
X187852625Y-89146319D01*
X187817645Y-89120905D01*
X187642335Y-89031581D01*
X187455205Y-88970778D01*
X187260882Y-88940000D01*
X187064118Y-88940000D01*
X186869794Y-88970778D01*
X186682661Y-89031582D01*
X186507363Y-89120899D01*
X186507359Y-89120902D01*
X186472373Y-89146320D01*
X186472372Y-89146320D01*
X187136054Y-89810000D01*
X187112472Y-89810000D01*
X187015825Y-89835896D01*
X186929175Y-89885924D01*
X186858424Y-89956675D01*
X186808396Y-90043325D01*
X186782500Y-90139972D01*
X186782500Y-90163552D01*
X186118820Y-89499872D01*
X186118820Y-89499873D01*
X186093402Y-89534859D01*
X186093399Y-89534863D01*
X186004082Y-89710161D01*
X185943278Y-89897294D01*
X185912500Y-90091617D01*
X185912500Y-90288382D01*
X185943278Y-90482705D01*
X186004081Y-90669835D01*
X186093405Y-90845145D01*
X186118819Y-90880125D01*
X186118820Y-90880125D01*
X186782500Y-90216445D01*
X186782500Y-90240028D01*
X186808396Y-90336675D01*
X186858424Y-90423325D01*
X186929175Y-90494076D01*
X187015825Y-90544104D01*
X187112472Y-90570000D01*
X187136053Y-90570000D01*
X186472373Y-91233677D01*
X186472373Y-91233678D01*
X186507358Y-91259096D01*
X186682664Y-91348418D01*
X186869794Y-91409221D01*
X187064118Y-91440000D01*
X187260882Y-91440000D01*
X187455205Y-91409221D01*
X187642335Y-91348418D01*
X187817643Y-91259095D01*
X187852625Y-91233678D01*
X187852626Y-91233678D01*
X187188948Y-90570000D01*
X187212528Y-90570000D01*
X187309175Y-90544104D01*
X187395825Y-90494076D01*
X187466576Y-90423325D01*
X187516604Y-90336675D01*
X187542500Y-90240028D01*
X187542500Y-90216448D01*
X188206178Y-90880126D01*
X188206178Y-90880125D01*
X188231597Y-90845141D01*
X188321734Y-90668236D01*
X188369708Y-90617439D01*
X188437529Y-90600644D01*
X188503664Y-90623181D01*
X188542704Y-90668235D01*
X188543615Y-90670024D01*
X188543616Y-90670025D01*
X188632976Y-90845405D01*
X188748672Y-91004646D01*
X188887854Y-91143828D01*
X189047095Y-91259524D01*
X189121718Y-91297546D01*
X189222470Y-91348882D01*
X189222472Y-91348882D01*
X189222475Y-91348884D01*
X189310518Y-91377491D01*
X189409673Y-91409709D01*
X189604078Y-91440500D01*
X189604083Y-91440500D01*
X189800922Y-91440500D01*
X189995326Y-91409709D01*
X189996828Y-91409221D01*
X190182525Y-91348884D01*
X190357905Y-91259524D01*
X190517146Y-91143828D01*
X190656328Y-91004646D01*
X190772024Y-90845405D01*
X190851607Y-90689214D01*
X190862015Y-90668787D01*
X190909989Y-90617990D01*
X190977810Y-90601195D01*
X191043945Y-90623732D01*
X191082985Y-90668787D01*
X191172974Y-90845403D01*
X191177317Y-90851380D01*
X191288672Y-91004646D01*
X191427854Y-91143828D01*
X191587095Y-91259524D01*
X191661718Y-91297546D01*
X191762470Y-91348882D01*
X191762472Y-91348882D01*
X191762475Y-91348884D01*
X191850518Y-91377491D01*
X191949673Y-91409709D01*
X192144078Y-91440500D01*
X192144083Y-91440500D01*
X192340922Y-91440500D01*
X192535326Y-91409709D01*
X192536828Y-91409221D01*
X192722525Y-91348884D01*
X192897905Y-91259524D01*
X193057146Y-91143828D01*
X193196328Y-91004646D01*
X193307684Y-90851378D01*
X193363012Y-90808714D01*
X193432625Y-90802735D01*
X193494420Y-90835341D01*
X193528777Y-90896179D01*
X193532000Y-90924263D01*
X193532000Y-90987869D01*
X193532001Y-90987876D01*
X193538408Y-91047483D01*
X193588702Y-91182328D01*
X193588704Y-91182331D01*
X193662709Y-91281189D01*
X193687127Y-91346653D01*
X193672276Y-91414926D01*
X193622871Y-91464332D01*
X193563443Y-91479500D01*
X193414078Y-91479500D01*
X193219673Y-91510290D01*
X193032470Y-91571117D01*
X192857094Y-91660476D01*
X192777882Y-91718028D01*
X192697854Y-91776172D01*
X192697852Y-91776174D01*
X192697851Y-91776174D01*
X192558674Y-91915351D01*
X192558674Y-91915352D01*
X192558672Y-91915354D01*
X192508985Y-91983741D01*
X192442976Y-92074594D01*
X192352985Y-92251213D01*
X192305011Y-92302009D01*
X192237190Y-92318804D01*
X192171055Y-92296267D01*
X192132015Y-92251213D01*
X192101633Y-92191585D01*
X192042024Y-92074595D01*
X191926328Y-91915354D01*
X191787146Y-91776172D01*
X191627905Y-91660476D01*
X191569119Y-91630523D01*
X191452529Y-91571117D01*
X191265326Y-91510290D01*
X191070922Y-91479500D01*
X191070917Y-91479500D01*
X190874083Y-91479500D01*
X190874078Y-91479500D01*
X190679673Y-91510290D01*
X190492470Y-91571117D01*
X190317094Y-91660476D01*
X190237882Y-91718028D01*
X190157854Y-91776172D01*
X190157852Y-91776174D01*
X190157851Y-91776174D01*
X190018674Y-91915351D01*
X190018674Y-91915352D01*
X190018672Y-91915354D01*
X189968985Y-91983741D01*
X189902976Y-92074594D01*
X189812985Y-92251213D01*
X189765011Y-92302009D01*
X189697190Y-92318804D01*
X189631055Y-92296267D01*
X189592015Y-92251213D01*
X189561633Y-92191585D01*
X189502024Y-92074595D01*
X189386328Y-91915354D01*
X189247146Y-91776172D01*
X189087905Y-91660476D01*
X189029119Y-91630523D01*
X188912529Y-91571117D01*
X188725326Y-91510290D01*
X188530922Y-91479500D01*
X188530917Y-91479500D01*
X188334083Y-91479500D01*
X188334078Y-91479500D01*
X188139673Y-91510290D01*
X187952470Y-91571117D01*
X187777094Y-91660476D01*
X187697882Y-91718028D01*
X187617854Y-91776172D01*
X187617852Y-91776174D01*
X187617851Y-91776174D01*
X187478674Y-91915351D01*
X187478674Y-91915352D01*
X187478672Y-91915354D01*
X187428985Y-91983741D01*
X187362976Y-92074594D01*
X187272704Y-92251764D01*
X187224729Y-92302560D01*
X187156908Y-92319355D01*
X187090774Y-92296818D01*
X187051734Y-92251764D01*
X186961596Y-92074858D01*
X186936178Y-92039873D01*
X186936177Y-92039873D01*
X186272500Y-92703551D01*
X186272500Y-92679972D01*
X186246604Y-92583325D01*
X186196576Y-92496675D01*
X186125825Y-92425924D01*
X186039175Y-92375896D01*
X185942528Y-92350000D01*
X185918947Y-92350000D01*
X186582625Y-91686320D01*
X186582625Y-91686319D01*
X186547645Y-91660905D01*
X186372335Y-91571581D01*
X186185205Y-91510778D01*
X185990882Y-91480000D01*
X185794118Y-91480000D01*
X185599794Y-91510778D01*
X185412661Y-91571582D01*
X185237363Y-91660899D01*
X185237359Y-91660902D01*
X185202373Y-91686320D01*
X185202372Y-91686320D01*
X185866054Y-92350000D01*
X185842472Y-92350000D01*
X185745825Y-92375896D01*
X185659175Y-92425924D01*
X185588424Y-92496675D01*
X185538396Y-92583325D01*
X185512500Y-92679972D01*
X185512500Y-92703552D01*
X184848820Y-92039872D01*
X184848820Y-92039873D01*
X184823402Y-92074859D01*
X184823399Y-92074863D01*
X184734082Y-92250161D01*
X184673278Y-92437294D01*
X184642500Y-92631617D01*
X132160000Y-92631617D01*
X132160000Y-92603753D01*
X132126757Y-92393872D01*
X132126757Y-92393869D01*
X132061095Y-92191782D01*
X131964624Y-92002449D01*
X131925270Y-91948282D01*
X131925269Y-91948282D01*
X131292962Y-92580590D01*
X131275925Y-92517007D01*
X131210099Y-92402993D01*
X131117007Y-92309901D01*
X131002993Y-92244075D01*
X130939408Y-92227037D01*
X131520547Y-91645898D01*
X131571716Y-91594728D01*
X131517547Y-91555373D01*
X131517547Y-91555372D01*
X131508500Y-91550763D01*
X131457706Y-91502788D01*
X131440912Y-91434966D01*
X131463451Y-91368832D01*
X131508508Y-91329793D01*
X131517816Y-91325051D01*
X131643581Y-91233678D01*
X131689786Y-91200109D01*
X131689788Y-91200106D01*
X131689792Y-91200104D01*
X131840104Y-91049792D01*
X131840106Y-91049788D01*
X131840109Y-91049786D01*
X131965048Y-90877820D01*
X131965047Y-90877820D01*
X131965051Y-90877816D01*
X132061557Y-90688412D01*
X132127246Y-90486243D01*
X132160500Y-90276287D01*
X132160500Y-90063713D01*
X132127246Y-89853757D01*
X132104195Y-89782816D01*
X132102201Y-89712977D01*
X132138281Y-89653144D01*
X132200982Y-89622316D01*
X132222127Y-89620500D01*
X156127331Y-89620500D01*
X156127347Y-89620501D01*
X156134943Y-89620501D01*
X156293054Y-89620501D01*
X156293057Y-89620501D01*
X156445785Y-89579577D01*
X156495904Y-89550639D01*
X156582716Y-89500520D01*
X156694520Y-89388716D01*
X156694520Y-89388714D01*
X156704728Y-89378507D01*
X156704730Y-89378504D01*
X162364522Y-83718711D01*
X182772000Y-83718711D01*
X182772000Y-83961288D01*
X182803661Y-84201785D01*
X182866447Y-84436104D01*
X182959273Y-84660205D01*
X182959276Y-84660212D01*
X183080564Y-84870289D01*
X183080566Y-84870292D01*
X183080567Y-84870293D01*
X183228233Y-85062736D01*
X183228239Y-85062743D01*
X183399756Y-85234260D01*
X183399762Y-85234265D01*
X183592211Y-85381936D01*
X183802288Y-85503224D01*
X184026400Y-85596054D01*
X184260711Y-85658838D01*
X184441086Y-85682584D01*
X184501211Y-85690500D01*
X184501212Y-85690500D01*
X184743789Y-85690500D01*
X184791888Y-85684167D01*
X184984289Y-85658838D01*
X185218600Y-85596054D01*
X185442712Y-85503224D01*
X185652789Y-85381936D01*
X185845238Y-85234265D01*
X186016765Y-85062738D01*
X186164436Y-84870289D01*
X186285724Y-84660212D01*
X186378554Y-84436100D01*
X186441338Y-84201789D01*
X186473000Y-83961288D01*
X186473000Y-83718712D01*
X186473000Y-83718711D01*
X194202000Y-83718711D01*
X194202000Y-83961288D01*
X194233661Y-84201785D01*
X194296447Y-84436104D01*
X194389273Y-84660205D01*
X194389276Y-84660212D01*
X194510564Y-84870289D01*
X194510566Y-84870292D01*
X194510567Y-84870293D01*
X194658233Y-85062736D01*
X194658239Y-85062743D01*
X194829756Y-85234260D01*
X194829762Y-85234265D01*
X195022211Y-85381936D01*
X195232288Y-85503224D01*
X195456400Y-85596054D01*
X195690711Y-85658838D01*
X195871086Y-85682584D01*
X195931211Y-85690500D01*
X195931212Y-85690500D01*
X196173789Y-85690500D01*
X196221888Y-85684167D01*
X196414289Y-85658838D01*
X196648600Y-85596054D01*
X196872712Y-85503224D01*
X197082789Y-85381936D01*
X197275238Y-85234265D01*
X197446765Y-85062738D01*
X197594436Y-84870289D01*
X197715724Y-84660212D01*
X197808554Y-84436100D01*
X197871338Y-84201789D01*
X197903000Y-83961288D01*
X197903000Y-83718712D01*
X197871338Y-83478211D01*
X197808554Y-83243900D01*
X197715724Y-83019788D01*
X197594436Y-82809711D01*
X197508705Y-82697984D01*
X197446766Y-82617263D01*
X197446760Y-82617256D01*
X197275243Y-82445739D01*
X197275236Y-82445733D01*
X197082793Y-82298067D01*
X197082792Y-82298066D01*
X197082789Y-82298064D01*
X196872712Y-82176776D01*
X196872705Y-82176773D01*
X196648604Y-82083947D01*
X196414285Y-82021161D01*
X196173789Y-81989500D01*
X196173788Y-81989500D01*
X195931212Y-81989500D01*
X195931211Y-81989500D01*
X195690714Y-82021161D01*
X195456395Y-82083947D01*
X195232294Y-82176773D01*
X195232285Y-82176777D01*
X195022206Y-82298067D01*
X194829763Y-82445733D01*
X194829756Y-82445739D01*
X194658239Y-82617256D01*
X194658233Y-82617263D01*
X194510567Y-82809706D01*
X194389277Y-83019785D01*
X194389273Y-83019794D01*
X194296447Y-83243895D01*
X194233661Y-83478214D01*
X194202000Y-83718711D01*
X186473000Y-83718711D01*
X186441338Y-83478211D01*
X186378554Y-83243900D01*
X186285724Y-83019788D01*
X186164436Y-82809711D01*
X186078705Y-82697984D01*
X186016766Y-82617263D01*
X186016760Y-82617256D01*
X185845243Y-82445739D01*
X185845236Y-82445733D01*
X185652793Y-82298067D01*
X185652792Y-82298066D01*
X185652789Y-82298064D01*
X185442712Y-82176776D01*
X185442705Y-82176773D01*
X185218604Y-82083947D01*
X184984285Y-82021161D01*
X184743789Y-81989500D01*
X184743788Y-81989500D01*
X184501212Y-81989500D01*
X184501211Y-81989500D01*
X184260714Y-82021161D01*
X184026395Y-82083947D01*
X183802294Y-82176773D01*
X183802285Y-82176777D01*
X183592206Y-82298067D01*
X183399763Y-82445733D01*
X183399756Y-82445739D01*
X183228239Y-82617256D01*
X183228233Y-82617263D01*
X183080567Y-82809706D01*
X182959277Y-83019785D01*
X182959273Y-83019794D01*
X182866447Y-83243895D01*
X182803661Y-83478214D01*
X182772000Y-83718711D01*
X162364522Y-83718711D01*
X163735478Y-82347755D01*
X163796799Y-82314272D01*
X163861473Y-82317506D01*
X163903757Y-82331246D01*
X164113713Y-82364500D01*
X164113714Y-82364500D01*
X164326286Y-82364500D01*
X164326287Y-82364500D01*
X164536243Y-82331246D01*
X164738412Y-82265557D01*
X164927816Y-82169051D01*
X165014471Y-82106093D01*
X165099786Y-82044109D01*
X165099788Y-82044106D01*
X165099792Y-82044104D01*
X165250104Y-81893792D01*
X165250106Y-81893788D01*
X165250109Y-81893786D01*
X165375048Y-81721820D01*
X165375047Y-81721820D01*
X165375051Y-81721816D01*
X165379514Y-81713054D01*
X165427488Y-81662259D01*
X165495308Y-81645463D01*
X165561444Y-81667999D01*
X165600486Y-81713056D01*
X165604951Y-81721820D01*
X165729890Y-81893786D01*
X165880213Y-82044109D01*
X166052179Y-82169048D01*
X166052181Y-82169049D01*
X166052184Y-82169051D01*
X166241588Y-82265557D01*
X166443757Y-82331246D01*
X166653713Y-82364500D01*
X166653714Y-82364500D01*
X166866286Y-82364500D01*
X166866287Y-82364500D01*
X167076243Y-82331246D01*
X167278412Y-82265557D01*
X167467816Y-82169051D01*
X167554471Y-82106093D01*
X167639786Y-82044109D01*
X167639788Y-82044106D01*
X167639792Y-82044104D01*
X167790104Y-81893792D01*
X167790106Y-81893788D01*
X167790109Y-81893786D01*
X167915048Y-81721820D01*
X167915047Y-81721820D01*
X167915051Y-81721816D01*
X168011557Y-81532412D01*
X168077246Y-81330243D01*
X168098200Y-81197947D01*
X171529500Y-81197947D01*
X171529500Y-81430052D01*
X171541328Y-81519890D01*
X171559794Y-81660149D01*
X171573970Y-81713056D01*
X171619862Y-81884328D01*
X171708677Y-82098745D01*
X171708685Y-82098762D01*
X171824720Y-82299743D01*
X171824721Y-82299745D01*
X171966009Y-82483875D01*
X171966015Y-82483882D01*
X172130117Y-82647984D01*
X172130124Y-82647990D01*
X172314254Y-82789278D01*
X172314256Y-82789279D01*
X172515237Y-82905314D01*
X172515240Y-82905315D01*
X172515248Y-82905320D01*
X172729670Y-82994137D01*
X172953851Y-83054206D01*
X173183955Y-83084500D01*
X173183962Y-83084500D01*
X173416038Y-83084500D01*
X173416045Y-83084500D01*
X173646149Y-83054206D01*
X173870330Y-82994137D01*
X174084752Y-82905320D01*
X174285748Y-82789276D01*
X174469877Y-82647989D01*
X174633989Y-82483877D01*
X174775276Y-82299748D01*
X174891320Y-82098752D01*
X174980137Y-81884330D01*
X175040206Y-81660149D01*
X175070500Y-81430045D01*
X175070500Y-81197955D01*
X175040206Y-80967851D01*
X174980137Y-80743670D01*
X174891320Y-80529248D01*
X174882517Y-80514000D01*
X174775279Y-80328256D01*
X174775278Y-80328254D01*
X174633990Y-80144124D01*
X174633984Y-80144117D01*
X174469882Y-79980015D01*
X174469875Y-79980009D01*
X174359425Y-79895258D01*
X205259500Y-79895258D01*
X205259500Y-80124741D01*
X205283388Y-80306179D01*
X205289452Y-80352238D01*
X205314728Y-80446569D01*
X205348842Y-80573887D01*
X205436650Y-80785876D01*
X205436657Y-80785890D01*
X205551392Y-80984617D01*
X205691081Y-81166661D01*
X205691089Y-81166670D01*
X205853330Y-81328911D01*
X205853338Y-81328918D01*
X205853339Y-81328919D01*
X205903962Y-81367764D01*
X206035382Y-81468607D01*
X206035385Y-81468608D01*
X206035388Y-81468611D01*
X206234112Y-81583344D01*
X206234117Y-81583346D01*
X206234123Y-81583349D01*
X206325480Y-81621190D01*
X206446113Y-81671158D01*
X206667762Y-81730548D01*
X206895266Y-81760500D01*
X206895273Y-81760500D01*
X207124727Y-81760500D01*
X207124734Y-81760500D01*
X207352238Y-81730548D01*
X207573887Y-81671158D01*
X207785888Y-81583344D01*
X207984612Y-81468611D01*
X208166661Y-81328919D01*
X208166665Y-81328914D01*
X208166670Y-81328911D01*
X208328911Y-81166670D01*
X208328914Y-81166665D01*
X208328919Y-81166661D01*
X208468611Y-80984612D01*
X208583344Y-80785888D01*
X208671158Y-80573887D01*
X208730548Y-80352238D01*
X208760500Y-80124734D01*
X208760500Y-79895266D01*
X208730548Y-79667762D01*
X208671158Y-79446113D01*
X208616219Y-79313479D01*
X208583349Y-79234123D01*
X208583346Y-79234117D01*
X208583344Y-79234112D01*
X208468611Y-79035388D01*
X208468608Y-79035385D01*
X208468607Y-79035382D01*
X208328918Y-78853338D01*
X208328911Y-78853330D01*
X208166670Y-78691089D01*
X208166661Y-78691081D01*
X207984617Y-78551392D01*
X207785890Y-78436657D01*
X207785876Y-78436650D01*
X207573887Y-78348842D01*
X207527937Y-78336530D01*
X207352238Y-78289452D01*
X207314215Y-78284446D01*
X207124741Y-78259500D01*
X207124734Y-78259500D01*
X206895266Y-78259500D01*
X206895258Y-78259500D01*
X206678715Y-78288009D01*
X206667762Y-78289452D01*
X206574076Y-78314554D01*
X206446112Y-78348842D01*
X206234123Y-78436650D01*
X206234109Y-78436657D01*
X206035382Y-78551392D01*
X205853338Y-78691081D01*
X205691081Y-78853338D01*
X205551392Y-79035382D01*
X205436657Y-79234109D01*
X205436650Y-79234123D01*
X205348842Y-79446112D01*
X205314630Y-79573794D01*
X205298536Y-79633862D01*
X205289453Y-79667759D01*
X205289451Y-79667770D01*
X205259500Y-79895258D01*
X174359425Y-79895258D01*
X174285745Y-79838721D01*
X174285743Y-79838720D01*
X174084762Y-79722685D01*
X174084754Y-79722681D01*
X174084752Y-79722680D01*
X174053307Y-79709655D01*
X173870328Y-79633862D01*
X173728203Y-79595780D01*
X173646149Y-79573794D01*
X173617386Y-79570007D01*
X173416052Y-79543500D01*
X173416045Y-79543500D01*
X173183955Y-79543500D01*
X173183947Y-79543500D01*
X172953851Y-79573794D01*
X172729671Y-79633862D01*
X172515254Y-79722677D01*
X172515237Y-79722685D01*
X172314256Y-79838720D01*
X172314254Y-79838721D01*
X172130124Y-79980009D01*
X172130117Y-79980015D01*
X171966015Y-80144117D01*
X171966009Y-80144124D01*
X171824721Y-80328254D01*
X171824720Y-80328256D01*
X171708685Y-80529237D01*
X171708677Y-80529254D01*
X171619862Y-80743671D01*
X171559794Y-80967851D01*
X171529500Y-81197947D01*
X168098200Y-81197947D01*
X168110500Y-81120287D01*
X168110500Y-80907713D01*
X168077246Y-80697757D01*
X168011557Y-80495588D01*
X167915051Y-80306184D01*
X167915049Y-80306181D01*
X167915048Y-80306179D01*
X167790109Y-80134213D01*
X167639786Y-79983890D01*
X167467820Y-79858951D01*
X167278414Y-79762444D01*
X167278413Y-79762443D01*
X167278412Y-79762443D01*
X167076243Y-79696754D01*
X167076241Y-79696753D01*
X167076240Y-79696753D01*
X166914957Y-79671208D01*
X166866287Y-79663500D01*
X166653713Y-79663500D01*
X166625006Y-79668046D01*
X166443757Y-79696753D01*
X166401473Y-79710492D01*
X166331632Y-79712486D01*
X166275476Y-79680241D01*
X166027590Y-79432355D01*
X166027588Y-79432352D01*
X165908717Y-79313481D01*
X165908716Y-79313480D01*
X165821904Y-79263360D01*
X165821904Y-79263359D01*
X165821900Y-79263358D01*
X165771785Y-79234423D01*
X165619057Y-79193499D01*
X165460943Y-79193499D01*
X165453347Y-79193499D01*
X165453331Y-79193500D01*
X152036353Y-79193500D01*
X152036337Y-79193499D01*
X152028741Y-79193499D01*
X151870627Y-79193499D01*
X151763271Y-79222265D01*
X151717894Y-79234424D01*
X151717893Y-79234425D01*
X151667780Y-79263359D01*
X151667779Y-79263360D01*
X151624373Y-79288420D01*
X151580969Y-79313479D01*
X151580966Y-79313481D01*
X151469164Y-79425284D01*
X151469162Y-79425286D01*
X148246459Y-82647990D01*
X145051268Y-85843181D01*
X144989945Y-85876666D01*
X144963587Y-85879500D01*
X124783016Y-85879500D01*
X124783000Y-85879499D01*
X124775404Y-85879499D01*
X124617289Y-85879499D01*
X124540925Y-85899961D01*
X124464560Y-85920423D01*
X124464555Y-85920426D01*
X124327636Y-85999475D01*
X124327628Y-85999481D01*
X110607079Y-99720030D01*
X110545756Y-99753515D01*
X110476064Y-99748531D01*
X110420131Y-99706659D01*
X110408913Y-99688643D01*
X110394800Y-99660945D01*
X110375051Y-99622184D01*
X110375050Y-99622182D01*
X110250109Y-99450213D01*
X110099786Y-99299890D01*
X109927820Y-99174951D01*
X109927115Y-99174591D01*
X109919054Y-99170485D01*
X109868259Y-99122512D01*
X109851463Y-99054692D01*
X109873999Y-98988556D01*
X109919054Y-98949515D01*
X109927816Y-98945051D01*
X109949789Y-98929086D01*
X110099786Y-98820109D01*
X110099788Y-98820106D01*
X110099792Y-98820104D01*
X110250104Y-98669792D01*
X110250106Y-98669788D01*
X110250109Y-98669786D01*
X110375048Y-98497820D01*
X110375047Y-98497820D01*
X110375051Y-98497816D01*
X110471557Y-98308412D01*
X110537246Y-98106243D01*
X110570500Y-97896287D01*
X110570500Y-97683713D01*
X110537246Y-97473757D01*
X110471557Y-97271588D01*
X110375051Y-97082184D01*
X110375049Y-97082181D01*
X110375048Y-97082179D01*
X110250109Y-96910213D01*
X110099786Y-96759890D01*
X109927820Y-96634951D01*
X109927115Y-96634591D01*
X109919054Y-96630485D01*
X109868259Y-96582512D01*
X109851463Y-96514692D01*
X109873999Y-96448556D01*
X109919054Y-96409515D01*
X109927816Y-96405051D01*
X109949789Y-96389086D01*
X110099786Y-96280109D01*
X110099788Y-96280106D01*
X110099792Y-96280104D01*
X110250104Y-96129792D01*
X110250106Y-96129788D01*
X110250109Y-96129786D01*
X110375048Y-95957820D01*
X110375047Y-95957820D01*
X110375051Y-95957816D01*
X110471557Y-95768412D01*
X110537246Y-95566243D01*
X110570500Y-95356287D01*
X110570500Y-95143713D01*
X110537246Y-94933757D01*
X110471557Y-94731588D01*
X110375051Y-94542184D01*
X110375049Y-94542181D01*
X110375048Y-94542179D01*
X110250109Y-94370213D01*
X110099786Y-94219890D01*
X109927820Y-94094951D01*
X109927115Y-94094591D01*
X109919054Y-94090485D01*
X109868259Y-94042512D01*
X109851463Y-93974692D01*
X109873999Y-93908556D01*
X109919054Y-93869515D01*
X109927816Y-93865051D01*
X110018007Y-93799524D01*
X110099786Y-93740109D01*
X110099788Y-93740106D01*
X110099792Y-93740104D01*
X110250104Y-93589792D01*
X110250106Y-93589788D01*
X110250109Y-93589786D01*
X110375048Y-93417820D01*
X110375047Y-93417820D01*
X110375051Y-93417816D01*
X110471557Y-93228412D01*
X110537246Y-93026243D01*
X110570500Y-92816287D01*
X110570500Y-92603713D01*
X110537246Y-92393757D01*
X110471557Y-92191588D01*
X110375051Y-92002184D01*
X110375049Y-92002181D01*
X110375048Y-92002179D01*
X110250109Y-91830213D01*
X110099786Y-91679890D01*
X109927820Y-91554951D01*
X109919600Y-91550763D01*
X109919054Y-91550485D01*
X109868259Y-91502512D01*
X109851463Y-91434692D01*
X109873999Y-91368556D01*
X109919054Y-91329515D01*
X109927816Y-91325051D01*
X110018007Y-91259524D01*
X110099786Y-91200109D01*
X110099788Y-91200106D01*
X110099792Y-91200104D01*
X110250104Y-91049792D01*
X110250106Y-91049788D01*
X110250109Y-91049786D01*
X110375048Y-90877820D01*
X110375047Y-90877820D01*
X110375051Y-90877816D01*
X110471557Y-90688412D01*
X110537246Y-90486243D01*
X110570500Y-90276287D01*
X110570500Y-90063713D01*
X110537246Y-89853757D01*
X110471557Y-89651588D01*
X110375051Y-89462184D01*
X110375049Y-89462181D01*
X110375048Y-89462179D01*
X110250109Y-89290213D01*
X110136569Y-89176673D01*
X110103084Y-89115350D01*
X110108068Y-89045658D01*
X110149940Y-88989725D01*
X110180915Y-88972810D01*
X110312331Y-88923796D01*
X110427546Y-88837546D01*
X110513796Y-88722331D01*
X110564091Y-88587483D01*
X110570500Y-88527873D01*
X110570499Y-86732128D01*
X110564091Y-86672517D01*
X110513796Y-86537669D01*
X110513795Y-86537668D01*
X110513793Y-86537664D01*
X110427547Y-86422455D01*
X110427544Y-86422452D01*
X110312335Y-86336206D01*
X110312328Y-86336202D01*
X110177482Y-86285908D01*
X110177483Y-86285908D01*
X110117883Y-86279501D01*
X110117881Y-86279500D01*
X110117873Y-86279500D01*
X110117864Y-86279500D01*
X108322129Y-86279500D01*
X108322123Y-86279501D01*
X108262516Y-86285908D01*
X108127671Y-86336202D01*
X108127664Y-86336206D01*
X108012455Y-86422452D01*
X108012452Y-86422455D01*
X107926206Y-86537664D01*
X107926202Y-86537671D01*
X107875908Y-86672517D01*
X107869501Y-86732116D01*
X107869501Y-86732123D01*
X107869500Y-86732135D01*
X107869500Y-88527870D01*
X107869501Y-88527876D01*
X107875908Y-88587483D01*
X107926202Y-88722328D01*
X107926206Y-88722335D01*
X108012452Y-88837544D01*
X108012455Y-88837547D01*
X108127664Y-88923793D01*
X108127671Y-88923797D01*
X108259082Y-88972810D01*
X108315016Y-89014681D01*
X108339433Y-89080145D01*
X108324582Y-89148418D01*
X108303431Y-89176673D01*
X108189889Y-89290215D01*
X108064951Y-89462179D01*
X107968444Y-89651585D01*
X107902753Y-89853760D01*
X107869500Y-90063713D01*
X107869500Y-90276286D01*
X107902212Y-90482826D01*
X107902754Y-90486243D01*
X107962066Y-90668787D01*
X107968444Y-90688414D01*
X108064951Y-90877820D01*
X108189890Y-91049786D01*
X108340213Y-91200109D01*
X108512182Y-91325050D01*
X108520946Y-91329516D01*
X108571742Y-91377491D01*
X108588536Y-91445312D01*
X108565998Y-91511447D01*
X108520946Y-91550484D01*
X108512182Y-91554949D01*
X108340213Y-91679890D01*
X108189890Y-91830213D01*
X108064951Y-92002179D01*
X107968444Y-92191585D01*
X107902753Y-92393760D01*
X107869500Y-92603713D01*
X107869500Y-92816286D01*
X107902735Y-93026127D01*
X107902754Y-93026243D01*
X107962066Y-93208787D01*
X107968444Y-93228414D01*
X108064951Y-93417820D01*
X108189890Y-93589786D01*
X108340213Y-93740109D01*
X108512182Y-93865050D01*
X108520946Y-93869516D01*
X108571742Y-93917491D01*
X108588536Y-93985312D01*
X108565998Y-94051447D01*
X108520946Y-94090484D01*
X108512182Y-94094949D01*
X108340213Y-94219890D01*
X108189890Y-94370213D01*
X108064951Y-94542179D01*
X107968444Y-94731585D01*
X107902753Y-94933760D01*
X107869500Y-95143713D01*
X107869500Y-95356287D01*
X107902754Y-95566243D01*
X107957431Y-95734522D01*
X107968444Y-95768414D01*
X108064951Y-95957820D01*
X108189890Y-96129786D01*
X108340213Y-96280109D01*
X108512182Y-96405050D01*
X108520946Y-96409516D01*
X108571742Y-96457491D01*
X108588536Y-96525312D01*
X108565998Y-96591447D01*
X108520946Y-96630484D01*
X108512182Y-96634949D01*
X108340213Y-96759890D01*
X108189890Y-96910213D01*
X108064951Y-97082179D01*
X107968444Y-97271585D01*
X107902753Y-97473760D01*
X107878335Y-97627930D01*
X107869500Y-97683713D01*
X107869500Y-97896287D01*
X107902754Y-98106243D01*
X107957431Y-98274522D01*
X107968444Y-98308414D01*
X108064951Y-98497820D01*
X108189890Y-98669786D01*
X108340213Y-98820109D01*
X108512182Y-98945050D01*
X108520946Y-98949516D01*
X108571742Y-98997491D01*
X108588536Y-99065312D01*
X108565998Y-99131447D01*
X108520946Y-99170484D01*
X108512182Y-99174949D01*
X108340213Y-99299890D01*
X108189890Y-99450213D01*
X108064951Y-99622179D01*
X107968444Y-99811585D01*
X107902753Y-100013760D01*
X107869500Y-100223713D01*
X107869500Y-100436286D01*
X107902316Y-100643482D01*
X107902754Y-100646243D01*
X107949735Y-100790836D01*
X107968444Y-100848414D01*
X108064951Y-101037820D01*
X108189890Y-101209786D01*
X108209580Y-101229476D01*
X108243065Y-101290799D01*
X108238081Y-101360491D01*
X108209580Y-101404838D01*
X107589481Y-102024936D01*
X107589480Y-102024938D01*
X107552658Y-102088716D01*
X107510423Y-102161869D01*
X107469499Y-102314597D01*
X107469499Y-102314599D01*
X107469499Y-102482700D01*
X107469500Y-102482713D01*
X107469500Y-111793330D01*
X107469499Y-111793348D01*
X107469499Y-111959054D01*
X107469498Y-111959054D01*
X107484779Y-112016081D01*
X107510423Y-112111785D01*
X107528658Y-112143368D01*
X107557891Y-112194002D01*
X107589479Y-112248715D01*
X107708349Y-112367585D01*
X107708355Y-112367590D01*
X107886241Y-112545476D01*
X107919726Y-112606799D01*
X107916492Y-112671473D01*
X107902753Y-112713757D01*
X107869500Y-112923713D01*
X107869500Y-113136286D01*
X107900594Y-113332609D01*
X107902754Y-113346243D01*
X107915782Y-113386340D01*
X107968444Y-113548414D01*
X108064951Y-113737820D01*
X108189890Y-113909786D01*
X108340213Y-114060109D01*
X108512180Y-114185049D01*
X108520946Y-114189516D01*
X108571742Y-114237491D01*
X108588536Y-114305312D01*
X108565998Y-114371447D01*
X108520946Y-114410484D01*
X108512182Y-114414949D01*
X108340213Y-114539890D01*
X108189890Y-114690213D01*
X108064951Y-114862179D01*
X107968444Y-115051585D01*
X107902753Y-115253760D01*
X107869500Y-115463713D01*
X107869500Y-115676286D01*
X107895889Y-115842904D01*
X107902754Y-115886243D01*
X107958960Y-116059227D01*
X107968444Y-116088414D01*
X108064951Y-116277820D01*
X108189890Y-116449786D01*
X108340213Y-116600109D01*
X108512182Y-116725050D01*
X108520946Y-116729516D01*
X108571742Y-116777491D01*
X108588536Y-116845312D01*
X108565998Y-116911447D01*
X108520946Y-116950484D01*
X108512182Y-116954949D01*
X108340213Y-117079890D01*
X108189890Y-117230213D01*
X108064951Y-117402179D01*
X107968444Y-117591585D01*
X107902753Y-117793760D01*
X107869500Y-118003713D01*
X107869500Y-118216286D01*
X107894167Y-118372031D01*
X107902754Y-118426243D01*
X107958960Y-118599227D01*
X107968444Y-118628414D01*
X108064951Y-118817820D01*
X108189890Y-118989786D01*
X108340213Y-119140109D01*
X108512182Y-119265050D01*
X108520946Y-119269516D01*
X108571742Y-119317491D01*
X108588536Y-119385312D01*
X108565998Y-119451447D01*
X108520946Y-119490484D01*
X108512182Y-119494949D01*
X108340213Y-119619890D01*
X108189890Y-119770213D01*
X108064951Y-119942179D01*
X107968444Y-120131585D01*
X107902753Y-120333760D01*
X107891174Y-120406867D01*
X107869500Y-120543713D01*
X107869500Y-120756287D01*
X107902754Y-120966243D01*
X107941099Y-121084257D01*
X107968444Y-121168414D01*
X108064951Y-121357820D01*
X108189890Y-121529786D01*
X108340213Y-121680109D01*
X108512182Y-121805050D01*
X108520946Y-121809516D01*
X108571742Y-121857491D01*
X108588536Y-121925312D01*
X108565998Y-121991447D01*
X108520946Y-122030484D01*
X108512182Y-122034949D01*
X108340213Y-122159890D01*
X108189890Y-122310213D01*
X108064951Y-122482179D01*
X107968444Y-122671585D01*
X107902753Y-122873760D01*
X107889796Y-122955571D01*
X107869500Y-123083713D01*
X107869500Y-123296287D01*
X107902754Y-123506243D01*
X107957779Y-123675593D01*
X107968444Y-123708414D01*
X108064951Y-123897820D01*
X108189890Y-124069786D01*
X108340213Y-124220109D01*
X108512179Y-124345048D01*
X108512181Y-124345049D01*
X108512184Y-124345051D01*
X108521493Y-124349794D01*
X108572290Y-124397766D01*
X108589087Y-124465587D01*
X108566552Y-124531722D01*
X108521505Y-124570760D01*
X108512446Y-124575376D01*
X108512440Y-124575380D01*
X108458282Y-124614727D01*
X108458282Y-124614728D01*
X109090591Y-125247037D01*
X109027007Y-125264075D01*
X108912993Y-125329901D01*
X108819901Y-125422993D01*
X108754075Y-125537007D01*
X108737037Y-125600591D01*
X108104728Y-124968282D01*
X108104727Y-124968282D01*
X108065380Y-125022439D01*
X107968904Y-125211782D01*
X107903242Y-125413869D01*
X107903242Y-125413872D01*
X107870000Y-125623753D01*
X107870000Y-125836246D01*
X107903242Y-126046127D01*
X107903242Y-126046130D01*
X107968904Y-126248217D01*
X108065375Y-126437550D01*
X108104728Y-126491716D01*
X108737037Y-125859408D01*
X108754075Y-125922993D01*
X108819901Y-126037007D01*
X108912993Y-126130099D01*
X109027007Y-126195925D01*
X109090590Y-126212962D01*
X108458282Y-126845269D01*
X108458282Y-126845270D01*
X108512449Y-126884624D01*
X108701782Y-126981095D01*
X108903870Y-127046757D01*
X109113754Y-127080000D01*
X109326246Y-127080000D01*
X109536127Y-127046757D01*
X109536130Y-127046757D01*
X109738217Y-126981095D01*
X109927554Y-126884622D01*
X109981716Y-126845270D01*
X109981717Y-126845270D01*
X109349408Y-126212962D01*
X109412993Y-126195925D01*
X109527007Y-126130099D01*
X109620099Y-126037007D01*
X109685925Y-125922993D01*
X109702962Y-125859409D01*
X110335270Y-126491717D01*
X110335270Y-126491716D01*
X110374622Y-126437554D01*
X110471095Y-126248217D01*
X110536757Y-126046130D01*
X110536757Y-126046127D01*
X110570000Y-125836246D01*
X110570000Y-125623753D01*
X110536757Y-125413872D01*
X110536757Y-125413869D01*
X110471095Y-125211782D01*
X110374624Y-125022449D01*
X110335270Y-124968282D01*
X110335269Y-124968282D01*
X109702962Y-125600590D01*
X109685925Y-125537007D01*
X109620099Y-125422993D01*
X109527007Y-125329901D01*
X109412993Y-125264075D01*
X109349409Y-125247037D01*
X109981716Y-124614728D01*
X109927547Y-124575373D01*
X109927547Y-124575372D01*
X109918500Y-124570763D01*
X109867706Y-124522788D01*
X109850912Y-124454966D01*
X109873451Y-124388832D01*
X109918508Y-124349793D01*
X109927816Y-124345051D01*
X110007007Y-124287515D01*
X110099786Y-124220109D01*
X110099788Y-124220106D01*
X110099792Y-124220104D01*
X110250104Y-124069792D01*
X110250106Y-124069788D01*
X110250109Y-124069786D01*
X110375048Y-123897820D01*
X110375047Y-123897820D01*
X110375051Y-123897816D01*
X110471557Y-123708412D01*
X110537246Y-123506243D01*
X110570500Y-123296287D01*
X110570500Y-123083713D01*
X110537246Y-122873757D01*
X110471557Y-122671588D01*
X110375051Y-122482184D01*
X110375049Y-122482181D01*
X110375048Y-122482179D01*
X110250109Y-122310213D01*
X110099786Y-122159890D01*
X109927820Y-122034951D01*
X109927115Y-122034591D01*
X109919054Y-122030485D01*
X109868259Y-121982512D01*
X109851463Y-121914692D01*
X109873999Y-121848556D01*
X109919054Y-121809515D01*
X109927816Y-121805051D01*
X109949789Y-121789086D01*
X110099786Y-121680109D01*
X110099788Y-121680106D01*
X110099792Y-121680104D01*
X110250104Y-121529792D01*
X110250106Y-121529788D01*
X110250109Y-121529786D01*
X110375048Y-121357820D01*
X110375047Y-121357820D01*
X110375051Y-121357816D01*
X110471557Y-121168412D01*
X110537246Y-120966243D01*
X110570500Y-120756287D01*
X110570500Y-120543713D01*
X110537246Y-120333757D01*
X110523506Y-120291473D01*
X110521512Y-120221635D01*
X110553753Y-120165480D01*
X110850520Y-119868716D01*
X110929577Y-119731784D01*
X110970501Y-119579057D01*
X110970501Y-119420942D01*
X110970501Y-119413347D01*
X110970500Y-119413329D01*
X110970500Y-103646443D01*
X110990185Y-103579404D01*
X111006819Y-103558762D01*
X124908762Y-89656819D01*
X124970085Y-89623334D01*
X124996443Y-89620500D01*
X129397873Y-89620500D01*
X129464912Y-89640185D01*
X129510667Y-89692989D01*
X129520611Y-89762147D01*
X129515805Y-89782813D01*
X129498379Y-89836446D01*
X129492753Y-89853760D01*
X129459500Y-90063713D01*
X129459500Y-90276286D01*
X129492754Y-90486244D01*
X129492754Y-90486247D01*
X129506491Y-90528523D01*
X129508486Y-90598364D01*
X129476241Y-90654522D01*
X118681286Y-101449478D01*
X118569481Y-101561282D01*
X118569479Y-101561285D01*
X118536481Y-101618441D01*
X118536480Y-101618443D01*
X118490423Y-101698214D01*
X118476781Y-101749124D01*
X118449499Y-101850943D01*
X118449499Y-101850945D01*
X118449499Y-102019046D01*
X118449500Y-102019059D01*
X118449500Y-127709902D01*
X118429815Y-127776941D01*
X118413181Y-127797583D01*
X109057934Y-137152829D01*
X108996611Y-137186314D01*
X108926919Y-137181330D01*
X108897367Y-137165466D01*
X108820228Y-137109421D01*
X108616803Y-137005770D01*
X108399660Y-136935215D01*
X108174162Y-136899500D01*
X108174157Y-136899500D01*
X107945843Y-136899500D01*
X107945838Y-136899500D01*
X107720339Y-136935215D01*
X107503196Y-137005770D01*
X107299771Y-137109421D01*
X107115061Y-137243622D01*
X106953622Y-137405061D01*
X106819421Y-137589771D01*
X106715770Y-137793196D01*
X106645215Y-138010339D01*
X106609500Y-138235837D01*
X85090000Y-138235837D01*
X85090000Y-92607682D01*
X96570000Y-92607682D01*
X96570000Y-92812317D01*
X96602009Y-93014417D01*
X96665244Y-93209031D01*
X96758141Y-93391350D01*
X96758147Y-93391359D01*
X96790523Y-93435921D01*
X96790524Y-93435922D01*
X97470000Y-92756446D01*
X97470000Y-92762661D01*
X97497259Y-92864394D01*
X97549920Y-92955606D01*
X97624394Y-93030080D01*
X97715606Y-93082741D01*
X97817339Y-93110000D01*
X97823553Y-93110000D01*
X97144076Y-93789474D01*
X97188650Y-93821859D01*
X97370968Y-93914755D01*
X97565582Y-93977990D01*
X97767683Y-94010000D01*
X97972317Y-94010000D01*
X98174417Y-93977990D01*
X98369031Y-93914755D01*
X98551349Y-93821859D01*
X98595921Y-93789474D01*
X97916447Y-93110000D01*
X97922661Y-93110000D01*
X98024394Y-93082741D01*
X98115606Y-93030080D01*
X98190080Y-92955606D01*
X98242741Y-92864394D01*
X98270000Y-92762661D01*
X98270000Y-92756448D01*
X98949474Y-93435922D01*
X98949474Y-93435921D01*
X98981859Y-93391349D01*
X99074755Y-93209031D01*
X99137990Y-93014417D01*
X99170000Y-92812317D01*
X99170000Y-92607682D01*
X99169995Y-92607648D01*
X101569500Y-92607648D01*
X101569500Y-92812352D01*
X101573878Y-92839995D01*
X101601522Y-93014534D01*
X101664781Y-93209223D01*
X101728691Y-93334653D01*
X101757585Y-93391359D01*
X101757715Y-93391613D01*
X101878028Y-93557213D01*
X102022786Y-93701971D01*
X102156470Y-93799096D01*
X102188390Y-93822287D01*
X102272319Y-93865051D01*
X102370776Y-93915218D01*
X102370778Y-93915218D01*
X102370781Y-93915220D01*
X102475137Y-93949127D01*
X102565465Y-93978477D01*
X102666557Y-93994488D01*
X102767648Y-94010500D01*
X102767649Y-94010500D01*
X102972351Y-94010500D01*
X102972352Y-94010500D01*
X103174534Y-93978477D01*
X103369219Y-93915220D01*
X103551610Y-93822287D01*
X103664726Y-93740104D01*
X103717213Y-93701971D01*
X103717215Y-93701968D01*
X103717219Y-93701966D01*
X103861966Y-93557219D01*
X103861968Y-93557215D01*
X103861971Y-93557213D01*
X103924087Y-93471716D01*
X103982287Y-93391610D01*
X104075220Y-93209219D01*
X104138477Y-93014534D01*
X104170500Y-92812352D01*
X104170500Y-92607648D01*
X104162257Y-92555606D01*
X104138477Y-92405465D01*
X104086038Y-92244075D01*
X104075220Y-92210781D01*
X104075218Y-92210778D01*
X104075218Y-92210776D01*
X104005964Y-92074859D01*
X103982287Y-92028390D01*
X103963440Y-92002449D01*
X103861971Y-91862786D01*
X103717213Y-91718028D01*
X103551613Y-91597715D01*
X103551612Y-91597714D01*
X103551610Y-91597713D01*
X103486424Y-91564499D01*
X103369223Y-91504781D01*
X103174534Y-91441522D01*
X102999995Y-91413878D01*
X102972352Y-91409500D01*
X102767648Y-91409500D01*
X102743329Y-91413351D01*
X102565465Y-91441522D01*
X102370776Y-91504781D01*
X102188386Y-91597715D01*
X102022786Y-91718028D01*
X101878028Y-91862786D01*
X101757715Y-92028386D01*
X101664781Y-92210776D01*
X101601522Y-92405465D01*
X101570123Y-92603713D01*
X101569500Y-92607648D01*
X99169995Y-92607648D01*
X99137990Y-92405582D01*
X99074755Y-92210968D01*
X98981859Y-92028650D01*
X98949474Y-91984077D01*
X98949474Y-91984076D01*
X98270000Y-92663551D01*
X98270000Y-92657339D01*
X98242741Y-92555606D01*
X98190080Y-92464394D01*
X98115606Y-92389920D01*
X98024394Y-92337259D01*
X97922661Y-92310000D01*
X97916446Y-92310000D01*
X98595922Y-91630524D01*
X98595921Y-91630523D01*
X98551359Y-91598147D01*
X98551350Y-91598141D01*
X98369031Y-91505244D01*
X98174417Y-91442009D01*
X97972317Y-91410000D01*
X97767683Y-91410000D01*
X97565582Y-91442009D01*
X97370968Y-91505244D01*
X97188644Y-91598143D01*
X97144077Y-91630523D01*
X97144077Y-91630524D01*
X97823554Y-92310000D01*
X97817339Y-92310000D01*
X97715606Y-92337259D01*
X97624394Y-92389920D01*
X97549920Y-92464394D01*
X97497259Y-92555606D01*
X97470000Y-92657339D01*
X97470000Y-92663553D01*
X96790524Y-91984077D01*
X96790523Y-91984077D01*
X96758143Y-92028644D01*
X96665244Y-92210968D01*
X96602009Y-92405582D01*
X96570000Y-92607682D01*
X85090000Y-92607682D01*
X85090000Y-82431947D01*
X94947677Y-82431947D01*
X94947677Y-82668052D01*
X94984611Y-82901247D01*
X95057574Y-83125802D01*
X95164764Y-83336174D01*
X95225015Y-83419104D01*
X95225017Y-83419105D01*
X95964714Y-82679408D01*
X95981752Y-82742993D01*
X96047578Y-82857007D01*
X96140670Y-82950099D01*
X96254684Y-83015925D01*
X96318267Y-83032962D01*
X95578570Y-83772658D01*
X95661505Y-83832914D01*
X95871874Y-83940102D01*
X96096429Y-84013065D01*
X96096428Y-84013065D01*
X96329625Y-84050000D01*
X96565729Y-84050000D01*
X96798924Y-84013065D01*
X97023479Y-83940102D01*
X97233840Y-83832918D01*
X97233846Y-83832914D01*
X97316781Y-83772658D01*
X97316782Y-83772658D01*
X96577085Y-83032962D01*
X96640670Y-83015925D01*
X96754684Y-82950099D01*
X96847776Y-82857007D01*
X96913602Y-82742993D01*
X96930639Y-82679409D01*
X97670335Y-83419105D01*
X97670335Y-83419104D01*
X97730591Y-83336169D01*
X97730595Y-83336163D01*
X97837779Y-83125802D01*
X97910742Y-82901247D01*
X97947677Y-82668052D01*
X97947677Y-82431947D01*
X97910742Y-82198752D01*
X97837779Y-81974197D01*
X97750616Y-81803129D01*
X97750615Y-81803127D01*
X97730593Y-81763830D01*
X97720532Y-81749983D01*
X102447177Y-81749983D01*
X102447177Y-83350001D01*
X102447178Y-83350018D01*
X102457677Y-83452796D01*
X102457678Y-83452799D01*
X102499863Y-83580104D01*
X102512863Y-83619334D01*
X102604965Y-83768656D01*
X102729021Y-83892712D01*
X102878343Y-83984814D01*
X103044880Y-84039999D01*
X103147668Y-84050500D01*
X104747685Y-84050499D01*
X104850474Y-84039999D01*
X105017011Y-83984814D01*
X105166333Y-83892712D01*
X105290389Y-83768656D01*
X105382491Y-83619334D01*
X105437676Y-83452797D01*
X105448177Y-83350009D01*
X105448176Y-82443753D01*
X134540000Y-82443753D01*
X134540000Y-82656246D01*
X134573242Y-82866127D01*
X134573242Y-82866130D01*
X134638904Y-83068217D01*
X134735375Y-83257550D01*
X134774728Y-83311716D01*
X135407037Y-82679408D01*
X135424075Y-82742993D01*
X135489901Y-82857007D01*
X135582993Y-82950099D01*
X135697007Y-83015925D01*
X135760590Y-83032962D01*
X135128282Y-83665269D01*
X135128282Y-83665270D01*
X135182449Y-83704624D01*
X135371782Y-83801095D01*
X135573870Y-83866757D01*
X135783754Y-83900000D01*
X135996246Y-83900000D01*
X136206127Y-83866757D01*
X136206130Y-83866757D01*
X136408217Y-83801095D01*
X136597554Y-83704622D01*
X136651716Y-83665270D01*
X136651717Y-83665270D01*
X136019408Y-83032962D01*
X136082993Y-83015925D01*
X136197007Y-82950099D01*
X136290099Y-82857007D01*
X136355925Y-82742993D01*
X136372962Y-82679408D01*
X137005270Y-83311717D01*
X137005270Y-83311716D01*
X137044622Y-83257554D01*
X137141095Y-83068217D01*
X137206757Y-82866130D01*
X137206757Y-82866127D01*
X137240000Y-82656246D01*
X137240000Y-82443753D01*
X137239994Y-82443713D01*
X138349500Y-82443713D01*
X138349500Y-82656287D01*
X138356104Y-82697984D01*
X138382735Y-82866127D01*
X138382754Y-82866243D01*
X138443827Y-83054206D01*
X138448444Y-83068414D01*
X138544951Y-83257820D01*
X138669890Y-83429786D01*
X138820213Y-83580109D01*
X138992179Y-83705048D01*
X138992181Y-83705049D01*
X138992184Y-83705051D01*
X139181588Y-83801557D01*
X139383757Y-83867246D01*
X139593713Y-83900500D01*
X139593714Y-83900500D01*
X139806286Y-83900500D01*
X139806287Y-83900500D01*
X140016243Y-83867246D01*
X140218412Y-83801557D01*
X140407816Y-83705051D01*
X140462572Y-83665269D01*
X140579786Y-83580109D01*
X140579788Y-83580106D01*
X140579792Y-83580104D01*
X140730104Y-83429792D01*
X140730106Y-83429788D01*
X140730109Y-83429786D01*
X140855048Y-83257820D01*
X140855047Y-83257820D01*
X140855051Y-83257816D01*
X140951557Y-83068412D01*
X141017246Y-82866243D01*
X141050500Y-82656287D01*
X141050500Y-82443713D01*
X141017246Y-82233757D01*
X140951557Y-82031588D01*
X140855051Y-81842184D01*
X140855049Y-81842181D01*
X140855048Y-81842179D01*
X140730109Y-81670213D01*
X140579786Y-81519890D01*
X140407820Y-81394951D01*
X140218414Y-81298444D01*
X140218413Y-81298443D01*
X140218412Y-81298443D01*
X140016243Y-81232754D01*
X140016241Y-81232753D01*
X140016240Y-81232753D01*
X139853596Y-81206993D01*
X139806287Y-81199500D01*
X139593713Y-81199500D01*
X139546404Y-81206993D01*
X139383760Y-81232753D01*
X139181585Y-81298444D01*
X138992179Y-81394951D01*
X138820213Y-81519890D01*
X138669890Y-81670213D01*
X138544951Y-81842179D01*
X138448444Y-82031585D01*
X138382753Y-82233760D01*
X138362125Y-82364000D01*
X138349500Y-82443713D01*
X137239994Y-82443713D01*
X137206757Y-82233872D01*
X137206757Y-82233869D01*
X137141095Y-82031782D01*
X137044624Y-81842449D01*
X137005270Y-81788282D01*
X137005269Y-81788282D01*
X136372962Y-82420590D01*
X136355925Y-82357007D01*
X136290099Y-82242993D01*
X136197007Y-82149901D01*
X136082993Y-82084075D01*
X136019409Y-82067037D01*
X136651716Y-81434728D01*
X136597550Y-81395375D01*
X136408217Y-81298904D01*
X136206129Y-81233242D01*
X135996246Y-81200000D01*
X135783754Y-81200000D01*
X135573872Y-81233242D01*
X135573869Y-81233242D01*
X135371782Y-81298904D01*
X135182439Y-81395380D01*
X135128282Y-81434727D01*
X135128282Y-81434728D01*
X135760591Y-82067037D01*
X135697007Y-82084075D01*
X135582993Y-82149901D01*
X135489901Y-82242993D01*
X135424075Y-82357007D01*
X135407037Y-82420591D01*
X134774728Y-81788282D01*
X134774727Y-81788282D01*
X134735380Y-81842439D01*
X134638904Y-82031782D01*
X134573242Y-82233869D01*
X134573242Y-82233872D01*
X134540000Y-82443753D01*
X105448176Y-82443753D01*
X105448176Y-81749992D01*
X105441117Y-81680893D01*
X105437676Y-81647203D01*
X105437099Y-81645463D01*
X105382491Y-81480666D01*
X105290389Y-81331344D01*
X105166333Y-81207288D01*
X105017011Y-81115186D01*
X104850474Y-81060001D01*
X104850472Y-81060000D01*
X104747687Y-81049500D01*
X103147675Y-81049500D01*
X103147658Y-81049501D01*
X103044880Y-81060000D01*
X103044877Y-81060001D01*
X102878345Y-81115185D01*
X102878340Y-81115187D01*
X102729019Y-81207289D01*
X102604966Y-81331342D01*
X102512864Y-81480663D01*
X102512863Y-81480666D01*
X102457678Y-81647203D01*
X102457678Y-81647204D01*
X102457677Y-81647204D01*
X102447177Y-81749983D01*
X97720532Y-81749983D01*
X97670335Y-81680894D01*
X97670335Y-81680893D01*
X96930639Y-82420590D01*
X96913602Y-82357007D01*
X96847776Y-82242993D01*
X96754684Y-82149901D01*
X96640670Y-82084075D01*
X96577086Y-82067037D01*
X97316782Y-81327340D01*
X97316781Y-81327338D01*
X97233851Y-81267087D01*
X97023479Y-81159897D01*
X96798924Y-81086934D01*
X96798925Y-81086934D01*
X96565729Y-81050000D01*
X96329625Y-81050000D01*
X96096429Y-81086934D01*
X95871874Y-81159897D01*
X95661507Y-81267084D01*
X95578571Y-81327340D01*
X96318268Y-82067037D01*
X96254684Y-82084075D01*
X96140670Y-82149901D01*
X96047578Y-82242993D01*
X95981752Y-82357007D01*
X95964714Y-82420591D01*
X95225017Y-81680894D01*
X95164761Y-81763830D01*
X95057574Y-81974197D01*
X94984611Y-82198752D01*
X94947677Y-82431947D01*
X85090000Y-82431947D01*
X85090000Y-79895258D01*
X87149500Y-79895258D01*
X87149500Y-80124741D01*
X87173388Y-80306179D01*
X87179452Y-80352238D01*
X87204728Y-80446569D01*
X87238842Y-80573887D01*
X87326650Y-80785876D01*
X87326657Y-80785890D01*
X87441392Y-80984617D01*
X87581081Y-81166661D01*
X87581089Y-81166670D01*
X87743330Y-81328911D01*
X87743338Y-81328918D01*
X87743339Y-81328919D01*
X87793962Y-81367764D01*
X87925382Y-81468607D01*
X87925385Y-81468608D01*
X87925388Y-81468611D01*
X88124112Y-81583344D01*
X88124117Y-81583346D01*
X88124123Y-81583349D01*
X88215480Y-81621190D01*
X88336113Y-81671158D01*
X88557762Y-81730548D01*
X88785266Y-81760500D01*
X88785273Y-81760500D01*
X89014727Y-81760500D01*
X89014734Y-81760500D01*
X89242238Y-81730548D01*
X89463887Y-81671158D01*
X89675888Y-81583344D01*
X89874612Y-81468611D01*
X90056661Y-81328919D01*
X90056665Y-81328914D01*
X90056670Y-81328911D01*
X90218911Y-81166670D01*
X90218914Y-81166665D01*
X90218919Y-81166661D01*
X90358611Y-80984612D01*
X90473344Y-80785888D01*
X90561158Y-80573887D01*
X90620548Y-80352238D01*
X90650500Y-80124734D01*
X90650500Y-79895266D01*
X90620548Y-79667762D01*
X90561158Y-79446113D01*
X90506219Y-79313479D01*
X90473349Y-79234123D01*
X90473346Y-79234117D01*
X90473344Y-79234112D01*
X90358611Y-79035388D01*
X90358608Y-79035385D01*
X90358607Y-79035382D01*
X90218918Y-78853338D01*
X90218911Y-78853330D01*
X90056670Y-78691089D01*
X90056661Y-78691081D01*
X89874617Y-78551392D01*
X89677921Y-78437830D01*
X89677919Y-78437828D01*
X89677918Y-78437828D01*
X89675888Y-78436656D01*
X89675889Y-78436656D01*
X89675885Y-78436654D01*
X89675876Y-78436650D01*
X89463887Y-78348842D01*
X89417937Y-78336530D01*
X132244500Y-78336530D01*
X132244500Y-79143469D01*
X132284868Y-79346412D01*
X132284870Y-79346420D01*
X132364058Y-79537596D01*
X132479024Y-79709657D01*
X132625342Y-79855975D01*
X132625345Y-79855977D01*
X132797402Y-79970941D01*
X132988580Y-80050130D01*
X133191530Y-80090499D01*
X133191534Y-80090500D01*
X133191535Y-80090500D01*
X133398466Y-80090500D01*
X133398467Y-80090499D01*
X133601420Y-80050130D01*
X133792598Y-79970941D01*
X133964655Y-79855977D01*
X134110977Y-79709655D01*
X134225941Y-79537598D01*
X134305130Y-79346420D01*
X134345500Y-79143465D01*
X134345500Y-78336535D01*
X134345499Y-78336530D01*
X141189500Y-78336530D01*
X141189500Y-79143469D01*
X141229868Y-79346412D01*
X141229870Y-79346420D01*
X141309058Y-79537596D01*
X141424024Y-79709657D01*
X141570342Y-79855975D01*
X141570345Y-79855977D01*
X141742402Y-79970941D01*
X141933580Y-80050130D01*
X142136530Y-80090499D01*
X142136534Y-80090500D01*
X142136535Y-80090500D01*
X142343466Y-80090500D01*
X142343467Y-80090499D01*
X142546420Y-80050130D01*
X142737598Y-79970941D01*
X142909655Y-79855977D01*
X143055977Y-79709655D01*
X143170941Y-79537598D01*
X143250130Y-79346420D01*
X143290500Y-79143465D01*
X143290500Y-78336535D01*
X143250130Y-78133580D01*
X143170941Y-77942402D01*
X143055977Y-77770345D01*
X143055975Y-77770342D01*
X142909657Y-77624024D01*
X142823626Y-77566541D01*
X142737598Y-77509059D01*
X142703666Y-77495004D01*
X142546420Y-77429870D01*
X142546412Y-77429868D01*
X142343469Y-77389500D01*
X142343465Y-77389500D01*
X142136535Y-77389500D01*
X142136530Y-77389500D01*
X141933587Y-77429868D01*
X141933579Y-77429870D01*
X141742403Y-77509058D01*
X141570342Y-77624024D01*
X141424024Y-77770342D01*
X141309058Y-77942403D01*
X141229870Y-78133579D01*
X141229868Y-78133587D01*
X141189500Y-78336530D01*
X134345499Y-78336530D01*
X134305130Y-78133580D01*
X134225941Y-77942402D01*
X134110977Y-77770345D01*
X134110975Y-77770342D01*
X133964657Y-77624024D01*
X133878626Y-77566541D01*
X133792598Y-77509059D01*
X133758666Y-77495004D01*
X133601420Y-77429870D01*
X133601412Y-77429868D01*
X133398469Y-77389500D01*
X133398465Y-77389500D01*
X133191535Y-77389500D01*
X133191530Y-77389500D01*
X132988587Y-77429868D01*
X132988579Y-77429870D01*
X132797403Y-77509058D01*
X132625342Y-77624024D01*
X132479024Y-77770342D01*
X132364058Y-77942403D01*
X132284870Y-78133579D01*
X132284868Y-78133587D01*
X132244500Y-78336530D01*
X89417937Y-78336530D01*
X89242238Y-78289452D01*
X89204215Y-78284446D01*
X89014741Y-78259500D01*
X89014734Y-78259500D01*
X88785266Y-78259500D01*
X88785258Y-78259500D01*
X88568715Y-78288009D01*
X88557762Y-78289452D01*
X88464076Y-78314554D01*
X88336112Y-78348842D01*
X88124123Y-78436650D01*
X88124109Y-78436657D01*
X87925382Y-78551392D01*
X87743338Y-78691081D01*
X87581081Y-78853338D01*
X87441392Y-79035382D01*
X87326657Y-79234109D01*
X87326650Y-79234123D01*
X87238842Y-79446112D01*
X87204630Y-79573794D01*
X87188536Y-79633862D01*
X87179453Y-79667759D01*
X87179451Y-79667770D01*
X87149500Y-79895258D01*
X85090000Y-79895258D01*
X85090000Y-77521362D01*
X85109685Y-77454323D01*
X85126319Y-77433681D01*
X86323681Y-76236319D01*
X86385004Y-76202834D01*
X86411362Y-76200000D01*
X209498638Y-76200000D01*
X209565677Y-76219685D01*
G37*
%TD.AperFunction*%
%TD*%
M02*
