%TF.GenerationSoftware,KiCad,Pcbnew,10.0.3*%
%TF.CreationDate,2026-07-15T13:53:13+09:00*%
%TF.ProjectId,fixed_switchBox,66697865-645f-4737-9769-746368426f78,rev?*%
%TF.SameCoordinates,Original*%
%TF.FileFunction,Copper,L1,Top*%
%TF.FilePolarity,Positive*%
%FSLAX46Y46*%
G04 Gerber Fmt 4.6, Leading zero omitted, Abs format (unit mm)*
G04 Created by KiCad (PCBNEW 10.0.3) date 2026-07-15 13:53:13*
%MOMM*%
%LPD*%
G01*
G04 APERTURE LIST*
G04 Aperture macros list*
%AMRoundRect*
0 Rectangle with rounded corners*
0 $1 Rounding radius*
0 $2 $3 $4 $5 $6 $7 $8 $9 X,Y pos of 4 corners*
0 Add a 4 corners polygon primitive as box body*
4,1,4,$2,$3,$4,$5,$6,$7,$8,$9,$2,$3,0*
0 Add four circle primitives for the rounded corners*
1,1,$1+$1,$2,$3*
1,1,$1+$1,$4,$5*
1,1,$1+$1,$6,$7*
1,1,$1+$1,$8,$9*
0 Add four rect primitives between the rounded corners*
20,1,$1+$1,$2,$3,$4,$5,0*
20,1,$1+$1,$4,$5,$6,$7,0*
20,1,$1+$1,$6,$7,$8,$9,0*
20,1,$1+$1,$8,$9,$2,$3,0*%
G04 Aperture macros list end*
%TA.AperFunction,ComponentPad*%
%ADD10RoundRect,0.250000X0.750000X0.750000X-0.750000X0.750000X-0.750000X-0.750000X0.750000X-0.750000X0*%
%TD*%
%TA.AperFunction,ComponentPad*%
%ADD11C,2.000000*%
%TD*%
%TA.AperFunction,WasherPad*%
%ADD12C,3.000000*%
%TD*%
%TA.AperFunction,ComponentPad*%
%ADD13C,1.700000*%
%TD*%
%TA.AperFunction,ComponentPad*%
%ADD14R,1.700000X1.700000*%
%TD*%
%TA.AperFunction,ComponentPad*%
%ADD15C,1.650000*%
%TD*%
%TA.AperFunction,ComponentPad*%
%ADD16C,4.500000*%
%TD*%
%TA.AperFunction,WasherPad*%
%ADD17C,2.540000*%
%TD*%
%TA.AperFunction,ComponentPad*%
%ADD18R,1.500000X1.500000*%
%TD*%
%TA.AperFunction,ComponentPad*%
%ADD19C,1.500000*%
%TD*%
%TA.AperFunction,ComponentPad*%
%ADD20C,1.600000*%
%TD*%
%TA.AperFunction,ComponentPad*%
%ADD21O,1.900000X3.200000*%
%TD*%
%TA.AperFunction,ComponentPad*%
%ADD22C,1.400000*%
%TD*%
%TA.AperFunction,ComponentPad*%
%ADD23O,1.100000X1.700000*%
%TD*%
%TA.AperFunction,Conductor*%
%ADD24C,0.200000*%
%TD*%
%TA.AperFunction,Conductor*%
%ADD25C,1.000000*%
%TD*%
G04 APERTURE END LIST*
D10*
%TO.P,C2,1*%
%TO.N,Net-(U1-VDD)*%
X103947677Y-82550000D03*
D11*
%TO.P,C2,2*%
%TO.N,GND*%
X96447677Y-82550000D03*
%TD*%
D12*
%TO.P,,*%
%TO.N,*%
X194310000Y-125441818D03*
X194310000Y-110490000D03*
X154940000Y-125473636D03*
X154940000Y-110490000D03*
D13*
%TO.P,,5VO*%
%TO.N,Net-(U1-VDD)*%
X157480000Y-114171818D03*
X153670000Y-114171818D03*
%TO.P,,A+*%
%TO.N,Net-(J1-Pin_1)*%
X203200000Y-112901818D03*
X194310000Y-115441818D03*
%TO.P,,B-*%
%TO.N,Net-(J1-Pin_2)*%
X203200000Y-117981818D03*
X194310000Y-117981818D03*
%TO.P,,GND*%
%TO.N,GND*%
X203200000Y-123061818D03*
X194310000Y-120521818D03*
X157480000Y-121791818D03*
X153670000Y-121791818D03*
%TO.P,,RXD*%
%TO.N,Net-(J6-Pin_TXO)*%
X157480000Y-119251818D03*
X153670000Y-119251818D03*
%TO.P,,TXD*%
%TO.N,Net-(J6-Pin_RXI)*%
X157480000Y-116711818D03*
X153670000Y-116711818D03*
%TD*%
%TO.P,J7,3V3*%
%TO.N,Net-(J7_Pin_3V3)*%
X130810000Y-125730000D03*
D14*
%TO.P,J7,5V*%
%TO.N,Net-(U1-VDD)*%
X130810000Y-87630000D03*
D13*
%TO.P,J7,12*%
%TO.N,/Net-(J7-Pin_12)*%
X130810000Y-95250000D03*
%TO.P,J7,13*%
%TO.N,/Net-(J7-Pin_13)*%
X130810000Y-90170000D03*
%TO.P,J7,14*%
%TO.N,/Net-(J7-Pin_14)*%
X130810000Y-97790000D03*
%TO.P,J7,25*%
%TO.N,/Net-(J7_Pin_25)*%
X130810000Y-105410000D03*
%TO.P,J7,26*%
%TO.N,/Net-(J7-Pin_26)*%
X130810000Y-102870000D03*
%TO.P,J7,27*%
%TO.N,/Net-(J7-Pin_27)*%
X130810000Y-100330000D03*
%TO.P,J7,32*%
%TO.N,/Net-(J7-Pin_32)*%
X130810000Y-110490000D03*
%TO.P,J7,33*%
%TO.N,/Net-(J7-Pin_33)*%
X130810000Y-107950000D03*
%TO.P,J7,34*%
%TO.N,N/C*%
X130810000Y-115570000D03*
%TO.P,J7,35*%
X130810000Y-113030000D03*
%TO.P,J7,EN*%
X130810000Y-123190000D03*
%TO.P,J7,GND*%
%TO.N,GND*%
X130810000Y-92710000D03*
%TO.P,J7,SVN*%
%TO.N,N/C*%
X130810000Y-118110000D03*
%TO.P,J7,SVP*%
X130810000Y-120650000D03*
%TD*%
D15*
%TO.P,RotaryEncoder,A1*%
%TO.N,/Net-(J7-Pin_33)*%
X184920000Y-140970000D03*
%TO.P,RotaryEncoder,B1*%
%TO.N,/Net-(J7-Pin_32)*%
X196020000Y-140970000D03*
%TO.P,RotaryEncoder,C1*%
%TO.N,GND*%
X184920000Y-149270000D03*
%TO.P,RotaryEncoder,D1*%
%TO.N,/Net-(J7_Pin_25)*%
X196020000Y-149270000D03*
%TO.P,RotaryEncoder,E1*%
%TO.N,GND*%
X190470000Y-138270000D03*
D16*
%TO.P,RotaryEncoder,MH1*%
X184845000Y-145120000D03*
%TO.P,RotaryEncoder,MH2*%
X196095000Y-145120000D03*
%TD*%
D17*
%TO.P,U4,*%
%TO.N,*%
X152600000Y-81364000D03*
X152600000Y-104564000D03*
X173300000Y-81314000D03*
X173301249Y-104564000D03*
D14*
%TO.P,U4,GND*%
%TO.N,GND*%
X159140000Y-81014000D03*
D13*
%TO.P,U4,SCL*%
%TO.N,Net-(J6-Pin_22)*%
X164220000Y-81014000D03*
%TO.P,U4,SDA*%
%TO.N,Net-(J6-Pin_21)*%
X166760000Y-81014000D03*
%TO.P,U4,VCC*%
%TO.N,Net-(U1-VDD)*%
X161680000Y-81014000D03*
%TD*%
D18*
%TO.P,J1,1*%
%TO.N,Net-(J1-Pin_1)*%
X194782500Y-90190000D03*
D19*
%TO.P,J1,2*%
%TO.N,Net-(J1-Pin_2)*%
X193512500Y-92730000D03*
%TO.P,J1,3*%
%TO.N,unconnected-(J1-Pad3)*%
X192242500Y-90190000D03*
%TO.P,J1,4*%
%TO.N,unconnected-(J1-Pad4)*%
X190972500Y-92730000D03*
%TO.P,J1,5*%
%TO.N,unconnected-(J1-Pad5)*%
X189702500Y-90190000D03*
%TO.P,J1,6*%
%TO.N,unconnected-(J1-Pad6)*%
X188432500Y-92730000D03*
%TO.P,J1,7*%
%TO.N,GND*%
X187162500Y-90190000D03*
%TO.P,J1,8*%
X185892500Y-92730000D03*
%TD*%
D20*
%TO.P,C1,1*%
%TO.N,Net-(U1-VDD)*%
X102870000Y-92710000D03*
%TO.P,C1,2*%
%TO.N,GND*%
X97870000Y-92710000D03*
%TD*%
D21*
%TO.P,SW6,1,1_1*%
%TO.N,N/C*%
X170260000Y-151500000D03*
%TO.N,/Net-(J7-Pin_26)*%
X170260000Y-139000000D03*
%TO.P,SW6,2,2_2*%
%TO.N,GND*%
X175260000Y-151500000D03*
X175260000Y-139000000D03*
%TD*%
%TO.P,SW2,1,1_1*%
%TO.N,N/C*%
X108060000Y-151500000D03*
%TO.N,/Net-(J7-Pin_13)*%
X108060000Y-139000000D03*
%TO.P,SW2,2,2_2*%
%TO.N,GND*%
X113060000Y-151500000D03*
X113060000Y-139000000D03*
%TD*%
%TO.P,SW5,1,1_1*%
%TO.N,N/C*%
X154710000Y-151500000D03*
%TO.N,/Net-(J7-Pin_27)*%
X154710000Y-139000000D03*
%TO.P,SW5,2,2_2*%
%TO.N,GND*%
X159710000Y-151500000D03*
X159710000Y-139000000D03*
%TD*%
D22*
%TO.P,R1,1*%
%TO.N,Net-(J1-Pin_1)*%
X195580000Y-100330000D03*
%TO.P,R1,2*%
%TO.N,Net-(J1-Pin_2)*%
X193040000Y-100330000D03*
%TD*%
D13*
%TO.P,U1,5*%
%TO.N,GND*%
X135890000Y-82550000D03*
%TO.P,U1,6*%
%TO.N,Net-(U1-VDD)*%
X139700000Y-82550000D03*
D23*
%TO.P,U1,SH,SHIELD_SH*%
%TO.N,N/C*%
X142240000Y-78740000D03*
X133295000Y-78740000D03*
%TD*%
D13*
%TO.P,J6,0,Pin_3_3*%
%TO.N,Net-(J6-Pin_0)*%
X109220000Y-92710000D03*
%TO.P,J6,2,Pin_2_2*%
%TO.N,Net-(J6-Pin_2)*%
X109220000Y-90170000D03*
%TO.P,J6,4,Pin_4_4*%
%TO.N,Net-(J6-Pin_4)*%
X109220000Y-95250000D03*
%TO.P,J6,5,Pin_5_5*%
%TO.N,unconnected-(J6-Pin_5-Pad5)*%
X109220000Y-102870000D03*
D14*
%TO.P,J6,15,Pin_15_15*%
%TO.N,Net-(J6-Pin_15)*%
X109220000Y-87630000D03*
D13*
%TO.P,J6,16,Pin_16_16*%
%TO.N,/Net-(J6-Pin_16)*%
X109220000Y-97790000D03*
%TO.P,J6,17,Pin_6_6*%
%TO.N,Net-(J6-Pin_17)*%
X109220000Y-100330000D03*
%TO.P,J6,18,Pin_8_8*%
%TO.N,Net-(J6-Pin_18)*%
X109220000Y-105410000D03*
%TO.P,J6,19,Pin_9_9*%
%TO.N,Net-(J6-Pin_19)*%
X109220000Y-107950000D03*
%TO.P,J6,21,Pin_11_11*%
%TO.N,Net-(J6-Pin_21)*%
X109220000Y-113030000D03*
%TO.P,J6,22,Pin_14_14*%
%TO.N,Net-(J6-Pin_22)*%
X109220000Y-120650000D03*
%TO.P,J6,23,Pin_7_7*%
%TO.N,Net-(J6-Pin_23)*%
X109220000Y-123190000D03*
%TO.P,J6,GND,Pin_10_10*%
%TO.N,GND*%
X109220000Y-110490000D03*
%TO.P,J6,GND,Pin_1_1*%
X109220000Y-125730000D03*
%TO.P,J6,RXI,Pin_12_12*%
%TO.N,Net-(J6-Pin_RXI)*%
X109220000Y-115570000D03*
%TO.P,J6,TXO,Pin_13_13*%
%TO.N,Net-(J6-Pin_TXO)*%
X109220000Y-118110000D03*
%TD*%
D21*
%TO.P,SW4,1,1_1*%
%TO.N,N/C*%
X139160000Y-151500000D03*
%TO.N,/Net-(J7-Pin_14)*%
X139160000Y-139000000D03*
%TO.P,SW4,2,2_2*%
%TO.N,GND*%
X144160000Y-151500000D03*
X144160000Y-139000000D03*
%TD*%
%TO.P,SW3,1,1_1*%
%TO.N,N/C*%
X123610000Y-151500000D03*
%TO.N,/Net-(J7-Pin_12)*%
X123610000Y-139000000D03*
%TO.P,SW3,2,2_2*%
%TO.N,GND*%
X128610000Y-151500000D03*
X128610000Y-139000000D03*
%TD*%
%TO.N,Net-(J6-Pin_TXO)*%
D24*
X153670000Y-119251818D02*
X157480000Y-119251818D01*
X153661818Y-119260000D02*
X153670000Y-119251818D01*
X110370000Y-119260000D02*
X153661818Y-119260000D01*
X109220000Y-118110000D02*
X110370000Y-119260000D01*
%TO.N,Net-(J6-Pin_RXI)*%
X153670000Y-116711818D02*
X157480000Y-116711818D01*
X153541818Y-116840000D02*
X153670000Y-116711818D01*
X110490000Y-116840000D02*
X153541818Y-116840000D01*
X109220000Y-115570000D02*
X110490000Y-116840000D01*
%TO.N,Net-(U1-VDD)*%
D25*
X153670000Y-114171818D02*
X157480000Y-114171818D01*
X149731818Y-114171818D02*
X153670000Y-114171818D01*
X149010000Y-113450000D02*
X149731818Y-114171818D01*
X139700000Y-91440000D02*
X149010000Y-100750000D01*
X139700000Y-82550000D02*
X134620000Y-87630000D01*
D24*
X102677677Y-92517677D02*
X102870000Y-92710000D01*
D25*
X140550000Y-83400000D02*
X159854000Y-83400000D01*
X159854000Y-83400000D02*
X161680000Y-81574000D01*
X161680000Y-81574000D02*
X161680000Y-81014000D01*
X149010000Y-100750000D02*
X149010000Y-113450000D01*
X102677677Y-82550000D02*
X102677677Y-92517677D01*
X134620000Y-87630000D02*
X130810000Y-87630000D01*
X139700000Y-82550000D02*
X139700000Y-91440000D01*
X139700000Y-82550000D02*
X140550000Y-83400000D01*
X125730000Y-82550000D02*
X102677677Y-82550000D01*
X130810000Y-87630000D02*
X125730000Y-82550000D01*
%TD*%
%TA.AperFunction,Conductor*%
%TO.N,GND*%
G36*
X138618834Y-85148599D02*
G01*
X138674767Y-85190471D01*
X138699184Y-85255935D01*
X138699500Y-85264781D01*
X138699500Y-91538544D01*
X138737947Y-91731828D01*
X138737950Y-91731840D01*
X138756313Y-91776171D01*
X138756314Y-91776173D01*
X138813364Y-91913906D01*
X138813366Y-91913911D01*
X138813368Y-91913914D01*
X138922861Y-92077782D01*
X139062218Y-92217139D01*
X139062220Y-92217140D01*
X139069286Y-92224206D01*
X139069285Y-92224206D01*
X139069289Y-92224209D01*
X147973181Y-101128101D01*
X148006666Y-101189424D01*
X148009500Y-101215782D01*
X148009500Y-113548544D01*
X148047147Y-113737809D01*
X148047946Y-113741827D01*
X148047950Y-113741840D01*
X148123364Y-113923907D01*
X148123371Y-113923920D01*
X148232860Y-114087781D01*
X148232863Y-114087785D01*
X148376537Y-114231459D01*
X148376559Y-114231479D01*
X148951553Y-114806473D01*
X148951582Y-114806504D01*
X149094032Y-114948954D01*
X149094036Y-114948957D01*
X149257897Y-115058446D01*
X149257910Y-115058453D01*
X149386651Y-115111779D01*
X149419966Y-115125578D01*
X149439982Y-115133869D01*
X149536630Y-115153093D01*
X149584953Y-115162705D01*
X149633276Y-115172318D01*
X149633277Y-115172318D01*
X149633278Y-115172318D01*
X149830358Y-115172318D01*
X152709800Y-115172318D01*
X152776839Y-115192003D01*
X152789365Y-115201311D01*
X152962182Y-115326868D01*
X152970946Y-115331334D01*
X153021742Y-115379309D01*
X153038536Y-115447130D01*
X153015998Y-115513265D01*
X152970946Y-115552302D01*
X152962182Y-115556767D01*
X152790213Y-115681708D01*
X152639890Y-115832031D01*
X152514951Y-116003998D01*
X152429454Y-116171795D01*
X152381479Y-116222591D01*
X152318969Y-116239500D01*
X132183137Y-116239500D01*
X132116098Y-116219815D01*
X132070343Y-116167011D01*
X132060399Y-116097853D01*
X132065206Y-116077182D01*
X132088983Y-116004003D01*
X132127246Y-115886243D01*
X132160500Y-115676287D01*
X132160500Y-115463713D01*
X132127246Y-115253757D01*
X132061557Y-115051588D01*
X131965051Y-114862184D01*
X131965049Y-114862181D01*
X131965048Y-114862179D01*
X131840109Y-114690213D01*
X131689786Y-114539890D01*
X131517820Y-114414951D01*
X131517115Y-114414591D01*
X131509054Y-114410485D01*
X131458259Y-114362512D01*
X131441463Y-114294692D01*
X131463999Y-114228556D01*
X131509054Y-114189515D01*
X131517816Y-114185051D01*
X131601059Y-114124572D01*
X131689786Y-114060109D01*
X131689788Y-114060106D01*
X131689792Y-114060104D01*
X131840104Y-113909792D01*
X131840106Y-113909788D01*
X131840109Y-113909786D01*
X131965048Y-113737820D01*
X131965047Y-113737820D01*
X131965051Y-113737816D01*
X132061557Y-113548412D01*
X132127246Y-113346243D01*
X132160500Y-113136287D01*
X132160500Y-112923713D01*
X132127246Y-112713757D01*
X132061557Y-112511588D01*
X131965051Y-112322184D01*
X131965049Y-112322181D01*
X131965048Y-112322179D01*
X131840109Y-112150213D01*
X131689786Y-111999890D01*
X131517820Y-111874951D01*
X131517115Y-111874591D01*
X131509054Y-111870485D01*
X131458259Y-111822512D01*
X131441463Y-111754692D01*
X131463999Y-111688556D01*
X131509054Y-111649515D01*
X131517816Y-111645051D01*
X131572572Y-111605269D01*
X131689786Y-111520109D01*
X131689788Y-111520106D01*
X131689792Y-111520104D01*
X131840104Y-111369792D01*
X131840106Y-111369788D01*
X131840109Y-111369786D01*
X131965048Y-111197820D01*
X131965047Y-111197820D01*
X131965051Y-111197816D01*
X132061557Y-111008412D01*
X132127246Y-110806243D01*
X132160500Y-110596287D01*
X132160500Y-110383713D01*
X132127246Y-110173757D01*
X132061557Y-109971588D01*
X131965051Y-109782184D01*
X131965049Y-109782181D01*
X131965048Y-109782179D01*
X131840109Y-109610213D01*
X131689786Y-109459890D01*
X131517820Y-109334951D01*
X131509600Y-109330763D01*
X131509054Y-109330485D01*
X131458259Y-109282512D01*
X131441463Y-109214692D01*
X131463999Y-109148556D01*
X131509054Y-109109515D01*
X131517816Y-109105051D01*
X131539789Y-109089086D01*
X131689786Y-108980109D01*
X131689788Y-108980106D01*
X131689792Y-108980104D01*
X131840104Y-108829792D01*
X131840106Y-108829788D01*
X131840109Y-108829786D01*
X131965048Y-108657820D01*
X131965047Y-108657820D01*
X131965051Y-108657816D01*
X132061557Y-108468412D01*
X132127246Y-108266243D01*
X132160500Y-108056287D01*
X132160500Y-107843713D01*
X132127246Y-107633757D01*
X132061557Y-107431588D01*
X131965051Y-107242184D01*
X131965049Y-107242181D01*
X131965048Y-107242179D01*
X131840109Y-107070213D01*
X131689786Y-106919890D01*
X131517820Y-106794951D01*
X131517115Y-106794591D01*
X131509054Y-106790485D01*
X131458259Y-106742512D01*
X131441463Y-106674692D01*
X131463999Y-106608556D01*
X131509054Y-106569515D01*
X131517816Y-106565051D01*
X131539789Y-106549086D01*
X131689786Y-106440109D01*
X131689788Y-106440106D01*
X131689792Y-106440104D01*
X131840104Y-106289792D01*
X131840106Y-106289788D01*
X131840109Y-106289786D01*
X131965048Y-106117820D01*
X131965047Y-106117820D01*
X131965051Y-106117816D01*
X132061557Y-105928412D01*
X132127246Y-105726243D01*
X132160500Y-105516287D01*
X132160500Y-105303713D01*
X132127246Y-105093757D01*
X132061557Y-104891588D01*
X131965051Y-104702184D01*
X131965049Y-104702181D01*
X131965048Y-104702179D01*
X131840109Y-104530213D01*
X131689786Y-104379890D01*
X131517820Y-104254951D01*
X131517115Y-104254591D01*
X131509054Y-104250485D01*
X131458259Y-104202512D01*
X131441463Y-104134692D01*
X131463999Y-104068556D01*
X131509054Y-104029515D01*
X131517816Y-104025051D01*
X131561009Y-103993670D01*
X131689786Y-103900109D01*
X131689788Y-103900106D01*
X131689792Y-103900104D01*
X131840104Y-103749792D01*
X131840106Y-103749788D01*
X131840109Y-103749786D01*
X131965048Y-103577820D01*
X131965047Y-103577820D01*
X131965051Y-103577816D01*
X132061557Y-103388412D01*
X132127246Y-103186243D01*
X132160500Y-102976287D01*
X132160500Y-102763713D01*
X132127246Y-102553757D01*
X132061557Y-102351588D01*
X131965051Y-102162184D01*
X131965049Y-102162181D01*
X131965048Y-102162179D01*
X131840109Y-101990213D01*
X131689786Y-101839890D01*
X131517820Y-101714951D01*
X131517115Y-101714591D01*
X131509054Y-101710485D01*
X131458259Y-101662512D01*
X131441463Y-101594692D01*
X131463999Y-101528556D01*
X131509054Y-101489515D01*
X131517816Y-101485051D01*
X131576321Y-101442545D01*
X131689786Y-101360109D01*
X131689788Y-101360106D01*
X131689792Y-101360104D01*
X131840104Y-101209792D01*
X131840106Y-101209788D01*
X131840109Y-101209786D01*
X131965048Y-101037820D01*
X131965047Y-101037820D01*
X131965051Y-101037816D01*
X132061557Y-100848412D01*
X132127246Y-100646243D01*
X132160500Y-100436287D01*
X132160500Y-100223713D01*
X132127246Y-100013757D01*
X132061557Y-99811588D01*
X131965051Y-99622184D01*
X131965049Y-99622181D01*
X131965048Y-99622179D01*
X131840109Y-99450213D01*
X131689786Y-99299890D01*
X131517820Y-99174951D01*
X131517115Y-99174591D01*
X131509054Y-99170485D01*
X131458259Y-99122512D01*
X131441463Y-99054692D01*
X131463999Y-98988556D01*
X131509054Y-98949515D01*
X131517816Y-98945051D01*
X131539789Y-98929086D01*
X131689786Y-98820109D01*
X131689788Y-98820106D01*
X131689792Y-98820104D01*
X131840104Y-98669792D01*
X131840106Y-98669788D01*
X131840109Y-98669786D01*
X131965048Y-98497820D01*
X131965047Y-98497820D01*
X131965051Y-98497816D01*
X132061557Y-98308412D01*
X132127246Y-98106243D01*
X132160500Y-97896287D01*
X132160500Y-97683713D01*
X132127246Y-97473757D01*
X132061557Y-97271588D01*
X131965051Y-97082184D01*
X131965049Y-97082181D01*
X131965048Y-97082179D01*
X131840109Y-96910213D01*
X131689786Y-96759890D01*
X131517820Y-96634951D01*
X131517115Y-96634591D01*
X131509054Y-96630485D01*
X131458259Y-96582512D01*
X131441463Y-96514692D01*
X131463999Y-96448556D01*
X131509054Y-96409515D01*
X131517816Y-96405051D01*
X131539789Y-96389086D01*
X131689786Y-96280109D01*
X131689788Y-96280106D01*
X131689792Y-96280104D01*
X131840104Y-96129792D01*
X131840106Y-96129788D01*
X131840109Y-96129786D01*
X131965048Y-95957820D01*
X131965047Y-95957820D01*
X131965051Y-95957816D01*
X132061557Y-95768412D01*
X132127246Y-95566243D01*
X132160500Y-95356287D01*
X132160500Y-95143713D01*
X132127246Y-94933757D01*
X132061557Y-94731588D01*
X131965051Y-94542184D01*
X131965049Y-94542181D01*
X131965048Y-94542179D01*
X131840109Y-94370213D01*
X131689786Y-94219890D01*
X131517817Y-94094949D01*
X131508504Y-94090204D01*
X131457707Y-94042230D01*
X131440912Y-93974409D01*
X131463449Y-93908274D01*
X131508507Y-93869232D01*
X131517555Y-93864622D01*
X131571716Y-93825270D01*
X131571717Y-93825270D01*
X130939408Y-93192962D01*
X131002993Y-93175925D01*
X131117007Y-93110099D01*
X131210099Y-93017007D01*
X131275925Y-92902993D01*
X131292962Y-92839408D01*
X131925270Y-93471717D01*
X131925270Y-93471716D01*
X131964622Y-93417554D01*
X132061095Y-93228217D01*
X132126757Y-93026130D01*
X132126757Y-93026127D01*
X132160000Y-92816246D01*
X132160000Y-92603753D01*
X132126757Y-92393872D01*
X132126757Y-92393869D01*
X132061095Y-92191782D01*
X131964624Y-92002449D01*
X131925270Y-91948282D01*
X131925269Y-91948282D01*
X131292962Y-92580590D01*
X131275925Y-92517007D01*
X131210099Y-92402993D01*
X131117007Y-92309901D01*
X131002993Y-92244075D01*
X130939409Y-92227037D01*
X131571716Y-91594728D01*
X131517547Y-91555373D01*
X131517547Y-91555372D01*
X131508500Y-91550763D01*
X131457706Y-91502788D01*
X131440912Y-91434966D01*
X131463451Y-91368832D01*
X131508508Y-91329793D01*
X131517816Y-91325051D01*
X131643581Y-91233678D01*
X131689786Y-91200109D01*
X131689788Y-91200106D01*
X131689792Y-91200104D01*
X131840104Y-91049792D01*
X131840106Y-91049788D01*
X131840109Y-91049786D01*
X131965048Y-90877820D01*
X131965047Y-90877820D01*
X131965051Y-90877816D01*
X132061557Y-90688412D01*
X132127246Y-90486243D01*
X132160500Y-90276287D01*
X132160500Y-90063713D01*
X132127246Y-89853757D01*
X132061557Y-89651588D01*
X131965051Y-89462184D01*
X131965049Y-89462181D01*
X131965048Y-89462179D01*
X131840109Y-89290213D01*
X131726569Y-89176673D01*
X131693084Y-89115350D01*
X131698068Y-89045658D01*
X131739940Y-88989725D01*
X131770915Y-88972810D01*
X131902331Y-88923796D01*
X132017546Y-88837546D01*
X132103796Y-88722331D01*
X132107960Y-88711165D01*
X132149829Y-88655234D01*
X132215293Y-88630816D01*
X132224141Y-88630500D01*
X134718542Y-88630500D01*
X134749566Y-88624328D01*
X134815188Y-88611275D01*
X134911836Y-88592051D01*
X134965165Y-88569961D01*
X135093914Y-88516632D01*
X135257782Y-88407139D01*
X135397139Y-88267782D01*
X135397140Y-88267779D01*
X135404206Y-88260714D01*
X135404208Y-88260710D01*
X138487821Y-85177098D01*
X138549142Y-85143615D01*
X138618834Y-85148599D01*
G37*
%TD.AperFunction*%
%TA.AperFunction,Conductor*%
G36*
X209565677Y-76219685D02*
G01*
X209586319Y-76236319D01*
X210783681Y-77433681D01*
X210817166Y-77495004D01*
X210820000Y-77521362D01*
X210820000Y-153618638D01*
X210800315Y-153685677D01*
X210783681Y-153706319D01*
X209586319Y-154903681D01*
X209524996Y-154937166D01*
X209498638Y-154940000D01*
X86411362Y-154940000D01*
X86344323Y-154920315D01*
X86323681Y-154903681D01*
X85126319Y-153706319D01*
X85092834Y-153644996D01*
X85090000Y-153618638D01*
X85090000Y-151015258D01*
X87149500Y-151015258D01*
X87149500Y-151244741D01*
X87174446Y-151434215D01*
X87179452Y-151472238D01*
X87237693Y-151689598D01*
X87238842Y-151693887D01*
X87326650Y-151905876D01*
X87326657Y-151905890D01*
X87441392Y-152104617D01*
X87581081Y-152286661D01*
X87581089Y-152286670D01*
X87743330Y-152448911D01*
X87743338Y-152448918D01*
X87925382Y-152588607D01*
X87925385Y-152588608D01*
X87925388Y-152588611D01*
X88124112Y-152703344D01*
X88124117Y-152703346D01*
X88124123Y-152703349D01*
X88215480Y-152741190D01*
X88336113Y-152791158D01*
X88557762Y-152850548D01*
X88785266Y-152880500D01*
X88785273Y-152880500D01*
X89014727Y-152880500D01*
X89014734Y-152880500D01*
X89242238Y-152850548D01*
X89463887Y-152791158D01*
X89675888Y-152703344D01*
X89874612Y-152588611D01*
X90056661Y-152448919D01*
X90056665Y-152448914D01*
X90056670Y-152448911D01*
X90218911Y-152286670D01*
X90218914Y-152286665D01*
X90218919Y-152286661D01*
X90358611Y-152104612D01*
X90473344Y-151905888D01*
X90561158Y-151693887D01*
X90620548Y-151472238D01*
X90650500Y-151244734D01*
X90650500Y-151015266D01*
X90620548Y-150787762D01*
X90606635Y-150735837D01*
X106609500Y-150735837D01*
X106609500Y-152264162D01*
X106645215Y-152489660D01*
X106715770Y-152706803D01*
X106804273Y-152880499D01*
X106819421Y-152910228D01*
X106953621Y-153094937D01*
X107115063Y-153256379D01*
X107299772Y-153390579D01*
X107395884Y-153439550D01*
X107503196Y-153494229D01*
X107503198Y-153494229D01*
X107503201Y-153494231D01*
X107619592Y-153532049D01*
X107720339Y-153564784D01*
X107945838Y-153600500D01*
X107945843Y-153600500D01*
X108174162Y-153600500D01*
X108399660Y-153564784D01*
X108401165Y-153564295D01*
X108616799Y-153494231D01*
X108820228Y-153390579D01*
X109004937Y-153256379D01*
X109166379Y-153094937D01*
X109300579Y-152910228D01*
X109404231Y-152706799D01*
X109474784Y-152489660D01*
X109481238Y-152448911D01*
X109510500Y-152264162D01*
X109510500Y-150735883D01*
X111610000Y-150735883D01*
X111610000Y-151250000D01*
X112459999Y-151250000D01*
X112434979Y-151310402D01*
X112410000Y-151435981D01*
X112410000Y-151564019D01*
X112434979Y-151689598D01*
X112459999Y-151750000D01*
X111610000Y-151750000D01*
X111610000Y-152264116D01*
X111645704Y-152489544D01*
X111716230Y-152706604D01*
X111819849Y-152909966D01*
X111954004Y-153094614D01*
X112115385Y-153255995D01*
X112300033Y-153390150D01*
X112503395Y-153493769D01*
X112720455Y-153564295D01*
X112810000Y-153578478D01*
X112810000Y-152100001D01*
X112870402Y-152125021D01*
X112995981Y-152150000D01*
X113124019Y-152150000D01*
X113249598Y-152125021D01*
X113310000Y-152100001D01*
X113310000Y-153578477D01*
X113399544Y-153564295D01*
X113616604Y-153493769D01*
X113819966Y-153390150D01*
X114004614Y-153255995D01*
X114165995Y-153094614D01*
X114300150Y-152909966D01*
X114403769Y-152706604D01*
X114474295Y-152489544D01*
X114510000Y-152264116D01*
X114510000Y-151750000D01*
X113660001Y-151750000D01*
X113685021Y-151689598D01*
X113710000Y-151564019D01*
X113710000Y-151435981D01*
X113685021Y-151310402D01*
X113660001Y-151250000D01*
X114510000Y-151250000D01*
X114510000Y-150735883D01*
X114509993Y-150735837D01*
X122159500Y-150735837D01*
X122159500Y-152264162D01*
X122195215Y-152489660D01*
X122265770Y-152706803D01*
X122354273Y-152880499D01*
X122369421Y-152910228D01*
X122503621Y-153094937D01*
X122665063Y-153256379D01*
X122849772Y-153390579D01*
X122945884Y-153439550D01*
X123053196Y-153494229D01*
X123053198Y-153494229D01*
X123053201Y-153494231D01*
X123169592Y-153532049D01*
X123270339Y-153564784D01*
X123495838Y-153600500D01*
X123495843Y-153600500D01*
X123724162Y-153600500D01*
X123949660Y-153564784D01*
X123951165Y-153564295D01*
X124166799Y-153494231D01*
X124370228Y-153390579D01*
X124554937Y-153256379D01*
X124716379Y-153094937D01*
X124850579Y-152910228D01*
X124954231Y-152706799D01*
X125024784Y-152489660D01*
X125031238Y-152448911D01*
X125060500Y-152264162D01*
X125060500Y-150735883D01*
X127160000Y-150735883D01*
X127160000Y-151250000D01*
X128009999Y-151250000D01*
X127984979Y-151310402D01*
X127960000Y-151435981D01*
X127960000Y-151564019D01*
X127984979Y-151689598D01*
X128009999Y-151750000D01*
X127160000Y-151750000D01*
X127160000Y-152264116D01*
X127195704Y-152489544D01*
X127266230Y-152706604D01*
X127369849Y-152909966D01*
X127504004Y-153094614D01*
X127665385Y-153255995D01*
X127850033Y-153390150D01*
X128053395Y-153493769D01*
X128270455Y-153564295D01*
X128360000Y-153578478D01*
X128360000Y-152100001D01*
X128420402Y-152125021D01*
X128545981Y-152150000D01*
X128674019Y-152150000D01*
X128799598Y-152125021D01*
X128860000Y-152100001D01*
X128860000Y-153578477D01*
X128949544Y-153564295D01*
X129166604Y-153493769D01*
X129369966Y-153390150D01*
X129554614Y-153255995D01*
X129715995Y-153094614D01*
X129850150Y-152909966D01*
X129953769Y-152706604D01*
X130024295Y-152489544D01*
X130060000Y-152264116D01*
X130060000Y-151750000D01*
X129210001Y-151750000D01*
X129235021Y-151689598D01*
X129260000Y-151564019D01*
X129260000Y-151435981D01*
X129235021Y-151310402D01*
X129210001Y-151250000D01*
X130060000Y-151250000D01*
X130060000Y-150735883D01*
X130059993Y-150735837D01*
X137709500Y-150735837D01*
X137709500Y-152264162D01*
X137745215Y-152489660D01*
X137815770Y-152706803D01*
X137904273Y-152880499D01*
X137919421Y-152910228D01*
X138053621Y-153094937D01*
X138215063Y-153256379D01*
X138399772Y-153390579D01*
X138495884Y-153439550D01*
X138603196Y-153494229D01*
X138603198Y-153494229D01*
X138603201Y-153494231D01*
X138719592Y-153532049D01*
X138820339Y-153564784D01*
X139045838Y-153600500D01*
X139045843Y-153600500D01*
X139274162Y-153600500D01*
X139499660Y-153564784D01*
X139501165Y-153564295D01*
X139716799Y-153494231D01*
X139920228Y-153390579D01*
X140104937Y-153256379D01*
X140266379Y-153094937D01*
X140400579Y-152910228D01*
X140504231Y-152706799D01*
X140574784Y-152489660D01*
X140581238Y-152448911D01*
X140610500Y-152264162D01*
X140610500Y-150735883D01*
X142710000Y-150735883D01*
X142710000Y-151250000D01*
X143559999Y-151250000D01*
X143534979Y-151310402D01*
X143510000Y-151435981D01*
X143510000Y-151564019D01*
X143534979Y-151689598D01*
X143559999Y-151750000D01*
X142710000Y-151750000D01*
X142710000Y-152264116D01*
X142745704Y-152489544D01*
X142816230Y-152706604D01*
X142919849Y-152909966D01*
X143054004Y-153094614D01*
X143215385Y-153255995D01*
X143400033Y-153390150D01*
X143603395Y-153493769D01*
X143820455Y-153564295D01*
X143910000Y-153578478D01*
X143910000Y-152100001D01*
X143970402Y-152125021D01*
X144095981Y-152150000D01*
X144224019Y-152150000D01*
X144349598Y-152125021D01*
X144410000Y-152100001D01*
X144410000Y-153578477D01*
X144499544Y-153564295D01*
X144716604Y-153493769D01*
X144919966Y-153390150D01*
X145104614Y-153255995D01*
X145265995Y-153094614D01*
X145400150Y-152909966D01*
X145503769Y-152706604D01*
X145574295Y-152489544D01*
X145610000Y-152264116D01*
X145610000Y-151750000D01*
X144760001Y-151750000D01*
X144785021Y-151689598D01*
X144810000Y-151564019D01*
X144810000Y-151435981D01*
X144785021Y-151310402D01*
X144760001Y-151250000D01*
X145610000Y-151250000D01*
X145610000Y-150735883D01*
X145609993Y-150735837D01*
X153259500Y-150735837D01*
X153259500Y-152264162D01*
X153295215Y-152489660D01*
X153365770Y-152706803D01*
X153454273Y-152880499D01*
X153469421Y-152910228D01*
X153603621Y-153094937D01*
X153765063Y-153256379D01*
X153949772Y-153390579D01*
X154045884Y-153439550D01*
X154153196Y-153494229D01*
X154153198Y-153494229D01*
X154153201Y-153494231D01*
X154269592Y-153532049D01*
X154370339Y-153564784D01*
X154595838Y-153600500D01*
X154595843Y-153600500D01*
X154824162Y-153600500D01*
X155049660Y-153564784D01*
X155051165Y-153564295D01*
X155266799Y-153494231D01*
X155470228Y-153390579D01*
X155654937Y-153256379D01*
X155816379Y-153094937D01*
X155950579Y-152910228D01*
X156054231Y-152706799D01*
X156124784Y-152489660D01*
X156131238Y-152448911D01*
X156160500Y-152264162D01*
X156160500Y-150735883D01*
X158260000Y-150735883D01*
X158260000Y-151250000D01*
X159109999Y-151250000D01*
X159084979Y-151310402D01*
X159060000Y-151435981D01*
X159060000Y-151564019D01*
X159084979Y-151689598D01*
X159109999Y-151750000D01*
X158260000Y-151750000D01*
X158260000Y-152264116D01*
X158295704Y-152489544D01*
X158366230Y-152706604D01*
X158469849Y-152909966D01*
X158604004Y-153094614D01*
X158765385Y-153255995D01*
X158950033Y-153390150D01*
X159153395Y-153493769D01*
X159370455Y-153564295D01*
X159460000Y-153578478D01*
X159460000Y-152100001D01*
X159520402Y-152125021D01*
X159645981Y-152150000D01*
X159774019Y-152150000D01*
X159899598Y-152125021D01*
X159960000Y-152100001D01*
X159960000Y-153578477D01*
X160049544Y-153564295D01*
X160266604Y-153493769D01*
X160469966Y-153390150D01*
X160654614Y-153255995D01*
X160815995Y-153094614D01*
X160950150Y-152909966D01*
X161053769Y-152706604D01*
X161124295Y-152489544D01*
X161160000Y-152264116D01*
X161160000Y-151750000D01*
X160310001Y-151750000D01*
X160335021Y-151689598D01*
X160360000Y-151564019D01*
X160360000Y-151435981D01*
X160335021Y-151310402D01*
X160310001Y-151250000D01*
X161160000Y-151250000D01*
X161160000Y-150735883D01*
X161159993Y-150735837D01*
X168809500Y-150735837D01*
X168809500Y-152264162D01*
X168845215Y-152489660D01*
X168915770Y-152706803D01*
X169004273Y-152880499D01*
X169019421Y-152910228D01*
X169153621Y-153094937D01*
X169315063Y-153256379D01*
X169499772Y-153390579D01*
X169595884Y-153439550D01*
X169703196Y-153494229D01*
X169703198Y-153494229D01*
X169703201Y-153494231D01*
X169819592Y-153532049D01*
X169920339Y-153564784D01*
X170145838Y-153600500D01*
X170145843Y-153600500D01*
X170374162Y-153600500D01*
X170599660Y-153564784D01*
X170601165Y-153564295D01*
X170816799Y-153494231D01*
X171020228Y-153390579D01*
X171204937Y-153256379D01*
X171366379Y-153094937D01*
X171500579Y-152910228D01*
X171604231Y-152706799D01*
X171674784Y-152489660D01*
X171681238Y-152448911D01*
X171710500Y-152264162D01*
X171710500Y-150735883D01*
X173810000Y-150735883D01*
X173810000Y-151250000D01*
X174659999Y-151250000D01*
X174634979Y-151310402D01*
X174610000Y-151435981D01*
X174610000Y-151564019D01*
X174634979Y-151689598D01*
X174659999Y-151750000D01*
X173810000Y-151750000D01*
X173810000Y-152264116D01*
X173845704Y-152489544D01*
X173916230Y-152706604D01*
X174019849Y-152909966D01*
X174154004Y-153094614D01*
X174315385Y-153255995D01*
X174500033Y-153390150D01*
X174703395Y-153493769D01*
X174920455Y-153564295D01*
X175010000Y-153578478D01*
X175010000Y-152100001D01*
X175070402Y-152125021D01*
X175195981Y-152150000D01*
X175324019Y-152150000D01*
X175449598Y-152125021D01*
X175510000Y-152100001D01*
X175510000Y-153578477D01*
X175599544Y-153564295D01*
X175816604Y-153493769D01*
X176019966Y-153390150D01*
X176204614Y-153255995D01*
X176365995Y-153094614D01*
X176500150Y-152909966D01*
X176603769Y-152706604D01*
X176674295Y-152489544D01*
X176710000Y-152264116D01*
X176710000Y-151750000D01*
X175860001Y-151750000D01*
X175885021Y-151689598D01*
X175910000Y-151564019D01*
X175910000Y-151435981D01*
X175885021Y-151310402D01*
X175860001Y-151250000D01*
X176710000Y-151250000D01*
X176710000Y-151015258D01*
X205259500Y-151015258D01*
X205259500Y-151244741D01*
X205284446Y-151434215D01*
X205289452Y-151472238D01*
X205347693Y-151689598D01*
X205348842Y-151693887D01*
X205436650Y-151905876D01*
X205436657Y-151905890D01*
X205551392Y-152104617D01*
X205691081Y-152286661D01*
X205691089Y-152286670D01*
X205853330Y-152448911D01*
X205853338Y-152448918D01*
X206035382Y-152588607D01*
X206035385Y-152588608D01*
X206035388Y-152588611D01*
X206234112Y-152703344D01*
X206234117Y-152703346D01*
X206234123Y-152703349D01*
X206325480Y-152741190D01*
X206446113Y-152791158D01*
X206667762Y-152850548D01*
X206895266Y-152880500D01*
X206895273Y-152880500D01*
X207124727Y-152880500D01*
X207124734Y-152880500D01*
X207352238Y-152850548D01*
X207573887Y-152791158D01*
X207785888Y-152703344D01*
X207984612Y-152588611D01*
X208166661Y-152448919D01*
X208166665Y-152448914D01*
X208166670Y-152448911D01*
X208328911Y-152286670D01*
X208328914Y-152286665D01*
X208328919Y-152286661D01*
X208468611Y-152104612D01*
X208583344Y-151905888D01*
X208671158Y-151693887D01*
X208730548Y-151472238D01*
X208760500Y-151244734D01*
X208760500Y-151015266D01*
X208730548Y-150787762D01*
X208671158Y-150566113D01*
X208603692Y-150403236D01*
X208583349Y-150354123D01*
X208583346Y-150354117D01*
X208583344Y-150354112D01*
X208468611Y-150155388D01*
X208468608Y-150155385D01*
X208468607Y-150155382D01*
X208328918Y-149973338D01*
X208328911Y-149973330D01*
X208166670Y-149811089D01*
X208166661Y-149811081D01*
X207984617Y-149671392D01*
X207785890Y-149556657D01*
X207785876Y-149556650D01*
X207573887Y-149468842D01*
X207352238Y-149409452D01*
X207314215Y-149404446D01*
X207124741Y-149379500D01*
X207124734Y-149379500D01*
X206895266Y-149379500D01*
X206895258Y-149379500D01*
X206678715Y-149408009D01*
X206667762Y-149409452D01*
X206574076Y-149434554D01*
X206446112Y-149468842D01*
X206234123Y-149556650D01*
X206234109Y-149556657D01*
X206035382Y-149671392D01*
X205853338Y-149811081D01*
X205691081Y-149973338D01*
X205551392Y-150155382D01*
X205436657Y-150354109D01*
X205436650Y-150354123D01*
X205348842Y-150566112D01*
X205348842Y-150566113D01*
X205303364Y-150735843D01*
X205289453Y-150787759D01*
X205289451Y-150787770D01*
X205259500Y-151015258D01*
X176710000Y-151015258D01*
X176710000Y-150735883D01*
X176674295Y-150510455D01*
X176624900Y-150358430D01*
X176624899Y-150358428D01*
X176603770Y-150293397D01*
X176500150Y-150090033D01*
X176365995Y-149905385D01*
X176204614Y-149744004D01*
X176019966Y-149609849D01*
X175816602Y-149506229D01*
X175599541Y-149435703D01*
X175510000Y-149421521D01*
X175510000Y-150899998D01*
X175449598Y-150874979D01*
X175324019Y-150850000D01*
X175195981Y-150850000D01*
X175070402Y-150874979D01*
X175010000Y-150899998D01*
X175010000Y-149421521D01*
X175009999Y-149421521D01*
X174920458Y-149435703D01*
X174703397Y-149506229D01*
X174500033Y-149609849D01*
X174315385Y-149744004D01*
X174154004Y-149905385D01*
X174019849Y-150090033D01*
X173916230Y-150293395D01*
X173845704Y-150510455D01*
X173810000Y-150735883D01*
X171710500Y-150735883D01*
X171710500Y-150735837D01*
X171674784Y-150510339D01*
X171625425Y-150358430D01*
X171604231Y-150293201D01*
X171604229Y-150293198D01*
X171604229Y-150293196D01*
X171534009Y-150155382D01*
X171500579Y-150089772D01*
X171366379Y-149905063D01*
X171204937Y-149743621D01*
X171020228Y-149609421D01*
X171016866Y-149607708D01*
X170816803Y-149505770D01*
X170599660Y-149435215D01*
X170374162Y-149399500D01*
X170374157Y-149399500D01*
X170145843Y-149399500D01*
X170145838Y-149399500D01*
X169920339Y-149435215D01*
X169703196Y-149505770D01*
X169499771Y-149609421D01*
X169315061Y-149743622D01*
X169153622Y-149905061D01*
X169019421Y-150089771D01*
X168915770Y-150293196D01*
X168845215Y-150510339D01*
X168809500Y-150735837D01*
X161159993Y-150735837D01*
X161124295Y-150510455D01*
X161053769Y-150293395D01*
X160950150Y-150090033D01*
X160815995Y-149905385D01*
X160654614Y-149744004D01*
X160469966Y-149609849D01*
X160266602Y-149506229D01*
X160049541Y-149435703D01*
X159960000Y-149421521D01*
X159960000Y-150899998D01*
X159899598Y-150874979D01*
X159774019Y-150850000D01*
X159645981Y-150850000D01*
X159520402Y-150874979D01*
X159460000Y-150899998D01*
X159460000Y-149421521D01*
X159459999Y-149421521D01*
X159370458Y-149435703D01*
X159153397Y-149506229D01*
X158950033Y-149609849D01*
X158765385Y-149744004D01*
X158604004Y-149905385D01*
X158469849Y-150090033D01*
X158366230Y-150293395D01*
X158295704Y-150510455D01*
X158260000Y-150735883D01*
X156160500Y-150735883D01*
X156160500Y-150735837D01*
X156124784Y-150510339D01*
X156075425Y-150358430D01*
X156054231Y-150293201D01*
X156054229Y-150293198D01*
X156054229Y-150293196D01*
X155984009Y-150155382D01*
X155950579Y-150089772D01*
X155816379Y-149905063D01*
X155654937Y-149743621D01*
X155470228Y-149609421D01*
X155466866Y-149607708D01*
X155266803Y-149505770D01*
X155049660Y-149435215D01*
X154824162Y-149399500D01*
X154824157Y-149399500D01*
X154595843Y-149399500D01*
X154595838Y-149399500D01*
X154370339Y-149435215D01*
X154153196Y-149505770D01*
X153949771Y-149609421D01*
X153765061Y-149743622D01*
X153603622Y-149905061D01*
X153469421Y-150089771D01*
X153365770Y-150293196D01*
X153295215Y-150510339D01*
X153259500Y-150735837D01*
X145609993Y-150735837D01*
X145574295Y-150510455D01*
X145503769Y-150293395D01*
X145400150Y-150090033D01*
X145265995Y-149905385D01*
X145104614Y-149744004D01*
X144919966Y-149609849D01*
X144716602Y-149506229D01*
X144499541Y-149435703D01*
X144410000Y-149421521D01*
X144410000Y-150899998D01*
X144349598Y-150874979D01*
X144224019Y-150850000D01*
X144095981Y-150850000D01*
X143970402Y-150874979D01*
X143910000Y-150899998D01*
X143910000Y-149421521D01*
X143909999Y-149421521D01*
X143820458Y-149435703D01*
X143603397Y-149506229D01*
X143400033Y-149609849D01*
X143215385Y-149744004D01*
X143054004Y-149905385D01*
X142919849Y-150090033D01*
X142816230Y-150293395D01*
X142745704Y-150510455D01*
X142710000Y-150735883D01*
X140610500Y-150735883D01*
X140610500Y-150735837D01*
X140574784Y-150510339D01*
X140525425Y-150358430D01*
X140504231Y-150293201D01*
X140504229Y-150293198D01*
X140504229Y-150293196D01*
X140434009Y-150155382D01*
X140400579Y-150089772D01*
X140266379Y-149905063D01*
X140104937Y-149743621D01*
X139920228Y-149609421D01*
X139916866Y-149607708D01*
X139716803Y-149505770D01*
X139499660Y-149435215D01*
X139274162Y-149399500D01*
X139274157Y-149399500D01*
X139045843Y-149399500D01*
X139045838Y-149399500D01*
X138820339Y-149435215D01*
X138603196Y-149505770D01*
X138399771Y-149609421D01*
X138215061Y-149743622D01*
X138053622Y-149905061D01*
X137919421Y-150089771D01*
X137815770Y-150293196D01*
X137745215Y-150510339D01*
X137709500Y-150735837D01*
X130059993Y-150735837D01*
X130024295Y-150510455D01*
X129953769Y-150293395D01*
X129850150Y-150090033D01*
X129715995Y-149905385D01*
X129554614Y-149744004D01*
X129369966Y-149609849D01*
X129166602Y-149506229D01*
X128949541Y-149435703D01*
X128860000Y-149421521D01*
X128860000Y-150899998D01*
X128799598Y-150874979D01*
X128674019Y-150850000D01*
X128545981Y-150850000D01*
X128420402Y-150874979D01*
X128360000Y-150899998D01*
X128360000Y-149421521D01*
X128359999Y-149421521D01*
X128270458Y-149435703D01*
X128053397Y-149506229D01*
X127850033Y-149609849D01*
X127665385Y-149744004D01*
X127504004Y-149905385D01*
X127369849Y-150090033D01*
X127266230Y-150293395D01*
X127195704Y-150510455D01*
X127160000Y-150735883D01*
X125060500Y-150735883D01*
X125060500Y-150735837D01*
X125024784Y-150510339D01*
X124975425Y-150358430D01*
X124954231Y-150293201D01*
X124954229Y-150293198D01*
X124954229Y-150293196D01*
X124884009Y-150155382D01*
X124850579Y-150089772D01*
X124716379Y-149905063D01*
X124554937Y-149743621D01*
X124370228Y-149609421D01*
X124366866Y-149607708D01*
X124166803Y-149505770D01*
X123949660Y-149435215D01*
X123724162Y-149399500D01*
X123724157Y-149399500D01*
X123495843Y-149399500D01*
X123495838Y-149399500D01*
X123270339Y-149435215D01*
X123053196Y-149505770D01*
X122849771Y-149609421D01*
X122665061Y-149743622D01*
X122503622Y-149905061D01*
X122369421Y-150089771D01*
X122265770Y-150293196D01*
X122195215Y-150510339D01*
X122159500Y-150735837D01*
X114509993Y-150735837D01*
X114474295Y-150510455D01*
X114403769Y-150293395D01*
X114300150Y-150090033D01*
X114165995Y-149905385D01*
X114004614Y-149744004D01*
X113819966Y-149609849D01*
X113616602Y-149506229D01*
X113399541Y-149435703D01*
X113310000Y-149421521D01*
X113310000Y-150899998D01*
X113249598Y-150874979D01*
X113124019Y-150850000D01*
X112995981Y-150850000D01*
X112870402Y-150874979D01*
X112810000Y-150899998D01*
X112810000Y-149421521D01*
X112809999Y-149421521D01*
X112720458Y-149435703D01*
X112503397Y-149506229D01*
X112300033Y-149609849D01*
X112115385Y-149744004D01*
X111954004Y-149905385D01*
X111819849Y-150090033D01*
X111716230Y-150293395D01*
X111645704Y-150510455D01*
X111610000Y-150735883D01*
X109510500Y-150735883D01*
X109510500Y-150735837D01*
X109474784Y-150510339D01*
X109425425Y-150358430D01*
X109404231Y-150293201D01*
X109404229Y-150293198D01*
X109404229Y-150293196D01*
X109334009Y-150155382D01*
X109300579Y-150089772D01*
X109166379Y-149905063D01*
X109004937Y-149743621D01*
X108820228Y-149609421D01*
X108816866Y-149607708D01*
X108616803Y-149505770D01*
X108399660Y-149435215D01*
X108174162Y-149399500D01*
X108174157Y-149399500D01*
X107945843Y-149399500D01*
X107945838Y-149399500D01*
X107720339Y-149435215D01*
X107503196Y-149505770D01*
X107299771Y-149609421D01*
X107115061Y-149743622D01*
X106953622Y-149905061D01*
X106819421Y-150089771D01*
X106715770Y-150293196D01*
X106645215Y-150510339D01*
X106609500Y-150735837D01*
X90606635Y-150735837D01*
X90561158Y-150566113D01*
X90493692Y-150403236D01*
X90473349Y-150354123D01*
X90473346Y-150354117D01*
X90473344Y-150354112D01*
X90358611Y-150155388D01*
X90358608Y-150155385D01*
X90358607Y-150155382D01*
X90218918Y-149973338D01*
X90218911Y-149973330D01*
X90056670Y-149811089D01*
X90056661Y-149811081D01*
X89874617Y-149671392D01*
X89675890Y-149556657D01*
X89675876Y-149556650D01*
X89463887Y-149468842D01*
X89242238Y-149409452D01*
X89204215Y-149404446D01*
X89014741Y-149379500D01*
X89014734Y-149379500D01*
X88785266Y-149379500D01*
X88785258Y-149379500D01*
X88568715Y-149408009D01*
X88557762Y-149409452D01*
X88464076Y-149434554D01*
X88336112Y-149468842D01*
X88124123Y-149556650D01*
X88124109Y-149556657D01*
X87925382Y-149671392D01*
X87743338Y-149811081D01*
X87581081Y-149973338D01*
X87441392Y-150155382D01*
X87326657Y-150354109D01*
X87326650Y-150354123D01*
X87238842Y-150566112D01*
X87238842Y-150566113D01*
X87193364Y-150735843D01*
X87179453Y-150787759D01*
X87179451Y-150787770D01*
X87149500Y-151015258D01*
X85090000Y-151015258D01*
X85090000Y-144965558D01*
X182095000Y-144965558D01*
X182095000Y-145274441D01*
X182129581Y-145581355D01*
X182129583Y-145581367D01*
X182198314Y-145882499D01*
X182300328Y-146174039D01*
X182434341Y-146452320D01*
X182598669Y-146713845D01*
X182731293Y-146880152D01*
X183633078Y-145978366D01*
X183712305Y-146087413D01*
X183877587Y-146252695D01*
X183986631Y-146331920D01*
X183084845Y-147233706D01*
X183251142Y-147366323D01*
X183251144Y-147366324D01*
X183512679Y-147530658D01*
X183790960Y-147664671D01*
X184082501Y-147766685D01*
X184082503Y-147766686D01*
X184349465Y-147827618D01*
X184410444Y-147861726D01*
X184443302Y-147923388D01*
X184437607Y-147993025D01*
X184395167Y-148048529D01*
X184378169Y-148058993D01*
X184225555Y-148136755D01*
X184176180Y-148172627D01*
X184749766Y-148746212D01*
X184707708Y-148757482D01*
X184582292Y-148829890D01*
X184479890Y-148932292D01*
X184407482Y-149057708D01*
X184396212Y-149099765D01*
X183822627Y-148526180D01*
X183786757Y-148575552D01*
X183692075Y-148761372D01*
X183627626Y-148959727D01*
X183595000Y-149165720D01*
X183595000Y-149374279D01*
X183627626Y-149580272D01*
X183692075Y-149778627D01*
X183786759Y-149964451D01*
X183822627Y-150013818D01*
X183822627Y-150013819D01*
X184396212Y-149440234D01*
X184407482Y-149482292D01*
X184479890Y-149607708D01*
X184582292Y-149710110D01*
X184707708Y-149782518D01*
X184749765Y-149793787D01*
X184176179Y-150367371D01*
X184176180Y-150367372D01*
X184225543Y-150403236D01*
X184225556Y-150403244D01*
X184411372Y-150497924D01*
X184609727Y-150562373D01*
X184815721Y-150595000D01*
X185024279Y-150595000D01*
X185230272Y-150562373D01*
X185428627Y-150497924D01*
X185614451Y-150403240D01*
X185663818Y-150367372D01*
X185663818Y-150367371D01*
X185090234Y-149793787D01*
X185132292Y-149782518D01*
X185257708Y-149710110D01*
X185360110Y-149607708D01*
X185432518Y-149482292D01*
X185443787Y-149440234D01*
X186017371Y-150013818D01*
X186017372Y-150013818D01*
X186053240Y-149964451D01*
X186147924Y-149778627D01*
X186212373Y-149580272D01*
X186245000Y-149374279D01*
X186245000Y-149165720D01*
X186212373Y-148959727D01*
X186147924Y-148761372D01*
X186053244Y-148575556D01*
X186053236Y-148575543D01*
X186017372Y-148526180D01*
X186017371Y-148526179D01*
X185443787Y-149099764D01*
X185432518Y-149057708D01*
X185360110Y-148932292D01*
X185257708Y-148829890D01*
X185132292Y-148757482D01*
X185090233Y-148746212D01*
X185663819Y-148172627D01*
X185614451Y-148136759D01*
X185428621Y-148042072D01*
X185424130Y-148040213D01*
X185424901Y-148038349D01*
X185374236Y-148003717D01*
X185347028Y-147939363D01*
X185358931Y-147870514D01*
X185406167Y-147819031D01*
X185442625Y-147804317D01*
X185607496Y-147766686D01*
X185607498Y-147766685D01*
X185899039Y-147664671D01*
X186177320Y-147530658D01*
X186438851Y-147366326D01*
X186605153Y-147233706D01*
X185703367Y-146331920D01*
X185812413Y-146252695D01*
X185977695Y-146087413D01*
X186056920Y-145978367D01*
X186958706Y-146880153D01*
X187091326Y-146713851D01*
X187255658Y-146452320D01*
X187389671Y-146174039D01*
X187491685Y-145882499D01*
X187560416Y-145581367D01*
X187560418Y-145581355D01*
X187594999Y-145274441D01*
X187595000Y-145274439D01*
X187595000Y-144965560D01*
X187594999Y-144965558D01*
X193345000Y-144965558D01*
X193345000Y-145274441D01*
X193379581Y-145581355D01*
X193379583Y-145581367D01*
X193448314Y-145882499D01*
X193550328Y-146174039D01*
X193684341Y-146452320D01*
X193848669Y-146713845D01*
X193981293Y-146880152D01*
X194883078Y-145978366D01*
X194962305Y-146087413D01*
X195127587Y-146252695D01*
X195236631Y-146331920D01*
X194334845Y-147233706D01*
X194501142Y-147366323D01*
X194501144Y-147366324D01*
X194762679Y-147530658D01*
X195040960Y-147664671D01*
X195332501Y-147766685D01*
X195332499Y-147766685D01*
X195496424Y-147804100D01*
X195557402Y-147838209D01*
X195590260Y-147899870D01*
X195584565Y-147969507D01*
X195542125Y-148025011D01*
X195515271Y-148038771D01*
X195515677Y-148039750D01*
X195511185Y-148041610D01*
X195325285Y-148136330D01*
X195156493Y-148258966D01*
X195008966Y-148406493D01*
X194886330Y-148575285D01*
X194791612Y-148761179D01*
X194727137Y-148959610D01*
X194694500Y-149165675D01*
X194694500Y-149374324D01*
X194727137Y-149580389D01*
X194791612Y-149778820D01*
X194886196Y-149964451D01*
X194886330Y-149964714D01*
X195008965Y-150133505D01*
X195156495Y-150281035D01*
X195325286Y-150403670D01*
X195413116Y-150448421D01*
X195511179Y-150498387D01*
X195511181Y-150498387D01*
X195511184Y-150498389D01*
X195617545Y-150532948D01*
X195709610Y-150562862D01*
X195915676Y-150595500D01*
X195915681Y-150595500D01*
X196124324Y-150595500D01*
X196330389Y-150562862D01*
X196331894Y-150562373D01*
X196528816Y-150498389D01*
X196714714Y-150403670D01*
X196883505Y-150281035D01*
X197031035Y-150133505D01*
X197153670Y-149964714D01*
X197248389Y-149778816D01*
X197312862Y-149580389D01*
X197324608Y-149506229D01*
X197345500Y-149374324D01*
X197345500Y-149165675D01*
X197312862Y-148959610D01*
X197248387Y-148761179D01*
X197198421Y-148663116D01*
X197153670Y-148575286D01*
X197031035Y-148406495D01*
X196883505Y-148258965D01*
X196714714Y-148136330D01*
X196562592Y-148058820D01*
X196511796Y-148010845D01*
X196495001Y-147943024D01*
X196517538Y-147876889D01*
X196572253Y-147833438D01*
X196591295Y-147827444D01*
X196857496Y-147766686D01*
X196857498Y-147766685D01*
X197149039Y-147664671D01*
X197427320Y-147530658D01*
X197688851Y-147366326D01*
X197855153Y-147233706D01*
X196953367Y-146331920D01*
X197062413Y-146252695D01*
X197227695Y-146087413D01*
X197306920Y-145978367D01*
X198208706Y-146880153D01*
X198341326Y-146713851D01*
X198505658Y-146452320D01*
X198639671Y-146174039D01*
X198741685Y-145882499D01*
X198810416Y-145581367D01*
X198810418Y-145581355D01*
X198844999Y-145274441D01*
X198845000Y-145274439D01*
X198845000Y-144965560D01*
X198844999Y-144965558D01*
X198810418Y-144658644D01*
X198810416Y-144658632D01*
X198741685Y-144357500D01*
X198639671Y-144065960D01*
X198505658Y-143787679D01*
X198341324Y-143526144D01*
X198341323Y-143526142D01*
X198208706Y-143359845D01*
X197306920Y-144261631D01*
X197227695Y-144152587D01*
X197062413Y-143987305D01*
X196953366Y-143908078D01*
X197855152Y-143006293D01*
X197688845Y-142873669D01*
X197427320Y-142709341D01*
X197149039Y-142575328D01*
X196857498Y-142473314D01*
X196857500Y-142473314D01*
X196591294Y-142412555D01*
X196530316Y-142378446D01*
X196497458Y-142316785D01*
X196503153Y-142247148D01*
X196545593Y-142191644D01*
X196562593Y-142181179D01*
X196714712Y-142103671D01*
X196714711Y-142103671D01*
X196714714Y-142103670D01*
X196883505Y-141981035D01*
X197031035Y-141833505D01*
X197153670Y-141664714D01*
X197248389Y-141478816D01*
X197312862Y-141280389D01*
X197345500Y-141074324D01*
X197345500Y-140865675D01*
X197312862Y-140659610D01*
X197248387Y-140461179D01*
X197153669Y-140275285D01*
X197031035Y-140106495D01*
X196883505Y-139958965D01*
X196714714Y-139836330D01*
X196528820Y-139741612D01*
X196330389Y-139677137D01*
X196124324Y-139644500D01*
X196124319Y-139644500D01*
X195915681Y-139644500D01*
X195915676Y-139644500D01*
X195709610Y-139677137D01*
X195511179Y-139741612D01*
X195325285Y-139836330D01*
X195156493Y-139958966D01*
X195008966Y-140106493D01*
X194886330Y-140275285D01*
X194791612Y-140461179D01*
X194727137Y-140659610D01*
X194694500Y-140865675D01*
X194694500Y-141074324D01*
X194727137Y-141280389D01*
X194791612Y-141478820D01*
X194886330Y-141664714D01*
X195008965Y-141833505D01*
X195156495Y-141981035D01*
X195325286Y-142103670D01*
X195511184Y-142198389D01*
X195511188Y-142198390D01*
X195515677Y-142200250D01*
X195514809Y-142202344D01*
X195564750Y-142236424D01*
X195592009Y-142300756D01*
X195580160Y-142369614D01*
X195532965Y-142421135D01*
X195496424Y-142435899D01*
X195332501Y-142473314D01*
X195040960Y-142575328D01*
X194762679Y-142709341D01*
X194501144Y-142873675D01*
X194501140Y-142873678D01*
X194334845Y-143006292D01*
X195236632Y-143908079D01*
X195127587Y-143987305D01*
X194962305Y-144152587D01*
X194883079Y-144261632D01*
X193981292Y-143359845D01*
X193848678Y-143526140D01*
X193848675Y-143526144D01*
X193684341Y-143787679D01*
X193550328Y-144065960D01*
X193448314Y-144357500D01*
X193379583Y-144658632D01*
X193379581Y-144658644D01*
X193345000Y-144965558D01*
X187594999Y-144965558D01*
X187560418Y-144658644D01*
X187560416Y-144658632D01*
X187491685Y-144357500D01*
X187389671Y-144065960D01*
X187255658Y-143787679D01*
X187091324Y-143526144D01*
X187091323Y-143526142D01*
X186958706Y-143359845D01*
X186056920Y-144261631D01*
X185977695Y-144152587D01*
X185812413Y-143987305D01*
X185703366Y-143908078D01*
X186605152Y-143006293D01*
X186438845Y-142873669D01*
X186177320Y-142709341D01*
X185899039Y-142575328D01*
X185607498Y-142473314D01*
X185607499Y-142473314D01*
X185443575Y-142435899D01*
X185382597Y-142401790D01*
X185349739Y-142340128D01*
X185355434Y-142270491D01*
X185397874Y-142214988D01*
X185424739Y-142201254D01*
X185424323Y-142200250D01*
X185428806Y-142198392D01*
X185428816Y-142198389D01*
X185614714Y-142103670D01*
X185783505Y-141981035D01*
X185931035Y-141833505D01*
X186053670Y-141664714D01*
X186148389Y-141478816D01*
X186212862Y-141280389D01*
X186245500Y-141074324D01*
X186245500Y-140865675D01*
X186212862Y-140659610D01*
X186148387Y-140461179D01*
X186053669Y-140275285D01*
X185931035Y-140106495D01*
X185783505Y-139958965D01*
X185614714Y-139836330D01*
X185428820Y-139741612D01*
X185230389Y-139677137D01*
X185024324Y-139644500D01*
X185024319Y-139644500D01*
X184815681Y-139644500D01*
X184815676Y-139644500D01*
X184609610Y-139677137D01*
X184411179Y-139741612D01*
X184225285Y-139836330D01*
X184056493Y-139958966D01*
X183908966Y-140106493D01*
X183786330Y-140275285D01*
X183691612Y-140461179D01*
X183627137Y-140659610D01*
X183594500Y-140865675D01*
X183594500Y-141074324D01*
X183627137Y-141280389D01*
X183691612Y-141478820D01*
X183786330Y-141664714D01*
X183908965Y-141833505D01*
X184056495Y-141981035D01*
X184225286Y-142103670D01*
X184351079Y-142167764D01*
X184377407Y-142181179D01*
X184428203Y-142229153D01*
X184444998Y-142296974D01*
X184422461Y-142363109D01*
X184367746Y-142406561D01*
X184348705Y-142412555D01*
X184082500Y-142473314D01*
X183790960Y-142575328D01*
X183512679Y-142709341D01*
X183251144Y-142873675D01*
X183251140Y-142873678D01*
X183084845Y-143006292D01*
X183986632Y-143908079D01*
X183877587Y-143987305D01*
X183712305Y-144152587D01*
X183633079Y-144261632D01*
X182731292Y-143359845D01*
X182598678Y-143526140D01*
X182598675Y-143526144D01*
X182434341Y-143787679D01*
X182300328Y-144065960D01*
X182198314Y-144357500D01*
X182129583Y-144658632D01*
X182129581Y-144658644D01*
X182095000Y-144965558D01*
X85090000Y-144965558D01*
X85090000Y-138235837D01*
X106609500Y-138235837D01*
X106609500Y-139764162D01*
X106645215Y-139989660D01*
X106715770Y-140206803D01*
X106819288Y-140409966D01*
X106819421Y-140410228D01*
X106953621Y-140594937D01*
X107115063Y-140756379D01*
X107299772Y-140890579D01*
X107395884Y-140939550D01*
X107503196Y-140994229D01*
X107503198Y-140994229D01*
X107503201Y-140994231D01*
X107619592Y-141032049D01*
X107720339Y-141064784D01*
X107945838Y-141100500D01*
X107945843Y-141100500D01*
X108174162Y-141100500D01*
X108399660Y-141064784D01*
X108401165Y-141064295D01*
X108616799Y-140994231D01*
X108820228Y-140890579D01*
X109004937Y-140756379D01*
X109166379Y-140594937D01*
X109300579Y-140410228D01*
X109404231Y-140206799D01*
X109474784Y-139989660D01*
X109474802Y-139989544D01*
X109510500Y-139764162D01*
X109510500Y-138235883D01*
X111610000Y-138235883D01*
X111610000Y-138750000D01*
X112459999Y-138750000D01*
X112434979Y-138810402D01*
X112410000Y-138935981D01*
X112410000Y-139064019D01*
X112434979Y-139189598D01*
X112459999Y-139250000D01*
X111610000Y-139250000D01*
X111610000Y-139764116D01*
X111645704Y-139989544D01*
X111716230Y-140206604D01*
X111819849Y-140409966D01*
X111954004Y-140594614D01*
X112115385Y-140755995D01*
X112300033Y-140890150D01*
X112503395Y-140993769D01*
X112720455Y-141064295D01*
X112810000Y-141078478D01*
X112810000Y-139600001D01*
X112870402Y-139625021D01*
X112995981Y-139650000D01*
X113124019Y-139650000D01*
X113249598Y-139625021D01*
X113310000Y-139600001D01*
X113310000Y-141078477D01*
X113399544Y-141064295D01*
X113616604Y-140993769D01*
X113819966Y-140890150D01*
X114004614Y-140755995D01*
X114165995Y-140594614D01*
X114300150Y-140409966D01*
X114403769Y-140206604D01*
X114474295Y-139989544D01*
X114510000Y-139764116D01*
X114510000Y-139250000D01*
X113660001Y-139250000D01*
X113685021Y-139189598D01*
X113710000Y-139064019D01*
X113710000Y-138935981D01*
X113685021Y-138810402D01*
X113660001Y-138750000D01*
X114510000Y-138750000D01*
X114510000Y-138235883D01*
X114509993Y-138235837D01*
X122159500Y-138235837D01*
X122159500Y-139764162D01*
X122195215Y-139989660D01*
X122265770Y-140206803D01*
X122369288Y-140409966D01*
X122369421Y-140410228D01*
X122503621Y-140594937D01*
X122665063Y-140756379D01*
X122849772Y-140890579D01*
X122945884Y-140939550D01*
X123053196Y-140994229D01*
X123053198Y-140994229D01*
X123053201Y-140994231D01*
X123169592Y-141032049D01*
X123270339Y-141064784D01*
X123495838Y-141100500D01*
X123495843Y-141100500D01*
X123724162Y-141100500D01*
X123949660Y-141064784D01*
X123951165Y-141064295D01*
X124166799Y-140994231D01*
X124370228Y-140890579D01*
X124554937Y-140756379D01*
X124716379Y-140594937D01*
X124850579Y-140410228D01*
X124954231Y-140206799D01*
X125024784Y-139989660D01*
X125024802Y-139989544D01*
X125060500Y-139764162D01*
X125060500Y-138235883D01*
X127160000Y-138235883D01*
X127160000Y-138750000D01*
X128009999Y-138750000D01*
X127984979Y-138810402D01*
X127960000Y-138935981D01*
X127960000Y-139064019D01*
X127984979Y-139189598D01*
X128009999Y-139250000D01*
X127160000Y-139250000D01*
X127160000Y-139764116D01*
X127195704Y-139989544D01*
X127266230Y-140206604D01*
X127369849Y-140409966D01*
X127504004Y-140594614D01*
X127665385Y-140755995D01*
X127850033Y-140890150D01*
X128053395Y-140993769D01*
X128270455Y-141064295D01*
X128360000Y-141078478D01*
X128360000Y-139600001D01*
X128420402Y-139625021D01*
X128545981Y-139650000D01*
X128674019Y-139650000D01*
X128799598Y-139625021D01*
X128860000Y-139600001D01*
X128860000Y-141078477D01*
X128949544Y-141064295D01*
X129166604Y-140993769D01*
X129369966Y-140890150D01*
X129554614Y-140755995D01*
X129715995Y-140594614D01*
X129850150Y-140409966D01*
X129953769Y-140206604D01*
X130024295Y-139989544D01*
X130060000Y-139764116D01*
X130060000Y-139250000D01*
X129210001Y-139250000D01*
X129235021Y-139189598D01*
X129260000Y-139064019D01*
X129260000Y-138935981D01*
X129235021Y-138810402D01*
X129210001Y-138750000D01*
X130060000Y-138750000D01*
X130060000Y-138235883D01*
X130059993Y-138235837D01*
X137709500Y-138235837D01*
X137709500Y-139764162D01*
X137745215Y-139989660D01*
X137815770Y-140206803D01*
X137919288Y-140409966D01*
X137919421Y-140410228D01*
X138053621Y-140594937D01*
X138215063Y-140756379D01*
X138399772Y-140890579D01*
X138495884Y-140939550D01*
X138603196Y-140994229D01*
X138603198Y-140994229D01*
X138603201Y-140994231D01*
X138719592Y-141032049D01*
X138820339Y-141064784D01*
X139045838Y-141100500D01*
X139045843Y-141100500D01*
X139274162Y-141100500D01*
X139499660Y-141064784D01*
X139501165Y-141064295D01*
X139716799Y-140994231D01*
X139920228Y-140890579D01*
X140104937Y-140756379D01*
X140266379Y-140594937D01*
X140400579Y-140410228D01*
X140504231Y-140206799D01*
X140574784Y-139989660D01*
X140574802Y-139989544D01*
X140610500Y-139764162D01*
X140610500Y-138235883D01*
X142710000Y-138235883D01*
X142710000Y-138750000D01*
X143559999Y-138750000D01*
X143534979Y-138810402D01*
X143510000Y-138935981D01*
X143510000Y-139064019D01*
X143534979Y-139189598D01*
X143559999Y-139250000D01*
X142710000Y-139250000D01*
X142710000Y-139764116D01*
X142745704Y-139989544D01*
X142816230Y-140206604D01*
X142919849Y-140409966D01*
X143054004Y-140594614D01*
X143215385Y-140755995D01*
X143400033Y-140890150D01*
X143603395Y-140993769D01*
X143820455Y-141064295D01*
X143910000Y-141078478D01*
X143910000Y-139600001D01*
X143970402Y-139625021D01*
X144095981Y-139650000D01*
X144224019Y-139650000D01*
X144349598Y-139625021D01*
X144410000Y-139600001D01*
X144410000Y-141078478D01*
X144499544Y-141064295D01*
X144716604Y-140993769D01*
X144919966Y-140890150D01*
X145104614Y-140755995D01*
X145265995Y-140594614D01*
X145400150Y-140409966D01*
X145503769Y-140206604D01*
X145574295Y-139989544D01*
X145610000Y-139764116D01*
X145610000Y-139250000D01*
X144760001Y-139250000D01*
X144785021Y-139189598D01*
X144810000Y-139064019D01*
X144810000Y-138935981D01*
X144785021Y-138810402D01*
X144760001Y-138750000D01*
X145610000Y-138750000D01*
X145610000Y-138235883D01*
X145609993Y-138235837D01*
X153259500Y-138235837D01*
X153259500Y-139764162D01*
X153295215Y-139989660D01*
X153365770Y-140206803D01*
X153469288Y-140409966D01*
X153469421Y-140410228D01*
X153603621Y-140594937D01*
X153765063Y-140756379D01*
X153949772Y-140890579D01*
X154045884Y-140939550D01*
X154153196Y-140994229D01*
X154153198Y-140994229D01*
X154153201Y-140994231D01*
X154269592Y-141032049D01*
X154370339Y-141064784D01*
X154595838Y-141100500D01*
X154595843Y-141100500D01*
X154824162Y-141100500D01*
X155049660Y-141064784D01*
X155051165Y-141064295D01*
X155266799Y-140994231D01*
X155470228Y-140890579D01*
X155654937Y-140756379D01*
X155816379Y-140594937D01*
X155950579Y-140410228D01*
X156054231Y-140206799D01*
X156124784Y-139989660D01*
X156124802Y-139989544D01*
X156160500Y-139764162D01*
X156160500Y-138235883D01*
X158260000Y-138235883D01*
X158260000Y-138750000D01*
X159109999Y-138750000D01*
X159084979Y-138810402D01*
X159060000Y-138935981D01*
X159060000Y-139064019D01*
X159084979Y-139189598D01*
X159109999Y-139250000D01*
X158260000Y-139250000D01*
X158260000Y-139764116D01*
X158295704Y-139989544D01*
X158366230Y-140206604D01*
X158469849Y-140409966D01*
X158604004Y-140594614D01*
X158765385Y-140755995D01*
X158950033Y-140890150D01*
X159153395Y-140993769D01*
X159370455Y-141064295D01*
X159460000Y-141078478D01*
X159460000Y-139600001D01*
X159520402Y-139625021D01*
X159645981Y-139650000D01*
X159774019Y-139650000D01*
X159899598Y-139625021D01*
X159960000Y-139600001D01*
X159960000Y-141078477D01*
X160049544Y-141064295D01*
X160266604Y-140993769D01*
X160469966Y-140890150D01*
X160654614Y-140755995D01*
X160815995Y-140594614D01*
X160950150Y-140409966D01*
X161053769Y-140206604D01*
X161124295Y-139989544D01*
X161160000Y-139764116D01*
X161160000Y-139250000D01*
X160310001Y-139250000D01*
X160335021Y-139189598D01*
X160360000Y-139064019D01*
X160360000Y-138935981D01*
X160335021Y-138810402D01*
X160310001Y-138750000D01*
X161160000Y-138750000D01*
X161160000Y-138235883D01*
X161159993Y-138235837D01*
X168809500Y-138235837D01*
X168809500Y-139764162D01*
X168845215Y-139989660D01*
X168915770Y-140206803D01*
X169019288Y-140409966D01*
X169019421Y-140410228D01*
X169153621Y-140594937D01*
X169315063Y-140756379D01*
X169499772Y-140890579D01*
X169595884Y-140939550D01*
X169703196Y-140994229D01*
X169703198Y-140994229D01*
X169703201Y-140994231D01*
X169819592Y-141032049D01*
X169920339Y-141064784D01*
X170145838Y-141100500D01*
X170145843Y-141100500D01*
X170374162Y-141100500D01*
X170599660Y-141064784D01*
X170601165Y-141064295D01*
X170816799Y-140994231D01*
X171020228Y-140890579D01*
X171204937Y-140756379D01*
X171366379Y-140594937D01*
X171500579Y-140410228D01*
X171604231Y-140206799D01*
X171674784Y-139989660D01*
X171674802Y-139989544D01*
X171710500Y-139764162D01*
X171710500Y-138235883D01*
X173810000Y-138235883D01*
X173810000Y-138750000D01*
X174659999Y-138750000D01*
X174634979Y-138810402D01*
X174610000Y-138935981D01*
X174610000Y-139064019D01*
X174634979Y-139189598D01*
X174659999Y-139250000D01*
X173810000Y-139250000D01*
X173810000Y-139764116D01*
X173845704Y-139989544D01*
X173916230Y-140206604D01*
X174019849Y-140409966D01*
X174154004Y-140594614D01*
X174315385Y-140755995D01*
X174500033Y-140890150D01*
X174703395Y-140993769D01*
X174920455Y-141064295D01*
X175010000Y-141078478D01*
X175010000Y-139600001D01*
X175070402Y-139625021D01*
X175195981Y-139650000D01*
X175324019Y-139650000D01*
X175449598Y-139625021D01*
X175510000Y-139600001D01*
X175510000Y-141078477D01*
X175599544Y-141064295D01*
X175816604Y-140993769D01*
X176019966Y-140890150D01*
X176204614Y-140755995D01*
X176365995Y-140594614D01*
X176500150Y-140409966D01*
X176603769Y-140206604D01*
X176674295Y-139989544D01*
X176710000Y-139764116D01*
X176710000Y-139250000D01*
X175860001Y-139250000D01*
X175885021Y-139189598D01*
X175910000Y-139064019D01*
X175910000Y-138935981D01*
X175885021Y-138810402D01*
X175860001Y-138750000D01*
X176710000Y-138750000D01*
X176710000Y-138235883D01*
X176701188Y-138180246D01*
X176698887Y-138165720D01*
X189145000Y-138165720D01*
X189145000Y-138374279D01*
X189177626Y-138580272D01*
X189242075Y-138778627D01*
X189336759Y-138964451D01*
X189372627Y-139013818D01*
X189372627Y-139013819D01*
X189946212Y-138440234D01*
X189957482Y-138482292D01*
X190029890Y-138607708D01*
X190132292Y-138710110D01*
X190257708Y-138782518D01*
X190299765Y-138793787D01*
X189726179Y-139367371D01*
X189726180Y-139367372D01*
X189775543Y-139403236D01*
X189775556Y-139403244D01*
X189961372Y-139497924D01*
X190159727Y-139562373D01*
X190365721Y-139595000D01*
X190574279Y-139595000D01*
X190780272Y-139562373D01*
X190978627Y-139497924D01*
X191164451Y-139403240D01*
X191213818Y-139367372D01*
X191213818Y-139367371D01*
X190640234Y-138793787D01*
X190682292Y-138782518D01*
X190807708Y-138710110D01*
X190910110Y-138607708D01*
X190982518Y-138482292D01*
X190993787Y-138440234D01*
X191567371Y-139013818D01*
X191567372Y-139013818D01*
X191603240Y-138964451D01*
X191697924Y-138778627D01*
X191762373Y-138580272D01*
X191795000Y-138374279D01*
X191795000Y-138165720D01*
X191762373Y-137959727D01*
X191697924Y-137761372D01*
X191603244Y-137575556D01*
X191603236Y-137575543D01*
X191567372Y-137526180D01*
X191567371Y-137526179D01*
X190993787Y-138099764D01*
X190982518Y-138057708D01*
X190910110Y-137932292D01*
X190807708Y-137829890D01*
X190682292Y-137757482D01*
X190640233Y-137746212D01*
X191213819Y-137172627D01*
X191164451Y-137136759D01*
X190978627Y-137042075D01*
X190780272Y-136977626D01*
X190574279Y-136945000D01*
X190365721Y-136945000D01*
X190159727Y-136977626D01*
X189961372Y-137042075D01*
X189775552Y-137136757D01*
X189726180Y-137172627D01*
X190299766Y-137746212D01*
X190257708Y-137757482D01*
X190132292Y-137829890D01*
X190029890Y-137932292D01*
X189957482Y-138057708D01*
X189946212Y-138099765D01*
X189372627Y-137526180D01*
X189336757Y-137575552D01*
X189242075Y-137761372D01*
X189177626Y-137959727D01*
X189145000Y-138165720D01*
X176698887Y-138165720D01*
X176674295Y-138010455D01*
X176603769Y-137793395D01*
X176500150Y-137590033D01*
X176365995Y-137405385D01*
X176204614Y-137244004D01*
X176019966Y-137109849D01*
X175816602Y-137006229D01*
X175599541Y-136935703D01*
X175510000Y-136921521D01*
X175510000Y-138399998D01*
X175449598Y-138374979D01*
X175324019Y-138350000D01*
X175195981Y-138350000D01*
X175070402Y-138374979D01*
X175010000Y-138399998D01*
X175010000Y-136921521D01*
X175009999Y-136921521D01*
X174920458Y-136935703D01*
X174703397Y-137006229D01*
X174500033Y-137109849D01*
X174315385Y-137244004D01*
X174154004Y-137405385D01*
X174019849Y-137590033D01*
X173916230Y-137793395D01*
X173845704Y-138010455D01*
X173810000Y-138235883D01*
X171710500Y-138235883D01*
X171710500Y-138235837D01*
X171674784Y-138010339D01*
X171604229Y-137793196D01*
X171549550Y-137685884D01*
X171500579Y-137589772D01*
X171366379Y-137405063D01*
X171204937Y-137243621D01*
X171020228Y-137109421D01*
X170816803Y-137005770D01*
X170599660Y-136935215D01*
X170374162Y-136899500D01*
X170374157Y-136899500D01*
X170145843Y-136899500D01*
X170145838Y-136899500D01*
X169920339Y-136935215D01*
X169703196Y-137005770D01*
X169499771Y-137109421D01*
X169315061Y-137243622D01*
X169153622Y-137405061D01*
X169019421Y-137589771D01*
X168915770Y-137793196D01*
X168845215Y-138010339D01*
X168809500Y-138235837D01*
X161159993Y-138235837D01*
X161124295Y-138010455D01*
X161053769Y-137793395D01*
X160950150Y-137590033D01*
X160815995Y-137405385D01*
X160654614Y-137244004D01*
X160469966Y-137109849D01*
X160266602Y-137006229D01*
X160049541Y-136935703D01*
X159960000Y-136921521D01*
X159960000Y-138399998D01*
X159899598Y-138374979D01*
X159774019Y-138350000D01*
X159645981Y-138350000D01*
X159520402Y-138374979D01*
X159460000Y-138399998D01*
X159460000Y-136921521D01*
X159459999Y-136921521D01*
X159370458Y-136935703D01*
X159153397Y-137006229D01*
X158950033Y-137109849D01*
X158765385Y-137244004D01*
X158604004Y-137405385D01*
X158469849Y-137590033D01*
X158366230Y-137793395D01*
X158295704Y-138010455D01*
X158260000Y-138235883D01*
X156160500Y-138235883D01*
X156160500Y-138235837D01*
X156124784Y-138010339D01*
X156054229Y-137793196D01*
X155999550Y-137685884D01*
X155950579Y-137589772D01*
X155816379Y-137405063D01*
X155654937Y-137243621D01*
X155470228Y-137109421D01*
X155266803Y-137005770D01*
X155049660Y-136935215D01*
X154824162Y-136899500D01*
X154824157Y-136899500D01*
X154595843Y-136899500D01*
X154595838Y-136899500D01*
X154370339Y-136935215D01*
X154153196Y-137005770D01*
X153949771Y-137109421D01*
X153765061Y-137243622D01*
X153603622Y-137405061D01*
X153469421Y-137589771D01*
X153365770Y-137793196D01*
X153295215Y-138010339D01*
X153259500Y-138235837D01*
X145609993Y-138235837D01*
X145574295Y-138010455D01*
X145503769Y-137793395D01*
X145400150Y-137590033D01*
X145265995Y-137405385D01*
X145104614Y-137244004D01*
X144919966Y-137109849D01*
X144716602Y-137006229D01*
X144499541Y-136935703D01*
X144410000Y-136921521D01*
X144410000Y-138399998D01*
X144349598Y-138374979D01*
X144224019Y-138350000D01*
X144095981Y-138350000D01*
X143970402Y-138374979D01*
X143910000Y-138399998D01*
X143910000Y-136921521D01*
X143909999Y-136921521D01*
X143820458Y-136935703D01*
X143603397Y-137006229D01*
X143400033Y-137109849D01*
X143215385Y-137244004D01*
X143054004Y-137405385D01*
X142919849Y-137590033D01*
X142816230Y-137793395D01*
X142745704Y-138010455D01*
X142710000Y-138235883D01*
X140610500Y-138235883D01*
X140610500Y-138235837D01*
X140574784Y-138010339D01*
X140504229Y-137793196D01*
X140449550Y-137685884D01*
X140400579Y-137589772D01*
X140266379Y-137405063D01*
X140104937Y-137243621D01*
X139920228Y-137109421D01*
X139716803Y-137005770D01*
X139499660Y-136935215D01*
X139274162Y-136899500D01*
X139274157Y-136899500D01*
X139045843Y-136899500D01*
X139045838Y-136899500D01*
X138820339Y-136935215D01*
X138603196Y-137005770D01*
X138399771Y-137109421D01*
X138215061Y-137243622D01*
X138053622Y-137405061D01*
X137919421Y-137589771D01*
X137815770Y-137793196D01*
X137745215Y-138010339D01*
X137709500Y-138235837D01*
X130059993Y-138235837D01*
X130024295Y-138010455D01*
X129953769Y-137793395D01*
X129850150Y-137590033D01*
X129715995Y-137405385D01*
X129554614Y-137244004D01*
X129369966Y-137109849D01*
X129166602Y-137006229D01*
X128949541Y-136935703D01*
X128860000Y-136921521D01*
X128860000Y-138399998D01*
X128799598Y-138374979D01*
X128674019Y-138350000D01*
X128545981Y-138350000D01*
X128420402Y-138374979D01*
X128360000Y-138399998D01*
X128360000Y-136921521D01*
X128359999Y-136921521D01*
X128270458Y-136935703D01*
X128053397Y-137006229D01*
X127850033Y-137109849D01*
X127665385Y-137244004D01*
X127504004Y-137405385D01*
X127369849Y-137590033D01*
X127266230Y-137793395D01*
X127195704Y-138010455D01*
X127160000Y-138235883D01*
X125060500Y-138235883D01*
X125060500Y-138235837D01*
X125024784Y-138010339D01*
X124954229Y-137793196D01*
X124899550Y-137685884D01*
X124850579Y-137589772D01*
X124716379Y-137405063D01*
X124554937Y-137243621D01*
X124370228Y-137109421D01*
X124166803Y-137005770D01*
X123949660Y-136935215D01*
X123724162Y-136899500D01*
X123724157Y-136899500D01*
X123495843Y-136899500D01*
X123495838Y-136899500D01*
X123270339Y-136935215D01*
X123053196Y-137005770D01*
X122849771Y-137109421D01*
X122665061Y-137243622D01*
X122503622Y-137405061D01*
X122369421Y-137589771D01*
X122265770Y-137793196D01*
X122195215Y-138010339D01*
X122159500Y-138235837D01*
X114509993Y-138235837D01*
X114474295Y-138010455D01*
X114403769Y-137793395D01*
X114300150Y-137590033D01*
X114165995Y-137405385D01*
X114004614Y-137244004D01*
X113819966Y-137109849D01*
X113616602Y-137006229D01*
X113399541Y-136935703D01*
X113310000Y-136921521D01*
X113310000Y-138399998D01*
X113249598Y-138374979D01*
X113124019Y-138350000D01*
X112995981Y-138350000D01*
X112870402Y-138374979D01*
X112810000Y-138399998D01*
X112810000Y-136921521D01*
X112809999Y-136921521D01*
X112720458Y-136935703D01*
X112503397Y-137006229D01*
X112300033Y-137109849D01*
X112115385Y-137244004D01*
X111954004Y-137405385D01*
X111819849Y-137590033D01*
X111716230Y-137793395D01*
X111645704Y-138010455D01*
X111610000Y-138235883D01*
X109510500Y-138235883D01*
X109510500Y-138235837D01*
X109474784Y-138010339D01*
X109404229Y-137793196D01*
X109349550Y-137685884D01*
X109300579Y-137589772D01*
X109166379Y-137405063D01*
X109004937Y-137243621D01*
X108820228Y-137109421D01*
X108616803Y-137005770D01*
X108399660Y-136935215D01*
X108174162Y-136899500D01*
X108174157Y-136899500D01*
X107945843Y-136899500D01*
X107945838Y-136899500D01*
X107720339Y-136935215D01*
X107503196Y-137005770D01*
X107299771Y-137109421D01*
X107115061Y-137243622D01*
X106953622Y-137405061D01*
X106819421Y-137589771D01*
X106715770Y-137793196D01*
X106645215Y-138010339D01*
X106609500Y-138235837D01*
X85090000Y-138235837D01*
X85090000Y-92607682D01*
X96570000Y-92607682D01*
X96570000Y-92812317D01*
X96602009Y-93014417D01*
X96665244Y-93209031D01*
X96758141Y-93391350D01*
X96758147Y-93391359D01*
X96790523Y-93435921D01*
X96790524Y-93435922D01*
X97470000Y-92756446D01*
X97470000Y-92762661D01*
X97497259Y-92864394D01*
X97549920Y-92955606D01*
X97624394Y-93030080D01*
X97715606Y-93082741D01*
X97817339Y-93110000D01*
X97823553Y-93110000D01*
X97144076Y-93789474D01*
X97188650Y-93821859D01*
X97370968Y-93914755D01*
X97565582Y-93977990D01*
X97767683Y-94010000D01*
X97972317Y-94010000D01*
X98174417Y-93977990D01*
X98369031Y-93914755D01*
X98551349Y-93821859D01*
X98595921Y-93789474D01*
X97916447Y-93110000D01*
X97922661Y-93110000D01*
X98024394Y-93082741D01*
X98115606Y-93030080D01*
X98190080Y-92955606D01*
X98242741Y-92864394D01*
X98270000Y-92762661D01*
X98270000Y-92756448D01*
X98949474Y-93435922D01*
X98949474Y-93435921D01*
X98981859Y-93391349D01*
X99074755Y-93209031D01*
X99137990Y-93014417D01*
X99170000Y-92812317D01*
X99170000Y-92607682D01*
X99169995Y-92607648D01*
X101569500Y-92607648D01*
X101569500Y-92812352D01*
X101572045Y-92828422D01*
X101601522Y-93014534D01*
X101664781Y-93209223D01*
X101728691Y-93334653D01*
X101757585Y-93391359D01*
X101757715Y-93391613D01*
X101878028Y-93557213D01*
X102022786Y-93701971D01*
X102156470Y-93799096D01*
X102188390Y-93822287D01*
X102272319Y-93865051D01*
X102370776Y-93915218D01*
X102370778Y-93915218D01*
X102370781Y-93915220D01*
X102475137Y-93949127D01*
X102565465Y-93978477D01*
X102666557Y-93994488D01*
X102767648Y-94010500D01*
X102767649Y-94010500D01*
X102972351Y-94010500D01*
X102972352Y-94010500D01*
X103174534Y-93978477D01*
X103369219Y-93915220D01*
X103551610Y-93822287D01*
X103664726Y-93740104D01*
X103717213Y-93701971D01*
X103717215Y-93701968D01*
X103717219Y-93701966D01*
X103861966Y-93557219D01*
X103861968Y-93557215D01*
X103861971Y-93557213D01*
X103924087Y-93471716D01*
X103982287Y-93391610D01*
X104075220Y-93209219D01*
X104138477Y-93014534D01*
X104170500Y-92812352D01*
X104170500Y-92607648D01*
X104152923Y-92496675D01*
X104138477Y-92405465D01*
X104077286Y-92217140D01*
X104075220Y-92210781D01*
X104075218Y-92210778D01*
X104075218Y-92210776D01*
X104041503Y-92144607D01*
X103982287Y-92028390D01*
X103963433Y-92002439D01*
X103861971Y-91862786D01*
X103714496Y-91715311D01*
X103681011Y-91653988D01*
X103678177Y-91627630D01*
X103678177Y-84174499D01*
X103697862Y-84107460D01*
X103750666Y-84061705D01*
X103802177Y-84050499D01*
X104747679Y-84050499D01*
X104747685Y-84050499D01*
X104850474Y-84039999D01*
X105017011Y-83984814D01*
X105166333Y-83892712D01*
X105290389Y-83768656D01*
X105382491Y-83619334D01*
X105382491Y-83619332D01*
X105386282Y-83613187D01*
X105388076Y-83614293D01*
X105427364Y-83569663D01*
X105493585Y-83550500D01*
X125264218Y-83550500D01*
X125331257Y-83570185D01*
X125351899Y-83586819D01*
X129423181Y-87658101D01*
X129456666Y-87719424D01*
X129459500Y-87745782D01*
X129459500Y-88527870D01*
X129459501Y-88527876D01*
X129465908Y-88587483D01*
X129516202Y-88722328D01*
X129516206Y-88722335D01*
X129602452Y-88837544D01*
X129602455Y-88837547D01*
X129717664Y-88923793D01*
X129717671Y-88923797D01*
X129849082Y-88972810D01*
X129905016Y-89014681D01*
X129929433Y-89080145D01*
X129914582Y-89148418D01*
X129893431Y-89176673D01*
X129779889Y-89290215D01*
X129654951Y-89462179D01*
X129558444Y-89651585D01*
X129492753Y-89853760D01*
X129459500Y-90063713D01*
X129459500Y-90276286D01*
X129492212Y-90482826D01*
X129492754Y-90486243D01*
X129552066Y-90668787D01*
X129558444Y-90688414D01*
X129654951Y-90877820D01*
X129779890Y-91049786D01*
X129930213Y-91200109D01*
X130102179Y-91325048D01*
X130102181Y-91325049D01*
X130102184Y-91325051D01*
X130111493Y-91329794D01*
X130162290Y-91377766D01*
X130179087Y-91445587D01*
X130156552Y-91511722D01*
X130111505Y-91550760D01*
X130102446Y-91555376D01*
X130102440Y-91555380D01*
X130048282Y-91594727D01*
X130048282Y-91594728D01*
X130680591Y-92227037D01*
X130617007Y-92244075D01*
X130502993Y-92309901D01*
X130409901Y-92402993D01*
X130344075Y-92517007D01*
X130327037Y-92580591D01*
X129694728Y-91948282D01*
X129694727Y-91948282D01*
X129655380Y-92002439D01*
X129558904Y-92191782D01*
X129493242Y-92393869D01*
X129493242Y-92393872D01*
X129460000Y-92603753D01*
X129460000Y-92816246D01*
X129493242Y-93026127D01*
X129493242Y-93026130D01*
X129558904Y-93228217D01*
X129655375Y-93417550D01*
X129694728Y-93471716D01*
X130327037Y-92839408D01*
X130344075Y-92902993D01*
X130409901Y-93017007D01*
X130502993Y-93110099D01*
X130617007Y-93175925D01*
X130680590Y-93192962D01*
X130048282Y-93825269D01*
X130048282Y-93825270D01*
X130102452Y-93864626D01*
X130102451Y-93864626D01*
X130111495Y-93869234D01*
X130162292Y-93917208D01*
X130179087Y-93985029D01*
X130156550Y-94051164D01*
X130111499Y-94090202D01*
X130102182Y-94094949D01*
X129930213Y-94219890D01*
X129779890Y-94370213D01*
X129654951Y-94542179D01*
X129558444Y-94731585D01*
X129492753Y-94933760D01*
X129459500Y-95143713D01*
X129459500Y-95356286D01*
X129492753Y-95566239D01*
X129558444Y-95768414D01*
X129654951Y-95957820D01*
X129779890Y-96129786D01*
X129930213Y-96280109D01*
X130102182Y-96405050D01*
X130110946Y-96409516D01*
X130161742Y-96457491D01*
X130178536Y-96525312D01*
X130155998Y-96591447D01*
X130110946Y-96630484D01*
X130102182Y-96634949D01*
X129930213Y-96759890D01*
X129779890Y-96910213D01*
X129654951Y-97082179D01*
X129558444Y-97271585D01*
X129492753Y-97473760D01*
X129459500Y-97683713D01*
X129459500Y-97896286D01*
X129492753Y-98106239D01*
X129558444Y-98308414D01*
X129654951Y-98497820D01*
X129779890Y-98669786D01*
X129930213Y-98820109D01*
X130102182Y-98945050D01*
X130110946Y-98949516D01*
X130161742Y-98997491D01*
X130178536Y-99065312D01*
X130155998Y-99131447D01*
X130110946Y-99170484D01*
X130102182Y-99174949D01*
X129930213Y-99299890D01*
X129779890Y-99450213D01*
X129654951Y-99622179D01*
X129558444Y-99811585D01*
X129492753Y-100013760D01*
X129459500Y-100223713D01*
X129459500Y-100436286D01*
X129492316Y-100643482D01*
X129492754Y-100646243D01*
X129539735Y-100790836D01*
X129558444Y-100848414D01*
X129654951Y-101037820D01*
X129779890Y-101209786D01*
X129930213Y-101360109D01*
X130102182Y-101485050D01*
X130110946Y-101489516D01*
X130161742Y-101537491D01*
X130178536Y-101605312D01*
X130155998Y-101671447D01*
X130110946Y-101710484D01*
X130102182Y-101714949D01*
X129930213Y-101839890D01*
X129779890Y-101990213D01*
X129654951Y-102162179D01*
X129558444Y-102351585D01*
X129492753Y-102553760D01*
X129459500Y-102763713D01*
X129459500Y-102976287D01*
X129492754Y-103186243D01*
X129506976Y-103230015D01*
X129558444Y-103388414D01*
X129654951Y-103577820D01*
X129779890Y-103749786D01*
X129930213Y-103900109D01*
X130102182Y-104025050D01*
X130110946Y-104029516D01*
X130161742Y-104077491D01*
X130178536Y-104145312D01*
X130155998Y-104211447D01*
X130110946Y-104250484D01*
X130102182Y-104254949D01*
X129930213Y-104379890D01*
X129779890Y-104530213D01*
X129654951Y-104702179D01*
X129558444Y-104891585D01*
X129492753Y-105093760D01*
X129459500Y-105303713D01*
X129459500Y-105516287D01*
X129492754Y-105726243D01*
X129548558Y-105897990D01*
X129558444Y-105928414D01*
X129654951Y-106117820D01*
X129779890Y-106289786D01*
X129930213Y-106440109D01*
X130102182Y-106565050D01*
X130110946Y-106569516D01*
X130161742Y-106617491D01*
X130178536Y-106685312D01*
X130155998Y-106751447D01*
X130110946Y-106790484D01*
X130102182Y-106794949D01*
X129930213Y-106919890D01*
X129779890Y-107070213D01*
X129654951Y-107242179D01*
X129558444Y-107431585D01*
X129492753Y-107633760D01*
X129459500Y-107843713D01*
X129459500Y-108056286D01*
X129492753Y-108266239D01*
X129558444Y-108468414D01*
X129654951Y-108657820D01*
X129779890Y-108829786D01*
X129930213Y-108980109D01*
X130102182Y-109105050D01*
X130110946Y-109109516D01*
X130161742Y-109157491D01*
X130178536Y-109225312D01*
X130155998Y-109291447D01*
X130110946Y-109330484D01*
X130102182Y-109334949D01*
X129930213Y-109459890D01*
X129779890Y-109610213D01*
X129654951Y-109782179D01*
X129558444Y-109971585D01*
X129492753Y-110173760D01*
X129459500Y-110383713D01*
X129459500Y-110596286D01*
X129492753Y-110806239D01*
X129558444Y-111008414D01*
X129654951Y-111197820D01*
X129779890Y-111369786D01*
X129930213Y-111520109D01*
X130102182Y-111645050D01*
X130110946Y-111649516D01*
X130161742Y-111697491D01*
X130178536Y-111765312D01*
X130155998Y-111831447D01*
X130110946Y-111870484D01*
X130102182Y-111874949D01*
X129930213Y-111999890D01*
X129779890Y-112150213D01*
X129654951Y-112322179D01*
X129558444Y-112511585D01*
X129492753Y-112713760D01*
X129459500Y-112923713D01*
X129459500Y-113136286D01*
X129484167Y-113292031D01*
X129492754Y-113346243D01*
X129531016Y-113464002D01*
X129558444Y-113548414D01*
X129654951Y-113737820D01*
X129779890Y-113909786D01*
X129930213Y-114060109D01*
X130102182Y-114185050D01*
X130110946Y-114189516D01*
X130161742Y-114237491D01*
X130178536Y-114305312D01*
X130155998Y-114371447D01*
X130110946Y-114410484D01*
X130102182Y-114414949D01*
X129930213Y-114539890D01*
X129779890Y-114690213D01*
X129654951Y-114862179D01*
X129558444Y-115051585D01*
X129492753Y-115253760D01*
X129459500Y-115463713D01*
X129459500Y-115676286D01*
X129492753Y-115886240D01*
X129554794Y-116077182D01*
X129556789Y-116147023D01*
X129520709Y-116206856D01*
X129458008Y-116237684D01*
X129436863Y-116239500D01*
X110790097Y-116239500D01*
X110760656Y-116230855D01*
X110730670Y-116224332D01*
X110725654Y-116220577D01*
X110723058Y-116219815D01*
X110702416Y-116203181D01*
X110553757Y-116054522D01*
X110520272Y-115993199D01*
X110523507Y-115928523D01*
X110537246Y-115886243D01*
X110570500Y-115676287D01*
X110570500Y-115463713D01*
X110537246Y-115253757D01*
X110471557Y-115051588D01*
X110375051Y-114862184D01*
X110375049Y-114862181D01*
X110375048Y-114862179D01*
X110250109Y-114690213D01*
X110099786Y-114539890D01*
X109927820Y-114414951D01*
X109927115Y-114414591D01*
X109919054Y-114410485D01*
X109868259Y-114362512D01*
X109851463Y-114294692D01*
X109873999Y-114228556D01*
X109919054Y-114189515D01*
X109927816Y-114185051D01*
X110011059Y-114124572D01*
X110099786Y-114060109D01*
X110099788Y-114060106D01*
X110099792Y-114060104D01*
X110250104Y-113909792D01*
X110250106Y-113909788D01*
X110250109Y-113909786D01*
X110375048Y-113737820D01*
X110375047Y-113737820D01*
X110375051Y-113737816D01*
X110471557Y-113548412D01*
X110537246Y-113346243D01*
X110570500Y-113136287D01*
X110570500Y-112923713D01*
X110537246Y-112713757D01*
X110471557Y-112511588D01*
X110375051Y-112322184D01*
X110375049Y-112322181D01*
X110375048Y-112322179D01*
X110250109Y-112150213D01*
X110099786Y-111999890D01*
X109927817Y-111874949D01*
X109918504Y-111870204D01*
X109867707Y-111822230D01*
X109850912Y-111754409D01*
X109873449Y-111688274D01*
X109918507Y-111649232D01*
X109927555Y-111644622D01*
X109981716Y-111605270D01*
X109981717Y-111605270D01*
X109349408Y-110972962D01*
X109412993Y-110955925D01*
X109527007Y-110890099D01*
X109620099Y-110797007D01*
X109685925Y-110682993D01*
X109702962Y-110619409D01*
X110335270Y-111251717D01*
X110335270Y-111251716D01*
X110374622Y-111197554D01*
X110471095Y-111008217D01*
X110536757Y-110806130D01*
X110536757Y-110806127D01*
X110570000Y-110596246D01*
X110570000Y-110383753D01*
X110536757Y-110173872D01*
X110536757Y-110173869D01*
X110471095Y-109971782D01*
X110374624Y-109782449D01*
X110335270Y-109728282D01*
X110335269Y-109728282D01*
X109702962Y-110360590D01*
X109685925Y-110297007D01*
X109620099Y-110182993D01*
X109527007Y-110089901D01*
X109412993Y-110024075D01*
X109349409Y-110007037D01*
X109981716Y-109374728D01*
X109927547Y-109335373D01*
X109927547Y-109335372D01*
X109918500Y-109330763D01*
X109867706Y-109282788D01*
X109850912Y-109214966D01*
X109873451Y-109148832D01*
X109918508Y-109109793D01*
X109927816Y-109105051D01*
X110007007Y-109047515D01*
X110099786Y-108980109D01*
X110099788Y-108980106D01*
X110099792Y-108980104D01*
X110250104Y-108829792D01*
X110250106Y-108829788D01*
X110250109Y-108829786D01*
X110375048Y-108657820D01*
X110375047Y-108657820D01*
X110375051Y-108657816D01*
X110471557Y-108468412D01*
X110537246Y-108266243D01*
X110570500Y-108056287D01*
X110570500Y-107843713D01*
X110537246Y-107633757D01*
X110471557Y-107431588D01*
X110375051Y-107242184D01*
X110375049Y-107242181D01*
X110375048Y-107242179D01*
X110250109Y-107070213D01*
X110099786Y-106919890D01*
X109927820Y-106794951D01*
X109927115Y-106794591D01*
X109919054Y-106790485D01*
X109868259Y-106742512D01*
X109851463Y-106674692D01*
X109873999Y-106608556D01*
X109919054Y-106569515D01*
X109927816Y-106565051D01*
X109949789Y-106549086D01*
X110099786Y-106440109D01*
X110099788Y-106440106D01*
X110099792Y-106440104D01*
X110250104Y-106289792D01*
X110250106Y-106289788D01*
X110250109Y-106289786D01*
X110375048Y-106117820D01*
X110375047Y-106117820D01*
X110375051Y-106117816D01*
X110471557Y-105928412D01*
X110537246Y-105726243D01*
X110570500Y-105516287D01*
X110570500Y-105303713D01*
X110537246Y-105093757D01*
X110471557Y-104891588D01*
X110375051Y-104702184D01*
X110375049Y-104702181D01*
X110375048Y-104702179D01*
X110250109Y-104530213D01*
X110099786Y-104379890D01*
X109927820Y-104254951D01*
X109927115Y-104254591D01*
X109919054Y-104250485D01*
X109868259Y-104202512D01*
X109851463Y-104134692D01*
X109873999Y-104068556D01*
X109919054Y-104029515D01*
X109927816Y-104025051D01*
X109971009Y-103993670D01*
X110099786Y-103900109D01*
X110099788Y-103900106D01*
X110099792Y-103900104D01*
X110250104Y-103749792D01*
X110250106Y-103749788D01*
X110250109Y-103749786D01*
X110375048Y-103577820D01*
X110375047Y-103577820D01*
X110375051Y-103577816D01*
X110471557Y-103388412D01*
X110537246Y-103186243D01*
X110570500Y-102976287D01*
X110570500Y-102763713D01*
X110537246Y-102553757D01*
X110471557Y-102351588D01*
X110375051Y-102162184D01*
X110375049Y-102162181D01*
X110375048Y-102162179D01*
X110250109Y-101990213D01*
X110099786Y-101839890D01*
X109927820Y-101714951D01*
X109927115Y-101714591D01*
X109919054Y-101710485D01*
X109868259Y-101662512D01*
X109851463Y-101594692D01*
X109873999Y-101528556D01*
X109919054Y-101489515D01*
X109927816Y-101485051D01*
X109986321Y-101442545D01*
X110099786Y-101360109D01*
X110099788Y-101360106D01*
X110099792Y-101360104D01*
X110250104Y-101209792D01*
X110250106Y-101209788D01*
X110250109Y-101209786D01*
X110375048Y-101037820D01*
X110375047Y-101037820D01*
X110375051Y-101037816D01*
X110471557Y-100848412D01*
X110537246Y-100646243D01*
X110570500Y-100436287D01*
X110570500Y-100223713D01*
X110537246Y-100013757D01*
X110471557Y-99811588D01*
X110375051Y-99622184D01*
X110375049Y-99622181D01*
X110375048Y-99622179D01*
X110250109Y-99450213D01*
X110099786Y-99299890D01*
X109927820Y-99174951D01*
X109927115Y-99174591D01*
X109919054Y-99170485D01*
X109868259Y-99122512D01*
X109851463Y-99054692D01*
X109873999Y-98988556D01*
X109919054Y-98949515D01*
X109927816Y-98945051D01*
X109949789Y-98929086D01*
X110099786Y-98820109D01*
X110099788Y-98820106D01*
X110099792Y-98820104D01*
X110250104Y-98669792D01*
X110250106Y-98669788D01*
X110250109Y-98669786D01*
X110375048Y-98497820D01*
X110375047Y-98497820D01*
X110375051Y-98497816D01*
X110471557Y-98308412D01*
X110537246Y-98106243D01*
X110570500Y-97896287D01*
X110570500Y-97683713D01*
X110537246Y-97473757D01*
X110471557Y-97271588D01*
X110375051Y-97082184D01*
X110375049Y-97082181D01*
X110375048Y-97082179D01*
X110250109Y-96910213D01*
X110099786Y-96759890D01*
X109927820Y-96634951D01*
X109927115Y-96634591D01*
X109919054Y-96630485D01*
X109868259Y-96582512D01*
X109851463Y-96514692D01*
X109873999Y-96448556D01*
X109919054Y-96409515D01*
X109927816Y-96405051D01*
X109949789Y-96389086D01*
X110099786Y-96280109D01*
X110099788Y-96280106D01*
X110099792Y-96280104D01*
X110250104Y-96129792D01*
X110250106Y-96129788D01*
X110250109Y-96129786D01*
X110375048Y-95957820D01*
X110375047Y-95957820D01*
X110375051Y-95957816D01*
X110471557Y-95768412D01*
X110537246Y-95566243D01*
X110570500Y-95356287D01*
X110570500Y-95143713D01*
X110537246Y-94933757D01*
X110471557Y-94731588D01*
X110375051Y-94542184D01*
X110375049Y-94542181D01*
X110375048Y-94542179D01*
X110250109Y-94370213D01*
X110099786Y-94219890D01*
X109927820Y-94094951D01*
X109927115Y-94094591D01*
X109919054Y-94090485D01*
X109868259Y-94042512D01*
X109851463Y-93974692D01*
X109873999Y-93908556D01*
X109919054Y-93869515D01*
X109927816Y-93865051D01*
X110018007Y-93799524D01*
X110099786Y-93740109D01*
X110099788Y-93740106D01*
X110099792Y-93740104D01*
X110250104Y-93589792D01*
X110250106Y-93589788D01*
X110250109Y-93589786D01*
X110375048Y-93417820D01*
X110375047Y-93417820D01*
X110375051Y-93417816D01*
X110471557Y-93228412D01*
X110537246Y-93026243D01*
X110570500Y-92816287D01*
X110570500Y-92603713D01*
X110537246Y-92393757D01*
X110471557Y-92191588D01*
X110375051Y-92002184D01*
X110375049Y-92002181D01*
X110375048Y-92002179D01*
X110250109Y-91830213D01*
X110099786Y-91679890D01*
X109927820Y-91554951D01*
X109919600Y-91550763D01*
X109919054Y-91550485D01*
X109868259Y-91502512D01*
X109851463Y-91434692D01*
X109873999Y-91368556D01*
X109919054Y-91329515D01*
X109927816Y-91325051D01*
X110018007Y-91259524D01*
X110099786Y-91200109D01*
X110099788Y-91200106D01*
X110099792Y-91200104D01*
X110250104Y-91049792D01*
X110250106Y-91049788D01*
X110250109Y-91049786D01*
X110375048Y-90877820D01*
X110375047Y-90877820D01*
X110375051Y-90877816D01*
X110471557Y-90688412D01*
X110537246Y-90486243D01*
X110570500Y-90276287D01*
X110570500Y-90063713D01*
X110537246Y-89853757D01*
X110471557Y-89651588D01*
X110375051Y-89462184D01*
X110375049Y-89462181D01*
X110375048Y-89462179D01*
X110250109Y-89290213D01*
X110136569Y-89176673D01*
X110103084Y-89115350D01*
X110108068Y-89045658D01*
X110149940Y-88989725D01*
X110180915Y-88972810D01*
X110312331Y-88923796D01*
X110427546Y-88837546D01*
X110513796Y-88722331D01*
X110564091Y-88587483D01*
X110570500Y-88527873D01*
X110570499Y-86732128D01*
X110564091Y-86672517D01*
X110513796Y-86537669D01*
X110513795Y-86537668D01*
X110513793Y-86537664D01*
X110427547Y-86422455D01*
X110427544Y-86422452D01*
X110312335Y-86336206D01*
X110312328Y-86336202D01*
X110177482Y-86285908D01*
X110177483Y-86285908D01*
X110117883Y-86279501D01*
X110117881Y-86279500D01*
X110117873Y-86279500D01*
X110117864Y-86279500D01*
X108322129Y-86279500D01*
X108322123Y-86279501D01*
X108262516Y-86285908D01*
X108127671Y-86336202D01*
X108127664Y-86336206D01*
X108012455Y-86422452D01*
X108012452Y-86422455D01*
X107926206Y-86537664D01*
X107926202Y-86537671D01*
X107875908Y-86672517D01*
X107869501Y-86732116D01*
X107869501Y-86732123D01*
X107869500Y-86732135D01*
X107869500Y-88527870D01*
X107869501Y-88527876D01*
X107875908Y-88587483D01*
X107926202Y-88722328D01*
X107926206Y-88722335D01*
X108012452Y-88837544D01*
X108012455Y-88837547D01*
X108127664Y-88923793D01*
X108127671Y-88923797D01*
X108259082Y-88972810D01*
X108315016Y-89014681D01*
X108339433Y-89080145D01*
X108324582Y-89148418D01*
X108303431Y-89176673D01*
X108189889Y-89290215D01*
X108064951Y-89462179D01*
X107968444Y-89651585D01*
X107902753Y-89853760D01*
X107869500Y-90063713D01*
X107869500Y-90276286D01*
X107902212Y-90482826D01*
X107902754Y-90486243D01*
X107962066Y-90668787D01*
X107968444Y-90688414D01*
X108064951Y-90877820D01*
X108189890Y-91049786D01*
X108340213Y-91200109D01*
X108512182Y-91325050D01*
X108520946Y-91329516D01*
X108571742Y-91377491D01*
X108588536Y-91445312D01*
X108565998Y-91511447D01*
X108520946Y-91550484D01*
X108512182Y-91554949D01*
X108340213Y-91679890D01*
X108189890Y-91830213D01*
X108064951Y-92002179D01*
X107968444Y-92191585D01*
X107902753Y-92393760D01*
X107869500Y-92603713D01*
X107869500Y-92816286D01*
X107902735Y-93026127D01*
X107902754Y-93026243D01*
X107962066Y-93208787D01*
X107968444Y-93228414D01*
X108064951Y-93417820D01*
X108189890Y-93589786D01*
X108340213Y-93740109D01*
X108512182Y-93865050D01*
X108520946Y-93869516D01*
X108571742Y-93917491D01*
X108588536Y-93985312D01*
X108565998Y-94051447D01*
X108520946Y-94090484D01*
X108512182Y-94094949D01*
X108340213Y-94219890D01*
X108189890Y-94370213D01*
X108064951Y-94542179D01*
X107968444Y-94731585D01*
X107902753Y-94933760D01*
X107869500Y-95143713D01*
X107869500Y-95356286D01*
X107902753Y-95566239D01*
X107968444Y-95768414D01*
X108064951Y-95957820D01*
X108189890Y-96129786D01*
X108340213Y-96280109D01*
X108512182Y-96405050D01*
X108520946Y-96409516D01*
X108571742Y-96457491D01*
X108588536Y-96525312D01*
X108565998Y-96591447D01*
X108520946Y-96630484D01*
X108512182Y-96634949D01*
X108340213Y-96759890D01*
X108189890Y-96910213D01*
X108064951Y-97082179D01*
X107968444Y-97271585D01*
X107902753Y-97473760D01*
X107869500Y-97683713D01*
X107869500Y-97896286D01*
X107902753Y-98106239D01*
X107968444Y-98308414D01*
X108064951Y-98497820D01*
X108189890Y-98669786D01*
X108340213Y-98820109D01*
X108512182Y-98945050D01*
X108520946Y-98949516D01*
X108571742Y-98997491D01*
X108588536Y-99065312D01*
X108565998Y-99131447D01*
X108520946Y-99170484D01*
X108512182Y-99174949D01*
X108340213Y-99299890D01*
X108189890Y-99450213D01*
X108064951Y-99622179D01*
X107968444Y-99811585D01*
X107902753Y-100013760D01*
X107869500Y-100223713D01*
X107869500Y-100436286D01*
X107902316Y-100643482D01*
X107902754Y-100646243D01*
X107949735Y-100790836D01*
X107968444Y-100848414D01*
X108064951Y-101037820D01*
X108189890Y-101209786D01*
X108340213Y-101360109D01*
X108512182Y-101485050D01*
X108520946Y-101489516D01*
X108571742Y-101537491D01*
X108588536Y-101605312D01*
X108565998Y-101671447D01*
X108520946Y-101710484D01*
X108512182Y-101714949D01*
X108340213Y-101839890D01*
X108189890Y-101990213D01*
X108064951Y-102162179D01*
X107968444Y-102351585D01*
X107902753Y-102553760D01*
X107869500Y-102763713D01*
X107869500Y-102976287D01*
X107902754Y-103186243D01*
X107916976Y-103230015D01*
X107968444Y-103388414D01*
X108064951Y-103577820D01*
X108189890Y-103749786D01*
X108340213Y-103900109D01*
X108512182Y-104025050D01*
X108520946Y-104029516D01*
X108571742Y-104077491D01*
X108588536Y-104145312D01*
X108565998Y-104211447D01*
X108520946Y-104250484D01*
X108512182Y-104254949D01*
X108340213Y-104379890D01*
X108189890Y-104530213D01*
X108064951Y-104702179D01*
X107968444Y-104891585D01*
X107902753Y-105093760D01*
X107869500Y-105303713D01*
X107869500Y-105516287D01*
X107902754Y-105726243D01*
X107958558Y-105897990D01*
X107968444Y-105928414D01*
X108064951Y-106117820D01*
X108189890Y-106289786D01*
X108340213Y-106440109D01*
X108512182Y-106565050D01*
X108520946Y-106569516D01*
X108571742Y-106617491D01*
X108588536Y-106685312D01*
X108565998Y-106751447D01*
X108520946Y-106790484D01*
X108512182Y-106794949D01*
X108340213Y-106919890D01*
X108189890Y-107070213D01*
X108064951Y-107242179D01*
X107968444Y-107431585D01*
X107902753Y-107633760D01*
X107869500Y-107843713D01*
X107869500Y-108056286D01*
X107902753Y-108266239D01*
X107968444Y-108468414D01*
X108064951Y-108657820D01*
X108189890Y-108829786D01*
X108340213Y-108980109D01*
X108512179Y-109105048D01*
X108512181Y-109105049D01*
X108512184Y-109105051D01*
X108521493Y-109109794D01*
X108572290Y-109157766D01*
X108589087Y-109225587D01*
X108566552Y-109291722D01*
X108521505Y-109330760D01*
X108512446Y-109335376D01*
X108512440Y-109335380D01*
X108458282Y-109374727D01*
X108458282Y-109374728D01*
X109090591Y-110007037D01*
X109027007Y-110024075D01*
X108912993Y-110089901D01*
X108819901Y-110182993D01*
X108754075Y-110297007D01*
X108737037Y-110360591D01*
X108104728Y-109728282D01*
X108104727Y-109728282D01*
X108065380Y-109782439D01*
X107968904Y-109971782D01*
X107903242Y-110173869D01*
X107903242Y-110173872D01*
X107870000Y-110383753D01*
X107870000Y-110596246D01*
X107903242Y-110806127D01*
X107903242Y-110806130D01*
X107968904Y-111008217D01*
X108065375Y-111197550D01*
X108104728Y-111251716D01*
X108737037Y-110619408D01*
X108754075Y-110682993D01*
X108819901Y-110797007D01*
X108912993Y-110890099D01*
X109027007Y-110955925D01*
X109090590Y-110972962D01*
X108458282Y-111605269D01*
X108458282Y-111605270D01*
X108512452Y-111644626D01*
X108512451Y-111644626D01*
X108521495Y-111649234D01*
X108572292Y-111697208D01*
X108589087Y-111765029D01*
X108566550Y-111831164D01*
X108521499Y-111870202D01*
X108512182Y-111874949D01*
X108340213Y-111999890D01*
X108189890Y-112150213D01*
X108064951Y-112322179D01*
X107968444Y-112511585D01*
X107902753Y-112713760D01*
X107869500Y-112923713D01*
X107869500Y-113136286D01*
X107894167Y-113292031D01*
X107902754Y-113346243D01*
X107941016Y-113464002D01*
X107968444Y-113548414D01*
X108064951Y-113737820D01*
X108189890Y-113909786D01*
X108340213Y-114060109D01*
X108512182Y-114185050D01*
X108520946Y-114189516D01*
X108571742Y-114237491D01*
X108588536Y-114305312D01*
X108565998Y-114371447D01*
X108520946Y-114410484D01*
X108512182Y-114414949D01*
X108340213Y-114539890D01*
X108189890Y-114690213D01*
X108064951Y-114862179D01*
X107968444Y-115051585D01*
X107902753Y-115253760D01*
X107869500Y-115463713D01*
X107869500Y-115676286D01*
X107902753Y-115886239D01*
X107902753Y-115886241D01*
X107902754Y-115886243D01*
X107957431Y-116054522D01*
X107968444Y-116088414D01*
X108064951Y-116277820D01*
X108189890Y-116449786D01*
X108340213Y-116600109D01*
X108512182Y-116725050D01*
X108520946Y-116729516D01*
X108571742Y-116777491D01*
X108588536Y-116845312D01*
X108565998Y-116911447D01*
X108520946Y-116950484D01*
X108512182Y-116954949D01*
X108340213Y-117079890D01*
X108189890Y-117230213D01*
X108064951Y-117402179D01*
X107968444Y-117591585D01*
X107902753Y-117793760D01*
X107869500Y-118003713D01*
X107869500Y-118216286D01*
X107894167Y-118372031D01*
X107902754Y-118426243D01*
X107967937Y-118626856D01*
X107968444Y-118628414D01*
X108064951Y-118817820D01*
X108189890Y-118989786D01*
X108340213Y-119140109D01*
X108512182Y-119265050D01*
X108520946Y-119269516D01*
X108571742Y-119317491D01*
X108588536Y-119385312D01*
X108565998Y-119451447D01*
X108520946Y-119490484D01*
X108512182Y-119494949D01*
X108340213Y-119619890D01*
X108189890Y-119770213D01*
X108064951Y-119942179D01*
X107968444Y-120131585D01*
X107902753Y-120333760D01*
X107884775Y-120447271D01*
X107869500Y-120543713D01*
X107869500Y-120756287D01*
X107902754Y-120966243D01*
X107941099Y-121084257D01*
X107968444Y-121168414D01*
X108064951Y-121357820D01*
X108189890Y-121529786D01*
X108340213Y-121680109D01*
X108512182Y-121805050D01*
X108520946Y-121809516D01*
X108571742Y-121857491D01*
X108588536Y-121925312D01*
X108565998Y-121991447D01*
X108520946Y-122030484D01*
X108512182Y-122034949D01*
X108340213Y-122159890D01*
X108189890Y-122310213D01*
X108064951Y-122482179D01*
X107968444Y-122671585D01*
X107902753Y-122873760D01*
X107889796Y-122955571D01*
X107869500Y-123083713D01*
X107869500Y-123296287D01*
X107902754Y-123506243D01*
X107957779Y-123675593D01*
X107968444Y-123708414D01*
X108064951Y-123897820D01*
X108189890Y-124069786D01*
X108340213Y-124220109D01*
X108512179Y-124345048D01*
X108512181Y-124345049D01*
X108512184Y-124345051D01*
X108521493Y-124349794D01*
X108572290Y-124397766D01*
X108589087Y-124465587D01*
X108566552Y-124531722D01*
X108521505Y-124570760D01*
X108512446Y-124575376D01*
X108512440Y-124575380D01*
X108458282Y-124614727D01*
X108458282Y-124614728D01*
X109090591Y-125247037D01*
X109027007Y-125264075D01*
X108912993Y-125329901D01*
X108819901Y-125422993D01*
X108754075Y-125537007D01*
X108737037Y-125600591D01*
X108104728Y-124968282D01*
X108104727Y-124968282D01*
X108065380Y-125022439D01*
X107968904Y-125211782D01*
X107903242Y-125413869D01*
X107903242Y-125413872D01*
X107870000Y-125623753D01*
X107870000Y-125836246D01*
X107903242Y-126046127D01*
X107903242Y-126046130D01*
X107968904Y-126248217D01*
X108065375Y-126437550D01*
X108104728Y-126491716D01*
X108737037Y-125859408D01*
X108754075Y-125922993D01*
X108819901Y-126037007D01*
X108912993Y-126130099D01*
X109027007Y-126195925D01*
X109090590Y-126212962D01*
X108458282Y-126845269D01*
X108458282Y-126845270D01*
X108512449Y-126884624D01*
X108701782Y-126981095D01*
X108903870Y-127046757D01*
X109113754Y-127080000D01*
X109326246Y-127080000D01*
X109536127Y-127046757D01*
X109536130Y-127046757D01*
X109738217Y-126981095D01*
X109927554Y-126884622D01*
X109981716Y-126845270D01*
X109981717Y-126845270D01*
X109349408Y-126212962D01*
X109412993Y-126195925D01*
X109527007Y-126130099D01*
X109620099Y-126037007D01*
X109685925Y-125922993D01*
X109702962Y-125859409D01*
X110335270Y-126491717D01*
X110335270Y-126491716D01*
X110374622Y-126437554D01*
X110471095Y-126248217D01*
X110536757Y-126046130D01*
X110536757Y-126046127D01*
X110570000Y-125836246D01*
X110570000Y-125623753D01*
X110536757Y-125413872D01*
X110536757Y-125413869D01*
X110471095Y-125211782D01*
X110374624Y-125022449D01*
X110335270Y-124968282D01*
X110335269Y-124968282D01*
X109702962Y-125600590D01*
X109685925Y-125537007D01*
X109620099Y-125422993D01*
X109527007Y-125329901D01*
X109412993Y-125264075D01*
X109349409Y-125247037D01*
X109981716Y-124614728D01*
X109927547Y-124575373D01*
X109927547Y-124575372D01*
X109918500Y-124570763D01*
X109867706Y-124522788D01*
X109850912Y-124454966D01*
X109873451Y-124388832D01*
X109918508Y-124349793D01*
X109927816Y-124345051D01*
X110007007Y-124287515D01*
X110099786Y-124220109D01*
X110099788Y-124220106D01*
X110099792Y-124220104D01*
X110250104Y-124069792D01*
X110250106Y-124069788D01*
X110250109Y-124069786D01*
X110375048Y-123897820D01*
X110375047Y-123897820D01*
X110375051Y-123897816D01*
X110471557Y-123708412D01*
X110537246Y-123506243D01*
X110570500Y-123296287D01*
X110570500Y-123083713D01*
X110537246Y-122873757D01*
X110471557Y-122671588D01*
X110375051Y-122482184D01*
X110375049Y-122482181D01*
X110375048Y-122482179D01*
X110250109Y-122310213D01*
X110099786Y-122159890D01*
X109927820Y-122034951D01*
X109927115Y-122034591D01*
X109919054Y-122030485D01*
X109868259Y-121982512D01*
X109851463Y-121914692D01*
X109873999Y-121848556D01*
X109919054Y-121809515D01*
X109927816Y-121805051D01*
X109949789Y-121789086D01*
X110099786Y-121680109D01*
X110099788Y-121680106D01*
X110099792Y-121680104D01*
X110250104Y-121529792D01*
X110250106Y-121529788D01*
X110250109Y-121529786D01*
X110375048Y-121357820D01*
X110375047Y-121357820D01*
X110375051Y-121357816D01*
X110471557Y-121168412D01*
X110537246Y-120966243D01*
X110570500Y-120756287D01*
X110570500Y-120543713D01*
X110537246Y-120333757D01*
X110471557Y-120131588D01*
X110425296Y-120040795D01*
X110412400Y-119972125D01*
X110438677Y-119907385D01*
X110495783Y-119867128D01*
X110535781Y-119860500D01*
X129494219Y-119860500D01*
X129561258Y-119880185D01*
X129607013Y-119932989D01*
X129616957Y-120002147D01*
X129604704Y-120040795D01*
X129558444Y-120131585D01*
X129492753Y-120333760D01*
X129474775Y-120447271D01*
X129459500Y-120543713D01*
X129459500Y-120756287D01*
X129492754Y-120966243D01*
X129531099Y-121084257D01*
X129558444Y-121168414D01*
X129654951Y-121357820D01*
X129779890Y-121529786D01*
X129930213Y-121680109D01*
X130102182Y-121805050D01*
X130110946Y-121809516D01*
X130161742Y-121857491D01*
X130178536Y-121925312D01*
X130155998Y-121991447D01*
X130110946Y-122030484D01*
X130102182Y-122034949D01*
X129930213Y-122159890D01*
X129779890Y-122310213D01*
X129654951Y-122482179D01*
X129558444Y-122671585D01*
X129492753Y-122873760D01*
X129479796Y-122955571D01*
X129459500Y-123083713D01*
X129459500Y-123296287D01*
X129492754Y-123506243D01*
X129547779Y-123675593D01*
X129558444Y-123708414D01*
X129654951Y-123897820D01*
X129779890Y-124069786D01*
X129930213Y-124220109D01*
X130102182Y-124345050D01*
X130110946Y-124349516D01*
X130161742Y-124397491D01*
X130178536Y-124465312D01*
X130155998Y-124531447D01*
X130110946Y-124570484D01*
X130102182Y-124574949D01*
X129930213Y-124699890D01*
X129779890Y-124850213D01*
X129654951Y-125022179D01*
X129558444Y-125211585D01*
X129492753Y-125413760D01*
X129462501Y-125604763D01*
X129459500Y-125623713D01*
X129459500Y-125836287D01*
X129469534Y-125899644D01*
X129492735Y-126046127D01*
X129492754Y-126046243D01*
X129516087Y-126118055D01*
X129558444Y-126248414D01*
X129654951Y-126437820D01*
X129779890Y-126609786D01*
X129930213Y-126760109D01*
X130102179Y-126885048D01*
X130102181Y-126885049D01*
X130102184Y-126885051D01*
X130291588Y-126981557D01*
X130493757Y-127047246D01*
X130703713Y-127080500D01*
X130703714Y-127080500D01*
X130916286Y-127080500D01*
X130916287Y-127080500D01*
X131126243Y-127047246D01*
X131328412Y-126981557D01*
X131517816Y-126885051D01*
X131641079Y-126795496D01*
X131689786Y-126760109D01*
X131689788Y-126760106D01*
X131689792Y-126760104D01*
X131840104Y-126609792D01*
X131840106Y-126609788D01*
X131840109Y-126609786D01*
X131965048Y-126437820D01*
X131965047Y-126437820D01*
X131965051Y-126437816D01*
X132061557Y-126248412D01*
X132127246Y-126046243D01*
X132160500Y-125836287D01*
X132160500Y-125623713D01*
X132127246Y-125413757D01*
X132104096Y-125342508D01*
X152939500Y-125342508D01*
X152939500Y-125604763D01*
X152955989Y-125729999D01*
X152973730Y-125864752D01*
X153033079Y-126086246D01*
X153041602Y-126118054D01*
X153041605Y-126118064D01*
X153141953Y-126360326D01*
X153141958Y-126360336D01*
X153273075Y-126587439D01*
X153432718Y-126795487D01*
X153432726Y-126795496D01*
X153618140Y-126980910D01*
X153618148Y-126980917D01*
X153826196Y-127140560D01*
X154053299Y-127271677D01*
X154053309Y-127271682D01*
X154295571Y-127372030D01*
X154295581Y-127372034D01*
X154548884Y-127439906D01*
X154808880Y-127474136D01*
X154808887Y-127474136D01*
X155071113Y-127474136D01*
X155071120Y-127474136D01*
X155331116Y-127439906D01*
X155584419Y-127372034D01*
X155826697Y-127271679D01*
X156053803Y-127140560D01*
X156261851Y-126980918D01*
X156261855Y-126980913D01*
X156261860Y-126980910D01*
X156447274Y-126795496D01*
X156447277Y-126795491D01*
X156447282Y-126795487D01*
X156606924Y-126587439D01*
X156738043Y-126360333D01*
X156751223Y-126328515D01*
X156838394Y-126118064D01*
X156838398Y-126118055D01*
X156906270Y-125864752D01*
X156940500Y-125604756D01*
X156940500Y-125342516D01*
X156939741Y-125336754D01*
X156937908Y-125322823D01*
X156936311Y-125310690D01*
X192309500Y-125310690D01*
X192309500Y-125572945D01*
X192330178Y-125729999D01*
X192343730Y-125832934D01*
X192400885Y-126046239D01*
X192411602Y-126086236D01*
X192411605Y-126086246D01*
X192511953Y-126328508D01*
X192511958Y-126328518D01*
X192643075Y-126555621D01*
X192802718Y-126763669D01*
X192802726Y-126763678D01*
X192988140Y-126949092D01*
X192988148Y-126949099D01*
X192988149Y-126949100D01*
X193036554Y-126986242D01*
X193196196Y-127108742D01*
X193423299Y-127239859D01*
X193423309Y-127239864D01*
X193665571Y-127340212D01*
X193665581Y-127340216D01*
X193918884Y-127408088D01*
X194178880Y-127442318D01*
X194178887Y-127442318D01*
X194441113Y-127442318D01*
X194441120Y-127442318D01*
X194701116Y-127408088D01*
X194954419Y-127340216D01*
X195196697Y-127239861D01*
X195423803Y-127108742D01*
X195631851Y-126949100D01*
X195631855Y-126949095D01*
X195631860Y-126949092D01*
X195817274Y-126763678D01*
X195817277Y-126763673D01*
X195817282Y-126763669D01*
X195976924Y-126555621D01*
X196108043Y-126328515D01*
X196208398Y-126086237D01*
X196276270Y-125832934D01*
X196310500Y-125572938D01*
X196310500Y-125310698D01*
X196276270Y-125050702D01*
X196208398Y-124797399D01*
X196168011Y-124699896D01*
X196108046Y-124555127D01*
X196108041Y-124555117D01*
X195976924Y-124328014D01*
X195882773Y-124205316D01*
X195817281Y-124119966D01*
X195817274Y-124119958D01*
X195631860Y-123934544D01*
X195631851Y-123934536D01*
X195423803Y-123774893D01*
X195196700Y-123643776D01*
X195196690Y-123643771D01*
X194954428Y-123543423D01*
X194954421Y-123543421D01*
X194954419Y-123543420D01*
X194701116Y-123475548D01*
X194643339Y-123467941D01*
X194441127Y-123441318D01*
X194441120Y-123441318D01*
X194178880Y-123441318D01*
X194178872Y-123441318D01*
X193947772Y-123471744D01*
X193918884Y-123475548D01*
X193724089Y-123527743D01*
X193665581Y-123543420D01*
X193665571Y-123543423D01*
X193423309Y-123643771D01*
X193423299Y-123643776D01*
X193196196Y-123774893D01*
X192988148Y-123934536D01*
X192802718Y-124119966D01*
X192643075Y-124328014D01*
X192511958Y-124555117D01*
X192511953Y-124555127D01*
X192411605Y-124797389D01*
X192411602Y-124797399D01*
X192351301Y-125022449D01*
X192343730Y-125050703D01*
X192309500Y-125310690D01*
X156936311Y-125310690D01*
X156923288Y-125211782D01*
X156906270Y-125082520D01*
X156838398Y-124829217D01*
X156825219Y-124797399D01*
X156738046Y-124586945D01*
X156738041Y-124586935D01*
X156606924Y-124359832D01*
X156447281Y-124151784D01*
X156447274Y-124151776D01*
X156261860Y-123966362D01*
X156261851Y-123966354D01*
X156053803Y-123806711D01*
X155826700Y-123675594D01*
X155826690Y-123675589D01*
X155584428Y-123575241D01*
X155584421Y-123575239D01*
X155584419Y-123575238D01*
X155331116Y-123507366D01*
X155273339Y-123499759D01*
X155071127Y-123473136D01*
X155071120Y-123473136D01*
X154808880Y-123473136D01*
X154808872Y-123473136D01*
X154577772Y-123503562D01*
X154548884Y-123507366D01*
X154295581Y-123575238D01*
X154295571Y-123575241D01*
X154053309Y-123675589D01*
X154053299Y-123675594D01*
X153826196Y-123806711D01*
X153618148Y-123966354D01*
X153432718Y-124151784D01*
X153273075Y-124359832D01*
X153141958Y-124586935D01*
X153141953Y-124586945D01*
X153041605Y-124829207D01*
X153041602Y-124829217D01*
X152982256Y-125050703D01*
X152973730Y-125082521D01*
X152939500Y-125342508D01*
X132104096Y-125342508D01*
X132061557Y-125211588D01*
X131965051Y-125022184D01*
X131965049Y-125022181D01*
X131965048Y-125022179D01*
X131840109Y-124850213D01*
X131689786Y-124699890D01*
X131517820Y-124574951D01*
X131509600Y-124570763D01*
X131509054Y-124570485D01*
X131458259Y-124522512D01*
X131441463Y-124454692D01*
X131463999Y-124388556D01*
X131509054Y-124349515D01*
X131517816Y-124345051D01*
X131541266Y-124328014D01*
X131689786Y-124220109D01*
X131689788Y-124220106D01*
X131689792Y-124220104D01*
X131840104Y-124069792D01*
X131840106Y-124069788D01*
X131840109Y-124069786D01*
X131965048Y-123897820D01*
X131965047Y-123897820D01*
X131965051Y-123897816D01*
X132061557Y-123708412D01*
X132127246Y-123506243D01*
X132160500Y-123296287D01*
X132160500Y-123083713D01*
X132154038Y-123042913D01*
X132128113Y-122879227D01*
X132128113Y-122879226D01*
X132127247Y-122873763D01*
X132127246Y-122873760D01*
X132127246Y-122873757D01*
X132061557Y-122671588D01*
X131965051Y-122482184D01*
X131965049Y-122482181D01*
X131965048Y-122482179D01*
X131840109Y-122310213D01*
X131689786Y-122159890D01*
X131517820Y-122034951D01*
X131517115Y-122034591D01*
X131509054Y-122030485D01*
X131458259Y-121982512D01*
X131441463Y-121914692D01*
X131463999Y-121848556D01*
X131509054Y-121809515D01*
X131517816Y-121805051D01*
X131539789Y-121789086D01*
X131689786Y-121680109D01*
X131689788Y-121680106D01*
X131689792Y-121680104D01*
X131840104Y-121529792D01*
X131840106Y-121529788D01*
X131840109Y-121529786D01*
X131965048Y-121357820D01*
X131965047Y-121357820D01*
X131965051Y-121357816D01*
X132061557Y-121168412D01*
X132127246Y-120966243D01*
X132160500Y-120756287D01*
X132160500Y-120543713D01*
X132127246Y-120333757D01*
X132061557Y-120131588D01*
X132015296Y-120040795D01*
X132002400Y-119972125D01*
X132028677Y-119907385D01*
X132085783Y-119867128D01*
X132125781Y-119860500D01*
X152388451Y-119860500D01*
X152455490Y-119880185D01*
X152498935Y-119928205D01*
X152514949Y-119959634D01*
X152514952Y-119959638D01*
X152514956Y-119959644D01*
X152639890Y-120131604D01*
X152790213Y-120281927D01*
X152962179Y-120406866D01*
X152962181Y-120406867D01*
X152962184Y-120406869D01*
X152971493Y-120411612D01*
X153022290Y-120459584D01*
X153039087Y-120527405D01*
X153016552Y-120593540D01*
X152971505Y-120632578D01*
X152962446Y-120637194D01*
X152962440Y-120637198D01*
X152908282Y-120676545D01*
X152908282Y-120676546D01*
X153540591Y-121308855D01*
X153477007Y-121325893D01*
X153362993Y-121391719D01*
X153269901Y-121484811D01*
X153204075Y-121598825D01*
X153187037Y-121662409D01*
X152554728Y-121030100D01*
X152554727Y-121030100D01*
X152515380Y-121084257D01*
X152418904Y-121273600D01*
X152353242Y-121475687D01*
X152353242Y-121475690D01*
X152320000Y-121685571D01*
X152320000Y-121898064D01*
X152353242Y-122107945D01*
X152353242Y-122107948D01*
X152418904Y-122310035D01*
X152515375Y-122499368D01*
X152554728Y-122553534D01*
X153187037Y-121921226D01*
X153204075Y-121984811D01*
X153269901Y-122098825D01*
X153362993Y-122191917D01*
X153477007Y-122257743D01*
X153540590Y-122274780D01*
X152908282Y-122907087D01*
X152908282Y-122907088D01*
X152962449Y-122946442D01*
X153151782Y-123042913D01*
X153353870Y-123108575D01*
X153563754Y-123141818D01*
X153776246Y-123141818D01*
X153986127Y-123108575D01*
X153986130Y-123108575D01*
X154188217Y-123042913D01*
X154377554Y-122946440D01*
X154431716Y-122907088D01*
X154431717Y-122907088D01*
X153799408Y-122274780D01*
X153862993Y-122257743D01*
X153977007Y-122191917D01*
X154070099Y-122098825D01*
X154135925Y-121984811D01*
X154152962Y-121921226D01*
X154785270Y-122553535D01*
X154785270Y-122553534D01*
X154824622Y-122499372D01*
X154921095Y-122310035D01*
X154986757Y-122107948D01*
X154986757Y-122107945D01*
X155020000Y-121898064D01*
X155020000Y-121685571D01*
X154986757Y-121475690D01*
X154986757Y-121475687D01*
X154921095Y-121273600D01*
X154824624Y-121084267D01*
X154785270Y-121030100D01*
X154785269Y-121030100D01*
X154152962Y-121662408D01*
X154135925Y-121598825D01*
X154070099Y-121484811D01*
X153977007Y-121391719D01*
X153862993Y-121325893D01*
X153799409Y-121308855D01*
X154431716Y-120676546D01*
X154377547Y-120637191D01*
X154377547Y-120637190D01*
X154368500Y-120632581D01*
X154317706Y-120584606D01*
X154300912Y-120516784D01*
X154323451Y-120450650D01*
X154368508Y-120411611D01*
X154377816Y-120406869D01*
X154511461Y-120309771D01*
X154549786Y-120281927D01*
X154549788Y-120281924D01*
X154549792Y-120281922D01*
X154700104Y-120131610D01*
X154700106Y-120131606D01*
X154700109Y-120131604D01*
X154793108Y-120003600D01*
X154825051Y-119959634D01*
X154825349Y-119959048D01*
X154845235Y-119920023D01*
X154893209Y-119869227D01*
X154955719Y-119852318D01*
X156194281Y-119852318D01*
X156261320Y-119872003D01*
X156304765Y-119920023D01*
X156324947Y-119959632D01*
X156324948Y-119959633D01*
X156449890Y-120131604D01*
X156600213Y-120281927D01*
X156772179Y-120406866D01*
X156772181Y-120406867D01*
X156772184Y-120406869D01*
X156781493Y-120411612D01*
X156832290Y-120459584D01*
X156849087Y-120527405D01*
X156826552Y-120593540D01*
X156781505Y-120632578D01*
X156772446Y-120637194D01*
X156772440Y-120637198D01*
X156718282Y-120676545D01*
X156718282Y-120676546D01*
X157350591Y-121308855D01*
X157287007Y-121325893D01*
X157172993Y-121391719D01*
X157079901Y-121484811D01*
X157014075Y-121598825D01*
X156997037Y-121662409D01*
X156364728Y-121030100D01*
X156364727Y-121030100D01*
X156325380Y-121084257D01*
X156228904Y-121273600D01*
X156163242Y-121475687D01*
X156163242Y-121475690D01*
X156130000Y-121685571D01*
X156130000Y-121898064D01*
X156163242Y-122107945D01*
X156163242Y-122107948D01*
X156228904Y-122310035D01*
X156325375Y-122499368D01*
X156364728Y-122553534D01*
X156997036Y-121921225D01*
X157014075Y-121984811D01*
X157079901Y-122098825D01*
X157172993Y-122191917D01*
X157287007Y-122257743D01*
X157350590Y-122274780D01*
X156718282Y-122907087D01*
X156718282Y-122907088D01*
X156772449Y-122946442D01*
X156961782Y-123042913D01*
X157163870Y-123108575D01*
X157373754Y-123141818D01*
X157586246Y-123141818D01*
X157796127Y-123108575D01*
X157796130Y-123108575D01*
X157998217Y-123042913D01*
X158169634Y-122955571D01*
X201850000Y-122955571D01*
X201850000Y-123168064D01*
X201883242Y-123377945D01*
X201883242Y-123377948D01*
X201948904Y-123580035D01*
X202045375Y-123769368D01*
X202084728Y-123823534D01*
X202717037Y-123191226D01*
X202734075Y-123254811D01*
X202799901Y-123368825D01*
X202892993Y-123461917D01*
X203007007Y-123527743D01*
X203070590Y-123544780D01*
X202438282Y-124177087D01*
X202438282Y-124177088D01*
X202492449Y-124216442D01*
X202681782Y-124312913D01*
X202883870Y-124378575D01*
X203093754Y-124411818D01*
X203306246Y-124411818D01*
X203516127Y-124378575D01*
X203516130Y-124378575D01*
X203718217Y-124312913D01*
X203907554Y-124216440D01*
X203961716Y-124177088D01*
X203961717Y-124177088D01*
X203329408Y-123544780D01*
X203392993Y-123527743D01*
X203507007Y-123461917D01*
X203600099Y-123368825D01*
X203665925Y-123254811D01*
X203682962Y-123191226D01*
X204315270Y-123823535D01*
X204315270Y-123823534D01*
X204354622Y-123769372D01*
X204451095Y-123580035D01*
X204516757Y-123377948D01*
X204516757Y-123377945D01*
X204550000Y-123168064D01*
X204550000Y-122955571D01*
X204516757Y-122745690D01*
X204516757Y-122745687D01*
X204451095Y-122543600D01*
X204354624Y-122354267D01*
X204315270Y-122300100D01*
X204315269Y-122300100D01*
X203682962Y-122932408D01*
X203665925Y-122868825D01*
X203600099Y-122754811D01*
X203507007Y-122661719D01*
X203392993Y-122595893D01*
X203329409Y-122578855D01*
X203961716Y-121946546D01*
X203907550Y-121907193D01*
X203718217Y-121810722D01*
X203516129Y-121745060D01*
X203306246Y-121711818D01*
X203093754Y-121711818D01*
X202883872Y-121745060D01*
X202883869Y-121745060D01*
X202681782Y-121810722D01*
X202492439Y-121907198D01*
X202438282Y-121946545D01*
X202438282Y-121946546D01*
X203070591Y-122578855D01*
X203007007Y-122595893D01*
X202892993Y-122661719D01*
X202799901Y-122754811D01*
X202734075Y-122868825D01*
X202717037Y-122932408D01*
X202084728Y-122300100D01*
X202084727Y-122300100D01*
X202045380Y-122354257D01*
X201948904Y-122543600D01*
X201883242Y-122745687D01*
X201883242Y-122745690D01*
X201850000Y-122955571D01*
X158169634Y-122955571D01*
X158187554Y-122946440D01*
X158241717Y-122907088D01*
X157609408Y-122274780D01*
X157672993Y-122257743D01*
X157787007Y-122191917D01*
X157880099Y-122098825D01*
X157945925Y-121984811D01*
X157962962Y-121921226D01*
X158595270Y-122553535D01*
X158595270Y-122553534D01*
X158634622Y-122499372D01*
X158731095Y-122310035D01*
X158796757Y-122107948D01*
X158796757Y-122107945D01*
X158830000Y-121898064D01*
X158830000Y-121685571D01*
X158817908Y-121609227D01*
X158796757Y-121475690D01*
X158796757Y-121475687D01*
X158731095Y-121273600D01*
X158634624Y-121084267D01*
X158595270Y-121030100D01*
X158595269Y-121030100D01*
X157962962Y-121662408D01*
X157945925Y-121598825D01*
X157880099Y-121484811D01*
X157787007Y-121391719D01*
X157672993Y-121325893D01*
X157609409Y-121308855D01*
X158241716Y-120676546D01*
X158187547Y-120637191D01*
X158187547Y-120637190D01*
X158178500Y-120632581D01*
X158175745Y-120629979D01*
X158172070Y-120629061D01*
X158150547Y-120606179D01*
X158127706Y-120584606D01*
X158126795Y-120580928D01*
X158124199Y-120578168D01*
X158118461Y-120547274D01*
X158110912Y-120516784D01*
X158112134Y-120513198D01*
X158111442Y-120509472D01*
X158123316Y-120480386D01*
X158133451Y-120450650D01*
X158136836Y-120447271D01*
X158137851Y-120444786D01*
X158145945Y-120438181D01*
X158163559Y-120420604D01*
X158170708Y-120415585D01*
X158187816Y-120406869D01*
X158359792Y-120281922D01*
X158510104Y-120131610D01*
X158510106Y-120131606D01*
X158510109Y-120131604D01*
X158635048Y-119959638D01*
X158635047Y-119959638D01*
X158635051Y-119959634D01*
X158731557Y-119770230D01*
X158797246Y-119568061D01*
X158830500Y-119358105D01*
X158830500Y-119145531D01*
X158797246Y-118935575D01*
X158731557Y-118733406D01*
X158635051Y-118544002D01*
X158635049Y-118543999D01*
X158635048Y-118543997D01*
X158510109Y-118372031D01*
X158359786Y-118221708D01*
X158187820Y-118096769D01*
X158187115Y-118096409D01*
X158179054Y-118092303D01*
X158128259Y-118044330D01*
X158111463Y-117976510D01*
X158133999Y-117910374D01*
X158179054Y-117871333D01*
X158187816Y-117866869D01*
X158288447Y-117793757D01*
X158359786Y-117741927D01*
X158359788Y-117741924D01*
X158359792Y-117741922D01*
X158510104Y-117591610D01*
X158510106Y-117591606D01*
X158510109Y-117591604D01*
X158635048Y-117419638D01*
X158635047Y-117419638D01*
X158635051Y-117419634D01*
X158731557Y-117230230D01*
X158797246Y-117028061D01*
X158830500Y-116818105D01*
X158830500Y-116605531D01*
X158797246Y-116395575D01*
X158731557Y-116193406D01*
X158635051Y-116004002D01*
X158635049Y-116003999D01*
X158635048Y-116003997D01*
X158510109Y-115832031D01*
X158359786Y-115681708D01*
X158187820Y-115556769D01*
X158187115Y-115556409D01*
X158179054Y-115552303D01*
X158176319Y-115549719D01*
X158172670Y-115548810D01*
X158151119Y-115525920D01*
X158128259Y-115504330D01*
X158127354Y-115500677D01*
X158124775Y-115497938D01*
X158119020Y-115467026D01*
X158111463Y-115436510D01*
X158112676Y-115432948D01*
X158111988Y-115429249D01*
X158123857Y-115400135D01*
X158133999Y-115370374D01*
X158137359Y-115367018D01*
X158138366Y-115364550D01*
X158146408Y-115357984D01*
X158164064Y-115340357D01*
X158170932Y-115335531D01*
X192959500Y-115335531D01*
X192959500Y-115548105D01*
X192992754Y-115758061D01*
X193016788Y-115832031D01*
X193058444Y-115960232D01*
X193154951Y-116149638D01*
X193279890Y-116321604D01*
X193430213Y-116471927D01*
X193602182Y-116596868D01*
X193610946Y-116601334D01*
X193661742Y-116649309D01*
X193678536Y-116717130D01*
X193655998Y-116783265D01*
X193610946Y-116822302D01*
X193602182Y-116826767D01*
X193430213Y-116951708D01*
X193279890Y-117102031D01*
X193154951Y-117273997D01*
X193058444Y-117463403D01*
X192992753Y-117665578D01*
X192972451Y-117793760D01*
X192959500Y-117875531D01*
X192959500Y-118088105D01*
X192992754Y-118298061D01*
X193016788Y-118372031D01*
X193058444Y-118500232D01*
X193154951Y-118689638D01*
X193279890Y-118861604D01*
X193430213Y-119011927D01*
X193602179Y-119136866D01*
X193602181Y-119136867D01*
X193602184Y-119136869D01*
X193611493Y-119141612D01*
X193662290Y-119189584D01*
X193679087Y-119257405D01*
X193656552Y-119323540D01*
X193611505Y-119362578D01*
X193602446Y-119367194D01*
X193602440Y-119367198D01*
X193548282Y-119406545D01*
X193548282Y-119406546D01*
X194180591Y-120038855D01*
X194117007Y-120055893D01*
X194002993Y-120121719D01*
X193909901Y-120214811D01*
X193844075Y-120328825D01*
X193827037Y-120392409D01*
X193194728Y-119760100D01*
X193194727Y-119760100D01*
X193155380Y-119814257D01*
X193058904Y-120003600D01*
X192993242Y-120205687D01*
X192993242Y-120205690D01*
X192960000Y-120415571D01*
X192960000Y-120628064D01*
X192993242Y-120837945D01*
X192993242Y-120837948D01*
X193058904Y-121040035D01*
X193155375Y-121229368D01*
X193194728Y-121283534D01*
X193827037Y-120651226D01*
X193844075Y-120714811D01*
X193909901Y-120828825D01*
X194002993Y-120921917D01*
X194117007Y-120987743D01*
X194180590Y-121004780D01*
X193548282Y-121637087D01*
X193548282Y-121637088D01*
X193602449Y-121676442D01*
X193791782Y-121772913D01*
X193993870Y-121838575D01*
X194203754Y-121871818D01*
X194416241Y-121871818D01*
X194419316Y-121871331D01*
X194419326Y-121871330D01*
X194626127Y-121838575D01*
X194626130Y-121838575D01*
X194828217Y-121772913D01*
X195017554Y-121676440D01*
X195071716Y-121637088D01*
X195071717Y-121637088D01*
X194439408Y-121004780D01*
X194502993Y-120987743D01*
X194617007Y-120921917D01*
X194710099Y-120828825D01*
X194775925Y-120714811D01*
X194792962Y-120651226D01*
X195425270Y-121283535D01*
X195425270Y-121283534D01*
X195464622Y-121229372D01*
X195561095Y-121040035D01*
X195626757Y-120837948D01*
X195626757Y-120837945D01*
X195660000Y-120628064D01*
X195660000Y-120415571D01*
X195626757Y-120205690D01*
X195626757Y-120205687D01*
X195561095Y-120003600D01*
X195464624Y-119814267D01*
X195425270Y-119760100D01*
X195425269Y-119760100D01*
X194792962Y-120392408D01*
X194775925Y-120328825D01*
X194710099Y-120214811D01*
X194617007Y-120121719D01*
X194502993Y-120055893D01*
X194439409Y-120038855D01*
X195071716Y-119406546D01*
X195017547Y-119367191D01*
X195017547Y-119367190D01*
X195008500Y-119362581D01*
X194957706Y-119314606D01*
X194940912Y-119246784D01*
X194963451Y-119180650D01*
X195008508Y-119141611D01*
X195017816Y-119136869D01*
X195097007Y-119079333D01*
X195189786Y-119011927D01*
X195189788Y-119011924D01*
X195189792Y-119011922D01*
X195340104Y-118861610D01*
X195340106Y-118861606D01*
X195340109Y-118861604D01*
X195465048Y-118689638D01*
X195465047Y-118689638D01*
X195465051Y-118689634D01*
X195561557Y-118500230D01*
X195627246Y-118298061D01*
X195660500Y-118088105D01*
X195660500Y-117875531D01*
X201849500Y-117875531D01*
X201849500Y-118088105D01*
X201882754Y-118298061D01*
X201906788Y-118372031D01*
X201948444Y-118500232D01*
X202044951Y-118689638D01*
X202169890Y-118861604D01*
X202320213Y-119011927D01*
X202492179Y-119136866D01*
X202492181Y-119136867D01*
X202492184Y-119136869D01*
X202681588Y-119233375D01*
X202883757Y-119299064D01*
X203093713Y-119332318D01*
X203093714Y-119332318D01*
X203306286Y-119332318D01*
X203306287Y-119332318D01*
X203516243Y-119299064D01*
X203718412Y-119233375D01*
X203907816Y-119136869D01*
X203929789Y-119120904D01*
X204079786Y-119011927D01*
X204079788Y-119011924D01*
X204079792Y-119011922D01*
X204230104Y-118861610D01*
X204230106Y-118861606D01*
X204230109Y-118861604D01*
X204355048Y-118689638D01*
X204355047Y-118689638D01*
X204355051Y-118689634D01*
X204451557Y-118500230D01*
X204517246Y-118298061D01*
X204550500Y-118088105D01*
X204550500Y-117875531D01*
X204517246Y-117665575D01*
X204451557Y-117463406D01*
X204355051Y-117274002D01*
X204355049Y-117273999D01*
X204355048Y-117273997D01*
X204230109Y-117102031D01*
X204079786Y-116951708D01*
X203907820Y-116826769D01*
X203718414Y-116730262D01*
X203718413Y-116730261D01*
X203718412Y-116730261D01*
X203516243Y-116664572D01*
X203516241Y-116664571D01*
X203516240Y-116664571D01*
X203354957Y-116639026D01*
X203306287Y-116631318D01*
X203093713Y-116631318D01*
X203045042Y-116639026D01*
X202883760Y-116664571D01*
X202681585Y-116730262D01*
X202492179Y-116826769D01*
X202320213Y-116951708D01*
X202169890Y-117102031D01*
X202044951Y-117273997D01*
X201948444Y-117463403D01*
X201882753Y-117665578D01*
X201862451Y-117793760D01*
X201849500Y-117875531D01*
X195660500Y-117875531D01*
X195627246Y-117665575D01*
X195561557Y-117463406D01*
X195465051Y-117274002D01*
X195465049Y-117273999D01*
X195465048Y-117273997D01*
X195340109Y-117102031D01*
X195189786Y-116951708D01*
X195017820Y-116826769D01*
X195017115Y-116826409D01*
X195009054Y-116822303D01*
X194958259Y-116774330D01*
X194941463Y-116706510D01*
X194963999Y-116640374D01*
X195009054Y-116601333D01*
X195017816Y-116596869D01*
X195039789Y-116580904D01*
X195189786Y-116471927D01*
X195189788Y-116471924D01*
X195189792Y-116471922D01*
X195340104Y-116321610D01*
X195340106Y-116321606D01*
X195340109Y-116321604D01*
X195465048Y-116149638D01*
X195465047Y-116149638D01*
X195465051Y-116149634D01*
X195561557Y-115960230D01*
X195627246Y-115758061D01*
X195660500Y-115548105D01*
X195660500Y-115335531D01*
X195627246Y-115125575D01*
X195561557Y-114923406D01*
X195465051Y-114734002D01*
X195465049Y-114733999D01*
X195465048Y-114733997D01*
X195340109Y-114562031D01*
X195189786Y-114411708D01*
X195017820Y-114286769D01*
X194828414Y-114190262D01*
X194828413Y-114190261D01*
X194828412Y-114190261D01*
X194626243Y-114124572D01*
X194626241Y-114124571D01*
X194626240Y-114124571D01*
X194464957Y-114099026D01*
X194416287Y-114091318D01*
X194203713Y-114091318D01*
X194155042Y-114099026D01*
X193993760Y-114124571D01*
X193791585Y-114190262D01*
X193602179Y-114286769D01*
X193430213Y-114411708D01*
X193279890Y-114562031D01*
X193154951Y-114733997D01*
X193058444Y-114923403D01*
X192992753Y-115125578D01*
X192980661Y-115201927D01*
X192959500Y-115335531D01*
X158170932Y-115335531D01*
X158171241Y-115335314D01*
X158187816Y-115326869D01*
X158359792Y-115201922D01*
X158510104Y-115051610D01*
X158510106Y-115051606D01*
X158510109Y-115051604D01*
X158635048Y-114879638D01*
X158635047Y-114879638D01*
X158635051Y-114879634D01*
X158731557Y-114690230D01*
X158797246Y-114488061D01*
X158830500Y-114278105D01*
X158830500Y-114065531D01*
X158797246Y-113855575D01*
X158731557Y-113653406D01*
X158635051Y-113464002D01*
X158635049Y-113463999D01*
X158635048Y-113463997D01*
X158510109Y-113292031D01*
X158359786Y-113141708D01*
X158187820Y-113016769D01*
X157998416Y-112920262D01*
X157984876Y-112915862D01*
X157962490Y-112908589D01*
X157900191Y-112888346D01*
X157796243Y-112854572D01*
X157796241Y-112854571D01*
X157796240Y-112854571D01*
X157634957Y-112829026D01*
X157586287Y-112821318D01*
X157373713Y-112821318D01*
X157325042Y-112829026D01*
X157163760Y-112854571D01*
X157163757Y-112854572D01*
X156997508Y-112908590D01*
X156961585Y-112920262D01*
X156772179Y-113016769D01*
X156596266Y-113144577D01*
X156595635Y-113143709D01*
X156536581Y-113170177D01*
X156519800Y-113171318D01*
X154630200Y-113171318D01*
X154563161Y-113151633D01*
X154550634Y-113142324D01*
X154377820Y-113016769D01*
X154188414Y-112920262D01*
X154188413Y-112920261D01*
X154188412Y-112920261D01*
X153986243Y-112854572D01*
X153986241Y-112854571D01*
X153986240Y-112854571D01*
X153824957Y-112829026D01*
X153776287Y-112821318D01*
X153563713Y-112821318D01*
X153515042Y-112829026D01*
X153353760Y-112854571D01*
X153353757Y-112854572D01*
X153187508Y-112908590D01*
X153151585Y-112920262D01*
X152962179Y-113016769D01*
X152786266Y-113144577D01*
X152785635Y-113143709D01*
X152726581Y-113170177D01*
X152709800Y-113171318D01*
X150197600Y-113171318D01*
X150168159Y-113162673D01*
X150138173Y-113156150D01*
X150133157Y-113152395D01*
X150130561Y-113151633D01*
X150109919Y-113134999D01*
X150046819Y-113071899D01*
X150013334Y-113010576D01*
X150010500Y-112984218D01*
X150010500Y-112795531D01*
X201849500Y-112795531D01*
X201849500Y-113008105D01*
X201850872Y-113016767D01*
X201875350Y-113171318D01*
X201882754Y-113218061D01*
X201926098Y-113351460D01*
X201948444Y-113420232D01*
X202044951Y-113609638D01*
X202169890Y-113781604D01*
X202320213Y-113931927D01*
X202492179Y-114056866D01*
X202492181Y-114056867D01*
X202492184Y-114056869D01*
X202681588Y-114153375D01*
X202883757Y-114219064D01*
X203093713Y-114252318D01*
X203093714Y-114252318D01*
X203306286Y-114252318D01*
X203306287Y-114252318D01*
X203516243Y-114219064D01*
X203718412Y-114153375D01*
X203907816Y-114056869D01*
X203929789Y-114040904D01*
X204079786Y-113931927D01*
X204079788Y-113931924D01*
X204079792Y-113931922D01*
X204230104Y-113781610D01*
X204230106Y-113781606D01*
X204230109Y-113781604D01*
X204355048Y-113609638D01*
X204355047Y-113609638D01*
X204355051Y-113609634D01*
X204451557Y-113420230D01*
X204517246Y-113218061D01*
X204550500Y-113008105D01*
X204550500Y-112795531D01*
X204517246Y-112585575D01*
X204451557Y-112383406D01*
X204355051Y-112194002D01*
X204355049Y-112193999D01*
X204355048Y-112193997D01*
X204230109Y-112022031D01*
X204079786Y-111871708D01*
X203907820Y-111746769D01*
X203718414Y-111650262D01*
X203718413Y-111650261D01*
X203718412Y-111650261D01*
X203516243Y-111584572D01*
X203516241Y-111584571D01*
X203516240Y-111584571D01*
X203354957Y-111559026D01*
X203306287Y-111551318D01*
X203093713Y-111551318D01*
X203045042Y-111559026D01*
X202883760Y-111584571D01*
X202681585Y-111650262D01*
X202492179Y-111746769D01*
X202320213Y-111871708D01*
X202169890Y-112022031D01*
X202044951Y-112193997D01*
X201948444Y-112383403D01*
X201882753Y-112585578D01*
X201862452Y-112713757D01*
X201849500Y-112795531D01*
X150010500Y-112795531D01*
X150010500Y-110358872D01*
X152939500Y-110358872D01*
X152939500Y-110621127D01*
X152966123Y-110823339D01*
X152973730Y-110881116D01*
X153041602Y-111134418D01*
X153041605Y-111134428D01*
X153141953Y-111376690D01*
X153141958Y-111376700D01*
X153273075Y-111603803D01*
X153432718Y-111811851D01*
X153432726Y-111811860D01*
X153618140Y-111997274D01*
X153618148Y-111997281D01*
X153826196Y-112156924D01*
X154053299Y-112288041D01*
X154053309Y-112288046D01*
X154283522Y-112383403D01*
X154295581Y-112388398D01*
X154548884Y-112456270D01*
X154808880Y-112490500D01*
X154808887Y-112490500D01*
X155071113Y-112490500D01*
X155071120Y-112490500D01*
X155331116Y-112456270D01*
X155584419Y-112388398D01*
X155826697Y-112288043D01*
X156053803Y-112156924D01*
X156261851Y-111997282D01*
X156261855Y-111997277D01*
X156261860Y-111997274D01*
X156447274Y-111811860D01*
X156447277Y-111811855D01*
X156447282Y-111811851D01*
X156606924Y-111603803D01*
X156738043Y-111376697D01*
X156838398Y-111134419D01*
X156906270Y-110881116D01*
X156940500Y-110621120D01*
X156940500Y-110358880D01*
X156940499Y-110358872D01*
X192309500Y-110358872D01*
X192309500Y-110621127D01*
X192336123Y-110823339D01*
X192343730Y-110881116D01*
X192411602Y-111134418D01*
X192411605Y-111134428D01*
X192511953Y-111376690D01*
X192511958Y-111376700D01*
X192643075Y-111603803D01*
X192802718Y-111811851D01*
X192802726Y-111811860D01*
X192988140Y-111997274D01*
X192988148Y-111997281D01*
X193196196Y-112156924D01*
X193423299Y-112288041D01*
X193423309Y-112288046D01*
X193653522Y-112383403D01*
X193665581Y-112388398D01*
X193918884Y-112456270D01*
X194178880Y-112490500D01*
X194178887Y-112490500D01*
X194441113Y-112490500D01*
X194441120Y-112490500D01*
X194701116Y-112456270D01*
X194954419Y-112388398D01*
X195196697Y-112288043D01*
X195423803Y-112156924D01*
X195631851Y-111997282D01*
X195631855Y-111997277D01*
X195631860Y-111997274D01*
X195817274Y-111811860D01*
X195817277Y-111811855D01*
X195817282Y-111811851D01*
X195976924Y-111603803D01*
X196108043Y-111376697D01*
X196208398Y-111134419D01*
X196276270Y-110881116D01*
X196310500Y-110621120D01*
X196310500Y-110358880D01*
X196276270Y-110098884D01*
X196208398Y-109845581D01*
X196159811Y-109728282D01*
X196108046Y-109603309D01*
X196108041Y-109603299D01*
X195976924Y-109376196D01*
X195817281Y-109168148D01*
X195817274Y-109168140D01*
X195631860Y-108982726D01*
X195631851Y-108982718D01*
X195423803Y-108823075D01*
X195196700Y-108691958D01*
X195196690Y-108691953D01*
X194954428Y-108591605D01*
X194954421Y-108591603D01*
X194954419Y-108591602D01*
X194701116Y-108523730D01*
X194643339Y-108516123D01*
X194441127Y-108489500D01*
X194441120Y-108489500D01*
X194178880Y-108489500D01*
X194178872Y-108489500D01*
X193947772Y-108519926D01*
X193918884Y-108523730D01*
X193665581Y-108591602D01*
X193665571Y-108591605D01*
X193423309Y-108691953D01*
X193423299Y-108691958D01*
X193196196Y-108823075D01*
X192988148Y-108982718D01*
X192802718Y-109168148D01*
X192643075Y-109376196D01*
X192511958Y-109603299D01*
X192511953Y-109603309D01*
X192411605Y-109845571D01*
X192411602Y-109845581D01*
X192377840Y-109971585D01*
X192343730Y-110098885D01*
X192309500Y-110358872D01*
X156940499Y-110358872D01*
X156906270Y-110098884D01*
X156838398Y-109845581D01*
X156789811Y-109728282D01*
X156738046Y-109603309D01*
X156738041Y-109603299D01*
X156606924Y-109376196D01*
X156447281Y-109168148D01*
X156447274Y-109168140D01*
X156261860Y-108982726D01*
X156261851Y-108982718D01*
X156053803Y-108823075D01*
X155826700Y-108691958D01*
X155826690Y-108691953D01*
X155584428Y-108591605D01*
X155584421Y-108591603D01*
X155584419Y-108591602D01*
X155331116Y-108523730D01*
X155273339Y-108516123D01*
X155071127Y-108489500D01*
X155071120Y-108489500D01*
X154808880Y-108489500D01*
X154808872Y-108489500D01*
X154577772Y-108519926D01*
X154548884Y-108523730D01*
X154295581Y-108591602D01*
X154295571Y-108591605D01*
X154053309Y-108691953D01*
X154053299Y-108691958D01*
X153826196Y-108823075D01*
X153618148Y-108982718D01*
X153432718Y-109168148D01*
X153273075Y-109376196D01*
X153141958Y-109603299D01*
X153141953Y-109603309D01*
X153041605Y-109845571D01*
X153041602Y-109845581D01*
X153007840Y-109971585D01*
X152973730Y-110098885D01*
X152939500Y-110358872D01*
X150010500Y-110358872D01*
X150010500Y-104447947D01*
X150829500Y-104447947D01*
X150829500Y-104680052D01*
X150859794Y-104910148D01*
X150919862Y-105134328D01*
X151008677Y-105348745D01*
X151008685Y-105348762D01*
X151124720Y-105549743D01*
X151124721Y-105549745D01*
X151266009Y-105733875D01*
X151266015Y-105733882D01*
X151430117Y-105897984D01*
X151430124Y-105897990D01*
X151614254Y-106039278D01*
X151614256Y-106039279D01*
X151815237Y-106155314D01*
X151815240Y-106155315D01*
X151815248Y-106155320D01*
X152029670Y-106244137D01*
X152253851Y-106304206D01*
X152483955Y-106334500D01*
X152483962Y-106334500D01*
X152716038Y-106334500D01*
X152716045Y-106334500D01*
X152946149Y-106304206D01*
X153170330Y-106244137D01*
X153384752Y-106155320D01*
X153585748Y-106039276D01*
X153769877Y-105897989D01*
X153933989Y-105733877D01*
X154075276Y-105549748D01*
X154191320Y-105348752D01*
X154280137Y-105134330D01*
X154340206Y-104910149D01*
X154370500Y-104680045D01*
X154370500Y-104447955D01*
X154370499Y-104447947D01*
X171530749Y-104447947D01*
X171530749Y-104680052D01*
X171561043Y-104910148D01*
X171621111Y-105134328D01*
X171709926Y-105348745D01*
X171709934Y-105348762D01*
X171825969Y-105549743D01*
X171825970Y-105549745D01*
X171967258Y-105733875D01*
X171967264Y-105733882D01*
X172131366Y-105897984D01*
X172131373Y-105897990D01*
X172315503Y-106039278D01*
X172315505Y-106039279D01*
X172516486Y-106155314D01*
X172516489Y-106155315D01*
X172516497Y-106155320D01*
X172730919Y-106244137D01*
X172955100Y-106304206D01*
X173185204Y-106334500D01*
X173185211Y-106334500D01*
X173417287Y-106334500D01*
X173417294Y-106334500D01*
X173647398Y-106304206D01*
X173871579Y-106244137D01*
X174086001Y-106155320D01*
X174286997Y-106039276D01*
X174471126Y-105897989D01*
X174635238Y-105733877D01*
X174776525Y-105549748D01*
X174892569Y-105348752D01*
X174981386Y-105134330D01*
X175041455Y-104910149D01*
X175071749Y-104680045D01*
X175071749Y-104447955D01*
X175041455Y-104217851D01*
X174981386Y-103993670D01*
X174892569Y-103779248D01*
X174875563Y-103749792D01*
X174776528Y-103578256D01*
X174776527Y-103578254D01*
X174635239Y-103394124D01*
X174635233Y-103394117D01*
X174471131Y-103230015D01*
X174471124Y-103230009D01*
X174286994Y-103088721D01*
X174286992Y-103088720D01*
X174086011Y-102972685D01*
X174086003Y-102972681D01*
X174086001Y-102972680D01*
X173871579Y-102883863D01*
X173871580Y-102883863D01*
X173871577Y-102883862D01*
X173729452Y-102845780D01*
X173647398Y-102823794D01*
X173618635Y-102820007D01*
X173417301Y-102793500D01*
X173417294Y-102793500D01*
X173185204Y-102793500D01*
X173185196Y-102793500D01*
X172955100Y-102823794D01*
X172730920Y-102883862D01*
X172516503Y-102972677D01*
X172516486Y-102972685D01*
X172315505Y-103088720D01*
X172315503Y-103088721D01*
X172131373Y-103230009D01*
X172131366Y-103230015D01*
X171967264Y-103394117D01*
X171967258Y-103394124D01*
X171825970Y-103578254D01*
X171825969Y-103578256D01*
X171709934Y-103779237D01*
X171709926Y-103779254D01*
X171621111Y-103993671D01*
X171561043Y-104217851D01*
X171530749Y-104447947D01*
X154370499Y-104447947D01*
X154340206Y-104217851D01*
X154280137Y-103993670D01*
X154191320Y-103779248D01*
X154174314Y-103749792D01*
X154075279Y-103578256D01*
X154075278Y-103578254D01*
X153933990Y-103394124D01*
X153933984Y-103394117D01*
X153769882Y-103230015D01*
X153769875Y-103230009D01*
X153585745Y-103088721D01*
X153585743Y-103088720D01*
X153384762Y-102972685D01*
X153384754Y-102972681D01*
X153384752Y-102972680D01*
X153170330Y-102883863D01*
X153170331Y-102883863D01*
X153170328Y-102883862D01*
X153028203Y-102845780D01*
X152946149Y-102823794D01*
X152917386Y-102820007D01*
X152716052Y-102793500D01*
X152716045Y-102793500D01*
X152483955Y-102793500D01*
X152483947Y-102793500D01*
X152253851Y-102823794D01*
X152029671Y-102883862D01*
X151815254Y-102972677D01*
X151815237Y-102972685D01*
X151614256Y-103088720D01*
X151614254Y-103088721D01*
X151430124Y-103230009D01*
X151430117Y-103230015D01*
X151266015Y-103394117D01*
X151266009Y-103394124D01*
X151124721Y-103578254D01*
X151124720Y-103578256D01*
X151008685Y-103779237D01*
X151008677Y-103779254D01*
X150919862Y-103993671D01*
X150859794Y-104217851D01*
X150829500Y-104447947D01*
X150010500Y-104447947D01*
X150010500Y-100651456D01*
X149972052Y-100458169D01*
X149972051Y-100458167D01*
X149972051Y-100458165D01*
X149962989Y-100436287D01*
X149959791Y-100428566D01*
X149959779Y-100428539D01*
X149949961Y-100404834D01*
X149896632Y-100276086D01*
X149896631Y-100276084D01*
X149896628Y-100276079D01*
X149869523Y-100235513D01*
X191839500Y-100235513D01*
X191839500Y-100424486D01*
X191869059Y-100611118D01*
X191927454Y-100790836D01*
X191956791Y-100848412D01*
X192013240Y-100959199D01*
X192124310Y-101112073D01*
X192257927Y-101245690D01*
X192410801Y-101356760D01*
X192490347Y-101397290D01*
X192579163Y-101442545D01*
X192579165Y-101442545D01*
X192579168Y-101442547D01*
X192675497Y-101473846D01*
X192758881Y-101500940D01*
X192945514Y-101530500D01*
X192945519Y-101530500D01*
X193134486Y-101530500D01*
X193321118Y-101500940D01*
X193356283Y-101489514D01*
X193500832Y-101442547D01*
X193669199Y-101356760D01*
X193822073Y-101245690D01*
X193955690Y-101112073D01*
X194066760Y-100959199D01*
X194152547Y-100790832D01*
X194192069Y-100669195D01*
X194231507Y-100611521D01*
X194295866Y-100584323D01*
X194364712Y-100596238D01*
X194416188Y-100643482D01*
X194427931Y-100669196D01*
X194467454Y-100790836D01*
X194496791Y-100848412D01*
X194553240Y-100959199D01*
X194664310Y-101112073D01*
X194797927Y-101245690D01*
X194950801Y-101356760D01*
X195030347Y-101397290D01*
X195119163Y-101442545D01*
X195119165Y-101442545D01*
X195119168Y-101442547D01*
X195215497Y-101473846D01*
X195298881Y-101500940D01*
X195485514Y-101530500D01*
X195485519Y-101530500D01*
X195674486Y-101530500D01*
X195861118Y-101500940D01*
X195896283Y-101489514D01*
X196040832Y-101442547D01*
X196209199Y-101356760D01*
X196362073Y-101245690D01*
X196495690Y-101112073D01*
X196606760Y-100959199D01*
X196692547Y-100790832D01*
X196750940Y-100611118D01*
X196755184Y-100584323D01*
X196780500Y-100424486D01*
X196780500Y-100235513D01*
X196750940Y-100048881D01*
X196692545Y-99869163D01*
X196606759Y-99700800D01*
X196495690Y-99547927D01*
X196362073Y-99414310D01*
X196209199Y-99303240D01*
X196202624Y-99299890D01*
X196040836Y-99217454D01*
X195861118Y-99159059D01*
X195674486Y-99129500D01*
X195674481Y-99129500D01*
X195485519Y-99129500D01*
X195485514Y-99129500D01*
X195298881Y-99159059D01*
X195119163Y-99217454D01*
X194950800Y-99303240D01*
X194863579Y-99366610D01*
X194797927Y-99414310D01*
X194797925Y-99414312D01*
X194797924Y-99414312D01*
X194664312Y-99547924D01*
X194664312Y-99547925D01*
X194664310Y-99547927D01*
X194616610Y-99613579D01*
X194553240Y-99700800D01*
X194467454Y-99869163D01*
X194427931Y-99990803D01*
X194388493Y-100048478D01*
X194324134Y-100075676D01*
X194255288Y-100063761D01*
X194203812Y-100016516D01*
X194192069Y-99990803D01*
X194152545Y-99869163D01*
X194066759Y-99700800D01*
X193955690Y-99547927D01*
X193822073Y-99414310D01*
X193669199Y-99303240D01*
X193662624Y-99299890D01*
X193500836Y-99217454D01*
X193321118Y-99159059D01*
X193134486Y-99129500D01*
X193134481Y-99129500D01*
X192945519Y-99129500D01*
X192945514Y-99129500D01*
X192758881Y-99159059D01*
X192579163Y-99217454D01*
X192410800Y-99303240D01*
X192323579Y-99366610D01*
X192257927Y-99414310D01*
X192257925Y-99414312D01*
X192257924Y-99414312D01*
X192124312Y-99547924D01*
X192124312Y-99547925D01*
X192124310Y-99547927D01*
X192076610Y-99613579D01*
X192013240Y-99700800D01*
X191927454Y-99869163D01*
X191869059Y-100048881D01*
X191839500Y-100235513D01*
X149869523Y-100235513D01*
X149787140Y-100112219D01*
X149723399Y-100048478D01*
X149647782Y-99972861D01*
X149647781Y-99972860D01*
X142306538Y-92631617D01*
X184642500Y-92631617D01*
X184642500Y-92828382D01*
X184673278Y-93022705D01*
X184734081Y-93209835D01*
X184823405Y-93385145D01*
X184848819Y-93420125D01*
X184848820Y-93420125D01*
X185512500Y-92756445D01*
X185512500Y-92780028D01*
X185538396Y-92876675D01*
X185588424Y-92963325D01*
X185659175Y-93034076D01*
X185745825Y-93084104D01*
X185842472Y-93110000D01*
X185866053Y-93110000D01*
X185202373Y-93773677D01*
X185202373Y-93773678D01*
X185237358Y-93799096D01*
X185412664Y-93888418D01*
X185599794Y-93949221D01*
X185794118Y-93980000D01*
X185990882Y-93980000D01*
X186185205Y-93949221D01*
X186372335Y-93888418D01*
X186547643Y-93799095D01*
X186582625Y-93773678D01*
X186582626Y-93773678D01*
X185918948Y-93110000D01*
X185942528Y-93110000D01*
X186039175Y-93084104D01*
X186125825Y-93034076D01*
X186196576Y-92963325D01*
X186246604Y-92876675D01*
X186272500Y-92780028D01*
X186272500Y-92756448D01*
X186936178Y-93420126D01*
X186936178Y-93420125D01*
X186961597Y-93385141D01*
X187051734Y-93208236D01*
X187099708Y-93157439D01*
X187167529Y-93140644D01*
X187233664Y-93163181D01*
X187272704Y-93208235D01*
X187273615Y-93210024D01*
X187273616Y-93210025D01*
X187362976Y-93385405D01*
X187478672Y-93544646D01*
X187617854Y-93683828D01*
X187777095Y-93799524D01*
X187827623Y-93825269D01*
X187952470Y-93888882D01*
X187952472Y-93888882D01*
X187952475Y-93888884D01*
X188039647Y-93917208D01*
X188139673Y-93949709D01*
X188334078Y-93980500D01*
X188334083Y-93980500D01*
X188530922Y-93980500D01*
X188725326Y-93949709D01*
X188726828Y-93949221D01*
X188912525Y-93888884D01*
X189087905Y-93799524D01*
X189247146Y-93683828D01*
X189386328Y-93544646D01*
X189502024Y-93385405D01*
X189509457Y-93370816D01*
X189592015Y-93208787D01*
X189639989Y-93157990D01*
X189707810Y-93141195D01*
X189773945Y-93163732D01*
X189812985Y-93208787D01*
X189902974Y-93385403D01*
X189907484Y-93391610D01*
X190018672Y-93544646D01*
X190157854Y-93683828D01*
X190317095Y-93799524D01*
X190367623Y-93825269D01*
X190492470Y-93888882D01*
X190492472Y-93888882D01*
X190492475Y-93888884D01*
X190579647Y-93917208D01*
X190679673Y-93949709D01*
X190874078Y-93980500D01*
X190874083Y-93980500D01*
X191070922Y-93980500D01*
X191265326Y-93949709D01*
X191266828Y-93949221D01*
X191452525Y-93888884D01*
X191627905Y-93799524D01*
X191787146Y-93683828D01*
X191926328Y-93544646D01*
X192042024Y-93385405D01*
X192049457Y-93370816D01*
X192132015Y-93208787D01*
X192179989Y-93157990D01*
X192247810Y-93141195D01*
X192313945Y-93163732D01*
X192352985Y-93208787D01*
X192442974Y-93385403D01*
X192447484Y-93391610D01*
X192558672Y-93544646D01*
X192697854Y-93683828D01*
X192857095Y-93799524D01*
X192907623Y-93825269D01*
X193032470Y-93888882D01*
X193032472Y-93888882D01*
X193032475Y-93888884D01*
X193119647Y-93917208D01*
X193219673Y-93949709D01*
X193414078Y-93980500D01*
X193414083Y-93980500D01*
X193610922Y-93980500D01*
X193805326Y-93949709D01*
X193806828Y-93949221D01*
X193992525Y-93888884D01*
X194167905Y-93799524D01*
X194327146Y-93683828D01*
X194466328Y-93544646D01*
X194582024Y-93385405D01*
X194671384Y-93210025D01*
X194732209Y-93022826D01*
X194741633Y-92963325D01*
X194763000Y-92828422D01*
X194763000Y-92631577D01*
X194732209Y-92437173D01*
X194671382Y-92249970D01*
X194623848Y-92156680D01*
X194582024Y-92074595D01*
X194466328Y-91915354D01*
X194327146Y-91776172D01*
X194173880Y-91664817D01*
X194131215Y-91609486D01*
X194125236Y-91539873D01*
X194157842Y-91478078D01*
X194218681Y-91443721D01*
X194246758Y-91440499D01*
X195580372Y-91440499D01*
X195639983Y-91434091D01*
X195774831Y-91383796D01*
X195890046Y-91297546D01*
X195976296Y-91182331D01*
X196026591Y-91047483D01*
X196033000Y-90987873D01*
X196032999Y-89392128D01*
X196026591Y-89332517D01*
X196010813Y-89290215D01*
X195976297Y-89197671D01*
X195976293Y-89197664D01*
X195890047Y-89082455D01*
X195890044Y-89082452D01*
X195774835Y-88996206D01*
X195774828Y-88996202D01*
X195639982Y-88945908D01*
X195639983Y-88945908D01*
X195580383Y-88939501D01*
X195580381Y-88939500D01*
X195580373Y-88939500D01*
X195580364Y-88939500D01*
X193984629Y-88939500D01*
X193984623Y-88939501D01*
X193925016Y-88945908D01*
X193790171Y-88996202D01*
X193790164Y-88996206D01*
X193674955Y-89082452D01*
X193674952Y-89082455D01*
X193588706Y-89197664D01*
X193588702Y-89197671D01*
X193538408Y-89332517D01*
X193533803Y-89375354D01*
X193532001Y-89392123D01*
X193532000Y-89392135D01*
X193532000Y-89455732D01*
X193512315Y-89522771D01*
X193459511Y-89568526D01*
X193390353Y-89578470D01*
X193326797Y-89549445D01*
X193307682Y-89528618D01*
X193208520Y-89392135D01*
X193196328Y-89375354D01*
X193057146Y-89236172D01*
X192897905Y-89120476D01*
X192887845Y-89115350D01*
X192722529Y-89031117D01*
X192535326Y-88970290D01*
X192340922Y-88939500D01*
X192340917Y-88939500D01*
X192144083Y-88939500D01*
X192144078Y-88939500D01*
X191949673Y-88970290D01*
X191762470Y-89031117D01*
X191587094Y-89120476D01*
X191548636Y-89148418D01*
X191427854Y-89236172D01*
X191427852Y-89236174D01*
X191427851Y-89236174D01*
X191288674Y-89375351D01*
X191288674Y-89375352D01*
X191288672Y-89375354D01*
X191276480Y-89392135D01*
X191172976Y-89534594D01*
X191082985Y-89711213D01*
X191035011Y-89762009D01*
X190967190Y-89778804D01*
X190901055Y-89756267D01*
X190862015Y-89711213D01*
X190794379Y-89578470D01*
X190772024Y-89534595D01*
X190656328Y-89375354D01*
X190517146Y-89236172D01*
X190357905Y-89120476D01*
X190347845Y-89115350D01*
X190182529Y-89031117D01*
X189995326Y-88970290D01*
X189800922Y-88939500D01*
X189800917Y-88939500D01*
X189604083Y-88939500D01*
X189604078Y-88939500D01*
X189409673Y-88970290D01*
X189222470Y-89031117D01*
X189047094Y-89120476D01*
X189008636Y-89148418D01*
X188887854Y-89236172D01*
X188887852Y-89236174D01*
X188887851Y-89236174D01*
X188748674Y-89375351D01*
X188748674Y-89375352D01*
X188748672Y-89375354D01*
X188736480Y-89392135D01*
X188632976Y-89534594D01*
X188542704Y-89711764D01*
X188494729Y-89762560D01*
X188426908Y-89779355D01*
X188360774Y-89756818D01*
X188321734Y-89711764D01*
X188231596Y-89534858D01*
X188206178Y-89499873D01*
X188206177Y-89499873D01*
X187542500Y-90163551D01*
X187542500Y-90139972D01*
X187516604Y-90043325D01*
X187466576Y-89956675D01*
X187395825Y-89885924D01*
X187309175Y-89835896D01*
X187212528Y-89810000D01*
X187188947Y-89810000D01*
X187852625Y-89146320D01*
X187852625Y-89146319D01*
X187817645Y-89120905D01*
X187642335Y-89031581D01*
X187455205Y-88970778D01*
X187260882Y-88940000D01*
X187064118Y-88940000D01*
X186869794Y-88970778D01*
X186682661Y-89031582D01*
X186507363Y-89120899D01*
X186507359Y-89120902D01*
X186472373Y-89146320D01*
X186472372Y-89146320D01*
X187136054Y-89810000D01*
X187112472Y-89810000D01*
X187015825Y-89835896D01*
X186929175Y-89885924D01*
X186858424Y-89956675D01*
X186808396Y-90043325D01*
X186782500Y-90139972D01*
X186782500Y-90163552D01*
X186118820Y-89499872D01*
X186118820Y-89499873D01*
X186093402Y-89534859D01*
X186093399Y-89534863D01*
X186004082Y-89710161D01*
X185943278Y-89897294D01*
X185912500Y-90091617D01*
X185912500Y-90288382D01*
X185943278Y-90482705D01*
X186004081Y-90669835D01*
X186093405Y-90845145D01*
X186118819Y-90880125D01*
X186118820Y-90880125D01*
X186782500Y-90216445D01*
X186782500Y-90240028D01*
X186808396Y-90336675D01*
X186858424Y-90423325D01*
X186929175Y-90494076D01*
X187015825Y-90544104D01*
X187112472Y-90570000D01*
X187136053Y-90570000D01*
X186472373Y-91233677D01*
X186472373Y-91233678D01*
X186507358Y-91259096D01*
X186682664Y-91348418D01*
X186869794Y-91409221D01*
X187064118Y-91440000D01*
X187260882Y-91440000D01*
X187455205Y-91409221D01*
X187642335Y-91348418D01*
X187817643Y-91259095D01*
X187852625Y-91233678D01*
X187852626Y-91233678D01*
X187188948Y-90570000D01*
X187212528Y-90570000D01*
X187309175Y-90544104D01*
X187395825Y-90494076D01*
X187466576Y-90423325D01*
X187516604Y-90336675D01*
X187542500Y-90240028D01*
X187542500Y-90216448D01*
X188206178Y-90880126D01*
X188206178Y-90880125D01*
X188231597Y-90845141D01*
X188321734Y-90668236D01*
X188369708Y-90617439D01*
X188437529Y-90600644D01*
X188503664Y-90623181D01*
X188542704Y-90668235D01*
X188543615Y-90670024D01*
X188543616Y-90670025D01*
X188632976Y-90845405D01*
X188748672Y-91004646D01*
X188887854Y-91143828D01*
X189047095Y-91259524D01*
X189121714Y-91297544D01*
X189222470Y-91348882D01*
X189222472Y-91348882D01*
X189222475Y-91348884D01*
X189310518Y-91377491D01*
X189409673Y-91409709D01*
X189604078Y-91440500D01*
X189604083Y-91440500D01*
X189800922Y-91440500D01*
X189995326Y-91409709D01*
X190075074Y-91383797D01*
X190182525Y-91348884D01*
X190357905Y-91259524D01*
X190517146Y-91143828D01*
X190656328Y-91004646D01*
X190772024Y-90845405D01*
X190793765Y-90802735D01*
X190862015Y-90668787D01*
X190909989Y-90617990D01*
X190977810Y-90601195D01*
X191043945Y-90623732D01*
X191082985Y-90668787D01*
X191172974Y-90845403D01*
X191177317Y-90851380D01*
X191288672Y-91004646D01*
X191427854Y-91143828D01*
X191587095Y-91259524D01*
X191661714Y-91297544D01*
X191762470Y-91348882D01*
X191762472Y-91348882D01*
X191762475Y-91348884D01*
X191850518Y-91377491D01*
X191949673Y-91409709D01*
X192144078Y-91440500D01*
X192144083Y-91440500D01*
X192340922Y-91440500D01*
X192535326Y-91409709D01*
X192615074Y-91383797D01*
X192722525Y-91348884D01*
X192897905Y-91259524D01*
X193057146Y-91143828D01*
X193196328Y-91004646D01*
X193307684Y-90851378D01*
X193363012Y-90808714D01*
X193432625Y-90802735D01*
X193494420Y-90835341D01*
X193528777Y-90896179D01*
X193532000Y-90924263D01*
X193532000Y-90987869D01*
X193532001Y-90987876D01*
X193538408Y-91047483D01*
X193588702Y-91182328D01*
X193588704Y-91182331D01*
X193662709Y-91281189D01*
X193687127Y-91346653D01*
X193672276Y-91414926D01*
X193622871Y-91464332D01*
X193563443Y-91479500D01*
X193414078Y-91479500D01*
X193219673Y-91510290D01*
X193032470Y-91571117D01*
X192857094Y-91660476D01*
X192697851Y-91776174D01*
X192558674Y-91915351D01*
X192558674Y-91915352D01*
X192558672Y-91915354D01*
X192508985Y-91983741D01*
X192442976Y-92074594D01*
X192352985Y-92251213D01*
X192305011Y-92302009D01*
X192237190Y-92318804D01*
X192171055Y-92296267D01*
X192132015Y-92251213D01*
X192083848Y-92156680D01*
X192042024Y-92074595D01*
X191926328Y-91915354D01*
X191787146Y-91776172D01*
X191627905Y-91660476D01*
X191563441Y-91627630D01*
X191452529Y-91571117D01*
X191265326Y-91510290D01*
X191070922Y-91479500D01*
X191070917Y-91479500D01*
X190874083Y-91479500D01*
X190874078Y-91479500D01*
X190679673Y-91510290D01*
X190492470Y-91571117D01*
X190317094Y-91660476D01*
X190157851Y-91776174D01*
X190018674Y-91915351D01*
X190018674Y-91915352D01*
X190018672Y-91915354D01*
X189968985Y-91983741D01*
X189902976Y-92074594D01*
X189812985Y-92251213D01*
X189765011Y-92302009D01*
X189697190Y-92318804D01*
X189631055Y-92296267D01*
X189592015Y-92251213D01*
X189543848Y-92156680D01*
X189502024Y-92074595D01*
X189386328Y-91915354D01*
X189247146Y-91776172D01*
X189087905Y-91660476D01*
X189023441Y-91627630D01*
X188912529Y-91571117D01*
X188725326Y-91510290D01*
X188530922Y-91479500D01*
X188530917Y-91479500D01*
X188334083Y-91479500D01*
X188334078Y-91479500D01*
X188139673Y-91510290D01*
X187952470Y-91571117D01*
X187777094Y-91660476D01*
X187617851Y-91776174D01*
X187478674Y-91915351D01*
X187478674Y-91915352D01*
X187478672Y-91915354D01*
X187428985Y-91983741D01*
X187362976Y-92074594D01*
X187272704Y-92251764D01*
X187224729Y-92302560D01*
X187156908Y-92319355D01*
X187090774Y-92296818D01*
X187051734Y-92251764D01*
X186961596Y-92074858D01*
X186936178Y-92039873D01*
X186936177Y-92039873D01*
X186272500Y-92703551D01*
X186272500Y-92679972D01*
X186246604Y-92583325D01*
X186196576Y-92496675D01*
X186125825Y-92425924D01*
X186039175Y-92375896D01*
X185942528Y-92350000D01*
X185918947Y-92350000D01*
X186582625Y-91686320D01*
X186582625Y-91686319D01*
X186547645Y-91660905D01*
X186372335Y-91571581D01*
X186185205Y-91510778D01*
X185990882Y-91480000D01*
X185794118Y-91480000D01*
X185599794Y-91510778D01*
X185412661Y-91571582D01*
X185237363Y-91660899D01*
X185237359Y-91660902D01*
X185202373Y-91686320D01*
X185202372Y-91686320D01*
X185866054Y-92350000D01*
X185842472Y-92350000D01*
X185745825Y-92375896D01*
X185659175Y-92425924D01*
X185588424Y-92496675D01*
X185538396Y-92583325D01*
X185512500Y-92679972D01*
X185512500Y-92703552D01*
X184848820Y-92039872D01*
X184848820Y-92039873D01*
X184823402Y-92074859D01*
X184823399Y-92074863D01*
X184734082Y-92250161D01*
X184673278Y-92437294D01*
X184642500Y-92631617D01*
X142306538Y-92631617D01*
X140736819Y-91061898D01*
X140703334Y-91000575D01*
X140700500Y-90974217D01*
X140700500Y-84524500D01*
X140720185Y-84457461D01*
X140772989Y-84411706D01*
X140824500Y-84400500D01*
X159952542Y-84400500D01*
X159983566Y-84394328D01*
X160049188Y-84381275D01*
X160145836Y-84362051D01*
X160199165Y-84339961D01*
X160327914Y-84286632D01*
X160491782Y-84177139D01*
X160631139Y-84037782D01*
X160631140Y-84037779D01*
X160638206Y-84030714D01*
X160638209Y-84030710D01*
X160950208Y-83718711D01*
X182772000Y-83718711D01*
X182772000Y-83961288D01*
X182803661Y-84201785D01*
X182866447Y-84436104D01*
X182903062Y-84524500D01*
X182959276Y-84660212D01*
X183080564Y-84870289D01*
X183080566Y-84870292D01*
X183080567Y-84870293D01*
X183228233Y-85062736D01*
X183228239Y-85062743D01*
X183399756Y-85234260D01*
X183399762Y-85234265D01*
X183592211Y-85381936D01*
X183802288Y-85503224D01*
X184026400Y-85596054D01*
X184260711Y-85658838D01*
X184441086Y-85682584D01*
X184501211Y-85690500D01*
X184501212Y-85690500D01*
X184743789Y-85690500D01*
X184791888Y-85684167D01*
X184984289Y-85658838D01*
X185218600Y-85596054D01*
X185442712Y-85503224D01*
X185652789Y-85381936D01*
X185845238Y-85234265D01*
X186016765Y-85062738D01*
X186164436Y-84870289D01*
X186285724Y-84660212D01*
X186378554Y-84436100D01*
X186441338Y-84201789D01*
X186473000Y-83961288D01*
X186473000Y-83718712D01*
X186473000Y-83718711D01*
X194202000Y-83718711D01*
X194202000Y-83961288D01*
X194233661Y-84201785D01*
X194296447Y-84436104D01*
X194333062Y-84524500D01*
X194389276Y-84660212D01*
X194510564Y-84870289D01*
X194510566Y-84870292D01*
X194510567Y-84870293D01*
X194658233Y-85062736D01*
X194658239Y-85062743D01*
X194829756Y-85234260D01*
X194829762Y-85234265D01*
X195022211Y-85381936D01*
X195232288Y-85503224D01*
X195456400Y-85596054D01*
X195690711Y-85658838D01*
X195871086Y-85682584D01*
X195931211Y-85690500D01*
X195931212Y-85690500D01*
X196173789Y-85690500D01*
X196221888Y-85684167D01*
X196414289Y-85658838D01*
X196648600Y-85596054D01*
X196872712Y-85503224D01*
X197082789Y-85381936D01*
X197275238Y-85234265D01*
X197446765Y-85062738D01*
X197594436Y-84870289D01*
X197715724Y-84660212D01*
X197808554Y-84436100D01*
X197871338Y-84201789D01*
X197903000Y-83961288D01*
X197903000Y-83718712D01*
X197871338Y-83478211D01*
X197808554Y-83243900D01*
X197715724Y-83019788D01*
X197594436Y-82809711D01*
X197533518Y-82730321D01*
X197446766Y-82617263D01*
X197446760Y-82617256D01*
X197275243Y-82445739D01*
X197275236Y-82445733D01*
X197082793Y-82298067D01*
X197082792Y-82298066D01*
X197082789Y-82298064D01*
X196872712Y-82176776D01*
X196872705Y-82176773D01*
X196648604Y-82083947D01*
X196496864Y-82043288D01*
X196414289Y-82021162D01*
X196414288Y-82021161D01*
X196414285Y-82021161D01*
X196173789Y-81989500D01*
X196173788Y-81989500D01*
X195931212Y-81989500D01*
X195931211Y-81989500D01*
X195690714Y-82021161D01*
X195456395Y-82083947D01*
X195232294Y-82176773D01*
X195232285Y-82176777D01*
X195022206Y-82298067D01*
X194829763Y-82445733D01*
X194829756Y-82445739D01*
X194658239Y-82617256D01*
X194658233Y-82617263D01*
X194510567Y-82809706D01*
X194389277Y-83019785D01*
X194389273Y-83019794D01*
X194296447Y-83243895D01*
X194233661Y-83478214D01*
X194202000Y-83718711D01*
X186473000Y-83718711D01*
X186441338Y-83478211D01*
X186378554Y-83243900D01*
X186285724Y-83019788D01*
X186164436Y-82809711D01*
X186103518Y-82730321D01*
X186016766Y-82617263D01*
X186016760Y-82617256D01*
X185845243Y-82445739D01*
X185845236Y-82445733D01*
X185652793Y-82298067D01*
X185652792Y-82298066D01*
X185652789Y-82298064D01*
X185442712Y-82176776D01*
X185442705Y-82176773D01*
X185218604Y-82083947D01*
X185066864Y-82043288D01*
X184984289Y-82021162D01*
X184984288Y-82021161D01*
X184984285Y-82021161D01*
X184743789Y-81989500D01*
X184743788Y-81989500D01*
X184501212Y-81989500D01*
X184501211Y-81989500D01*
X184260714Y-82021161D01*
X184026395Y-82083947D01*
X183802294Y-82176773D01*
X183802285Y-82176777D01*
X183592206Y-82298067D01*
X183399763Y-82445733D01*
X183399756Y-82445739D01*
X183228239Y-82617256D01*
X183228233Y-82617263D01*
X183080567Y-82809706D01*
X182959277Y-83019785D01*
X182959273Y-83019794D01*
X182866447Y-83243895D01*
X182803661Y-83478214D01*
X182772000Y-83718711D01*
X160950208Y-83718711D01*
X162317778Y-82351141D01*
X162317782Y-82351139D01*
X162457139Y-82211782D01*
X162566632Y-82047914D01*
X162566637Y-82047901D01*
X162569503Y-82042542D01*
X162570900Y-82043288D01*
X162591601Y-82012293D01*
X162710104Y-81893792D01*
X162716979Y-81884330D01*
X162835048Y-81721820D01*
X162835047Y-81721820D01*
X162835051Y-81721816D01*
X162839514Y-81713054D01*
X162887488Y-81662259D01*
X162955308Y-81645463D01*
X163021444Y-81667999D01*
X163060486Y-81713056D01*
X163064951Y-81721820D01*
X163189890Y-81893786D01*
X163340213Y-82044109D01*
X163512179Y-82169048D01*
X163512181Y-82169049D01*
X163512184Y-82169051D01*
X163701588Y-82265557D01*
X163903757Y-82331246D01*
X164113713Y-82364500D01*
X164113714Y-82364500D01*
X164326286Y-82364500D01*
X164326287Y-82364500D01*
X164536243Y-82331246D01*
X164738412Y-82265557D01*
X164927816Y-82169051D01*
X164955765Y-82148745D01*
X165099786Y-82044109D01*
X165099788Y-82044106D01*
X165099792Y-82044104D01*
X165250104Y-81893792D01*
X165250106Y-81893788D01*
X165250109Y-81893786D01*
X165375048Y-81721820D01*
X165375047Y-81721820D01*
X165375051Y-81721816D01*
X165379514Y-81713054D01*
X165427488Y-81662259D01*
X165495308Y-81645463D01*
X165561444Y-81667999D01*
X165600486Y-81713056D01*
X165604951Y-81721820D01*
X165729890Y-81893786D01*
X165880213Y-82044109D01*
X166052179Y-82169048D01*
X166052181Y-82169049D01*
X166052184Y-82169051D01*
X166241588Y-82265557D01*
X166443757Y-82331246D01*
X166653713Y-82364500D01*
X166653714Y-82364500D01*
X166866286Y-82364500D01*
X166866287Y-82364500D01*
X167076243Y-82331246D01*
X167278412Y-82265557D01*
X167467816Y-82169051D01*
X167495765Y-82148745D01*
X167639786Y-82044109D01*
X167639788Y-82044106D01*
X167639792Y-82044104D01*
X167790104Y-81893792D01*
X167790106Y-81893788D01*
X167790109Y-81893786D01*
X167915048Y-81721820D01*
X167915047Y-81721820D01*
X167915051Y-81721816D01*
X168011557Y-81532412D01*
X168077246Y-81330243D01*
X168098200Y-81197947D01*
X171529500Y-81197947D01*
X171529500Y-81430052D01*
X171550289Y-81587950D01*
X171559794Y-81660149D01*
X171573970Y-81713056D01*
X171619862Y-81884328D01*
X171708677Y-82098745D01*
X171708685Y-82098762D01*
X171824720Y-82299743D01*
X171824721Y-82299745D01*
X171966009Y-82483875D01*
X171966015Y-82483882D01*
X172130117Y-82647984D01*
X172130124Y-82647990D01*
X172314254Y-82789278D01*
X172314256Y-82789279D01*
X172515237Y-82905314D01*
X172515240Y-82905315D01*
X172515248Y-82905320D01*
X172729670Y-82994137D01*
X172953851Y-83054206D01*
X173183955Y-83084500D01*
X173183962Y-83084500D01*
X173416038Y-83084500D01*
X173416045Y-83084500D01*
X173646149Y-83054206D01*
X173870330Y-82994137D01*
X174084752Y-82905320D01*
X174285748Y-82789276D01*
X174469877Y-82647989D01*
X174633989Y-82483877D01*
X174775276Y-82299748D01*
X174891320Y-82098752D01*
X174980137Y-81884330D01*
X175040206Y-81660149D01*
X175070500Y-81430045D01*
X175070500Y-81197955D01*
X175040206Y-80967851D01*
X174980137Y-80743670D01*
X174891320Y-80529248D01*
X174804146Y-80378256D01*
X174775279Y-80328256D01*
X174775278Y-80328254D01*
X174633990Y-80144124D01*
X174633984Y-80144117D01*
X174469882Y-79980015D01*
X174469875Y-79980009D01*
X174359425Y-79895258D01*
X205259500Y-79895258D01*
X205259500Y-80124741D01*
X205283389Y-80306184D01*
X205289452Y-80352238D01*
X205327861Y-80495585D01*
X205348842Y-80573887D01*
X205436650Y-80785876D01*
X205436657Y-80785890D01*
X205551392Y-80984617D01*
X205691081Y-81166661D01*
X205691089Y-81166670D01*
X205853330Y-81328911D01*
X205853338Y-81328918D01*
X205853339Y-81328919D01*
X205903962Y-81367764D01*
X206035382Y-81468607D01*
X206035385Y-81468608D01*
X206035388Y-81468611D01*
X206234112Y-81583344D01*
X206234117Y-81583346D01*
X206234123Y-81583349D01*
X206298559Y-81610039D01*
X206446113Y-81671158D01*
X206667762Y-81730548D01*
X206895266Y-81760500D01*
X206895273Y-81760500D01*
X207124727Y-81760500D01*
X207124734Y-81760500D01*
X207352238Y-81730548D01*
X207573887Y-81671158D01*
X207785888Y-81583344D01*
X207984612Y-81468611D01*
X208166661Y-81328919D01*
X208166665Y-81328914D01*
X208166670Y-81328911D01*
X208328911Y-81166670D01*
X208328914Y-81166665D01*
X208328919Y-81166661D01*
X208468611Y-80984612D01*
X208583344Y-80785888D01*
X208671158Y-80573887D01*
X208730548Y-80352238D01*
X208760500Y-80124734D01*
X208760500Y-79895266D01*
X208730548Y-79667762D01*
X208671158Y-79446113D01*
X208583344Y-79234112D01*
X208468611Y-79035388D01*
X208468608Y-79035385D01*
X208468607Y-79035382D01*
X208328918Y-78853338D01*
X208328911Y-78853330D01*
X208166670Y-78691089D01*
X208166661Y-78691081D01*
X207984617Y-78551392D01*
X207785890Y-78436657D01*
X207785876Y-78436650D01*
X207573887Y-78348842D01*
X207527937Y-78336530D01*
X207352238Y-78289452D01*
X207314215Y-78284446D01*
X207124741Y-78259500D01*
X207124734Y-78259500D01*
X206895266Y-78259500D01*
X206895258Y-78259500D01*
X206678715Y-78288009D01*
X206667762Y-78289452D01*
X206574076Y-78314554D01*
X206446112Y-78348842D01*
X206234123Y-78436650D01*
X206234109Y-78436657D01*
X206035382Y-78551392D01*
X205853338Y-78691081D01*
X205691081Y-78853338D01*
X205551392Y-79035382D01*
X205436657Y-79234109D01*
X205436650Y-79234123D01*
X205348842Y-79446112D01*
X205314630Y-79573794D01*
X205298536Y-79633862D01*
X205289453Y-79667759D01*
X205289451Y-79667770D01*
X205259500Y-79895258D01*
X174359425Y-79895258D01*
X174285745Y-79838721D01*
X174285743Y-79838720D01*
X174084762Y-79722685D01*
X174084754Y-79722681D01*
X174084752Y-79722680D01*
X174053307Y-79709655D01*
X173870328Y-79633862D01*
X173719693Y-79593500D01*
X173646149Y-79573794D01*
X173617386Y-79570007D01*
X173416052Y-79543500D01*
X173416045Y-79543500D01*
X173183955Y-79543500D01*
X173183947Y-79543500D01*
X172953851Y-79573794D01*
X172729671Y-79633862D01*
X172515254Y-79722677D01*
X172515237Y-79722685D01*
X172314256Y-79838720D01*
X172314254Y-79838721D01*
X172130124Y-79980009D01*
X172130117Y-79980015D01*
X171966015Y-80144117D01*
X171966009Y-80144124D01*
X171824721Y-80328254D01*
X171824720Y-80328256D01*
X171708685Y-80529237D01*
X171708677Y-80529254D01*
X171619862Y-80743671D01*
X171559794Y-80967851D01*
X171529500Y-81197947D01*
X168098200Y-81197947D01*
X168110500Y-81120287D01*
X168110500Y-80907713D01*
X168077246Y-80697757D01*
X168011557Y-80495588D01*
X167915051Y-80306184D01*
X167915049Y-80306181D01*
X167915048Y-80306179D01*
X167790109Y-80134213D01*
X167639786Y-79983890D01*
X167467820Y-79858951D01*
X167278414Y-79762444D01*
X167278413Y-79762443D01*
X167278412Y-79762443D01*
X167076243Y-79696754D01*
X167076241Y-79696753D01*
X167076240Y-79696753D01*
X166914957Y-79671208D01*
X166866287Y-79663500D01*
X166653713Y-79663500D01*
X166605042Y-79671208D01*
X166443760Y-79696753D01*
X166241585Y-79762444D01*
X166052179Y-79858951D01*
X165880213Y-79983890D01*
X165729890Y-80134213D01*
X165604949Y-80306182D01*
X165600484Y-80314946D01*
X165552509Y-80365742D01*
X165484688Y-80382536D01*
X165418553Y-80359998D01*
X165379516Y-80314946D01*
X165375050Y-80306182D01*
X165250109Y-80134213D01*
X165099786Y-79983890D01*
X164927820Y-79858951D01*
X164738414Y-79762444D01*
X164738413Y-79762443D01*
X164738412Y-79762443D01*
X164536243Y-79696754D01*
X164536241Y-79696753D01*
X164536240Y-79696753D01*
X164374957Y-79671208D01*
X164326287Y-79663500D01*
X164113713Y-79663500D01*
X164065042Y-79671208D01*
X163903760Y-79696753D01*
X163701585Y-79762444D01*
X163512179Y-79858951D01*
X163340213Y-79983890D01*
X163189890Y-80134213D01*
X163064949Y-80306182D01*
X163060484Y-80314946D01*
X163012509Y-80365742D01*
X162944688Y-80382536D01*
X162878553Y-80359998D01*
X162839516Y-80314946D01*
X162835050Y-80306182D01*
X162710109Y-80134213D01*
X162559786Y-79983890D01*
X162387820Y-79858951D01*
X162198414Y-79762444D01*
X162198413Y-79762443D01*
X162198412Y-79762443D01*
X161996243Y-79696754D01*
X161996241Y-79696753D01*
X161996240Y-79696753D01*
X161834957Y-79671208D01*
X161786287Y-79663500D01*
X161573713Y-79663500D01*
X161525042Y-79671208D01*
X161363760Y-79696753D01*
X161161585Y-79762444D01*
X160972179Y-79858951D01*
X160800215Y-79983889D01*
X160686285Y-80097819D01*
X160624962Y-80131303D01*
X160555270Y-80126319D01*
X160499337Y-80084447D01*
X160482422Y-80053470D01*
X160433354Y-79921913D01*
X160433350Y-79921906D01*
X160347190Y-79806812D01*
X160347187Y-79806809D01*
X160232093Y-79720649D01*
X160232086Y-79720645D01*
X160097379Y-79670403D01*
X160097372Y-79670401D01*
X160037844Y-79664000D01*
X159390000Y-79664000D01*
X159390000Y-80580988D01*
X159332993Y-80548075D01*
X159205826Y-80514000D01*
X159074174Y-80514000D01*
X158947007Y-80548075D01*
X158890000Y-80580988D01*
X158890000Y-79664000D01*
X158242155Y-79664000D01*
X158182627Y-79670401D01*
X158182620Y-79670403D01*
X158047913Y-79720645D01*
X158047906Y-79720649D01*
X157932812Y-79806809D01*
X157932809Y-79806812D01*
X157846649Y-79921906D01*
X157846645Y-79921913D01*
X157796403Y-80056620D01*
X157796401Y-80056627D01*
X157790000Y-80116155D01*
X157790000Y-80764000D01*
X158706988Y-80764000D01*
X158674075Y-80821007D01*
X158640000Y-80948174D01*
X158640000Y-81079826D01*
X158674075Y-81206993D01*
X158706988Y-81264000D01*
X157790000Y-81264000D01*
X157790000Y-81911844D01*
X157796401Y-81971372D01*
X157796403Y-81971379D01*
X157846645Y-82106086D01*
X157846647Y-82106089D01*
X157917839Y-82201188D01*
X157942257Y-82266652D01*
X157927406Y-82334925D01*
X157878001Y-82384331D01*
X157818573Y-82399500D01*
X154261325Y-82399500D01*
X154194286Y-82379815D01*
X154148531Y-82327011D01*
X154138587Y-82257853D01*
X154153938Y-82213500D01*
X154179602Y-82169048D01*
X154191320Y-82148752D01*
X154280137Y-81934330D01*
X154340206Y-81710149D01*
X154370500Y-81480045D01*
X154370500Y-81247955D01*
X154340206Y-81017851D01*
X154280137Y-80793670D01*
X154191320Y-80579248D01*
X154175790Y-80552349D01*
X154075279Y-80378256D01*
X154075278Y-80378254D01*
X153933989Y-80194122D01*
X153769882Y-80030015D01*
X153769875Y-80030009D01*
X153585745Y-79888721D01*
X153585743Y-79888720D01*
X153384762Y-79772685D01*
X153384754Y-79772681D01*
X153384752Y-79772680D01*
X153384745Y-79772677D01*
X153170328Y-79683862D01*
X152983723Y-79633862D01*
X152946149Y-79623794D01*
X152917386Y-79620007D01*
X152716052Y-79593500D01*
X152716045Y-79593500D01*
X152483955Y-79593500D01*
X152483947Y-79593500D01*
X152253851Y-79623794D01*
X152029671Y-79683862D01*
X151815254Y-79772677D01*
X151815237Y-79772685D01*
X151614256Y-79888720D01*
X151614254Y-79888721D01*
X151430124Y-80030009D01*
X151430117Y-80030015D01*
X151266015Y-80194117D01*
X151266009Y-80194124D01*
X151124721Y-80378254D01*
X151124720Y-80378256D01*
X151008685Y-80579237D01*
X151008677Y-80579254D01*
X150919862Y-80793671D01*
X150859794Y-81017851D01*
X150829500Y-81247947D01*
X150829500Y-81480052D01*
X150854245Y-81667999D01*
X150859794Y-81710149D01*
X150874177Y-81763828D01*
X150919862Y-81934328D01*
X151008677Y-82148745D01*
X151008681Y-82148755D01*
X151046062Y-82213500D01*
X151062535Y-82281400D01*
X151039682Y-82347427D01*
X150984761Y-82390618D01*
X150938675Y-82399500D01*
X141149403Y-82399500D01*
X141082364Y-82379815D01*
X141036609Y-82327011D01*
X141026930Y-82294898D01*
X141017246Y-82233756D01*
X140968611Y-82084075D01*
X140951557Y-82031588D01*
X140951555Y-82031585D01*
X140951555Y-82031583D01*
X140892936Y-81916537D01*
X140855051Y-81842184D01*
X140855049Y-81842181D01*
X140855048Y-81842179D01*
X140730109Y-81670213D01*
X140579786Y-81519890D01*
X140407820Y-81394951D01*
X140218414Y-81298444D01*
X140218413Y-81298443D01*
X140218412Y-81298443D01*
X140016243Y-81232754D01*
X140016241Y-81232753D01*
X140016240Y-81232753D01*
X139853596Y-81206993D01*
X139806287Y-81199500D01*
X139593713Y-81199500D01*
X139546404Y-81206993D01*
X139383760Y-81232753D01*
X139181585Y-81298444D01*
X138992179Y-81394951D01*
X138820213Y-81519890D01*
X138669890Y-81670213D01*
X138544951Y-81842179D01*
X138448444Y-82031585D01*
X138382753Y-82233760D01*
X138348738Y-82448525D01*
X138347684Y-82448358D01*
X138324621Y-82508850D01*
X138313576Y-82521503D01*
X134241899Y-86593181D01*
X134180576Y-86626666D01*
X134154218Y-86629500D01*
X132224141Y-86629500D01*
X132157102Y-86609815D01*
X132111347Y-86557011D01*
X132107969Y-86548859D01*
X132103796Y-86537669D01*
X132103793Y-86537665D01*
X132103793Y-86537664D01*
X132017547Y-86422455D01*
X132017544Y-86422452D01*
X131902335Y-86336206D01*
X131902328Y-86336202D01*
X131767482Y-86285908D01*
X131767483Y-86285908D01*
X131707883Y-86279501D01*
X131707881Y-86279500D01*
X131707873Y-86279500D01*
X131707865Y-86279500D01*
X130925782Y-86279500D01*
X130858743Y-86259815D01*
X130838101Y-86243181D01*
X127038673Y-82443753D01*
X134540000Y-82443753D01*
X134540000Y-82656246D01*
X134573242Y-82866127D01*
X134573242Y-82866130D01*
X134638904Y-83068217D01*
X134735375Y-83257550D01*
X134774728Y-83311716D01*
X135407037Y-82679408D01*
X135424075Y-82742993D01*
X135489901Y-82857007D01*
X135582993Y-82950099D01*
X135697007Y-83015925D01*
X135760590Y-83032962D01*
X135128282Y-83665269D01*
X135128282Y-83665270D01*
X135182449Y-83704624D01*
X135371782Y-83801095D01*
X135573870Y-83866757D01*
X135783754Y-83900000D01*
X135996246Y-83900000D01*
X136206127Y-83866757D01*
X136206130Y-83866757D01*
X136408217Y-83801095D01*
X136597554Y-83704622D01*
X136651716Y-83665270D01*
X136651717Y-83665270D01*
X136019408Y-83032962D01*
X136082993Y-83015925D01*
X136197007Y-82950099D01*
X136290099Y-82857007D01*
X136355925Y-82742993D01*
X136372962Y-82679408D01*
X137005270Y-83311717D01*
X137005270Y-83311716D01*
X137044622Y-83257554D01*
X137141095Y-83068217D01*
X137206757Y-82866130D01*
X137206757Y-82866127D01*
X137240000Y-82656246D01*
X137240000Y-82443753D01*
X137206757Y-82233872D01*
X137206757Y-82233869D01*
X137141095Y-82031782D01*
X137044624Y-81842449D01*
X137005270Y-81788282D01*
X137005269Y-81788282D01*
X136372962Y-82420590D01*
X136355925Y-82357007D01*
X136290099Y-82242993D01*
X136197007Y-82149901D01*
X136082993Y-82084075D01*
X136019409Y-82067037D01*
X136651716Y-81434728D01*
X136597550Y-81395375D01*
X136408217Y-81298904D01*
X136206129Y-81233242D01*
X135996246Y-81200000D01*
X135783754Y-81200000D01*
X135573872Y-81233242D01*
X135573869Y-81233242D01*
X135371782Y-81298904D01*
X135182439Y-81395380D01*
X135128282Y-81434727D01*
X135128282Y-81434728D01*
X135760591Y-82067037D01*
X135697007Y-82084075D01*
X135582993Y-82149901D01*
X135489901Y-82242993D01*
X135424075Y-82357007D01*
X135407037Y-82420591D01*
X134774728Y-81788282D01*
X134774727Y-81788282D01*
X134735380Y-81842439D01*
X134638904Y-82031782D01*
X134573242Y-82233869D01*
X134573242Y-82233872D01*
X134540000Y-82443753D01*
X127038673Y-82443753D01*
X126511479Y-81916559D01*
X126511459Y-81916537D01*
X126367785Y-81772863D01*
X126367781Y-81772860D01*
X126203920Y-81663371D01*
X126203911Y-81663366D01*
X126131315Y-81633296D01*
X126075165Y-81610038D01*
X126021836Y-81587949D01*
X125925188Y-81568724D01*
X125922350Y-81568159D01*
X125922344Y-81568158D01*
X125828544Y-81549500D01*
X125828541Y-81549500D01*
X105493585Y-81549500D01*
X105426546Y-81529815D01*
X105388040Y-81485728D01*
X105386282Y-81486813D01*
X105382112Y-81480052D01*
X105290389Y-81331344D01*
X105166333Y-81207288D01*
X105017011Y-81115186D01*
X104850474Y-81060001D01*
X104850472Y-81060000D01*
X104747687Y-81049500D01*
X103147675Y-81049500D01*
X103147658Y-81049501D01*
X103044880Y-81060000D01*
X103044877Y-81060001D01*
X102878345Y-81115185D01*
X102878340Y-81115187D01*
X102729019Y-81207289D01*
X102604966Y-81331342D01*
X102512862Y-81480666D01*
X102506474Y-81499945D01*
X102466699Y-81557389D01*
X102412962Y-81582554D01*
X102385846Y-81587948D01*
X102385837Y-81587950D01*
X102203769Y-81663364D01*
X102203756Y-81663371D01*
X102039895Y-81772860D01*
X102039891Y-81772863D01*
X101900540Y-81912214D01*
X101900537Y-81912218D01*
X101791048Y-82076079D01*
X101791041Y-82076092D01*
X101715627Y-82258160D01*
X101715624Y-82258170D01*
X101677177Y-82451456D01*
X101677177Y-92156680D01*
X101665396Y-92205766D01*
X101666643Y-92206283D01*
X101664779Y-92210782D01*
X101601523Y-92405461D01*
X101601523Y-92405464D01*
X101587077Y-92496675D01*
X101569500Y-92607648D01*
X99169995Y-92607648D01*
X99137990Y-92405582D01*
X99074755Y-92210968D01*
X98981859Y-92028650D01*
X98949474Y-91984077D01*
X98949474Y-91984076D01*
X98270000Y-92663551D01*
X98270000Y-92657339D01*
X98242741Y-92555606D01*
X98190080Y-92464394D01*
X98115606Y-92389920D01*
X98024394Y-92337259D01*
X97922661Y-92310000D01*
X97916446Y-92310000D01*
X98595922Y-91630524D01*
X98595921Y-91630523D01*
X98551359Y-91598147D01*
X98551350Y-91598141D01*
X98369031Y-91505244D01*
X98174417Y-91442009D01*
X97972317Y-91410000D01*
X97767683Y-91410000D01*
X97565582Y-91442009D01*
X97370968Y-91505244D01*
X97188644Y-91598143D01*
X97144077Y-91630523D01*
X97144077Y-91630524D01*
X97823554Y-92310000D01*
X97817339Y-92310000D01*
X97715606Y-92337259D01*
X97624394Y-92389920D01*
X97549920Y-92464394D01*
X97497259Y-92555606D01*
X97470000Y-92657339D01*
X97470000Y-92663553D01*
X96790524Y-91984077D01*
X96790523Y-91984077D01*
X96758143Y-92028644D01*
X96665244Y-92210968D01*
X96602009Y-92405582D01*
X96570000Y-92607682D01*
X85090000Y-92607682D01*
X85090000Y-82431947D01*
X94947677Y-82431947D01*
X94947677Y-82668052D01*
X94984611Y-82901247D01*
X95057574Y-83125802D01*
X95164764Y-83336174D01*
X95225015Y-83419104D01*
X95225017Y-83419105D01*
X95964714Y-82679408D01*
X95981752Y-82742993D01*
X96047578Y-82857007D01*
X96140670Y-82950099D01*
X96254684Y-83015925D01*
X96318267Y-83032962D01*
X95578570Y-83772658D01*
X95661505Y-83832914D01*
X95871874Y-83940102D01*
X96096429Y-84013065D01*
X96096428Y-84013065D01*
X96329625Y-84050000D01*
X96565729Y-84050000D01*
X96798924Y-84013065D01*
X97023479Y-83940102D01*
X97233840Y-83832918D01*
X97233846Y-83832914D01*
X97316781Y-83772658D01*
X97316782Y-83772658D01*
X96577085Y-83032962D01*
X96640670Y-83015925D01*
X96754684Y-82950099D01*
X96847776Y-82857007D01*
X96913602Y-82742993D01*
X96930639Y-82679409D01*
X97670335Y-83419105D01*
X97670335Y-83419104D01*
X97730591Y-83336169D01*
X97730595Y-83336163D01*
X97837779Y-83125802D01*
X97910742Y-82901247D01*
X97947677Y-82668052D01*
X97947677Y-82431947D01*
X97910742Y-82198752D01*
X97837779Y-81974197D01*
X97730591Y-81763828D01*
X97670335Y-81680894D01*
X97670335Y-81680893D01*
X96930639Y-82420590D01*
X96913602Y-82357007D01*
X96847776Y-82242993D01*
X96754684Y-82149901D01*
X96640670Y-82084075D01*
X96577086Y-82067037D01*
X97316782Y-81327340D01*
X97316781Y-81327338D01*
X97233851Y-81267087D01*
X97023479Y-81159897D01*
X96798924Y-81086934D01*
X96798925Y-81086934D01*
X96565729Y-81050000D01*
X96329625Y-81050000D01*
X96096429Y-81086934D01*
X95871874Y-81159897D01*
X95661507Y-81267084D01*
X95578571Y-81327340D01*
X96318268Y-82067037D01*
X96254684Y-82084075D01*
X96140670Y-82149901D01*
X96047578Y-82242993D01*
X95981752Y-82357007D01*
X95964714Y-82420591D01*
X95225017Y-81680894D01*
X95164761Y-81763830D01*
X95057574Y-81974197D01*
X94984611Y-82198752D01*
X94947677Y-82431947D01*
X85090000Y-82431947D01*
X85090000Y-79895258D01*
X87149500Y-79895258D01*
X87149500Y-80124741D01*
X87173389Y-80306184D01*
X87179452Y-80352238D01*
X87217861Y-80495585D01*
X87238842Y-80573887D01*
X87326650Y-80785876D01*
X87326657Y-80785890D01*
X87441392Y-80984617D01*
X87581081Y-81166661D01*
X87581089Y-81166670D01*
X87743330Y-81328911D01*
X87743338Y-81328918D01*
X87743339Y-81328919D01*
X87793962Y-81367764D01*
X87925382Y-81468607D01*
X87925385Y-81468608D01*
X87925388Y-81468611D01*
X88124112Y-81583344D01*
X88124117Y-81583346D01*
X88124123Y-81583349D01*
X88188559Y-81610039D01*
X88336113Y-81671158D01*
X88557762Y-81730548D01*
X88785266Y-81760500D01*
X88785273Y-81760500D01*
X89014727Y-81760500D01*
X89014734Y-81760500D01*
X89242238Y-81730548D01*
X89463887Y-81671158D01*
X89675888Y-81583344D01*
X89874612Y-81468611D01*
X90056661Y-81328919D01*
X90056665Y-81328914D01*
X90056670Y-81328911D01*
X90218911Y-81166670D01*
X90218914Y-81166665D01*
X90218919Y-81166661D01*
X90358611Y-80984612D01*
X90473344Y-80785888D01*
X90561158Y-80573887D01*
X90620548Y-80352238D01*
X90650500Y-80124734D01*
X90650500Y-79895266D01*
X90620548Y-79667762D01*
X90561158Y-79446113D01*
X90473344Y-79234112D01*
X90358611Y-79035388D01*
X90358608Y-79035385D01*
X90358607Y-79035382D01*
X90218918Y-78853338D01*
X90218911Y-78853330D01*
X90056670Y-78691089D01*
X90056661Y-78691081D01*
X89874617Y-78551392D01*
X89677921Y-78437830D01*
X89677919Y-78437828D01*
X89677918Y-78437828D01*
X89675888Y-78436656D01*
X89675889Y-78436656D01*
X89675885Y-78436654D01*
X89675876Y-78436650D01*
X89463887Y-78348842D01*
X89417937Y-78336530D01*
X132244500Y-78336530D01*
X132244500Y-79143469D01*
X132284868Y-79346412D01*
X132284870Y-79346420D01*
X132364058Y-79537596D01*
X132479024Y-79709657D01*
X132625342Y-79855975D01*
X132625345Y-79855977D01*
X132797402Y-79970941D01*
X132988580Y-80050130D01*
X133191530Y-80090499D01*
X133191534Y-80090500D01*
X133191535Y-80090500D01*
X133398466Y-80090500D01*
X133398467Y-80090499D01*
X133601420Y-80050130D01*
X133792598Y-79970941D01*
X133964655Y-79855977D01*
X134110977Y-79709655D01*
X134225941Y-79537598D01*
X134305130Y-79346420D01*
X134345500Y-79143465D01*
X134345500Y-78336535D01*
X134345499Y-78336530D01*
X141189500Y-78336530D01*
X141189500Y-79143469D01*
X141229868Y-79346412D01*
X141229870Y-79346420D01*
X141309058Y-79537596D01*
X141424024Y-79709657D01*
X141570342Y-79855975D01*
X141570345Y-79855977D01*
X141742402Y-79970941D01*
X141933580Y-80050130D01*
X142136530Y-80090499D01*
X142136534Y-80090500D01*
X142136535Y-80090500D01*
X142343466Y-80090500D01*
X142343467Y-80090499D01*
X142546420Y-80050130D01*
X142737598Y-79970941D01*
X142909655Y-79855977D01*
X143055977Y-79709655D01*
X143170941Y-79537598D01*
X143250130Y-79346420D01*
X143290500Y-79143465D01*
X143290500Y-78336535D01*
X143250130Y-78133580D01*
X143170941Y-77942402D01*
X143055977Y-77770345D01*
X143055975Y-77770342D01*
X142909657Y-77624024D01*
X142823626Y-77566541D01*
X142737598Y-77509059D01*
X142703666Y-77495004D01*
X142546420Y-77429870D01*
X142546412Y-77429868D01*
X142343469Y-77389500D01*
X142343465Y-77389500D01*
X142136535Y-77389500D01*
X142136530Y-77389500D01*
X141933587Y-77429868D01*
X141933579Y-77429870D01*
X141742403Y-77509058D01*
X141570342Y-77624024D01*
X141424024Y-77770342D01*
X141309058Y-77942403D01*
X141229870Y-78133579D01*
X141229868Y-78133587D01*
X141189500Y-78336530D01*
X134345499Y-78336530D01*
X134305130Y-78133580D01*
X134225941Y-77942402D01*
X134110977Y-77770345D01*
X134110975Y-77770342D01*
X133964657Y-77624024D01*
X133878626Y-77566541D01*
X133792598Y-77509059D01*
X133758666Y-77495004D01*
X133601420Y-77429870D01*
X133601412Y-77429868D01*
X133398469Y-77389500D01*
X133398465Y-77389500D01*
X133191535Y-77389500D01*
X133191530Y-77389500D01*
X132988587Y-77429868D01*
X132988579Y-77429870D01*
X132797403Y-77509058D01*
X132625342Y-77624024D01*
X132479024Y-77770342D01*
X132364058Y-77942403D01*
X132284870Y-78133579D01*
X132284868Y-78133587D01*
X132244500Y-78336530D01*
X89417937Y-78336530D01*
X89242238Y-78289452D01*
X89204215Y-78284446D01*
X89014741Y-78259500D01*
X89014734Y-78259500D01*
X88785266Y-78259500D01*
X88785258Y-78259500D01*
X88568715Y-78288009D01*
X88557762Y-78289452D01*
X88464076Y-78314554D01*
X88336112Y-78348842D01*
X88124123Y-78436650D01*
X88124109Y-78436657D01*
X87925382Y-78551392D01*
X87743338Y-78691081D01*
X87581081Y-78853338D01*
X87441392Y-79035382D01*
X87326657Y-79234109D01*
X87326650Y-79234123D01*
X87238842Y-79446112D01*
X87204630Y-79573794D01*
X87188536Y-79633862D01*
X87179453Y-79667759D01*
X87179451Y-79667770D01*
X87149500Y-79895258D01*
X85090000Y-79895258D01*
X85090000Y-77521362D01*
X85109685Y-77454323D01*
X85126319Y-77433681D01*
X86323681Y-76236319D01*
X86385004Y-76202834D01*
X86411362Y-76200000D01*
X209498638Y-76200000D01*
X209565677Y-76219685D01*
G37*
%TD.AperFunction*%
%TD*%
M02*
