%TF.GenerationSoftware,KiCad,Pcbnew,10.0.3*%
%TF.CreationDate,2026-07-15T12:57:31+09:00*%
%TF.ProjectId,fixed_MainBoard,66697865-645f-44d6-9169-6e426f617264,rev?*%
%TF.SameCoordinates,Original*%
%TF.FileFunction,Legend,Top*%
%TF.FilePolarity,Positive*%
%FSLAX46Y46*%
G04 Gerber Fmt 4.6, Leading zero omitted, Abs format (unit mm)*
G04 Created by KiCad (PCBNEW 10.0.3) date 2026-07-15 12:57:31*
%MOMM*%
%LPD*%
G01*
G04 APERTURE LIST*
%ADD10C,0.100000*%
%ADD11C,0.300000*%
%ADD12C,0.150000*%
%ADD13C,0.120000*%
%ADD14C,0.127000*%
%ADD15C,0.240000*%
%ADD16C,1.700000*%
G04 APERTURE END LIST*
D10*
X130175000Y-88900000D02*
X139065000Y-88900000D01*
X139065000Y-102870000D01*
X130175000Y-102870000D01*
X130175000Y-88900000D01*
X138370000Y-83760000D02*
X186700000Y-83760000D01*
X186700000Y-107950000D01*
X138370000Y-107950000D01*
X138370000Y-83760000D01*
D11*
X175912631Y-95749400D02*
X177055489Y-95749400D01*
X176769774Y-96035114D02*
X177055489Y-95749400D01*
X177055489Y-95749400D02*
X176769774Y-95463685D01*
X177698346Y-95892257D02*
X178412632Y-95892257D01*
X177555489Y-96320828D02*
X178055489Y-94820828D01*
X178055489Y-94820828D02*
X178555489Y-96320828D01*
X179055488Y-96320828D02*
X179055488Y-94820828D01*
X179055488Y-94820828D02*
X179912631Y-96320828D01*
X179912631Y-96320828D02*
X179912631Y-94820828D01*
X180412632Y-94820828D02*
X181269775Y-94820828D01*
X180841203Y-96320828D02*
X180841203Y-94820828D01*
D12*
X173674819Y-71453333D02*
X174389104Y-71453333D01*
X174389104Y-71453333D02*
X174531961Y-71500952D01*
X174531961Y-71500952D02*
X174627200Y-71596190D01*
X174627200Y-71596190D02*
X174674819Y-71739047D01*
X174674819Y-71739047D02*
X174674819Y-71834285D01*
X174103390Y-70834285D02*
X174055771Y-70929523D01*
X174055771Y-70929523D02*
X174008152Y-70977142D01*
X174008152Y-70977142D02*
X173912914Y-71024761D01*
X173912914Y-71024761D02*
X173865295Y-71024761D01*
X173865295Y-71024761D02*
X173770057Y-70977142D01*
X173770057Y-70977142D02*
X173722438Y-70929523D01*
X173722438Y-70929523D02*
X173674819Y-70834285D01*
X173674819Y-70834285D02*
X173674819Y-70643809D01*
X173674819Y-70643809D02*
X173722438Y-70548571D01*
X173722438Y-70548571D02*
X173770057Y-70500952D01*
X173770057Y-70500952D02*
X173865295Y-70453333D01*
X173865295Y-70453333D02*
X173912914Y-70453333D01*
X173912914Y-70453333D02*
X174008152Y-70500952D01*
X174008152Y-70500952D02*
X174055771Y-70548571D01*
X174055771Y-70548571D02*
X174103390Y-70643809D01*
X174103390Y-70643809D02*
X174103390Y-70834285D01*
X174103390Y-70834285D02*
X174151009Y-70929523D01*
X174151009Y-70929523D02*
X174198628Y-70977142D01*
X174198628Y-70977142D02*
X174293866Y-71024761D01*
X174293866Y-71024761D02*
X174484342Y-71024761D01*
X174484342Y-71024761D02*
X174579580Y-70977142D01*
X174579580Y-70977142D02*
X174627200Y-70929523D01*
X174627200Y-70929523D02*
X174674819Y-70834285D01*
X174674819Y-70834285D02*
X174674819Y-70643809D01*
X174674819Y-70643809D02*
X174627200Y-70548571D01*
X174627200Y-70548571D02*
X174579580Y-70500952D01*
X174579580Y-70500952D02*
X174484342Y-70453333D01*
X174484342Y-70453333D02*
X174293866Y-70453333D01*
X174293866Y-70453333D02*
X174198628Y-70500952D01*
X174198628Y-70500952D02*
X174151009Y-70548571D01*
X174151009Y-70548571D02*
X174103390Y-70643809D01*
X202866666Y-119064819D02*
X202866666Y-119779104D01*
X202866666Y-119779104D02*
X202819047Y-119921961D01*
X202819047Y-119921961D02*
X202723809Y-120017200D01*
X202723809Y-120017200D02*
X202580952Y-120064819D01*
X202580952Y-120064819D02*
X202485714Y-120064819D01*
X203819047Y-119064819D02*
X203342857Y-119064819D01*
X203342857Y-119064819D02*
X203295238Y-119541009D01*
X203295238Y-119541009D02*
X203342857Y-119493390D01*
X203342857Y-119493390D02*
X203438095Y-119445771D01*
X203438095Y-119445771D02*
X203676190Y-119445771D01*
X203676190Y-119445771D02*
X203771428Y-119493390D01*
X203771428Y-119493390D02*
X203819047Y-119541009D01*
X203819047Y-119541009D02*
X203866666Y-119636247D01*
X203866666Y-119636247D02*
X203866666Y-119874342D01*
X203866666Y-119874342D02*
X203819047Y-119969580D01*
X203819047Y-119969580D02*
X203771428Y-120017200D01*
X203771428Y-120017200D02*
X203676190Y-120064819D01*
X203676190Y-120064819D02*
X203438095Y-120064819D01*
X203438095Y-120064819D02*
X203342857Y-120017200D01*
X203342857Y-120017200D02*
X203295238Y-119969580D01*
X201763333Y-131169580D02*
X201715714Y-131217200D01*
X201715714Y-131217200D02*
X201572857Y-131264819D01*
X201572857Y-131264819D02*
X201477619Y-131264819D01*
X201477619Y-131264819D02*
X201334762Y-131217200D01*
X201334762Y-131217200D02*
X201239524Y-131121961D01*
X201239524Y-131121961D02*
X201191905Y-131026723D01*
X201191905Y-131026723D02*
X201144286Y-130836247D01*
X201144286Y-130836247D02*
X201144286Y-130693390D01*
X201144286Y-130693390D02*
X201191905Y-130502914D01*
X201191905Y-130502914D02*
X201239524Y-130407676D01*
X201239524Y-130407676D02*
X201334762Y-130312438D01*
X201334762Y-130312438D02*
X201477619Y-130264819D01*
X201477619Y-130264819D02*
X201572857Y-130264819D01*
X201572857Y-130264819D02*
X201715714Y-130312438D01*
X201715714Y-130312438D02*
X201763333Y-130360057D01*
X202668095Y-130264819D02*
X202191905Y-130264819D01*
X202191905Y-130264819D02*
X202144286Y-130741009D01*
X202144286Y-130741009D02*
X202191905Y-130693390D01*
X202191905Y-130693390D02*
X202287143Y-130645771D01*
X202287143Y-130645771D02*
X202525238Y-130645771D01*
X202525238Y-130645771D02*
X202620476Y-130693390D01*
X202620476Y-130693390D02*
X202668095Y-130741009D01*
X202668095Y-130741009D02*
X202715714Y-130836247D01*
X202715714Y-130836247D02*
X202715714Y-131074342D01*
X202715714Y-131074342D02*
X202668095Y-131169580D01*
X202668095Y-131169580D02*
X202620476Y-131217200D01*
X202620476Y-131217200D02*
X202525238Y-131264819D01*
X202525238Y-131264819D02*
X202287143Y-131264819D01*
X202287143Y-131264819D02*
X202191905Y-131217200D01*
X202191905Y-131217200D02*
X202144286Y-131169580D01*
X190859580Y-95416666D02*
X190907200Y-95464285D01*
X190907200Y-95464285D02*
X190954819Y-95607142D01*
X190954819Y-95607142D02*
X190954819Y-95702380D01*
X190954819Y-95702380D02*
X190907200Y-95845237D01*
X190907200Y-95845237D02*
X190811961Y-95940475D01*
X190811961Y-95940475D02*
X190716723Y-95988094D01*
X190716723Y-95988094D02*
X190526247Y-96035713D01*
X190526247Y-96035713D02*
X190383390Y-96035713D01*
X190383390Y-96035713D02*
X190192914Y-95988094D01*
X190192914Y-95988094D02*
X190097676Y-95940475D01*
X190097676Y-95940475D02*
X190002438Y-95845237D01*
X190002438Y-95845237D02*
X189954819Y-95702380D01*
X189954819Y-95702380D02*
X189954819Y-95607142D01*
X189954819Y-95607142D02*
X190002438Y-95464285D01*
X190002438Y-95464285D02*
X190050057Y-95416666D01*
X190288152Y-94559523D02*
X190954819Y-94559523D01*
X189907200Y-94797618D02*
X190621485Y-95035713D01*
X190621485Y-95035713D02*
X190621485Y-94416666D01*
X117776666Y-76924819D02*
X117776666Y-77639104D01*
X117776666Y-77639104D02*
X117729047Y-77781961D01*
X117729047Y-77781961D02*
X117633809Y-77877200D01*
X117633809Y-77877200D02*
X117490952Y-77924819D01*
X117490952Y-77924819D02*
X117395714Y-77924819D01*
X118205238Y-77020057D02*
X118252857Y-76972438D01*
X118252857Y-76972438D02*
X118348095Y-76924819D01*
X118348095Y-76924819D02*
X118586190Y-76924819D01*
X118586190Y-76924819D02*
X118681428Y-76972438D01*
X118681428Y-76972438D02*
X118729047Y-77020057D01*
X118729047Y-77020057D02*
X118776666Y-77115295D01*
X118776666Y-77115295D02*
X118776666Y-77210533D01*
X118776666Y-77210533D02*
X118729047Y-77353390D01*
X118729047Y-77353390D02*
X118157619Y-77924819D01*
X118157619Y-77924819D02*
X118776666Y-77924819D01*
X147272333Y-68617180D02*
X147272333Y-67902895D01*
X147272333Y-67902895D02*
X147319952Y-67760038D01*
X147319952Y-67760038D02*
X147415190Y-67664800D01*
X147415190Y-67664800D02*
X147558047Y-67617180D01*
X147558047Y-67617180D02*
X147653285Y-67617180D01*
X146272333Y-67617180D02*
X146843761Y-67617180D01*
X146558047Y-67617180D02*
X146558047Y-68617180D01*
X146558047Y-68617180D02*
X146653285Y-68474323D01*
X146653285Y-68474323D02*
X146748523Y-68379085D01*
X146748523Y-68379085D02*
X146843761Y-68331466D01*
D10*
X143587115Y-71501533D02*
X142825211Y-71501533D01*
X150445115Y-71501533D02*
X149683211Y-71501533D01*
X150064163Y-71120580D02*
X150064163Y-71882485D01*
D12*
X136384819Y-107013333D02*
X137099104Y-107013333D01*
X137099104Y-107013333D02*
X137241961Y-107060952D01*
X137241961Y-107060952D02*
X137337200Y-107156190D01*
X137337200Y-107156190D02*
X137384819Y-107299047D01*
X137384819Y-107299047D02*
X137384819Y-107394285D01*
X136384819Y-106108571D02*
X136384819Y-106299047D01*
X136384819Y-106299047D02*
X136432438Y-106394285D01*
X136432438Y-106394285D02*
X136480057Y-106441904D01*
X136480057Y-106441904D02*
X136622914Y-106537142D01*
X136622914Y-106537142D02*
X136813390Y-106584761D01*
X136813390Y-106584761D02*
X137194342Y-106584761D01*
X137194342Y-106584761D02*
X137289580Y-106537142D01*
X137289580Y-106537142D02*
X137337200Y-106489523D01*
X137337200Y-106489523D02*
X137384819Y-106394285D01*
X137384819Y-106394285D02*
X137384819Y-106203809D01*
X137384819Y-106203809D02*
X137337200Y-106108571D01*
X137337200Y-106108571D02*
X137289580Y-106060952D01*
X137289580Y-106060952D02*
X137194342Y-106013333D01*
X137194342Y-106013333D02*
X136956247Y-106013333D01*
X136956247Y-106013333D02*
X136861009Y-106060952D01*
X136861009Y-106060952D02*
X136813390Y-106108571D01*
X136813390Y-106108571D02*
X136765771Y-106203809D01*
X136765771Y-106203809D02*
X136765771Y-106394285D01*
X136765771Y-106394285D02*
X136813390Y-106489523D01*
X136813390Y-106489523D02*
X136861009Y-106537142D01*
X136861009Y-106537142D02*
X136956247Y-106584761D01*
X112268095Y-72844819D02*
X112268095Y-71844819D01*
X112268095Y-72321009D02*
X112839523Y-72321009D01*
X112839523Y-72844819D02*
X112839523Y-71844819D01*
X113839523Y-72844819D02*
X113268095Y-72844819D01*
X113553809Y-72844819D02*
X113553809Y-71844819D01*
X113553809Y-71844819D02*
X113458571Y-71987676D01*
X113458571Y-71987676D02*
X113363333Y-72082914D01*
X113363333Y-72082914D02*
X113268095Y-72130533D01*
X143343333Y-80329580D02*
X143295714Y-80377200D01*
X143295714Y-80377200D02*
X143152857Y-80424819D01*
X143152857Y-80424819D02*
X143057619Y-80424819D01*
X143057619Y-80424819D02*
X142914762Y-80377200D01*
X142914762Y-80377200D02*
X142819524Y-80281961D01*
X142819524Y-80281961D02*
X142771905Y-80186723D01*
X142771905Y-80186723D02*
X142724286Y-79996247D01*
X142724286Y-79996247D02*
X142724286Y-79853390D01*
X142724286Y-79853390D02*
X142771905Y-79662914D01*
X142771905Y-79662914D02*
X142819524Y-79567676D01*
X142819524Y-79567676D02*
X142914762Y-79472438D01*
X142914762Y-79472438D02*
X143057619Y-79424819D01*
X143057619Y-79424819D02*
X143152857Y-79424819D01*
X143152857Y-79424819D02*
X143295714Y-79472438D01*
X143295714Y-79472438D02*
X143343333Y-79520057D01*
X143724286Y-79520057D02*
X143771905Y-79472438D01*
X143771905Y-79472438D02*
X143867143Y-79424819D01*
X143867143Y-79424819D02*
X144105238Y-79424819D01*
X144105238Y-79424819D02*
X144200476Y-79472438D01*
X144200476Y-79472438D02*
X144248095Y-79520057D01*
X144248095Y-79520057D02*
X144295714Y-79615295D01*
X144295714Y-79615295D02*
X144295714Y-79710533D01*
X144295714Y-79710533D02*
X144248095Y-79853390D01*
X144248095Y-79853390D02*
X143676667Y-80424819D01*
X143676667Y-80424819D02*
X144295714Y-80424819D01*
X203559580Y-94146666D02*
X203607200Y-94194285D01*
X203607200Y-94194285D02*
X203654819Y-94337142D01*
X203654819Y-94337142D02*
X203654819Y-94432380D01*
X203654819Y-94432380D02*
X203607200Y-94575237D01*
X203607200Y-94575237D02*
X203511961Y-94670475D01*
X203511961Y-94670475D02*
X203416723Y-94718094D01*
X203416723Y-94718094D02*
X203226247Y-94765713D01*
X203226247Y-94765713D02*
X203083390Y-94765713D01*
X203083390Y-94765713D02*
X202892914Y-94718094D01*
X202892914Y-94718094D02*
X202797676Y-94670475D01*
X202797676Y-94670475D02*
X202702438Y-94575237D01*
X202702438Y-94575237D02*
X202654819Y-94432380D01*
X202654819Y-94432380D02*
X202654819Y-94337142D01*
X202654819Y-94337142D02*
X202702438Y-94194285D01*
X202702438Y-94194285D02*
X202750057Y-94146666D01*
X202654819Y-93813332D02*
X202654819Y-93194285D01*
X202654819Y-93194285D02*
X203035771Y-93527618D01*
X203035771Y-93527618D02*
X203035771Y-93384761D01*
X203035771Y-93384761D02*
X203083390Y-93289523D01*
X203083390Y-93289523D02*
X203131009Y-93241904D01*
X203131009Y-93241904D02*
X203226247Y-93194285D01*
X203226247Y-93194285D02*
X203464342Y-93194285D01*
X203464342Y-93194285D02*
X203559580Y-93241904D01*
X203559580Y-93241904D02*
X203607200Y-93289523D01*
X203607200Y-93289523D02*
X203654819Y-93384761D01*
X203654819Y-93384761D02*
X203654819Y-93670475D01*
X203654819Y-93670475D02*
X203607200Y-93765713D01*
X203607200Y-93765713D02*
X203559580Y-93813332D01*
X136384819Y-85423333D02*
X137099104Y-85423333D01*
X137099104Y-85423333D02*
X137241961Y-85470952D01*
X137241961Y-85470952D02*
X137337200Y-85566190D01*
X137337200Y-85566190D02*
X137384819Y-85709047D01*
X137384819Y-85709047D02*
X137384819Y-85804285D01*
X136384819Y-85042380D02*
X136384819Y-84375714D01*
X136384819Y-84375714D02*
X137384819Y-84804285D01*
X152253333Y-73429580D02*
X152205714Y-73477200D01*
X152205714Y-73477200D02*
X152062857Y-73524819D01*
X152062857Y-73524819D02*
X151967619Y-73524819D01*
X151967619Y-73524819D02*
X151824762Y-73477200D01*
X151824762Y-73477200D02*
X151729524Y-73381961D01*
X151729524Y-73381961D02*
X151681905Y-73286723D01*
X151681905Y-73286723D02*
X151634286Y-73096247D01*
X151634286Y-73096247D02*
X151634286Y-72953390D01*
X151634286Y-72953390D02*
X151681905Y-72762914D01*
X151681905Y-72762914D02*
X151729524Y-72667676D01*
X151729524Y-72667676D02*
X151824762Y-72572438D01*
X151824762Y-72572438D02*
X151967619Y-72524819D01*
X151967619Y-72524819D02*
X152062857Y-72524819D01*
X152062857Y-72524819D02*
X152205714Y-72572438D01*
X152205714Y-72572438D02*
X152253333Y-72620057D01*
X153205714Y-73524819D02*
X152634286Y-73524819D01*
X152920000Y-73524819D02*
X152920000Y-72524819D01*
X152920000Y-72524819D02*
X152824762Y-72667676D01*
X152824762Y-72667676D02*
X152729524Y-72762914D01*
X152729524Y-72762914D02*
X152634286Y-72810533D01*
X119213333Y-86814819D02*
X118880000Y-86338628D01*
X118641905Y-86814819D02*
X118641905Y-85814819D01*
X118641905Y-85814819D02*
X119022857Y-85814819D01*
X119022857Y-85814819D02*
X119118095Y-85862438D01*
X119118095Y-85862438D02*
X119165714Y-85910057D01*
X119165714Y-85910057D02*
X119213333Y-86005295D01*
X119213333Y-86005295D02*
X119213333Y-86148152D01*
X119213333Y-86148152D02*
X119165714Y-86243390D01*
X119165714Y-86243390D02*
X119118095Y-86291009D01*
X119118095Y-86291009D02*
X119022857Y-86338628D01*
X119022857Y-86338628D02*
X118641905Y-86338628D01*
X120165714Y-86814819D02*
X119594286Y-86814819D01*
X119880000Y-86814819D02*
X119880000Y-85814819D01*
X119880000Y-85814819D02*
X119784762Y-85957676D01*
X119784762Y-85957676D02*
X119689524Y-86052914D01*
X119689524Y-86052914D02*
X119594286Y-86100533D01*
X208788095Y-72844819D02*
X208788095Y-71844819D01*
X208788095Y-72321009D02*
X209359523Y-72321009D01*
X209359523Y-72844819D02*
X209359523Y-71844819D01*
X209788095Y-71940057D02*
X209835714Y-71892438D01*
X209835714Y-71892438D02*
X209930952Y-71844819D01*
X209930952Y-71844819D02*
X210169047Y-71844819D01*
X210169047Y-71844819D02*
X210264285Y-71892438D01*
X210264285Y-71892438D02*
X210311904Y-71940057D01*
X210311904Y-71940057D02*
X210359523Y-72035295D01*
X210359523Y-72035295D02*
X210359523Y-72130533D01*
X210359523Y-72130533D02*
X210311904Y-72273390D01*
X210311904Y-72273390D02*
X209740476Y-72844819D01*
X209740476Y-72844819D02*
X210359523Y-72844819D01*
X193976666Y-80144819D02*
X193976666Y-80859104D01*
X193976666Y-80859104D02*
X193929047Y-81001961D01*
X193929047Y-81001961D02*
X193833809Y-81097200D01*
X193833809Y-81097200D02*
X193690952Y-81144819D01*
X193690952Y-81144819D02*
X193595714Y-81144819D01*
X194500476Y-81144819D02*
X194690952Y-81144819D01*
X194690952Y-81144819D02*
X194786190Y-81097200D01*
X194786190Y-81097200D02*
X194833809Y-81049580D01*
X194833809Y-81049580D02*
X194929047Y-80906723D01*
X194929047Y-80906723D02*
X194976666Y-80716247D01*
X194976666Y-80716247D02*
X194976666Y-80335295D01*
X194976666Y-80335295D02*
X194929047Y-80240057D01*
X194929047Y-80240057D02*
X194881428Y-80192438D01*
X194881428Y-80192438D02*
X194786190Y-80144819D01*
X194786190Y-80144819D02*
X194595714Y-80144819D01*
X194595714Y-80144819D02*
X194500476Y-80192438D01*
X194500476Y-80192438D02*
X194452857Y-80240057D01*
X194452857Y-80240057D02*
X194405238Y-80335295D01*
X194405238Y-80335295D02*
X194405238Y-80573390D01*
X194405238Y-80573390D02*
X194452857Y-80668628D01*
X194452857Y-80668628D02*
X194500476Y-80716247D01*
X194500476Y-80716247D02*
X194595714Y-80763866D01*
X194595714Y-80763866D02*
X194786190Y-80763866D01*
X194786190Y-80763866D02*
X194881428Y-80716247D01*
X194881428Y-80716247D02*
X194929047Y-80668628D01*
X194929047Y-80668628D02*
X194976666Y-80573390D01*
X191917713Y-100208816D02*
X191917713Y-101019308D01*
X191917713Y-101019308D02*
X191965389Y-101114660D01*
X191965389Y-101114660D02*
X192013065Y-101162337D01*
X192013065Y-101162337D02*
X192108417Y-101210013D01*
X192108417Y-101210013D02*
X192299121Y-101210013D01*
X192299121Y-101210013D02*
X192394473Y-101162337D01*
X192394473Y-101162337D02*
X192442149Y-101114660D01*
X192442149Y-101114660D02*
X192489825Y-101019308D01*
X192489825Y-101019308D02*
X192489825Y-100208816D01*
X193491022Y-101210013D02*
X192918910Y-101210013D01*
X193204966Y-101210013D02*
X193204966Y-100208816D01*
X193204966Y-100208816D02*
X193109614Y-100351844D01*
X193109614Y-100351844D02*
X193014262Y-100447196D01*
X193014262Y-100447196D02*
X192918910Y-100494872D01*
X208788095Y-125274819D02*
X208788095Y-124274819D01*
X208788095Y-124751009D02*
X209359523Y-124751009D01*
X209359523Y-125274819D02*
X209359523Y-124274819D01*
X209740476Y-124274819D02*
X210359523Y-124274819D01*
X210359523Y-124274819D02*
X210026190Y-124655771D01*
X210026190Y-124655771D02*
X210169047Y-124655771D01*
X210169047Y-124655771D02*
X210264285Y-124703390D01*
X210264285Y-124703390D02*
X210311904Y-124751009D01*
X210311904Y-124751009D02*
X210359523Y-124846247D01*
X210359523Y-124846247D02*
X210359523Y-125084342D01*
X210359523Y-125084342D02*
X210311904Y-125179580D01*
X210311904Y-125179580D02*
X210264285Y-125227200D01*
X210264285Y-125227200D02*
X210169047Y-125274819D01*
X210169047Y-125274819D02*
X209883333Y-125274819D01*
X209883333Y-125274819D02*
X209788095Y-125227200D01*
X209788095Y-125227200D02*
X209740476Y-125179580D01*
X172553333Y-79194819D02*
X172220000Y-78718628D01*
X171981905Y-79194819D02*
X171981905Y-78194819D01*
X171981905Y-78194819D02*
X172362857Y-78194819D01*
X172362857Y-78194819D02*
X172458095Y-78242438D01*
X172458095Y-78242438D02*
X172505714Y-78290057D01*
X172505714Y-78290057D02*
X172553333Y-78385295D01*
X172553333Y-78385295D02*
X172553333Y-78528152D01*
X172553333Y-78528152D02*
X172505714Y-78623390D01*
X172505714Y-78623390D02*
X172458095Y-78671009D01*
X172458095Y-78671009D02*
X172362857Y-78718628D01*
X172362857Y-78718628D02*
X171981905Y-78718628D01*
X172934286Y-78290057D02*
X172981905Y-78242438D01*
X172981905Y-78242438D02*
X173077143Y-78194819D01*
X173077143Y-78194819D02*
X173315238Y-78194819D01*
X173315238Y-78194819D02*
X173410476Y-78242438D01*
X173410476Y-78242438D02*
X173458095Y-78290057D01*
X173458095Y-78290057D02*
X173505714Y-78385295D01*
X173505714Y-78385295D02*
X173505714Y-78480533D01*
X173505714Y-78480533D02*
X173458095Y-78623390D01*
X173458095Y-78623390D02*
X172886667Y-79194819D01*
X172886667Y-79194819D02*
X173505714Y-79194819D01*
X112268095Y-125274819D02*
X112268095Y-124274819D01*
X112268095Y-124751009D02*
X112839523Y-124751009D01*
X112839523Y-125274819D02*
X112839523Y-124274819D01*
X113744285Y-124608152D02*
X113744285Y-125274819D01*
X113506190Y-124227200D02*
X113268095Y-124941485D01*
X113268095Y-124941485D02*
X113887142Y-124941485D01*
%TO.C,J8*%
D13*
X165040000Y-69790000D02*
X165040000Y-72450000D01*
X170180000Y-69790000D02*
X165040000Y-69790000D01*
X170180000Y-69790000D02*
X170180000Y-72450000D01*
X170180000Y-72450000D02*
X165040000Y-72450000D01*
X172780000Y-71120000D02*
X172780000Y-72450000D01*
X172780000Y-72450000D02*
X171450000Y-72450000D01*
%TO.C,J5*%
X201870000Y-115570000D02*
X201870000Y-105350000D01*
X201870000Y-118170000D02*
X201870000Y-116840000D01*
X203200000Y-118170000D02*
X201870000Y-118170000D01*
X204530000Y-105350000D02*
X201870000Y-105350000D01*
X204530000Y-115570000D02*
X201870000Y-115570000D01*
X204530000Y-115570000D02*
X204530000Y-105350000D01*
%TO.C,C5*%
X198710000Y-126132000D02*
X198710000Y-125328000D01*
X198750000Y-126363000D02*
X198750000Y-125097000D01*
X198790000Y-126531000D02*
X198790000Y-124929000D01*
X198830000Y-126669000D02*
X198830000Y-124791000D01*
X198870000Y-126788000D02*
X198870000Y-124672000D01*
X198910000Y-126895000D02*
X198910000Y-124565000D01*
X198950000Y-126991000D02*
X198950000Y-124469000D01*
X198990000Y-127080000D02*
X198990000Y-124380000D01*
X199030000Y-127162000D02*
X199030000Y-124298000D01*
X199070000Y-127239000D02*
X199070000Y-124221000D01*
X199110000Y-127311000D02*
X199110000Y-124149000D01*
X199150000Y-127379000D02*
X199150000Y-124081000D01*
X199190000Y-127444000D02*
X199190000Y-124016000D01*
X199230000Y-127505000D02*
X199230000Y-123955000D01*
X199270000Y-127564000D02*
X199270000Y-123896000D01*
X199310000Y-127620000D02*
X199310000Y-123840000D01*
X199350000Y-127673000D02*
X199350000Y-123787000D01*
X199390000Y-127725000D02*
X199390000Y-123735000D01*
X199430000Y-127774000D02*
X199430000Y-123686000D01*
X199470000Y-127821000D02*
X199470000Y-123639000D01*
X199510000Y-127867000D02*
X199510000Y-123593000D01*
X199550000Y-127911000D02*
X199550000Y-123549000D01*
X199590000Y-127953000D02*
X199590000Y-123507000D01*
X199630000Y-127994000D02*
X199630000Y-123466000D01*
X199670000Y-124690000D02*
X199670000Y-123426000D01*
X199670000Y-128034000D02*
X199670000Y-126770000D01*
X199710000Y-124690000D02*
X199710000Y-123388000D01*
X199710000Y-128072000D02*
X199710000Y-126770000D01*
X199750000Y-124690000D02*
X199750000Y-123351000D01*
X199750000Y-128109000D02*
X199750000Y-126770000D01*
X199790000Y-124690000D02*
X199790000Y-123315000D01*
X199790000Y-128145000D02*
X199790000Y-126770000D01*
X199830000Y-124690000D02*
X199830000Y-123280000D01*
X199830000Y-128180000D02*
X199830000Y-126770000D01*
X199870000Y-124690000D02*
X199870000Y-123247000D01*
X199870000Y-128213000D02*
X199870000Y-126770000D01*
X199910000Y-124690000D02*
X199910000Y-123214000D01*
X199910000Y-128246000D02*
X199910000Y-126770000D01*
X199950000Y-124690000D02*
X199950000Y-123183000D01*
X199950000Y-128277000D02*
X199950000Y-126770000D01*
X199990000Y-124690000D02*
X199990000Y-123153000D01*
X199990000Y-128307000D02*
X199990000Y-126770000D01*
X200030000Y-124690000D02*
X200030000Y-123123000D01*
X200030000Y-128337000D02*
X200030000Y-126770000D01*
X200070000Y-124690000D02*
X200070000Y-123094000D01*
X200070000Y-128366000D02*
X200070000Y-126770000D01*
X200110000Y-124690000D02*
X200110000Y-123067000D01*
X200110000Y-128393000D02*
X200110000Y-126770000D01*
X200150000Y-124690000D02*
X200150000Y-123040000D01*
X200150000Y-128420000D02*
X200150000Y-126770000D01*
X200190000Y-124690000D02*
X200190000Y-123014000D01*
X200190000Y-128446000D02*
X200190000Y-126770000D01*
X200230000Y-124690000D02*
X200230000Y-122989000D01*
X200230000Y-128471000D02*
X200230000Y-126770000D01*
X200270000Y-124690000D02*
X200270000Y-122965000D01*
X200270000Y-128495000D02*
X200270000Y-126770000D01*
X200310000Y-124690000D02*
X200310000Y-122941000D01*
X200310000Y-128519000D02*
X200310000Y-126770000D01*
X200350000Y-124690000D02*
X200350000Y-122918000D01*
X200350000Y-128542000D02*
X200350000Y-126770000D01*
X200390000Y-124690000D02*
X200390000Y-122896000D01*
X200390000Y-128564000D02*
X200390000Y-126770000D01*
X200430000Y-124690000D02*
X200430000Y-122875000D01*
X200430000Y-128585000D02*
X200430000Y-126770000D01*
X200470000Y-124690000D02*
X200470000Y-122854000D01*
X200470000Y-128606000D02*
X200470000Y-126770000D01*
X200510000Y-124690000D02*
X200510000Y-122834000D01*
X200510000Y-128626000D02*
X200510000Y-126770000D01*
X200550000Y-124690000D02*
X200550000Y-122815000D01*
X200550000Y-128645000D02*
X200550000Y-126770000D01*
X200590000Y-124690000D02*
X200590000Y-122796000D01*
X200590000Y-128664000D02*
X200590000Y-126770000D01*
X200630000Y-124690000D02*
X200630000Y-122778000D01*
X200630000Y-128682000D02*
X200630000Y-126770000D01*
X200670000Y-124690000D02*
X200670000Y-122761000D01*
X200670000Y-128699000D02*
X200670000Y-126770000D01*
X200710000Y-124690000D02*
X200710000Y-122744000D01*
X200710000Y-128716000D02*
X200710000Y-126770000D01*
X200750000Y-124690000D02*
X200750000Y-122728000D01*
X200750000Y-128732000D02*
X200750000Y-126770000D01*
X200790000Y-124690000D02*
X200790000Y-122713000D01*
X200790000Y-128747000D02*
X200790000Y-126770000D01*
X200830000Y-124690000D02*
X200830000Y-122698000D01*
X200830000Y-128762000D02*
X200830000Y-126770000D01*
X200870000Y-124690000D02*
X200870000Y-122683000D01*
X200870000Y-128777000D02*
X200870000Y-126770000D01*
X200910000Y-124690000D02*
X200910000Y-122670000D01*
X200910000Y-128790000D02*
X200910000Y-126770000D01*
X200950000Y-124690000D02*
X200950000Y-122657000D01*
X200950000Y-128803000D02*
X200950000Y-126770000D01*
X200990000Y-124690000D02*
X200990000Y-122644000D01*
X200990000Y-128816000D02*
X200990000Y-126770000D01*
X201030000Y-124690000D02*
X201030000Y-122632000D01*
X201030000Y-128828000D02*
X201030000Y-126770000D01*
X201070000Y-124690000D02*
X201070000Y-122621000D01*
X201070000Y-128839000D02*
X201070000Y-126770000D01*
X201110000Y-124690000D02*
X201110000Y-122610000D01*
X201110000Y-128850000D02*
X201110000Y-126770000D01*
X201150000Y-124690000D02*
X201150000Y-122599000D01*
X201150000Y-128861000D02*
X201150000Y-126770000D01*
X201190000Y-124690000D02*
X201190000Y-122590000D01*
X201190000Y-128870000D02*
X201190000Y-126770000D01*
X201230000Y-124690000D02*
X201230000Y-122580000D01*
X201230000Y-128880000D02*
X201230000Y-126770000D01*
X201270000Y-124690000D02*
X201270000Y-122571000D01*
X201270000Y-128889000D02*
X201270000Y-126770000D01*
X201310000Y-124690000D02*
X201310000Y-122563000D01*
X201310000Y-128897000D02*
X201310000Y-126770000D01*
X201350000Y-124690000D02*
X201350000Y-122556000D01*
X201350000Y-128904000D02*
X201350000Y-126770000D01*
X201390000Y-124690000D02*
X201390000Y-122548000D01*
X201390000Y-128912000D02*
X201390000Y-126770000D01*
X201430000Y-124690000D02*
X201430000Y-122542000D01*
X201430000Y-128918000D02*
X201430000Y-126770000D01*
X201470000Y-124690000D02*
X201470000Y-122535000D01*
X201470000Y-128925000D02*
X201470000Y-126770000D01*
X201510000Y-124690000D02*
X201510000Y-122530000D01*
X201510000Y-128930000D02*
X201510000Y-126770000D01*
X201550000Y-124690000D02*
X201550000Y-122525000D01*
X201550000Y-128935000D02*
X201550000Y-126770000D01*
X201590000Y-124690000D02*
X201590000Y-122520000D01*
X201590000Y-128940000D02*
X201590000Y-126770000D01*
X201630000Y-124690000D02*
X201630000Y-122516000D01*
X201630000Y-128944000D02*
X201630000Y-126770000D01*
X201670000Y-124690000D02*
X201670000Y-122512000D01*
X201670000Y-128948000D02*
X201670000Y-126770000D01*
X201710000Y-124690000D02*
X201710000Y-122509000D01*
X201710000Y-128951000D02*
X201710000Y-126770000D01*
X201750000Y-128954000D02*
X201750000Y-122506000D01*
X201790000Y-128956000D02*
X201790000Y-122504000D01*
X201830000Y-128958000D02*
X201830000Y-122502000D01*
X201870000Y-128959000D02*
X201870000Y-122501000D01*
X201910000Y-128960000D02*
X201910000Y-122500000D01*
X201950000Y-128960000D02*
X201950000Y-122500000D01*
X205135241Y-127884000D02*
X205135241Y-127254000D01*
X205450241Y-127569000D02*
X204820241Y-127569000D01*
X205220000Y-125730000D02*
G75*
G02*
X198680000Y-125730000I-3270000J0D01*
G01*
X198680000Y-125730000D02*
G75*
G02*
X205220000Y-125730000I3270000J0D01*
G01*
%TO.C,C4*%
X189130000Y-92780000D02*
X189460000Y-92780000D01*
X189130000Y-97720000D02*
X189130000Y-92780000D01*
X189460000Y-97720000D02*
X189130000Y-97720000D01*
X191540000Y-92780000D02*
X191870000Y-92780000D01*
X191870000Y-92780000D02*
X191870000Y-97720000D01*
X191870000Y-97720000D02*
X191540000Y-97720000D01*
%TO.C,J2*%
X119875000Y-82620000D02*
X119875000Y-64660000D01*
X119875000Y-82620000D02*
X135395000Y-82620000D01*
X135395000Y-64660000D02*
X119875000Y-64660000D01*
X135395000Y-82620000D02*
X135395000Y-64660000D01*
X135580000Y-78740000D02*
X136080000Y-79240000D01*
X136080000Y-78240000D02*
X135580000Y-78740000D01*
X136080000Y-79240000D02*
X136080000Y-78240000D01*
%TO.C,J6*%
X138370000Y-105350000D02*
X139700000Y-105350000D01*
X138370000Y-106680000D02*
X138370000Y-105350000D01*
X140970000Y-105350000D02*
X179130000Y-105350000D01*
X140970000Y-108010000D02*
X140970000Y-105350000D01*
X140970000Y-108010000D02*
X179130000Y-108010000D01*
X179130000Y-108010000D02*
X179130000Y-105350000D01*
%TO.C,C2*%
X141040000Y-76100000D02*
X145980000Y-76100000D01*
X141040000Y-76430000D02*
X141040000Y-76100000D01*
X141040000Y-78840000D02*
X141040000Y-78510000D01*
X145980000Y-76100000D02*
X145980000Y-76430000D01*
X145980000Y-78510000D02*
X145980000Y-78840000D01*
X145980000Y-78840000D02*
X141040000Y-78840000D01*
%TO.C,C3*%
X197080000Y-94200000D02*
X194899000Y-94200000D01*
X197080000Y-94240000D02*
X194902000Y-94240000D01*
X197080000Y-94280000D02*
X194906000Y-94280000D01*
X197080000Y-94320000D02*
X194910000Y-94320000D01*
X197080000Y-94360000D02*
X194915000Y-94360000D01*
X197080000Y-94400000D02*
X194920000Y-94400000D01*
X197080000Y-94440000D02*
X194925000Y-94440000D01*
X197080000Y-94480000D02*
X194932000Y-94480000D01*
X197080000Y-94520000D02*
X194938000Y-94520000D01*
X197080000Y-94560000D02*
X194946000Y-94560000D01*
X197080000Y-94600000D02*
X194953000Y-94600000D01*
X197080000Y-94640000D02*
X194961000Y-94640000D01*
X197080000Y-94680000D02*
X194970000Y-94680000D01*
X197080000Y-94720000D02*
X194980000Y-94720000D01*
X197080000Y-94760000D02*
X194989000Y-94760000D01*
X197080000Y-94800000D02*
X195000000Y-94800000D01*
X197080000Y-94840000D02*
X195011000Y-94840000D01*
X197080000Y-94880000D02*
X195022000Y-94880000D01*
X197080000Y-94920000D02*
X195034000Y-94920000D01*
X197080000Y-94960000D02*
X195047000Y-94960000D01*
X197080000Y-95000000D02*
X195060000Y-95000000D01*
X197080000Y-95040000D02*
X195073000Y-95040000D01*
X197080000Y-95080000D02*
X195088000Y-95080000D01*
X197080000Y-95120000D02*
X195103000Y-95120000D01*
X197080000Y-95160000D02*
X195118000Y-95160000D01*
X197080000Y-95200000D02*
X195134000Y-95200000D01*
X197080000Y-95240000D02*
X195151000Y-95240000D01*
X197080000Y-95280000D02*
X195168000Y-95280000D01*
X197080000Y-95320000D02*
X195186000Y-95320000D01*
X197080000Y-95360000D02*
X195205000Y-95360000D01*
X197080000Y-95400000D02*
X195224000Y-95400000D01*
X197080000Y-95440000D02*
X195244000Y-95440000D01*
X197080000Y-95480000D02*
X195265000Y-95480000D01*
X197080000Y-95520000D02*
X195286000Y-95520000D01*
X197080000Y-95560000D02*
X195308000Y-95560000D01*
X197080000Y-95600000D02*
X195331000Y-95600000D01*
X197080000Y-95640000D02*
X195355000Y-95640000D01*
X197080000Y-95680000D02*
X195379000Y-95680000D01*
X197080000Y-95720000D02*
X195404000Y-95720000D01*
X197080000Y-95760000D02*
X195430000Y-95760000D01*
X197080000Y-95800000D02*
X195457000Y-95800000D01*
X197080000Y-95840000D02*
X195484000Y-95840000D01*
X197080000Y-95880000D02*
X195513000Y-95880000D01*
X197080000Y-95920000D02*
X195543000Y-95920000D01*
X197080000Y-95960000D02*
X195573000Y-95960000D01*
X197080000Y-96000000D02*
X195604000Y-96000000D01*
X197080000Y-96040000D02*
X195637000Y-96040000D01*
X197080000Y-96080000D02*
X195670000Y-96080000D01*
X197080000Y-96120000D02*
X195705000Y-96120000D01*
X197080000Y-96160000D02*
X195741000Y-96160000D01*
X197080000Y-96200000D02*
X195778000Y-96200000D01*
X197080000Y-96240000D02*
X195816000Y-96240000D01*
X198522000Y-97200000D02*
X197718000Y-97200000D01*
X198753000Y-97160000D02*
X197487000Y-97160000D01*
X198921000Y-97120000D02*
X197319000Y-97120000D01*
X199059000Y-97080000D02*
X197181000Y-97080000D01*
X199178000Y-97040000D02*
X197062000Y-97040000D01*
X199285000Y-97000000D02*
X196955000Y-97000000D01*
X199381000Y-96960000D02*
X196859000Y-96960000D01*
X199470000Y-96920000D02*
X196770000Y-96920000D01*
X199552000Y-96880000D02*
X196688000Y-96880000D01*
X199629000Y-96840000D02*
X196611000Y-96840000D01*
X199701000Y-96800000D02*
X196539000Y-96800000D01*
X199769000Y-96760000D02*
X196471000Y-96760000D01*
X199834000Y-96720000D02*
X196406000Y-96720000D01*
X199895000Y-96680000D02*
X196345000Y-96680000D01*
X199954000Y-96640000D02*
X196286000Y-96640000D01*
X199959000Y-90459759D02*
X199959000Y-91089759D01*
X200010000Y-96600000D02*
X196230000Y-96600000D01*
X200063000Y-96560000D02*
X196177000Y-96560000D01*
X200115000Y-96520000D02*
X196125000Y-96520000D01*
X200164000Y-96480000D02*
X196076000Y-96480000D01*
X200211000Y-96440000D02*
X196029000Y-96440000D01*
X200257000Y-96400000D02*
X195983000Y-96400000D01*
X200274000Y-90774759D02*
X199644000Y-90774759D01*
X200301000Y-96360000D02*
X195939000Y-96360000D01*
X200343000Y-96320000D02*
X195897000Y-96320000D01*
X200384000Y-96280000D02*
X195856000Y-96280000D01*
X200424000Y-96240000D02*
X199160000Y-96240000D01*
X200462000Y-96200000D02*
X199160000Y-96200000D01*
X200499000Y-96160000D02*
X199160000Y-96160000D01*
X200535000Y-96120000D02*
X199160000Y-96120000D01*
X200570000Y-96080000D02*
X199160000Y-96080000D01*
X200603000Y-96040000D02*
X199160000Y-96040000D01*
X200636000Y-96000000D02*
X199160000Y-96000000D01*
X200667000Y-95960000D02*
X199160000Y-95960000D01*
X200697000Y-95920000D02*
X199160000Y-95920000D01*
X200727000Y-95880000D02*
X199160000Y-95880000D01*
X200756000Y-95840000D02*
X199160000Y-95840000D01*
X200783000Y-95800000D02*
X199160000Y-95800000D01*
X200810000Y-95760000D02*
X199160000Y-95760000D01*
X200836000Y-95720000D02*
X199160000Y-95720000D01*
X200861000Y-95680000D02*
X199160000Y-95680000D01*
X200885000Y-95640000D02*
X199160000Y-95640000D01*
X200909000Y-95600000D02*
X199160000Y-95600000D01*
X200932000Y-95560000D02*
X199160000Y-95560000D01*
X200954000Y-95520000D02*
X199160000Y-95520000D01*
X200975000Y-95480000D02*
X199160000Y-95480000D01*
X200996000Y-95440000D02*
X199160000Y-95440000D01*
X201016000Y-95400000D02*
X199160000Y-95400000D01*
X201035000Y-95360000D02*
X199160000Y-95360000D01*
X201054000Y-95320000D02*
X199160000Y-95320000D01*
X201072000Y-95280000D02*
X199160000Y-95280000D01*
X201089000Y-95240000D02*
X199160000Y-95240000D01*
X201106000Y-95200000D02*
X199160000Y-95200000D01*
X201122000Y-95160000D02*
X199160000Y-95160000D01*
X201137000Y-95120000D02*
X199160000Y-95120000D01*
X201152000Y-95080000D02*
X199160000Y-95080000D01*
X201167000Y-95040000D02*
X199160000Y-95040000D01*
X201180000Y-95000000D02*
X199160000Y-95000000D01*
X201193000Y-94960000D02*
X199160000Y-94960000D01*
X201206000Y-94920000D02*
X199160000Y-94920000D01*
X201218000Y-94880000D02*
X199160000Y-94880000D01*
X201229000Y-94840000D02*
X199160000Y-94840000D01*
X201240000Y-94800000D02*
X199160000Y-94800000D01*
X201251000Y-94760000D02*
X199160000Y-94760000D01*
X201260000Y-94720000D02*
X199160000Y-94720000D01*
X201270000Y-94680000D02*
X199160000Y-94680000D01*
X201279000Y-94640000D02*
X199160000Y-94640000D01*
X201287000Y-94600000D02*
X199160000Y-94600000D01*
X201294000Y-94560000D02*
X199160000Y-94560000D01*
X201302000Y-94520000D02*
X199160000Y-94520000D01*
X201308000Y-94480000D02*
X199160000Y-94480000D01*
X201315000Y-94440000D02*
X199160000Y-94440000D01*
X201320000Y-94400000D02*
X199160000Y-94400000D01*
X201325000Y-94360000D02*
X199160000Y-94360000D01*
X201330000Y-94320000D02*
X199160000Y-94320000D01*
X201334000Y-94280000D02*
X199160000Y-94280000D01*
X201338000Y-94240000D02*
X199160000Y-94240000D01*
X201341000Y-94200000D02*
X199160000Y-94200000D01*
X201344000Y-94160000D02*
X194896000Y-94160000D01*
X201346000Y-94120000D02*
X194894000Y-94120000D01*
X201348000Y-94080000D02*
X194892000Y-94080000D01*
X201349000Y-94040000D02*
X194891000Y-94040000D01*
X201350000Y-93960000D02*
X194890000Y-93960000D01*
X201350000Y-94000000D02*
X194890000Y-94000000D01*
X201390000Y-93960000D02*
G75*
G02*
X194850000Y-93960000I-3270000J0D01*
G01*
X194850000Y-93960000D02*
G75*
G02*
X201390000Y-93960000I3270000J0D01*
G01*
%TO.C,J7*%
X138370000Y-83760000D02*
X139700000Y-83760000D01*
X138370000Y-85090000D02*
X138370000Y-83760000D01*
X140970000Y-83760000D02*
X179130000Y-83760000D01*
X140970000Y-86420000D02*
X140970000Y-83760000D01*
X140970000Y-86420000D02*
X179130000Y-86420000D01*
X179130000Y-86420000D02*
X179130000Y-83760000D01*
%TO.C,C1*%
X148919759Y-75631000D02*
X149549759Y-75631000D01*
X149234759Y-75316000D02*
X149234759Y-75946000D01*
X152420000Y-74240000D02*
X152420000Y-80700000D01*
X152460000Y-74240000D02*
X152460000Y-80700000D01*
X152500000Y-74241000D02*
X152500000Y-80699000D01*
X152540000Y-74242000D02*
X152540000Y-80698000D01*
X152580000Y-74244000D02*
X152580000Y-80696000D01*
X152620000Y-74246000D02*
X152620000Y-80694000D01*
X152660000Y-74249000D02*
X152660000Y-76430000D01*
X152660000Y-78510000D02*
X152660000Y-80691000D01*
X152700000Y-74252000D02*
X152700000Y-76430000D01*
X152700000Y-78510000D02*
X152700000Y-80688000D01*
X152740000Y-74256000D02*
X152740000Y-76430000D01*
X152740000Y-78510000D02*
X152740000Y-80684000D01*
X152780000Y-74260000D02*
X152780000Y-76430000D01*
X152780000Y-78510000D02*
X152780000Y-80680000D01*
X152820000Y-74265000D02*
X152820000Y-76430000D01*
X152820000Y-78510000D02*
X152820000Y-80675000D01*
X152860000Y-74270000D02*
X152860000Y-76430000D01*
X152860000Y-78510000D02*
X152860000Y-80670000D01*
X152900000Y-74275000D02*
X152900000Y-76430000D01*
X152900000Y-78510000D02*
X152900000Y-80665000D01*
X152940000Y-74282000D02*
X152940000Y-76430000D01*
X152940000Y-78510000D02*
X152940000Y-80658000D01*
X152980000Y-74288000D02*
X152980000Y-76430000D01*
X152980000Y-78510000D02*
X152980000Y-80652000D01*
X153020000Y-74296000D02*
X153020000Y-76430000D01*
X153020000Y-78510000D02*
X153020000Y-80644000D01*
X153060000Y-74303000D02*
X153060000Y-76430000D01*
X153060000Y-78510000D02*
X153060000Y-80637000D01*
X153100000Y-74311000D02*
X153100000Y-76430000D01*
X153100000Y-78510000D02*
X153100000Y-80629000D01*
X153140000Y-74320000D02*
X153140000Y-76430000D01*
X153140000Y-78510000D02*
X153140000Y-80620000D01*
X153180000Y-74330000D02*
X153180000Y-76430000D01*
X153180000Y-78510000D02*
X153180000Y-80610000D01*
X153220000Y-74339000D02*
X153220000Y-76430000D01*
X153220000Y-78510000D02*
X153220000Y-80601000D01*
X153260000Y-74350000D02*
X153260000Y-76430000D01*
X153260000Y-78510000D02*
X153260000Y-80590000D01*
X153300000Y-74361000D02*
X153300000Y-76430000D01*
X153300000Y-78510000D02*
X153300000Y-80579000D01*
X153340000Y-74372000D02*
X153340000Y-76430000D01*
X153340000Y-78510000D02*
X153340000Y-80568000D01*
X153380000Y-74384000D02*
X153380000Y-76430000D01*
X153380000Y-78510000D02*
X153380000Y-80556000D01*
X153420000Y-74397000D02*
X153420000Y-76430000D01*
X153420000Y-78510000D02*
X153420000Y-80543000D01*
X153460000Y-74410000D02*
X153460000Y-76430000D01*
X153460000Y-78510000D02*
X153460000Y-80530000D01*
X153500000Y-74423000D02*
X153500000Y-76430000D01*
X153500000Y-78510000D02*
X153500000Y-80517000D01*
X153540000Y-74438000D02*
X153540000Y-76430000D01*
X153540000Y-78510000D02*
X153540000Y-80502000D01*
X153580000Y-74453000D02*
X153580000Y-76430000D01*
X153580000Y-78510000D02*
X153580000Y-80487000D01*
X153620000Y-74468000D02*
X153620000Y-76430000D01*
X153620000Y-78510000D02*
X153620000Y-80472000D01*
X153660000Y-74484000D02*
X153660000Y-76430000D01*
X153660000Y-78510000D02*
X153660000Y-80456000D01*
X153700000Y-74501000D02*
X153700000Y-76430000D01*
X153700000Y-78510000D02*
X153700000Y-80439000D01*
X153740000Y-74518000D02*
X153740000Y-76430000D01*
X153740000Y-78510000D02*
X153740000Y-80422000D01*
X153780000Y-74536000D02*
X153780000Y-76430000D01*
X153780000Y-78510000D02*
X153780000Y-80404000D01*
X153820000Y-74555000D02*
X153820000Y-76430000D01*
X153820000Y-78510000D02*
X153820000Y-80385000D01*
X153860000Y-74574000D02*
X153860000Y-76430000D01*
X153860000Y-78510000D02*
X153860000Y-80366000D01*
X153900000Y-74594000D02*
X153900000Y-76430000D01*
X153900000Y-78510000D02*
X153900000Y-80346000D01*
X153940000Y-74615000D02*
X153940000Y-76430000D01*
X153940000Y-78510000D02*
X153940000Y-80325000D01*
X153980000Y-74636000D02*
X153980000Y-76430000D01*
X153980000Y-78510000D02*
X153980000Y-80304000D01*
X154020000Y-74658000D02*
X154020000Y-76430000D01*
X154020000Y-78510000D02*
X154020000Y-80282000D01*
X154060000Y-74681000D02*
X154060000Y-76430000D01*
X154060000Y-78510000D02*
X154060000Y-80259000D01*
X154100000Y-74705000D02*
X154100000Y-76430000D01*
X154100000Y-78510000D02*
X154100000Y-80235000D01*
X154140000Y-74729000D02*
X154140000Y-76430000D01*
X154140000Y-78510000D02*
X154140000Y-80211000D01*
X154180000Y-74754000D02*
X154180000Y-76430000D01*
X154180000Y-78510000D02*
X154180000Y-80186000D01*
X154220000Y-74780000D02*
X154220000Y-76430000D01*
X154220000Y-78510000D02*
X154220000Y-80160000D01*
X154260000Y-74807000D02*
X154260000Y-76430000D01*
X154260000Y-78510000D02*
X154260000Y-80133000D01*
X154300000Y-74834000D02*
X154300000Y-76430000D01*
X154300000Y-78510000D02*
X154300000Y-80106000D01*
X154340000Y-74863000D02*
X154340000Y-76430000D01*
X154340000Y-78510000D02*
X154340000Y-80077000D01*
X154380000Y-74893000D02*
X154380000Y-76430000D01*
X154380000Y-78510000D02*
X154380000Y-80047000D01*
X154420000Y-74923000D02*
X154420000Y-76430000D01*
X154420000Y-78510000D02*
X154420000Y-80017000D01*
X154460000Y-74954000D02*
X154460000Y-76430000D01*
X154460000Y-78510000D02*
X154460000Y-79986000D01*
X154500000Y-74987000D02*
X154500000Y-76430000D01*
X154500000Y-78510000D02*
X154500000Y-79953000D01*
X154540000Y-75020000D02*
X154540000Y-76430000D01*
X154540000Y-78510000D02*
X154540000Y-79920000D01*
X154580000Y-75055000D02*
X154580000Y-76430000D01*
X154580000Y-78510000D02*
X154580000Y-79885000D01*
X154620000Y-75091000D02*
X154620000Y-76430000D01*
X154620000Y-78510000D02*
X154620000Y-79849000D01*
X154660000Y-75128000D02*
X154660000Y-76430000D01*
X154660000Y-78510000D02*
X154660000Y-79812000D01*
X154700000Y-75166000D02*
X154700000Y-76430000D01*
X154700000Y-78510000D02*
X154700000Y-79774000D01*
X154740000Y-75206000D02*
X154740000Y-79734000D01*
X154780000Y-75247000D02*
X154780000Y-79693000D01*
X154820000Y-75289000D02*
X154820000Y-79651000D01*
X154860000Y-75333000D02*
X154860000Y-79607000D01*
X154900000Y-75379000D02*
X154900000Y-79561000D01*
X154940000Y-75426000D02*
X154940000Y-79514000D01*
X154980000Y-75475000D02*
X154980000Y-79465000D01*
X155020000Y-75527000D02*
X155020000Y-79413000D01*
X155060000Y-75580000D02*
X155060000Y-79360000D01*
X155100000Y-75636000D02*
X155100000Y-79304000D01*
X155140000Y-75695000D02*
X155140000Y-79245000D01*
X155180000Y-75756000D02*
X155180000Y-79184000D01*
X155220000Y-75821000D02*
X155220000Y-79119000D01*
X155260000Y-75889000D02*
X155260000Y-79051000D01*
X155300000Y-75961000D02*
X155300000Y-78979000D01*
X155340000Y-76038000D02*
X155340000Y-78902000D01*
X155380000Y-76120000D02*
X155380000Y-78820000D01*
X155420000Y-76209000D02*
X155420000Y-78731000D01*
X155460000Y-76305000D02*
X155460000Y-78635000D01*
X155500000Y-76412000D02*
X155500000Y-78528000D01*
X155540000Y-76531000D02*
X155540000Y-78409000D01*
X155580000Y-76669000D02*
X155580000Y-78271000D01*
X155620000Y-76837000D02*
X155620000Y-78103000D01*
X155660000Y-77068000D02*
X155660000Y-77872000D01*
X155690000Y-77470000D02*
G75*
G02*
X149150000Y-77470000I-3270000J0D01*
G01*
X149150000Y-77470000D02*
G75*
G02*
X155690000Y-77470000I3270000J0D01*
G01*
%TO.C,R1*%
X124643272Y-87280000D02*
G75*
G02*
X124643272Y-85440000I-1453272J920000D01*
G01*
%TO.C,J9*%
X189710000Y-64490000D02*
X198910000Y-64490000D01*
X189710000Y-72990000D02*
X189710000Y-64490000D01*
X189710000Y-79190000D02*
X189710000Y-77390000D01*
X191810000Y-79190000D02*
X189710000Y-79190000D01*
X197510000Y-79490000D02*
X199210000Y-79490000D01*
X198910000Y-64490000D02*
X198910000Y-79190000D01*
X198910000Y-79190000D02*
X196810000Y-79190000D01*
X199210000Y-79490000D02*
X199210000Y-77890000D01*
%TO.C,U1*%
D14*
X189480000Y-101910000D02*
X196600000Y-101910000D01*
X196600000Y-121610000D02*
X189480000Y-121610000D01*
D15*
X187960000Y-101960000D02*
G75*
G02*
X187720000Y-101960000I-120000J0D01*
G01*
X187720000Y-101960000D02*
G75*
G02*
X187960000Y-101960000I120000J0D01*
G01*
%TO.C,R2*%
D13*
X167456728Y-77820000D02*
G75*
G02*
X167456728Y-79660000I1453272J-920000D01*
G01*
%TO.C,*%
D10*
X121920000Y-110650000D02*
X180920000Y-110650000D01*
X180920000Y-130650000D01*
X121920000Y-130650000D01*
X121920000Y-110650000D01*
%TD*%
D16*
%TO.C,J6*%
X177800000Y-106680000D03*
%TD*%
M02*
