M48
; DRILL file KiCad 10.0.3 date 2026-07-04T11:32:38
; FORMAT={-:-/ absolute / metric / decimal}
; #@! TF.CreationDate,2026-07-04T11:32:38+09:00
; #@! TF.GenerationSoftware,Kicad,Pcbnew,10.0.3
; #@! TF.FileFunction,Plated,1,2,PTH
FMAT,2
METRIC
; #@! TA.AperFunction,Plated,PTH,ComponentDrill
T1C0.600
; #@! TA.AperFunction,Plated,PTH,ComponentDrill
T2C0.760
; #@! TA.AperFunction,Plated,PTH,ComponentDrill
T3C0.800
; #@! TA.AperFunction,Plated,PTH,ComponentDrill
T4C0.820
; #@! TA.AperFunction,Plated,PTH,ComponentDrill
T5C1.000
%
G90
G05
T2
X123.19Y-81.28
X124.46Y-78.74
X125.73Y-81.28
X127.0Y-78.74
X128.27Y-81.28
X129.54Y-78.74
X130.81Y-81.28
X132.08Y-78.74
T3
X123.19Y-86.36
X127.0Y-86.36
X141.01Y-77.47
X146.01Y-77.47
X151.17Y-77.47
X153.67Y-77.47
X166.37Y-78.74
X168.91Y-78.74
X190.5Y-92.75
X190.5Y-97.75
X198.12Y-92.71
X198.12Y-95.21
X200.7Y-125.73
X203.2Y-125.73
T4
X189.23Y-102.87
X189.23Y-105.41
X189.23Y-107.95
X189.23Y-110.49
X189.23Y-113.03
X189.23Y-115.57
X189.23Y-118.11
X189.23Y-120.65
X196.85Y-102.87
X196.85Y-105.41
X196.85Y-107.95
X196.85Y-110.49
X196.85Y-113.03
X196.85Y-115.57
X196.85Y-118.11
X196.85Y-120.65
T5
X126.61Y-115.47
X126.61Y-120.55
X126.61Y-125.63
X135.5Y-118.01
X135.5Y-120.55
X135.5Y-123.09
X139.7Y-85.09
X139.7Y-106.68
X142.24Y-85.09
X142.24Y-106.68
X144.78Y-71.12
X144.78Y-85.09
X144.78Y-106.68
X147.32Y-85.09
X147.32Y-106.68
X148.59Y-71.12
X149.86Y-85.09
X149.86Y-106.68
X152.4Y-85.09
X152.4Y-106.68
X154.94Y-85.09
X154.94Y-106.68
X157.48Y-85.09
X157.48Y-106.68
X160.02Y-85.09
X160.02Y-106.68
X162.56Y-85.09
X162.56Y-106.68
X165.1Y-85.09
X165.1Y-106.68
X166.37Y-71.12
X167.64Y-85.09
X167.64Y-106.68
X168.91Y-71.12
X170.18Y-85.09
X170.18Y-106.68
X171.45Y-71.12
X172.72Y-85.09
X172.72Y-106.68
X173.89Y-116.74
X173.89Y-119.28
X173.89Y-121.82
X173.89Y-124.36
X175.26Y-85.09
X175.26Y-106.68
X177.7Y-116.74
X177.7Y-119.28
X177.7Y-121.82
X177.7Y-124.36
X177.8Y-85.09
X177.8Y-106.68
X203.2Y-106.68
X203.2Y-109.22
X203.2Y-111.76
X203.2Y-114.3
X203.2Y-116.84
T1
G00X142.185Y-67.61
M15
G01X142.185Y-67.01
M16
G05
G00X151.13Y-67.61
M15
G01X151.13Y-67.01
M16
G05
T3
G00X189.51Y-74.09
M15
G01X189.51Y-76.29
M16
G05
G00X195.41Y-72.39
M15
G01X193.21Y-72.39
M16
G05
G00X195.61Y-78.19
M15
G01X193.01Y-78.19
M16
G05
M30
