%TF.GenerationSoftware,KiCad,Pcbnew,10.0.3*%
<<<<<<< HEAD
%TF.CreationDate,2026-07-15T12:57:31+09:00*%
=======
%TF.CreationDate,2026-07-04T11:32:24+09:00*%
>>>>>>> 91a6792 (First commit. Clock　Project　全てです。ESP32用コードも含まれています。SwitchBox制御用。MainBoard(Motor駆動用)。RS485通信。MainBoardはモーターテストコードまで。今後ホールセンサーを追加して、通信機能までコードを完成させていく予定です。)
%TF.ProjectId,fixed_MainBoard,66697865-645f-44d6-9169-6e426f617264,rev?*%
%TF.SameCoordinates,Original*%
%TF.FileFunction,Copper,L2,Bot*%
%TF.FilePolarity,Positive*%
%FSLAX46Y46*%
G04 Gerber Fmt 4.6, Leading zero omitted, Abs format (unit mm)*
<<<<<<< HEAD
G04 Created by KiCad (PCBNEW 10.0.3) date 2026-07-15 12:57:31*
=======
G04 Created by KiCad (PCBNEW 10.0.3) date 2026-07-04 11:32:24*
>>>>>>> 91a6792 (First commit. Clock　Project　全てです。ESP32用コードも含まれています。SwitchBox制御用。MainBoard(Motor駆動用)。RS485通信。MainBoardはモーターテストコードまで。今後ホールセンサーを追加して、通信機能までコードを完成させていく予定です。)
%MOMM*%
%LPD*%
G01*
G04 APERTURE LIST*
G04 Aperture macros list*
%AMRoundRect*
0 Rectangle with rounded corners*
0 $1 Rounding radius*
0 $2 $3 $4 $5 $6 $7 $8 $9 X,Y pos of 4 corners*
0 Add a 4 corners polygon primitive as box body*
4,1,4,$2,$3,$4,$5,$6,$7,$8,$9,$2,$3,0*
0 Add four circle primitives for the rounded corners*
1,1,$1+$1,$2,$3*
1,1,$1+$1,$4,$5*
1,1,$1+$1,$6,$7*
1,1,$1+$1,$8,$9*
0 Add four rect primitives between the rounded corners*
20,1,$1+$1,$2,$3,$4,$5,0*
20,1,$1+$1,$4,$5,$6,$7,0*
20,1,$1+$1,$6,$7,$8,$9,0*
20,1,$1+$1,$8,$9,$2,$3,0*%
G04 Aperture macros list end*
%TA.AperFunction,ComponentPad*%
%ADD10R,1.700000X1.700000*%
%TD*%
%TA.AperFunction,ComponentPad*%
%ADD11C,1.700000*%
%TD*%
%TA.AperFunction,ComponentPad*%
%ADD12RoundRect,0.250000X0.550000X0.550000X-0.550000X0.550000X-0.550000X-0.550000X0.550000X-0.550000X0*%
%TD*%
%TA.AperFunction,ComponentPad*%
%ADD13C,1.600000*%
%TD*%
%TA.AperFunction,ComponentPad*%
%ADD14R,1.500000X1.500000*%
%TD*%
%TA.AperFunction,ComponentPad*%
%ADD15C,1.500000*%
%TD*%
%TA.AperFunction,ComponentPad*%
%ADD16O,1.100000X1.700000*%
%TD*%
%TA.AperFunction,ComponentPad*%
%ADD17RoundRect,0.250000X-0.550000X0.550000X-0.550000X-0.550000X0.550000X-0.550000X0.550000X0.550000X0*%
%TD*%
%TA.AperFunction,ComponentPad*%
%ADD18RoundRect,0.250000X-0.550000X-0.550000X0.550000X-0.550000X0.550000X0.550000X-0.550000X0.550000X0*%
%TD*%
%TA.AperFunction,ComponentPad*%
%ADD19R,4.400000X1.800000*%
%TD*%
%TA.AperFunction,ComponentPad*%
%ADD20O,4.000000X1.800000*%
%TD*%
%TA.AperFunction,ComponentPad*%
%ADD21O,1.800000X4.000000*%
%TD*%
%TA.AperFunction,ComponentPad*%
%ADD22R,1.328000X1.328000*%
%TD*%
%TA.AperFunction,ComponentPad*%
%ADD23C,1.328000*%
%TD*%
%TA.AperFunction,WasherPad*%
%ADD24C,3.000000*%
%TD*%
%TA.AperFunction,Conductor*%
%ADD25C,0.200000*%
%TD*%
G04 APERTURE END LIST*
D10*
%TO.P,J8,1,Pin_1_1*%
%TO.N,Net-(J7_Pin_3V3)*%
X171450000Y-71120000D03*
D11*
%TO.P,J8,2,Pin_2_2*%
%TO.N,GND*%
X168910000Y-71120000D03*
%TO.P,J8,3,Pin_3_3*%
%TO.N,Net-(J8-Pin_3)*%
X166370000Y-71120000D03*
%TD*%
D10*
%TO.P,J5,1,Pin_1_1*%
%TO.N,Net-(J7-Pin_1)*%
X203200000Y-116840000D03*
D11*
%TO.P,J5,2,Pin_2_2*%
%TO.N,Net-(U1-Pin_13)*%
X203200000Y-114300000D03*
%TO.P,J5,3,Pin_3_3*%
%TO.N,Net-(U1-Pin_14)*%
X203200000Y-111760000D03*
%TO.P,J5,4,Pin_4_4*%
%TO.N,Net-(U1-Pin_15)*%
X203200000Y-109220000D03*
%TO.P,J5,5,Pin_5_5*%
%TO.N,Net-(U1-Pin_16)*%
X203200000Y-106680000D03*
%TD*%
D12*
%TO.P,C5,1*%
%TO.N,Net-(J7-Pin_1)*%
X203200000Y-125730000D03*
D13*
%TO.P,C5,2*%
%TO.N,GND*%
X200700000Y-125730000D03*
%TD*%
%TO.P,C4,1*%
%TO.N,Net-(J7-Pin_1)*%
X190500000Y-92750000D03*
%TO.P,C4,2*%
%TO.N,GND*%
X190500000Y-97750000D03*
%TD*%
D14*
%TO.P,J2,1*%
%TO.N,Net-(J2-Pin_1)*%
X132080000Y-78740000D03*
D15*
%TO.P,J2,2*%
%TO.N,Net-(J2-Pin_2)*%
X130810000Y-81280000D03*
%TO.P,J2,3*%
%TO.N,N/C*%
X129540000Y-78740000D03*
%TO.P,J2,4*%
X128270000Y-81280000D03*
%TO.P,J2,5*%
X127000000Y-78740000D03*
%TO.P,J2,6*%
X125730000Y-81280000D03*
%TO.P,J2,7*%
%TO.N,GND*%
X124460000Y-78740000D03*
%TO.P,J2,8*%
X123190000Y-81280000D03*
%TD*%
D11*
%TO.P,J1,5*%
%TO.N,GND*%
X144780000Y-71120000D03*
%TO.P,J1,6*%
%TO.N,Net-(J1_5V)*%
X148590000Y-71120000D03*
D16*
%TO.P,J1,SH,SHIELD_SH*%
%TO.N,N/C*%
X151130000Y-67310000D03*
X142185000Y-67310000D03*
%TD*%
D11*
%TO.P,J6,0,Pin_3_3*%
%TO.N,Net-(J6-Pin_0)*%
X144780000Y-106680000D03*
%TO.P,J6,2,Pin_2_2*%
%TO.N,Net-(J6-Pin_2)*%
X142240000Y-106680000D03*
%TO.P,J6,4,Pin_4_4*%
%TO.N,Net-(J6-Pin_4)*%
X147320000Y-106680000D03*
%TO.P,J6,5,Pin_5_5*%
%TO.N,unconnected-(J6-Pin_5-Pad5)*%
X154940000Y-106680000D03*
D10*
%TO.P,J6,15,Pin_15_15*%
<<<<<<< HEAD
%TO.N,N/C*%
=======
%TO.N,Net-(J6-Pin_15)*%
>>>>>>> 91a6792 (First commit. Clock　Project　全てです。ESP32用コードも含まれています。SwitchBox制御用。MainBoard(Motor駆動用)。RS485通信。MainBoardはモーターテストコードまで。今後ホールセンサーを追加して、通信機能までコードを完成させていく予定です。)
X139700000Y-106680000D03*
D11*
%TO.P,J6,16,Pin_16_16*%
%TO.N,/Net-(J6-Pin_16)*%
X149860000Y-106680000D03*
%TO.P,J6,17,Pin_6_6*%
%TO.N,Net-(J6-Pin_17)*%
X152400000Y-106680000D03*
%TO.P,J6,18,Pin_8_8*%
%TO.N,Net-(J6-Pin_18)*%
X157480000Y-106680000D03*
%TO.P,J6,19,Pin_9_9*%
%TO.N,Net-(J6-Pin_19)*%
X160020000Y-106680000D03*
%TO.P,J6,21,Pin_11_11*%
%TO.N,Net-(J6-Pin_21)*%
X165100000Y-106680000D03*
%TO.P,J6,22,Pin_14_14*%
%TO.N,Net-(J6-Pin_22)*%
X172720000Y-106680000D03*
%TO.P,J6,23,Pin_7_7*%
%TO.N,Net-(J6-Pin_23)*%
X175260000Y-106680000D03*
%TO.P,J6,GND,Pin_10_10*%
%TO.N,GND*%
X162560000Y-106680000D03*
%TO.P,J6,GND,Pin_1_1*%
X177800000Y-106680000D03*
%TO.P,J6,RXI,Pin_12_12*%
%TO.N,Net-(J6-Pin_RXI)*%
X167640000Y-106680000D03*
%TO.P,J6,TXO,Pin_13_13*%
%TO.N,Net-(J6-Pin_TXO)*%
X170180000Y-106680000D03*
%TD*%
D13*
%TO.P,C2,1*%
%TO.N,Net-(J1_5V)*%
X146010000Y-77470000D03*
%TO.P,C2,2*%
%TO.N,GND*%
X141010000Y-77470000D03*
%TD*%
D17*
%TO.P,C3,1*%
%TO.N,Net-(J7-Pin_1)*%
X198120000Y-92710000D03*
D13*
%TO.P,C3,2*%
%TO.N,GND*%
X198120000Y-95210000D03*
%TD*%
D11*
%TO.P,J7,3V3*%
%TO.N,Net-(J7_Pin_3V3)*%
X177800000Y-85090000D03*
D10*
%TO.P,J7,5V*%
%TO.N,Net-(J1_5V)*%
X139700000Y-85090000D03*
D11*
%TO.P,J7,12*%
%TO.N,/Net-(J7-Pin_12)*%
X147320000Y-85090000D03*
%TO.P,J7,13*%
%TO.N,/Net-(J7-Pin_13)*%
X142240000Y-85090000D03*
%TO.P,J7,14*%
%TO.N,/Net-(J7-Pin_14)*%
X149860000Y-85090000D03*
%TO.P,J7,25*%
%TO.N,/Net-(J7_Pin_25)*%
X157480000Y-85090000D03*
%TO.P,J7,26*%
%TO.N,/Net-(J7-Pin_26)*%
X154940000Y-85090000D03*
%TO.P,J7,27*%
%TO.N,/Net-(J7-Pin_27)*%
X152400000Y-85090000D03*
%TO.P,J7,32*%
%TO.N,/Net-(J7-Pin_32)*%
X162560000Y-85090000D03*
%TO.P,J7,33*%
%TO.N,/Net-(J7-Pin_33)*%
X160020000Y-85090000D03*
%TO.P,J7,34*%
%TO.N,N/C*%
X167640000Y-85090000D03*
%TO.P,J7,35*%
X165100000Y-85090000D03*
%TO.P,J7,EN*%
X175260000Y-85090000D03*
%TO.P,J7,GND*%
%TO.N,GND*%
X144780000Y-85090000D03*
%TO.P,J7,SVN*%
%TO.N,N/C*%
X170180000Y-85090000D03*
%TO.P,J7,SVP*%
X172720000Y-85090000D03*
%TD*%
D18*
%TO.P,C1,1*%
%TO.N,Net-(J1_5V)*%
X151170000Y-77470000D03*
D13*
%TO.P,C1,2*%
%TO.N,GND*%
X153670000Y-77470000D03*
%TD*%
%TO.P,R1,1*%
%TO.N,Net-(J2-Pin_2)*%
X123190000Y-86360000D03*
%TO.P,R1,2*%
%TO.N,Net-(J2-Pin_1)*%
X127000000Y-86360000D03*
%TD*%
D19*
%TO.P,J9,1*%
%TO.N,Net-(J7-Pin_1)*%
X194310000Y-78190000D03*
D20*
%TO.P,J9,2*%
%TO.N,GND*%
X194310000Y-72390000D03*
D21*
%TO.P,J9,3*%
%TO.N,N/C*%
X189510000Y-75190000D03*
%TD*%
D22*
%TO.P,U1,1,I1_1*%
%TO.N,Net-(J6-Pin_18)*%
X189230000Y-102870000D03*
D23*
%TO.P,U1,2,I2_2*%
%TO.N,Net-(J6-Pin_19)*%
X189230000Y-105410000D03*
%TO.P,U1,3,I3_3*%
%TO.N,Net-(J6-Pin_21)*%
X189230000Y-107950000D03*
%TO.P,U1,4,I4_4*%
%TO.N,Net-(J6-Pin_22)*%
X189230000Y-110490000D03*
%TO.P,U1,5,I5_5*%
%TO.N,unconnected-(U1-I5-Pad5)*%
X189230000Y-113030000D03*
%TO.P,U1,6,I6_6*%
%TO.N,unconnected-(U1-I6-Pad6)*%
X189230000Y-115570000D03*
%TO.P,U1,7,I7_7*%
%TO.N,unconnected-(U1-I7-Pad7)*%
X189230000Y-118110000D03*
%TO.P,U1,8,GND_8*%
%TO.N,GND*%
X189230000Y-120650000D03*
%TO.P,U1,9,COM_9*%
%TO.N,Net-(J7-Pin_1)*%
X196850000Y-120650000D03*
%TO.P,U1,10,O7_10*%
%TO.N,unconnected-(U1-O7-Pad10)*%
X196850000Y-118110000D03*
%TO.P,U1,11,O6_11*%
%TO.N,unconnected-(U1-O6-Pad11)*%
X196850000Y-115570000D03*
%TO.P,U1,12,O5_12*%
%TO.N,unconnected-(U1-O5-Pad12)*%
X196850000Y-113030000D03*
%TO.P,U1,13,O4_13*%
%TO.N,Net-(U1-Pin_13)*%
X196850000Y-110490000D03*
%TO.P,U1,14,O3_14*%
%TO.N,Net-(U1-Pin_14)*%
X196850000Y-107950000D03*
%TO.P,U1,15,O2_15*%
%TO.N,Net-(U1-Pin_15)*%
X196850000Y-105410000D03*
%TO.P,U1,16,O1_16*%
%TO.N,Net-(U1-Pin_16)*%
X196850000Y-102870000D03*
%TD*%
D13*
%TO.P,R2,1*%
%TO.N,Net-(J7-Pin_34)*%
X168910000Y-78740000D03*
%TO.P,R2,2*%
%TO.N,Net-(J8-Pin_3)*%
X166370000Y-78740000D03*
%TD*%
D24*
%TO.P,,*%
%TO.N,*%
<<<<<<< HEAD
X135890000Y-113190000D03*
X135890000Y-128141818D03*
X175260000Y-113158182D03*
X175260000Y-128141818D03*
D11*
%TO.P,,5VO*%
%TO.N,Net-(J1_5V)*%
X172720000Y-124460000D03*
X176530000Y-124460000D03*
%TO.P,,A+*%
%TO.N,Net-(J2-Pin_1)*%
X127000000Y-125730000D03*
X135890000Y-123190000D03*
%TO.P,,B-*%
%TO.N,Net-(J2-Pin_2)*%
X127000000Y-120650000D03*
X135890000Y-120650000D03*
%TO.P,,GND*%
%TO.N,GND*%
X127000000Y-115570000D03*
X135890000Y-118110000D03*
X172720000Y-116840000D03*
X176530000Y-116840000D03*
%TO.P,,RXD*%
%TO.N,Net-(J6-Pin_TXO)*%
X172720000Y-119380000D03*
X176530000Y-119380000D03*
%TO.P,,TXD*%
%TO.N,Net-(J6-Pin_RXI)*%
X172720000Y-121920000D03*
X176530000Y-121920000D03*
%TD*%
%TO.N,Net-(J8-Pin_3)*%
D25*
X166370000Y-71120000D02*
X166370000Y-78740000D01*
%TO.N,Net-(U1-Pin_13)*%
X196850000Y-110490000D02*
X199390000Y-110490000D01*
X199390000Y-110490000D02*
X203200000Y-114300000D01*
%TO.N,Net-(U1-Pin_14)*%
X196850000Y-107950000D02*
X199390000Y-107950000D01*
X199390000Y-107950000D02*
X203200000Y-111760000D01*
=======
X135500000Y-113090000D03*
X135500000Y-128041818D03*
X175513622Y-113058182D03*
X175513622Y-128041818D03*
D11*
%TO.P,,5VO*%
%TO.N,Net-(J1_5V)*%
X173890000Y-124360000D03*
X177700000Y-124360000D03*
%TO.P,,A+*%
%TO.N,Net-(J2-Pin_1)*%
X126610000Y-125630000D03*
X135500000Y-123090000D03*
%TO.P,,B-*%
%TO.N,Net-(J2-Pin_2)*%
X126610000Y-120550000D03*
X135500000Y-120550000D03*
%TO.P,,GND*%
%TO.N,GND*%
X126610000Y-115470000D03*
X135500000Y-118010000D03*
X173890000Y-116740000D03*
X177700000Y-116740000D03*
%TO.P,,RXD*%
%TO.N,Net-(J6-Pin_TXO)*%
X173890000Y-119280000D03*
X177700000Y-119280000D03*
%TO.P,,TXD*%
%TO.N,Net-(J6-Pin_RXI)*%
X173890000Y-121820000D03*
X177700000Y-121820000D03*
%TD*%
%TO.N,Net-(J2-Pin_2)*%
D25*
X123190000Y-117130000D02*
X123190000Y-86360000D01*
X126610000Y-120550000D02*
X123190000Y-117130000D01*
%TO.N,Net-(J2-Pin_1)*%
X137300000Y-96660000D02*
X127000000Y-86360000D01*
X137300000Y-121290000D02*
X137300000Y-96660000D01*
X135500000Y-123090000D02*
X137300000Y-121290000D01*
%TO.N,Net-(J6-Pin_RXI)*%
X173890000Y-121820000D02*
X167640000Y-115570000D01*
X167640000Y-115570000D02*
X167640000Y-106680000D01*
%TO.N,Net-(J6-Pin_TXO)*%
X170180000Y-115570000D02*
X170180000Y-106680000D01*
X173890000Y-119280000D02*
X170180000Y-115570000D01*
%TO.N,Net-(J6-Pin_19)*%
X161953999Y-104746001D02*
X160020000Y-106680000D01*
X188566001Y-104746001D02*
X161953999Y-104746001D01*
X189230000Y-105410000D02*
X188566001Y-104746001D01*
%TO.N,Net-(J6-Pin_18)*%
X161290000Y-102870000D02*
X157480000Y-106680000D01*
X189230000Y-102870000D02*
X161290000Y-102870000D01*
%TO.N,Net-(J6-Pin_21)*%
X166250000Y-105530000D02*
X165100000Y-106680000D01*
X186810000Y-105530000D02*
X166250000Y-105530000D01*
X189230000Y-107950000D02*
X186810000Y-105530000D01*
%TO.N,Net-(J6-Pin_22)*%
X176530000Y-110490000D02*
X172720000Y-106680000D01*
X189230000Y-110490000D02*
X176530000Y-110490000D01*
%TO.N,Net-(J6-Pin_RXI)*%
X173890000Y-121820000D02*
X177700000Y-121820000D01*
%TO.N,Net-(J6-Pin_TXO)*%
X173890000Y-119280000D02*
X177700000Y-119280000D01*
%TO.N,Net-(J8-Pin_3)*%
X166370000Y-71120000D02*
X166370000Y-78740000D01*
>>>>>>> 91a6792 (First commit. Clock　Project　全てです。ESP32用コードも含まれています。SwitchBox制御用。MainBoard(Motor駆動用)。RS485通信。MainBoardはモーターテストコードまで。今後ホールセンサーを追加して、通信機能までコードを完成させていく予定です。)
%TO.N,Net-(U1-Pin_15)*%
X196850000Y-105410000D02*
X199390000Y-105410000D01*
X199390000Y-105410000D02*
X203200000Y-109220000D01*
%TO.N,Net-(U1-Pin_16)*%
X196850000Y-102870000D02*
X199390000Y-102870000D01*
X199390000Y-102870000D02*
X203200000Y-106680000D01*
<<<<<<< HEAD
%TO.N,Net-(J2-Pin_1)*%
X132080000Y-82550000D02*
X132080000Y-78740000D01*
X130810000Y-121920000D02*
X127000000Y-125730000D01*
=======
%TO.N,Net-(U1-Pin_13)*%
X196850000Y-110490000D02*
X199390000Y-110490000D01*
X199390000Y-110490000D02*
X203200000Y-114300000D01*
%TO.N,Net-(U1-Pin_14)*%
X196850000Y-107950000D02*
X199390000Y-107950000D01*
X199390000Y-107950000D02*
X203200000Y-111760000D01*
%TO.N,Net-(J2-Pin_1)*%
X126610000Y-125630000D02*
X129150000Y-123090000D01*
X132080000Y-82550000D02*
X132080000Y-78740000D01*
X129150000Y-123090000D02*
X135500000Y-123090000D01*
>>>>>>> 91a6792 (First commit. Clock　Project　全てです。ESP32用コードも含まれています。SwitchBox制御用。MainBoard(Motor駆動用)。RS485通信。MainBoardはモーターテストコードまで。今後ホールセンサーを追加して、通信機能までコードを完成させていく予定です。)
X128270000Y-86360000D02*
X132080000Y-82550000D01*
X127000000Y-86360000D02*
X128270000Y-86360000D01*
<<<<<<< HEAD
X127000000Y-86360000D02*
X130810000Y-90170000D01*
X130810000Y-90170000D02*
X130810000Y-121920000D01*
%TO.N,Net-(J2-Pin_2)*%
X130810000Y-81280000D02*
X129540000Y-82550000D01*
X137160000Y-86360000D02*
X137160000Y-81720000D01*
=======
%TO.N,Net-(J2-Pin_2)*%
X130810000Y-81280000D02*
X129540000Y-82550000D01*
X126610000Y-120550000D02*
X135500000Y-120550000D01*
>>>>>>> 91a6792 (First commit. Clock　Project　全てです。ESP32用コードも含まれています。SwitchBox制御用。MainBoard(Motor駆動用)。RS485通信。MainBoardはモーターテストコードまで。今後ホールセンサーを追加して、通信機能までコードを完成させていく予定です。)
X129540000Y-82550000D02*
X127000000Y-82550000D01*
X127000000Y-82550000D02*
X123190000Y-86360000D01*
<<<<<<< HEAD
X126610000Y-120550000D02*
X123190000Y-117130000D01*
X131030000Y-77690000D02*
X130810000Y-77910000D01*
X138430000Y-109220000D02*
X137160000Y-107950000D01*
X123190000Y-117130000D02*
X123190000Y-86360000D01*
X137160000Y-81720000D02*
X133130000Y-77690000D01*
X133130000Y-77690000D02*
X131030000Y-77690000D01*
X130810000Y-77910000D02*
X130810000Y-81280000D01*
X137160000Y-107950000D02*
X137160000Y-105410000D01*
X137160000Y-105410000D02*
X138430000Y-104140000D01*
X135890000Y-120650000D02*
X138430000Y-118110000D01*
X138430000Y-118110000D02*
X138430000Y-109220000D01*
X138430000Y-104140000D02*
X138430000Y-87630000D01*
X138430000Y-87630000D02*
X137160000Y-86360000D01*
%TO.N,Net-(J6-Pin_18)*%
X189230000Y-102870000D02*
X161290000Y-102870000D01*
X161290000Y-102870000D02*
X157480000Y-106680000D01*
%TO.N,Net-(J6-Pin_19)*%
X189230000Y-105410000D02*
X188566001Y-104746001D01*
X188566001Y-104746001D02*
X161953999Y-104746001D01*
X161953999Y-104746001D02*
X160020000Y-106680000D01*
%TO.N,Net-(J6-Pin_21)*%
X166250000Y-105530000D02*
X165100000Y-106680000D01*
X186810000Y-105530000D02*
X166250000Y-105530000D01*
X189230000Y-107950000D02*
X186810000Y-105530000D01*
%TO.N,Net-(J6-Pin_22)*%
X189230000Y-110490000D02*
X176530000Y-110490000D01*
X176530000Y-110490000D02*
X172720000Y-106680000D01*
%TO.N,Net-(J6-Pin_RXI)*%
X167640000Y-116840000D02*
X172720000Y-121920000D01*
X167640000Y-106680000D02*
X167640000Y-116840000D01*
X172720000Y-121920000D02*
X176530000Y-121920000D01*
%TO.N,Net-(J6-Pin_TXO)*%
X170180000Y-106680000D02*
X170180000Y-116840000D01*
X170180000Y-116840000D02*
X172720000Y-119380000D01*
X172720000Y-119380000D02*
X176530000Y-119380000D01*
%TD*%
%TA.AperFunction,Conductor*%
%TO.N,GND*%
G36*
X186576942Y-106150185D02*
G01*
X186597584Y-106166819D01*
X188051399Y-107620634D01*
X188084884Y-107681957D01*
X188086191Y-107727713D01*
X188065500Y-107858352D01*
X188065500Y-108041647D01*
X188094174Y-108222689D01*
X188150813Y-108397010D01*
X188150814Y-108397013D01*
X188229021Y-108550500D01*
X188234030Y-108560331D01*
X188341769Y-108708621D01*
X188471379Y-108838231D01*
X188619669Y-108945970D01*
X188699771Y-108986784D01*
X188782986Y-109029185D01*
X188782989Y-109029186D01*
X188870149Y-109057505D01*
X188957312Y-109085826D01*
X189017307Y-109095328D01*
X189031188Y-109097527D01*
X189094323Y-109127456D01*
X189131254Y-109186768D01*
X189130256Y-109256630D01*
X189091646Y-109314863D01*
X189031188Y-109342473D01*
X188957310Y-109354174D01*
X188782989Y-109410813D01*
X188782986Y-109410814D01*
X188619668Y-109494030D01*
X188535063Y-109555499D01*
X188471379Y-109601769D01*
X188471377Y-109601771D01*
X188471376Y-109601771D01*
X188341771Y-109731376D01*
X188341771Y-109731377D01*
X188341769Y-109731379D01*
X188336658Y-109738414D01*
X188264024Y-109838386D01*
X188208694Y-109881051D01*
X188163706Y-109889500D01*
X176830098Y-109889500D01*
X176763059Y-109869815D01*
X176742417Y-109853181D01*
X175131417Y-108242181D01*
X175097932Y-108180858D01*
X175102916Y-108111166D01*
X175144788Y-108055233D01*
X175210252Y-108030816D01*
X175219098Y-108030500D01*
X175366286Y-108030500D01*
X175366287Y-108030500D01*
X175576243Y-107997246D01*
X175778412Y-107931557D01*
X175967816Y-107835051D01*
X176054138Y-107772335D01*
X176139786Y-107710109D01*
X176139788Y-107710106D01*
X176139792Y-107710104D01*
X176290104Y-107559792D01*
X176290106Y-107559788D01*
X176290109Y-107559786D01*
X176375890Y-107441717D01*
X176415051Y-107387816D01*
X176419793Y-107378508D01*
X176467763Y-107327711D01*
X176535583Y-107310911D01*
X176601719Y-107333445D01*
X176640763Y-107378500D01*
X176645373Y-107387547D01*
X176684728Y-107441716D01*
X177317036Y-106809407D01*
X177334075Y-106872993D01*
X177399901Y-106987007D01*
X177492993Y-107080099D01*
X177607007Y-107145925D01*
X177670590Y-107162962D01*
X177038282Y-107795269D01*
X177038282Y-107795270D01*
X177092449Y-107834624D01*
X177281782Y-107931095D01*
X177483870Y-107996757D01*
X177693754Y-108030000D01*
X177906246Y-108030000D01*
X178116127Y-107996757D01*
X178116130Y-107996757D01*
X178318217Y-107931095D01*
X178507554Y-107834622D01*
X178561716Y-107795270D01*
X178561717Y-107795270D01*
X177929408Y-107162962D01*
X177992993Y-107145925D01*
X178107007Y-107080099D01*
X178200099Y-106987007D01*
X178265925Y-106872993D01*
X178282962Y-106809409D01*
X178915270Y-107441717D01*
X178915270Y-107441716D01*
X178954622Y-107387554D01*
X179051095Y-107198217D01*
X179116757Y-106996130D01*
X179116757Y-106996127D01*
X179150000Y-106786246D01*
X179150000Y-106573753D01*
X179116757Y-106363872D01*
X179116757Y-106363869D01*
X179093671Y-106292818D01*
X179091676Y-106222977D01*
X179127756Y-106163144D01*
X179190457Y-106132316D01*
X179211602Y-106130500D01*
X186509903Y-106130500D01*
X186576942Y-106150185D01*
G37*
%TD.AperFunction*%
%TA.AperFunction,Conductor*%
G36*
X164323202Y-105366186D02*
G01*
X164368957Y-105418990D01*
X164378901Y-105488148D01*
X164349876Y-105551704D01*
X164329048Y-105570819D01*
X164220213Y-105649890D01*
X164069890Y-105800213D01*
X163944949Y-105972182D01*
X163940202Y-105981499D01*
X163892227Y-106032293D01*
X163824405Y-106049087D01*
X163758271Y-106026548D01*
X163719234Y-105981495D01*
X163714626Y-105972452D01*
X163675270Y-105918282D01*
X163675269Y-105918282D01*
X163042962Y-106550590D01*
X163025925Y-106487007D01*
X162960099Y-106372993D01*
X162867007Y-106279901D01*
X162752993Y-106214075D01*
X162689408Y-106197037D01*
X163321716Y-105564728D01*
X163321297Y-105559402D01*
X163287435Y-105515489D01*
X163281456Y-105445876D01*
X163314062Y-105384081D01*
X163374900Y-105349724D01*
X163402986Y-105346501D01*
X164256163Y-105346501D01*
X164323202Y-105366186D01*
G37*
%TD.AperFunction*%
%TA.AperFunction,Conductor*%
G36*
X210835677Y-64789685D02*
G01*
X210856319Y-64806319D01*
X213323681Y-67273681D01*
X213357166Y-67335004D01*
X213360000Y-67361362D01*
X213360000Y-129488638D01*
X213340315Y-129555677D01*
X213323681Y-129576319D01*
X210856319Y-132043681D01*
X210794996Y-132077166D01*
X210768638Y-132080000D01*
X111811362Y-132080000D01*
X111744323Y-132060315D01*
X111723681Y-132043681D01*
X109256319Y-129576319D01*
X109222834Y-129514996D01*
X109220000Y-129488638D01*
X109220000Y-128151902D01*
X111529500Y-128151902D01*
X111529500Y-128388097D01*
X111566446Y-128621368D01*
X111639433Y-128845996D01*
X111746657Y-129056433D01*
X111885483Y-129247510D01*
X112052490Y-129414517D01*
X112243567Y-129553343D01*
X112288660Y-129576319D01*
X112454003Y-129660566D01*
X112454005Y-129660566D01*
X112454008Y-129660568D01*
X112574412Y-129699689D01*
X112678631Y-129733553D01*
X112911903Y-129770500D01*
X112911908Y-129770500D01*
X113148097Y-129770500D01*
X113381368Y-129733553D01*
X113605992Y-129660568D01*
X113816433Y-129553343D01*
X114007510Y-129414517D01*
X114174517Y-129247510D01*
X114313343Y-129056433D01*
X114420568Y-128845992D01*
X114493553Y-128621368D01*
X114530500Y-128388097D01*
X114530500Y-128151902D01*
X114510565Y-128026037D01*
X114508134Y-128010690D01*
X133889500Y-128010690D01*
X133889500Y-128272945D01*
X133904661Y-128388097D01*
X133923730Y-128532934D01*
X133947426Y-128621368D01*
X133991602Y-128786236D01*
X133991605Y-128786246D01*
X134091953Y-129028508D01*
X134091958Y-129028518D01*
X134223075Y-129255621D01*
X134382718Y-129463669D01*
X134382726Y-129463678D01*
X134568140Y-129649092D01*
X134568148Y-129649099D01*
X134776196Y-129808742D01*
X135003299Y-129939859D01*
X135003309Y-129939864D01*
X135245571Y-130040212D01*
X135245581Y-130040216D01*
X135498884Y-130108088D01*
X135758880Y-130142318D01*
X135758887Y-130142318D01*
X136021113Y-130142318D01*
X136021120Y-130142318D01*
X136281116Y-130108088D01*
X136534419Y-130040216D01*
X136776697Y-129939861D01*
X137003803Y-129808742D01*
X137211851Y-129649100D01*
X137211855Y-129649095D01*
X137211860Y-129649092D01*
X137397274Y-129463678D01*
X137397277Y-129463673D01*
X137397282Y-129463669D01*
X137556924Y-129255621D01*
X137688043Y-129028515D01*
X137788398Y-128786237D01*
X137856270Y-128532934D01*
X137890500Y-128272938D01*
X137890500Y-128010698D01*
X137890499Y-128010690D01*
X173259500Y-128010690D01*
X173259500Y-128272945D01*
X173274661Y-128388097D01*
X173293730Y-128532934D01*
X173317426Y-128621368D01*
X173361602Y-128786236D01*
X173361605Y-128786246D01*
X173461953Y-129028508D01*
X173461958Y-129028518D01*
X173593075Y-129255621D01*
X173752718Y-129463669D01*
X173752726Y-129463678D01*
X173938140Y-129649092D01*
X173938148Y-129649099D01*
X174146196Y-129808742D01*
X174373299Y-129939859D01*
X174373309Y-129939864D01*
X174615571Y-130040212D01*
X174615581Y-130040216D01*
X174868884Y-130108088D01*
X175128880Y-130142318D01*
X175128887Y-130142318D01*
X175391113Y-130142318D01*
X175391120Y-130142318D01*
X175651116Y-130108088D01*
X175904419Y-130040216D01*
X176146697Y-129939861D01*
X176373803Y-129808742D01*
X176581851Y-129649100D01*
X176581855Y-129649095D01*
X176581860Y-129649092D01*
X176767274Y-129463678D01*
X176767277Y-129463673D01*
X176767282Y-129463669D01*
X176926924Y-129255621D01*
X177058043Y-129028515D01*
X177158398Y-128786237D01*
X177226270Y-128532934D01*
X177260500Y-128272938D01*
X177260500Y-128151902D01*
X208049500Y-128151902D01*
X208049500Y-128388097D01*
X208086446Y-128621368D01*
X208159433Y-128845996D01*
X208266657Y-129056433D01*
X208405483Y-129247510D01*
X208572490Y-129414517D01*
X208763567Y-129553343D01*
X208808660Y-129576319D01*
X208974003Y-129660566D01*
X208974005Y-129660566D01*
X208974008Y-129660568D01*
X209094412Y-129699689D01*
X209198631Y-129733553D01*
X209431903Y-129770500D01*
X209431908Y-129770500D01*
X209668097Y-129770500D01*
X209901368Y-129733553D01*
X210125992Y-129660568D01*
X210336433Y-129553343D01*
X210527510Y-129414517D01*
X210694517Y-129247510D01*
X210833343Y-129056433D01*
X210940568Y-128845992D01*
X211013553Y-128621368D01*
X211050500Y-128388097D01*
X211050500Y-128151902D01*
X211013553Y-127918631D01*
X210940566Y-127694003D01*
X210884002Y-127582991D01*
X210833343Y-127483567D01*
X210694517Y-127292490D01*
X210527510Y-127125483D01*
X210336433Y-126986657D01*
X210293560Y-126964812D01*
X210125996Y-126879433D01*
X209901368Y-126806446D01*
X209668097Y-126769500D01*
X209668092Y-126769500D01*
X209431908Y-126769500D01*
X209431903Y-126769500D01*
X209198631Y-126806446D01*
X208974003Y-126879433D01*
X208763566Y-126986657D01*
X208654550Y-127065862D01*
X208572490Y-127125483D01*
X208572488Y-127125485D01*
X208572487Y-127125485D01*
X208405485Y-127292487D01*
X208405485Y-127292488D01*
X208405483Y-127292490D01*
X208345862Y-127374550D01*
X208266657Y-127483566D01*
X208159433Y-127694003D01*
X208086446Y-127918631D01*
X208049500Y-128151902D01*
X177260500Y-128151902D01*
X177260500Y-128010698D01*
X177226270Y-127750702D01*
X177158398Y-127497399D01*
X177073521Y-127292487D01*
X177058046Y-127255127D01*
X177058041Y-127255117D01*
X176926927Y-127028019D01*
X176903885Y-126997990D01*
X176767282Y-126819967D01*
X176767278Y-126819963D01*
X176767274Y-126819958D01*
X176581860Y-126634544D01*
X176581851Y-126634536D01*
X176373803Y-126474893D01*
X176146700Y-126343776D01*
X176146690Y-126343771D01*
X175904428Y-126243423D01*
X175904421Y-126243421D01*
X175904419Y-126243420D01*
X175651116Y-126175548D01*
X175593339Y-126167941D01*
X175391127Y-126141318D01*
X175391120Y-126141318D01*
X175128880Y-126141318D01*
X175128872Y-126141318D01*
X174897772Y-126171744D01*
X174868884Y-126175548D01*
X174669282Y-126229031D01*
X174615581Y-126243420D01*
X174615571Y-126243423D01*
X174373309Y-126343771D01*
X174373299Y-126343776D01*
X174146196Y-126474893D01*
X173938148Y-126634536D01*
X173752718Y-126819966D01*
X173593075Y-127028014D01*
X173461958Y-127255117D01*
X173461953Y-127255127D01*
X173361605Y-127497389D01*
X173361602Y-127497399D01*
X173308923Y-127694003D01*
X173293730Y-127750703D01*
X173259500Y-128010690D01*
X137890499Y-128010690D01*
X137856270Y-127750702D01*
X137788398Y-127497399D01*
X137703521Y-127292487D01*
X137688046Y-127255127D01*
X137688041Y-127255117D01*
X137556924Y-127028014D01*
X137414080Y-126841859D01*
X137397282Y-126819967D01*
X137397281Y-126819966D01*
X137397274Y-126819958D01*
X137211860Y-126634544D01*
X137211851Y-126634536D01*
X137003803Y-126474893D01*
X136776700Y-126343776D01*
X136776690Y-126343771D01*
X136534428Y-126243423D01*
X136534421Y-126243421D01*
X136534419Y-126243420D01*
X136281116Y-126175548D01*
X136223339Y-126167941D01*
X136021127Y-126141318D01*
X136021120Y-126141318D01*
X135758880Y-126141318D01*
X135758872Y-126141318D01*
X135527772Y-126171744D01*
X135498884Y-126175548D01*
X135299282Y-126229031D01*
X135245581Y-126243420D01*
X135245571Y-126243423D01*
X135003309Y-126343771D01*
X135003299Y-126343776D01*
X134776196Y-126474893D01*
X134568148Y-126634536D01*
X134382718Y-126819966D01*
X134223075Y-127028014D01*
X134091958Y-127255117D01*
X134091953Y-127255127D01*
X133991605Y-127497389D01*
X133991602Y-127497399D01*
X133938923Y-127694003D01*
X133923730Y-127750703D01*
X133889500Y-128010690D01*
X114508134Y-128010690D01*
X114493553Y-127918631D01*
X114420566Y-127694003D01*
X114364002Y-127582991D01*
X114313343Y-127483567D01*
X114174517Y-127292490D01*
X114007510Y-127125483D01*
X113816433Y-126986657D01*
X113773560Y-126964812D01*
X113605996Y-126879433D01*
X113381368Y-126806446D01*
X113148097Y-126769500D01*
X113148092Y-126769500D01*
X112911908Y-126769500D01*
X112911903Y-126769500D01*
X112678631Y-126806446D01*
X112454003Y-126879433D01*
X112243566Y-126986657D01*
X112134550Y-127065862D01*
X112052490Y-127125483D01*
X112052488Y-127125485D01*
X112052487Y-127125485D01*
X111885485Y-127292487D01*
X111885485Y-127292488D01*
X111885483Y-127292490D01*
X111825862Y-127374550D01*
X111746657Y-127483566D01*
X111639433Y-127694003D01*
X111566446Y-127918631D01*
X111529500Y-128151902D01*
X109220000Y-128151902D01*
X109220000Y-86257648D01*
X121889500Y-86257648D01*
X121889500Y-86462351D01*
X121921522Y-86664534D01*
X121984781Y-86859223D01*
X122077715Y-87041613D01*
X122198028Y-87207213D01*
X122198034Y-87207219D01*
X122342781Y-87351966D01*
X122508390Y-87472287D01*
X122521793Y-87479116D01*
X122572589Y-87527088D01*
X122589500Y-87589601D01*
X122589500Y-117043330D01*
X122589499Y-117043348D01*
X122589499Y-117209054D01*
X122589498Y-117209054D01*
X122630422Y-117361783D01*
X122654084Y-117402766D01*
X122654086Y-117402769D01*
X122709479Y-117498714D01*
X122709481Y-117498717D01*
X122828349Y-117617585D01*
X122828355Y-117617590D01*
X125619177Y-120408412D01*
X125652662Y-120469735D01*
X125653969Y-120515490D01*
X125649500Y-120543707D01*
X125649500Y-120543713D01*
X125649500Y-120756287D01*
X125650165Y-120760484D01*
X125675855Y-120922689D01*
X125682754Y-120966243D01*
X125706788Y-121040213D01*
X125748444Y-121168414D01*
X125844951Y-121357820D01*
X125969890Y-121529786D01*
X126120213Y-121680109D01*
X126292179Y-121805048D01*
X126292181Y-121805049D01*
X126292184Y-121805051D01*
X126481588Y-121901557D01*
X126683757Y-121967246D01*
X126893713Y-122000500D01*
X126893714Y-122000500D01*
X127106286Y-122000500D01*
X127106287Y-122000500D01*
X127316243Y-121967246D01*
X127518412Y-121901557D01*
X127707816Y-121805051D01*
X127812236Y-121729186D01*
X127879786Y-121680109D01*
X127879788Y-121680106D01*
X127879792Y-121680104D01*
X128030104Y-121529792D01*
X128030106Y-121529788D01*
X128030109Y-121529786D01*
X128155048Y-121357820D01*
X128155047Y-121357820D01*
X128155051Y-121357816D01*
X128251557Y-121168412D01*
X128317246Y-120966243D01*
X128350500Y-120756287D01*
X128350500Y-120543713D01*
X128317246Y-120333757D01*
X128251557Y-120131588D01*
X128155051Y-119942184D01*
X128155049Y-119942181D01*
X128155048Y-119942179D01*
X128030109Y-119770213D01*
X127879786Y-119619890D01*
X127707820Y-119494951D01*
X127518414Y-119398444D01*
X127518413Y-119398443D01*
X127518412Y-119398443D01*
X127316243Y-119332754D01*
X127316241Y-119332753D01*
X127316240Y-119332753D01*
X127154957Y-119307208D01*
X127106287Y-119299500D01*
X126893713Y-119299500D01*
X126845042Y-119307208D01*
X126683760Y-119332753D01*
X126481590Y-119398442D01*
X126481585Y-119398444D01*
X126446649Y-119416245D01*
X126377980Y-119429140D01*
X126313240Y-119402863D01*
X126302675Y-119393440D01*
X123826819Y-116917584D01*
X123812115Y-116890656D01*
X123795523Y-116864838D01*
X123794631Y-116858637D01*
X123793334Y-116856261D01*
X123790500Y-116829903D01*
X123790500Y-115463753D01*
X125650000Y-115463753D01*
X125650000Y-115676246D01*
X125683242Y-115886127D01*
X125683242Y-115886130D01*
X125748904Y-116088217D01*
X125845375Y-116277550D01*
X125884728Y-116331716D01*
X126517037Y-115699408D01*
X126534075Y-115762993D01*
X126599901Y-115877007D01*
X126692993Y-115970099D01*
X126807007Y-116035925D01*
X126870590Y-116052962D01*
X126238282Y-116685269D01*
X126238282Y-116685270D01*
X126292449Y-116724624D01*
X126481782Y-116821095D01*
X126683870Y-116886757D01*
X126893754Y-116920000D01*
X127106246Y-116920000D01*
X127316127Y-116886757D01*
X127316130Y-116886757D01*
X127518217Y-116821095D01*
X127707554Y-116724622D01*
X127761716Y-116685270D01*
X127761717Y-116685270D01*
X127129408Y-116052962D01*
X127192993Y-116035925D01*
X127307007Y-115970099D01*
X127400099Y-115877007D01*
X127465925Y-115762993D01*
X127482962Y-115699408D01*
X128115270Y-116331717D01*
X128115270Y-116331716D01*
X128154622Y-116277554D01*
X128251095Y-116088217D01*
X128316757Y-115886130D01*
X128316757Y-115886127D01*
X128350000Y-115676246D01*
X128350000Y-115463753D01*
X128316757Y-115253872D01*
X128316757Y-115253869D01*
X128251095Y-115051782D01*
X128154624Y-114862449D01*
X128115270Y-114808282D01*
X128115269Y-114808282D01*
X127482962Y-115440590D01*
X127465925Y-115377007D01*
X127400099Y-115262993D01*
X127307007Y-115169901D01*
X127192993Y-115104075D01*
X127129409Y-115087037D01*
X127761716Y-114454728D01*
X127707550Y-114415375D01*
X127518217Y-114318904D01*
X127316129Y-114253242D01*
X127106246Y-114220000D01*
X126893754Y-114220000D01*
X126683872Y-114253242D01*
X126683869Y-114253242D01*
X126481782Y-114318904D01*
X126292439Y-114415380D01*
X126238282Y-114454727D01*
X126238282Y-114454728D01*
X126870591Y-115087037D01*
X126807007Y-115104075D01*
X126692993Y-115169901D01*
X126599901Y-115262993D01*
X126534075Y-115377007D01*
X126517037Y-115440591D01*
X125884728Y-114808282D01*
X125884727Y-114808282D01*
X125845380Y-114862439D01*
X125748904Y-115051782D01*
X125683242Y-115253869D01*
X125683242Y-115253872D01*
X125650000Y-115463753D01*
X123790500Y-115463753D01*
X123790500Y-87589601D01*
X123810185Y-87522562D01*
X123858206Y-87479116D01*
X123871610Y-87472287D01*
X124037219Y-87351966D01*
X124181966Y-87207219D01*
X124181968Y-87207215D01*
X124181971Y-87207213D01*
X124283205Y-87067874D01*
X124302287Y-87041610D01*
X124395220Y-86859219D01*
X124458477Y-86664534D01*
X124490500Y-86462352D01*
X124490500Y-86257648D01*
X124458477Y-86055466D01*
X124453825Y-86041151D01*
X124451832Y-85971312D01*
X124484075Y-85915158D01*
X127212417Y-83186819D01*
X127273740Y-83153334D01*
X127300098Y-83150500D01*
X129453331Y-83150500D01*
X129453347Y-83150501D01*
X129460943Y-83150501D01*
X129619054Y-83150501D01*
X129619057Y-83150501D01*
X129771785Y-83109577D01*
X129821904Y-83080639D01*
X129908716Y-83030520D01*
X130020520Y-82918716D01*
X130020520Y-82918714D01*
X130030728Y-82908507D01*
X130030730Y-82908504D01*
X130405468Y-82533765D01*
X130466789Y-82500282D01*
X130512546Y-82498975D01*
X130517168Y-82499707D01*
X130517174Y-82499709D01*
X130634642Y-82518313D01*
X130711579Y-82530500D01*
X130711583Y-82530500D01*
X130908421Y-82530500D01*
X130937659Y-82525869D01*
X131006953Y-82534823D01*
X131060405Y-82579819D01*
X131081045Y-82646571D01*
X131062321Y-82713884D01*
X131044739Y-82736023D01*
X128210777Y-85569985D01*
X128149454Y-85603470D01*
X128079762Y-85598486D01*
X128023829Y-85556614D01*
X128022778Y-85555189D01*
X127991971Y-85512787D01*
X127991967Y-85512782D01*
X127847213Y-85368028D01*
X127681613Y-85247715D01*
X127681612Y-85247714D01*
X127681610Y-85247713D01*
X127624653Y-85218691D01*
X127499223Y-85154781D01*
X127304534Y-85091522D01*
X127129995Y-85063878D01*
X127102352Y-85059500D01*
X126897648Y-85059500D01*
X126873329Y-85063351D01*
X126695465Y-85091522D01*
X126500776Y-85154781D01*
X126318386Y-85247715D01*
X126152786Y-85368028D01*
X126008028Y-85512786D01*
X125887715Y-85678386D01*
X125794781Y-85860776D01*
X125731522Y-86055465D01*
X125699500Y-86257648D01*
X125699500Y-86462351D01*
X125731522Y-86664534D01*
X125794781Y-86859223D01*
X125887715Y-87041613D01*
X126008028Y-87207213D01*
X126152786Y-87351971D01*
X126307749Y-87464556D01*
X126318390Y-87472287D01*
X126399499Y-87513614D01*
X126500776Y-87565218D01*
X126500778Y-87565218D01*
X126500781Y-87565220D01*
X126575818Y-87589601D01*
X126695465Y-87628477D01*
X126796557Y-87644488D01*
X126897648Y-87660500D01*
X126897649Y-87660500D01*
X127102351Y-87660500D01*
X127102352Y-87660500D01*
X127304534Y-87628477D01*
X127318842Y-87623827D01*
X127388682Y-87621831D01*
X127444842Y-87654077D01*
X130173181Y-90382416D01*
X130206666Y-90443739D01*
X130209500Y-90470097D01*
X130209500Y-121619902D01*
X130189815Y-121686941D01*
X130173181Y-121707583D01*
X127484522Y-124396241D01*
X127423199Y-124429726D01*
X127358523Y-124426491D01*
X127316245Y-124412754D01*
X127176272Y-124390584D01*
X127106287Y-124379500D01*
X126893713Y-124379500D01*
X126845042Y-124387208D01*
X126683760Y-124412753D01*
X126481585Y-124478444D01*
X126292179Y-124574951D01*
X126120213Y-124699890D01*
X125969890Y-124850213D01*
X125844951Y-125022179D01*
X125748444Y-125211585D01*
X125682753Y-125413760D01*
X125670661Y-125490107D01*
X125649500Y-125623713D01*
X125649500Y-125836287D01*
X125682754Y-126046243D01*
X125709968Y-126130000D01*
X125748444Y-126248414D01*
X125844951Y-126437820D01*
X125969890Y-126609786D01*
X126120213Y-126760109D01*
X126292179Y-126885048D01*
X126292181Y-126885049D01*
X126292184Y-126885051D01*
X126481588Y-126981557D01*
X126683757Y-127047246D01*
X126893713Y-127080500D01*
X126893714Y-127080500D01*
X127106286Y-127080500D01*
X127106287Y-127080500D01*
X127316243Y-127047246D01*
X127518412Y-126981557D01*
X127707816Y-126885051D01*
X127772987Y-126837702D01*
X127879786Y-126760109D01*
X127879788Y-126760106D01*
X127879792Y-126760104D01*
X128030104Y-126609792D01*
X128030106Y-126609788D01*
X128030109Y-126609786D01*
X128155048Y-126437820D01*
X128155047Y-126437820D01*
X128155051Y-126437816D01*
X128251557Y-126248412D01*
X128317246Y-126046243D01*
X128350500Y-125836287D01*
X128350500Y-125623713D01*
X128317246Y-125413757D01*
X128303506Y-125371473D01*
X128301512Y-125301635D01*
X128333755Y-125245478D01*
X131290520Y-122288716D01*
X131369577Y-122151784D01*
X131410501Y-121999057D01*
X131410501Y-121840942D01*
X131410501Y-121833347D01*
X131410500Y-121833329D01*
X131410500Y-90259060D01*
X131410501Y-90259047D01*
X131410501Y-90090944D01*
X131369576Y-89938214D01*
X131369573Y-89938209D01*
X131290524Y-89801290D01*
X131290518Y-89801282D01*
X128557109Y-87067874D01*
X128523624Y-87006551D01*
X128528608Y-86936859D01*
X128570480Y-86880926D01*
X128582769Y-86872819D01*
X128638716Y-86840520D01*
X128750520Y-86728716D01*
X128750520Y-86728714D01*
X128760728Y-86718507D01*
X128760729Y-86718504D01*
X132560520Y-82918716D01*
X132639577Y-82781784D01*
X132680501Y-82629057D01*
X132680501Y-82470942D01*
X132680501Y-82463347D01*
X132680500Y-82463329D01*
X132680500Y-80114499D01*
X132700185Y-80047460D01*
X132752989Y-80001705D01*
X132804500Y-79990499D01*
X132877871Y-79990499D01*
X132877872Y-79990499D01*
X132937483Y-79984091D01*
X133072331Y-79933796D01*
X133187546Y-79847546D01*
X133273796Y-79732331D01*
X133324091Y-79597483D01*
X133330500Y-79537873D01*
X133330499Y-79039094D01*
X133350183Y-78972057D01*
X133402987Y-78926302D01*
X133472146Y-78916358D01*
X133535702Y-78945383D01*
X133542180Y-78951415D01*
X136523181Y-81932416D01*
X136556666Y-81993739D01*
X136559500Y-82020097D01*
X136559500Y-86273330D01*
X136559499Y-86273348D01*
X136559499Y-86439054D01*
X136559498Y-86439054D01*
X136600423Y-86591785D01*
X136629358Y-86641900D01*
X136629359Y-86641904D01*
X136629360Y-86641904D01*
X136673582Y-86718501D01*
X136679479Y-86728714D01*
X136679481Y-86728717D01*
X136798349Y-86847585D01*
X136798355Y-86847590D01*
X137793181Y-87842416D01*
X137826666Y-87903739D01*
X137829500Y-87930097D01*
X137829500Y-103839902D01*
X137809815Y-103906941D01*
X137793181Y-103927583D01*
X136679481Y-105041282D01*
X136679480Y-105041284D01*
X136674748Y-105049481D01*
X136600423Y-105178215D01*
X136559499Y-105330943D01*
X136559499Y-105330945D01*
X136559499Y-105499046D01*
X136559500Y-105499059D01*
X136559500Y-107863330D01*
X136559499Y-107863348D01*
X136559499Y-108029054D01*
X136559498Y-108029054D01*
X136600423Y-108181787D01*
X136600424Y-108181788D01*
X136622198Y-108219501D01*
X136679475Y-108318709D01*
X136679481Y-108318717D01*
X136798349Y-108437585D01*
X136798355Y-108437590D01*
X137793181Y-109432416D01*
X137826666Y-109493739D01*
X137829500Y-109520097D01*
X137829500Y-112085538D01*
X137809815Y-112152577D01*
X137757011Y-112198332D01*
X137687853Y-112208276D01*
X137624297Y-112179251D01*
X137598113Y-112147538D01*
X137556924Y-112076196D01*
X137397281Y-111868148D01*
X137397274Y-111868140D01*
X137211860Y-111682726D01*
X137211851Y-111682718D01*
X137003803Y-111523075D01*
X136776700Y-111391958D01*
X136776690Y-111391953D01*
X136534428Y-111291605D01*
X136534421Y-111291603D01*
X136534419Y-111291602D01*
X136281116Y-111223730D01*
X136223339Y-111216123D01*
X136021127Y-111189500D01*
X136021120Y-111189500D01*
X135758880Y-111189500D01*
X135758872Y-111189500D01*
X135527772Y-111219926D01*
X135498884Y-111223730D01*
X135245581Y-111291602D01*
X135245571Y-111291605D01*
X135003309Y-111391953D01*
X135003299Y-111391958D01*
X134776196Y-111523075D01*
X134568148Y-111682718D01*
X134382718Y-111868148D01*
X134223075Y-112076196D01*
X134091958Y-112303299D01*
X134091953Y-112303309D01*
X133991605Y-112545571D01*
X133991602Y-112545581D01*
X133926082Y-112790109D01*
X133923730Y-112798885D01*
X133889500Y-113058872D01*
X133889500Y-113321127D01*
X133902546Y-113420213D01*
X133923730Y-113581116D01*
X133991602Y-113834418D01*
X133991605Y-113834428D01*
X134091953Y-114076690D01*
X134091958Y-114076700D01*
X134223075Y-114303803D01*
X134382718Y-114511851D01*
X134382726Y-114511860D01*
X134568140Y-114697274D01*
X134568148Y-114697281D01*
X134776196Y-114856924D01*
X135003299Y-114988041D01*
X135003309Y-114988046D01*
X135201164Y-115070000D01*
X135245581Y-115088398D01*
X135498884Y-115156270D01*
X135758880Y-115190500D01*
X135758887Y-115190500D01*
X136021113Y-115190500D01*
X136021120Y-115190500D01*
X136281116Y-115156270D01*
X136534419Y-115088398D01*
X136776697Y-114988043D01*
X137003803Y-114856924D01*
X137211851Y-114697282D01*
X137211855Y-114697277D01*
X137211860Y-114697274D01*
X137397274Y-114511860D01*
X137397277Y-114511855D01*
X137397282Y-114511851D01*
X137556924Y-114303803D01*
X137598113Y-114232460D01*
X137648679Y-114184246D01*
X137717286Y-114171022D01*
X137782151Y-114196990D01*
X137822680Y-114253904D01*
X137829500Y-114294461D01*
X137829500Y-117809902D01*
X137809815Y-117876941D01*
X137793181Y-117897583D01*
X137451681Y-118239082D01*
X137390358Y-118272567D01*
X137320666Y-118267583D01*
X137264733Y-118225711D01*
X137240316Y-118160247D01*
X137240000Y-118151401D01*
X137240000Y-118003753D01*
X137206757Y-117793872D01*
X137206757Y-117793869D01*
X137141095Y-117591782D01*
X137044624Y-117402449D01*
X137005270Y-117348282D01*
X137005269Y-117348282D01*
X136372962Y-117980590D01*
X136355925Y-117917007D01*
X136290099Y-117802993D01*
X136197007Y-117709901D01*
X136082993Y-117644075D01*
X136019409Y-117627037D01*
X136651716Y-116994728D01*
X136597550Y-116955375D01*
X136408217Y-116858904D01*
X136206129Y-116793242D01*
X135996246Y-116760000D01*
X135783754Y-116760000D01*
X135573872Y-116793242D01*
X135573869Y-116793242D01*
X135371782Y-116858904D01*
X135182439Y-116955380D01*
X135128282Y-116994727D01*
X135128282Y-116994728D01*
X135760591Y-117627037D01*
X135697007Y-117644075D01*
X135582993Y-117709901D01*
X135489901Y-117802993D01*
X135424075Y-117917007D01*
X135407037Y-117980591D01*
X134774728Y-117348282D01*
X134774727Y-117348282D01*
X134735380Y-117402439D01*
X134638904Y-117591782D01*
X134573242Y-117793869D01*
X134573242Y-117793872D01*
X134540000Y-118003753D01*
X134540000Y-118216246D01*
X134573242Y-118426127D01*
X134573242Y-118426130D01*
X134638904Y-118628217D01*
X134735375Y-118817550D01*
X134774728Y-118871716D01*
X135407037Y-118239408D01*
X135424075Y-118302993D01*
X135489901Y-118417007D01*
X135582993Y-118510099D01*
X135697007Y-118575925D01*
X135760590Y-118592962D01*
X135128282Y-119225269D01*
X135128282Y-119225270D01*
X135182452Y-119264626D01*
X135182451Y-119264626D01*
X135191495Y-119269234D01*
X135242292Y-119317208D01*
X135259087Y-119385029D01*
X135236550Y-119451164D01*
X135191499Y-119490202D01*
X135182182Y-119494949D01*
X135010213Y-119619890D01*
X134859890Y-119770213D01*
X134734951Y-119942179D01*
X134638444Y-120131585D01*
X134572753Y-120333760D01*
X134551217Y-120469735D01*
X134539500Y-120543713D01*
X134539500Y-120756287D01*
X134540165Y-120760484D01*
X134565855Y-120922689D01*
X134572754Y-120966243D01*
X134596788Y-121040213D01*
X134638444Y-121168414D01*
X134734951Y-121357820D01*
X134859890Y-121529786D01*
X135010213Y-121680109D01*
X135182182Y-121805050D01*
X135190946Y-121809516D01*
X135241742Y-121857491D01*
X135258536Y-121925312D01*
X135235998Y-121991447D01*
X135190946Y-122030484D01*
X135182182Y-122034949D01*
X135010213Y-122159890D01*
X134859890Y-122310213D01*
X134734951Y-122482179D01*
X134638444Y-122671585D01*
X134572753Y-122873760D01*
X134560661Y-122950109D01*
X134539500Y-123083713D01*
X134539500Y-123296287D01*
X134572754Y-123506243D01*
X134596788Y-123580213D01*
X134638444Y-123708414D01*
X134734951Y-123897820D01*
X134859890Y-124069786D01*
X135010213Y-124220109D01*
X135182179Y-124345048D01*
X135182181Y-124345049D01*
X135182184Y-124345051D01*
X135371588Y-124441557D01*
X135573757Y-124507246D01*
X135783713Y-124540500D01*
X135783714Y-124540500D01*
X135996286Y-124540500D01*
X135996287Y-124540500D01*
X136206243Y-124507246D01*
X136408412Y-124441557D01*
X136597816Y-124345051D01*
X136619789Y-124329086D01*
X136769786Y-124220109D01*
X136769788Y-124220106D01*
X136769792Y-124220104D01*
X136920104Y-124069792D01*
X136920106Y-124069788D01*
X136920109Y-124069786D01*
X137045048Y-123897820D01*
X137045047Y-123897820D01*
X137045051Y-123897816D01*
X137141557Y-123708412D01*
X137207246Y-123506243D01*
X137240500Y-123296287D01*
X137240500Y-123083713D01*
X137207246Y-122873757D01*
X137141557Y-122671588D01*
X137045051Y-122482184D01*
X137045049Y-122482181D01*
X137045048Y-122482179D01*
X136920109Y-122310213D01*
X136769786Y-122159890D01*
X136597820Y-122034951D01*
X136597115Y-122034591D01*
X136589054Y-122030485D01*
X136538259Y-121982512D01*
X136521463Y-121914692D01*
X136543999Y-121848556D01*
X136589054Y-121809515D01*
X136597816Y-121805051D01*
X136702236Y-121729186D01*
X136769786Y-121680109D01*
X136769788Y-121680106D01*
X136769792Y-121680104D01*
X136920104Y-121529792D01*
X136920106Y-121529788D01*
X136920109Y-121529786D01*
X137045048Y-121357820D01*
X137045047Y-121357820D01*
X137045051Y-121357816D01*
X137141557Y-121168412D01*
X137207246Y-120966243D01*
X137240500Y-120756287D01*
X137240500Y-120543713D01*
X137207246Y-120333757D01*
X137193506Y-120291473D01*
X137191512Y-120221635D01*
X137223755Y-120165478D01*
X138788506Y-118600728D01*
X138788511Y-118600724D01*
X138798714Y-118590520D01*
X138798716Y-118590520D01*
X138910520Y-118478716D01*
X138989577Y-118341784D01*
X139027655Y-118199676D01*
X139030500Y-118189058D01*
X139030500Y-118030943D01*
X139030500Y-109140943D01*
X139025280Y-109121459D01*
X138989577Y-108988215D01*
X138940815Y-108903757D01*
X138910520Y-108851284D01*
X138798716Y-108739480D01*
X138794385Y-108735149D01*
X138794374Y-108735139D01*
X137796819Y-107737584D01*
X137763334Y-107676261D01*
X137760500Y-107649903D01*
X137760500Y-105782135D01*
X138349500Y-105782135D01*
X138349500Y-107577870D01*
X138349501Y-107577876D01*
X138355908Y-107637483D01*
X138406202Y-107772328D01*
X138406206Y-107772335D01*
X138492452Y-107887544D01*
X138492455Y-107887547D01*
X138607664Y-107973793D01*
X138607671Y-107973797D01*
X138742517Y-108024091D01*
X138742516Y-108024091D01*
X138749444Y-108024835D01*
X138802127Y-108030500D01*
X140597872Y-108030499D01*
X140657483Y-108024091D01*
X140792331Y-107973796D01*
X140907546Y-107887546D01*
X140993796Y-107772331D01*
X141042810Y-107640916D01*
X141084681Y-107584984D01*
X141150145Y-107560566D01*
X141218418Y-107575417D01*
X141246673Y-107596569D01*
X141360213Y-107710109D01*
X141532179Y-107835048D01*
X141532181Y-107835049D01*
X141532184Y-107835051D01*
X141721588Y-107931557D01*
X141923757Y-107997246D01*
X142133713Y-108030500D01*
X142133714Y-108030500D01*
X142346286Y-108030500D01*
X142346287Y-108030500D01*
X142556243Y-107997246D01*
X142758412Y-107931557D01*
X142947816Y-107835051D01*
X143034138Y-107772335D01*
X143119786Y-107710109D01*
X143119788Y-107710106D01*
X143119792Y-107710104D01*
X143270104Y-107559792D01*
X143270106Y-107559788D01*
X143270109Y-107559786D01*
X143395048Y-107387820D01*
X143395047Y-107387820D01*
X143395051Y-107387816D01*
X143399514Y-107379054D01*
X143447488Y-107328259D01*
X143515308Y-107311463D01*
X143581444Y-107333999D01*
X143620486Y-107379056D01*
X143624951Y-107387820D01*
X143749890Y-107559786D01*
X143900213Y-107710109D01*
X144072179Y-107835048D01*
X144072181Y-107835049D01*
X144072184Y-107835051D01*
X144261588Y-107931557D01*
X144463757Y-107997246D01*
X144673713Y-108030500D01*
X144673714Y-108030500D01*
X144886286Y-108030500D01*
X144886287Y-108030500D01*
X145096243Y-107997246D01*
X145298412Y-107931557D01*
X145487816Y-107835051D01*
X145574138Y-107772335D01*
X145659786Y-107710109D01*
X145659788Y-107710106D01*
X145659792Y-107710104D01*
X145810104Y-107559792D01*
X145810106Y-107559788D01*
X145810109Y-107559786D01*
X145935048Y-107387820D01*
X145935047Y-107387820D01*
X145935051Y-107387816D01*
X145939514Y-107379054D01*
X145987488Y-107328259D01*
X146055308Y-107311463D01*
X146121444Y-107333999D01*
X146160486Y-107379056D01*
X146164951Y-107387820D01*
X146289890Y-107559786D01*
X146440213Y-107710109D01*
X146612179Y-107835048D01*
X146612181Y-107835049D01*
X146612184Y-107835051D01*
X146801588Y-107931557D01*
X147003757Y-107997246D01*
X147213713Y-108030500D01*
X147213714Y-108030500D01*
X147426286Y-108030500D01*
X147426287Y-108030500D01*
X147636243Y-107997246D01*
X147838412Y-107931557D01*
X148027816Y-107835051D01*
X148114138Y-107772335D01*
X148199786Y-107710109D01*
X148199788Y-107710106D01*
X148199792Y-107710104D01*
X148350104Y-107559792D01*
X148350106Y-107559788D01*
X148350109Y-107559786D01*
X148475048Y-107387820D01*
X148475047Y-107387820D01*
X148475051Y-107387816D01*
X148479514Y-107379054D01*
X148527488Y-107328259D01*
X148595308Y-107311463D01*
X148661444Y-107333999D01*
X148700486Y-107379056D01*
X148704951Y-107387820D01*
X148829890Y-107559786D01*
X148980213Y-107710109D01*
X149152179Y-107835048D01*
X149152181Y-107835049D01*
X149152184Y-107835051D01*
X149341588Y-107931557D01*
X149543757Y-107997246D01*
X149753713Y-108030500D01*
X149753714Y-108030500D01*
X149966286Y-108030500D01*
X149966287Y-108030500D01*
X150176243Y-107997246D01*
X150378412Y-107931557D01*
X150567816Y-107835051D01*
X150654138Y-107772335D01*
X150739786Y-107710109D01*
X150739788Y-107710106D01*
X150739792Y-107710104D01*
X150890104Y-107559792D01*
X150890106Y-107559788D01*
X150890109Y-107559786D01*
X151015048Y-107387820D01*
X151015047Y-107387820D01*
X151015051Y-107387816D01*
X151019514Y-107379054D01*
X151067488Y-107328259D01*
X151135308Y-107311463D01*
X151201444Y-107333999D01*
X151240486Y-107379056D01*
X151244951Y-107387820D01*
X151369890Y-107559786D01*
X151520213Y-107710109D01*
X151692179Y-107835048D01*
X151692181Y-107835049D01*
X151692184Y-107835051D01*
X151881588Y-107931557D01*
X152083757Y-107997246D01*
X152293713Y-108030500D01*
X152293714Y-108030500D01*
X152506286Y-108030500D01*
X152506287Y-108030500D01*
X152716243Y-107997246D01*
X152918412Y-107931557D01*
X153107816Y-107835051D01*
X153194138Y-107772335D01*
X153279786Y-107710109D01*
X153279788Y-107710106D01*
X153279792Y-107710104D01*
X153430104Y-107559792D01*
X153430106Y-107559788D01*
X153430109Y-107559786D01*
X153555048Y-107387820D01*
X153555047Y-107387820D01*
X153555051Y-107387816D01*
X153559514Y-107379054D01*
X153607488Y-107328259D01*
X153675308Y-107311463D01*
X153741444Y-107333999D01*
X153780486Y-107379056D01*
X153784951Y-107387820D01*
X153909890Y-107559786D01*
X154060213Y-107710109D01*
X154232179Y-107835048D01*
X154232181Y-107835049D01*
X154232184Y-107835051D01*
X154421588Y-107931557D01*
X154623757Y-107997246D01*
X154833713Y-108030500D01*
X154833714Y-108030500D01*
X155046286Y-108030500D01*
X155046287Y-108030500D01*
X155256243Y-107997246D01*
X155458412Y-107931557D01*
X155647816Y-107835051D01*
X155734138Y-107772335D01*
X155819786Y-107710109D01*
X155819788Y-107710106D01*
X155819792Y-107710104D01*
X155970104Y-107559792D01*
X155970106Y-107559788D01*
X155970109Y-107559786D01*
X156095048Y-107387820D01*
X156095047Y-107387820D01*
X156095051Y-107387816D01*
X156099514Y-107379054D01*
X156147488Y-107328259D01*
X156215308Y-107311463D01*
X156281444Y-107333999D01*
X156320486Y-107379056D01*
X156324951Y-107387820D01*
X156449890Y-107559786D01*
X156600213Y-107710109D01*
X156772179Y-107835048D01*
X156772181Y-107835049D01*
X156772184Y-107835051D01*
X156961588Y-107931557D01*
X157163757Y-107997246D01*
X157373713Y-108030500D01*
X157373714Y-108030500D01*
X157586286Y-108030500D01*
X157586287Y-108030500D01*
X157796243Y-107997246D01*
X157998412Y-107931557D01*
X158187816Y-107835051D01*
X158274138Y-107772335D01*
X158359786Y-107710109D01*
X158359788Y-107710106D01*
X158359792Y-107710104D01*
X158510104Y-107559792D01*
X158510106Y-107559788D01*
X158510109Y-107559786D01*
X158635048Y-107387820D01*
X158635047Y-107387820D01*
X158635051Y-107387816D01*
X158639514Y-107379054D01*
X158687488Y-107328259D01*
X158755308Y-107311463D01*
X158821444Y-107333999D01*
X158860486Y-107379056D01*
X158864951Y-107387820D01*
X158989890Y-107559786D01*
X159140213Y-107710109D01*
X159312179Y-107835048D01*
X159312181Y-107835049D01*
X159312184Y-107835051D01*
X159501588Y-107931557D01*
X159703757Y-107997246D01*
X159913713Y-108030500D01*
X159913714Y-108030500D01*
X160126286Y-108030500D01*
X160126287Y-108030500D01*
X160336243Y-107997246D01*
X160538412Y-107931557D01*
X160727816Y-107835051D01*
X160814138Y-107772335D01*
X160899786Y-107710109D01*
X160899788Y-107710106D01*
X160899792Y-107710104D01*
X161050104Y-107559792D01*
X161050106Y-107559788D01*
X161050109Y-107559786D01*
X161135890Y-107441717D01*
X161175051Y-107387816D01*
X161179793Y-107378508D01*
X161227763Y-107327711D01*
X161295583Y-107310911D01*
X161361719Y-107333445D01*
X161400763Y-107378500D01*
X161405373Y-107387547D01*
X161444728Y-107441716D01*
X162077037Y-106809408D01*
X162094075Y-106872993D01*
X162159901Y-106987007D01*
X162252993Y-107080099D01*
X162367007Y-107145925D01*
X162430590Y-107162962D01*
X161798282Y-107795269D01*
X161798282Y-107795270D01*
X161852449Y-107834624D01*
X162041782Y-107931095D01*
X162243870Y-107996757D01*
X162453754Y-108030000D01*
X162666246Y-108030000D01*
X162876127Y-107996757D01*
X162876130Y-107996757D01*
X163078217Y-107931095D01*
X163267554Y-107834622D01*
X163321716Y-107795270D01*
X163321717Y-107795270D01*
X162689408Y-107162962D01*
X162752993Y-107145925D01*
X162867007Y-107080099D01*
X162960099Y-106987007D01*
X163025925Y-106872993D01*
X163042962Y-106809409D01*
X163675270Y-107441717D01*
X163675270Y-107441716D01*
X163714622Y-107387555D01*
X163719232Y-107378507D01*
X163767205Y-107327709D01*
X163835025Y-107310912D01*
X163901161Y-107333447D01*
X163940204Y-107378504D01*
X163944949Y-107387817D01*
X164069890Y-107559786D01*
X164220213Y-107710109D01*
X164392179Y-107835048D01*
X164392181Y-107835049D01*
X164392184Y-107835051D01*
X164581588Y-107931557D01*
X164783757Y-107997246D01*
X164993713Y-108030500D01*
X164993714Y-108030500D01*
X165206286Y-108030500D01*
X165206287Y-108030500D01*
X165416243Y-107997246D01*
X165618412Y-107931557D01*
X165807816Y-107835051D01*
X165894138Y-107772335D01*
X165979786Y-107710109D01*
X165979788Y-107710106D01*
X165979792Y-107710104D01*
X166130104Y-107559792D01*
X166130106Y-107559788D01*
X166130109Y-107559786D01*
X166255048Y-107387820D01*
X166255047Y-107387820D01*
X166255051Y-107387816D01*
X166259514Y-107379054D01*
X166307488Y-107328259D01*
X166375308Y-107311463D01*
X166441444Y-107333999D01*
X166480486Y-107379056D01*
X166484951Y-107387820D01*
X166609890Y-107559786D01*
X166760213Y-107710109D01*
X166932184Y-107835051D01*
X166932184Y-107835052D01*
X166971793Y-107855233D01*
X167022590Y-107903206D01*
X167039500Y-107965718D01*
X167039500Y-116753330D01*
X167039499Y-116753348D01*
X167039499Y-116919054D01*
X167039498Y-116919054D01*
X167080423Y-117071785D01*
X167109358Y-117121900D01*
X167109359Y-117121904D01*
X167109360Y-117121904D01*
X167150726Y-117193554D01*
X167159479Y-117208714D01*
X167159481Y-117208717D01*
X167278349Y-117327585D01*
X167278355Y-117327590D01*
X171386241Y-121435476D01*
X171419726Y-121496799D01*
X171416492Y-121561473D01*
X171402753Y-121603757D01*
X171373994Y-121785337D01*
X171369500Y-121813713D01*
X171369500Y-122026287D01*
X171402754Y-122236243D01*
X171426788Y-122310213D01*
X171468444Y-122438414D01*
X171564951Y-122627820D01*
X171689890Y-122799786D01*
X171840213Y-122950109D01*
X172012182Y-123075050D01*
X172020946Y-123079516D01*
X172071742Y-123127491D01*
X172088536Y-123195312D01*
X172065998Y-123261447D01*
X172020946Y-123300484D01*
X172012182Y-123304949D01*
X171840213Y-123429890D01*
X171689890Y-123580213D01*
X171564951Y-123752179D01*
X171468444Y-123941585D01*
X171402753Y-124143760D01*
X171390661Y-124220109D01*
X171369500Y-124353713D01*
X171369500Y-124566287D01*
X171377713Y-124618141D01*
X171392474Y-124711342D01*
X171402754Y-124776243D01*
X171430185Y-124860668D01*
X171468444Y-124978414D01*
X171564951Y-125167820D01*
X171689890Y-125339786D01*
X171840213Y-125490109D01*
X172012179Y-125615048D01*
X172012181Y-125615049D01*
X172012184Y-125615051D01*
X172201588Y-125711557D01*
X172403757Y-125777246D01*
X172613713Y-125810500D01*
X172613714Y-125810500D01*
X172826286Y-125810500D01*
X172826287Y-125810500D01*
X173036243Y-125777246D01*
X173238412Y-125711557D01*
X173427816Y-125615051D01*
X173482108Y-125575606D01*
X173599786Y-125490109D01*
X173599788Y-125490106D01*
X173599792Y-125490104D01*
X173750104Y-125339792D01*
X173750106Y-125339788D01*
X173750109Y-125339786D01*
X173875048Y-125167820D01*
X173875047Y-125167820D01*
X173875051Y-125167816D01*
X173971557Y-124978412D01*
X174037246Y-124776243D01*
X174070500Y-124566287D01*
X174070500Y-124353713D01*
X174037246Y-124143757D01*
X173971557Y-123941588D01*
X173875051Y-123752184D01*
X173875049Y-123752181D01*
X173875048Y-123752179D01*
X173750109Y-123580213D01*
X173599786Y-123429890D01*
X173427820Y-123304951D01*
X173427115Y-123304591D01*
X173419054Y-123300485D01*
X173368259Y-123252512D01*
X173351463Y-123184692D01*
X173373999Y-123118556D01*
X173419054Y-123079515D01*
X173427816Y-123075051D01*
X173449789Y-123059086D01*
X173599786Y-122950109D01*
X173599788Y-122950106D01*
X173599792Y-122950104D01*
X173750104Y-122799792D01*
X173750106Y-122799788D01*
X173750109Y-122799786D01*
X173843251Y-122671585D01*
X173875051Y-122627816D01*
X173875349Y-122627230D01*
X173895235Y-122588205D01*
X173943209Y-122537409D01*
X174005719Y-122520500D01*
X175244281Y-122520500D01*
X175311320Y-122540185D01*
X175354765Y-122588205D01*
X175374947Y-122627814D01*
X175374948Y-122627815D01*
X175499890Y-122799786D01*
X175650213Y-122950109D01*
X175822182Y-123075050D01*
X175830946Y-123079516D01*
X175881742Y-123127491D01*
X175898536Y-123195312D01*
X175875998Y-123261447D01*
X175830946Y-123300484D01*
X175822182Y-123304949D01*
X175650213Y-123429890D01*
X175499890Y-123580213D01*
X175374951Y-123752179D01*
X175278444Y-123941585D01*
X175212753Y-124143760D01*
X175200661Y-124220109D01*
X175179500Y-124353713D01*
X175179500Y-124566287D01*
X175187713Y-124618141D01*
X175202474Y-124711342D01*
X175212754Y-124776243D01*
X175240185Y-124860668D01*
X175278444Y-124978414D01*
X175374951Y-125167820D01*
X175499890Y-125339786D01*
X175650213Y-125490109D01*
X175822179Y-125615048D01*
X175822181Y-125615049D01*
X175822184Y-125615051D01*
X176011588Y-125711557D01*
X176213757Y-125777246D01*
X176423713Y-125810500D01*
X176423714Y-125810500D01*
X176636286Y-125810500D01*
X176636287Y-125810500D01*
X176846243Y-125777246D01*
X177048412Y-125711557D01*
X177213026Y-125627682D01*
X199400000Y-125627682D01*
X199400000Y-125832317D01*
X199432009Y-126034417D01*
X199495244Y-126229031D01*
X199588141Y-126411350D01*
X199588147Y-126411359D01*
X199620523Y-126455921D01*
X199620524Y-126455922D01*
X200300000Y-125776446D01*
X200300000Y-125782661D01*
X200327259Y-125884394D01*
X200379920Y-125975606D01*
X200454394Y-126050080D01*
X200545606Y-126102741D01*
X200647339Y-126130000D01*
X200653553Y-126130000D01*
X199974076Y-126809474D01*
X200018650Y-126841859D01*
X200200968Y-126934755D01*
X200395582Y-126997990D01*
X200597683Y-127030000D01*
X200802317Y-127030000D01*
X201004417Y-126997990D01*
X201199031Y-126934755D01*
X201381349Y-126841859D01*
X201425921Y-126809474D01*
X200746447Y-126130000D01*
X200752661Y-126130000D01*
X200854394Y-126102741D01*
X200945606Y-126050080D01*
X201020080Y-125975606D01*
X201072741Y-125884394D01*
X201100000Y-125782661D01*
X201100000Y-125776447D01*
X201779473Y-126455921D01*
X201817280Y-126452946D01*
X201885658Y-126467310D01*
X201935415Y-126516361D01*
X201944716Y-126537559D01*
X201965186Y-126599333D01*
X201965187Y-126599336D01*
X202000069Y-126655888D01*
X202057288Y-126748656D01*
X202181344Y-126872712D01*
X202330666Y-126964814D01*
X202497203Y-127019999D01*
X202599991Y-127030500D01*
X203800008Y-127030499D01*
X203902797Y-127019999D01*
X204069334Y-126964814D01*
X204218656Y-126872712D01*
X204342712Y-126748656D01*
X204434814Y-126599334D01*
X204489999Y-126432797D01*
X204500500Y-126330009D01*
X204500499Y-125129992D01*
X204489999Y-125027203D01*
X204434814Y-124860666D01*
X204342712Y-124711344D01*
X204218656Y-124587288D01*
X204118066Y-124525244D01*
X204069336Y-124495187D01*
X204069331Y-124495185D01*
X204067862Y-124494698D01*
X203902797Y-124440001D01*
X203902795Y-124440000D01*
X203800010Y-124429500D01*
X202599998Y-124429500D01*
X202599981Y-124429501D01*
X202497203Y-124440000D01*
X202497200Y-124440001D01*
X202330668Y-124495185D01*
X202330663Y-124495187D01*
X202181342Y-124587289D01*
X202057289Y-124711342D01*
X201965187Y-124860663D01*
X201965185Y-124860668D01*
X201944717Y-124922438D01*
X201904944Y-124979883D01*
X201840428Y-125006706D01*
X201817283Y-125007052D01*
X201779474Y-125004076D01*
X201100000Y-125683551D01*
X201100000Y-125677339D01*
X201072741Y-125575606D01*
X201020080Y-125484394D01*
X200945606Y-125409920D01*
X200854394Y-125357259D01*
X200752661Y-125330000D01*
X200746446Y-125330000D01*
X201425922Y-124650524D01*
X201425921Y-124650523D01*
X201381359Y-124618147D01*
X201381350Y-124618141D01*
X201199031Y-124525244D01*
X201004417Y-124462009D01*
X200802317Y-124430000D01*
X200597683Y-124430000D01*
X200395582Y-124462009D01*
X200200968Y-124525244D01*
X200018644Y-124618143D01*
X199974077Y-124650523D01*
X199974077Y-124650524D01*
X200653554Y-125330000D01*
X200647339Y-125330000D01*
X200545606Y-125357259D01*
X200454394Y-125409920D01*
X200379920Y-125484394D01*
X200327259Y-125575606D01*
X200300000Y-125677339D01*
X200300000Y-125683553D01*
X199620524Y-125004077D01*
X199620523Y-125004077D01*
X199588143Y-125048644D01*
X199495244Y-125230968D01*
X199432009Y-125425582D01*
X199400000Y-125627682D01*
X177213026Y-125627682D01*
X177237816Y-125615051D01*
X177311269Y-125561683D01*
X177365206Y-125522498D01*
X177365207Y-125522497D01*
X177409788Y-125490107D01*
X177409788Y-125490106D01*
X177409792Y-125490104D01*
X177560104Y-125339792D01*
X177560106Y-125339788D01*
X177560109Y-125339786D01*
X177685048Y-125167820D01*
X177685047Y-125167820D01*
X177685051Y-125167816D01*
X177781557Y-124978412D01*
X177847246Y-124776243D01*
X177880500Y-124566287D01*
X177880500Y-124353713D01*
X177847246Y-124143757D01*
X177781557Y-123941588D01*
X177685051Y-123752184D01*
X177685049Y-123752181D01*
X177685048Y-123752179D01*
X177560109Y-123580213D01*
X177409786Y-123429890D01*
X177237820Y-123304951D01*
X177237115Y-123304591D01*
X177229054Y-123300485D01*
X177178259Y-123252512D01*
X177161463Y-123184692D01*
X177183999Y-123118556D01*
X177229054Y-123079515D01*
X177237816Y-123075051D01*
X177259789Y-123059086D01*
X177409786Y-122950109D01*
X177409788Y-122950106D01*
X177409792Y-122950104D01*
X177560104Y-122799792D01*
X177560106Y-122799788D01*
X177560109Y-122799786D01*
X177685048Y-122627820D01*
X177685047Y-122627820D01*
X177685051Y-122627816D01*
X177781557Y-122438412D01*
X177847246Y-122236243D01*
X177880500Y-122026287D01*
X177880500Y-121813713D01*
X177847246Y-121603757D01*
X177781557Y-121401588D01*
X177685051Y-121212184D01*
X177685049Y-121212181D01*
X177685048Y-121212179D01*
X177560109Y-121040213D01*
X177409786Y-120889890D01*
X177237820Y-120764951D01*
X177237115Y-120764591D01*
X177229054Y-120760485D01*
X177226211Y-120757799D01*
X177222418Y-120756844D01*
X177201018Y-120734006D01*
X177178259Y-120712512D01*
X177177318Y-120708714D01*
X177174644Y-120705860D01*
X177168988Y-120675078D01*
X177161463Y-120644692D01*
X177162724Y-120640988D01*
X177162018Y-120637141D01*
X177173902Y-120608185D01*
X177183999Y-120578556D01*
X177187492Y-120575076D01*
X177188548Y-120572504D01*
X177196917Y-120565687D01*
X177214302Y-120548371D01*
X177221365Y-120543432D01*
X177237816Y-120535051D01*
X177409792Y-120410104D01*
X177560104Y-120259792D01*
X177560106Y-120259788D01*
X177560109Y-120259786D01*
X177685048Y-120087820D01*
X177685047Y-120087820D01*
X177685051Y-120087816D01*
X177781557Y-119898412D01*
X177847246Y-119696243D01*
X177880500Y-119486287D01*
X177880500Y-119273713D01*
X177847246Y-119063757D01*
X177781557Y-118861588D01*
X177685051Y-118672184D01*
X177685049Y-118672181D01*
X177685048Y-118672179D01*
X177560109Y-118500213D01*
X177409786Y-118349890D01*
X177237817Y-118224949D01*
X177228504Y-118220204D01*
X177177707Y-118172230D01*
X177160912Y-118104409D01*
X177183449Y-118038274D01*
X177228507Y-117999232D01*
X177237555Y-117994622D01*
X177291716Y-117955270D01*
X177291717Y-117955270D01*
X176659408Y-117322962D01*
X176722993Y-117305925D01*
X176837007Y-117240099D01*
X176930099Y-117147007D01*
X176995925Y-117032993D01*
X177012962Y-116969408D01*
X177645270Y-117601717D01*
X177645270Y-117601716D01*
X177684622Y-117547554D01*
X177781095Y-117358217D01*
X177846757Y-117156130D01*
X177846757Y-117156127D01*
X177880000Y-116946246D01*
X177880000Y-116733753D01*
X177846757Y-116523872D01*
X177846757Y-116523869D01*
X177781095Y-116321782D01*
X177684624Y-116132449D01*
X177645270Y-116078282D01*
X177645269Y-116078282D01*
X177012962Y-116710590D01*
X176995925Y-116647007D01*
X176930099Y-116532993D01*
X176837007Y-116439901D01*
X176722993Y-116374075D01*
X176659409Y-116357037D01*
X177291716Y-115724728D01*
X177237550Y-115685375D01*
X177048217Y-115588904D01*
X176846129Y-115523242D01*
X176636246Y-115490000D01*
X176423754Y-115490000D01*
X176213872Y-115523242D01*
X176213869Y-115523242D01*
X176011782Y-115588904D01*
X175822439Y-115685380D01*
X175768282Y-115724727D01*
X175768282Y-115724728D01*
X176400591Y-116357037D01*
X176337007Y-116374075D01*
X176222993Y-116439901D01*
X176129901Y-116532993D01*
X176064075Y-116647007D01*
X176047037Y-116710591D01*
X175414728Y-116078282D01*
X175414727Y-116078282D01*
X175375380Y-116132439D01*
X175278904Y-116321782D01*
X175213242Y-116523869D01*
X175213242Y-116523872D01*
X175180000Y-116733753D01*
X175180000Y-116946246D01*
X175213242Y-117156127D01*
X175213242Y-117156130D01*
X175278904Y-117358217D01*
X175375375Y-117547550D01*
X175414728Y-117601716D01*
X176047037Y-116969408D01*
X176064075Y-117032993D01*
X176129901Y-117147007D01*
X176222993Y-117240099D01*
X176337007Y-117305925D01*
X176400590Y-117322962D01*
X175768282Y-117955269D01*
X175768282Y-117955270D01*
X175822452Y-117994626D01*
X175822451Y-117994626D01*
X175831495Y-117999234D01*
X175882292Y-118047208D01*
X175899087Y-118115029D01*
X175876550Y-118181164D01*
X175831499Y-118220202D01*
X175822182Y-118224949D01*
X175650213Y-118349890D01*
X175499890Y-118500213D01*
X175374948Y-118672184D01*
X175374947Y-118672185D01*
X175354765Y-118711795D01*
X175306791Y-118762591D01*
X175244281Y-118779500D01*
X174005719Y-118779500D01*
X173938680Y-118759815D01*
X173895235Y-118711795D01*
X173875052Y-118672185D01*
X173875051Y-118672184D01*
X173750109Y-118500213D01*
X173599786Y-118349890D01*
X173427817Y-118224949D01*
X173418504Y-118220204D01*
X173367707Y-118172230D01*
X173350912Y-118104409D01*
X173373449Y-118038274D01*
X173418507Y-117999232D01*
X173427555Y-117994622D01*
X173481716Y-117955270D01*
X173481717Y-117955270D01*
X172849408Y-117322962D01*
X172912993Y-117305925D01*
X173027007Y-117240099D01*
X173120099Y-117147007D01*
X173185925Y-117032993D01*
X173202962Y-116969408D01*
X173835270Y-117601717D01*
X173835270Y-117601716D01*
X173874622Y-117547554D01*
X173971095Y-117358217D01*
X174036757Y-117156130D01*
X174036757Y-117156127D01*
X174070000Y-116946246D01*
X174070000Y-116733753D01*
X174036757Y-116523872D01*
X174036757Y-116523869D01*
X173971095Y-116321782D01*
X173874624Y-116132449D01*
X173835270Y-116078282D01*
X173835269Y-116078282D01*
X173202962Y-116710590D01*
X173185925Y-116647007D01*
X173120099Y-116532993D01*
X173027007Y-116439901D01*
X172912993Y-116374075D01*
X172849409Y-116357037D01*
X173481716Y-115724728D01*
X173427550Y-115685375D01*
X173238217Y-115588904D01*
X173036129Y-115523242D01*
X172826246Y-115490000D01*
X172613754Y-115490000D01*
X172403872Y-115523242D01*
X172403869Y-115523242D01*
X172201782Y-115588904D01*
X172012439Y-115685380D01*
X171958282Y-115724727D01*
X171958282Y-115724728D01*
X172590591Y-116357037D01*
X172527007Y-116374075D01*
X172412993Y-116439901D01*
X172319901Y-116532993D01*
X172254075Y-116647007D01*
X172237037Y-116710591D01*
X171604728Y-116078282D01*
X171604727Y-116078282D01*
X171565380Y-116132439D01*
X171468904Y-116321782D01*
X171403242Y-116523869D01*
X171403242Y-116523872D01*
X171370000Y-116733753D01*
X171370000Y-116881403D01*
X171350315Y-116948442D01*
X171297511Y-116994197D01*
X171228353Y-117004141D01*
X171164797Y-116975116D01*
X171158319Y-116969084D01*
X170816819Y-116627584D01*
X170783334Y-116566261D01*
X170780500Y-116539903D01*
X170780500Y-113027054D01*
X173259500Y-113027054D01*
X173259500Y-113289309D01*
X173276735Y-113420213D01*
X173293730Y-113549298D01*
X173357857Y-113788623D01*
X173361602Y-113802600D01*
X173361605Y-113802610D01*
X173461953Y-114044872D01*
X173461958Y-114044882D01*
X173593075Y-114271985D01*
X173752718Y-114480033D01*
X173752726Y-114480042D01*
X173938140Y-114665456D01*
X173938148Y-114665463D01*
X174146196Y-114825106D01*
X174373299Y-114956223D01*
X174373309Y-114956228D01*
X174615571Y-115056576D01*
X174615581Y-115056580D01*
X174868884Y-115124452D01*
X175128880Y-115158682D01*
X175128887Y-115158682D01*
X175391113Y-115158682D01*
X175391120Y-115158682D01*
X175651116Y-115124452D01*
X175904419Y-115056580D01*
X176081340Y-114983296D01*
X176146690Y-114956228D01*
X176146691Y-114956227D01*
X176146697Y-114956225D01*
X176373803Y-114825106D01*
X176581851Y-114665464D01*
X176581855Y-114665459D01*
X176581860Y-114665456D01*
X176767274Y-114480042D01*
X176767277Y-114480037D01*
X176767282Y-114480033D01*
X176926924Y-114271985D01*
X177058043Y-114044879D01*
X177158398Y-113802601D01*
X177226270Y-113549298D01*
X177260500Y-113289302D01*
X177260500Y-113027062D01*
X177226270Y-112767066D01*
X177158398Y-112513763D01*
X177071225Y-112303309D01*
X177058046Y-112271491D01*
X177058041Y-112271481D01*
X176926924Y-112044378D01*
X176767281Y-111836330D01*
X176767274Y-111836322D01*
X176581860Y-111650908D01*
X176581851Y-111650900D01*
X176373803Y-111491257D01*
X176146700Y-111360140D01*
X176146690Y-111360135D01*
X175904428Y-111259787D01*
X175904421Y-111259785D01*
X175904419Y-111259784D01*
X175651116Y-111191912D01*
X175593339Y-111184305D01*
X175391127Y-111157682D01*
X175391120Y-111157682D01*
X175128880Y-111157682D01*
X175128872Y-111157682D01*
X174897772Y-111188108D01*
X174868884Y-111191912D01*
X174657235Y-111248623D01*
X174615581Y-111259784D01*
X174615571Y-111259787D01*
X174373309Y-111360135D01*
X174373299Y-111360140D01*
X174146196Y-111491257D01*
X173938148Y-111650900D01*
X173752718Y-111836330D01*
X173593075Y-112044378D01*
X173461958Y-112271481D01*
X173461953Y-112271491D01*
X173361605Y-112513753D01*
X173361602Y-112513763D01*
X173327835Y-112639786D01*
X173293730Y-112767067D01*
X173259500Y-113027054D01*
X170780500Y-113027054D01*
X170780500Y-107965718D01*
X170800185Y-107898679D01*
X170848207Y-107855233D01*
X170887815Y-107835052D01*
X170887815Y-107835051D01*
X170887816Y-107835051D01*
X171021969Y-107737584D01*
X171059786Y-107710109D01*
X171059788Y-107710106D01*
X171059792Y-107710104D01*
X171210104Y-107559792D01*
X171210106Y-107559788D01*
X171210109Y-107559786D01*
X171335048Y-107387820D01*
X171335047Y-107387820D01*
X171335051Y-107387816D01*
X171339514Y-107379054D01*
X171387488Y-107328259D01*
X171455308Y-107311463D01*
X171521444Y-107333999D01*
X171560486Y-107379056D01*
X171564951Y-107387820D01*
X171689890Y-107559786D01*
X171840213Y-107710109D01*
X172012179Y-107835048D01*
X172012181Y-107835049D01*
X172012184Y-107835051D01*
X172201588Y-107931557D01*
X172403757Y-107997246D01*
X172613713Y-108030500D01*
X172613714Y-108030500D01*
X172826286Y-108030500D01*
X172826287Y-108030500D01*
X173036243Y-107997246D01*
X173078523Y-107983507D01*
X173148362Y-107981511D01*
X173204521Y-108013756D01*
X176161284Y-110970520D01*
X176161286Y-110970521D01*
X176161290Y-110970524D01*
X176298209Y-111049573D01*
X176298216Y-111049577D01*
X176450943Y-111090501D01*
X176450945Y-111090501D01*
X176616654Y-111090501D01*
X176616670Y-111090500D01*
X188163706Y-111090500D01*
X188230745Y-111110185D01*
X188264023Y-111141613D01*
X188341769Y-111248621D01*
X188471379Y-111378231D01*
X188619669Y-111485970D01*
X188692491Y-111523075D01*
X188782986Y-111569185D01*
X188782989Y-111569186D01*
X188870149Y-111597505D01*
X188957312Y-111625826D01*
X189017307Y-111635328D01*
X189031188Y-111637527D01*
X189094323Y-111667456D01*
X189131254Y-111726768D01*
X189130256Y-111796630D01*
X189091646Y-111854863D01*
X189031188Y-111882473D01*
X188957310Y-111894174D01*
X188782989Y-111950813D01*
X188782986Y-111950814D01*
X188619668Y-112034030D01*
X188548774Y-112085538D01*
X188471379Y-112141769D01*
X188471377Y-112141771D01*
X188471376Y-112141771D01*
X188341771Y-112271376D01*
X188341771Y-112271377D01*
X188341769Y-112271379D01*
X188295499Y-112335063D01*
X188234030Y-112419668D01*
X188150814Y-112582986D01*
X188150813Y-112582989D01*
X188094174Y-112757310D01*
X188065500Y-112938352D01*
X188065500Y-113121647D01*
X188094174Y-113302689D01*
X188150813Y-113477010D01*
X188150814Y-113477013D01*
X188234030Y-113640331D01*
X188341769Y-113788621D01*
X188471379Y-113918231D01*
X188619669Y-114025970D01*
X188656780Y-114044879D01*
X188782986Y-114109185D01*
X188782989Y-114109186D01*
X188870149Y-114137505D01*
X188957312Y-114165826D01*
X189017307Y-114175328D01*
X189031188Y-114177527D01*
X189094323Y-114207456D01*
X189131254Y-114266768D01*
X189130256Y-114336630D01*
X189091646Y-114394863D01*
X189031188Y-114422473D01*
X188957310Y-114434174D01*
X188782989Y-114490813D01*
X188782986Y-114490814D01*
X188619668Y-114574030D01*
X188535063Y-114635499D01*
X188471379Y-114681769D01*
X188471377Y-114681771D01*
X188471376Y-114681771D01*
X188341771Y-114811376D01*
X188341771Y-114811377D01*
X188341769Y-114811379D01*
X188295499Y-114875063D01*
X188234030Y-114959668D01*
X188150814Y-115122986D01*
X188150813Y-115122989D01*
X188094174Y-115297310D01*
X188065500Y-115478352D01*
X188065500Y-115661647D01*
X188094174Y-115842689D01*
X188150813Y-116017010D01*
X188150814Y-116017013D01*
X188209633Y-116132449D01*
X188234030Y-116180331D01*
X188341769Y-116328621D01*
X188471379Y-116458231D01*
X188619669Y-116565970D01*
X188669313Y-116591265D01*
X188782986Y-116649185D01*
X188782989Y-116649186D01*
X188870149Y-116677505D01*
X188957312Y-116705826D01*
X189017307Y-116715328D01*
X189031188Y-116717527D01*
X189094323Y-116747456D01*
X189131254Y-116806768D01*
X189130256Y-116876630D01*
X189091646Y-116934863D01*
X189031188Y-116962473D01*
X188957310Y-116974174D01*
X188782989Y-117030813D01*
X188782986Y-117030814D01*
X188619668Y-117114030D01*
X188574280Y-117147007D01*
X188471379Y-117221769D01*
X188471377Y-117221771D01*
X188471376Y-117221771D01*
X188341771Y-117351376D01*
X188341771Y-117351377D01*
X188341769Y-117351379D01*
X188304434Y-117402766D01*
X188234030Y-117499668D01*
X188150814Y-117662986D01*
X188150813Y-117662989D01*
X188094174Y-117837310D01*
X188079125Y-117932328D01*
X188065500Y-118018352D01*
X188065500Y-118201648D01*
X188078983Y-118286777D01*
X188094174Y-118382689D01*
X188150813Y-118557010D01*
X188150814Y-118557013D01*
X188209498Y-118672185D01*
X188234030Y-118720331D01*
X188341769Y-118868621D01*
X188471379Y-118998231D01*
X188619669Y-119105970D01*
X188699771Y-119146784D01*
X188782986Y-119189185D01*
X188782989Y-119189186D01*
X188870149Y-119217505D01*
X188957312Y-119245826D01*
X189032787Y-119257780D01*
X189095921Y-119287709D01*
X189132853Y-119347020D01*
X189131855Y-119416883D01*
X189093246Y-119475116D01*
X189032787Y-119502726D01*
X188957427Y-119514662D01*
X188957424Y-119514662D01*
X188783181Y-119571277D01*
X188619933Y-119654456D01*
X188619929Y-119654459D01*
X188601443Y-119667888D01*
X188601443Y-119667889D01*
X189174075Y-120240521D01*
X189071746Y-120267941D01*
X188978254Y-120321918D01*
X188901918Y-120398254D01*
X188847941Y-120491746D01*
X188820521Y-120594074D01*
X188247889Y-120021443D01*
X188247888Y-120021443D01*
X188234459Y-120039929D01*
X188234456Y-120039933D01*
X188151277Y-120203181D01*
X188094662Y-120377424D01*
X188094662Y-120377427D01*
X188066000Y-120558391D01*
X188066000Y-120741608D01*
X188094662Y-120922572D01*
X188094662Y-120922575D01*
X188151277Y-121096818D01*
X188234459Y-121260071D01*
X188247888Y-121278555D01*
X188247889Y-121278555D01*
X188820521Y-120705924D01*
X188847941Y-120808254D01*
X188901918Y-120901746D01*
X188978254Y-120978082D01*
X189071746Y-121032059D01*
X189174075Y-121059478D01*
X188601443Y-121632109D01*
X188601443Y-121632110D01*
X188619928Y-121645540D01*
X188783181Y-121728722D01*
X188957425Y-121785337D01*
X189138392Y-121814000D01*
X189321608Y-121814000D01*
X189502572Y-121785337D01*
X189502575Y-121785337D01*
X189676818Y-121728722D01*
X189840069Y-121645541D01*
X189858555Y-121632110D01*
X189858555Y-121632109D01*
X189285925Y-121059478D01*
X189388254Y-121032059D01*
X189481746Y-120978082D01*
X189558082Y-120901746D01*
X189612059Y-120808254D01*
X189639478Y-120705924D01*
X190212109Y-121278555D01*
X190212110Y-121278555D01*
X190225541Y-121260069D01*
X190308722Y-121096818D01*
X190365337Y-120922575D01*
X190365337Y-120922572D01*
X190394000Y-120741608D01*
X190394000Y-120558391D01*
X190365337Y-120377427D01*
X190365337Y-120377424D01*
X190308722Y-120203181D01*
X190225540Y-120039928D01*
X190212109Y-120021443D01*
X189639478Y-120594074D01*
X189612059Y-120491746D01*
X189558082Y-120398254D01*
X189481746Y-120321918D01*
X189388254Y-120267941D01*
X189285925Y-120240521D01*
X189858555Y-119667889D01*
X189858555Y-119667888D01*
X189840071Y-119654459D01*
X189676818Y-119571277D01*
X189502573Y-119514662D01*
X189427212Y-119502726D01*
X189364077Y-119472797D01*
X189327146Y-119413485D01*
X189328144Y-119343623D01*
X189366754Y-119285390D01*
X189427212Y-119257780D01*
X189502688Y-119245826D01*
X189677013Y-119189185D01*
X189840331Y-119105970D01*
X189988621Y-118998231D01*
X190118231Y-118868621D01*
X190225970Y-118720331D01*
X190309185Y-118557013D01*
X190365826Y-118382688D01*
X190394500Y-118201648D01*
X190394500Y-118018352D01*
X190365826Y-117837312D01*
X190309185Y-117662987D01*
X190309185Y-117662986D01*
X190250369Y-117547554D01*
X190225970Y-117499669D01*
X190118231Y-117351379D01*
X189988621Y-117221769D01*
X189840331Y-117114030D01*
X189677013Y-117030814D01*
X189677010Y-117030813D01*
X189502689Y-116974174D01*
X189428811Y-116962473D01*
X189365677Y-116932544D01*
X189328745Y-116873233D01*
X189329743Y-116803370D01*
X189368353Y-116745137D01*
X189428811Y-116717527D01*
X189502688Y-116705826D01*
X189677013Y-116649185D01*
X189840331Y-116565970D01*
X189988621Y-116458231D01*
X190118231Y-116328621D01*
X190225970Y-116180331D01*
X190309185Y-116017013D01*
X190365826Y-115842688D01*
X190394500Y-115661648D01*
X190394500Y-115478352D01*
X190365826Y-115297312D01*
X190309185Y-115122987D01*
X190309185Y-115122986D01*
X190225969Y-114959668D01*
X190223470Y-114956228D01*
X190118231Y-114811379D01*
X189988621Y-114681769D01*
X189840331Y-114574030D01*
X189677013Y-114490814D01*
X189677010Y-114490813D01*
X189502689Y-114434174D01*
X189428811Y-114422473D01*
X189365677Y-114392544D01*
X189328745Y-114333233D01*
X189329743Y-114263370D01*
X189368353Y-114205137D01*
X189428811Y-114177527D01*
X189502688Y-114165826D01*
X189677013Y-114109185D01*
X189840331Y-114025970D01*
X189988621Y-113918231D01*
X190118231Y-113788621D01*
X190225970Y-113640331D01*
X190309185Y-113477013D01*
X190365826Y-113302688D01*
X190394500Y-113121648D01*
X190394500Y-112938352D01*
X190365826Y-112757312D01*
X190309185Y-112582987D01*
X190309185Y-112582986D01*
X190225969Y-112419668D01*
X190118231Y-112271379D01*
X189988621Y-112141769D01*
X189840331Y-112034030D01*
X189677013Y-111950814D01*
X189677010Y-111950813D01*
X189502689Y-111894174D01*
X189428811Y-111882473D01*
X189365677Y-111852544D01*
X189328745Y-111793233D01*
X189329743Y-111723370D01*
X189368353Y-111665137D01*
X189428811Y-111637527D01*
X189502688Y-111625826D01*
X189677013Y-111569185D01*
X189840331Y-111485970D01*
X189988621Y-111378231D01*
X190118231Y-111248621D01*
X190225970Y-111100331D01*
X190309185Y-110937013D01*
X190365826Y-110762688D01*
X190394500Y-110581648D01*
X190394500Y-110398352D01*
X190365826Y-110217312D01*
X190309185Y-110042987D01*
X190309185Y-110042986D01*
X190266574Y-109959358D01*
X190225970Y-109879669D01*
X190118231Y-109731379D01*
X189988621Y-109601769D01*
X189840331Y-109494030D01*
X189839760Y-109493739D01*
X189677013Y-109410814D01*
X189677010Y-109410813D01*
X189502689Y-109354174D01*
X189428811Y-109342473D01*
X189365677Y-109312544D01*
X189328745Y-109253233D01*
X189329743Y-109183370D01*
X189368353Y-109125137D01*
X189428811Y-109097527D01*
X189502688Y-109085826D01*
X189677013Y-109029185D01*
X189840331Y-108945970D01*
X189988621Y-108838231D01*
X190118231Y-108708621D01*
X190225970Y-108560331D01*
X190309185Y-108397013D01*
X190365826Y-108222688D01*
X190394500Y-108041648D01*
X190394500Y-107858352D01*
X190365826Y-107677312D01*
X190309185Y-107502987D01*
X190309185Y-107502986D01*
X190266574Y-107419358D01*
X190225970Y-107339669D01*
X190118231Y-107191379D01*
X189988621Y-107061769D01*
X189840331Y-106954030D01*
X189677013Y-106870814D01*
X189677010Y-106870813D01*
X189502689Y-106814174D01*
X189428811Y-106802473D01*
X189365677Y-106772544D01*
X189328745Y-106713233D01*
X189329743Y-106643370D01*
X189368353Y-106585137D01*
X189428811Y-106557527D01*
X189429499Y-106557418D01*
X189502688Y-106545826D01*
X189677013Y-106489185D01*
X189840331Y-106405970D01*
X189988621Y-106298231D01*
X190118231Y-106168621D01*
X190225970Y-106020331D01*
X190309185Y-105857013D01*
X190365826Y-105682688D01*
X190394500Y-105501648D01*
X190394500Y-105318352D01*
X190365826Y-105137312D01*
X190309185Y-104962987D01*
X190309185Y-104962986D01*
X190266574Y-104879358D01*
X190225970Y-104799669D01*
X190118231Y-104651379D01*
X189988621Y-104521769D01*
X189840331Y-104414030D01*
X189677013Y-104330814D01*
X189677010Y-104330813D01*
X189509633Y-104276430D01*
X189451958Y-104236993D01*
X189424759Y-104172634D01*
X189436673Y-104103788D01*
X189483917Y-104052312D01*
X189547950Y-104034499D01*
X189941872Y-104034499D01*
X190001483Y-104028091D01*
X190136331Y-103977796D01*
X190251546Y-103891546D01*
X190337796Y-103776331D01*
X190388091Y-103641483D01*
X190394500Y-103581873D01*
X190394499Y-102778352D01*
X195685500Y-102778352D01*
X195685500Y-102961647D01*
X195714174Y-103142689D01*
X195770813Y-103317010D01*
X195770814Y-103317013D01*
X195849021Y-103470500D01*
X195854030Y-103480331D01*
X195961769Y-103628621D01*
X196091379Y-103758231D01*
X196239669Y-103865970D01*
X196319771Y-103906784D01*
X196402986Y-103949185D01*
X196402989Y-103949186D01*
X196490149Y-103977505D01*
X196577312Y-104005826D01*
X196637307Y-104015328D01*
X196651188Y-104017527D01*
X196714323Y-104047456D01*
X196751254Y-104106768D01*
X196750256Y-104176630D01*
X196711646Y-104234863D01*
X196651188Y-104262473D01*
X196577310Y-104274174D01*
X196402989Y-104330813D01*
X196402986Y-104330814D01*
X196239668Y-104414030D01*
X196155063Y-104475499D01*
X196091379Y-104521769D01*
X196091377Y-104521771D01*
X196091376Y-104521771D01*
X195961771Y-104651376D01*
X195961771Y-104651377D01*
X195961769Y-104651379D01*
X195915499Y-104715063D01*
X195854030Y-104799668D01*
X195770814Y-104962986D01*
X195770813Y-104962989D01*
X195714174Y-105137310D01*
X195685500Y-105318352D01*
X195685500Y-105501647D01*
X195714174Y-105682689D01*
X195770813Y-105857010D01*
X195770814Y-105857013D01*
X195829634Y-105972452D01*
X195854030Y-106020331D01*
X195961769Y-106168621D01*
X196091379Y-106298231D01*
X196239669Y-106405970D01*
X196319771Y-106446784D01*
X196402986Y-106489185D01*
X196402989Y-106489186D01*
X196490149Y-106517505D01*
X196577312Y-106545826D01*
X196637307Y-106555328D01*
X196651188Y-106557527D01*
X196714323Y-106587456D01*
X196751254Y-106646768D01*
X196750256Y-106716630D01*
X196711646Y-106774863D01*
X196651188Y-106802473D01*
X196577310Y-106814174D01*
X196402989Y-106870813D01*
X196402986Y-106870814D01*
X196239668Y-106954030D01*
X196155063Y-107015499D01*
X196091379Y-107061769D01*
X196091377Y-107061771D01*
X196091376Y-107061771D01*
X195961771Y-107191376D01*
X195961771Y-107191377D01*
X195961769Y-107191379D01*
X195956658Y-107198414D01*
X195854030Y-107339668D01*
X195770814Y-107502986D01*
X195770813Y-107502989D01*
X195714174Y-107677310D01*
X195685500Y-107858352D01*
X195685500Y-108041647D01*
X195714174Y-108222689D01*
X195770813Y-108397010D01*
X195770814Y-108397013D01*
X195849021Y-108550500D01*
X195854030Y-108560331D01*
X195961769Y-108708621D01*
X196091379Y-108838231D01*
X196239669Y-108945970D01*
X196319771Y-108986784D01*
X196402986Y-109029185D01*
X196402989Y-109029186D01*
X196490149Y-109057505D01*
X196577312Y-109085826D01*
X196637307Y-109095328D01*
X196651188Y-109097527D01*
X196714323Y-109127456D01*
X196751254Y-109186768D01*
X196750256Y-109256630D01*
X196711646Y-109314863D01*
X196651188Y-109342473D01*
X196577310Y-109354174D01*
X196402989Y-109410813D01*
X196402986Y-109410814D01*
X196239668Y-109494030D01*
X196155063Y-109555499D01*
X196091379Y-109601769D01*
X196091377Y-109601771D01*
X196091376Y-109601771D01*
X195961771Y-109731376D01*
X195961771Y-109731377D01*
X195961769Y-109731379D01*
X195956658Y-109738414D01*
X195854030Y-109879668D01*
X195770814Y-110042986D01*
X195770813Y-110042989D01*
X195714174Y-110217310D01*
X195685500Y-110398352D01*
X195685500Y-110581647D01*
X195714174Y-110762689D01*
X195770813Y-110937010D01*
X195770814Y-110937013D01*
X195849021Y-111090500D01*
X195854030Y-111100331D01*
X195961769Y-111248621D01*
X196091379Y-111378231D01*
X196239669Y-111485970D01*
X196312491Y-111523075D01*
X196402986Y-111569185D01*
X196402989Y-111569186D01*
X196490149Y-111597505D01*
X196577312Y-111625826D01*
X196637307Y-111635328D01*
X196651188Y-111637527D01*
X196714323Y-111667456D01*
X196751254Y-111726768D01*
X196750256Y-111796630D01*
X196711646Y-111854863D01*
X196651188Y-111882473D01*
X196577310Y-111894174D01*
X196402989Y-111950813D01*
X196402986Y-111950814D01*
X196239668Y-112034030D01*
X196168774Y-112085538D01*
X196091379Y-112141769D01*
X196091377Y-112141771D01*
X196091376Y-112141771D01*
X195961771Y-112271376D01*
X195961771Y-112271377D01*
X195961769Y-112271379D01*
X195915499Y-112335063D01*
X195854030Y-112419668D01*
X195770814Y-112582986D01*
X195770813Y-112582989D01*
X195714174Y-112757310D01*
X195685500Y-112938352D01*
X195685500Y-113121647D01*
X195714174Y-113302689D01*
X195770813Y-113477010D01*
X195770814Y-113477013D01*
X195854030Y-113640331D01*
X195961769Y-113788621D01*
X196091379Y-113918231D01*
X196239669Y-114025970D01*
X196276780Y-114044879D01*
X196402986Y-114109185D01*
X196402989Y-114109186D01*
X196490149Y-114137505D01*
X196577312Y-114165826D01*
X196637307Y-114175328D01*
X196651188Y-114177527D01*
X196714323Y-114207456D01*
X196751254Y-114266768D01*
X196750256Y-114336630D01*
X196711646Y-114394863D01*
X196651188Y-114422473D01*
X196577310Y-114434174D01*
X196402989Y-114490813D01*
X196402986Y-114490814D01*
X196239668Y-114574030D01*
X196155063Y-114635499D01*
X196091379Y-114681769D01*
X196091377Y-114681771D01*
X196091376Y-114681771D01*
X195961771Y-114811376D01*
X195961771Y-114811377D01*
X195961769Y-114811379D01*
X195915499Y-114875063D01*
X195854030Y-114959668D01*
X195770814Y-115122986D01*
X195770813Y-115122989D01*
X195714174Y-115297310D01*
X195685500Y-115478352D01*
X195685500Y-115661647D01*
X195714174Y-115842689D01*
X195770813Y-116017010D01*
X195770814Y-116017013D01*
X195829633Y-116132449D01*
X195854030Y-116180331D01*
X195961769Y-116328621D01*
X196091379Y-116458231D01*
X196239669Y-116565970D01*
X196289313Y-116591265D01*
X196402986Y-116649185D01*
X196402989Y-116649186D01*
X196490149Y-116677505D01*
X196577312Y-116705826D01*
X196637307Y-116715328D01*
X196651188Y-116717527D01*
X196714323Y-116747456D01*
X196751254Y-116806768D01*
X196750256Y-116876630D01*
X196711646Y-116934863D01*
X196651188Y-116962473D01*
X196577310Y-116974174D01*
X196402989Y-117030813D01*
X196402986Y-117030814D01*
X196239668Y-117114030D01*
X196194280Y-117147007D01*
X196091379Y-117221769D01*
X196091377Y-117221771D01*
X196091376Y-117221771D01*
X195961771Y-117351376D01*
X195961771Y-117351377D01*
X195961769Y-117351379D01*
X195924434Y-117402766D01*
X195854030Y-117499668D01*
X195770814Y-117662986D01*
X195770813Y-117662989D01*
X195714174Y-117837310D01*
X195699125Y-117932328D01*
X195685500Y-118018352D01*
X195685500Y-118201648D01*
X195698983Y-118286777D01*
X195714174Y-118382689D01*
X195770813Y-118557010D01*
X195770814Y-118557013D01*
X195829498Y-118672185D01*
X195854030Y-118720331D01*
X195961769Y-118868621D01*
X196091379Y-118998231D01*
X196239669Y-119105970D01*
X196319771Y-119146784D01*
X196402986Y-119189185D01*
X196402989Y-119189186D01*
X196490149Y-119217505D01*
X196577312Y-119245826D01*
X196637307Y-119255328D01*
X196651188Y-119257527D01*
X196714323Y-119287456D01*
X196751254Y-119346768D01*
X196750256Y-119416630D01*
X196711646Y-119474863D01*
X196651188Y-119502473D01*
X196577310Y-119514174D01*
X196402989Y-119570813D01*
X196402986Y-119570814D01*
X196239668Y-119654030D01*
X196155063Y-119715499D01*
X196091379Y-119761769D01*
X196091377Y-119761771D01*
X196091376Y-119761771D01*
X195961771Y-119891376D01*
X195961771Y-119891377D01*
X195961769Y-119891379D01*
X195956658Y-119898414D01*
X195854030Y-120039668D01*
X195770814Y-120202986D01*
X195770813Y-120202989D01*
X195714174Y-120377310D01*
X195688484Y-120539514D01*
X195685500Y-120558352D01*
X195685500Y-120741648D01*
X195687819Y-120756287D01*
X195714174Y-120922689D01*
X195770813Y-121097010D01*
X195770814Y-121097013D01*
X195829498Y-121212185D01*
X195854030Y-121260331D01*
X195961769Y-121408621D01*
X196091379Y-121538231D01*
X196239669Y-121645970D01*
X196306670Y-121680109D01*
X196402986Y-121729185D01*
X196402989Y-121729186D01*
X196490149Y-121757505D01*
X196577312Y-121785826D01*
X196758352Y-121814500D01*
X196758353Y-121814500D01*
X196941647Y-121814500D01*
X196941648Y-121814500D01*
X197122688Y-121785826D01*
X197297013Y-121729185D01*
X197460331Y-121645970D01*
X197608621Y-121538231D01*
X197738231Y-121408621D01*
X197845970Y-121260331D01*
X197929185Y-121097013D01*
X197985826Y-120922688D01*
X198014500Y-120741648D01*
X198014500Y-120558352D01*
X197985826Y-120377312D01*
X197935244Y-120221635D01*
X197929186Y-120202989D01*
X197929185Y-120202986D01*
X197850319Y-120048205D01*
X197845970Y-120039669D01*
X197738231Y-119891379D01*
X197608621Y-119761769D01*
X197460331Y-119654030D01*
X197393340Y-119619896D01*
X197297013Y-119570814D01*
X197297010Y-119570813D01*
X197122689Y-119514174D01*
X197048811Y-119502473D01*
X196985677Y-119472544D01*
X196948745Y-119413233D01*
X196949743Y-119343370D01*
X196988353Y-119285137D01*
X197048811Y-119257527D01*
X197122688Y-119245826D01*
X197297013Y-119189185D01*
X197460331Y-119105970D01*
X197608621Y-118998231D01*
X197738231Y-118868621D01*
X197845970Y-118720331D01*
X197929185Y-118557013D01*
X197985826Y-118382688D01*
X198014500Y-118201648D01*
X198014500Y-118018352D01*
X197985826Y-117837312D01*
X197929185Y-117662987D01*
X197929185Y-117662986D01*
X197870369Y-117547554D01*
X197845970Y-117499669D01*
X197738231Y-117351379D01*
X197608621Y-117221769D01*
X197460331Y-117114030D01*
X197297013Y-117030814D01*
X197297010Y-117030813D01*
X197122689Y-116974174D01*
X197048811Y-116962473D01*
X196985677Y-116932544D01*
X196948745Y-116873233D01*
X196949743Y-116803370D01*
X196988353Y-116745137D01*
X197048811Y-116717527D01*
X197122688Y-116705826D01*
X197297013Y-116649185D01*
X197460331Y-116565970D01*
X197608621Y-116458231D01*
X197738231Y-116328621D01*
X197845970Y-116180331D01*
X197929185Y-116017013D01*
X197985826Y-115842688D01*
X198014500Y-115661648D01*
X198014500Y-115478352D01*
X197985826Y-115297312D01*
X197929185Y-115122987D01*
X197929185Y-115122986D01*
X197845969Y-114959668D01*
X197843470Y-114956228D01*
X197738231Y-114811379D01*
X197608621Y-114681769D01*
X197460331Y-114574030D01*
X197297013Y-114490814D01*
X197297010Y-114490813D01*
X197122689Y-114434174D01*
X197048811Y-114422473D01*
X196985677Y-114392544D01*
X196948745Y-114333233D01*
X196949743Y-114263370D01*
X196988353Y-114205137D01*
X197048811Y-114177527D01*
X197122688Y-114165826D01*
X197297013Y-114109185D01*
X197460331Y-114025970D01*
X197608621Y-113918231D01*
X197738231Y-113788621D01*
X197845970Y-113640331D01*
X197929185Y-113477013D01*
X197985826Y-113302688D01*
X198014500Y-113121648D01*
X198014500Y-112938352D01*
X197985826Y-112757312D01*
X197929185Y-112582987D01*
X197929185Y-112582986D01*
X197845969Y-112419668D01*
X197738231Y-112271379D01*
X197608621Y-112141769D01*
X197460331Y-112034030D01*
X197297013Y-111950814D01*
X197297010Y-111950813D01*
X197122689Y-111894174D01*
X197048811Y-111882473D01*
X196985677Y-111852544D01*
X196948745Y-111793233D01*
X196949743Y-111723370D01*
X196988353Y-111665137D01*
X197048811Y-111637527D01*
X197122688Y-111625826D01*
X197297013Y-111569185D01*
X197460331Y-111485970D01*
X197608621Y-111378231D01*
X197738231Y-111248621D01*
X197815976Y-111141613D01*
X197871306Y-111098949D01*
X197916294Y-111090500D01*
X199089903Y-111090500D01*
X199156942Y-111110185D01*
X199177584Y-111126819D01*
X201866241Y-113815476D01*
X201899726Y-113876799D01*
X201896492Y-113941473D01*
X201882753Y-113983757D01*
X201853917Y-114165825D01*
X201849500Y-114193713D01*
X201849500Y-114406287D01*
X201882754Y-114616243D01*
X201946157Y-114811377D01*
X201948444Y-114818414D01*
X202044951Y-115007820D01*
X202169890Y-115179786D01*
X202283430Y-115293326D01*
X202316915Y-115354649D01*
X202311931Y-115424341D01*
X202270059Y-115480274D01*
X202239083Y-115497189D01*
X202107669Y-115546203D01*
X202107664Y-115546206D01*
X201992455Y-115632452D01*
X201992452Y-115632455D01*
X201906206Y-115747664D01*
X201906202Y-115747671D01*
X201855908Y-115882517D01*
X201849501Y-115942116D01*
X201849501Y-115942123D01*
X201849500Y-115942135D01*
X201849500Y-117737870D01*
X201849501Y-117737876D01*
X201855908Y-117797483D01*
X201906202Y-117932328D01*
X201906206Y-117932335D01*
X201992452Y-118047544D01*
X201992455Y-118047547D01*
X202107664Y-118133793D01*
X202107671Y-118133797D01*
X202242517Y-118184091D01*
X202242516Y-118184091D01*
X202249444Y-118184835D01*
X202302127Y-118190500D01*
X204097872Y-118190499D01*
X204157483Y-118184091D01*
X204292331Y-118133796D01*
X204407546Y-118047546D01*
X204493796Y-117932331D01*
X204544091Y-117797483D01*
X204550500Y-117737873D01*
X204550499Y-115942128D01*
X204544091Y-115882517D01*
X204499511Y-115762993D01*
X204493797Y-115747671D01*
X204493793Y-115747664D01*
X204407547Y-115632455D01*
X204407544Y-115632452D01*
X204292335Y-115546206D01*
X204292328Y-115546202D01*
X204160917Y-115497189D01*
X204104983Y-115455318D01*
X204080566Y-115389853D01*
X204095418Y-115321580D01*
X204116563Y-115293332D01*
X204230104Y-115179792D01*
X204355051Y-115007816D01*
X204451557Y-114818412D01*
X204517246Y-114616243D01*
X204550500Y-114406287D01*
X204550500Y-114193713D01*
X204517246Y-113983757D01*
X204451557Y-113781588D01*
X204355051Y-113592184D01*
X204355049Y-113592181D01*
X204355048Y-113592179D01*
X204230109Y-113420213D01*
X204079786Y-113269890D01*
X203907820Y-113144951D01*
X203907115Y-113144591D01*
X203899054Y-113140485D01*
X203848259Y-113092512D01*
X203831463Y-113024692D01*
X203853999Y-112958556D01*
X203899054Y-112919515D01*
X203907816Y-112915051D01*
X203929789Y-112899086D01*
X204079786Y-112790109D01*
X204079788Y-112790106D01*
X204079792Y-112790104D01*
X204230104Y-112639792D01*
X204230106Y-112639788D01*
X204230109Y-112639786D01*
X204355048Y-112467820D01*
X204355047Y-112467820D01*
X204355051Y-112467816D01*
X204451557Y-112278412D01*
X204517246Y-112076243D01*
X204550500Y-111866287D01*
X204550500Y-111653713D01*
X204517246Y-111443757D01*
X204451557Y-111241588D01*
X204355051Y-111052184D01*
X204355049Y-111052181D01*
X204355048Y-111052179D01*
X204230109Y-110880213D01*
X204079786Y-110729890D01*
X203907820Y-110604951D01*
X203907115Y-110604591D01*
X203899054Y-110600485D01*
X203848259Y-110552512D01*
X203831463Y-110484692D01*
X203853999Y-110418556D01*
X203899054Y-110379515D01*
X203907816Y-110375051D01*
X203929789Y-110359086D01*
X204079786Y-110250109D01*
X204079788Y-110250106D01*
X204079792Y-110250104D01*
X204230104Y-110099792D01*
X204230106Y-110099788D01*
X204230109Y-110099786D01*
X204355048Y-109927820D01*
X204355047Y-109927820D01*
X204355051Y-109927816D01*
X204451557Y-109738412D01*
X204517246Y-109536243D01*
X204550500Y-109326287D01*
X204550500Y-109113713D01*
X204517246Y-108903757D01*
X204451557Y-108701588D01*
X204355051Y-108512184D01*
X204355049Y-108512181D01*
X204355048Y-108512179D01*
X204230109Y-108340213D01*
X204079786Y-108189890D01*
X203907820Y-108064951D01*
X203907115Y-108064591D01*
X203899054Y-108060485D01*
X203848259Y-108012512D01*
X203831463Y-107944692D01*
X203853999Y-107878556D01*
X203899054Y-107839515D01*
X203907816Y-107835051D01*
X203994138Y-107772335D01*
X204079786Y-107710109D01*
X204079788Y-107710106D01*
X204079792Y-107710104D01*
X204230104Y-107559792D01*
X204230106Y-107559788D01*
X204230109Y-107559786D01*
X204355048Y-107387820D01*
X204355047Y-107387820D01*
X204355051Y-107387816D01*
X204451557Y-107198412D01*
X204517246Y-106996243D01*
X204550500Y-106786287D01*
X204550500Y-106573713D01*
X204517246Y-106363757D01*
X204451557Y-106161588D01*
X204355051Y-105972184D01*
X204355049Y-105972181D01*
X204355048Y-105972179D01*
X204230109Y-105800213D01*
X204079786Y-105649890D01*
X203907820Y-105524951D01*
X203718414Y-105428444D01*
X203718413Y-105428443D01*
X203718412Y-105428443D01*
X203516243Y-105362754D01*
X203516241Y-105362753D01*
X203516240Y-105362753D01*
X203354957Y-105337208D01*
X203306287Y-105329500D01*
X203093713Y-105329500D01*
X203084590Y-105330945D01*
X202883757Y-105362753D01*
X202841473Y-105376492D01*
X202771632Y-105378486D01*
X202715476Y-105346241D01*
X199877590Y-102508355D01*
X199877588Y-102508352D01*
X199758717Y-102389481D01*
X199758716Y-102389480D01*
X199671904Y-102339360D01*
X199671904Y-102339359D01*
X199671900Y-102339358D01*
X199621785Y-102310423D01*
X199469057Y-102269499D01*
X199310943Y-102269499D01*
X199303347Y-102269499D01*
X199303331Y-102269500D01*
X197916294Y-102269500D01*
X197849255Y-102249815D01*
X197815976Y-102218386D01*
X197738231Y-102111379D01*
X197608621Y-101981769D01*
X197460331Y-101874030D01*
X197297013Y-101790814D01*
X197297010Y-101790813D01*
X197122689Y-101734174D01*
X197032168Y-101719837D01*
X196941648Y-101705500D01*
X196758352Y-101705500D01*
X196698005Y-101715058D01*
X196577310Y-101734174D01*
X196402989Y-101790813D01*
X196402986Y-101790814D01*
X196239668Y-101874030D01*
X196155063Y-101935499D01*
X196091379Y-101981769D01*
X196091377Y-101981771D01*
X196091376Y-101981771D01*
X195961771Y-102111376D01*
X195961771Y-102111377D01*
X195961769Y-102111379D01*
X195927805Y-102158127D01*
X195854030Y-102259668D01*
X195770814Y-102422986D01*
X195770813Y-102422989D01*
X195714174Y-102597310D01*
X195685500Y-102778352D01*
X190394499Y-102778352D01*
X190394499Y-102158128D01*
X190388091Y-102098517D01*
X190337796Y-101963669D01*
X190337795Y-101963668D01*
X190337793Y-101963664D01*
X190251547Y-101848455D01*
X190251544Y-101848452D01*
X190136335Y-101762206D01*
X190136328Y-101762202D01*
X190001482Y-101711908D01*
X190001483Y-101711908D01*
X189941883Y-101705501D01*
X189941881Y-101705500D01*
X189941873Y-101705500D01*
X189941864Y-101705500D01*
X188518129Y-101705500D01*
X188518123Y-101705501D01*
X188458516Y-101711908D01*
X188323671Y-101762202D01*
X188323664Y-101762206D01*
X188208455Y-101848452D01*
X188208452Y-101848455D01*
X188122206Y-101963664D01*
X188122202Y-101963671D01*
X188071908Y-102098516D01*
X188065432Y-102158756D01*
X188038694Y-102223307D01*
X187981301Y-102263155D01*
X187942143Y-102269500D01*
X161376670Y-102269500D01*
X161376654Y-102269499D01*
X161369058Y-102269499D01*
X161210943Y-102269499D01*
X161134579Y-102289961D01*
X161058214Y-102310423D01*
X161058209Y-102310426D01*
X160921290Y-102389475D01*
X160921282Y-102389481D01*
X157964522Y-105346241D01*
X157903199Y-105379726D01*
X157838523Y-105376491D01*
X157796245Y-105362754D01*
X157656272Y-105340584D01*
X157586287Y-105329500D01*
X157373713Y-105329500D01*
X157325042Y-105337208D01*
X157163760Y-105362753D01*
X156961585Y-105428444D01*
X156772179Y-105524951D01*
X156600213Y-105649890D01*
X156449890Y-105800213D01*
X156324949Y-105972182D01*
X156320484Y-105980946D01*
X156272509Y-106031742D01*
X156204688Y-106048536D01*
X156138553Y-106025998D01*
X156099516Y-105980946D01*
X156095050Y-105972182D01*
X155970109Y-105800213D01*
X155819786Y-105649890D01*
X155647820Y-105524951D01*
X155458414Y-105428444D01*
X155458413Y-105428443D01*
X155458412Y-105428443D01*
X155256243Y-105362754D01*
X155256241Y-105362753D01*
X155256240Y-105362753D01*
X155094957Y-105337208D01*
X155046287Y-105329500D01*
X154833713Y-105329500D01*
X154785042Y-105337208D01*
X154623760Y-105362753D01*
X154421585Y-105428444D01*
X154232179Y-105524951D01*
X154060213Y-105649890D01*
X153909890Y-105800213D01*
X153784949Y-105972182D01*
X153780484Y-105980946D01*
X153732509Y-106031742D01*
X153664688Y-106048536D01*
X153598553Y-106025998D01*
X153559516Y-105980946D01*
X153555050Y-105972182D01*
X153430109Y-105800213D01*
X153279786Y-105649890D01*
X153107820Y-105524951D01*
X152918414Y-105428444D01*
X152918413Y-105428443D01*
X152918412Y-105428443D01*
X152716243Y-105362754D01*
X152716241Y-105362753D01*
X152716240Y-105362753D01*
X152554957Y-105337208D01*
X152506287Y-105329500D01*
X152293713Y-105329500D01*
X152245042Y-105337208D01*
X152083760Y-105362753D01*
X151881585Y-105428444D01*
X151692179Y-105524951D01*
X151520213Y-105649890D01*
X151369890Y-105800213D01*
X151244949Y-105972182D01*
X151240484Y-105980946D01*
X151192509Y-106031742D01*
X151124688Y-106048536D01*
X151058553Y-106025998D01*
X151019516Y-105980946D01*
X151015050Y-105972182D01*
X150890109Y-105800213D01*
X150739786Y-105649890D01*
X150567820Y-105524951D01*
X150378414Y-105428444D01*
X150378413Y-105428443D01*
X150378412Y-105428443D01*
X150176243Y-105362754D01*
X150176241Y-105362753D01*
X150176240Y-105362753D01*
X150014957Y-105337208D01*
X149966287Y-105329500D01*
X149753713Y-105329500D01*
X149705042Y-105337208D01*
X149543760Y-105362753D01*
X149341585Y-105428444D01*
X149152179Y-105524951D01*
X148980213Y-105649890D01*
X148829890Y-105800213D01*
X148704949Y-105972182D01*
X148700484Y-105980946D01*
X148652509Y-106031742D01*
X148584688Y-106048536D01*
X148518553Y-106025998D01*
X148479516Y-105980946D01*
X148475050Y-105972182D01*
X148350109Y-105800213D01*
X148199786Y-105649890D01*
X148027820Y-105524951D01*
X147838414Y-105428444D01*
X147838413Y-105428443D01*
X147838412Y-105428443D01*
X147636243Y-105362754D01*
X147636241Y-105362753D01*
X147636240Y-105362753D01*
X147474957Y-105337208D01*
X147426287Y-105329500D01*
X147213713Y-105329500D01*
X147165042Y-105337208D01*
X147003760Y-105362753D01*
X146801585Y-105428444D01*
X146612179Y-105524951D01*
X146440213Y-105649890D01*
X146289890Y-105800213D01*
X146164949Y-105972182D01*
X146160484Y-105980946D01*
X146112509Y-106031742D01*
X146044688Y-106048536D01*
X145978553Y-106025998D01*
X145939516Y-105980946D01*
X145935050Y-105972182D01*
X145810109Y-105800213D01*
X145659786Y-105649890D01*
X145487820Y-105524951D01*
X145298414Y-105428444D01*
X145298413Y-105428443D01*
X145298412Y-105428443D01*
X145096243Y-105362754D01*
X145096241Y-105362753D01*
X145096240Y-105362753D01*
X144934957Y-105337208D01*
X144886287Y-105329500D01*
X144673713Y-105329500D01*
X144625042Y-105337208D01*
X144463760Y-105362753D01*
X144261585Y-105428444D01*
X144072179Y-105524951D01*
X143900213Y-105649890D01*
X143749890Y-105800213D01*
X143624949Y-105972182D01*
X143620484Y-105980946D01*
X143572509Y-106031742D01*
X143504688Y-106048536D01*
X143438553Y-106025998D01*
X143399516Y-105980946D01*
X143395050Y-105972182D01*
X143270109Y-105800213D01*
X143119786Y-105649890D01*
X142947820Y-105524951D01*
X142758414Y-105428444D01*
X142758413Y-105428443D01*
X142758412Y-105428443D01*
X142556243Y-105362754D01*
X142556241Y-105362753D01*
X142556240Y-105362753D01*
X142394957Y-105337208D01*
X142346287Y-105329500D01*
X142133713Y-105329500D01*
X142085042Y-105337208D01*
X141923760Y-105362753D01*
X141721585Y-105428444D01*
X141532179Y-105524951D01*
X141360215Y-105649889D01*
X141246673Y-105763431D01*
X141185350Y-105796915D01*
X141115658Y-105791931D01*
X141059725Y-105750059D01*
X141042810Y-105719082D01*
X140993797Y-105587671D01*
X140993793Y-105587664D01*
X140907547Y-105472455D01*
X140907544Y-105472452D01*
X140792335Y-105386206D01*
X140792328Y-105386202D01*
X140657482Y-105335908D01*
X140657483Y-105335908D01*
X140597883Y-105329501D01*
X140597881Y-105329500D01*
X140597873Y-105329500D01*
X140597864Y-105329500D01*
X138802129Y-105329500D01*
X138802123Y-105329501D01*
X138742516Y-105335908D01*
X138607671Y-105386202D01*
X138607664Y-105386206D01*
X138492455Y-105472452D01*
X138492452Y-105472455D01*
X138406206Y-105587664D01*
X138406202Y-105587671D01*
X138355908Y-105722517D01*
X138349501Y-105782116D01*
X138349500Y-105782135D01*
X137760500Y-105782135D01*
X137760500Y-105710096D01*
X137780185Y-105643057D01*
X137796814Y-105622419D01*
X138798713Y-104620521D01*
X138798716Y-104620520D01*
X138910520Y-104508716D01*
X138960639Y-104421904D01*
X138989577Y-104371785D01*
X139030500Y-104219058D01*
X139030500Y-104060943D01*
X139030500Y-97647682D01*
X189200000Y-97647682D01*
X189200000Y-97852317D01*
X189232009Y-98054417D01*
X189295244Y-98249031D01*
X189388141Y-98431350D01*
X189388147Y-98431359D01*
X189420523Y-98475921D01*
X189420524Y-98475922D01*
X190100000Y-97796446D01*
X190100000Y-97802661D01*
X190127259Y-97904394D01*
X190179920Y-97995606D01*
X190254394Y-98070080D01*
X190345606Y-98122741D01*
X190447339Y-98150000D01*
X190453553Y-98150000D01*
X189774076Y-98829474D01*
X189818650Y-98861859D01*
X190000968Y-98954755D01*
X190195582Y-99017990D01*
X190397683Y-99050000D01*
X190602317Y-99050000D01*
X190804417Y-99017990D01*
X190999031Y-98954755D01*
X191181349Y-98861859D01*
X191225921Y-98829474D01*
X190546447Y-98150000D01*
X190552661Y-98150000D01*
X190654394Y-98122741D01*
X190745606Y-98070080D01*
X190820080Y-97995606D01*
X190872741Y-97904394D01*
X190900000Y-97802661D01*
X190900000Y-97796448D01*
X191579474Y-98475922D01*
X191579474Y-98475921D01*
X191611859Y-98431349D01*
X191704755Y-98249031D01*
X191767990Y-98054417D01*
X191800000Y-97852317D01*
X191800000Y-97647682D01*
X191767990Y-97445582D01*
X191704755Y-97250968D01*
X191611859Y-97068650D01*
X191579474Y-97024077D01*
X191579474Y-97024076D01*
X190900000Y-97703551D01*
X190900000Y-97697339D01*
X190872741Y-97595606D01*
X190820080Y-97504394D01*
X190745606Y-97429920D01*
X190654394Y-97377259D01*
X190552661Y-97350000D01*
X190546446Y-97350000D01*
X191225922Y-96670524D01*
X191225921Y-96670523D01*
X191181359Y-96638147D01*
X191181350Y-96638141D01*
X190999031Y-96545244D01*
X190804417Y-96482009D01*
X190602317Y-96450000D01*
X190397683Y-96450000D01*
X190195582Y-96482009D01*
X190000968Y-96545244D01*
X189818644Y-96638143D01*
X189774077Y-96670523D01*
X189774077Y-96670524D01*
X190453554Y-97350000D01*
X190447339Y-97350000D01*
X190345606Y-97377259D01*
X190254394Y-97429920D01*
X190179920Y-97504394D01*
X190127259Y-97595606D01*
X190100000Y-97697339D01*
X190100000Y-97703553D01*
X189420524Y-97024077D01*
X189420523Y-97024077D01*
X189388143Y-97068644D01*
X189295244Y-97250968D01*
X189232009Y-97445582D01*
X189200000Y-97647682D01*
X139030500Y-97647682D01*
X139030500Y-92647648D01*
X189199500Y-92647648D01*
X189199500Y-92852351D01*
X189231522Y-93054534D01*
X189294781Y-93249223D01*
X189358691Y-93374653D01*
X189378128Y-93412799D01*
X189387715Y-93431613D01*
X189508028Y-93597213D01*
X189652786Y-93741971D01*
X189805208Y-93852710D01*
X189818390Y-93862287D01*
X189934607Y-93921503D01*
X190000776Y-93955218D01*
X190000778Y-93955218D01*
X190000781Y-93955220D01*
X190105137Y-93989127D01*
X190195465Y-94018477D01*
X190232489Y-94024341D01*
X190397648Y-94050500D01*
X190397649Y-94050500D01*
X190602351Y-94050500D01*
X190602352Y-94050500D01*
X190804534Y-94018477D01*
X190999219Y-93955220D01*
X191181610Y-93862287D01*
X191274590Y-93794732D01*
X191347213Y-93741971D01*
X191347215Y-93741968D01*
X191347219Y-93741966D01*
X191491966Y-93597219D01*
X191491968Y-93597215D01*
X191491971Y-93597213D01*
X191544732Y-93524590D01*
X191612287Y-93431610D01*
X191705220Y-93249219D01*
X191768477Y-93054534D01*
X191800500Y-92852352D01*
X191800500Y-92647648D01*
X191768477Y-92445466D01*
X191705220Y-92250781D01*
X191705218Y-92250778D01*
X191705218Y-92250776D01*
X191660559Y-92163129D01*
X191633484Y-92109992D01*
X191633479Y-92109983D01*
X196819500Y-92109983D01*
X196819500Y-93310001D01*
X196819501Y-93310018D01*
X196830000Y-93412796D01*
X196830001Y-93412799D01*
X196885185Y-93579331D01*
X196885186Y-93579334D01*
X196977288Y-93728656D01*
X197101344Y-93852712D01*
X197250666Y-93944814D01*
X197312440Y-93965284D01*
X197369884Y-94005055D01*
X197396707Y-94069571D01*
X197397053Y-94092719D01*
X197394077Y-94130524D01*
X198073554Y-94810000D01*
X198067339Y-94810000D01*
X197965606Y-94837259D01*
X197874394Y-94889920D01*
X197799920Y-94964394D01*
X197747259Y-95055606D01*
X197720000Y-95157339D01*
X197720000Y-95163553D01*
X197040524Y-94484077D01*
X197040523Y-94484077D01*
X197008143Y-94528644D01*
X196915244Y-94710968D01*
X196852009Y-94905582D01*
X196820000Y-95107682D01*
X196820000Y-95312317D01*
X196852009Y-95514417D01*
X196915244Y-95709031D01*
X197008141Y-95891350D01*
X197008147Y-95891359D01*
X197040523Y-95935921D01*
X197040524Y-95935922D01*
X197720000Y-95256446D01*
X197720000Y-95262661D01*
X197747259Y-95364394D01*
X197799920Y-95455606D01*
X197874394Y-95530080D01*
X197965606Y-95582741D01*
X198067339Y-95610000D01*
X198073553Y-95610000D01*
X197394076Y-96289474D01*
X197438650Y-96321859D01*
X197620968Y-96414755D01*
X197815582Y-96477990D01*
X198017683Y-96510000D01*
X198222317Y-96510000D01*
X198424417Y-96477990D01*
X198619031Y-96414755D01*
X198801349Y-96321859D01*
X198845921Y-96289474D01*
X198166447Y-95610000D01*
X198172661Y-95610000D01*
X198274394Y-95582741D01*
X198365606Y-95530080D01*
X198440080Y-95455606D01*
X198492741Y-95364394D01*
X198520000Y-95262661D01*
X198520000Y-95256448D01*
X199199474Y-95935922D01*
X199199474Y-95935921D01*
X199231859Y-95891349D01*
X199324755Y-95709031D01*
X199387990Y-95514417D01*
X199420000Y-95312317D01*
X199420000Y-95107682D01*
X199387990Y-94905582D01*
X199324755Y-94710968D01*
X199231859Y-94528650D01*
X199199474Y-94484077D01*
X199199474Y-94484076D01*
X198520000Y-95163551D01*
X198520000Y-95157339D01*
X198492741Y-95055606D01*
X198440080Y-94964394D01*
X198365606Y-94889920D01*
X198274394Y-94837259D01*
X198172661Y-94810000D01*
X198166446Y-94810000D01*
X198845921Y-94130525D01*
X198842946Y-94092719D01*
X198857310Y-94024341D01*
X198906361Y-93974584D01*
X198927555Y-93965285D01*
X198989334Y-93944814D01*
X199138656Y-93852712D01*
X199262712Y-93728656D01*
X199354814Y-93579334D01*
X199409999Y-93412797D01*
X199420500Y-93310009D01*
X199420499Y-92109992D01*
X199409999Y-92007203D01*
X199354814Y-91840666D01*
X199262712Y-91691344D01*
X199138656Y-91567288D01*
X198999608Y-91481523D01*
X198989336Y-91475187D01*
X198989331Y-91475185D01*
X198987862Y-91474698D01*
X198822797Y-91420001D01*
X198822795Y-91420000D01*
X198720010Y-91409500D01*
X197519998Y-91409500D01*
X197519981Y-91409501D01*
X197417203Y-91420000D01*
X197417200Y-91420001D01*
X197250668Y-91475185D01*
X197250663Y-91475187D01*
X197101342Y-91567289D01*
X196977289Y-91691342D01*
X196885187Y-91840663D01*
X196885186Y-91840666D01*
X196830001Y-92007203D01*
X196830001Y-92007204D01*
X196830000Y-92007204D01*
X196819500Y-92109983D01*
X191633479Y-92109983D01*
X191612287Y-92068390D01*
X191604556Y-92057749D01*
X191491971Y-91902786D01*
X191347213Y-91758028D01*
X191181613Y-91637715D01*
X191181612Y-91637714D01*
X191181610Y-91637713D01*
X191124653Y-91608691D01*
X190999223Y-91544781D01*
X190804534Y-91481522D01*
X190629995Y-91453878D01*
X190602352Y-91449500D01*
X190397648Y-91449500D01*
X190373329Y-91453351D01*
X190195465Y-91481522D01*
X190000776Y-91544781D01*
X189818386Y-91637715D01*
X189652786Y-91758028D01*
X189508028Y-91902786D01*
X189387715Y-92068386D01*
X189294781Y-92250776D01*
X189231522Y-92445465D01*
X189199500Y-92647648D01*
X139030500Y-92647648D01*
X139030500Y-87550943D01*
X138989577Y-87398216D01*
X138989577Y-87398215D01*
X138989577Y-87398214D01*
X138960639Y-87348095D01*
X138960637Y-87348092D01*
X138910520Y-87261284D01*
X138798716Y-87149480D01*
X138798715Y-87149479D01*
X138794385Y-87145149D01*
X138794374Y-87145139D01*
X137796819Y-86147584D01*
X137763334Y-86086261D01*
X137760500Y-86059903D01*
X137760500Y-84192135D01*
X138349500Y-84192135D01*
X138349500Y-85987870D01*
X138349501Y-85987876D01*
X138355908Y-86047483D01*
X138406202Y-86182328D01*
X138406206Y-86182335D01*
X138492452Y-86297544D01*
X138492455Y-86297547D01*
X138607664Y-86383793D01*
X138607671Y-86383797D01*
X138742517Y-86434091D01*
X138742516Y-86434091D01*
X138749444Y-86434835D01*
X138802127Y-86440500D01*
X140597872Y-86440499D01*
X140657483Y-86434091D01*
X140792331Y-86383796D01*
X140907546Y-86297546D01*
X140993796Y-86182331D01*
X141042810Y-86050916D01*
X141084681Y-85994984D01*
X141150145Y-85970566D01*
X141218418Y-85985417D01*
X141246673Y-86006569D01*
X141360213Y-86120109D01*
X141532179Y-86245048D01*
X141532181Y-86245049D01*
X141532184Y-86245051D01*
X141721588Y-86341557D01*
X141923757Y-86407246D01*
X142133713Y-86440500D01*
X142133714Y-86440500D01*
X142346286Y-86440500D01*
X142346287Y-86440500D01*
X142556243Y-86407246D01*
X142758412Y-86341557D01*
X142947816Y-86245051D01*
X143034138Y-86182335D01*
X143119786Y-86120109D01*
X143119788Y-86120106D01*
X143119792Y-86120104D01*
X143270104Y-85969792D01*
X143270106Y-85969788D01*
X143270109Y-85969786D01*
X143337515Y-85877007D01*
X143395051Y-85797816D01*
X143399793Y-85788508D01*
X143447763Y-85737711D01*
X143515583Y-85720911D01*
X143581719Y-85743445D01*
X143620763Y-85788500D01*
X143625373Y-85797547D01*
X143664728Y-85851716D01*
X144297037Y-85219408D01*
X144314075Y-85282993D01*
X144379901Y-85397007D01*
X144472993Y-85490099D01*
X144587007Y-85555925D01*
X144650590Y-85572962D01*
X144018282Y-86205269D01*
X144018282Y-86205270D01*
X144072449Y-86244624D01*
X144261782Y-86341095D01*
X144463870Y-86406757D01*
X144673754Y-86440000D01*
X144886246Y-86440000D01*
X145096127Y-86406757D01*
X145096130Y-86406757D01*
X145298217Y-86341095D01*
X145487554Y-86244622D01*
X145541716Y-86205270D01*
X145541717Y-86205270D01*
X144909408Y-85572962D01*
X144972993Y-85555925D01*
X145087007Y-85490099D01*
X145180099Y-85397007D01*
X145245925Y-85282993D01*
X145262962Y-85219408D01*
X145895270Y-85851717D01*
X145895270Y-85851716D01*
X145934622Y-85797555D01*
X145939232Y-85788507D01*
X145987205Y-85737709D01*
X146055025Y-85720912D01*
X146121161Y-85743447D01*
X146160204Y-85788504D01*
X146164949Y-85797817D01*
X146289890Y-85969786D01*
X146440213Y-86120109D01*
X146612179Y-86245048D01*
X146612181Y-86245049D01*
X146612184Y-86245051D01*
X146801588Y-86341557D01*
X147003757Y-86407246D01*
X147213713Y-86440500D01*
X147213714Y-86440500D01*
X147426286Y-86440500D01*
X147426287Y-86440500D01*
X147636243Y-86407246D01*
X147838412Y-86341557D01*
X148027816Y-86245051D01*
X148114138Y-86182335D01*
X148199786Y-86120109D01*
X148199788Y-86120106D01*
X148199792Y-86120104D01*
X148350104Y-85969792D01*
X148350106Y-85969788D01*
X148350109Y-85969786D01*
X148475048Y-85797820D01*
X148475047Y-85797820D01*
X148475051Y-85797816D01*
X148479514Y-85789054D01*
X148527488Y-85738259D01*
X148595308Y-85721463D01*
X148661444Y-85743999D01*
X148700486Y-85789056D01*
X148704951Y-85797820D01*
X148829890Y-85969786D01*
X148980213Y-86120109D01*
X149152179Y-86245048D01*
X149152181Y-86245049D01*
X149152184Y-86245051D01*
X149341588Y-86341557D01*
X149543757Y-86407246D01*
X149753713Y-86440500D01*
X149753714Y-86440500D01*
X149966286Y-86440500D01*
X149966287Y-86440500D01*
X150176243Y-86407246D01*
X150378412Y-86341557D01*
X150567816Y-86245051D01*
X150654138Y-86182335D01*
X150739786Y-86120109D01*
X150739788Y-86120106D01*
X150739792Y-86120104D01*
X150890104Y-85969792D01*
X150890106Y-85969788D01*
X150890109Y-85969786D01*
X151015048Y-85797820D01*
X151015047Y-85797820D01*
X151015051Y-85797816D01*
X151019514Y-85789054D01*
X151067488Y-85738259D01*
X151135308Y-85721463D01*
X151201444Y-85743999D01*
X151240486Y-85789056D01*
X151244951Y-85797820D01*
X151369890Y-85969786D01*
X151520213Y-86120109D01*
X151692179Y-86245048D01*
X151692181Y-86245049D01*
X151692184Y-86245051D01*
X151881588Y-86341557D01*
X152083757Y-86407246D01*
X152293713Y-86440500D01*
X152293714Y-86440500D01*
X152506286Y-86440500D01*
X152506287Y-86440500D01*
X152716243Y-86407246D01*
X152918412Y-86341557D01*
X153107816Y-86245051D01*
X153194138Y-86182335D01*
X153279786Y-86120109D01*
X153279788Y-86120106D01*
X153279792Y-86120104D01*
X153430104Y-85969792D01*
X153430106Y-85969788D01*
X153430109Y-85969786D01*
X153555048Y-85797820D01*
X153555047Y-85797820D01*
X153555051Y-85797816D01*
X153559514Y-85789054D01*
X153607488Y-85738259D01*
X153675308Y-85721463D01*
X153741444Y-85743999D01*
X153780486Y-85789056D01*
X153784951Y-85797820D01*
X153909890Y-85969786D01*
X154060213Y-86120109D01*
X154232179Y-86245048D01*
X154232181Y-86245049D01*
X154232184Y-86245051D01*
X154421588Y-86341557D01*
X154623757Y-86407246D01*
X154833713Y-86440500D01*
X154833714Y-86440500D01*
X155046286Y-86440500D01*
X155046287Y-86440500D01*
X155256243Y-86407246D01*
X155458412Y-86341557D01*
X155647816Y-86245051D01*
X155734138Y-86182335D01*
X155819786Y-86120109D01*
X155819788Y-86120106D01*
X155819792Y-86120104D01*
X155970104Y-85969792D01*
X155970106Y-85969788D01*
X155970109Y-85969786D01*
X156095048Y-85797820D01*
X156095047Y-85797820D01*
X156095051Y-85797816D01*
X156099514Y-85789054D01*
X156147488Y-85738259D01*
X156215308Y-85721463D01*
X156281444Y-85743999D01*
X156320486Y-85789056D01*
X156324951Y-85797820D01*
X156449890Y-85969786D01*
X156600213Y-86120109D01*
X156772179Y-86245048D01*
X156772181Y-86245049D01*
X156772184Y-86245051D01*
X156961588Y-86341557D01*
X157163757Y-86407246D01*
X157373713Y-86440500D01*
X157373714Y-86440500D01*
X157586286Y-86440500D01*
X157586287Y-86440500D01*
X157796243Y-86407246D01*
X157998412Y-86341557D01*
X158187816Y-86245051D01*
X158274138Y-86182335D01*
X158359786Y-86120109D01*
X158359788Y-86120106D01*
X158359792Y-86120104D01*
X158510104Y-85969792D01*
X158510106Y-85969788D01*
X158510109Y-85969786D01*
X158635048Y-85797820D01*
X158635047Y-85797820D01*
X158635051Y-85797816D01*
X158639514Y-85789054D01*
X158687488Y-85738259D01*
X158755308Y-85721463D01*
X158821444Y-85743999D01*
X158860486Y-85789056D01*
X158864951Y-85797820D01*
X158989890Y-85969786D01*
X159140213Y-86120109D01*
X159312179Y-86245048D01*
X159312181Y-86245049D01*
X159312184Y-86245051D01*
X159501588Y-86341557D01*
X159703757Y-86407246D01*
X159913713Y-86440500D01*
X159913714Y-86440500D01*
X160126286Y-86440500D01*
X160126287Y-86440500D01*
X160336243Y-86407246D01*
X160538412Y-86341557D01*
X160727816Y-86245051D01*
X160814138Y-86182335D01*
X160899786Y-86120109D01*
X160899788Y-86120106D01*
X160899792Y-86120104D01*
X161050104Y-85969792D01*
X161050106Y-85969788D01*
X161050109Y-85969786D01*
X161175048Y-85797820D01*
X161175047Y-85797820D01*
X161175051Y-85797816D01*
X161179514Y-85789054D01*
X161227488Y-85738259D01*
X161295308Y-85721463D01*
X161361444Y-85743999D01*
X161400486Y-85789056D01*
X161404951Y-85797820D01*
X161529890Y-85969786D01*
X161680213Y-86120109D01*
X161852179Y-86245048D01*
X161852181Y-86245049D01*
X161852184Y-86245051D01*
X162041588Y-86341557D01*
X162243757Y-86407246D01*
X162453713Y-86440500D01*
X162453714Y-86440500D01*
X162666286Y-86440500D01*
X162666287Y-86440500D01*
X162876243Y-86407246D01*
X163078412Y-86341557D01*
X163267816Y-86245051D01*
X163354138Y-86182335D01*
X163439786Y-86120109D01*
X163439788Y-86120106D01*
X163439792Y-86120104D01*
X163590104Y-85969792D01*
X163590106Y-85969788D01*
X163590109Y-85969786D01*
X163715048Y-85797820D01*
X163715047Y-85797820D01*
X163715051Y-85797816D01*
X163719514Y-85789054D01*
X163767488Y-85738259D01*
X163835308Y-85721463D01*
X163901444Y-85743999D01*
X163940486Y-85789056D01*
X163944951Y-85797820D01*
X164069890Y-85969786D01*
X164220213Y-86120109D01*
X164392179Y-86245048D01*
X164392181Y-86245049D01*
X164392184Y-86245051D01*
X164581588Y-86341557D01*
X164783757Y-86407246D01*
X164993713Y-86440500D01*
X164993714Y-86440500D01*
X165206286Y-86440500D01*
X165206287Y-86440500D01*
X165416243Y-86407246D01*
X165618412Y-86341557D01*
X165807816Y-86245051D01*
X165894138Y-86182335D01*
X165979786Y-86120109D01*
X165979788Y-86120106D01*
X165979792Y-86120104D01*
X166130104Y-85969792D01*
X166130106Y-85969788D01*
X166130109Y-85969786D01*
X166255048Y-85797820D01*
X166255047Y-85797820D01*
X166255051Y-85797816D01*
X166259514Y-85789054D01*
X166307488Y-85738259D01*
X166375308Y-85721463D01*
X166441444Y-85743999D01*
X166480486Y-85789056D01*
X166484951Y-85797820D01*
X166609890Y-85969786D01*
X166760213Y-86120109D01*
X166932179Y-86245048D01*
X166932181Y-86245049D01*
X166932184Y-86245051D01*
X167121588Y-86341557D01*
X167323757Y-86407246D01*
X167533713Y-86440500D01*
X167533714Y-86440500D01*
X167746286Y-86440500D01*
X167746287Y-86440500D01*
X167956243Y-86407246D01*
X168158412Y-86341557D01*
X168347816Y-86245051D01*
X168434138Y-86182335D01*
X168519786Y-86120109D01*
X168519788Y-86120106D01*
X168519792Y-86120104D01*
X168670104Y-85969792D01*
X168670106Y-85969788D01*
X168670109Y-85969786D01*
X168795048Y-85797820D01*
X168795047Y-85797820D01*
X168795051Y-85797816D01*
X168799514Y-85789054D01*
X168847488Y-85738259D01*
X168915308Y-85721463D01*
X168981444Y-85743999D01*
X169020486Y-85789056D01*
X169024951Y-85797820D01*
X169149890Y-85969786D01*
X169300213Y-86120109D01*
X169472179Y-86245048D01*
X169472181Y-86245049D01*
X169472184Y-86245051D01*
X169661588Y-86341557D01*
X169863757Y-86407246D01*
X170073713Y-86440500D01*
X170073714Y-86440500D01*
X170286286Y-86440500D01*
X170286287Y-86440500D01*
X170496243Y-86407246D01*
X170698412Y-86341557D01*
X170887816Y-86245051D01*
X170974138Y-86182335D01*
X171059786Y-86120109D01*
X171059788Y-86120106D01*
X171059792Y-86120104D01*
X171210104Y-85969792D01*
X171210106Y-85969788D01*
X171210109Y-85969786D01*
X171335048Y-85797820D01*
X171335047Y-85797820D01*
X171335051Y-85797816D01*
X171339514Y-85789054D01*
X171387488Y-85738259D01*
X171455308Y-85721463D01*
X171521444Y-85743999D01*
X171560486Y-85789056D01*
X171564951Y-85797820D01*
X171689890Y-85969786D01*
X171840213Y-86120109D01*
X172012179Y-86245048D01*
X172012181Y-86245049D01*
X172012184Y-86245051D01*
X172201588Y-86341557D01*
X172403757Y-86407246D01*
X172613713Y-86440500D01*
X172613714Y-86440500D01*
X172826286Y-86440500D01*
X172826287Y-86440500D01*
X173036243Y-86407246D01*
X173238412Y-86341557D01*
X173427816Y-86245051D01*
X173514138Y-86182335D01*
X173599786Y-86120109D01*
X173599788Y-86120106D01*
X173599792Y-86120104D01*
X173750104Y-85969792D01*
X173750106Y-85969788D01*
X173750109Y-85969786D01*
X173875048Y-85797820D01*
X173875047Y-85797820D01*
X173875051Y-85797816D01*
X173879514Y-85789054D01*
X173927488Y-85738259D01*
X173995308Y-85721463D01*
X174061444Y-85743999D01*
X174100486Y-85789056D01*
X174104951Y-85797820D01*
X174229890Y-85969786D01*
X174380213Y-86120109D01*
X174552179Y-86245048D01*
X174552181Y-86245049D01*
X174552184Y-86245051D01*
X174741588Y-86341557D01*
X174943757Y-86407246D01*
X175153713Y-86440500D01*
X175153714Y-86440500D01*
X175366286Y-86440500D01*
X175366287Y-86440500D01*
X175576243Y-86407246D01*
X175778412Y-86341557D01*
X175967816Y-86245051D01*
X176054138Y-86182335D01*
X176139786Y-86120109D01*
X176139788Y-86120106D01*
X176139792Y-86120104D01*
X176290104Y-85969792D01*
X176290106Y-85969788D01*
X176290109Y-85969786D01*
X176415048Y-85797820D01*
X176415047Y-85797820D01*
X176415051Y-85797816D01*
X176419514Y-85789054D01*
X176467488Y-85738259D01*
X176535308Y-85721463D01*
X176601444Y-85743999D01*
X176640486Y-85789056D01*
X176644951Y-85797820D01*
X176769890Y-85969786D01*
X176920213Y-86120109D01*
X177092179Y-86245048D01*
X177092181Y-86245049D01*
X177092184Y-86245051D01*
X177281588Y-86341557D01*
X177483757Y-86407246D01*
X177693713Y-86440500D01*
X177693714Y-86440500D01*
X177906286Y-86440500D01*
X177906287Y-86440500D01*
X178116243Y-86407246D01*
X178318412Y-86341557D01*
X178507816Y-86245051D01*
X178594138Y-86182335D01*
X178679786Y-86120109D01*
X178679788Y-86120106D01*
X178679792Y-86120104D01*
X178830104Y-85969792D01*
X178830106Y-85969788D01*
X178830109Y-85969786D01*
X178955048Y-85797820D01*
X178955047Y-85797820D01*
X178955051Y-85797816D01*
X179051557Y-85608412D01*
X179117246Y-85406243D01*
X179150500Y-85196287D01*
X179150500Y-84983713D01*
X179117246Y-84773757D01*
X179051557Y-84571588D01*
X178955051Y-84382184D01*
X178955049Y-84382181D01*
X178955048Y-84382179D01*
X178830109Y-84210213D01*
X178679786Y-84059890D01*
X178507820Y-83934951D01*
X178318414Y-83838444D01*
X178318413Y-83838443D01*
X178318412Y-83838443D01*
X178116243Y-83772754D01*
X178116241Y-83772753D01*
X178116240Y-83772753D01*
X177954957Y-83747208D01*
X177906287Y-83739500D01*
X177693713Y-83739500D01*
X177645042Y-83747208D01*
X177483760Y-83772753D01*
X177281585Y-83838444D01*
X177092179Y-83934951D01*
X176920213Y-84059890D01*
X176769890Y-84210213D01*
X176644949Y-84382182D01*
X176640484Y-84390946D01*
X176592509Y-84441742D01*
X176524688Y-84458536D01*
X176458553Y-84435998D01*
X176419516Y-84390946D01*
X176415050Y-84382182D01*
X176290109Y-84210213D01*
X176139786Y-84059890D01*
X175967820Y-83934951D01*
X175778414Y-83838444D01*
X175778413Y-83838443D01*
X175778412Y-83838443D01*
X175576243Y-83772754D01*
X175576241Y-83772753D01*
X175576240Y-83772753D01*
X175414957Y-83747208D01*
X175366287Y-83739500D01*
X175153713Y-83739500D01*
X175105042Y-83747208D01*
X174943760Y-83772753D01*
X174741585Y-83838444D01*
X174552179Y-83934951D01*
X174380213Y-84059890D01*
X174229890Y-84210213D01*
X174104949Y-84382182D01*
X174100484Y-84390946D01*
X174052509Y-84441742D01*
X173984688Y-84458536D01*
X173918553Y-84435998D01*
X173879516Y-84390946D01*
X173875050Y-84382182D01*
X173750109Y-84210213D01*
X173599786Y-84059890D01*
X173427820Y-83934951D01*
X173238414Y-83838444D01*
X173238413Y-83838443D01*
X173238412Y-83838443D01*
X173036243Y-83772754D01*
X173036241Y-83772753D01*
X173036240Y-83772753D01*
X172874957Y-83747208D01*
X172826287Y-83739500D01*
X172613713Y-83739500D01*
X172565042Y-83747208D01*
X172403760Y-83772753D01*
X172201585Y-83838444D01*
X172012179Y-83934951D01*
X171840213Y-84059890D01*
X171689890Y-84210213D01*
X171564949Y-84382182D01*
X171560484Y-84390946D01*
X171512509Y-84441742D01*
X171444688Y-84458536D01*
X171378553Y-84435998D01*
X171339516Y-84390946D01*
X171335050Y-84382182D01*
X171210109Y-84210213D01*
X171059786Y-84059890D01*
X170887820Y-83934951D01*
X170698414Y-83838444D01*
X170698413Y-83838443D01*
X170698412Y-83838443D01*
X170496243Y-83772754D01*
X170496241Y-83772753D01*
X170496240Y-83772753D01*
X170334957Y-83747208D01*
X170286287Y-83739500D01*
X170073713Y-83739500D01*
X170025042Y-83747208D01*
X169863760Y-83772753D01*
X169661585Y-83838444D01*
X169472179Y-83934951D01*
X169300213Y-84059890D01*
X169149890Y-84210213D01*
X169024949Y-84382182D01*
X169020484Y-84390946D01*
X168972509Y-84441742D01*
X168904688Y-84458536D01*
X168838553Y-84435998D01*
X168799516Y-84390946D01*
X168795050Y-84382182D01*
X168670109Y-84210213D01*
X168519786Y-84059890D01*
X168347820Y-83934951D01*
X168158414Y-83838444D01*
X168158413Y-83838443D01*
X168158412Y-83838443D01*
X167956243Y-83772754D01*
X167956241Y-83772753D01*
X167956240Y-83772753D01*
X167794957Y-83747208D01*
X167746287Y-83739500D01*
X167533713Y-83739500D01*
X167485042Y-83747208D01*
X167323760Y-83772753D01*
X167121585Y-83838444D01*
X166932179Y-83934951D01*
X166760213Y-84059890D01*
X166609890Y-84210213D01*
X166484949Y-84382182D01*
X166480484Y-84390946D01*
X166432509Y-84441742D01*
X166364688Y-84458536D01*
X166298553Y-84435998D01*
X166259516Y-84390946D01*
X166255050Y-84382182D01*
X166130109Y-84210213D01*
X165979786Y-84059890D01*
X165807820Y-83934951D01*
X165618414Y-83838444D01*
X165618413Y-83838443D01*
X165618412Y-83838443D01*
X165416243Y-83772754D01*
X165416241Y-83772753D01*
X165416240Y-83772753D01*
X165254957Y-83747208D01*
X165206287Y-83739500D01*
X164993713Y-83739500D01*
X164945042Y-83747208D01*
X164783760Y-83772753D01*
X164581585Y-83838444D01*
X164392179Y-83934951D01*
X164220213Y-84059890D01*
X164069890Y-84210213D01*
X163944949Y-84382182D01*
X163940484Y-84390946D01*
X163892509Y-84441742D01*
X163824688Y-84458536D01*
X163758553Y-84435998D01*
X163719516Y-84390946D01*
X163715050Y-84382182D01*
X163590109Y-84210213D01*
X163439786Y-84059890D01*
X163267820Y-83934951D01*
X163078414Y-83838444D01*
X163078413Y-83838443D01*
X163078412Y-83838443D01*
X162876243Y-83772754D01*
X162876241Y-83772753D01*
X162876240Y-83772753D01*
X162714957Y-83747208D01*
X162666287Y-83739500D01*
X162453713Y-83739500D01*
X162405042Y-83747208D01*
X162243760Y-83772753D01*
X162041585Y-83838444D01*
X161852179Y-83934951D01*
X161680213Y-84059890D01*
X161529890Y-84210213D01*
X161404949Y-84382182D01*
X161400484Y-84390946D01*
X161352509Y-84441742D01*
X161284688Y-84458536D01*
X161218553Y-84435998D01*
X161179516Y-84390946D01*
X161175050Y-84382182D01*
X161050109Y-84210213D01*
X160899786Y-84059890D01*
X160727820Y-83934951D01*
X160538414Y-83838444D01*
X160538413Y-83838443D01*
X160538412Y-83838443D01*
X160336243Y-83772754D01*
X160336241Y-83772753D01*
X160336240Y-83772753D01*
X160174957Y-83747208D01*
X160126287Y-83739500D01*
X159913713Y-83739500D01*
X159865042Y-83747208D01*
X159703760Y-83772753D01*
X159501585Y-83838444D01*
X159312179Y-83934951D01*
X159140213Y-84059890D01*
X158989890Y-84210213D01*
X158864949Y-84382182D01*
X158860484Y-84390946D01*
X158812509Y-84441742D01*
X158744688Y-84458536D01*
X158678553Y-84435998D01*
X158639516Y-84390946D01*
X158635050Y-84382182D01*
X158510109Y-84210213D01*
X158359786Y-84059890D01*
X158187820Y-83934951D01*
X157998414Y-83838444D01*
X157998413Y-83838443D01*
X157998412Y-83838443D01*
X157796243Y-83772754D01*
X157796241Y-83772753D01*
X157796240Y-83772753D01*
X157634957Y-83747208D01*
X157586287Y-83739500D01*
X157373713Y-83739500D01*
X157325042Y-83747208D01*
X157163760Y-83772753D01*
X156961585Y-83838444D01*
X156772179Y-83934951D01*
X156600213Y-84059890D01*
X156449890Y-84210213D01*
X156324949Y-84382182D01*
X156320484Y-84390946D01*
X156272509Y-84441742D01*
X156204688Y-84458536D01*
X156138553Y-84435998D01*
X156099516Y-84390946D01*
X156095050Y-84382182D01*
X155970109Y-84210213D01*
X155819786Y-84059890D01*
X155647820Y-83934951D01*
X155458414Y-83838444D01*
X155458413Y-83838443D01*
X155458412Y-83838443D01*
X155256243Y-83772754D01*
X155256241Y-83772753D01*
X155256240Y-83772753D01*
X155094957Y-83747208D01*
X155046287Y-83739500D01*
X154833713Y-83739500D01*
X154785042Y-83747208D01*
X154623760Y-83772753D01*
X154421585Y-83838444D01*
X154232179Y-83934951D01*
X154060213Y-84059890D01*
X153909890Y-84210213D01*
X153784949Y-84382182D01*
X153780484Y-84390946D01*
X153732509Y-84441742D01*
X153664688Y-84458536D01*
X153598553Y-84435998D01*
X153559516Y-84390946D01*
X153555050Y-84382182D01*
X153430109Y-84210213D01*
X153279786Y-84059890D01*
X153107820Y-83934951D01*
X152918414Y-83838444D01*
X152918413Y-83838443D01*
X152918412Y-83838443D01*
X152716243Y-83772754D01*
X152716241Y-83772753D01*
X152716240Y-83772753D01*
X152554957Y-83747208D01*
X152506287Y-83739500D01*
X152293713Y-83739500D01*
X152245042Y-83747208D01*
X152083760Y-83772753D01*
X151881585Y-83838444D01*
X151692179Y-83934951D01*
X151520213Y-84059890D01*
X151369890Y-84210213D01*
X151244949Y-84382182D01*
X151240484Y-84390946D01*
X151192509Y-84441742D01*
X151124688Y-84458536D01*
X151058553Y-84435998D01*
X151019516Y-84390946D01*
X151015050Y-84382182D01*
X150890109Y-84210213D01*
X150739786Y-84059890D01*
X150567820Y-83934951D01*
X150378414Y-83838444D01*
X150378413Y-83838443D01*
X150378412Y-83838443D01*
X150176243Y-83772754D01*
X150176241Y-83772753D01*
X150176240Y-83772753D01*
X150014957Y-83747208D01*
X149966287Y-83739500D01*
X149753713Y-83739500D01*
X149705042Y-83747208D01*
X149543760Y-83772753D01*
X149341585Y-83838444D01*
X149152179Y-83934951D01*
X148980213Y-84059890D01*
X148829890Y-84210213D01*
X148704949Y-84382182D01*
X148700484Y-84390946D01*
X148652509Y-84441742D01*
X148584688Y-84458536D01*
X148518553Y-84435998D01*
X148479516Y-84390946D01*
X148475050Y-84382182D01*
X148350109Y-84210213D01*
X148199786Y-84059890D01*
X148027820Y-83934951D01*
X147838414Y-83838444D01*
X147838413Y-83838443D01*
X147838412Y-83838443D01*
X147636243Y-83772754D01*
X147636241Y-83772753D01*
X147636240Y-83772753D01*
X147474957Y-83747208D01*
X147426287Y-83739500D01*
X147213713Y-83739500D01*
X147165042Y-83747208D01*
X147003760Y-83772753D01*
X146801585Y-83838444D01*
X146612179Y-83934951D01*
X146440213Y-84059890D01*
X146289890Y-84210213D01*
X146164949Y-84382182D01*
X146160202Y-84391499D01*
X146112227Y-84442293D01*
X146044405Y-84459087D01*
X145978271Y-84436548D01*
X145939234Y-84391495D01*
X145934626Y-84382452D01*
X145895270Y-84328282D01*
X145895269Y-84328282D01*
X145262962Y-84960590D01*
X145245925Y-84897007D01*
X145180099Y-84782993D01*
X145087007Y-84689901D01*
X144972993Y-84624075D01*
X144909409Y-84607037D01*
X145541716Y-83974728D01*
X145487550Y-83935375D01*
X145298217Y-83838904D01*
X145096129Y-83773242D01*
X144886246Y-83740000D01*
X144673754Y-83740000D01*
X144463872Y-83773242D01*
X144463869Y-83773242D01*
X144261782Y-83838904D01*
X144072439Y-83935380D01*
X144018282Y-83974727D01*
X144018282Y-83974728D01*
X144650591Y-84607037D01*
X144587007Y-84624075D01*
X144472993Y-84689901D01*
X144379901Y-84782993D01*
X144314075Y-84897007D01*
X144297037Y-84960591D01*
X143664728Y-84328282D01*
X143664727Y-84328282D01*
X143625380Y-84382440D01*
X143625376Y-84382446D01*
X143620760Y-84391505D01*
X143572781Y-84442297D01*
X143504959Y-84459087D01*
X143438826Y-84436543D01*
X143399794Y-84391493D01*
X143395051Y-84382184D01*
X143395049Y-84382181D01*
X143395048Y-84382179D01*
X143270109Y-84210213D01*
X143119786Y-84059890D01*
X142947820Y-83934951D01*
X142758414Y-83838444D01*
X142758413Y-83838443D01*
X142758412Y-83838443D01*
X142556243Y-83772754D01*
X142556241Y-83772753D01*
X142556240Y-83772753D01*
X142394957Y-83747208D01*
X142346287Y-83739500D01*
X142133713Y-83739500D01*
X142085042Y-83747208D01*
X141923760Y-83772753D01*
X141721585Y-83838444D01*
X141532179Y-83934951D01*
X141360215Y-84059889D01*
X141246673Y-84173431D01*
X141185350Y-84206915D01*
X141115658Y-84201931D01*
X141059725Y-84160059D01*
X141042810Y-84129082D01*
X140993797Y-83997671D01*
X140993793Y-83997664D01*
X140907547Y-83882455D01*
X140907544Y-83882452D01*
X140792335Y-83796206D01*
X140792328Y-83796202D01*
X140657482Y-83745908D01*
X140657483Y-83745908D01*
X140597883Y-83739501D01*
X140597881Y-83739500D01*
X140597873Y-83739500D01*
X140597864Y-83739500D01*
X138802129Y-83739500D01*
X138802123Y-83739501D01*
X138742516Y-83745908D01*
X138607671Y-83796202D01*
X138607664Y-83796206D01*
X138492455Y-83882452D01*
X138492452Y-83882455D01*
X138406206Y-83997664D01*
X138406202Y-83997671D01*
X138355908Y-84132517D01*
X138349501Y-84192116D01*
X138349500Y-84192135D01*
X137760500Y-84192135D01*
X137760500Y-81809060D01*
X137760501Y-81809047D01*
X137760501Y-81640944D01*
X137745263Y-81584076D01*
X137719577Y-81488216D01*
X137684047Y-81426675D01*
X137640524Y-81351290D01*
X137640518Y-81351282D01*
X136273327Y-79984091D01*
X133656917Y-77367682D01*
X139710000Y-77367682D01*
X139710000Y-77572317D01*
X139742009Y-77774417D01*
X139805244Y-77969031D01*
X139898141Y-78151350D01*
X139898147Y-78151359D01*
X139930523Y-78195921D01*
X139930524Y-78195922D01*
X140610000Y-77516446D01*
X140610000Y-77522661D01*
X140637259Y-77624394D01*
X140689920Y-77715606D01*
X140764394Y-77790080D01*
X140855606Y-77842741D01*
X140957339Y-77870000D01*
X140963553Y-77870000D01*
X140284076Y-78549474D01*
X140328650Y-78581859D01*
X140510968Y-78674755D01*
X140705582Y-78737990D01*
X140907683Y-78770000D01*
X141112317Y-78770000D01*
X141314417Y-78737990D01*
X141509031Y-78674755D01*
X141691349Y-78581859D01*
X141735921Y-78549474D01*
X141056447Y-77870000D01*
X141062661Y-77870000D01*
X141164394Y-77842741D01*
X141255606Y-77790080D01*
X141330080Y-77715606D01*
X141382741Y-77624394D01*
X141410000Y-77522661D01*
X141410000Y-77516447D01*
X142089474Y-78195921D01*
X142121859Y-78151349D01*
X142214755Y-77969031D01*
X142277990Y-77774417D01*
X142310000Y-77572317D01*
X142310000Y-77367682D01*
X142309995Y-77367648D01*
X144709500Y-77367648D01*
X144709500Y-77572352D01*
X144710962Y-77581581D01*
X144741522Y-77774534D01*
X144804781Y-77969223D01*
X144856135Y-78070009D01*
X144897585Y-78151359D01*
X144897715Y-78151613D01*
X145018028Y-78317213D01*
X145162786Y-78461971D01*
X145283226Y-78549474D01*
X145328390Y-78582287D01*
X145437042Y-78637648D01*
X145510776Y-78675218D01*
X145510778Y-78675218D01*
X145510781Y-78675220D01*
X145601856Y-78704812D01*
X145705465Y-78738477D01*
X145806557Y-78754488D01*
X145907648Y-78770500D01*
X145907649Y-78770500D01*
X146112351Y-78770500D01*
X146112352Y-78770500D01*
X146314534Y-78738477D01*
X146509219Y-78675220D01*
X146691610Y-78582287D01*
X146820482Y-78488657D01*
X146857213Y-78461971D01*
X146857215Y-78461968D01*
X146857219Y-78461966D01*
X147001966Y-78317219D01*
X147001968Y-78317215D01*
X147001971Y-78317213D01*
X147079925Y-78209917D01*
X147122287Y-78151610D01*
X147215220Y-77969219D01*
X147278477Y-77774534D01*
X147310500Y-77572352D01*
X147310500Y-77367648D01*
X147309010Y-77358242D01*
X147278477Y-77165465D01*
X147232519Y-77024022D01*
X147215220Y-76970781D01*
X147215218Y-76970778D01*
X147215218Y-76970776D01*
X147190940Y-76923129D01*
X147163861Y-76869983D01*
X149869500Y-76869983D01*
X149869500Y-78070001D01*
X149869501Y-78070018D01*
X149880000Y-78172796D01*
X149880001Y-78172799D01*
X149935185Y-78339331D01*
X149935187Y-78339336D01*
X149964245Y-78386446D01*
X150027288Y-78488656D01*
X150151344Y-78612712D01*
X150300666Y-78704814D01*
X150467203Y-78759999D01*
X150569991Y-78770500D01*
X151770008Y-78770499D01*
X151872797Y-78759999D01*
X152039334Y-78704814D01*
X152188656Y-78612712D01*
X152312712Y-78488656D01*
X152404814Y-78339334D01*
X152428102Y-78269054D01*
X152432110Y-78261050D01*
X152450060Y-78241772D01*
X152465055Y-78220116D01*
X152473495Y-78216606D01*
X152479725Y-78209917D01*
X152505249Y-78203404D01*
X152529571Y-78193292D01*
X152545834Y-78193048D01*
X152547425Y-78192643D01*
X152548523Y-78193008D01*
X152552719Y-78192946D01*
X152590525Y-78195921D01*
X153270000Y-77516446D01*
X153270000Y-77522661D01*
X153297259Y-77624394D01*
X153349920Y-77715606D01*
X153424394Y-77790080D01*
X153515606Y-77842741D01*
X153617339Y-77870000D01*
X153623553Y-77870000D01*
X152944076Y-78549474D01*
X152988650Y-78581859D01*
X153170968Y-78674755D01*
X153365582Y-78737990D01*
X153567683Y-78770000D01*
X153772317Y-78770000D01*
X153974417Y-78737990D01*
X154169031Y-78674755D01*
X154351349Y-78581859D01*
X154395921Y-78549474D01*
X153716447Y-77870000D01*
X153722661Y-77870000D01*
X153824394Y-77842741D01*
X153915606Y-77790080D01*
X153990080Y-77715606D01*
X154042741Y-77624394D01*
X154070000Y-77522661D01*
X154070000Y-77516448D01*
X154749474Y-78195922D01*
X154749474Y-78195921D01*
X154781859Y-78151349D01*
X154874755Y-77969031D01*
X154937990Y-77774417D01*
X154970000Y-77572317D01*
X154970000Y-77367682D01*
X154937990Y-77165582D01*
X154874755Y-76970968D01*
X154781859Y-76788650D01*
X154749474Y-76744077D01*
X154749474Y-76744076D01*
X154070000Y-77423551D01*
X154070000Y-77417339D01*
X154042741Y-77315606D01*
X153990080Y-77224394D01*
X153915606Y-77149920D01*
X153824394Y-77097259D01*
X153722661Y-77070000D01*
X153716446Y-77070000D01*
X154395922Y-76390524D01*
X154395921Y-76390523D01*
X154351359Y-76358147D01*
X154351350Y-76358141D01*
X154169031Y-76265244D01*
X153974417Y-76202009D01*
X153772317Y-76170000D01*
X153567683Y-76170000D01*
X153365582Y-76202009D01*
X153170968Y-76265244D01*
X152988644Y-76358143D01*
X152944077Y-76390523D01*
X152944077Y-76390524D01*
X153623554Y-77070000D01*
X153617339Y-77070000D01*
X153515606Y-77097259D01*
X153424394Y-77149920D01*
X153349920Y-77224394D01*
X153297259Y-77315606D01*
X153270000Y-77417339D01*
X153270000Y-77423553D01*
X152590524Y-76744077D01*
X152552719Y-76747053D01*
X152484341Y-76732689D01*
X152434584Y-76683638D01*
X152432110Y-76678949D01*
X152428101Y-76670942D01*
X152404814Y-76600666D01*
X152312712Y-76451344D01*
X152188656Y-76327288D01*
X152039334Y-76235186D01*
X151872797Y-76180001D01*
X151872795Y-76180000D01*
X151770010Y-76169500D01*
X150569998Y-76169500D01*
X150569981Y-76169501D01*
X150467203Y-76180000D01*
X150467200Y-76180001D01*
X150300668Y-76235185D01*
X150300663Y-76235187D01*
X150151342Y-76327289D01*
X150027289Y-76451342D01*
X149935187Y-76600663D01*
X149935186Y-76600666D01*
X149880001Y-76767203D01*
X149880001Y-76767204D01*
X149880000Y-76767204D01*
X149869500Y-76869983D01*
X147163861Y-76869983D01*
X147122287Y-76788390D01*
X147122285Y-76788387D01*
X147122284Y-76788385D01*
X147001971Y-76622786D01*
X146857213Y-76478028D01*
X146691613Y-76357715D01*
X146691612Y-76357714D01*
X146691610Y-76357713D01*
X146631898Y-76327288D01*
X146509223Y-76264781D01*
X146314534Y-76201522D01*
X146139995Y-76173878D01*
X146112352Y-76169500D01*
X145907648Y-76169500D01*
X145883329Y-76173351D01*
X145705465Y-76201522D01*
X145510776Y-76264781D01*
X145328386Y-76357715D01*
X145162786Y-76478028D01*
X145018028Y-76622786D01*
X144897715Y-76788386D01*
X144804781Y-76970776D01*
X144741522Y-77165465D01*
X144710990Y-77358242D01*
X144709500Y-77367648D01*
X142309995Y-77367648D01*
X142277990Y-77165582D01*
X142214755Y-76970968D01*
X142121859Y-76788650D01*
X142089474Y-76744077D01*
X142089474Y-76744076D01*
X141410000Y-77423551D01*
X141410000Y-77417339D01*
X141382741Y-77315606D01*
X141330080Y-77224394D01*
X141255606Y-77149920D01*
X141164394Y-77097259D01*
X141062661Y-77070000D01*
X141056446Y-77070000D01*
X141735922Y-76390524D01*
X141735921Y-76390523D01*
X141691359Y-76358147D01*
X141691350Y-76358141D01*
X141509031Y-76265244D01*
X141314417Y-76202009D01*
X141112317Y-76170000D01*
X140907683Y-76170000D01*
X140705582Y-76202009D01*
X140510968Y-76265244D01*
X140328644Y-76358143D01*
X140284077Y-76390523D01*
X140284077Y-76390524D01*
X140963554Y-77070000D01*
X140957339Y-77070000D01*
X140855606Y-77097259D01*
X140764394Y-77149920D01*
X140689920Y-77224394D01*
X140637259Y-77315606D01*
X140610000Y-77417339D01*
X140610000Y-77423553D01*
X139930524Y-76744077D01*
X139930523Y-76744077D01*
X139898143Y-76788644D01*
X139805244Y-76970968D01*
X139742009Y-77165582D01*
X139710000Y-77367682D01*
X133656917Y-77367682D01*
X133617589Y-77328354D01*
X133617588Y-77328352D01*
X133498717Y-77209481D01*
X133498716Y-77209480D01*
X133411904Y-77159360D01*
X133411904Y-77159359D01*
X133411900Y-77159358D01*
X133361785Y-77130423D01*
X133209057Y-77089499D01*
X133050943Y-77089499D01*
X133043347Y-77089499D01*
X133043331Y-77089500D01*
X131116669Y-77089500D01*
X131116653Y-77089499D01*
X131109057Y-77089499D01*
X130950943Y-77089499D01*
X130850377Y-77116446D01*
X130798210Y-77130424D01*
X130798209Y-77130425D01*
X130748096Y-77159359D01*
X130748095Y-77159360D01*
X130736731Y-77165921D01*
X130661285Y-77209479D01*
X130661282Y-77209481D01*
X130329481Y-77541282D01*
X130329477Y-77541287D01*
X130300205Y-77591989D01*
X130249638Y-77640205D01*
X130181031Y-77653428D01*
X130136524Y-77640474D01*
X130020032Y-77581118D01*
X129832826Y-77520290D01*
X129638422Y-77489500D01*
X129638417Y-77489500D01*
X129441583Y-77489500D01*
X129441578Y-77489500D01*
X129247173Y-77520290D01*
X129059970Y-77581117D01*
X128884594Y-77670476D01*
X128836807Y-77705196D01*
X128725354Y-77786172D01*
X128725352Y-77786174D01*
X128725351Y-77786174D01*
X128586174Y-77925351D01*
X128586174Y-77925352D01*
X128586172Y-77925354D01*
X128554439Y-77969031D01*
X128470476Y-78084594D01*
X128380485Y-78261213D01*
X128332511Y-78312009D01*
X128264690Y-78328804D01*
X128198555Y-78306267D01*
X128159515Y-78261213D01*
X128126247Y-78195921D01*
X128069524Y-78084595D01*
X127953828Y-77925354D01*
X127814646Y-77786172D01*
X127655405Y-77670476D01*
X127627022Y-77656014D01*
X127480029Y-77581117D01*
X127292826Y-77520290D01*
X127098422Y-77489500D01*
X127098417Y-77489500D01*
X126901583Y-77489500D01*
X126901578Y-77489500D01*
X126707173Y-77520290D01*
X126519970Y-77581117D01*
X126344594Y-77670476D01*
X126296807Y-77705196D01*
X126185354Y-77786172D01*
X126185352Y-77786174D01*
X126185351Y-77786174D01*
X126046174Y-77925351D01*
X126046174Y-77925352D01*
X126046172Y-77925354D01*
X126014439Y-77969031D01*
X125930476Y-78084594D01*
X125840204Y-78261764D01*
X125792229Y-78312560D01*
X125724408Y-78329355D01*
X125658274Y-78306818D01*
X125619234Y-78261764D01*
X125529096Y-78084858D01*
X125503678Y-78049873D01*
X125503677Y-78049873D01*
X124840000Y-78713551D01*
X124840000Y-78689972D01*
X124814104Y-78593325D01*
X124764076Y-78506675D01*
X124693325Y-78435924D01*
X124606675Y-78385896D01*
X124510028Y-78360000D01*
X124486447Y-78360000D01*
X125150125Y-77696320D01*
X125150125Y-77696319D01*
X125115145Y-77670905D01*
X124939835Y-77581581D01*
X124752705Y-77520778D01*
X124558382Y-77490000D01*
X124361618Y-77490000D01*
X124167294Y-77520778D01*
X123980161Y-77581582D01*
X123804863Y-77670899D01*
X123804859Y-77670902D01*
X123769873Y-77696320D01*
X123769872Y-77696320D01*
X124433554Y-78360000D01*
X124409972Y-78360000D01*
X124313325Y-78385896D01*
X124226675Y-78435924D01*
X124155924Y-78506675D01*
X124105896Y-78593325D01*
X124080000Y-78689972D01*
X124080000Y-78713552D01*
X123416320Y-78049872D01*
X123416320Y-78049873D01*
X123390902Y-78084859D01*
X123390899Y-78084863D01*
X123301582Y-78260161D01*
X123240778Y-78447294D01*
X123210000Y-78641617D01*
X123210000Y-78838382D01*
X123240778Y-79032705D01*
X123301581Y-79219835D01*
X123390905Y-79395145D01*
X123416319Y-79430125D01*
X123416320Y-79430125D01*
X124080000Y-78766445D01*
X124080000Y-78790028D01*
X124105896Y-78886675D01*
X124155924Y-78973325D01*
X124226675Y-79044076D01*
X124313325Y-79094104D01*
X124409972Y-79120000D01*
X124433553Y-79120000D01*
X123769873Y-79783677D01*
X123769873Y-79783678D01*
X123804858Y-79809096D01*
X123980164Y-79898418D01*
X124167294Y-79959221D01*
X124361618Y-79990000D01*
X124558382Y-79990000D01*
X124752705Y-79959221D01*
X124939835Y-79898418D01*
X125115143Y-79809095D01*
X125150125Y-79783678D01*
X125150126Y-79783678D01*
X124486448Y-79120000D01*
X124510028Y-79120000D01*
X124606675Y-79094104D01*
X124693325Y-79044076D01*
X124764076Y-78973325D01*
X124814104Y-78886675D01*
X124840000Y-78790028D01*
X124840000Y-78766448D01*
X125503678Y-79430126D01*
X125503678Y-79430125D01*
X125529097Y-79395141D01*
X125619234Y-79218236D01*
X125667208Y-79167439D01*
X125735029Y-79150644D01*
X125801164Y-79173181D01*
X125840204Y-79218235D01*
X125841115Y-79220024D01*
X125841116Y-79220025D01*
X125930476Y-79395405D01*
X126046172Y-79554646D01*
X126185354Y-79693828D01*
X126344595Y-79809524D01*
X126419214Y-79847544D01*
X126519970Y-79898882D01*
X126519972Y-79898882D01*
X126519975Y-79898884D01*
X126620317Y-79931487D01*
X126707173Y-79959709D01*
X126901578Y-79990500D01*
X126901583Y-79990500D01*
X127098422Y-79990500D01*
X127292826Y-79959709D01*
X127337424Y-79945218D01*
X127480025Y-79898884D01*
X127655405Y-79809524D01*
X127814646Y-79693828D01*
X127953828Y-79554646D01*
X128069524Y-79395405D01*
X128158884Y-79220025D01*
X128159515Y-79218787D01*
X128207489Y-79167990D01*
X128275310Y-79151195D01*
X128341445Y-79173732D01*
X128380485Y-79218787D01*
X128470474Y-79395403D01*
X128489515Y-79421610D01*
X128586172Y-79554646D01*
X128725354Y-79693828D01*
X128884595Y-79809524D01*
X128959214Y-79847544D01*
X129059970Y-79898882D01*
X129059972Y-79898882D01*
X129059975Y-79898884D01*
X129160317Y-79931487D01*
X129247173Y-79959709D01*
X129441578Y-79990500D01*
X129441583Y-79990500D01*
X129638422Y-79990500D01*
X129832826Y-79959709D01*
X129834328Y-79959221D01*
X130020025Y-79898884D01*
X130020940Y-79898418D01*
X130029201Y-79894209D01*
X130031907Y-79893700D01*
X130033989Y-79891897D01*
X130066038Y-79887288D01*
X130097869Y-79881309D01*
X130100421Y-79882344D01*
X130103147Y-79881953D01*
X130132600Y-79895404D01*
X130162611Y-79907583D01*
X130164197Y-79909833D01*
X130166703Y-79910978D01*
X130184211Y-79938222D01*
X130202870Y-79964688D01*
X130203443Y-79968147D01*
X130204477Y-79969756D01*
X130209500Y-80004691D01*
X130209500Y-80107403D01*
X130189815Y-80174442D01*
X130158386Y-80207721D01*
X129995352Y-80326173D01*
X129856174Y-80465351D01*
X129856174Y-80465352D01*
X129856172Y-80465354D01*
X129806485Y-80533741D01*
X129740476Y-80624594D01*
X129650485Y-80801213D01*
X129602511Y-80852009D01*
X129534690Y-80868804D01*
X129468555Y-80846267D01*
X129429515Y-80801213D01*
X129402397Y-80747992D01*
X129339524Y-80624595D01*
X129223828Y-80465354D01*
X129084646Y-80326172D01*
X128925405Y-80210476D01*
X128870499Y-80182500D01*
X128750029Y-80121117D01*
X128562826Y-80060290D01*
X128368422Y-80029500D01*
X128368417Y-80029500D01*
X128171583Y-80029500D01*
X128171578Y-80029500D01*
X127977173Y-80060290D01*
X127789970Y-80121117D01*
X127614594Y-80210476D01*
X127523741Y-80276485D01*
X127455354Y-80326172D01*
X127455352Y-80326174D01*
X127455351Y-80326174D01*
X127316174Y-80465351D01*
X127316174Y-80465352D01*
X127316172Y-80465354D01*
X127266485Y-80533741D01*
X127200476Y-80624594D01*
X127110485Y-80801213D01*
X127062511Y-80852009D01*
X126994690Y-80868804D01*
X126928555Y-80846267D01*
X126889515Y-80801213D01*
X126862397Y-80747992D01*
X126799524Y-80624595D01*
X126683828Y-80465354D01*
X126544646Y-80326172D01*
X126385405Y-80210476D01*
X126330499Y-80182500D01*
X126210029Y-80121117D01*
X126022826Y-80060290D01*
X125828422Y-80029500D01*
X125828417Y-80029500D01*
X125631583Y-80029500D01*
X125631578Y-80029500D01*
X125437173Y-80060290D01*
X125249970Y-80121117D01*
X125074594Y-80210476D01*
X124983741Y-80276485D01*
X124915354Y-80326172D01*
X124915352Y-80326174D01*
X124915351Y-80326174D01*
X124776174Y-80465351D01*
X124776174Y-80465352D01*
X124776172Y-80465354D01*
X124726485Y-80533741D01*
X124660476Y-80624594D01*
X124570204Y-80801764D01*
X124522229Y-80852560D01*
X124454408Y-80869355D01*
X124388274Y-80846818D01*
X124349234Y-80801764D01*
X124259096Y-80624858D01*
X124233678Y-80589873D01*
X124233677Y-80589873D01*
X123570000Y-81253551D01*
X123570000Y-81229972D01*
X123544104Y-81133325D01*
X123494076Y-81046675D01*
X123423325Y-80975924D01*
X123336675Y-80925896D01*
X123240028Y-80900000D01*
X123216447Y-80900000D01*
X123880125Y-80236320D01*
X123880125Y-80236319D01*
X123845145Y-80210905D01*
X123669835Y-80121581D01*
X123482705Y-80060778D01*
X123288382Y-80030000D01*
X123091618Y-80030000D01*
X122897294Y-80060778D01*
X122710161Y-80121582D01*
X122534863Y-80210899D01*
X122534859Y-80210902D01*
X122499873Y-80236320D01*
X122499872Y-80236320D01*
X123163554Y-80900000D01*
X123139972Y-80900000D01*
X123043325Y-80925896D01*
X122956675Y-80975924D01*
X122885924Y-81046675D01*
X122835896Y-81133325D01*
X122810000Y-81229972D01*
X122810000Y-81253552D01*
X122146320Y-80589872D01*
X122146320Y-80589873D01*
X122120902Y-80624859D01*
X122120899Y-80624863D01*
X122031582Y-80800161D01*
X121970778Y-80987294D01*
X121940000Y-81181617D01*
X121940000Y-81378382D01*
X121970778Y-81572705D01*
X122031581Y-81759835D01*
X122120905Y-81935145D01*
X122146319Y-81970125D01*
X122146320Y-81970125D01*
X122810000Y-81306445D01*
X122810000Y-81330028D01*
X122835896Y-81426675D01*
X122885924Y-81513325D01*
X122956675Y-81584076D01*
X123043325Y-81634104D01*
X123139972Y-81660000D01*
X123163553Y-81660000D01*
X122499873Y-82323677D01*
X122499873Y-82323678D01*
X122534858Y-82349096D01*
X122710164Y-82438418D01*
X122897294Y-82499221D01*
X123091618Y-82530000D01*
X123288382Y-82530000D01*
X123482705Y-82499221D01*
X123669835Y-82438418D01*
X123845143Y-82349095D01*
X123880125Y-82323678D01*
X123880126Y-82323678D01*
X123216448Y-81660000D01*
X123240028Y-81660000D01*
X123336675Y-81634104D01*
X123423325Y-81584076D01*
X123494076Y-81513325D01*
X123544104Y-81426675D01*
X123570000Y-81330028D01*
X123570000Y-81306448D01*
X124233678Y-81970126D01*
X124233678Y-81970125D01*
X124259097Y-81935141D01*
X124349234Y-81758236D01*
X124397208Y-81707439D01*
X124465029Y-81690644D01*
X124531164Y-81713181D01*
X124570204Y-81758235D01*
X124571115Y-81760024D01*
X124571116Y-81760025D01*
X124660476Y-81935405D01*
X124776172Y-82094646D01*
X124915354Y-82233828D01*
X125074595Y-82349524D01*
X125157455Y-82391743D01*
X125249970Y-82438882D01*
X125249972Y-82438882D01*
X125249975Y-82438884D01*
X125348639Y-82470942D01*
X125437173Y-82499709D01*
X125631578Y-82530500D01*
X125631583Y-82530500D01*
X125828417Y-82530500D01*
X125857660Y-82525868D01*
X125926951Y-82534821D01*
X125980404Y-82579816D01*
X126001046Y-82646567D01*
X125982323Y-82713881D01*
X125964740Y-82736022D01*
X123634842Y-85065921D01*
X123573519Y-85099406D01*
X123508848Y-85096173D01*
X123494534Y-85091522D01*
X123319995Y-85063878D01*
X123292352Y-85059500D01*
X123087648Y-85059500D01*
X123063329Y-85063351D01*
X122885465Y-85091522D01*
X122690776Y-85154781D01*
X122508386Y-85247715D01*
X122342786Y-85368028D01*
X122198028Y-85512786D01*
X122077715Y-85678386D01*
X121984781Y-85860776D01*
X121921522Y-86055465D01*
X121889500Y-86257648D01*
X109220000Y-86257648D01*
X109220000Y-72268711D01*
X120069500Y-72268711D01*
X120069500Y-72511288D01*
X120097501Y-72723987D01*
X120101162Y-72751789D01*
X120111965Y-72792105D01*
X120163947Y-72986104D01*
X120243285Y-73177641D01*
X120256776Y-73210212D01*
X120378064Y-73420289D01*
X120378066Y-73420292D01*
X120378067Y-73420293D01*
X120525733Y-73612736D01*
X120525739Y-73612743D01*
X120697256Y-73784260D01*
X120697262Y-73784265D01*
X120889711Y-73931936D01*
X121099788Y-74053224D01*
X121323900Y-74146054D01*
X121558211Y-74208838D01*
X121738586Y-74232584D01*
X121798711Y-74240500D01*
X121798712Y-74240500D01*
X122041289Y-74240500D01*
X122089388Y-74234167D01*
X122281789Y-74208838D01*
X122516100Y-74146054D01*
X122740212Y-74053224D01*
X122950289Y-73931936D01*
X123142738Y-73784265D01*
X123314265Y-73612738D01*
X123461936Y-73420289D01*
X123583224Y-73210212D01*
X123676054Y-72986100D01*
X123738838Y-72751789D01*
X123770500Y-72511288D01*
X123770500Y-72268712D01*
X123770500Y-72268711D01*
X131499500Y-72268711D01*
X131499500Y-72511288D01*
X131527501Y-72723987D01*
X131531162Y-72751789D01*
X131541965Y-72792105D01*
X131593947Y-72986104D01*
X131673285Y-73177641D01*
X131686776Y-73210212D01*
X131808064Y-73420289D01*
X131808066Y-73420292D01*
X131808067Y-73420293D01*
X131955733Y-73612736D01*
X131955739Y-73612743D01*
X132127256Y-73784260D01*
X132127262Y-73784265D01*
X132319711Y-73931936D01*
X132529788Y-74053224D01*
X132753900Y-74146054D01*
X132988211Y-74208838D01*
X133168586Y-74232584D01*
X133228711Y-74240500D01*
X133228712Y-74240500D01*
X133471289Y-74240500D01*
X133519388Y-74234167D01*
X133711789Y-74208838D01*
X133946100Y-74146054D01*
X134170212Y-74053224D01*
X134380289Y-73931936D01*
X134572738Y-73784265D01*
X134744265Y-73612738D01*
X134891936Y-73420289D01*
X135013224Y-73210212D01*
X135106054Y-72986100D01*
X135168838Y-72751789D01*
X135200500Y-72511288D01*
X135200500Y-72268712D01*
X135196142Y-72235606D01*
X135192007Y-72204195D01*
X135173308Y-72062164D01*
X135168838Y-72028211D01*
X135106054Y-71793900D01*
X135013224Y-71569788D01*
X134891936Y-71359711D01*
X134789525Y-71226246D01*
X134744266Y-71167263D01*
X134744260Y-71167256D01*
X134590757Y-71013753D01*
X143430000Y-71013753D01*
X143430000Y-71226246D01*
X143463242Y-71436127D01*
X143463242Y-71436130D01*
X143528904Y-71638217D01*
X143625375Y-71827550D01*
X143664728Y-71881716D01*
X144297037Y-71249408D01*
X144314075Y-71312993D01*
X144379901Y-71427007D01*
X144472993Y-71520099D01*
X144587007Y-71585925D01*
X144650590Y-71602962D01*
X144018282Y-72235269D01*
X144018282Y-72235270D01*
X144072449Y-72274624D01*
X144261782Y-72371095D01*
X144463870Y-72436757D01*
X144673754Y-72470000D01*
X144886246Y-72470000D01*
X145096127Y-72436757D01*
X145096130Y-72436757D01*
X145298217Y-72371095D01*
X145487554Y-72274622D01*
X145541716Y-72235270D01*
X145541717Y-72235270D01*
X144909408Y-71602962D01*
X144972993Y-71585925D01*
X145087007Y-71520099D01*
X145180099Y-71427007D01*
X145245925Y-71312993D01*
X145262962Y-71249408D01*
X145895270Y-71881717D01*
X145895270Y-71881716D01*
X145934622Y-71827554D01*
X146031095Y-71638217D01*
X146096757Y-71436130D01*
X146096757Y-71436127D01*
X146130000Y-71226246D01*
X146130000Y-71013753D01*
X146129994Y-71013713D01*
X147239500Y-71013713D01*
X147239500Y-71226286D01*
X147272753Y-71436239D01*
X147338444Y-71638414D01*
X147434951Y-71827820D01*
X147559890Y-71999786D01*
X147710213Y-72150109D01*
X147882179Y-72275048D01*
X147882181Y-72275049D01*
X147882184Y-72275051D01*
X148071588Y-72371557D01*
X148273757Y-72437246D01*
X148483713Y-72470500D01*
X148483714Y-72470500D01*
X148696286Y-72470500D01*
X148696287Y-72470500D01*
X148906243Y-72437246D01*
X149108412Y-72371557D01*
X149297816Y-72275051D01*
X149384138Y-72212335D01*
X149469786Y-72150109D01*
X149469788Y-72150106D01*
X149469792Y-72150104D01*
X149620104Y-71999792D01*
X149620106Y-71999788D01*
X149620109Y-71999786D01*
X149745048Y-71827820D01*
X149745047Y-71827820D01*
X149745051Y-71827816D01*
X149841557Y-71638412D01*
X149907246Y-71436243D01*
X149940500Y-71226287D01*
X149940500Y-71013713D01*
X165019500Y-71013713D01*
X165019500Y-71226286D01*
X165052753Y-71436239D01*
X165118444Y-71638414D01*
X165214951Y-71827820D01*
X165339890Y-71999786D01*
X165490213Y-72150109D01*
X165662184Y-72275051D01*
X165662184Y-72275052D01*
X165701793Y-72295233D01*
X165752590Y-72343206D01*
X165769500Y-72405718D01*
X165769500Y-77510397D01*
X165749815Y-77577436D01*
X165701800Y-77620879D01*
X165688389Y-77627712D01*
X165522786Y-77748028D01*
X165378028Y-77892786D01*
X165257715Y-78058386D01*
X165164781Y-78240776D01*
X165101522Y-78435465D01*
X165069500Y-78637648D01*
X165069500Y-78842351D01*
X165101522Y-79044534D01*
X165164781Y-79239223D01*
X165212221Y-79332328D01*
X165244228Y-79395145D01*
X165257715Y-79421613D01*
X165378028Y-79587213D01*
X165522786Y-79731971D01*
X165629531Y-79809524D01*
X165688390Y-79852287D01*
X165773012Y-79895404D01*
X165870776Y-79945218D01*
X165870778Y-79945218D01*
X165870781Y-79945220D01*
X165941343Y-79968147D01*
X166065465Y-80008477D01*
X166166557Y-80024488D01*
X166267648Y-80040500D01*
X166267649Y-80040500D01*
X166472351Y-80040500D01*
X166472352Y-80040500D01*
X166674534Y-80008477D01*
X166869219Y-79945220D01*
X167051610Y-79852287D01*
X167146044Y-79783677D01*
X167217213Y-79731971D01*
X167217215Y-79731968D01*
X167217219Y-79731966D01*
X167361966Y-79587219D01*
X167361968Y-79587215D01*
X167361971Y-79587213D01*
X167476100Y-79430126D01*
X167482287Y-79421610D01*
X167529516Y-79328917D01*
X167577489Y-79278123D01*
X167645310Y-79261328D01*
X167711445Y-79283865D01*
X167750483Y-79328917D01*
X167784360Y-79395403D01*
X167797715Y-79421614D01*
X167918028Y-79587213D01*
X168062786Y-79731971D01*
X168169531Y-79809524D01*
X168228390Y-79852287D01*
X168313012Y-79895404D01*
X168410776Y-79945218D01*
X168410778Y-79945218D01*
X168410781Y-79945220D01*
X168481343Y-79968147D01*
X168605465Y-80008477D01*
X168706557Y-80024488D01*
X168807648Y-80040500D01*
X168807649Y-80040500D01*
X169012351Y-80040500D01*
X169012352Y-80040500D01*
X169214534Y-80008477D01*
X169409219Y-79945220D01*
X169591610Y-79852287D01*
X169686044Y-79783677D01*
X169757213Y-79731971D01*
X169757215Y-79731968D01*
X169757219Y-79731966D01*
X169901966Y-79587219D01*
X169901968Y-79587215D01*
X169901971Y-79587213D01*
X169954732Y-79514590D01*
X170022287Y-79421610D01*
X170115220Y-79239219D01*
X170178477Y-79044534D01*
X170210500Y-78842352D01*
X170210500Y-78637648D01*
X170186902Y-78488656D01*
X170178477Y-78435465D01*
X170136498Y-78306267D01*
X170115220Y-78240781D01*
X170115218Y-78240778D01*
X170115218Y-78240776D01*
X170080580Y-78172796D01*
X170022287Y-78058390D01*
X170014556Y-78047749D01*
X169901971Y-77892786D01*
X169757213Y-77748028D01*
X169591613Y-77627715D01*
X169591612Y-77627714D01*
X169591610Y-77627713D01*
X169513463Y-77587895D01*
X169409223Y-77534781D01*
X169214534Y-77471522D01*
X169039995Y-77443878D01*
X169012352Y-77439500D01*
X168807648Y-77439500D01*
X168783329Y-77443351D01*
X168605465Y-77471522D01*
X168410776Y-77534781D01*
X168228386Y-77627715D01*
X168062786Y-77748028D01*
X167918028Y-77892786D01*
X167797715Y-78058386D01*
X167750485Y-78151080D01*
X167702510Y-78201876D01*
X167634689Y-78218671D01*
X167568554Y-78196134D01*
X167529515Y-78151080D01*
X167528883Y-78149840D01*
X167482287Y-78058390D01*
X167474556Y-78047749D01*
X167361971Y-77892786D01*
X167217213Y-77748028D01*
X167051610Y-77627712D01*
X167038200Y-77620879D01*
X166987406Y-77572903D01*
X166970500Y-77510397D01*
X166970500Y-73979778D01*
X188109500Y-73979778D01*
X188109500Y-76400221D01*
X188143985Y-76617952D01*
X188212103Y-76827603D01*
X188212104Y-76827606D01*
X188312187Y-77024025D01*
X188441752Y-77202358D01*
X188441756Y-77202363D01*
X188597636Y-77358243D01*
X188597641Y-77358247D01*
X188751456Y-77469999D01*
X188775978Y-77487815D01*
X188880912Y-77541282D01*
X188972393Y-77587895D01*
X188972396Y-77587896D01*
X189073910Y-77620879D01*
X189182049Y-77656015D01*
X189399778Y-77690500D01*
X189399779Y-77690500D01*
X189620221Y-77690500D01*
X189620222Y-77690500D01*
X189837951Y-77656015D01*
X190047606Y-77587895D01*
X190244022Y-77487815D01*
X190422365Y-77358242D01*
X190538472Y-77242135D01*
X191609500Y-77242135D01*
X191609500Y-79137870D01*
X191609501Y-79137876D01*
X191615908Y-79197483D01*
X191666202Y-79332328D01*
X191666206Y-79332335D01*
X191752452Y-79447544D01*
X191752455Y-79447547D01*
X191867664Y-79533793D01*
X191867671Y-79533797D01*
X192002517Y-79584091D01*
X192002516Y-79584091D01*
X192009444Y-79584835D01*
X192062127Y-79590500D01*
X196557872Y-79590499D01*
X196617483Y-79584091D01*
X196752331Y-79533796D01*
X196867546Y-79447546D01*
X196953796Y-79332331D01*
X197004091Y-79197483D01*
X197010500Y-79137873D01*
X197010499Y-77242128D01*
X197004091Y-77182517D01*
X196997731Y-77165466D01*
X196953797Y-77047671D01*
X196953793Y-77047664D01*
X196867547Y-76932455D01*
X196867544Y-76932452D01*
X196752335Y-76846206D01*
X196752328Y-76846202D01*
X196617482Y-76795908D01*
X196617483Y-76795908D01*
X196557883Y-76789501D01*
X196557881Y-76789500D01*
X196557873Y-76789500D01*
X196557864Y-76789500D01*
X192062129Y-76789500D01*
X192062123Y-76789501D01*
X192002516Y-76795908D01*
X191867671Y-76846202D01*
X191867664Y-76846206D01*
X191752455Y-76932452D01*
X191752452Y-76932455D01*
X191666206Y-77047664D01*
X191666202Y-77047671D01*
X191615908Y-77182517D01*
X191609501Y-77242116D01*
X191609501Y-77242123D01*
X191609500Y-77242135D01*
X190538472Y-77242135D01*
X190578242Y-77202365D01*
X190580259Y-77199587D01*
X190604721Y-77165921D01*
X190690633Y-77047671D01*
X190707815Y-77024022D01*
X190807895Y-76827606D01*
X190876015Y-76617951D01*
X190910500Y-76400222D01*
X190910500Y-73979778D01*
X190876015Y-73762049D01*
X190827501Y-73612736D01*
X190807896Y-73552396D01*
X190807895Y-73552393D01*
X190740583Y-73420289D01*
X190707815Y-73355978D01*
X190601912Y-73210214D01*
X190578247Y-73177641D01*
X190578243Y-73177636D01*
X190422363Y-73021756D01*
X190422358Y-73021752D01*
X190244025Y-72892187D01*
X190244024Y-72892186D01*
X190244022Y-72892185D01*
X190181096Y-72860122D01*
X190047606Y-72792104D01*
X190047603Y-72792103D01*
X189837959Y-72723987D01*
X189837944Y-72723983D01*
X189653072Y-72694703D01*
X189620222Y-72689500D01*
X189399778Y-72689500D01*
X189327201Y-72700995D01*
X189182047Y-72723985D01*
X188972396Y-72792103D01*
X188972393Y-72792104D01*
X188775974Y-72892187D01*
X188597641Y-73021752D01*
X188597636Y-73021756D01*
X188441756Y-73177636D01*
X188441752Y-73177641D01*
X188312187Y-73355974D01*
X188212104Y-73552393D01*
X188212103Y-73552396D01*
X188143985Y-73762047D01*
X188109500Y-73979778D01*
X166970500Y-73979778D01*
X166970500Y-72405718D01*
X166990185Y-72338679D01*
X167038207Y-72295233D01*
X167077815Y-72275052D01*
X167077815Y-72275051D01*
X167077816Y-72275051D01*
X167175342Y-72204195D01*
X167249786Y-72150109D01*
X167249788Y-72150106D01*
X167249792Y-72150104D01*
X167400104Y-71999792D01*
X167400106Y-71999788D01*
X167400109Y-71999786D01*
X167485890Y-71881717D01*
X167525051Y-71827816D01*
X167529793Y-71818508D01*
X167577763Y-71767711D01*
X167645583Y-71750911D01*
X167711719Y-71773445D01*
X167750763Y-71818500D01*
X167755373Y-71827547D01*
X167794728Y-71881716D01*
X168427037Y-71249408D01*
X168444075Y-71312993D01*
X168509901Y-71427007D01*
X168602993Y-71520099D01*
X168717007Y-71585925D01*
X168780590Y-71602962D01*
X168148282Y-72235269D01*
X168148282Y-72235270D01*
X168202449Y-72274624D01*
X168391782Y-72371095D01*
X168593870Y-72436757D01*
X168803754Y-72470000D01*
X169016246Y-72470000D01*
X169226127Y-72436757D01*
X169226130Y-72436757D01*
X169428217Y-72371095D01*
X169617554Y-72274622D01*
X169671716Y-72235270D01*
X169671717Y-72235270D01*
X169039408Y-71602962D01*
X169102993Y-71585925D01*
X169217007Y-71520099D01*
X169310099Y-71427007D01*
X169375925Y-71312993D01*
X169392962Y-71249408D01*
X170063181Y-71919628D01*
X170096666Y-71980951D01*
X170099500Y-72007300D01*
X170099500Y-72017865D01*
X170099501Y-72017876D01*
X170105908Y-72077483D01*
X170156202Y-72212328D01*
X170156206Y-72212335D01*
X170242452Y-72327544D01*
X170242455Y-72327547D01*
X170357664Y-72413793D01*
X170357671Y-72413797D01*
X170492517Y-72464091D01*
X170492516Y-72464091D01*
X170499444Y-72464835D01*
X170552127Y-72470500D01*
X172347872Y-72470499D01*
X172407483Y-72464091D01*
X172542331Y-72413796D01*
X172657546Y-72327546D01*
X172743796Y-72212331D01*
X172747796Y-72201605D01*
X172770774Y-72140000D01*
X191832145Y-72140000D01*
X192894314Y-72140000D01*
X192889920Y-72144394D01*
X192837259Y-72235606D01*
X192810000Y-72337339D01*
X192810000Y-72442661D01*
X192837259Y-72544394D01*
X192889920Y-72635606D01*
X192894314Y-72640000D01*
X191832145Y-72640000D01*
X191844473Y-72717835D01*
X191844473Y-72717838D01*
X191912567Y-72927410D01*
X192012613Y-73123760D01*
X192142142Y-73302041D01*
X192297958Y-73457857D01*
X192476239Y-73587386D01*
X192672589Y-73687432D01*
X192882164Y-73755526D01*
X193099819Y-73790000D01*
X194060000Y-73790000D01*
X194060000Y-72790000D01*
X194560000Y-72790000D01*
X194560000Y-73790000D01*
X195520181Y-73790000D01*
X195737835Y-73755526D01*
X195947410Y-73687432D01*
X196143760Y-73587386D01*
X196322041Y-73457857D01*
X196477857Y-73302041D01*
X196607386Y-73123760D01*
X196707432Y-72927410D01*
X196775526Y-72717838D01*
X196775526Y-72717835D01*
X196787855Y-72640000D01*
X195725686Y-72640000D01*
X195730080Y-72635606D01*
X195782741Y-72544394D01*
X195810000Y-72442661D01*
X195810000Y-72337339D01*
X195782741Y-72235606D01*
X195730080Y-72144394D01*
X195725686Y-72140000D01*
X196787855Y-72140000D01*
X196775526Y-72062164D01*
X196775526Y-72062161D01*
X196707432Y-71852589D01*
X196607386Y-71656239D01*
X196477857Y-71477958D01*
X196322041Y-71322142D01*
X196143760Y-71192613D01*
X195947410Y-71092567D01*
X195737835Y-71024473D01*
X195520181Y-70990000D01*
X194560000Y-70990000D01*
X194560000Y-71990000D01*
X194060000Y-71990000D01*
X194060000Y-70990000D01*
X193099819Y-70990000D01*
X192882164Y-71024473D01*
X192672589Y-71092567D01*
X192476239Y-71192613D01*
X192297958Y-71322142D01*
X192142142Y-71477958D01*
X192012613Y-71656239D01*
X191912567Y-71852589D01*
X191844473Y-72062161D01*
X191844473Y-72062164D01*
X191832145Y-72140000D01*
X172770774Y-72140000D01*
X172773113Y-72133730D01*
X172773113Y-72133729D01*
X172794090Y-72077485D01*
X172794091Y-72077483D01*
X172795738Y-72062161D01*
X172800500Y-72017873D01*
X172800499Y-70222128D01*
X172794091Y-70162517D01*
X172749720Y-70043553D01*
X172743797Y-70027671D01*
X172743793Y-70027664D01*
X172657547Y-69912455D01*
X172657544Y-69912452D01*
X172542335Y-69826206D01*
X172542328Y-69826202D01*
X172407482Y-69775908D01*
X172407483Y-69775908D01*
X172347883Y-69769501D01*
X172347881Y-69769500D01*
X172347873Y-69769500D01*
X172347864Y-69769500D01*
X170552129Y-69769500D01*
X170552123Y-69769501D01*
X170492516Y-69775908D01*
X170357671Y-69826202D01*
X170357664Y-69826206D01*
X170242455Y-69912452D01*
X170242452Y-69912455D01*
X170156206Y-70027664D01*
X170156202Y-70027671D01*
X170105908Y-70162517D01*
X170099501Y-70222116D01*
X170099501Y-70222123D01*
X170099500Y-70222135D01*
X170099500Y-70232690D01*
X170079815Y-70299729D01*
X170063181Y-70320371D01*
X169392962Y-70990590D01*
X169375925Y-70927007D01*
X169310099Y-70812993D01*
X169217007Y-70719901D01*
X169102993Y-70654075D01*
X169039409Y-70637037D01*
X169671716Y-70004728D01*
X169617550Y-69965375D01*
X169428217Y-69868904D01*
X169226129Y-69803242D01*
X169016246Y-69770000D01*
X168803754Y-69770000D01*
X168593872Y-69803242D01*
X168593869Y-69803242D01*
X168391782Y-69868904D01*
X168202439Y-69965380D01*
X168148282Y-70004727D01*
X168148282Y-70004728D01*
X168780591Y-70637037D01*
X168717007Y-70654075D01*
X168602993Y-70719901D01*
X168509901Y-70812993D01*
X168444075Y-70927007D01*
X168427037Y-70990591D01*
X167794728Y-70358282D01*
X167794727Y-70358282D01*
X167755380Y-70412440D01*
X167755376Y-70412446D01*
X167750760Y-70421505D01*
X167702781Y-70472297D01*
X167634959Y-70489087D01*
X167568826Y-70466543D01*
X167529794Y-70421493D01*
X167525051Y-70412184D01*
X167525049Y-70412181D01*
X167525048Y-70412179D01*
X167400109Y-70240213D01*
X167249786Y-70089890D01*
X167077820Y-69964951D01*
X166888414Y-69868444D01*
X166888413Y-69868443D01*
X166888412Y-69868443D01*
X166686243Y-69802754D01*
X166686241Y-69802753D01*
X166686240Y-69802753D01*
X166524957Y-69777208D01*
X166476287Y-69769500D01*
X166263713Y-69769500D01*
X166215042Y-69777208D01*
X166053760Y-69802753D01*
X165851585Y-69868444D01*
X165662179Y-69964951D01*
X165490213Y-70089890D01*
X165339890Y-70240213D01*
X165214951Y-70412179D01*
X165118444Y-70601585D01*
X165052753Y-70803760D01*
X165019500Y-71013713D01*
X149940500Y-71013713D01*
X149907246Y-70803757D01*
X149841557Y-70601588D01*
X149745051Y-70412184D01*
X149745049Y-70412181D01*
X149745048Y-70412179D01*
X149620109Y-70240213D01*
X149469786Y-70089890D01*
X149297820Y-69964951D01*
X149108414Y-69868444D01*
X149108413Y-69868443D01*
X149108412Y-69868443D01*
X148906243Y-69802754D01*
X148906241Y-69802753D01*
X148906240Y-69802753D01*
X148744957Y-69777208D01*
X148696287Y-69769500D01*
X148483713Y-69769500D01*
X148435042Y-69777208D01*
X148273760Y-69802753D01*
X148071585Y-69868444D01*
X147882179Y-69964951D01*
X147710213Y-70089890D01*
X147559890Y-70240213D01*
X147434951Y-70412179D01*
X147338444Y-70601585D01*
X147272753Y-70803760D01*
X147239500Y-71013713D01*
X146129994Y-71013713D01*
X146096757Y-70803872D01*
X146096757Y-70803869D01*
X146031095Y-70601782D01*
X145934624Y-70412449D01*
X145895270Y-70358282D01*
X145895269Y-70358282D01*
X145262962Y-70990590D01*
X145245925Y-70927007D01*
X145180099Y-70812993D01*
X145087007Y-70719901D01*
X144972993Y-70654075D01*
X144909409Y-70637037D01*
X145541716Y-70004728D01*
X145487550Y-69965375D01*
X145298217Y-69868904D01*
X145096129Y-69803242D01*
X144886246Y-69770000D01*
X144673754Y-69770000D01*
X144463872Y-69803242D01*
X144463869Y-69803242D01*
X144261782Y-69868904D01*
X144072439Y-69965380D01*
X144018282Y-70004727D01*
X144018282Y-70004728D01*
X144650591Y-70637037D01*
X144587007Y-70654075D01*
X144472993Y-70719901D01*
X144379901Y-70812993D01*
X144314075Y-70927007D01*
X144297037Y-70990591D01*
X143664728Y-70358282D01*
X143664727Y-70358282D01*
X143625380Y-70412439D01*
X143528904Y-70601782D01*
X143463242Y-70803869D01*
X143463242Y-70803872D01*
X143430000Y-71013753D01*
X134590757Y-71013753D01*
X134572743Y-70995739D01*
X134572736Y-70995733D01*
X134380293Y-70848067D01*
X134380292Y-70848066D01*
X134380289Y-70848064D01*
X134170212Y-70726776D01*
X134170205Y-70726773D01*
X133946104Y-70633947D01*
X133711785Y-70571161D01*
X133471289Y-70539500D01*
X133471288Y-70539500D01*
X133228712Y-70539500D01*
X133228711Y-70539500D01*
X132988214Y-70571161D01*
X132753895Y-70633947D01*
X132529794Y-70726773D01*
X132529785Y-70726777D01*
X132319706Y-70848067D01*
X132127263Y-70995733D01*
X132127256Y-70995739D01*
X131955739Y-71167256D01*
X131955733Y-71167263D01*
X131808067Y-71359706D01*
X131686777Y-71569785D01*
X131686773Y-71569794D01*
X131593947Y-71793895D01*
X131531161Y-72028214D01*
X131499500Y-72268711D01*
X123770500Y-72268711D01*
X123738838Y-72028211D01*
X123676054Y-71793900D01*
X123583224Y-71569788D01*
X123461936Y-71359711D01*
X123359525Y-71226246D01*
X123314266Y-71167263D01*
X123314260Y-71167256D01*
X123142743Y-70995739D01*
X123142736Y-70995733D01*
X122950293Y-70848067D01*
X122950292Y-70848066D01*
X122950289Y-70848064D01*
X122740212Y-70726776D01*
X122740205Y-70726773D01*
X122516104Y-70633947D01*
X122281785Y-70571161D01*
X122041289Y-70539500D01*
X122041288Y-70539500D01*
X121798712Y-70539500D01*
X121798711Y-70539500D01*
X121558214Y-70571161D01*
X121323895Y-70633947D01*
X121099794Y-70726773D01*
X121099785Y-70726777D01*
X120889706Y-70848067D01*
X120697263Y-70995733D01*
X120697256Y-70995739D01*
X120525739Y-71167256D01*
X120525733Y-71167263D01*
X120378067Y-71359706D01*
X120256777Y-71569785D01*
X120256773Y-71569794D01*
X120163947Y-71793895D01*
X120101161Y-72028214D01*
X120069500Y-72268711D01*
X109220000Y-72268711D01*
X109220000Y-68461902D01*
X111529500Y-68461902D01*
X111529500Y-68698097D01*
X111566446Y-68931368D01*
X111639433Y-69155996D01*
X111746657Y-69366433D01*
X111885483Y-69557510D01*
X112052490Y-69724517D01*
X112243567Y-69863343D01*
X112339949Y-69912452D01*
X112454003Y-69970566D01*
X112454005Y-69970566D01*
X112454008Y-69970568D01*
X112559138Y-70004727D01*
X112678631Y-70043553D01*
X112911903Y-70080500D01*
X112911908Y-70080500D01*
X113148097Y-70080500D01*
X113381368Y-70043553D01*
X113605992Y-69970568D01*
X113816433Y-69863343D01*
X114007510Y-69724517D01*
X114174517Y-69557510D01*
X114313343Y-69366433D01*
X114420568Y-69155992D01*
X114493553Y-68931368D01*
X114530500Y-68698097D01*
X114530500Y-68461902D01*
X114493553Y-68228631D01*
X114459689Y-68124412D01*
X114420568Y-68004008D01*
X114420566Y-68004005D01*
X114420566Y-68004003D01*
X114313342Y-67793566D01*
X114174517Y-67602490D01*
X114007510Y-67435483D01*
X113816433Y-67296657D01*
X113771340Y-67273681D01*
X113605996Y-67189433D01*
X113381368Y-67116446D01*
X113148097Y-67079500D01*
X113148092Y-67079500D01*
X112911908Y-67079500D01*
X112911903Y-67079500D01*
X112678631Y-67116446D01*
X112454003Y-67189433D01*
X112243566Y-67296657D01*
X112190787Y-67335004D01*
X112052490Y-67435483D01*
X112052488Y-67435485D01*
X112052487Y-67435485D01*
X111885485Y-67602487D01*
X111885485Y-67602488D01*
X111885483Y-67602490D01*
X111825862Y-67684550D01*
X111746657Y-67793566D01*
X111639433Y-68004003D01*
X111566446Y-68228631D01*
X111529500Y-68461902D01*
X109220000Y-68461902D01*
X109220000Y-67361362D01*
X109239685Y-67294323D01*
X109256319Y-67273681D01*
X109623470Y-66906530D01*
X141134500Y-66906530D01*
X141134500Y-67713469D01*
X141174868Y-67916412D01*
X141174870Y-67916420D01*
X141254058Y-68107596D01*
X141369024Y-68279657D01*
X141515342Y-68425975D01*
X141515345Y-68425977D01*
X141687402Y-68540941D01*
X141878580Y-68620130D01*
X142081530Y-68660499D01*
X142081534Y-68660500D01*
X142081535Y-68660500D01*
X142288466Y-68660500D01*
X142288467Y-68660499D01*
X142491420Y-68620130D01*
X142682598Y-68540941D01*
X142854655Y-68425977D01*
X143000977Y-68279655D01*
X143115941Y-68107598D01*
X143195130Y-67916420D01*
X143235500Y-67713465D01*
X143235500Y-66906535D01*
X143235499Y-66906530D01*
X150079500Y-66906530D01*
X150079500Y-67713469D01*
X150119868Y-67916412D01*
X150119870Y-67916420D01*
X150199058Y-68107596D01*
X150314024Y-68279657D01*
X150460342Y-68425975D01*
X150460345Y-68425977D01*
X150632402Y-68540941D01*
X150823580Y-68620130D01*
X151026530Y-68660499D01*
X151026534Y-68660500D01*
X151026535Y-68660500D01*
X151233466Y-68660500D01*
X151233467Y-68660499D01*
X151436420Y-68620130D01*
X151627598Y-68540941D01*
X151745889Y-68461902D01*
X208049500Y-68461902D01*
X208049500Y-68698097D01*
X208086446Y-68931368D01*
X208159433Y-69155996D01*
X208266657Y-69366433D01*
X208405483Y-69557510D01*
X208572490Y-69724517D01*
X208763567Y-69863343D01*
X208859949Y-69912452D01*
X208974003Y-69970566D01*
X208974005Y-69970566D01*
X208974008Y-69970568D01*
X209079138Y-70004727D01*
X209198631Y-70043553D01*
X209431903Y-70080500D01*
X209431908Y-70080500D01*
X209668097Y-70080500D01*
X209901368Y-70043553D01*
X210125992Y-69970568D01*
X210336433Y-69863343D01*
X210527510Y-69724517D01*
X210694517Y-69557510D01*
X210833343Y-69366433D01*
X210940568Y-69155992D01*
X211013553Y-68931368D01*
X211050500Y-68698097D01*
X211050500Y-68461902D01*
X211013553Y-68228631D01*
X210979689Y-68124412D01*
X210940568Y-68004008D01*
X210940566Y-68004005D01*
X210940566Y-68004003D01*
X210833342Y-67793566D01*
X210694517Y-67602490D01*
X210527510Y-67435483D01*
X210336433Y-67296657D01*
X210291340Y-67273681D01*
X210125996Y-67189433D01*
X209901368Y-67116446D01*
X209668097Y-67079500D01*
X209668092Y-67079500D01*
X209431908Y-67079500D01*
X209431903Y-67079500D01*
X209198631Y-67116446D01*
X208974003Y-67189433D01*
X208763566Y-67296657D01*
X208710787Y-67335004D01*
X208572490Y-67435483D01*
X208572488Y-67435485D01*
X208572487Y-67435485D01*
X208405485Y-67602487D01*
X208405485Y-67602488D01*
X208405483Y-67602490D01*
X208345862Y-67684550D01*
X208266657Y-67793566D01*
X208159433Y-68004003D01*
X208086446Y-68228631D01*
X208049500Y-68461902D01*
X151745889Y-68461902D01*
X151799655Y-68425977D01*
X151799658Y-68425974D01*
X151856278Y-68369355D01*
X151945974Y-68279658D01*
X151945975Y-68279657D01*
X151945977Y-68279655D01*
X152060941Y-68107598D01*
X152140130Y-67916420D01*
X152180500Y-67713465D01*
X152180500Y-66906535D01*
X152140130Y-66703580D01*
X152060941Y-66512402D01*
X151945977Y-66340345D01*
X151945975Y-66340342D01*
X151799657Y-66194024D01*
X151713626Y-66136541D01*
X151627598Y-66079059D01*
X151436420Y-65999870D01*
X151436412Y-65999868D01*
X151233469Y-65959500D01*
X151233465Y-65959500D01*
X151026535Y-65959500D01*
X151026530Y-65959500D01*
X150823587Y-65999868D01*
X150823579Y-65999870D01*
X150632403Y-66079058D01*
X150460342Y-66194024D01*
X150314024Y-66340342D01*
X150199058Y-66512403D01*
X150119870Y-66703579D01*
X150119868Y-66703587D01*
X150079500Y-66906530D01*
X143235499Y-66906530D01*
X143195130Y-66703580D01*
X143115941Y-66512402D01*
X143000977Y-66340345D01*
X143000975Y-66340342D01*
X142854657Y-66194024D01*
X142768626Y-66136541D01*
X142682598Y-66079059D01*
X142491420Y-65999870D01*
X142491412Y-65999868D01*
X142288469Y-65959500D01*
X142288465Y-65959500D01*
X142081535Y-65959500D01*
X142081530Y-65959500D01*
X141878587Y-65999868D01*
X141878579Y-65999870D01*
X141687403Y-66079058D01*
X141515342Y-66194024D01*
X141369024Y-66340342D01*
X141254058Y-66512403D01*
X141174870Y-66703579D01*
X141174868Y-66703587D01*
X141134500Y-66906530D01*
X109623470Y-66906530D01*
X111723681Y-64806319D01*
X111785004Y-64772834D01*
X111811362Y-64770000D01*
X210768638Y-64770000D01*
X210835677Y-64789685D01*
G37*
%TD.AperFunction*%
=======
>>>>>>> 91a6792 (First commit. Clock　Project　全てです。ESP32用コードも含まれています。SwitchBox制御用。MainBoard(Motor駆動用)。RS485通信。MainBoardはモーターテストコードまで。今後ホールセンサーを追加して、通信機能までコードを完成させていく予定です。)
%TD*%
M02*
