%TF.GenerationSoftware,KiCad,Pcbnew,10.0.3*%
%TF.CreationDate,2026-07-04T11:32:24+09:00*%
%TF.ProjectId,fixed_MainBoard,66697865-645f-44d6-9169-6e426f617264,rev?*%
%TF.SameCoordinates,Original*%
%TF.FileFunction,Copper,L2,Bot*%
%TF.FilePolarity,Positive*%
%FSLAX46Y46*%
G04 Gerber Fmt 4.6, Leading zero omitted, Abs format (unit mm)*
G04 Created by KiCad (PCBNEW 10.0.3) date 2026-07-04 11:32:24*
%MOMM*%
%LPD*%
G01*
G04 APERTURE LIST*
G04 Aperture macros list*
%AMRoundRect*
0 Rectangle with rounded corners*
0 $1 Rounding radius*
0 $2 $3 $4 $5 $6 $7 $8 $9 X,Y pos of 4 corners*
0 Add a 4 corners polygon primitive as box body*
4,1,4,$2,$3,$4,$5,$6,$7,$8,$9,$2,$3,0*
0 Add four circle primitives for the rounded corners*
1,1,$1+$1,$2,$3*
1,1,$1+$1,$4,$5*
1,1,$1+$1,$6,$7*
1,1,$1+$1,$8,$9*
0 Add four rect primitives between the rounded corners*
20,1,$1+$1,$2,$3,$4,$5,0*
20,1,$1+$1,$4,$5,$6,$7,0*
20,1,$1+$1,$6,$7,$8,$9,0*
20,1,$1+$1,$8,$9,$2,$3,0*%
G04 Aperture macros list end*
%TA.AperFunction,ComponentPad*%
%ADD10R,1.700000X1.700000*%
%TD*%
%TA.AperFunction,ComponentPad*%
%ADD11C,1.700000*%
%TD*%
%TA.AperFunction,ComponentPad*%
%ADD12RoundRect,0.250000X0.550000X0.550000X-0.550000X0.550000X-0.550000X-0.550000X0.550000X-0.550000X0*%
%TD*%
%TA.AperFunction,ComponentPad*%
%ADD13C,1.600000*%
%TD*%
%TA.AperFunction,ComponentPad*%
%ADD14R,1.500000X1.500000*%
%TD*%
%TA.AperFunction,ComponentPad*%
%ADD15C,1.500000*%
%TD*%
%TA.AperFunction,ComponentPad*%
%ADD16O,1.100000X1.700000*%
%TD*%
%TA.AperFunction,ComponentPad*%
%ADD17RoundRect,0.250000X-0.550000X0.550000X-0.550000X-0.550000X0.550000X-0.550000X0.550000X0.550000X0*%
%TD*%
%TA.AperFunction,ComponentPad*%
%ADD18RoundRect,0.250000X-0.550000X-0.550000X0.550000X-0.550000X0.550000X0.550000X-0.550000X0.550000X0*%
%TD*%
%TA.AperFunction,ComponentPad*%
%ADD19R,4.400000X1.800000*%
%TD*%
%TA.AperFunction,ComponentPad*%
%ADD20O,4.000000X1.800000*%
%TD*%
%TA.AperFunction,ComponentPad*%
%ADD21O,1.800000X4.000000*%
%TD*%
%TA.AperFunction,ComponentPad*%
%ADD22R,1.328000X1.328000*%
%TD*%
%TA.AperFunction,ComponentPad*%
%ADD23C,1.328000*%
%TD*%
%TA.AperFunction,WasherPad*%
%ADD24C,3.000000*%
%TD*%
%TA.AperFunction,Conductor*%
%ADD25C,0.200000*%
%TD*%
G04 APERTURE END LIST*
D10*
%TO.P,J8,1,Pin_1_1*%
%TO.N,Net-(J7_Pin_3V3)*%
X171450000Y-71120000D03*
D11*
%TO.P,J8,2,Pin_2_2*%
%TO.N,GND*%
X168910000Y-71120000D03*
%TO.P,J8,3,Pin_3_3*%
%TO.N,Net-(J8-Pin_3)*%
X166370000Y-71120000D03*
%TD*%
D10*
%TO.P,J5,1,Pin_1_1*%
%TO.N,Net-(J7-Pin_1)*%
X203200000Y-116840000D03*
D11*
%TO.P,J5,2,Pin_2_2*%
%TO.N,Net-(U1-Pin_13)*%
X203200000Y-114300000D03*
%TO.P,J5,3,Pin_3_3*%
%TO.N,Net-(U1-Pin_14)*%
X203200000Y-111760000D03*
%TO.P,J5,4,Pin_4_4*%
%TO.N,Net-(U1-Pin_15)*%
X203200000Y-109220000D03*
%TO.P,J5,5,Pin_5_5*%
%TO.N,Net-(U1-Pin_16)*%
X203200000Y-106680000D03*
%TD*%
D12*
%TO.P,C5,1*%
%TO.N,Net-(J7-Pin_1)*%
X203200000Y-125730000D03*
D13*
%TO.P,C5,2*%
%TO.N,GND*%
X200700000Y-125730000D03*
%TD*%
%TO.P,C4,1*%
%TO.N,Net-(J7-Pin_1)*%
X190500000Y-92750000D03*
%TO.P,C4,2*%
%TO.N,GND*%
X190500000Y-97750000D03*
%TD*%
D14*
%TO.P,J2,1*%
%TO.N,Net-(J2-Pin_1)*%
X132080000Y-78740000D03*
D15*
%TO.P,J2,2*%
%TO.N,Net-(J2-Pin_2)*%
X130810000Y-81280000D03*
%TO.P,J2,3*%
%TO.N,N/C*%
X129540000Y-78740000D03*
%TO.P,J2,4*%
X128270000Y-81280000D03*
%TO.P,J2,5*%
X127000000Y-78740000D03*
%TO.P,J2,6*%
X125730000Y-81280000D03*
%TO.P,J2,7*%
%TO.N,GND*%
X124460000Y-78740000D03*
%TO.P,J2,8*%
X123190000Y-81280000D03*
%TD*%
D11*
%TO.P,J1,5*%
%TO.N,GND*%
X144780000Y-71120000D03*
%TO.P,J1,6*%
%TO.N,Net-(J1_5V)*%
X148590000Y-71120000D03*
D16*
%TO.P,J1,SH,SHIELD_SH*%
%TO.N,N/C*%
X151130000Y-67310000D03*
X142185000Y-67310000D03*
%TD*%
D11*
%TO.P,J6,0,Pin_3_3*%
%TO.N,Net-(J6-Pin_0)*%
X144780000Y-106680000D03*
%TO.P,J6,2,Pin_2_2*%
%TO.N,Net-(J6-Pin_2)*%
X142240000Y-106680000D03*
%TO.P,J6,4,Pin_4_4*%
%TO.N,Net-(J6-Pin_4)*%
X147320000Y-106680000D03*
%TO.P,J6,5,Pin_5_5*%
%TO.N,unconnected-(J6-Pin_5-Pad5)*%
X154940000Y-106680000D03*
D10*
%TO.P,J6,15,Pin_15_15*%
%TO.N,Net-(J6-Pin_15)*%
X139700000Y-106680000D03*
D11*
%TO.P,J6,16,Pin_16_16*%
%TO.N,/Net-(J6-Pin_16)*%
X149860000Y-106680000D03*
%TO.P,J6,17,Pin_6_6*%
%TO.N,Net-(J6-Pin_17)*%
X152400000Y-106680000D03*
%TO.P,J6,18,Pin_8_8*%
%TO.N,Net-(J6-Pin_18)*%
X157480000Y-106680000D03*
%TO.P,J6,19,Pin_9_9*%
%TO.N,Net-(J6-Pin_19)*%
X160020000Y-106680000D03*
%TO.P,J6,21,Pin_11_11*%
%TO.N,Net-(J6-Pin_21)*%
X165100000Y-106680000D03*
%TO.P,J6,22,Pin_14_14*%
%TO.N,Net-(J6-Pin_22)*%
X172720000Y-106680000D03*
%TO.P,J6,23,Pin_7_7*%
%TO.N,Net-(J6-Pin_23)*%
X175260000Y-106680000D03*
%TO.P,J6,GND,Pin_10_10*%
%TO.N,GND*%
X162560000Y-106680000D03*
%TO.P,J6,GND,Pin_1_1*%
X177800000Y-106680000D03*
%TO.P,J6,RXI,Pin_12_12*%
%TO.N,Net-(J6-Pin_RXI)*%
X167640000Y-106680000D03*
%TO.P,J6,TXO,Pin_13_13*%
%TO.N,Net-(J6-Pin_TXO)*%
X170180000Y-106680000D03*
%TD*%
D13*
%TO.P,C2,1*%
%TO.N,Net-(J1_5V)*%
X146010000Y-77470000D03*
%TO.P,C2,2*%
%TO.N,GND*%
X141010000Y-77470000D03*
%TD*%
D17*
%TO.P,C3,1*%
%TO.N,Net-(J7-Pin_1)*%
X198120000Y-92710000D03*
D13*
%TO.P,C3,2*%
%TO.N,GND*%
X198120000Y-95210000D03*
%TD*%
D11*
%TO.P,J7,3V3*%
%TO.N,Net-(J7_Pin_3V3)*%
X177800000Y-85090000D03*
D10*
%TO.P,J7,5V*%
%TO.N,Net-(J1_5V)*%
X139700000Y-85090000D03*
D11*
%TO.P,J7,12*%
%TO.N,/Net-(J7-Pin_12)*%
X147320000Y-85090000D03*
%TO.P,J7,13*%
%TO.N,/Net-(J7-Pin_13)*%
X142240000Y-85090000D03*
%TO.P,J7,14*%
%TO.N,/Net-(J7-Pin_14)*%
X149860000Y-85090000D03*
%TO.P,J7,25*%
%TO.N,/Net-(J7_Pin_25)*%
X157480000Y-85090000D03*
%TO.P,J7,26*%
%TO.N,/Net-(J7-Pin_26)*%
X154940000Y-85090000D03*
%TO.P,J7,27*%
%TO.N,/Net-(J7-Pin_27)*%
X152400000Y-85090000D03*
%TO.P,J7,32*%
%TO.N,/Net-(J7-Pin_32)*%
X162560000Y-85090000D03*
%TO.P,J7,33*%
%TO.N,/Net-(J7-Pin_33)*%
X160020000Y-85090000D03*
%TO.P,J7,34*%
%TO.N,N/C*%
X167640000Y-85090000D03*
%TO.P,J7,35*%
X165100000Y-85090000D03*
%TO.P,J7,EN*%
X175260000Y-85090000D03*
%TO.P,J7,GND*%
%TO.N,GND*%
X144780000Y-85090000D03*
%TO.P,J7,SVN*%
%TO.N,N/C*%
X170180000Y-85090000D03*
%TO.P,J7,SVP*%
X172720000Y-85090000D03*
%TD*%
D18*
%TO.P,C1,1*%
%TO.N,Net-(J1_5V)*%
X151170000Y-77470000D03*
D13*
%TO.P,C1,2*%
%TO.N,GND*%
X153670000Y-77470000D03*
%TD*%
%TO.P,R1,1*%
%TO.N,Net-(J2-Pin_2)*%
X123190000Y-86360000D03*
%TO.P,R1,2*%
%TO.N,Net-(J2-Pin_1)*%
X127000000Y-86360000D03*
%TD*%
D19*
%TO.P,J9,1*%
%TO.N,Net-(J7-Pin_1)*%
X194310000Y-78190000D03*
D20*
%TO.P,J9,2*%
%TO.N,GND*%
X194310000Y-72390000D03*
D21*
%TO.P,J9,3*%
%TO.N,N/C*%
X189510000Y-75190000D03*
%TD*%
D22*
%TO.P,U1,1,I1_1*%
%TO.N,Net-(J6-Pin_18)*%
X189230000Y-102870000D03*
D23*
%TO.P,U1,2,I2_2*%
%TO.N,Net-(J6-Pin_19)*%
X189230000Y-105410000D03*
%TO.P,U1,3,I3_3*%
%TO.N,Net-(J6-Pin_21)*%
X189230000Y-107950000D03*
%TO.P,U1,4,I4_4*%
%TO.N,Net-(J6-Pin_22)*%
X189230000Y-110490000D03*
%TO.P,U1,5,I5_5*%
%TO.N,unconnected-(U1-I5-Pad5)*%
X189230000Y-113030000D03*
%TO.P,U1,6,I6_6*%
%TO.N,unconnected-(U1-I6-Pad6)*%
X189230000Y-115570000D03*
%TO.P,U1,7,I7_7*%
%TO.N,unconnected-(U1-I7-Pad7)*%
X189230000Y-118110000D03*
%TO.P,U1,8,GND_8*%
%TO.N,GND*%
X189230000Y-120650000D03*
%TO.P,U1,9,COM_9*%
%TO.N,Net-(J7-Pin_1)*%
X196850000Y-120650000D03*
%TO.P,U1,10,O7_10*%
%TO.N,unconnected-(U1-O7-Pad10)*%
X196850000Y-118110000D03*
%TO.P,U1,11,O6_11*%
%TO.N,unconnected-(U1-O6-Pad11)*%
X196850000Y-115570000D03*
%TO.P,U1,12,O5_12*%
%TO.N,unconnected-(U1-O5-Pad12)*%
X196850000Y-113030000D03*
%TO.P,U1,13,O4_13*%
%TO.N,Net-(U1-Pin_13)*%
X196850000Y-110490000D03*
%TO.P,U1,14,O3_14*%
%TO.N,Net-(U1-Pin_14)*%
X196850000Y-107950000D03*
%TO.P,U1,15,O2_15*%
%TO.N,Net-(U1-Pin_15)*%
X196850000Y-105410000D03*
%TO.P,U1,16,O1_16*%
%TO.N,Net-(U1-Pin_16)*%
X196850000Y-102870000D03*
%TD*%
D13*
%TO.P,R2,1*%
%TO.N,Net-(J7-Pin_34)*%
X168910000Y-78740000D03*
%TO.P,R2,2*%
%TO.N,Net-(J8-Pin_3)*%
X166370000Y-78740000D03*
%TD*%
D24*
%TO.P,,*%
%TO.N,*%
X135500000Y-113090000D03*
X135500000Y-128041818D03*
X175513622Y-113058182D03*
X175513622Y-128041818D03*
D11*
%TO.P,,5VO*%
%TO.N,Net-(J1_5V)*%
X173890000Y-124360000D03*
X177700000Y-124360000D03*
%TO.P,,A+*%
%TO.N,Net-(J2-Pin_1)*%
X126610000Y-125630000D03*
X135500000Y-123090000D03*
%TO.P,,B-*%
%TO.N,Net-(J2-Pin_2)*%
X126610000Y-120550000D03*
X135500000Y-120550000D03*
%TO.P,,GND*%
%TO.N,GND*%
X126610000Y-115470000D03*
X135500000Y-118010000D03*
X173890000Y-116740000D03*
X177700000Y-116740000D03*
%TO.P,,RXD*%
%TO.N,Net-(J6-Pin_TXO)*%
X173890000Y-119280000D03*
X177700000Y-119280000D03*
%TO.P,,TXD*%
%TO.N,Net-(J6-Pin_RXI)*%
X173890000Y-121820000D03*
X177700000Y-121820000D03*
%TD*%
%TO.N,Net-(J2-Pin_2)*%
D25*
X123190000Y-117130000D02*
X123190000Y-86360000D01*
X126610000Y-120550000D02*
X123190000Y-117130000D01*
%TO.N,Net-(J2-Pin_1)*%
X137300000Y-96660000D02*
X127000000Y-86360000D01*
X137300000Y-121290000D02*
X137300000Y-96660000D01*
X135500000Y-123090000D02*
X137300000Y-121290000D01*
%TO.N,Net-(J6-Pin_RXI)*%
X173890000Y-121820000D02*
X167640000Y-115570000D01*
X167640000Y-115570000D02*
X167640000Y-106680000D01*
%TO.N,Net-(J6-Pin_TXO)*%
X170180000Y-115570000D02*
X170180000Y-106680000D01*
X173890000Y-119280000D02*
X170180000Y-115570000D01*
%TO.N,Net-(J6-Pin_19)*%
X161953999Y-104746001D02*
X160020000Y-106680000D01*
X188566001Y-104746001D02*
X161953999Y-104746001D01*
X189230000Y-105410000D02*
X188566001Y-104746001D01*
%TO.N,Net-(J6-Pin_18)*%
X161290000Y-102870000D02*
X157480000Y-106680000D01*
X189230000Y-102870000D02*
X161290000Y-102870000D01*
%TO.N,Net-(J6-Pin_21)*%
X166250000Y-105530000D02*
X165100000Y-106680000D01*
X186810000Y-105530000D02*
X166250000Y-105530000D01*
X189230000Y-107950000D02*
X186810000Y-105530000D01*
%TO.N,Net-(J6-Pin_22)*%
X176530000Y-110490000D02*
X172720000Y-106680000D01*
X189230000Y-110490000D02*
X176530000Y-110490000D01*
%TO.N,Net-(J6-Pin_RXI)*%
X173890000Y-121820000D02*
X177700000Y-121820000D01*
%TO.N,Net-(J6-Pin_TXO)*%
X173890000Y-119280000D02*
X177700000Y-119280000D01*
%TO.N,Net-(J8-Pin_3)*%
X166370000Y-71120000D02*
X166370000Y-78740000D01*
%TO.N,Net-(U1-Pin_15)*%
X196850000Y-105410000D02*
X199390000Y-105410000D01*
X199390000Y-105410000D02*
X203200000Y-109220000D01*
%TO.N,Net-(U1-Pin_16)*%
X196850000Y-102870000D02*
X199390000Y-102870000D01*
X199390000Y-102870000D02*
X203200000Y-106680000D01*
%TO.N,Net-(U1-Pin_13)*%
X196850000Y-110490000D02*
X199390000Y-110490000D01*
X199390000Y-110490000D02*
X203200000Y-114300000D01*
%TO.N,Net-(U1-Pin_14)*%
X196850000Y-107950000D02*
X199390000Y-107950000D01*
X199390000Y-107950000D02*
X203200000Y-111760000D01*
%TO.N,Net-(J2-Pin_1)*%
X126610000Y-125630000D02*
X129150000Y-123090000D01*
X132080000Y-82550000D02*
X132080000Y-78740000D01*
X129150000Y-123090000D02*
X135500000Y-123090000D01*
X128270000Y-86360000D02*
X132080000Y-82550000D01*
X127000000Y-86360000D02*
X128270000Y-86360000D01*
%TO.N,Net-(J2-Pin_2)*%
X130810000Y-81280000D02*
X129540000Y-82550000D01*
X126610000Y-120550000D02*
X135500000Y-120550000D01*
X129540000Y-82550000D02*
X127000000Y-82550000D01*
X127000000Y-82550000D02*
X123190000Y-86360000D01*
%TD*%
M02*
