%TF.GenerationSoftware,KiCad,Pcbnew,10.0.3*%
%TF.CreationDate,2026-06-18T15:03:27+09:00*%
%TF.ProjectId,switchBox,73776974-6368-4426-9f78-2e6b69636164,rev?*%
%TF.SameCoordinates,Original*%
%TF.FileFunction,Soldermask,Bot*%
%TF.FilePolarity,Negative*%
%FSLAX46Y46*%
G04 Gerber Fmt 4.6, Leading zero omitted, Abs format (unit mm)*
G04 Created by KiCad (PCBNEW 10.0.3) date 2026-06-18 15:03:27*
%MOMM*%
%LPD*%
G01*
G04 APERTURE LIST*
G04 Aperture macros list*
%AMRoundRect*
0 Rectangle with rounded corners*
0 $1 Rounding radius*
0 $2 $3 $4 $5 $6 $7 $8 $9 X,Y pos of 4 corners*
0 Add a 4 corners polygon primitive as box body*
4,1,4,$2,$3,$4,$5,$6,$7,$8,$9,$2,$3,0*
0 Add four circle primitives for the rounded corners*
1,1,$1+$1,$2,$3*
1,1,$1+$1,$4,$5*
1,1,$1+$1,$6,$7*
1,1,$1+$1,$8,$9*
0 Add four rect primitives between the rounded corners*
20,1,$1+$1,$2,$3,$4,$5,0*
20,1,$1+$1,$4,$5,$6,$7,0*
20,1,$1+$1,$6,$7,$8,$9,0*
20,1,$1+$1,$8,$9,$2,$3,0*%
G04 Aperture macros list end*
%ADD10C,1.700000*%
%ADD11R,1.700000X1.700000*%
%ADD12C,2.540000*%
%ADD13C,3.200000*%
%ADD14R,1.500000X1.500000*%
%ADD15C,1.500000*%
%ADD16C,1.600000*%
%ADD17O,1.900000X3.200000*%
%ADD18C,3.000000*%
%ADD19RoundRect,0.250000X0.750000X0.750000X-0.750000X0.750000X-0.750000X-0.750000X0.750000X-0.750000X0*%
%ADD20C,2.000000*%
%ADD21C,1.400000*%
%ADD22R,2.000000X2.000000*%
%ADD23R,2.500000X3.000000*%
%ADD24O,1.100000X1.700000*%
G04 APERTURE END LIST*
D10*
%TO.C,J7*%
X139700000Y-129540000D03*
D11*
X139700000Y-91440000D03*
D10*
X139700000Y-99060000D03*
X139700000Y-93980000D03*
X139700000Y-101600000D03*
X139700000Y-109220000D03*
X139700000Y-106680000D03*
X139700000Y-104140000D03*
X139700000Y-114300000D03*
X139700000Y-111760000D03*
X139700000Y-119380000D03*
X139700000Y-116840000D03*
X139700000Y-127000000D03*
X139700000Y-96520000D03*
X139700000Y-121920000D03*
X139700000Y-124460000D03*
%TD*%
D12*
%TO.C,U4*%
X152600000Y-81364000D03*
X152600000Y-104564000D03*
X173300000Y-81314000D03*
X173301249Y-104564000D03*
D11*
X159140000Y-81014000D03*
D10*
X164220000Y-81014000D03*
X166760000Y-81014000D03*
X161680000Y-81014000D03*
%TD*%
D13*
%TO.C,J1*%
X196052500Y-83840000D03*
X184622500Y-83840000D03*
D14*
X194782500Y-90190000D03*
D15*
X193512500Y-92730000D03*
X192242500Y-90190000D03*
X190972500Y-92730000D03*
X189702500Y-90190000D03*
X188432500Y-92730000D03*
X187162500Y-90190000D03*
X185892500Y-92730000D03*
%TD*%
D16*
%TO.C,C1*%
X119340000Y-93980000D03*
X114340000Y-93980000D03*
%TD*%
D17*
%TO.C,SW6*%
X175270000Y-151500000D03*
X175270000Y-139000000D03*
X180270000Y-151500000D03*
X180270000Y-139000000D03*
%TD*%
D18*
%TO.C,RS485toTTL5V_MAX1348_SH-U12*%
X192060000Y-125570000D03*
X192060000Y-110618182D03*
X152046378Y-125601818D03*
X152046378Y-110618182D03*
D10*
X153670000Y-114300000D03*
X149860000Y-114300000D03*
X200950000Y-113030000D03*
X192060000Y-115570000D03*
X200950000Y-118110000D03*
X192060000Y-118110000D03*
X200950000Y-123190000D03*
X192060000Y-120650000D03*
X153670000Y-121920000D03*
X149860000Y-121920000D03*
X153670000Y-119380000D03*
X149860000Y-119380000D03*
X153670000Y-116840000D03*
X149860000Y-116840000D03*
%TD*%
D17*
%TO.C,SW2*%
X113070000Y-151500000D03*
X113070000Y-139000000D03*
X118070000Y-151500000D03*
X118070000Y-139000000D03*
%TD*%
D19*
%TO.C,C2*%
X121727677Y-83820000D03*
D20*
X114227677Y-83820000D03*
%TD*%
D17*
%TO.C,SW3*%
X128620000Y-151500000D03*
X128620000Y-139000000D03*
X133620000Y-151500000D03*
X133620000Y-139000000D03*
%TD*%
%TO.C,SW5*%
X159720000Y-151500000D03*
X159720000Y-139000000D03*
X164720000Y-151500000D03*
X164720000Y-139000000D03*
%TD*%
D21*
%TO.C,R1*%
X195580000Y-100330000D03*
X193680000Y-100330000D03*
%TD*%
D18*
%TO.C,H4*%
X208280000Y-152400000D03*
%TD*%
D22*
%TO.C,SW1*%
X191770000Y-152400000D03*
D20*
X196770000Y-152400000D03*
X194270000Y-152400000D03*
D23*
X188670000Y-144900000D03*
X199870000Y-144900000D03*
D20*
X191770000Y-137900000D03*
X196770000Y-137900000D03*
%TD*%
D10*
%TO.C,U1*%
X135890000Y-82550000D03*
X139700000Y-82550000D03*
D24*
X142240000Y-78740000D03*
X133295000Y-78740000D03*
%TD*%
D18*
%TO.C,H2*%
X208280000Y-80010000D03*
%TD*%
%TO.C,H3*%
X101600000Y-152400000D03*
%TD*%
D10*
%TO.C,J6*%
X127000000Y-96520000D03*
X127000000Y-93980000D03*
X127000000Y-99060000D03*
X127000000Y-106680000D03*
D11*
X127000000Y-91440000D03*
D10*
X127000000Y-101600000D03*
X127000000Y-104140000D03*
X127000000Y-109220000D03*
X127000000Y-111760000D03*
X127000000Y-116840000D03*
X127000000Y-124460000D03*
X127000000Y-127000000D03*
X127000000Y-114300000D03*
X127000000Y-129540000D03*
X127000000Y-119380000D03*
X127000000Y-121920000D03*
%TD*%
D18*
%TO.C,H1*%
X101600000Y-80010000D03*
%TD*%
D17*
%TO.C,SW4*%
X144170000Y-151500000D03*
X144170000Y-139000000D03*
X149170000Y-151500000D03*
X149170000Y-139000000D03*
%TD*%
M02*
