%TF.GenerationSoftware,KiCad,Pcbnew,10.0.3*%
%TF.CreationDate,2026-06-18T15:03:27+09:00*%
%TF.ProjectId,switchBox,73776974-6368-4426-9f78-2e6b69636164,rev?*%
%TF.SameCoordinates,Original*%
%TF.FileFunction,Copper,L2,Bot*%
%TF.FilePolarity,Positive*%
%FSLAX46Y46*%
G04 Gerber Fmt 4.6, Leading zero omitted, Abs format (unit mm)*
G04 Created by KiCad (PCBNEW 10.0.3) date 2026-06-18 15:03:27*
%MOMM*%
%LPD*%
G01*
G04 APERTURE LIST*
G04 Aperture macros list*
%AMRoundRect*
0 Rectangle with rounded corners*
0 $1 Rounding radius*
0 $2 $3 $4 $5 $6 $7 $8 $9 X,Y pos of 4 corners*
0 Add a 4 corners polygon primitive as box body*
4,1,4,$2,$3,$4,$5,$6,$7,$8,$9,$2,$3,0*
0 Add four circle primitives for the rounded corners*
1,1,$1+$1,$2,$3*
1,1,$1+$1,$4,$5*
1,1,$1+$1,$6,$7*
1,1,$1+$1,$8,$9*
0 Add four rect primitives between the rounded corners*
20,1,$1+$1,$2,$3,$4,$5,0*
20,1,$1+$1,$4,$5,$6,$7,0*
20,1,$1+$1,$6,$7,$8,$9,0*
20,1,$1+$1,$8,$9,$2,$3,0*%
G04 Aperture macros list end*
%TA.AperFunction,ComponentPad*%
%ADD10C,1.700000*%
%TD*%
%TA.AperFunction,ComponentPad*%
%ADD11R,1.700000X1.700000*%
%TD*%
%TA.AperFunction,WasherPad*%
%ADD12C,2.540000*%
%TD*%
%TA.AperFunction,ComponentPad*%
%ADD13R,1.500000X1.500000*%
%TD*%
%TA.AperFunction,ComponentPad*%
%ADD14C,1.500000*%
%TD*%
%TA.AperFunction,ComponentPad*%
%ADD15C,1.600000*%
%TD*%
%TA.AperFunction,ComponentPad*%
%ADD16O,1.900000X3.200000*%
%TD*%
%TA.AperFunction,WasherPad*%
%ADD17C,3.000000*%
%TD*%
%TA.AperFunction,ComponentPad*%
%ADD18RoundRect,0.250000X0.750000X0.750000X-0.750000X0.750000X-0.750000X-0.750000X0.750000X-0.750000X0*%
%TD*%
%TA.AperFunction,ComponentPad*%
%ADD19C,2.000000*%
%TD*%
%TA.AperFunction,ComponentPad*%
%ADD20C,1.400000*%
%TD*%
%TA.AperFunction,ComponentPad*%
%ADD21R,2.000000X2.000000*%
%TD*%
%TA.AperFunction,ComponentPad*%
%ADD22R,2.500000X3.000000*%
%TD*%
%TA.AperFunction,ComponentPad*%
%ADD23O,1.100000X1.700000*%
%TD*%
%TA.AperFunction,Conductor*%
%ADD24C,0.200000*%
%TD*%
G04 APERTURE END LIST*
D10*
%TO.P,J7,3V3*%
%TO.N,Net-(J7_Pin_3V3)*%
X139700000Y-129540000D03*
D11*
%TO.P,J7,5V*%
%TO.N,Net-(U1-VDD)*%
X139700000Y-91440000D03*
D10*
%TO.P,J7,12*%
%TO.N,/Net-(J7-Pin_12)*%
X139700000Y-99060000D03*
%TO.P,J7,13*%
%TO.N,/Net-(J7-Pin_13)*%
X139700000Y-93980000D03*
%TO.P,J7,14*%
%TO.N,/Net-(J7-Pin_14)*%
X139700000Y-101600000D03*
%TO.P,J7,25*%
%TO.N,/Net-(J7_Pin_25)*%
X139700000Y-109220000D03*
%TO.P,J7,26*%
%TO.N,/Net-(J7-Pin_26)*%
X139700000Y-106680000D03*
%TO.P,J7,27*%
%TO.N,/Net-(J7-Pin_27)*%
X139700000Y-104140000D03*
%TO.P,J7,32*%
%TO.N,/Net-(J7-Pin_32)*%
X139700000Y-114300000D03*
%TO.P,J7,33*%
%TO.N,/Net-(J7-Pin_33)*%
X139700000Y-111760000D03*
%TO.P,J7,34*%
%TO.N,N/C*%
X139700000Y-119380000D03*
%TO.P,J7,35*%
X139700000Y-116840000D03*
%TO.P,J7,EN*%
X139700000Y-127000000D03*
%TO.P,J7,GND*%
%TO.N,GND*%
X139700000Y-96520000D03*
%TO.P,J7,SVN*%
%TO.N,N/C*%
X139700000Y-121920000D03*
%TO.P,J7,SVP*%
X139700000Y-124460000D03*
%TD*%
D12*
%TO.P,U4,*%
%TO.N,*%
X152600000Y-81364000D03*
X152600000Y-104564000D03*
X173300000Y-81314000D03*
X173301249Y-104564000D03*
D11*
%TO.P,U4,GND*%
%TO.N,GND*%
X159140000Y-81014000D03*
D10*
%TO.P,U4,SCL*%
%TO.N,Net-(J6-Pin_22)*%
X164220000Y-81014000D03*
%TO.P,U4,SDA*%
%TO.N,Net-(J6-Pin_21)*%
X166760000Y-81014000D03*
%TO.P,U4,VCC*%
%TO.N,Net-(U1-VDD)*%
X161680000Y-81014000D03*
%TD*%
D13*
%TO.P,J1,1*%
%TO.N,Net-(J1-Pin_1)*%
X194782500Y-90190000D03*
D14*
%TO.P,J1,2*%
%TO.N,Net-(J1-Pin_2)*%
X193512500Y-92730000D03*
%TO.P,J1,3*%
%TO.N,unconnected-(J1-Pad3)*%
X192242500Y-90190000D03*
%TO.P,J1,4*%
%TO.N,unconnected-(J1-Pad4)*%
X190972500Y-92730000D03*
%TO.P,J1,5*%
%TO.N,unconnected-(J1-Pad5)*%
X189702500Y-90190000D03*
%TO.P,J1,6*%
%TO.N,unconnected-(J1-Pad6)*%
X188432500Y-92730000D03*
%TO.P,J1,7*%
%TO.N,GND*%
X187162500Y-90190000D03*
%TO.P,J1,8*%
X185892500Y-92730000D03*
%TD*%
D15*
%TO.P,C1,1*%
%TO.N,Net-(U1-VDD)*%
X119340000Y-93980000D03*
%TO.P,C1,2*%
%TO.N,GND*%
X114340000Y-93980000D03*
%TD*%
D16*
%TO.P,SW6,1,1_1*%
%TO.N,/Net-(J7-Pin_26)*%
X175270000Y-151500000D03*
X175270000Y-139000000D03*
%TO.P,SW6,2,2_2*%
%TO.N,GND*%
X180270000Y-151500000D03*
X180270000Y-139000000D03*
%TD*%
D17*
%TO.P,RS485toTTL5V_MAX1348_SH-U12,*%
%TO.N,*%
X192060000Y-125570000D03*
X192060000Y-110618182D03*
X152046378Y-125601818D03*
X152046378Y-110618182D03*
D10*
%TO.P,RS485toTTL5V_MAX1348_SH-U12,5VO*%
%TO.N,Net-(U1-VDD)*%
X153670000Y-114300000D03*
X149860000Y-114300000D03*
%TO.P,RS485toTTL5V_MAX1348_SH-U12,A+*%
%TO.N,Net-(J1-Pin_1)*%
X200950000Y-113030000D03*
X192060000Y-115570000D03*
%TO.P,RS485toTTL5V_MAX1348_SH-U12,B-*%
%TO.N,Net-(J1-Pin_2)*%
X200950000Y-118110000D03*
X192060000Y-118110000D03*
%TO.P,RS485toTTL5V_MAX1348_SH-U12,GND*%
%TO.N,GND*%
X200950000Y-123190000D03*
X192060000Y-120650000D03*
X153670000Y-121920000D03*
X149860000Y-121920000D03*
%TO.P,RS485toTTL5V_MAX1348_SH-U12,RXD*%
%TO.N,Net-(J6-Pin_TXO)*%
X153670000Y-119380000D03*
X149860000Y-119380000D03*
%TO.P,RS485toTTL5V_MAX1348_SH-U12,TXD*%
%TO.N,Net-(J6-Pin_RXI)*%
X153670000Y-116840000D03*
X149860000Y-116840000D03*
%TD*%
D16*
%TO.P,SW2,1,1_1*%
%TO.N,/Net-(J7-Pin_13)*%
X113070000Y-151500000D03*
X113070000Y-139000000D03*
%TO.P,SW2,2,2_2*%
%TO.N,GND*%
X118070000Y-151500000D03*
X118070000Y-139000000D03*
%TD*%
D18*
%TO.P,C2,1*%
%TO.N,Net-(U1-VDD)*%
X121727677Y-83820000D03*
D19*
%TO.P,C2,2*%
%TO.N,GND*%
X114227677Y-83820000D03*
%TD*%
D16*
%TO.P,SW3,1,1_1*%
%TO.N,/Net-(J7-Pin_12)*%
X128620000Y-151500000D03*
X128620000Y-139000000D03*
%TO.P,SW3,2,2_2*%
%TO.N,GND*%
X133620000Y-151500000D03*
X133620000Y-139000000D03*
%TD*%
%TO.P,SW5,1,1_1*%
%TO.N,/Net-(J7-Pin_27)*%
X159720000Y-151500000D03*
X159720000Y-139000000D03*
%TO.P,SW5,2,2_2*%
%TO.N,GND*%
X164720000Y-151500000D03*
X164720000Y-139000000D03*
%TD*%
D20*
%TO.P,R1,1*%
%TO.N,Net-(J1-Pin_1)*%
X195580000Y-100330000D03*
%TO.P,R1,2*%
%TO.N,Net-(J1-Pin_2)*%
X193680000Y-100330000D03*
%TD*%
D21*
%TO.P,SW1,A,A_A*%
%TO.N,/Net-(J7-Pin_32)*%
X191770000Y-152400000D03*
D19*
%TO.P,SW1,B,B_B*%
%TO.N,/Net-(J7-Pin_33)*%
X196770000Y-152400000D03*
%TO.P,SW1,C,C_C*%
%TO.N,GND*%
X194270000Y-152400000D03*
D22*
%TO.P,SW1,MP*%
%TO.N,N/C*%
X188670000Y-144900000D03*
X199870000Y-144900000D03*
D19*
%TO.P,SW1,S1,S1_S1*%
%TO.N,/Net-(J7_Pin_25)*%
X191770000Y-137900000D03*
%TO.P,SW1,S2,S2_S2*%
%TO.N,GND*%
X196770000Y-137900000D03*
%TD*%
D10*
%TO.P,U1,5*%
%TO.N,GND*%
X135890000Y-82550000D03*
%TO.P,U1,6*%
%TO.N,Net-(U1-VDD)*%
X139700000Y-82550000D03*
D23*
%TO.P,U1,SH,SHIELD_SH*%
%TO.N,GND*%
X142240000Y-78740000D03*
X133295000Y-78740000D03*
%TD*%
D10*
%TO.P,J6,0,Pin_3_3*%
%TO.N,Net-(J6-Pin_0)*%
X127000000Y-96520000D03*
%TO.P,J6,2,Pin_2_2*%
%TO.N,Net-(J6-Pin_2)*%
X127000000Y-93980000D03*
%TO.P,J6,4,Pin_4_4*%
%TO.N,Net-(J6-Pin_4)*%
X127000000Y-99060000D03*
%TO.P,J6,5,Pin_5_5*%
%TO.N,unconnected-(J6-Pin_5-Pad5)*%
X127000000Y-106680000D03*
D11*
%TO.P,J6,15,Pin_15_15*%
%TO.N,Net-(J6-Pin_15)*%
X127000000Y-91440000D03*
D10*
%TO.P,J6,16,Pin_16_16*%
%TO.N,/Net-(J6-Pin_16)*%
X127000000Y-101600000D03*
%TO.P,J6,17,Pin_6_6*%
%TO.N,Net-(J6-Pin_17)*%
X127000000Y-104140000D03*
%TO.P,J6,18,Pin_8_8*%
%TO.N,Net-(J6-Pin_18)*%
X127000000Y-109220000D03*
%TO.P,J6,19,Pin_9_9*%
%TO.N,Net-(J6-Pin_19)*%
X127000000Y-111760000D03*
%TO.P,J6,21,Pin_11_11*%
%TO.N,Net-(J6-Pin_21)*%
X127000000Y-116840000D03*
%TO.P,J6,22,Pin_14_14*%
%TO.N,Net-(J6-Pin_22)*%
X127000000Y-124460000D03*
%TO.P,J6,23,Pin_7_7*%
%TO.N,Net-(J6-Pin_23)*%
X127000000Y-127000000D03*
%TO.P,J6,GND,Pin_10_10*%
%TO.N,GND*%
X127000000Y-114300000D03*
%TO.P,J6,GND,Pin_1_1*%
X127000000Y-129540000D03*
%TO.P,J6,RXI,Pin_12_12*%
%TO.N,Net-(J6-Pin_RXI)*%
X127000000Y-119380000D03*
%TO.P,J6,TXO,Pin_13_13*%
%TO.N,Net-(J6-Pin_TXO)*%
X127000000Y-121920000D03*
%TD*%
D16*
%TO.P,SW4,1,1_1*%
%TO.N,/Net-(J7-Pin_14)*%
X144170000Y-151500000D03*
X144170000Y-139000000D03*
%TO.P,SW4,2,2_2*%
%TO.N,GND*%
X149170000Y-151500000D03*
X149170000Y-139000000D03*
%TD*%
%TO.N,/Net-(J7-Pin_12)*%
D24*
X138550000Y-100210000D02*
X139700000Y-99060000D01*
X126523654Y-100210000D02*
X138550000Y-100210000D01*
X124460000Y-134840000D02*
X124460000Y-102273654D01*
X128620000Y-139000000D02*
X124460000Y-134840000D01*
X124460000Y-102273654D02*
X126523654Y-100210000D01*
%TO.N,Net-(J6-Pin_21)*%
X142244000Y-105530000D02*
X138310000Y-105530000D01*
X166760000Y-81014000D02*
X142244000Y-105530000D01*
X138310000Y-105530000D02*
X127000000Y-116840000D01*
%TO.N,/Net-(J7-Pin_13)*%
X136010000Y-97670000D02*
X139700000Y-93980000D01*
X113070000Y-111363654D02*
X126763654Y-97670000D01*
X113070000Y-151500000D02*
X113070000Y-139000000D01*
X126763654Y-97670000D02*
X136010000Y-97670000D01*
X113070000Y-139000000D02*
X113070000Y-111363654D01*
%TO.N,/Net-(J7-Pin_12)*%
X128620000Y-151500000D02*
X128620000Y-139000000D01*
%TO.N,/Net-(J7-Pin_27)*%
X159720000Y-139000000D02*
X159720000Y-151500000D01*
%TO.N,/Net-(J7-Pin_32)*%
X185420000Y-152400000D02*
X191770000Y-152400000D01*
X172720000Y-139700000D02*
X185420000Y-152400000D01*
X172720000Y-134263654D02*
X172720000Y-139700000D01*
X140970000Y-115570000D02*
X154026346Y-115570000D01*
X154026346Y-115570000D02*
X172720000Y-134263654D01*
X139700000Y-114300000D02*
X140970000Y-115570000D01*
%TO.N,/Net-(J7-Pin_33)*%
X140970000Y-113030000D02*
X160150000Y-113030000D01*
X139700000Y-111760000D02*
X140970000Y-113030000D01*
X160150000Y-113030000D02*
X196770000Y-149650000D01*
X196770000Y-149650000D02*
X196770000Y-152400000D01*
%TO.N,/Net-(J7_Pin_25)*%
X140970000Y-107950000D02*
X139700000Y-109220000D01*
X161820000Y-107950000D02*
X140970000Y-107950000D01*
X191770000Y-137900000D02*
X161820000Y-107950000D01*
%TO.N,Net-(J6-Pin_RXI)*%
X128270000Y-118110000D02*
X148590000Y-118110000D01*
X127000000Y-119380000D02*
X128270000Y-118110000D01*
X149860000Y-116840000D02*
X153670000Y-116840000D01*
X148590000Y-118110000D02*
X149860000Y-116840000D01*
%TO.N,Net-(J6-Pin_TXO)*%
X149860000Y-119380000D02*
X146170000Y-123070000D01*
X146170000Y-123070000D02*
X128150000Y-123070000D01*
X128150000Y-123070000D02*
X127000000Y-121920000D01*
X149860000Y-119380000D02*
X153670000Y-119380000D01*
%TO.N,/Net-(J7-Pin_14)*%
X144170000Y-139000000D02*
X144170000Y-151500000D01*
%TO.N,Net-(J1-Pin_2)*%
X190260000Y-116310000D02*
X192060000Y-118110000D01*
X193680000Y-100330000D02*
X193680000Y-92897500D01*
X192060000Y-118110000D02*
X200950000Y-118110000D01*
X193680000Y-100330000D02*
X190260000Y-103750000D01*
X190260000Y-103750000D02*
X190260000Y-116310000D01*
X193680000Y-92897500D02*
X193512500Y-92730000D01*
%TO.N,Net-(J1-Pin_1)*%
X194782500Y-90190000D02*
X194782500Y-99532500D01*
X195580000Y-100330000D02*
X195580000Y-107660000D01*
X195580000Y-107660000D02*
X200950000Y-113030000D01*
X194782500Y-99532500D02*
X195580000Y-100330000D01*
X198410000Y-115570000D02*
X192060000Y-115570000D01*
X200950000Y-113030000D02*
X198410000Y-115570000D01*
%TD*%
%TA.AperFunction,Conductor*%
%TO.N,GND*%
G36*
X159916942Y-113650185D02*
G01*
X159937584Y-113666819D01*
X188958583Y-142687819D01*
X188992068Y-142749142D01*
X188987084Y-142818834D01*
X188945212Y-142874767D01*
X188879748Y-142899184D01*
X188870902Y-142899500D01*
X187372129Y-142899500D01*
X187372123Y-142899501D01*
X187312516Y-142905908D01*
X187177671Y-142956202D01*
X187177664Y-142956206D01*
X187062455Y-143042452D01*
X187062452Y-143042455D01*
X186976206Y-143157664D01*
X186976202Y-143157671D01*
X186925908Y-143292517D01*
X186919501Y-143352116D01*
X186919501Y-143352123D01*
X186919500Y-143352135D01*
X186919500Y-146447870D01*
X186919501Y-146447876D01*
X186925908Y-146507483D01*
X186976202Y-146642328D01*
X186976206Y-146642335D01*
X187062452Y-146757544D01*
X187062455Y-146757547D01*
X187177664Y-146843793D01*
X187177671Y-146843797D01*
X187312517Y-146894091D01*
X187312516Y-146894091D01*
X187319444Y-146894835D01*
X187372127Y-146900500D01*
X189967872Y-146900499D01*
X190027483Y-146894091D01*
X190162331Y-146843796D01*
X190277546Y-146757546D01*
X190363796Y-146642331D01*
X190414091Y-146507483D01*
X190420500Y-146447873D01*
X190420499Y-144449096D01*
X190440184Y-144382058D01*
X190492987Y-144336303D01*
X190562146Y-144326359D01*
X190625702Y-144355384D01*
X190632180Y-144361416D01*
X196133181Y-149862416D01*
X196166666Y-149923739D01*
X196169500Y-149950097D01*
X196169500Y-150945931D01*
X196149815Y-151012970D01*
X196101796Y-151056415D01*
X195983568Y-151116655D01*
X195900044Y-151177340D01*
X195792490Y-151255483D01*
X195792488Y-151255485D01*
X195792487Y-151255485D01*
X195625482Y-151422490D01*
X195584615Y-151478739D01*
X195529285Y-151521404D01*
X195497455Y-151526096D01*
X194752962Y-152270590D01*
X194735925Y-152207007D01*
X194670099Y-152092993D01*
X194577007Y-151999901D01*
X194462993Y-151934075D01*
X194399408Y-151917037D01*
X195139105Y-151177340D01*
X195139104Y-151177338D01*
X195056174Y-151117087D01*
X194845802Y-151009897D01*
X194621247Y-150936934D01*
X194621248Y-150936934D01*
X194388052Y-150900000D01*
X194151948Y-150900000D01*
X193918752Y-150936934D01*
X193694197Y-151009897D01*
X193483824Y-151117087D01*
X193388141Y-151186605D01*
X193322334Y-151210085D01*
X193254281Y-151194259D01*
X193215990Y-151160599D01*
X193137997Y-151056415D01*
X193127546Y-151042454D01*
X193127544Y-151042453D01*
X193127544Y-151042452D01*
X193012335Y-150956206D01*
X193012328Y-150956202D01*
X192877482Y-150905908D01*
X192877483Y-150905908D01*
X192817883Y-150899501D01*
X192817881Y-150899500D01*
X192817873Y-150899500D01*
X192817864Y-150899500D01*
X190722129Y-150899500D01*
X190722123Y-150899501D01*
X190662516Y-150905908D01*
X190527671Y-150956202D01*
X190527664Y-150956206D01*
X190412455Y-151042452D01*
X190412452Y-151042455D01*
X190326206Y-151157664D01*
X190326202Y-151157671D01*
X190275908Y-151292517D01*
X190269501Y-151352116D01*
X190269500Y-151352135D01*
X190269500Y-151675500D01*
X190249815Y-151742539D01*
X190197011Y-151788294D01*
X190145500Y-151799500D01*
X185720097Y-151799500D01*
X185653058Y-151779815D01*
X185632416Y-151763181D01*
X175181416Y-141312181D01*
X175147931Y-141250858D01*
X175152915Y-141181166D01*
X175194787Y-141125233D01*
X175260251Y-141100816D01*
X175269097Y-141100500D01*
X175384162Y-141100500D01*
X175609660Y-141064784D01*
X175661466Y-141047951D01*
X175826799Y-140994231D01*
X176030228Y-140890579D01*
X176214937Y-140756379D01*
X176376379Y-140594937D01*
X176510579Y-140410228D01*
X176614231Y-140206799D01*
X176684784Y-139989660D01*
X176686013Y-139981900D01*
X176720500Y-139764162D01*
X176720500Y-138235883D01*
X178820000Y-138235883D01*
X178820000Y-138750000D01*
X179669999Y-138750000D01*
X179644979Y-138810402D01*
X179620000Y-138935981D01*
X179620000Y-139064019D01*
X179644979Y-139189598D01*
X179669999Y-139250000D01*
X178820000Y-139250000D01*
X178820000Y-139764116D01*
X178855704Y-139989544D01*
X178926230Y-140206604D01*
X179029849Y-140409966D01*
X179164004Y-140594614D01*
X179325385Y-140755995D01*
X179510033Y-140890150D01*
X179713395Y-140993769D01*
X179930455Y-141064295D01*
X180020000Y-141078478D01*
X180020000Y-139600001D01*
X180080402Y-139625021D01*
X180205981Y-139650000D01*
X180334019Y-139650000D01*
X180459598Y-139625021D01*
X180520000Y-139600001D01*
X180520000Y-141078477D01*
X180609544Y-141064295D01*
X180826604Y-140993769D01*
X181029966Y-140890150D01*
X181214614Y-140755995D01*
X181375995Y-140594614D01*
X181510150Y-140409966D01*
X181613769Y-140206604D01*
X181684295Y-139989544D01*
X181720000Y-139764116D01*
X181720000Y-139250000D01*
X180870001Y-139250000D01*
X180895021Y-139189598D01*
X180920000Y-139064019D01*
X180920000Y-138935981D01*
X180895021Y-138810402D01*
X180870001Y-138750000D01*
X181720000Y-138750000D01*
X181720000Y-138235883D01*
X181684295Y-138010455D01*
X181613769Y-137793395D01*
X181510150Y-137590033D01*
X181375995Y-137405385D01*
X181214614Y-137244004D01*
X181029966Y-137109849D01*
X180826602Y-137006229D01*
X180609541Y-136935703D01*
X180520000Y-136921521D01*
X180520000Y-138399998D01*
X180459598Y-138374979D01*
X180334019Y-138350000D01*
X180205981Y-138350000D01*
X180080402Y-138374979D01*
X180020000Y-138399998D01*
X180020000Y-136921521D01*
X180019999Y-136921521D01*
X179930458Y-136935703D01*
X179713397Y-137006229D01*
X179510033Y-137109849D01*
X179325385Y-137244004D01*
X179164004Y-137405385D01*
X179029849Y-137590033D01*
X178926230Y-137793395D01*
X178855704Y-138010455D01*
X178820000Y-138235883D01*
X176720500Y-138235883D01*
X176720500Y-138235837D01*
X176684784Y-138010339D01*
X176614229Y-137793196D01*
X176512220Y-137592993D01*
X176510579Y-137589772D01*
X176376379Y-137405063D01*
X176214937Y-137243621D01*
X176030228Y-137109421D01*
X176030224Y-137109419D01*
X175826803Y-137005770D01*
X175609660Y-136935215D01*
X175384162Y-136899500D01*
X175384157Y-136899500D01*
X175155843Y-136899500D01*
X175155838Y-136899500D01*
X174930339Y-136935215D01*
X174713196Y-137005770D01*
X174509771Y-137109421D01*
X174325061Y-137243622D01*
X174163622Y-137405061D01*
X174029421Y-137589771D01*
X173925770Y-137793196D01*
X173855215Y-138010339D01*
X173819500Y-138235837D01*
X173819500Y-139650903D01*
X173799815Y-139717942D01*
X173747011Y-139763697D01*
X173677853Y-139773641D01*
X173614297Y-139744616D01*
X173607819Y-139738584D01*
X173356819Y-139487584D01*
X173323334Y-139426261D01*
X173320500Y-139399903D01*
X173320500Y-134352713D01*
X173320501Y-134352700D01*
X173320501Y-134184599D01*
X173320501Y-134184597D01*
X173279577Y-134031869D01*
X173250639Y-133981749D01*
X173200520Y-133894938D01*
X173088716Y-133783134D01*
X173088715Y-133783133D01*
X173084385Y-133778803D01*
X173084374Y-133778793D01*
X154680419Y-115374838D01*
X154646934Y-115313515D01*
X154651918Y-115243823D01*
X154680419Y-115199476D01*
X154700104Y-115179792D01*
X154700106Y-115179788D01*
X154700109Y-115179786D01*
X154825048Y-115007820D01*
X154825047Y-115007820D01*
X154825051Y-115007816D01*
X154921557Y-114818412D01*
X154987246Y-114616243D01*
X155020500Y-114406287D01*
X155020500Y-114193713D01*
X154987246Y-113983757D01*
X154935850Y-113825580D01*
X154925206Y-113792818D01*
X154923211Y-113722977D01*
X154959291Y-113663144D01*
X155021992Y-113632316D01*
X155043137Y-113630500D01*
X159849903Y-113630500D01*
X159916942Y-113650185D01*
G37*
%TD.AperFunction*%
%TA.AperFunction,Conductor*%
G36*
X138451258Y-100830185D02*
G01*
X138497013Y-100882989D01*
X138506957Y-100952147D01*
X138494704Y-100990795D01*
X138448444Y-101081585D01*
X138382753Y-101283760D01*
X138349500Y-101493713D01*
X138349500Y-101706286D01*
X138380963Y-101904939D01*
X138382754Y-101916243D01*
X138441332Y-102096528D01*
X138448444Y-102118414D01*
X138544951Y-102307820D01*
X138669890Y-102479786D01*
X138820213Y-102630109D01*
X138992182Y-102755050D01*
X139000946Y-102759516D01*
X139051742Y-102807491D01*
X139068536Y-102875312D01*
X139045998Y-102941447D01*
X139000946Y-102980484D01*
X138992182Y-102984949D01*
X138820213Y-103109890D01*
X138669890Y-103260213D01*
X138544951Y-103432179D01*
X138448444Y-103621585D01*
X138382753Y-103823760D01*
X138349500Y-104033713D01*
X138349500Y-104246286D01*
X138382753Y-104456239D01*
X138448444Y-104658414D01*
X138494704Y-104749205D01*
X138507600Y-104817875D01*
X138481323Y-104882615D01*
X138424217Y-104922872D01*
X138384219Y-104929500D01*
X138230940Y-104929500D01*
X138190019Y-104940464D01*
X138190019Y-104940465D01*
X138152751Y-104950451D01*
X138078214Y-104970423D01*
X138078209Y-104970426D01*
X137941290Y-105049475D01*
X137941282Y-105049481D01*
X137829478Y-105161286D01*
X128561681Y-114429082D01*
X128500358Y-114462567D01*
X128430666Y-114457583D01*
X128374733Y-114415711D01*
X128350316Y-114350247D01*
X128350000Y-114341401D01*
X128350000Y-114193753D01*
X128316757Y-113983872D01*
X128316757Y-113983869D01*
X128251095Y-113781782D01*
X128154624Y-113592449D01*
X128115270Y-113538282D01*
X128115269Y-113538282D01*
X127482962Y-114170590D01*
X127465925Y-114107007D01*
X127400099Y-113992993D01*
X127307007Y-113899901D01*
X127192993Y-113834075D01*
X127129409Y-113817037D01*
X127761716Y-113184728D01*
X127707547Y-113145373D01*
X127707547Y-113145372D01*
X127698500Y-113140763D01*
X127647706Y-113092788D01*
X127630912Y-113024966D01*
X127653451Y-112958832D01*
X127698508Y-112919793D01*
X127707816Y-112915051D01*
X127787007Y-112857515D01*
X127879786Y-112790109D01*
X127879788Y-112790106D01*
X127879792Y-112790104D01*
X128030104Y-112639792D01*
X128030106Y-112639788D01*
X128030109Y-112639786D01*
X128155048Y-112467820D01*
X128155047Y-112467820D01*
X128155051Y-112467816D01*
X128251557Y-112278412D01*
X128317246Y-112076243D01*
X128350500Y-111866287D01*
X128350500Y-111653713D01*
X128317246Y-111443757D01*
X128251557Y-111241588D01*
X128155051Y-111052184D01*
X128155049Y-111052181D01*
X128155048Y-111052179D01*
X128030109Y-110880213D01*
X127879786Y-110729890D01*
X127707820Y-110604951D01*
X127707115Y-110604591D01*
X127699054Y-110600485D01*
X127648259Y-110552512D01*
X127631463Y-110484692D01*
X127653999Y-110418556D01*
X127699054Y-110379515D01*
X127707816Y-110375051D01*
X127729789Y-110359086D01*
X127879786Y-110250109D01*
X127879788Y-110250106D01*
X127879792Y-110250104D01*
X128030104Y-110099792D01*
X128030106Y-110099788D01*
X128030109Y-110099786D01*
X128155048Y-109927820D01*
X128155047Y-109927820D01*
X128155051Y-109927816D01*
X128251557Y-109738412D01*
X128317246Y-109536243D01*
X128350500Y-109326287D01*
X128350500Y-109113713D01*
X128317246Y-108903757D01*
X128251557Y-108701588D01*
X128155051Y-108512184D01*
X128155049Y-108512181D01*
X128155048Y-108512179D01*
X128030109Y-108340213D01*
X127879786Y-108189890D01*
X127707820Y-108064951D01*
X127707115Y-108064591D01*
X127699054Y-108060485D01*
X127648259Y-108012512D01*
X127631463Y-107944692D01*
X127653999Y-107878556D01*
X127699054Y-107839515D01*
X127707816Y-107835051D01*
X127729789Y-107819086D01*
X127879786Y-107710109D01*
X127879788Y-107710106D01*
X127879792Y-107710104D01*
X128030104Y-107559792D01*
X128030106Y-107559788D01*
X128030109Y-107559786D01*
X128155048Y-107387820D01*
X128155047Y-107387820D01*
X128155051Y-107387816D01*
X128251557Y-107198412D01*
X128317246Y-106996243D01*
X128350500Y-106786287D01*
X128350500Y-106573713D01*
X128317246Y-106363757D01*
X128251557Y-106161588D01*
X128155051Y-105972184D01*
X128155049Y-105972181D01*
X128155048Y-105972179D01*
X128030109Y-105800213D01*
X127879786Y-105649890D01*
X127707820Y-105524951D01*
X127707115Y-105524591D01*
X127699054Y-105520485D01*
X127648259Y-105472512D01*
X127631463Y-105404692D01*
X127653999Y-105338556D01*
X127699054Y-105299515D01*
X127707816Y-105295051D01*
X127729789Y-105279086D01*
X127879786Y-105170109D01*
X127879788Y-105170106D01*
X127879792Y-105170104D01*
X128030104Y-105019792D01*
X128030106Y-105019788D01*
X128030109Y-105019786D01*
X128155048Y-104847820D01*
X128155047Y-104847820D01*
X128155051Y-104847816D01*
X128251557Y-104658412D01*
X128317246Y-104456243D01*
X128350500Y-104246287D01*
X128350500Y-104033713D01*
X128317246Y-103823757D01*
X128251557Y-103621588D01*
X128155051Y-103432184D01*
X128155049Y-103432181D01*
X128155048Y-103432179D01*
X128030109Y-103260213D01*
X127879786Y-103109890D01*
X127707820Y-102984951D01*
X127707115Y-102984591D01*
X127699054Y-102980485D01*
X127648259Y-102932512D01*
X127631463Y-102864692D01*
X127653999Y-102798556D01*
X127699054Y-102759515D01*
X127707816Y-102755051D01*
X127729789Y-102739086D01*
X127879786Y-102630109D01*
X127879788Y-102630106D01*
X127879792Y-102630104D01*
X128030104Y-102479792D01*
X128030106Y-102479788D01*
X128030109Y-102479786D01*
X128155048Y-102307820D01*
X128155047Y-102307820D01*
X128155051Y-102307816D01*
X128251557Y-102118412D01*
X128317246Y-101916243D01*
X128350500Y-101706287D01*
X128350500Y-101493713D01*
X128317246Y-101283757D01*
X128251557Y-101081588D01*
X128205296Y-100990795D01*
X128192400Y-100922125D01*
X128218677Y-100857385D01*
X128275783Y-100817128D01*
X128315781Y-100810500D01*
X138384219Y-100810500D01*
X138451258Y-100830185D01*
G37*
%TD.AperFunction*%
%TA.AperFunction,Conductor*%
G36*
X138269334Y-96362413D02*
G01*
X138325267Y-96404285D01*
X138349684Y-96469749D01*
X138350000Y-96478595D01*
X138350000Y-96626246D01*
X138383242Y-96836127D01*
X138383242Y-96836130D01*
X138448904Y-97038217D01*
X138545375Y-97227550D01*
X138584728Y-97281716D01*
X139217037Y-96649408D01*
X139234075Y-96712993D01*
X139299901Y-96827007D01*
X139392993Y-96920099D01*
X139507007Y-96985925D01*
X139570590Y-97002962D01*
X138938282Y-97635269D01*
X138938282Y-97635270D01*
X138992452Y-97674626D01*
X138992451Y-97674626D01*
X139001495Y-97679234D01*
X139052292Y-97727208D01*
X139069087Y-97795029D01*
X139046550Y-97861164D01*
X139001499Y-97900202D01*
X138992182Y-97904949D01*
X138820213Y-98029890D01*
X138820209Y-98029894D01*
X138669896Y-98180208D01*
X138669890Y-98180213D01*
X138544951Y-98352179D01*
X138448444Y-98541585D01*
X138382753Y-98743760D01*
X138349500Y-98953713D01*
X138349500Y-99166286D01*
X138382754Y-99376244D01*
X138382754Y-99376247D01*
X138396491Y-99418523D01*
X138396925Y-99433734D01*
X138402244Y-99447993D01*
X138397902Y-99467950D01*
X138398486Y-99488364D01*
X138390398Y-99502450D01*
X138387393Y-99516266D01*
X138366243Y-99544521D01*
X138337585Y-99573180D01*
X138276262Y-99606666D01*
X138249902Y-99609500D01*
X128412127Y-99609500D01*
X128345088Y-99589815D01*
X128299333Y-99537011D01*
X128289389Y-99467853D01*
X128294196Y-99447182D01*
X128317246Y-99376243D01*
X128350500Y-99166287D01*
X128350500Y-98953713D01*
X128317246Y-98743757D01*
X128251557Y-98541588D01*
X128205296Y-98450795D01*
X128192400Y-98382125D01*
X128218677Y-98317385D01*
X128275783Y-98277128D01*
X128315781Y-98270500D01*
X135923331Y-98270500D01*
X135923347Y-98270501D01*
X135930943Y-98270501D01*
X136089054Y-98270501D01*
X136089057Y-98270501D01*
X136241785Y-98229577D01*
X136327294Y-98180208D01*
X136378716Y-98150520D01*
X136490520Y-98038716D01*
X136490520Y-98038714D01*
X136500724Y-98028511D01*
X136500728Y-98028506D01*
X138138321Y-96390912D01*
X138199642Y-96357429D01*
X138269334Y-96362413D01*
G37*
%TD.AperFunction*%
%TA.AperFunction,Conductor*%
G36*
X211532539Y-75450185D02*
G01*
X211578294Y-75502989D01*
X211589500Y-75554500D01*
X211589500Y-155585500D01*
X211569815Y-155652539D01*
X211517011Y-155698294D01*
X211465500Y-155709500D01*
X98414500Y-155709500D01*
X98347461Y-155689815D01*
X98301706Y-155637011D01*
X98290500Y-155585500D01*
X98290500Y-152285258D01*
X99849500Y-152285258D01*
X99849500Y-152514741D01*
X99859803Y-152592993D01*
X99879452Y-152742238D01*
X99916504Y-152880520D01*
X99938842Y-152963887D01*
X100026650Y-153175876D01*
X100026657Y-153175890D01*
X100141392Y-153374617D01*
X100281081Y-153556661D01*
X100281089Y-153556670D01*
X100443330Y-153718911D01*
X100443338Y-153718918D01*
X100625382Y-153858607D01*
X100625385Y-153858608D01*
X100625388Y-153858611D01*
X100824112Y-153973344D01*
X100824117Y-153973346D01*
X100824123Y-153973349D01*
X100915480Y-154011190D01*
X101036113Y-154061158D01*
X101257762Y-154120548D01*
X101485266Y-154150500D01*
X101485273Y-154150500D01*
X101714727Y-154150500D01*
X101714734Y-154150500D01*
X101942238Y-154120548D01*
X102163887Y-154061158D01*
X102375888Y-153973344D01*
X102574612Y-153858611D01*
X102756661Y-153718919D01*
X102756665Y-153718914D01*
X102756670Y-153718911D01*
X102918911Y-153556670D01*
X102918914Y-153556665D01*
X102918919Y-153556661D01*
X103058611Y-153374612D01*
X103173344Y-153175888D01*
X103261158Y-152963887D01*
X103320548Y-152742238D01*
X103350500Y-152514734D01*
X103350500Y-152285266D01*
X103320548Y-152057762D01*
X103261158Y-151836113D01*
X103173344Y-151624112D01*
X103058611Y-151425388D01*
X103058608Y-151425385D01*
X103058607Y-151425382D01*
X102918918Y-151243338D01*
X102918911Y-151243330D01*
X102756670Y-151081089D01*
X102756661Y-151081081D01*
X102574617Y-150941392D01*
X102375890Y-150826657D01*
X102375876Y-150826650D01*
X102163887Y-150738842D01*
X102152672Y-150735837D01*
X101942238Y-150679452D01*
X101904215Y-150674446D01*
X101714741Y-150649500D01*
X101714734Y-150649500D01*
X101485266Y-150649500D01*
X101485258Y-150649500D01*
X101268715Y-150678009D01*
X101257762Y-150679452D01*
X101164076Y-150704554D01*
X101036112Y-150738842D01*
X100824123Y-150826650D01*
X100824109Y-150826657D01*
X100625382Y-150941392D01*
X100443338Y-151081081D01*
X100281081Y-151243338D01*
X100141392Y-151425382D01*
X100026657Y-151624109D01*
X100026650Y-151624123D01*
X99950532Y-151807890D01*
X99938842Y-151836113D01*
X99881899Y-152048632D01*
X99879453Y-152057759D01*
X99879451Y-152057770D01*
X99849500Y-152285258D01*
X98290500Y-152285258D01*
X98290500Y-138235837D01*
X111619500Y-138235837D01*
X111619500Y-139764162D01*
X111655215Y-139989660D01*
X111725770Y-140206803D01*
X111829288Y-140409966D01*
X111829421Y-140410228D01*
X111963621Y-140594937D01*
X112125063Y-140756379D01*
X112248202Y-140845845D01*
X112309773Y-140890580D01*
X112368827Y-140920669D01*
X112401794Y-140937466D01*
X112452590Y-140985440D01*
X112469500Y-141047951D01*
X112469500Y-149452047D01*
X112449815Y-149519086D01*
X112401796Y-149562531D01*
X112309774Y-149609419D01*
X112125061Y-149743622D01*
X111963622Y-149905061D01*
X111829421Y-150089771D01*
X111725770Y-150293196D01*
X111655215Y-150510339D01*
X111619500Y-150735837D01*
X111619500Y-152264162D01*
X111655215Y-152489660D01*
X111725770Y-152706803D01*
X111814284Y-152880520D01*
X111829421Y-152910228D01*
X111963621Y-153094937D01*
X112125063Y-153256379D01*
X112309772Y-153390579D01*
X112405884Y-153439550D01*
X112513196Y-153494229D01*
X112513198Y-153494229D01*
X112513201Y-153494231D01*
X112629592Y-153532049D01*
X112730339Y-153564784D01*
X112955838Y-153600500D01*
X112955843Y-153600500D01*
X113184162Y-153600500D01*
X113409660Y-153564784D01*
X113472044Y-153544514D01*
X113626799Y-153494231D01*
X113830228Y-153390579D01*
X114014937Y-153256379D01*
X114176379Y-153094937D01*
X114310579Y-152910228D01*
X114414231Y-152706799D01*
X114484784Y-152489660D01*
X114498985Y-152399999D01*
X114520500Y-152264162D01*
X114520500Y-150735883D01*
X116620000Y-150735883D01*
X116620000Y-151250000D01*
X117469999Y-151250000D01*
X117444979Y-151310402D01*
X117420000Y-151435981D01*
X117420000Y-151564019D01*
X117444979Y-151689598D01*
X117469999Y-151750000D01*
X116620000Y-151750000D01*
X116620000Y-152264116D01*
X116655704Y-152489544D01*
X116726230Y-152706604D01*
X116829849Y-152909966D01*
X116964004Y-153094614D01*
X117125385Y-153255995D01*
X117310033Y-153390150D01*
X117513395Y-153493769D01*
X117730455Y-153564295D01*
X117820000Y-153578478D01*
X117820000Y-152100001D01*
X117880402Y-152125021D01*
X118005981Y-152150000D01*
X118134019Y-152150000D01*
X118259598Y-152125021D01*
X118320000Y-152100001D01*
X118320000Y-153578477D01*
X118409544Y-153564295D01*
X118626604Y-153493769D01*
X118829966Y-153390150D01*
X119014614Y-153255995D01*
X119175995Y-153094614D01*
X119310150Y-152909966D01*
X119413769Y-152706604D01*
X119484295Y-152489544D01*
X119520000Y-152264116D01*
X119520000Y-151750000D01*
X118670001Y-151750000D01*
X118695021Y-151689598D01*
X118720000Y-151564019D01*
X118720000Y-151435981D01*
X118695021Y-151310402D01*
X118670001Y-151250000D01*
X119520000Y-151250000D01*
X119520000Y-150735883D01*
X119484295Y-150510455D01*
X119413769Y-150293395D01*
X119310150Y-150090033D01*
X119175995Y-149905385D01*
X119014614Y-149744004D01*
X118829966Y-149609849D01*
X118626602Y-149506229D01*
X118409541Y-149435703D01*
X118320000Y-149421521D01*
X118320000Y-150899998D01*
X118259598Y-150874979D01*
X118134019Y-150850000D01*
X118005981Y-150850000D01*
X117880402Y-150874979D01*
X117820000Y-150899998D01*
X117820000Y-149421521D01*
X117819999Y-149421521D01*
X117730458Y-149435703D01*
X117513397Y-149506229D01*
X117310033Y-149609849D01*
X117125385Y-149744004D01*
X116964004Y-149905385D01*
X116829849Y-150090033D01*
X116726230Y-150293395D01*
X116655704Y-150510455D01*
X116620000Y-150735883D01*
X114520500Y-150735883D01*
X114520500Y-150735837D01*
X114484784Y-150510339D01*
X114414229Y-150293196D01*
X114359550Y-150185884D01*
X114310579Y-150089772D01*
X114176379Y-149905063D01*
X114014937Y-149743621D01*
X113830228Y-149609421D01*
X113830227Y-149609420D01*
X113830225Y-149609419D01*
X113738204Y-149562531D01*
X113687409Y-149514556D01*
X113670500Y-149452047D01*
X113670500Y-141047951D01*
X113690185Y-140980912D01*
X113738205Y-140937466D01*
X113830228Y-140890579D01*
X114014937Y-140756379D01*
X114176379Y-140594937D01*
X114310579Y-140410228D01*
X114414231Y-140206799D01*
X114484784Y-139989660D01*
X114486013Y-139981900D01*
X114520500Y-139764162D01*
X114520500Y-138235883D01*
X116620000Y-138235883D01*
X116620000Y-138750000D01*
X117469999Y-138750000D01*
X117444979Y-138810402D01*
X117420000Y-138935981D01*
X117420000Y-139064019D01*
X117444979Y-139189598D01*
X117469999Y-139250000D01*
X116620000Y-139250000D01*
X116620000Y-139764116D01*
X116655704Y-139989544D01*
X116726230Y-140206604D01*
X116829849Y-140409966D01*
X116964004Y-140594614D01*
X117125385Y-140755995D01*
X117310033Y-140890150D01*
X117513395Y-140993769D01*
X117730455Y-141064295D01*
X117820000Y-141078478D01*
X117820000Y-139600001D01*
X117880402Y-139625021D01*
X118005981Y-139650000D01*
X118134019Y-139650000D01*
X118259598Y-139625021D01*
X118320000Y-139600001D01*
X118320000Y-141078477D01*
X118409544Y-141064295D01*
X118626604Y-140993769D01*
X118829966Y-140890150D01*
X119014614Y-140755995D01*
X119175995Y-140594614D01*
X119310150Y-140409966D01*
X119413769Y-140206604D01*
X119484295Y-139989544D01*
X119520000Y-139764116D01*
X119520000Y-139250000D01*
X118670001Y-139250000D01*
X118695021Y-139189598D01*
X118720000Y-139064019D01*
X118720000Y-138935981D01*
X118695021Y-138810402D01*
X118670001Y-138750000D01*
X119520000Y-138750000D01*
X119520000Y-138235883D01*
X119484295Y-138010455D01*
X119413769Y-137793395D01*
X119310150Y-137590033D01*
X119175995Y-137405385D01*
X119014614Y-137244004D01*
X118829966Y-137109849D01*
X118626602Y-137006229D01*
X118409541Y-136935703D01*
X118320000Y-136921521D01*
X118320000Y-138399998D01*
X118259598Y-138374979D01*
X118134019Y-138350000D01*
X118005981Y-138350000D01*
X117880402Y-138374979D01*
X117820000Y-138399998D01*
X117820000Y-136921521D01*
X117819999Y-136921521D01*
X117730458Y-136935703D01*
X117513397Y-137006229D01*
X117310033Y-137109849D01*
X117125385Y-137244004D01*
X116964004Y-137405385D01*
X116829849Y-137590033D01*
X116726230Y-137793395D01*
X116655704Y-138010455D01*
X116620000Y-138235883D01*
X114520500Y-138235883D01*
X114520500Y-138235837D01*
X114484784Y-138010339D01*
X114414229Y-137793196D01*
X114312220Y-137592993D01*
X114310579Y-137589772D01*
X114176379Y-137405063D01*
X114014937Y-137243621D01*
X113830228Y-137109421D01*
X113830227Y-137109420D01*
X113830225Y-137109419D01*
X113738204Y-137062531D01*
X113687409Y-137014556D01*
X113670500Y-136952047D01*
X113670500Y-111663750D01*
X113690185Y-111596711D01*
X113706814Y-111576074D01*
X125612921Y-99669966D01*
X125633164Y-99658913D01*
X125650831Y-99644075D01*
X125663252Y-99642483D01*
X125674242Y-99636483D01*
X125697251Y-99638128D01*
X125720135Y-99635197D01*
X125731444Y-99640573D01*
X125743934Y-99641467D01*
X125762400Y-99655291D01*
X125783236Y-99665197D01*
X125793590Y-99678640D01*
X125799867Y-99683339D01*
X125805935Y-99692224D01*
X125808706Y-99696686D01*
X125844949Y-99767816D01*
X125899651Y-99843108D01*
X125902029Y-99846936D01*
X125910200Y-99876438D01*
X125920492Y-99905283D01*
X125919441Y-99909801D01*
X125920679Y-99914270D01*
X125911602Y-99943510D01*
X125904666Y-99973337D01*
X125900739Y-99978505D01*
X125899965Y-99980999D01*
X125896867Y-99983600D01*
X125884375Y-100000042D01*
X124091286Y-101793132D01*
X123979481Y-101904936D01*
X123979479Y-101904939D01*
X123929361Y-101991748D01*
X123929359Y-101991750D01*
X123900425Y-102041863D01*
X123900424Y-102041864D01*
X123895421Y-102060536D01*
X123859499Y-102194597D01*
X123859499Y-102194599D01*
X123859499Y-102362700D01*
X123859500Y-102362713D01*
X123859500Y-134753330D01*
X123859499Y-134753348D01*
X123859499Y-134919054D01*
X123859498Y-134919054D01*
X123900423Y-135071785D01*
X123929358Y-135121900D01*
X123929359Y-135121904D01*
X123929360Y-135121904D01*
X123979479Y-135208714D01*
X123979481Y-135208717D01*
X124098349Y-135327585D01*
X124098355Y-135327590D01*
X127133181Y-138362416D01*
X127166666Y-138423739D01*
X127169500Y-138450097D01*
X127169500Y-139764162D01*
X127205215Y-139989660D01*
X127275770Y-140206803D01*
X127379288Y-140409966D01*
X127379421Y-140410228D01*
X127513621Y-140594937D01*
X127675063Y-140756379D01*
X127798202Y-140845845D01*
X127859773Y-140890580D01*
X127918827Y-140920669D01*
X127951794Y-140937466D01*
X128002590Y-140985440D01*
X128019500Y-141047951D01*
X128019500Y-149452047D01*
X127999815Y-149519086D01*
X127951796Y-149562531D01*
X127859774Y-149609419D01*
X127675061Y-149743622D01*
X127513622Y-149905061D01*
X127379421Y-150089771D01*
X127275770Y-150293196D01*
X127205215Y-150510339D01*
X127169500Y-150735837D01*
X127169500Y-152264162D01*
X127205215Y-152489660D01*
X127275770Y-152706803D01*
X127364284Y-152880520D01*
X127379421Y-152910228D01*
X127513621Y-153094937D01*
X127675063Y-153256379D01*
X127859772Y-153390579D01*
X127955884Y-153439550D01*
X128063196Y-153494229D01*
X128063198Y-153494229D01*
X128063201Y-153494231D01*
X128179592Y-153532049D01*
X128280339Y-153564784D01*
X128505838Y-153600500D01*
X128505843Y-153600500D01*
X128734162Y-153600500D01*
X128959660Y-153564784D01*
X129022044Y-153544514D01*
X129176799Y-153494231D01*
X129380228Y-153390579D01*
X129564937Y-153256379D01*
X129726379Y-153094937D01*
X129860579Y-152910228D01*
X129964231Y-152706799D01*
X130034784Y-152489660D01*
X130048985Y-152399999D01*
X130070500Y-152264162D01*
X130070500Y-150735883D01*
X132170000Y-150735883D01*
X132170000Y-151250000D01*
X133019999Y-151250000D01*
X132994979Y-151310402D01*
X132970000Y-151435981D01*
X132970000Y-151564019D01*
X132994979Y-151689598D01*
X133019999Y-151750000D01*
X132170000Y-151750000D01*
X132170000Y-152264116D01*
X132205704Y-152489544D01*
X132276230Y-152706604D01*
X132379849Y-152909966D01*
X132514004Y-153094614D01*
X132675385Y-153255995D01*
X132860033Y-153390150D01*
X133063395Y-153493769D01*
X133280455Y-153564295D01*
X133370000Y-153578478D01*
X133370000Y-152100001D01*
X133430402Y-152125021D01*
X133555981Y-152150000D01*
X133684019Y-152150000D01*
X133809598Y-152125021D01*
X133870000Y-152100001D01*
X133870000Y-153578477D01*
X133959544Y-153564295D01*
X134176604Y-153493769D01*
X134379966Y-153390150D01*
X134564614Y-153255995D01*
X134725995Y-153094614D01*
X134860150Y-152909966D01*
X134963769Y-152706604D01*
X135034295Y-152489544D01*
X135070000Y-152264116D01*
X135070000Y-151750000D01*
X134220001Y-151750000D01*
X134245021Y-151689598D01*
X134270000Y-151564019D01*
X134270000Y-151435981D01*
X134245021Y-151310402D01*
X134220001Y-151250000D01*
X135070000Y-151250000D01*
X135070000Y-150735883D01*
X135034295Y-150510455D01*
X134963769Y-150293395D01*
X134860150Y-150090033D01*
X134725995Y-149905385D01*
X134564614Y-149744004D01*
X134379966Y-149609849D01*
X134176602Y-149506229D01*
X133959541Y-149435703D01*
X133870000Y-149421521D01*
X133870000Y-150899998D01*
X133809598Y-150874979D01*
X133684019Y-150850000D01*
X133555981Y-150850000D01*
X133430402Y-150874979D01*
X133370000Y-150899998D01*
X133370000Y-149421521D01*
X133369999Y-149421521D01*
X133280458Y-149435703D01*
X133063397Y-149506229D01*
X132860033Y-149609849D01*
X132675385Y-149744004D01*
X132514004Y-149905385D01*
X132379849Y-150090033D01*
X132276230Y-150293395D01*
X132205704Y-150510455D01*
X132170000Y-150735883D01*
X130070500Y-150735883D01*
X130070500Y-150735837D01*
X130034784Y-150510339D01*
X129964229Y-150293196D01*
X129909550Y-150185884D01*
X129860579Y-150089772D01*
X129726379Y-149905063D01*
X129564937Y-149743621D01*
X129380228Y-149609421D01*
X129380227Y-149609420D01*
X129380225Y-149609419D01*
X129288204Y-149562531D01*
X129237409Y-149514556D01*
X129220500Y-149452047D01*
X129220500Y-141047951D01*
X129240185Y-140980912D01*
X129288205Y-140937466D01*
X129380228Y-140890579D01*
X129564937Y-140756379D01*
X129726379Y-140594937D01*
X129860579Y-140410228D01*
X129964231Y-140206799D01*
X130034784Y-139989660D01*
X130036013Y-139981900D01*
X130070500Y-139764162D01*
X130070500Y-138235883D01*
X132170000Y-138235883D01*
X132170000Y-138750000D01*
X133019999Y-138750000D01*
X132994979Y-138810402D01*
X132970000Y-138935981D01*
X132970000Y-139064019D01*
X132994979Y-139189598D01*
X133019999Y-139250000D01*
X132170000Y-139250000D01*
X132170000Y-139764116D01*
X132205704Y-139989544D01*
X132276230Y-140206604D01*
X132379849Y-140409966D01*
X132514004Y-140594614D01*
X132675385Y-140755995D01*
X132860033Y-140890150D01*
X133063395Y-140993769D01*
X133280455Y-141064295D01*
X133370000Y-141078478D01*
X133370000Y-139600001D01*
X133430402Y-139625021D01*
X133555981Y-139650000D01*
X133684019Y-139650000D01*
X133809598Y-139625021D01*
X133870000Y-139600001D01*
X133870000Y-141078477D01*
X133959544Y-141064295D01*
X134176604Y-140993769D01*
X134379966Y-140890150D01*
X134564614Y-140755995D01*
X134725995Y-140594614D01*
X134860150Y-140409966D01*
X134963769Y-140206604D01*
X135034295Y-139989544D01*
X135070000Y-139764116D01*
X135070000Y-139250000D01*
X134220001Y-139250000D01*
X134245021Y-139189598D01*
X134270000Y-139064019D01*
X134270000Y-138935981D01*
X134245021Y-138810402D01*
X134220001Y-138750000D01*
X135070000Y-138750000D01*
X135070000Y-138235883D01*
X135069993Y-138235837D01*
X142719500Y-138235837D01*
X142719500Y-139764162D01*
X142755215Y-139989660D01*
X142825770Y-140206803D01*
X142929288Y-140409966D01*
X142929421Y-140410228D01*
X143063621Y-140594937D01*
X143225063Y-140756379D01*
X143348202Y-140845845D01*
X143409773Y-140890580D01*
X143468827Y-140920669D01*
X143501794Y-140937466D01*
X143552590Y-140985440D01*
X143569500Y-141047951D01*
X143569500Y-149452047D01*
X143549815Y-149519086D01*
X143501796Y-149562531D01*
X143409774Y-149609419D01*
X143225061Y-149743622D01*
X143063622Y-149905061D01*
X142929421Y-150089771D01*
X142825770Y-150293196D01*
X142755215Y-150510339D01*
X142719500Y-150735837D01*
X142719500Y-152264162D01*
X142755215Y-152489660D01*
X142825770Y-152706803D01*
X142914284Y-152880520D01*
X142929421Y-152910228D01*
X143063621Y-153094937D01*
X143225063Y-153256379D01*
X143409772Y-153390579D01*
X143505884Y-153439550D01*
X143613196Y-153494229D01*
X143613198Y-153494229D01*
X143613201Y-153494231D01*
X143729592Y-153532049D01*
X143830339Y-153564784D01*
X144055838Y-153600500D01*
X144055843Y-153600500D01*
X144284162Y-153600500D01*
X144509660Y-153564784D01*
X144572044Y-153544514D01*
X144726799Y-153494231D01*
X144930228Y-153390579D01*
X145114937Y-153256379D01*
X145276379Y-153094937D01*
X145410579Y-152910228D01*
X145514231Y-152706799D01*
X145584784Y-152489660D01*
X145598985Y-152399999D01*
X145620500Y-152264162D01*
X145620500Y-150735883D01*
X147720000Y-150735883D01*
X147720000Y-151250000D01*
X148569999Y-151250000D01*
X148544979Y-151310402D01*
X148520000Y-151435981D01*
X148520000Y-151564019D01*
X148544979Y-151689598D01*
X148569999Y-151750000D01*
X147720000Y-151750000D01*
X147720000Y-152264116D01*
X147755704Y-152489544D01*
X147826230Y-152706604D01*
X147929849Y-152909966D01*
X148064004Y-153094614D01*
X148225385Y-153255995D01*
X148410033Y-153390150D01*
X148613395Y-153493769D01*
X148830455Y-153564295D01*
X148920000Y-153578478D01*
X148920000Y-152100001D01*
X148980402Y-152125021D01*
X149105981Y-152150000D01*
X149234019Y-152150000D01*
X149359598Y-152125021D01*
X149420000Y-152100001D01*
X149420000Y-153578477D01*
X149509544Y-153564295D01*
X149726604Y-153493769D01*
X149929966Y-153390150D01*
X150114614Y-153255995D01*
X150275995Y-153094614D01*
X150410150Y-152909966D01*
X150513769Y-152706604D01*
X150584295Y-152489544D01*
X150620000Y-152264116D01*
X150620000Y-151750000D01*
X149770001Y-151750000D01*
X149795021Y-151689598D01*
X149820000Y-151564019D01*
X149820000Y-151435981D01*
X149795021Y-151310402D01*
X149770001Y-151250000D01*
X150620000Y-151250000D01*
X150620000Y-150735883D01*
X150584295Y-150510455D01*
X150513769Y-150293395D01*
X150410150Y-150090033D01*
X150275995Y-149905385D01*
X150114614Y-149744004D01*
X149929966Y-149609849D01*
X149726602Y-149506229D01*
X149509541Y-149435703D01*
X149420000Y-149421521D01*
X149420000Y-150899998D01*
X149359598Y-150874979D01*
X149234019Y-150850000D01*
X149105981Y-150850000D01*
X148980402Y-150874979D01*
X148920000Y-150899998D01*
X148920000Y-149421521D01*
X148919999Y-149421521D01*
X148830458Y-149435703D01*
X148613397Y-149506229D01*
X148410033Y-149609849D01*
X148225385Y-149744004D01*
X148064004Y-149905385D01*
X147929849Y-150090033D01*
X147826230Y-150293395D01*
X147755704Y-150510455D01*
X147720000Y-150735883D01*
X145620500Y-150735883D01*
X145620500Y-150735837D01*
X145584784Y-150510339D01*
X145514229Y-150293196D01*
X145459550Y-150185884D01*
X145410579Y-150089772D01*
X145276379Y-149905063D01*
X145114937Y-149743621D01*
X144930228Y-149609421D01*
X144930227Y-149609420D01*
X144930225Y-149609419D01*
X144838204Y-149562531D01*
X144787409Y-149514556D01*
X144770500Y-149452047D01*
X144770500Y-141047951D01*
X144790185Y-140980912D01*
X144838205Y-140937466D01*
X144930228Y-140890579D01*
X145114937Y-140756379D01*
X145276379Y-140594937D01*
X145410579Y-140410228D01*
X145514231Y-140206799D01*
X145584784Y-139989660D01*
X145586013Y-139981900D01*
X145620500Y-139764162D01*
X145620500Y-138235883D01*
X147720000Y-138235883D01*
X147720000Y-138750000D01*
X148569999Y-138750000D01*
X148544979Y-138810402D01*
X148520000Y-138935981D01*
X148520000Y-139064019D01*
X148544979Y-139189598D01*
X148569999Y-139250000D01*
X147720000Y-139250000D01*
X147720000Y-139764116D01*
X147755704Y-139989544D01*
X147826230Y-140206604D01*
X147929849Y-140409966D01*
X148064004Y-140594614D01*
X148225385Y-140755995D01*
X148410033Y-140890150D01*
X148613395Y-140993769D01*
X148830455Y-141064295D01*
X148920000Y-141078478D01*
X148920000Y-139600001D01*
X148980402Y-139625021D01*
X149105981Y-139650000D01*
X149234019Y-139650000D01*
X149359598Y-139625021D01*
X149420000Y-139600001D01*
X149420000Y-141078477D01*
X149509544Y-141064295D01*
X149726604Y-140993769D01*
X149929966Y-140890150D01*
X150114614Y-140755995D01*
X150275995Y-140594614D01*
X150410150Y-140409966D01*
X150513769Y-140206604D01*
X150584295Y-139989544D01*
X150620000Y-139764116D01*
X150620000Y-139250000D01*
X149770001Y-139250000D01*
X149795021Y-139189598D01*
X149820000Y-139064019D01*
X149820000Y-138935981D01*
X149795021Y-138810402D01*
X149770001Y-138750000D01*
X150620000Y-138750000D01*
X150620000Y-138235883D01*
X150619993Y-138235837D01*
X158269500Y-138235837D01*
X158269500Y-139764162D01*
X158305215Y-139989660D01*
X158375770Y-140206803D01*
X158479288Y-140409966D01*
X158479421Y-140410228D01*
X158613621Y-140594937D01*
X158775063Y-140756379D01*
X158898202Y-140845845D01*
X158959773Y-140890580D01*
X159018827Y-140920669D01*
X159051794Y-140937466D01*
X159102590Y-140985440D01*
X159119500Y-141047951D01*
X159119500Y-149452047D01*
X159099815Y-149519086D01*
X159051796Y-149562531D01*
X158959774Y-149609419D01*
X158775061Y-149743622D01*
X158613622Y-149905061D01*
X158479421Y-150089771D01*
X158375770Y-150293196D01*
X158305215Y-150510339D01*
X158269500Y-150735837D01*
X158269500Y-152264162D01*
X158305215Y-152489660D01*
X158375770Y-152706803D01*
X158464284Y-152880520D01*
X158479421Y-152910228D01*
X158613621Y-153094937D01*
X158775063Y-153256379D01*
X158959772Y-153390579D01*
X159055884Y-153439550D01*
X159163196Y-153494229D01*
X159163198Y-153494229D01*
X159163201Y-153494231D01*
X159279592Y-153532049D01*
X159380339Y-153564784D01*
X159605838Y-153600500D01*
X159605843Y-153600500D01*
X159834162Y-153600500D01*
X160059660Y-153564784D01*
X160122044Y-153544514D01*
X160276799Y-153494231D01*
X160480228Y-153390579D01*
X160664937Y-153256379D01*
X160826379Y-153094937D01*
X160960579Y-152910228D01*
X161064231Y-152706799D01*
X161134784Y-152489660D01*
X161148985Y-152399999D01*
X161170500Y-152264162D01*
X161170500Y-150735883D01*
X163270000Y-150735883D01*
X163270000Y-151250000D01*
X164119999Y-151250000D01*
X164094979Y-151310402D01*
X164070000Y-151435981D01*
X164070000Y-151564019D01*
X164094979Y-151689598D01*
X164119999Y-151750000D01*
X163270000Y-151750000D01*
X163270000Y-152264116D01*
X163305704Y-152489544D01*
X163376230Y-152706604D01*
X163479849Y-152909966D01*
X163614004Y-153094614D01*
X163775385Y-153255995D01*
X163960033Y-153390150D01*
X164163395Y-153493769D01*
X164380455Y-153564295D01*
X164470000Y-153578478D01*
X164470000Y-152100001D01*
X164530402Y-152125021D01*
X164655981Y-152150000D01*
X164784019Y-152150000D01*
X164909598Y-152125021D01*
X164970000Y-152100001D01*
X164970000Y-153578477D01*
X165059544Y-153564295D01*
X165276604Y-153493769D01*
X165479966Y-153390150D01*
X165664614Y-153255995D01*
X165825995Y-153094614D01*
X165960150Y-152909966D01*
X166063769Y-152706604D01*
X166134295Y-152489544D01*
X166170000Y-152264116D01*
X166170000Y-151750000D01*
X165320001Y-151750000D01*
X165345021Y-151689598D01*
X165370000Y-151564019D01*
X165370000Y-151435981D01*
X165345021Y-151310402D01*
X165320001Y-151250000D01*
X166170000Y-151250000D01*
X166170000Y-150735883D01*
X166169993Y-150735837D01*
X173819500Y-150735837D01*
X173819500Y-152264162D01*
X173855215Y-152489660D01*
X173925770Y-152706803D01*
X174014284Y-152880520D01*
X174029421Y-152910228D01*
X174163621Y-153094937D01*
X174325063Y-153256379D01*
X174509772Y-153390579D01*
X174605884Y-153439550D01*
X174713196Y-153494229D01*
X174713198Y-153494229D01*
X174713201Y-153494231D01*
X174829592Y-153532049D01*
X174930339Y-153564784D01*
X175155838Y-153600500D01*
X175155843Y-153600500D01*
X175384162Y-153600500D01*
X175609660Y-153564784D01*
X175672044Y-153544514D01*
X175826799Y-153494231D01*
X176030228Y-153390579D01*
X176214937Y-153256379D01*
X176376379Y-153094937D01*
X176510579Y-152910228D01*
X176614231Y-152706799D01*
X176684784Y-152489660D01*
X176698985Y-152399999D01*
X176720500Y-152264162D01*
X176720500Y-150735883D01*
X178820000Y-150735883D01*
X178820000Y-151250000D01*
X179669999Y-151250000D01*
X179644979Y-151310402D01*
X179620000Y-151435981D01*
X179620000Y-151564019D01*
X179644979Y-151689598D01*
X179669999Y-151750000D01*
X178820000Y-151750000D01*
X178820000Y-152264116D01*
X178855704Y-152489544D01*
X178926230Y-152706604D01*
X179029849Y-152909966D01*
X179164004Y-153094614D01*
X179325385Y-153255995D01*
X179510033Y-153390150D01*
X179713395Y-153493769D01*
X179930455Y-153564295D01*
X180020000Y-153578478D01*
X180020000Y-152100001D01*
X180080402Y-152125021D01*
X180205981Y-152150000D01*
X180334019Y-152150000D01*
X180459598Y-152125021D01*
X180520000Y-152100001D01*
X180520000Y-153578477D01*
X180609544Y-153564295D01*
X180826604Y-153493769D01*
X181029966Y-153390150D01*
X181214614Y-153255995D01*
X181375995Y-153094614D01*
X181510150Y-152909966D01*
X181613769Y-152706604D01*
X181684295Y-152489544D01*
X181720000Y-152264116D01*
X181720000Y-151750000D01*
X180870001Y-151750000D01*
X180895021Y-151689598D01*
X180920000Y-151564019D01*
X180920000Y-151435981D01*
X180895021Y-151310402D01*
X180870001Y-151250000D01*
X181720000Y-151250000D01*
X181720000Y-150735883D01*
X181684295Y-150510455D01*
X181613769Y-150293395D01*
X181510150Y-150090033D01*
X181375995Y-149905385D01*
X181214614Y-149744004D01*
X181029966Y-149609849D01*
X180826602Y-149506229D01*
X180609541Y-149435703D01*
X180520000Y-149421521D01*
X180520000Y-150899998D01*
X180459598Y-150874979D01*
X180334019Y-150850000D01*
X180205981Y-150850000D01*
X180080402Y-150874979D01*
X180020000Y-150899998D01*
X180020000Y-149421521D01*
X180019999Y-149421521D01*
X179930458Y-149435703D01*
X179713397Y-149506229D01*
X179510033Y-149609849D01*
X179325385Y-149744004D01*
X179164004Y-149905385D01*
X179029849Y-150090033D01*
X178926230Y-150293395D01*
X178855704Y-150510455D01*
X178820000Y-150735883D01*
X176720500Y-150735883D01*
X176720500Y-150735837D01*
X176684784Y-150510339D01*
X176614229Y-150293196D01*
X176559550Y-150185884D01*
X176510579Y-150089772D01*
X176376379Y-149905063D01*
X176214937Y-149743621D01*
X176030228Y-149609421D01*
X176030224Y-149609419D01*
X175826803Y-149505770D01*
X175609660Y-149435215D01*
X175384162Y-149399500D01*
X175384157Y-149399500D01*
X175155843Y-149399500D01*
X175155838Y-149399500D01*
X174930339Y-149435215D01*
X174713196Y-149505770D01*
X174509771Y-149609421D01*
X174325061Y-149743622D01*
X174163622Y-149905061D01*
X174029421Y-150089771D01*
X173925770Y-150293196D01*
X173855215Y-150510339D01*
X173819500Y-150735837D01*
X166169993Y-150735837D01*
X166134295Y-150510455D01*
X166063769Y-150293395D01*
X165960150Y-150090033D01*
X165825995Y-149905385D01*
X165664614Y-149744004D01*
X165479966Y-149609849D01*
X165276602Y-149506229D01*
X165059541Y-149435703D01*
X164970000Y-149421521D01*
X164970000Y-150899998D01*
X164909598Y-150874979D01*
X164784019Y-150850000D01*
X164655981Y-150850000D01*
X164530402Y-150874979D01*
X164470000Y-150899998D01*
X164470000Y-149421521D01*
X164469999Y-149421521D01*
X164380458Y-149435703D01*
X164163397Y-149506229D01*
X163960033Y-149609849D01*
X163775385Y-149744004D01*
X163614004Y-149905385D01*
X163479849Y-150090033D01*
X163376230Y-150293395D01*
X163305704Y-150510455D01*
X163270000Y-150735883D01*
X161170500Y-150735883D01*
X161170500Y-150735837D01*
X161134784Y-150510339D01*
X161064229Y-150293196D01*
X161009550Y-150185884D01*
X160960579Y-150089772D01*
X160826379Y-149905063D01*
X160664937Y-149743621D01*
X160480228Y-149609421D01*
X160480227Y-149609420D01*
X160480225Y-149609419D01*
X160388204Y-149562531D01*
X160337409Y-149514556D01*
X160320500Y-149452047D01*
X160320500Y-141047951D01*
X160340185Y-140980912D01*
X160388205Y-140937466D01*
X160480228Y-140890579D01*
X160664937Y-140756379D01*
X160826379Y-140594937D01*
X160960579Y-140410228D01*
X161064231Y-140206799D01*
X161134784Y-139989660D01*
X161136013Y-139981900D01*
X161170500Y-139764162D01*
X161170500Y-138235883D01*
X163270000Y-138235883D01*
X163270000Y-138750000D01*
X164119999Y-138750000D01*
X164094979Y-138810402D01*
X164070000Y-138935981D01*
X164070000Y-139064019D01*
X164094979Y-139189598D01*
X164119999Y-139250000D01*
X163270000Y-139250000D01*
X163270000Y-139764116D01*
X163305704Y-139989544D01*
X163376230Y-140206604D01*
X163479849Y-140409966D01*
X163614004Y-140594614D01*
X163775385Y-140755995D01*
X163960033Y-140890150D01*
X164163395Y-140993769D01*
X164380455Y-141064295D01*
X164470000Y-141078478D01*
X164470000Y-139600001D01*
X164530402Y-139625021D01*
X164655981Y-139650000D01*
X164784019Y-139650000D01*
X164909598Y-139625021D01*
X164970000Y-139600001D01*
X164970000Y-141078477D01*
X165059544Y-141064295D01*
X165276604Y-140993769D01*
X165479966Y-140890150D01*
X165664614Y-140755995D01*
X165825995Y-140594614D01*
X165960150Y-140409966D01*
X166063769Y-140206604D01*
X166134295Y-139989544D01*
X166170000Y-139764116D01*
X166170000Y-139250000D01*
X165320001Y-139250000D01*
X165345021Y-139189598D01*
X165370000Y-139064019D01*
X165370000Y-138935981D01*
X165345021Y-138810402D01*
X165320001Y-138750000D01*
X166170000Y-138750000D01*
X166170000Y-138235883D01*
X166134295Y-138010455D01*
X166063769Y-137793395D01*
X165960150Y-137590033D01*
X165825995Y-137405385D01*
X165664614Y-137244004D01*
X165479966Y-137109849D01*
X165276602Y-137006229D01*
X165059541Y-136935703D01*
X164970000Y-136921521D01*
X164970000Y-138399998D01*
X164909598Y-138374979D01*
X164784019Y-138350000D01*
X164655981Y-138350000D01*
X164530402Y-138374979D01*
X164470000Y-138399998D01*
X164470000Y-136921521D01*
X164469999Y-136921521D01*
X164380458Y-136935703D01*
X164163397Y-137006229D01*
X163960033Y-137109849D01*
X163775385Y-137244004D01*
X163614004Y-137405385D01*
X163479849Y-137590033D01*
X163376230Y-137793395D01*
X163305704Y-138010455D01*
X163270000Y-138235883D01*
X161170500Y-138235883D01*
X161170500Y-138235837D01*
X161134784Y-138010339D01*
X161064229Y-137793196D01*
X160962220Y-137592993D01*
X160960579Y-137589772D01*
X160826379Y-137405063D01*
X160664937Y-137243621D01*
X160480228Y-137109421D01*
X160480224Y-137109419D01*
X160276803Y-137005770D01*
X160059660Y-136935215D01*
X159834162Y-136899500D01*
X159834157Y-136899500D01*
X159605843Y-136899500D01*
X159605838Y-136899500D01*
X159380339Y-136935215D01*
X159163196Y-137005770D01*
X158959771Y-137109421D01*
X158775061Y-137243622D01*
X158613622Y-137405061D01*
X158479421Y-137589771D01*
X158375770Y-137793196D01*
X158305215Y-138010339D01*
X158269500Y-138235837D01*
X150619993Y-138235837D01*
X150584295Y-138010455D01*
X150513769Y-137793395D01*
X150410150Y-137590033D01*
X150275995Y-137405385D01*
X150114614Y-137244004D01*
X149929966Y-137109849D01*
X149726602Y-137006229D01*
X149509541Y-136935703D01*
X149420000Y-136921521D01*
X149420000Y-138399998D01*
X149359598Y-138374979D01*
X149234019Y-138350000D01*
X149105981Y-138350000D01*
X148980402Y-138374979D01*
X148920000Y-138399998D01*
X148920000Y-136921521D01*
X148919999Y-136921521D01*
X148830458Y-136935703D01*
X148613397Y-137006229D01*
X148410033Y-137109849D01*
X148225385Y-137244004D01*
X148064004Y-137405385D01*
X147929849Y-137590033D01*
X147826230Y-137793395D01*
X147755704Y-138010455D01*
X147720000Y-138235883D01*
X145620500Y-138235883D01*
X145620500Y-138235837D01*
X145584784Y-138010339D01*
X145514229Y-137793196D01*
X145412220Y-137592993D01*
X145410579Y-137589772D01*
X145276379Y-137405063D01*
X145114937Y-137243621D01*
X144930228Y-137109421D01*
X144930224Y-137109419D01*
X144726803Y-137005770D01*
X144509660Y-136935215D01*
X144284162Y-136899500D01*
X144284157Y-136899500D01*
X144055843Y-136899500D01*
X144055838Y-136899500D01*
X143830339Y-136935215D01*
X143613196Y-137005770D01*
X143409771Y-137109421D01*
X143225061Y-137243622D01*
X143063622Y-137405061D01*
X142929421Y-137589771D01*
X142825770Y-137793196D01*
X142755215Y-138010339D01*
X142719500Y-138235837D01*
X135069993Y-138235837D01*
X135034295Y-138010455D01*
X134963769Y-137793395D01*
X134860150Y-137590033D01*
X134725995Y-137405385D01*
X134564614Y-137244004D01*
X134379966Y-137109849D01*
X134176602Y-137006229D01*
X133959541Y-136935703D01*
X133870000Y-136921521D01*
X133870000Y-138399998D01*
X133809598Y-138374979D01*
X133684019Y-138350000D01*
X133555981Y-138350000D01*
X133430402Y-138374979D01*
X133370000Y-138399998D01*
X133370000Y-136921521D01*
X133369999Y-136921521D01*
X133280458Y-136935703D01*
X133063397Y-137006229D01*
X132860033Y-137109849D01*
X132675385Y-137244004D01*
X132514004Y-137405385D01*
X132379849Y-137590033D01*
X132276230Y-137793395D01*
X132205704Y-138010455D01*
X132170000Y-138235883D01*
X130070500Y-138235883D01*
X130070500Y-138235837D01*
X130034784Y-138010339D01*
X129964229Y-137793196D01*
X129862220Y-137592993D01*
X129860579Y-137589772D01*
X129726379Y-137405063D01*
X129564937Y-137243621D01*
X129380228Y-137109421D01*
X129380224Y-137109419D01*
X129176803Y-137005770D01*
X128959660Y-136935215D01*
X128734162Y-136899500D01*
X128734157Y-136899500D01*
X128505843Y-136899500D01*
X128505838Y-136899500D01*
X128280339Y-136935215D01*
X128063196Y-137005770D01*
X127859769Y-137109422D01*
X127782629Y-137165467D01*
X127716823Y-137188946D01*
X127648769Y-137173120D01*
X127622064Y-137152829D01*
X125096819Y-134627584D01*
X125063334Y-134566261D01*
X125060500Y-134539903D01*
X125060500Y-102573750D01*
X125080185Y-102506711D01*
X125096815Y-102486073D01*
X125535723Y-102047164D01*
X125597044Y-102013681D01*
X125666735Y-102018665D01*
X125722669Y-102060536D01*
X125741331Y-102096525D01*
X125746010Y-102110926D01*
X125748444Y-102118416D01*
X125844951Y-102307820D01*
X125969890Y-102479786D01*
X126120213Y-102630109D01*
X126292182Y-102755050D01*
X126300946Y-102759516D01*
X126351742Y-102807491D01*
X126368536Y-102875312D01*
X126345998Y-102941447D01*
X126300946Y-102980484D01*
X126292182Y-102984949D01*
X126120213Y-103109890D01*
X125969890Y-103260213D01*
X125844951Y-103432179D01*
X125748444Y-103621585D01*
X125682753Y-103823760D01*
X125649500Y-104033713D01*
X125649500Y-104246286D01*
X125682753Y-104456239D01*
X125748444Y-104658414D01*
X125844951Y-104847820D01*
X125969890Y-105019786D01*
X126120213Y-105170109D01*
X126292182Y-105295050D01*
X126300946Y-105299516D01*
X126351742Y-105347491D01*
X126368536Y-105415312D01*
X126345998Y-105481447D01*
X126300946Y-105520484D01*
X126292182Y-105524949D01*
X126120213Y-105649890D01*
X125969890Y-105800213D01*
X125844951Y-105972179D01*
X125748444Y-106161585D01*
X125682753Y-106363760D01*
X125649500Y-106573713D01*
X125649500Y-106786286D01*
X125682753Y-106996239D01*
X125748444Y-107198414D01*
X125844951Y-107387820D01*
X125969890Y-107559786D01*
X126120213Y-107710109D01*
X126292182Y-107835050D01*
X126300946Y-107839516D01*
X126351742Y-107887491D01*
X126368536Y-107955312D01*
X126345998Y-108021447D01*
X126300946Y-108060484D01*
X126292182Y-108064949D01*
X126120213Y-108189890D01*
X125969890Y-108340213D01*
X125844951Y-108512179D01*
X125748444Y-108701585D01*
X125682753Y-108903760D01*
X125664815Y-109017016D01*
X125649500Y-109113713D01*
X125649500Y-109326287D01*
X125682754Y-109536243D01*
X125746194Y-109731491D01*
X125748444Y-109738414D01*
X125844951Y-109927820D01*
X125969890Y-110099786D01*
X126120213Y-110250109D01*
X126292182Y-110375050D01*
X126300946Y-110379516D01*
X126351742Y-110427491D01*
X126368536Y-110495312D01*
X126345998Y-110561447D01*
X126300946Y-110600484D01*
X126292182Y-110604949D01*
X126120213Y-110729890D01*
X125969890Y-110880213D01*
X125844951Y-111052179D01*
X125748444Y-111241585D01*
X125682753Y-111443760D01*
X125649500Y-111653713D01*
X125649500Y-111866286D01*
X125682753Y-112076239D01*
X125682753Y-112076241D01*
X125682754Y-112076243D01*
X125737431Y-112244522D01*
X125748444Y-112278414D01*
X125844951Y-112467820D01*
X125969890Y-112639786D01*
X126120213Y-112790109D01*
X126292179Y-112915048D01*
X126292181Y-112915049D01*
X126292184Y-112915051D01*
X126301493Y-112919794D01*
X126352290Y-112967766D01*
X126369087Y-113035587D01*
X126346552Y-113101722D01*
X126301505Y-113140760D01*
X126292446Y-113145376D01*
X126292440Y-113145380D01*
X126238282Y-113184727D01*
X126238282Y-113184728D01*
X126870591Y-113817037D01*
X126807007Y-113834075D01*
X126692993Y-113899901D01*
X126599901Y-113992993D01*
X126534075Y-114107007D01*
X126517037Y-114170591D01*
X125884728Y-113538282D01*
X125884727Y-113538282D01*
X125845380Y-113592439D01*
X125748904Y-113781782D01*
X125683242Y-113983869D01*
X125683242Y-113983872D01*
X125650000Y-114193753D01*
X125650000Y-114406246D01*
X125683242Y-114616127D01*
X125683242Y-114616130D01*
X125748904Y-114818217D01*
X125845375Y-115007550D01*
X125884728Y-115061716D01*
X126517037Y-114429408D01*
X126534075Y-114492993D01*
X126599901Y-114607007D01*
X126692993Y-114700099D01*
X126807007Y-114765925D01*
X126870590Y-114782962D01*
X126238282Y-115415269D01*
X126238282Y-115415270D01*
X126292452Y-115454626D01*
X126292451Y-115454626D01*
X126301495Y-115459234D01*
X126352292Y-115507208D01*
X126369087Y-115575029D01*
X126346550Y-115641164D01*
X126301499Y-115680202D01*
X126292182Y-115684949D01*
X126120213Y-115809890D01*
X125969890Y-115960213D01*
X125844951Y-116132179D01*
X125748444Y-116321585D01*
X125682753Y-116523760D01*
X125649500Y-116733713D01*
X125649500Y-116946286D01*
X125682753Y-117156239D01*
X125682753Y-117156241D01*
X125682754Y-117156243D01*
X125737431Y-117324522D01*
X125748444Y-117358414D01*
X125844951Y-117547820D01*
X125969890Y-117719786D01*
X126120213Y-117870109D01*
X126292182Y-117995050D01*
X126300946Y-117999516D01*
X126351742Y-118047491D01*
X126368536Y-118115312D01*
X126345998Y-118181447D01*
X126300946Y-118220484D01*
X126292182Y-118224949D01*
X126120213Y-118349890D01*
X125969890Y-118500213D01*
X125844951Y-118672179D01*
X125748444Y-118861585D01*
X125682753Y-119063760D01*
X125670661Y-119140109D01*
X125649500Y-119273713D01*
X125649500Y-119486287D01*
X125682754Y-119696243D01*
X125737431Y-119864522D01*
X125748444Y-119898414D01*
X125844951Y-120087820D01*
X125969890Y-120259786D01*
X126120213Y-120410109D01*
X126292182Y-120535050D01*
X126300946Y-120539516D01*
X126351742Y-120587491D01*
X126368536Y-120655312D01*
X126345998Y-120721447D01*
X126300946Y-120760484D01*
X126292182Y-120764949D01*
X126120213Y-120889890D01*
X125969890Y-121040213D01*
X125844951Y-121212179D01*
X125748444Y-121401585D01*
X125682753Y-121603760D01*
X125657625Y-121762413D01*
X125649500Y-121813713D01*
X125649500Y-122026287D01*
X125650940Y-122035380D01*
X125682735Y-122236127D01*
X125682754Y-122236243D01*
X125747937Y-122436856D01*
X125748444Y-122438414D01*
X125844951Y-122627820D01*
X125969890Y-122799786D01*
X126120213Y-122950109D01*
X126292182Y-123075050D01*
X126300946Y-123079516D01*
X126351742Y-123127491D01*
X126368536Y-123195312D01*
X126345998Y-123261447D01*
X126300946Y-123300484D01*
X126292182Y-123304949D01*
X126120213Y-123429890D01*
X126120209Y-123429894D01*
X125969896Y-123580208D01*
X125969890Y-123580213D01*
X125844951Y-123752179D01*
X125748444Y-123941585D01*
X125682753Y-124143760D01*
X125649500Y-124353713D01*
X125649500Y-124566286D01*
X125673072Y-124715117D01*
X125682754Y-124776243D01*
X125741615Y-124957399D01*
X125748444Y-124978414D01*
X125844951Y-125167820D01*
X125969890Y-125339786D01*
X126120213Y-125490109D01*
X126292182Y-125615050D01*
X126300946Y-125619516D01*
X126351742Y-125667491D01*
X126368536Y-125735312D01*
X126345998Y-125801447D01*
X126300946Y-125840484D01*
X126292182Y-125844949D01*
X126120213Y-125969890D01*
X125969890Y-126120213D01*
X125844951Y-126292179D01*
X125748444Y-126481585D01*
X125682753Y-126683760D01*
X125677707Y-126715621D01*
X125649500Y-126893713D01*
X125649500Y-127106287D01*
X125649946Y-127109100D01*
X125675230Y-127268742D01*
X125682754Y-127316243D01*
X125742530Y-127500215D01*
X125748444Y-127518414D01*
X125844951Y-127707820D01*
X125969890Y-127879786D01*
X126120213Y-128030109D01*
X126292179Y-128155048D01*
X126292181Y-128155049D01*
X126292184Y-128155051D01*
X126301493Y-128159794D01*
X126352290Y-128207766D01*
X126369087Y-128275587D01*
X126346552Y-128341722D01*
X126301505Y-128380760D01*
X126292446Y-128385376D01*
X126292440Y-128385380D01*
X126238282Y-128424727D01*
X126238282Y-128424728D01*
X126870591Y-129057037D01*
X126807007Y-129074075D01*
X126692993Y-129139901D01*
X126599901Y-129232993D01*
X126534075Y-129347007D01*
X126517037Y-129410591D01*
X125884728Y-128778282D01*
X125884727Y-128778282D01*
X125845380Y-128832439D01*
X125748904Y-129021782D01*
X125683242Y-129223869D01*
X125683242Y-129223872D01*
X125650000Y-129433753D01*
X125650000Y-129646246D01*
X125683242Y-129856127D01*
X125683242Y-129856130D01*
X125748904Y-130058217D01*
X125845375Y-130247550D01*
X125884728Y-130301716D01*
X126517037Y-129669408D01*
X126534075Y-129732993D01*
X126599901Y-129847007D01*
X126692993Y-129940099D01*
X126807007Y-130005925D01*
X126870590Y-130022962D01*
X126238282Y-130655269D01*
X126238282Y-130655270D01*
X126292449Y-130694624D01*
X126481782Y-130791095D01*
X126683870Y-130856757D01*
X126893754Y-130890000D01*
X127106246Y-130890000D01*
X127316127Y-130856757D01*
X127316130Y-130856757D01*
X127518217Y-130791095D01*
X127707554Y-130694622D01*
X127761716Y-130655270D01*
X127761717Y-130655270D01*
X127129408Y-130022962D01*
X127192993Y-130005925D01*
X127307007Y-129940099D01*
X127400099Y-129847007D01*
X127465925Y-129732993D01*
X127482962Y-129669408D01*
X128115270Y-130301717D01*
X128115270Y-130301716D01*
X128154622Y-130247554D01*
X128251095Y-130058217D01*
X128316757Y-129856130D01*
X128316757Y-129856127D01*
X128350000Y-129646246D01*
X128350000Y-129433753D01*
X128316757Y-129223872D01*
X128316757Y-129223869D01*
X128251095Y-129021782D01*
X128154624Y-128832449D01*
X128115270Y-128778282D01*
X128115269Y-128778282D01*
X127482962Y-129410590D01*
X127465925Y-129347007D01*
X127400099Y-129232993D01*
X127307007Y-129139901D01*
X127192993Y-129074075D01*
X127129409Y-129057037D01*
X127761716Y-128424728D01*
X127707547Y-128385373D01*
X127707547Y-128385372D01*
X127698500Y-128380763D01*
X127647706Y-128332788D01*
X127630912Y-128264966D01*
X127653451Y-128198832D01*
X127698508Y-128159793D01*
X127707816Y-128155051D01*
X127787007Y-128097515D01*
X127879786Y-128030109D01*
X127879788Y-128030106D01*
X127879792Y-128030104D01*
X128030104Y-127879792D01*
X128030106Y-127879788D01*
X128030109Y-127879786D01*
X128155048Y-127707820D01*
X128155047Y-127707820D01*
X128155051Y-127707816D01*
X128251557Y-127518412D01*
X128317246Y-127316243D01*
X128350500Y-127106287D01*
X128350500Y-126893713D01*
X128317246Y-126683757D01*
X128251557Y-126481588D01*
X128155051Y-126292184D01*
X128155049Y-126292181D01*
X128155048Y-126292179D01*
X128030109Y-126120213D01*
X127879786Y-125969890D01*
X127707820Y-125844951D01*
X127707115Y-125844591D01*
X127699054Y-125840485D01*
X127648259Y-125792512D01*
X127631463Y-125724692D01*
X127653999Y-125658556D01*
X127699054Y-125619515D01*
X127707816Y-125615051D01*
X127729789Y-125599086D01*
X127879786Y-125490109D01*
X127879788Y-125490106D01*
X127879792Y-125490104D01*
X128030104Y-125339792D01*
X128030106Y-125339788D01*
X128030109Y-125339786D01*
X128155048Y-125167820D01*
X128155047Y-125167820D01*
X128155051Y-125167816D01*
X128251557Y-124978412D01*
X128317246Y-124776243D01*
X128350500Y-124566287D01*
X128350500Y-124353713D01*
X128317246Y-124143757D01*
X128251557Y-123941588D01*
X128205296Y-123850795D01*
X128192400Y-123782125D01*
X128218677Y-123717385D01*
X128275783Y-123677128D01*
X128315781Y-123670500D01*
X138384219Y-123670500D01*
X138451258Y-123690185D01*
X138497013Y-123742989D01*
X138506957Y-123812147D01*
X138494704Y-123850795D01*
X138448444Y-123941585D01*
X138382753Y-124143760D01*
X138349500Y-124353713D01*
X138349500Y-124566286D01*
X138373072Y-124715117D01*
X138382754Y-124776243D01*
X138441615Y-124957399D01*
X138448444Y-124978414D01*
X138544951Y-125167820D01*
X138669890Y-125339786D01*
X138820213Y-125490109D01*
X138992182Y-125615050D01*
X139000946Y-125619516D01*
X139051742Y-125667491D01*
X139068536Y-125735312D01*
X139045998Y-125801447D01*
X139000946Y-125840484D01*
X138992182Y-125844949D01*
X138820213Y-125969890D01*
X138669890Y-126120213D01*
X138544951Y-126292179D01*
X138448444Y-126481585D01*
X138382753Y-126683760D01*
X138377707Y-126715621D01*
X138349500Y-126893713D01*
X138349500Y-127106287D01*
X138349946Y-127109100D01*
X138375230Y-127268742D01*
X138382754Y-127316243D01*
X138442530Y-127500215D01*
X138448444Y-127518414D01*
X138544951Y-127707820D01*
X138669890Y-127879786D01*
X138820213Y-128030109D01*
X138992182Y-128155050D01*
X139000946Y-128159516D01*
X139051742Y-128207491D01*
X139068536Y-128275312D01*
X139045998Y-128341447D01*
X139000946Y-128380484D01*
X138992182Y-128384949D01*
X138820213Y-128509890D01*
X138669890Y-128660213D01*
X138544951Y-128832179D01*
X138448444Y-129021585D01*
X138382753Y-129223760D01*
X138349500Y-129433713D01*
X138349500Y-129646286D01*
X138382753Y-129856239D01*
X138448444Y-130058414D01*
X138544951Y-130247820D01*
X138669890Y-130419786D01*
X138820213Y-130570109D01*
X138992179Y-130695048D01*
X138992181Y-130695049D01*
X138992184Y-130695051D01*
X139181588Y-130791557D01*
X139383757Y-130857246D01*
X139593713Y-130890500D01*
X139593714Y-130890500D01*
X139806286Y-130890500D01*
X139806287Y-130890500D01*
X140016243Y-130857246D01*
X140218412Y-130791557D01*
X140407816Y-130695051D01*
X140462572Y-130655269D01*
X140579786Y-130570109D01*
X140579788Y-130570106D01*
X140579792Y-130570104D01*
X140730104Y-130419792D01*
X140730106Y-130419788D01*
X140730109Y-130419786D01*
X140855048Y-130247820D01*
X140855047Y-130247820D01*
X140855051Y-130247816D01*
X140951557Y-130058412D01*
X141017246Y-129856243D01*
X141050500Y-129646287D01*
X141050500Y-129433713D01*
X141017246Y-129223757D01*
X140951557Y-129021588D01*
X140855051Y-128832184D01*
X140855049Y-128832181D01*
X140855048Y-128832179D01*
X140730109Y-128660213D01*
X140579786Y-128509890D01*
X140407820Y-128384951D01*
X140399600Y-128380763D01*
X140399054Y-128380485D01*
X140348259Y-128332512D01*
X140331463Y-128264692D01*
X140353999Y-128198556D01*
X140399054Y-128159515D01*
X140407816Y-128155051D01*
X140429789Y-128139086D01*
X140579786Y-128030109D01*
X140579788Y-128030106D01*
X140579792Y-128030104D01*
X140730104Y-127879792D01*
X140730106Y-127879788D01*
X140730109Y-127879786D01*
X140855048Y-127707820D01*
X140855047Y-127707820D01*
X140855051Y-127707816D01*
X140951557Y-127518412D01*
X141017246Y-127316243D01*
X141050500Y-127106287D01*
X141050500Y-126893713D01*
X141017246Y-126683757D01*
X140951557Y-126481588D01*
X140855051Y-126292184D01*
X140855049Y-126292181D01*
X140855048Y-126292179D01*
X140730109Y-126120213D01*
X140579786Y-125969890D01*
X140407820Y-125844951D01*
X140407115Y-125844591D01*
X140399054Y-125840485D01*
X140348259Y-125792512D01*
X140331463Y-125724692D01*
X140353999Y-125658556D01*
X140399054Y-125619515D01*
X140407816Y-125615051D01*
X140429789Y-125599086D01*
X140579786Y-125490109D01*
X140579788Y-125490106D01*
X140579792Y-125490104D01*
X140599206Y-125470690D01*
X150045878Y-125470690D01*
X150045878Y-125732945D01*
X150060625Y-125844951D01*
X150080108Y-125992934D01*
X150139457Y-126214428D01*
X150147980Y-126246236D01*
X150147983Y-126246246D01*
X150248331Y-126488508D01*
X150248336Y-126488518D01*
X150379453Y-126715621D01*
X150539096Y-126923669D01*
X150539104Y-126923678D01*
X150724518Y-127109092D01*
X150724526Y-127109099D01*
X150932574Y-127268742D01*
X151159677Y-127399859D01*
X151159687Y-127399864D01*
X151401949Y-127500212D01*
X151401959Y-127500216D01*
X151655262Y-127568088D01*
X151915258Y-127602318D01*
X151915265Y-127602318D01*
X152177491Y-127602318D01*
X152177498Y-127602318D01*
X152437494Y-127568088D01*
X152690797Y-127500216D01*
X152933075Y-127399861D01*
X153160181Y-127268742D01*
X153368229Y-127109100D01*
X153368233Y-127109095D01*
X153368238Y-127109092D01*
X153553652Y-126923678D01*
X153553655Y-126923673D01*
X153553660Y-126923669D01*
X153713302Y-126715621D01*
X153844421Y-126488515D01*
X153857601Y-126456697D01*
X153944772Y-126246246D01*
X153944776Y-126246237D01*
X154012648Y-125992934D01*
X154046878Y-125732938D01*
X154046878Y-125470698D01*
X154012648Y-125210702D01*
X153944776Y-124957399D01*
X153931597Y-124925581D01*
X153844424Y-124715127D01*
X153844419Y-124715117D01*
X153713302Y-124488014D01*
X153553659Y-124279966D01*
X153553652Y-124279958D01*
X153368238Y-124094544D01*
X153368229Y-124094536D01*
X153160181Y-123934893D01*
X152933078Y-123803776D01*
X152933068Y-123803771D01*
X152690806Y-123703423D01*
X152690799Y-123703421D01*
X152690797Y-123703420D01*
X152437494Y-123635548D01*
X152379717Y-123627941D01*
X152177505Y-123601318D01*
X152177498Y-123601318D01*
X151915258Y-123601318D01*
X151915250Y-123601318D01*
X151700630Y-123629575D01*
X151655262Y-123635548D01*
X151451353Y-123690185D01*
X151401959Y-123703420D01*
X151401949Y-123703423D01*
X151159687Y-123803771D01*
X151159677Y-123803776D01*
X150932574Y-123934893D01*
X150724526Y-124094536D01*
X150539096Y-124279966D01*
X150379453Y-124488014D01*
X150248336Y-124715117D01*
X150248331Y-124715127D01*
X150147983Y-124957389D01*
X150147980Y-124957399D01*
X150088634Y-125178885D01*
X150080108Y-125210703D01*
X150045878Y-125470690D01*
X140599206Y-125470690D01*
X140730104Y-125339792D01*
X140730106Y-125339788D01*
X140730109Y-125339786D01*
X140855048Y-125167820D01*
X140855047Y-125167820D01*
X140855051Y-125167816D01*
X140951557Y-124978412D01*
X141017246Y-124776243D01*
X141050500Y-124566287D01*
X141050500Y-124353713D01*
X141017246Y-124143757D01*
X140951557Y-123941588D01*
X140905296Y-123850795D01*
X140892400Y-123782125D01*
X140918677Y-123717385D01*
X140975783Y-123677128D01*
X141015781Y-123670500D01*
X146083331Y-123670500D01*
X146083347Y-123670501D01*
X146090943Y-123670501D01*
X146249054Y-123670501D01*
X146249057Y-123670501D01*
X146401785Y-123629577D01*
X146487294Y-123580208D01*
X146538716Y-123550520D01*
X146650520Y-123438716D01*
X146650520Y-123438714D01*
X146660724Y-123428511D01*
X146660728Y-123428506D01*
X148298321Y-121790912D01*
X148359642Y-121757429D01*
X148429334Y-121762413D01*
X148485267Y-121804285D01*
X148509684Y-121869749D01*
X148510000Y-121878595D01*
X148510000Y-122026246D01*
X148543242Y-122236127D01*
X148543242Y-122236130D01*
X148608904Y-122438217D01*
X148705375Y-122627550D01*
X148744728Y-122681716D01*
X149377037Y-122049408D01*
X149394075Y-122112993D01*
X149459901Y-122227007D01*
X149552993Y-122320099D01*
X149667007Y-122385925D01*
X149730590Y-122402962D01*
X149098282Y-123035269D01*
X149098282Y-123035270D01*
X149152449Y-123074624D01*
X149341782Y-123171095D01*
X149543870Y-123236757D01*
X149753754Y-123270000D01*
X149966246Y-123270000D01*
X150176127Y-123236757D01*
X150176130Y-123236757D01*
X150378217Y-123171095D01*
X150567554Y-123074622D01*
X150621716Y-123035270D01*
X150621717Y-123035270D01*
X149989408Y-122402962D01*
X150052993Y-122385925D01*
X150167007Y-122320099D01*
X150260099Y-122227007D01*
X150325925Y-122112993D01*
X150342962Y-122049408D01*
X150975270Y-122681717D01*
X150975270Y-122681716D01*
X151014622Y-122627554D01*
X151111095Y-122438217D01*
X151176757Y-122236130D01*
X151176757Y-122236127D01*
X151210000Y-122026246D01*
X151210000Y-121813753D01*
X151176757Y-121603872D01*
X151176757Y-121603869D01*
X151111095Y-121401782D01*
X151014624Y-121212449D01*
X150975270Y-121158282D01*
X150975269Y-121158282D01*
X150342962Y-121790590D01*
X150325925Y-121727007D01*
X150260099Y-121612993D01*
X150167007Y-121519901D01*
X150052993Y-121454075D01*
X149989408Y-121437037D01*
X150621716Y-120804728D01*
X150567547Y-120765373D01*
X150567547Y-120765372D01*
X150558500Y-120760763D01*
X150507706Y-120712788D01*
X150490912Y-120644966D01*
X150513451Y-120578832D01*
X150558508Y-120539793D01*
X150567816Y-120535051D01*
X150675235Y-120457007D01*
X150739786Y-120410109D01*
X150739788Y-120410106D01*
X150739792Y-120410104D01*
X150890104Y-120259792D01*
X150890106Y-120259788D01*
X150890109Y-120259786D01*
X150983108Y-120131782D01*
X151015051Y-120087816D01*
X151015349Y-120087230D01*
X151035235Y-120048205D01*
X151083209Y-119997409D01*
X151145719Y-119980500D01*
X152384281Y-119980500D01*
X152451320Y-120000185D01*
X152494765Y-120048205D01*
X152514947Y-120087814D01*
X152514948Y-120087815D01*
X152639890Y-120259786D01*
X152790213Y-120410109D01*
X152962179Y-120535048D01*
X152962181Y-120535049D01*
X152962184Y-120535051D01*
X152971493Y-120539794D01*
X153022290Y-120587766D01*
X153039087Y-120655587D01*
X153016552Y-120721722D01*
X152971505Y-120760760D01*
X152962446Y-120765376D01*
X152962440Y-120765380D01*
X152908282Y-120804727D01*
X152908282Y-120804728D01*
X153540591Y-121437037D01*
X153477007Y-121454075D01*
X153362993Y-121519901D01*
X153269901Y-121612993D01*
X153204075Y-121727007D01*
X153187037Y-121790591D01*
X152554728Y-121158282D01*
X152554727Y-121158282D01*
X152515380Y-121212439D01*
X152418904Y-121401782D01*
X152353242Y-121603869D01*
X152353242Y-121603872D01*
X152320000Y-121813753D01*
X152320000Y-122026246D01*
X152353242Y-122236127D01*
X152353242Y-122236130D01*
X152418904Y-122438217D01*
X152515375Y-122627550D01*
X152554728Y-122681716D01*
X153187037Y-122049408D01*
X153204075Y-122112993D01*
X153269901Y-122227007D01*
X153362993Y-122320099D01*
X153477007Y-122385925D01*
X153540590Y-122402962D01*
X152908282Y-123035269D01*
X152908282Y-123035270D01*
X152962449Y-123074624D01*
X153151782Y-123171095D01*
X153353870Y-123236757D01*
X153563754Y-123270000D01*
X153776246Y-123270000D01*
X153986127Y-123236757D01*
X153986130Y-123236757D01*
X154188217Y-123171095D01*
X154377554Y-123074622D01*
X154431716Y-123035270D01*
X154431717Y-123035270D01*
X153799408Y-122402962D01*
X153862993Y-122385925D01*
X153977007Y-122320099D01*
X154070099Y-122227007D01*
X154135925Y-122112993D01*
X154152962Y-122049408D01*
X154785270Y-122681717D01*
X154785270Y-122681716D01*
X154824622Y-122627554D01*
X154921095Y-122438217D01*
X154986757Y-122236130D01*
X154986757Y-122236127D01*
X155020000Y-122026246D01*
X155020000Y-121813753D01*
X154986757Y-121603872D01*
X154986757Y-121603869D01*
X154921095Y-121401782D01*
X154824624Y-121212449D01*
X154785270Y-121158282D01*
X154785269Y-121158282D01*
X154152962Y-121790590D01*
X154135925Y-121727007D01*
X154070099Y-121612993D01*
X153977007Y-121519901D01*
X153862993Y-121454075D01*
X153799409Y-121437037D01*
X154431716Y-120804728D01*
X154377547Y-120765373D01*
X154377547Y-120765372D01*
X154368500Y-120760763D01*
X154317706Y-120712788D01*
X154300912Y-120644966D01*
X154323451Y-120578832D01*
X154368508Y-120539793D01*
X154377816Y-120535051D01*
X154485235Y-120457007D01*
X154549786Y-120410109D01*
X154549788Y-120410106D01*
X154549792Y-120410104D01*
X154700104Y-120259792D01*
X154700106Y-120259788D01*
X154700109Y-120259786D01*
X154825048Y-120087820D01*
X154825047Y-120087820D01*
X154825051Y-120087816D01*
X154921557Y-119898412D01*
X154987246Y-119696243D01*
X155020500Y-119486287D01*
X155020500Y-119273713D01*
X154987246Y-119063757D01*
X154921557Y-118861588D01*
X154825051Y-118672184D01*
X154825049Y-118672181D01*
X154825048Y-118672179D01*
X154700109Y-118500213D01*
X154549786Y-118349890D01*
X154377820Y-118224951D01*
X154377115Y-118224591D01*
X154369054Y-118220485D01*
X154318259Y-118172512D01*
X154301463Y-118104692D01*
X154323999Y-118038556D01*
X154369054Y-117999515D01*
X154377816Y-117995051D01*
X154399789Y-117979086D01*
X154549786Y-117870109D01*
X154549788Y-117870106D01*
X154549792Y-117870104D01*
X154700104Y-117719792D01*
X154700106Y-117719788D01*
X154700109Y-117719786D01*
X154825050Y-117547817D01*
X154825052Y-117547815D01*
X154858914Y-117481355D01*
X154906888Y-117430559D01*
X154974709Y-117413764D01*
X155040844Y-117436301D01*
X155057080Y-117449969D01*
X172083181Y-134476070D01*
X172116666Y-134537393D01*
X172119500Y-134563751D01*
X172119500Y-139613330D01*
X172119499Y-139613348D01*
X172119499Y-139779054D01*
X172119498Y-139779054D01*
X172160423Y-139931785D01*
X172189358Y-139981900D01*
X172189359Y-139981904D01*
X172189360Y-139981904D01*
X172239479Y-140068714D01*
X172239481Y-140068717D01*
X172358349Y-140187585D01*
X172358355Y-140187590D01*
X184935139Y-152764374D01*
X184935149Y-152764385D01*
X184939479Y-152768715D01*
X184939480Y-152768716D01*
X185051284Y-152880520D01*
X185138095Y-152930639D01*
X185138097Y-152930641D01*
X185188213Y-152959576D01*
X185188215Y-152959577D01*
X185340942Y-153000500D01*
X185340943Y-153000500D01*
X190145501Y-153000500D01*
X190212540Y-153020185D01*
X190258295Y-153072989D01*
X190269501Y-153124500D01*
X190269501Y-153447876D01*
X190275908Y-153507483D01*
X190326202Y-153642328D01*
X190326206Y-153642335D01*
X190412452Y-153757544D01*
X190412455Y-153757547D01*
X190527664Y-153843793D01*
X190527671Y-153843797D01*
X190662517Y-153894091D01*
X190662516Y-153894091D01*
X190669444Y-153894835D01*
X190722127Y-153900500D01*
X192817872Y-153900499D01*
X192877483Y-153894091D01*
X193012331Y-153843796D01*
X193127546Y-153757546D01*
X193213796Y-153642331D01*
X193213796Y-153642329D01*
X193215989Y-153639401D01*
X193271923Y-153597530D01*
X193341615Y-153592546D01*
X193388142Y-153613394D01*
X193483828Y-153682914D01*
X193694197Y-153790102D01*
X193918752Y-153863065D01*
X193918751Y-153863065D01*
X194151948Y-153900000D01*
X194388052Y-153900000D01*
X194621247Y-153863065D01*
X194845802Y-153790102D01*
X195056163Y-153682918D01*
X195056169Y-153682914D01*
X195139104Y-153622658D01*
X195139105Y-153622658D01*
X194399409Y-152882962D01*
X194462993Y-152865925D01*
X194577007Y-152800099D01*
X194670099Y-152707007D01*
X194735925Y-152592993D01*
X194752962Y-152529408D01*
X195499270Y-153275717D01*
X195542943Y-153284891D01*
X195584614Y-153321259D01*
X195625483Y-153377510D01*
X195792490Y-153544517D01*
X195983567Y-153683343D01*
X196053373Y-153718911D01*
X196194003Y-153790566D01*
X196194005Y-153790566D01*
X196194008Y-153790568D01*
X196314412Y-153829689D01*
X196418631Y-153863553D01*
X196651903Y-153900500D01*
X196651908Y-153900500D01*
X196888097Y-153900500D01*
X197121368Y-153863553D01*
X197136590Y-153858607D01*
X197345992Y-153790568D01*
X197556433Y-153683343D01*
X197747510Y-153544517D01*
X197914517Y-153377510D01*
X198053343Y-153186433D01*
X198160568Y-152975992D01*
X198233553Y-152751368D01*
X198240643Y-152706604D01*
X198270500Y-152518097D01*
X198270500Y-152285258D01*
X206529500Y-152285258D01*
X206529500Y-152514741D01*
X206539803Y-152592993D01*
X206559452Y-152742238D01*
X206596504Y-152880520D01*
X206618842Y-152963887D01*
X206706650Y-153175876D01*
X206706657Y-153175890D01*
X206821392Y-153374617D01*
X206961081Y-153556661D01*
X206961089Y-153556670D01*
X207123330Y-153718911D01*
X207123338Y-153718918D01*
X207305382Y-153858607D01*
X207305385Y-153858608D01*
X207305388Y-153858611D01*
X207504112Y-153973344D01*
X207504117Y-153973346D01*
X207504123Y-153973349D01*
X207595480Y-154011190D01*
X207716113Y-154061158D01*
X207937762Y-154120548D01*
X208165266Y-154150500D01*
X208165273Y-154150500D01*
X208394727Y-154150500D01*
X208394734Y-154150500D01*
X208622238Y-154120548D01*
X208843887Y-154061158D01*
X209055888Y-153973344D01*
X209254612Y-153858611D01*
X209436661Y-153718919D01*
X209436665Y-153718914D01*
X209436670Y-153718911D01*
X209598911Y-153556670D01*
X209598914Y-153556665D01*
X209598919Y-153556661D01*
X209738611Y-153374612D01*
X209853344Y-153175888D01*
X209941158Y-152963887D01*
X210000548Y-152742238D01*
X210030500Y-152514734D01*
X210030500Y-152285266D01*
X210000548Y-152057762D01*
X209941158Y-151836113D01*
X209853344Y-151624112D01*
X209738611Y-151425388D01*
X209738608Y-151425385D01*
X209738607Y-151425382D01*
X209598918Y-151243338D01*
X209598911Y-151243330D01*
X209436670Y-151081089D01*
X209436661Y-151081081D01*
X209254617Y-150941392D01*
X209055890Y-150826657D01*
X209055876Y-150826650D01*
X208843887Y-150738842D01*
X208832672Y-150735837D01*
X208622238Y-150679452D01*
X208584215Y-150674446D01*
X208394741Y-150649500D01*
X208394734Y-150649500D01*
X208165266Y-150649500D01*
X208165258Y-150649500D01*
X207948715Y-150678009D01*
X207937762Y-150679452D01*
X207844076Y-150704554D01*
X207716112Y-150738842D01*
X207504123Y-150826650D01*
X207504109Y-150826657D01*
X207305382Y-150941392D01*
X207123338Y-151081081D01*
X206961081Y-151243338D01*
X206821392Y-151425382D01*
X206706657Y-151624109D01*
X206706650Y-151624123D01*
X206630532Y-151807890D01*
X206618842Y-151836113D01*
X206561899Y-152048632D01*
X206559453Y-152057759D01*
X206559451Y-152057770D01*
X206529500Y-152285258D01*
X198270500Y-152285258D01*
X198270500Y-152281902D01*
X198233553Y-152048631D01*
X198160566Y-151824003D01*
X198084899Y-151675500D01*
X198053343Y-151613567D01*
X197914517Y-151422490D01*
X197747510Y-151255483D01*
X197612874Y-151157664D01*
X197556431Y-151116655D01*
X197438204Y-151056415D01*
X197387409Y-151008441D01*
X197370500Y-150945931D01*
X197370500Y-149739060D01*
X197370501Y-149739047D01*
X197370501Y-149570944D01*
X197368247Y-149562531D01*
X197329577Y-149418216D01*
X197329573Y-149418209D01*
X197250524Y-149281290D01*
X197250518Y-149281282D01*
X191405723Y-143436487D01*
X191321371Y-143352135D01*
X198119500Y-143352135D01*
X198119500Y-146447870D01*
X198119501Y-146447876D01*
X198125908Y-146507483D01*
X198176202Y-146642328D01*
X198176206Y-146642335D01*
X198262452Y-146757544D01*
X198262455Y-146757547D01*
X198377664Y-146843793D01*
X198377671Y-146843797D01*
X198512517Y-146894091D01*
X198512516Y-146894091D01*
X198519444Y-146894835D01*
X198572127Y-146900500D01*
X201167872Y-146900499D01*
X201227483Y-146894091D01*
X201362331Y-146843796D01*
X201477546Y-146757546D01*
X201563796Y-146642331D01*
X201614091Y-146507483D01*
X201620500Y-146447873D01*
X201620499Y-143352128D01*
X201614091Y-143292517D01*
X201563796Y-143157669D01*
X201563795Y-143157668D01*
X201563793Y-143157664D01*
X201477547Y-143042455D01*
X201477544Y-143042452D01*
X201362335Y-142956206D01*
X201362328Y-142956202D01*
X201227482Y-142905908D01*
X201227483Y-142905908D01*
X201167883Y-142899501D01*
X201167881Y-142899500D01*
X201167873Y-142899500D01*
X201167864Y-142899500D01*
X198572129Y-142899500D01*
X198572123Y-142899501D01*
X198512516Y-142905908D01*
X198377671Y-142956202D01*
X198377664Y-142956206D01*
X198262455Y-143042452D01*
X198262452Y-143042455D01*
X198176206Y-143157664D01*
X198176202Y-143157671D01*
X198125908Y-143292517D01*
X198119501Y-143352116D01*
X198119501Y-143352123D01*
X198119500Y-143352135D01*
X191321371Y-143352135D01*
X160637590Y-112668355D01*
X160637588Y-112668352D01*
X160518717Y-112549481D01*
X160518716Y-112549480D01*
X160431904Y-112499360D01*
X160431904Y-112499359D01*
X160431900Y-112499358D01*
X160381785Y-112470423D01*
X160229057Y-112429499D01*
X160070943Y-112429499D01*
X160063347Y-112429499D01*
X160063331Y-112429500D01*
X153337294Y-112429500D01*
X153270255Y-112409815D01*
X153224500Y-112357011D01*
X153214556Y-112287853D01*
X153243581Y-112224297D01*
X153261807Y-112207125D01*
X153368229Y-112125464D01*
X153368233Y-112125459D01*
X153368238Y-112125456D01*
X153553652Y-111940042D01*
X153553655Y-111940037D01*
X153553660Y-111940033D01*
X153713302Y-111731985D01*
X153844421Y-111504879D01*
X153944776Y-111262601D01*
X154012648Y-111009298D01*
X154046878Y-110749302D01*
X154046878Y-110487062D01*
X154012648Y-110227066D01*
X153944776Y-109973763D01*
X153925744Y-109927816D01*
X153844424Y-109731491D01*
X153844419Y-109731481D01*
X153713302Y-109504378D01*
X153553659Y-109296330D01*
X153553652Y-109296322D01*
X153368238Y-109110908D01*
X153368229Y-109110900D01*
X153160181Y-108951257D01*
X152933078Y-108820140D01*
X152933068Y-108820135D01*
X152858047Y-108789061D01*
X152803644Y-108745220D01*
X152781579Y-108678926D01*
X152798858Y-108611226D01*
X152849996Y-108563616D01*
X152905500Y-108550500D01*
X161519903Y-108550500D01*
X161586942Y-108570185D01*
X161607584Y-108586819D01*
X190317200Y-137296435D01*
X190350685Y-137357758D01*
X190347450Y-137422433D01*
X190306447Y-137548628D01*
X190269500Y-137781902D01*
X190269500Y-138018097D01*
X190306446Y-138251368D01*
X190379433Y-138475996D01*
X190435305Y-138585649D01*
X190486657Y-138686433D01*
X190625483Y-138877510D01*
X190792490Y-139044517D01*
X190983567Y-139183343D01*
X191082991Y-139234002D01*
X191194003Y-139290566D01*
X191194005Y-139290566D01*
X191194008Y-139290568D01*
X191314412Y-139329689D01*
X191418631Y-139363553D01*
X191651903Y-139400500D01*
X191651908Y-139400500D01*
X191888097Y-139400500D01*
X192121368Y-139363553D01*
X192122870Y-139363065D01*
X192345992Y-139290568D01*
X192556433Y-139183343D01*
X192747510Y-139044517D01*
X192914517Y-138877510D01*
X193053343Y-138686433D01*
X193160568Y-138475992D01*
X193233553Y-138251368D01*
X193258637Y-138092993D01*
X193270500Y-138018097D01*
X193270500Y-137781947D01*
X195270000Y-137781947D01*
X195270000Y-138018052D01*
X195306934Y-138251247D01*
X195379897Y-138475802D01*
X195487087Y-138686174D01*
X195547338Y-138769104D01*
X195547340Y-138769105D01*
X196287037Y-138029408D01*
X196304075Y-138092993D01*
X196369901Y-138207007D01*
X196462993Y-138300099D01*
X196577007Y-138365925D01*
X196640590Y-138382962D01*
X195900893Y-139122658D01*
X195983828Y-139182914D01*
X196194197Y-139290102D01*
X196418752Y-139363065D01*
X196418751Y-139363065D01*
X196651948Y-139400000D01*
X196888052Y-139400000D01*
X197121247Y-139363065D01*
X197345802Y-139290102D01*
X197556163Y-139182918D01*
X197556169Y-139182914D01*
X197639104Y-139122658D01*
X197639105Y-139122658D01*
X196899408Y-138382962D01*
X196962993Y-138365925D01*
X197077007Y-138300099D01*
X197170099Y-138207007D01*
X197235925Y-138092993D01*
X197252962Y-138029408D01*
X197992658Y-138769105D01*
X197992658Y-138769104D01*
X198052914Y-138686169D01*
X198052918Y-138686163D01*
X198160102Y-138475802D01*
X198233065Y-138251247D01*
X198270000Y-138018052D01*
X198270000Y-137781947D01*
X198233065Y-137548752D01*
X198160102Y-137324197D01*
X198052914Y-137113828D01*
X197992658Y-137030894D01*
X197992658Y-137030893D01*
X197252962Y-137770590D01*
X197235925Y-137707007D01*
X197170099Y-137592993D01*
X197077007Y-137499901D01*
X196962993Y-137434075D01*
X196899409Y-137417037D01*
X197639105Y-136677340D01*
X197639104Y-136677338D01*
X197556174Y-136617087D01*
X197345802Y-136509897D01*
X197121247Y-136436934D01*
X197121248Y-136436934D01*
X196888052Y-136400000D01*
X196651948Y-136400000D01*
X196418752Y-136436934D01*
X196194197Y-136509897D01*
X195983830Y-136617084D01*
X195900894Y-136677340D01*
X196640591Y-137417037D01*
X196577007Y-137434075D01*
X196462993Y-137499901D01*
X196369901Y-137592993D01*
X196304075Y-137707007D01*
X196287037Y-137770591D01*
X195547340Y-137030894D01*
X195487084Y-137113830D01*
X195379897Y-137324197D01*
X195306934Y-137548752D01*
X195270000Y-137781947D01*
X193270500Y-137781947D01*
X193270500Y-137781902D01*
X193233553Y-137548631D01*
X193171534Y-137357758D01*
X193160568Y-137324008D01*
X193160566Y-137324005D01*
X193160566Y-137324003D01*
X193104002Y-137212991D01*
X193053343Y-137113567D01*
X192914517Y-136922490D01*
X192747510Y-136755483D01*
X192556433Y-136616657D01*
X192345996Y-136509433D01*
X192121368Y-136436446D01*
X191888097Y-136399500D01*
X191888092Y-136399500D01*
X191651908Y-136399500D01*
X191651903Y-136399500D01*
X191418628Y-136436447D01*
X191292433Y-136477450D01*
X191222592Y-136479445D01*
X191166435Y-136447200D01*
X180158107Y-125438872D01*
X190059500Y-125438872D01*
X190059500Y-125701127D01*
X190077848Y-125840484D01*
X190093730Y-125961116D01*
X190136360Y-126120213D01*
X190161602Y-126214418D01*
X190161605Y-126214428D01*
X190261953Y-126456690D01*
X190261958Y-126456700D01*
X190393075Y-126683803D01*
X190552718Y-126891851D01*
X190552726Y-126891860D01*
X190738140Y-127077274D01*
X190738148Y-127077281D01*
X190738149Y-127077282D01*
X190775949Y-127106287D01*
X190946196Y-127236924D01*
X191173299Y-127368041D01*
X191173309Y-127368046D01*
X191415571Y-127468394D01*
X191415581Y-127468398D01*
X191668884Y-127536270D01*
X191928880Y-127570500D01*
X191928887Y-127570500D01*
X192191113Y-127570500D01*
X192191120Y-127570500D01*
X192451116Y-127536270D01*
X192704419Y-127468398D01*
X192946697Y-127368043D01*
X193173803Y-127236924D01*
X193381851Y-127077282D01*
X193381855Y-127077277D01*
X193381860Y-127077274D01*
X193567274Y-126891860D01*
X193567277Y-126891855D01*
X193567282Y-126891851D01*
X193726924Y-126683803D01*
X193858043Y-126456697D01*
X193958398Y-126214419D01*
X194026270Y-125961116D01*
X194060500Y-125701120D01*
X194060500Y-125438880D01*
X194026270Y-125178884D01*
X193958398Y-124925581D01*
X193896540Y-124776243D01*
X193858046Y-124683309D01*
X193858041Y-124683299D01*
X193726924Y-124456196D01*
X193632773Y-124333498D01*
X193567281Y-124248148D01*
X193567274Y-124248140D01*
X193381860Y-124062726D01*
X193381851Y-124062718D01*
X193173803Y-123903075D01*
X192946700Y-123771958D01*
X192946690Y-123771953D01*
X192704428Y-123671605D01*
X192704421Y-123671603D01*
X192704419Y-123671602D01*
X192451116Y-123603730D01*
X192393339Y-123596123D01*
X192191127Y-123569500D01*
X192191120Y-123569500D01*
X191928880Y-123569500D01*
X191928872Y-123569500D01*
X191697772Y-123599926D01*
X191668884Y-123603730D01*
X191474089Y-123655925D01*
X191415581Y-123671602D01*
X191415571Y-123671605D01*
X191173309Y-123771953D01*
X191173299Y-123771958D01*
X190946196Y-123903075D01*
X190738148Y-124062718D01*
X190552718Y-124248148D01*
X190393075Y-124456196D01*
X190261958Y-124683299D01*
X190261953Y-124683309D01*
X190161605Y-124925571D01*
X190161602Y-124925581D01*
X190093730Y-125178885D01*
X190059500Y-125438872D01*
X180158107Y-125438872D01*
X177802988Y-123083753D01*
X199600000Y-123083753D01*
X199600000Y-123296246D01*
X199633242Y-123506127D01*
X199633242Y-123506130D01*
X199698904Y-123708217D01*
X199795375Y-123897550D01*
X199834728Y-123951716D01*
X200467037Y-123319408D01*
X200484075Y-123382993D01*
X200549901Y-123497007D01*
X200642993Y-123590099D01*
X200757007Y-123655925D01*
X200820590Y-123672962D01*
X200188282Y-124305269D01*
X200188282Y-124305270D01*
X200242449Y-124344624D01*
X200431782Y-124441095D01*
X200633870Y-124506757D01*
X200843754Y-124540000D01*
X201056246Y-124540000D01*
X201266127Y-124506757D01*
X201266130Y-124506757D01*
X201468217Y-124441095D01*
X201657554Y-124344622D01*
X201711716Y-124305270D01*
X201711717Y-124305270D01*
X201079408Y-123672962D01*
X201142993Y-123655925D01*
X201257007Y-123590099D01*
X201350099Y-123497007D01*
X201415925Y-123382993D01*
X201432962Y-123319409D01*
X202065270Y-123951717D01*
X202065270Y-123951716D01*
X202104622Y-123897554D01*
X202201095Y-123708217D01*
X202266757Y-123506130D01*
X202266757Y-123506127D01*
X202300000Y-123296246D01*
X202300000Y-123083753D01*
X202266757Y-122873872D01*
X202266757Y-122873869D01*
X202201095Y-122671782D01*
X202104624Y-122482449D01*
X202065270Y-122428282D01*
X202065269Y-122428282D01*
X201432962Y-123060590D01*
X201415925Y-122997007D01*
X201350099Y-122882993D01*
X201257007Y-122789901D01*
X201142993Y-122724075D01*
X201079409Y-122707037D01*
X201711716Y-122074728D01*
X201657550Y-122035375D01*
X201468217Y-121938904D01*
X201266129Y-121873242D01*
X201056246Y-121840000D01*
X200843754Y-121840000D01*
X200633872Y-121873242D01*
X200633869Y-121873242D01*
X200431782Y-121938904D01*
X200242439Y-122035380D01*
X200188282Y-122074727D01*
X200188282Y-122074728D01*
X200820591Y-122707037D01*
X200757007Y-122724075D01*
X200642993Y-122789901D01*
X200549901Y-122882993D01*
X200484075Y-122997007D01*
X200467037Y-123060591D01*
X199834728Y-122428282D01*
X199834727Y-122428282D01*
X199795380Y-122482439D01*
X199698904Y-122671782D01*
X199633242Y-122873869D01*
X199633242Y-122873872D01*
X199600000Y-123083753D01*
X177802988Y-123083753D01*
X162307590Y-107588355D01*
X162307588Y-107588352D01*
X162188717Y-107469481D01*
X162188716Y-107469480D01*
X162101904Y-107419360D01*
X162101904Y-107419359D01*
X162101900Y-107419358D01*
X162051785Y-107390423D01*
X161899057Y-107349499D01*
X161740943Y-107349499D01*
X161733347Y-107349499D01*
X161733331Y-107349500D01*
X141073137Y-107349500D01*
X141006098Y-107329815D01*
X140960343Y-107277011D01*
X140950399Y-107207853D01*
X140955206Y-107187182D01*
X140962733Y-107164015D01*
X141017246Y-106996243D01*
X141050500Y-106786287D01*
X141050500Y-106573713D01*
X141017246Y-106363757D01*
X140994195Y-106292816D01*
X140992201Y-106222977D01*
X141028281Y-106163144D01*
X141090982Y-106132316D01*
X141112127Y-106130500D01*
X142157331Y-106130500D01*
X142157347Y-106130501D01*
X142164943Y-106130501D01*
X142323054Y-106130501D01*
X142323057Y-106130501D01*
X142475785Y-106089577D01*
X142525904Y-106060639D01*
X142612716Y-106010520D01*
X142724520Y-105898716D01*
X142724520Y-105898714D01*
X142734728Y-105888507D01*
X142734729Y-105888504D01*
X144175286Y-104447947D01*
X150829500Y-104447947D01*
X150829500Y-104680052D01*
X150859794Y-104910148D01*
X150919862Y-105134328D01*
X151008677Y-105348745D01*
X151008685Y-105348762D01*
X151124720Y-105549743D01*
X151124721Y-105549745D01*
X151266009Y-105733875D01*
X151266015Y-105733882D01*
X151430117Y-105897984D01*
X151430124Y-105897990D01*
X151614254Y-106039278D01*
X151614256Y-106039279D01*
X151815237Y-106155314D01*
X151815240Y-106155315D01*
X151815248Y-106155320D01*
X152029670Y-106244137D01*
X152253851Y-106304206D01*
X152483955Y-106334500D01*
X152483962Y-106334500D01*
X152716038Y-106334500D01*
X152716045Y-106334500D01*
X152946149Y-106304206D01*
X153170330Y-106244137D01*
X153384752Y-106155320D01*
X153585748Y-106039276D01*
X153769877Y-105897989D01*
X153933989Y-105733877D01*
X154075276Y-105549748D01*
X154191320Y-105348752D01*
X154280137Y-105134330D01*
X154340206Y-104910149D01*
X154370500Y-104680045D01*
X154370500Y-104447955D01*
X154370499Y-104447947D01*
X171530749Y-104447947D01*
X171530749Y-104680052D01*
X171561043Y-104910148D01*
X171621111Y-105134328D01*
X171709926Y-105348745D01*
X171709934Y-105348762D01*
X171825969Y-105549743D01*
X171825970Y-105549745D01*
X171967258Y-105733875D01*
X171967264Y-105733882D01*
X172131366Y-105897984D01*
X172131373Y-105897990D01*
X172315503Y-106039278D01*
X172315505Y-106039279D01*
X172516486Y-106155314D01*
X172516489Y-106155315D01*
X172516497Y-106155320D01*
X172730919Y-106244137D01*
X172955100Y-106304206D01*
X173185204Y-106334500D01*
X173185211Y-106334500D01*
X173417287Y-106334500D01*
X173417294Y-106334500D01*
X173647398Y-106304206D01*
X173871579Y-106244137D01*
X174086001Y-106155320D01*
X174286997Y-106039276D01*
X174471126Y-105897989D01*
X174635238Y-105733877D01*
X174776525Y-105549748D01*
X174892569Y-105348752D01*
X174981386Y-105134330D01*
X175041455Y-104910149D01*
X175071749Y-104680045D01*
X175071749Y-104447955D01*
X175041455Y-104217851D01*
X174981386Y-103993670D01*
X174892569Y-103779248D01*
X174801545Y-103621588D01*
X174776528Y-103578256D01*
X174776527Y-103578254D01*
X174635239Y-103394124D01*
X174635233Y-103394117D01*
X174471131Y-103230015D01*
X174471124Y-103230009D01*
X174286994Y-103088721D01*
X174286992Y-103088720D01*
X174086011Y-102972685D01*
X174086003Y-102972681D01*
X174086001Y-102972680D01*
X174085994Y-102972677D01*
X173871577Y-102883862D01*
X173729452Y-102845780D01*
X173647398Y-102823794D01*
X173618635Y-102820007D01*
X173417301Y-102793500D01*
X173417294Y-102793500D01*
X173185204Y-102793500D01*
X173185196Y-102793500D01*
X172955100Y-102823794D01*
X172730920Y-102883862D01*
X172516503Y-102972677D01*
X172516486Y-102972685D01*
X172315505Y-103088720D01*
X172315503Y-103088721D01*
X172131373Y-103230009D01*
X172131366Y-103230015D01*
X171967264Y-103394117D01*
X171967258Y-103394124D01*
X171825970Y-103578254D01*
X171825969Y-103578256D01*
X171709934Y-103779237D01*
X171709926Y-103779254D01*
X171621111Y-103993671D01*
X171561043Y-104217851D01*
X171530749Y-104447947D01*
X154370499Y-104447947D01*
X154340206Y-104217851D01*
X154280137Y-103993670D01*
X154191320Y-103779248D01*
X154100296Y-103621588D01*
X154075279Y-103578256D01*
X154075278Y-103578254D01*
X153933990Y-103394124D01*
X153933984Y-103394117D01*
X153769882Y-103230015D01*
X153769875Y-103230009D01*
X153585745Y-103088721D01*
X153585743Y-103088720D01*
X153384762Y-102972685D01*
X153384754Y-102972681D01*
X153384752Y-102972680D01*
X153384745Y-102972677D01*
X153170328Y-102883862D01*
X153028203Y-102845780D01*
X152946149Y-102823794D01*
X152917386Y-102820007D01*
X152716052Y-102793500D01*
X152716045Y-102793500D01*
X152483955Y-102793500D01*
X152483947Y-102793500D01*
X152253851Y-102823794D01*
X152029671Y-102883862D01*
X151815254Y-102972677D01*
X151815237Y-102972685D01*
X151614256Y-103088720D01*
X151614254Y-103088721D01*
X151430124Y-103230009D01*
X151430117Y-103230015D01*
X151266015Y-103394117D01*
X151266009Y-103394124D01*
X151124721Y-103578254D01*
X151124720Y-103578256D01*
X151008685Y-103779237D01*
X151008677Y-103779254D01*
X150919862Y-103993671D01*
X150859794Y-104217851D01*
X150829500Y-104447947D01*
X144175286Y-104447947D01*
X155991617Y-92631617D01*
X184642500Y-92631617D01*
X184642500Y-92828382D01*
X184673278Y-93022705D01*
X184734081Y-93209835D01*
X184823405Y-93385145D01*
X184848819Y-93420125D01*
X184848820Y-93420125D01*
X185512500Y-92756445D01*
X185512500Y-92780028D01*
X185538396Y-92876675D01*
X185588424Y-92963325D01*
X185659175Y-93034076D01*
X185745825Y-93084104D01*
X185842472Y-93110000D01*
X185866053Y-93110000D01*
X185202373Y-93773677D01*
X185202373Y-93773678D01*
X185237358Y-93799096D01*
X185412664Y-93888418D01*
X185599794Y-93949221D01*
X185794118Y-93980000D01*
X185990882Y-93980000D01*
X186185205Y-93949221D01*
X186372335Y-93888418D01*
X186547643Y-93799095D01*
X186582625Y-93773678D01*
X186582626Y-93773678D01*
X185918948Y-93110000D01*
X185942528Y-93110000D01*
X186039175Y-93084104D01*
X186125825Y-93034076D01*
X186196576Y-92963325D01*
X186246604Y-92876675D01*
X186272500Y-92780028D01*
X186272500Y-92756448D01*
X186936178Y-93420126D01*
X186936178Y-93420125D01*
X186961597Y-93385141D01*
X187051734Y-93208236D01*
X187099708Y-93157439D01*
X187167529Y-93140644D01*
X187233664Y-93163181D01*
X187272704Y-93208235D01*
X187273615Y-93210024D01*
X187273616Y-93210025D01*
X187362976Y-93385405D01*
X187478672Y-93544646D01*
X187617854Y-93683828D01*
X187777095Y-93799524D01*
X187859955Y-93841743D01*
X187952470Y-93888882D01*
X187952472Y-93888882D01*
X187952475Y-93888884D01*
X187999499Y-93904163D01*
X188139673Y-93949709D01*
X188334078Y-93980500D01*
X188334083Y-93980500D01*
X188530922Y-93980500D01*
X188725326Y-93949709D01*
X188794173Y-93927339D01*
X188912525Y-93888884D01*
X189087905Y-93799524D01*
X189247146Y-93683828D01*
X189386328Y-93544646D01*
X189502024Y-93385405D01*
X189591384Y-93210025D01*
X189592015Y-93208787D01*
X189639989Y-93157990D01*
X189707810Y-93141195D01*
X189773945Y-93163732D01*
X189812985Y-93208787D01*
X189902974Y-93385403D01*
X189928202Y-93420125D01*
X190018672Y-93544646D01*
X190157854Y-93683828D01*
X190317095Y-93799524D01*
X190399955Y-93841743D01*
X190492470Y-93888882D01*
X190492472Y-93888882D01*
X190492475Y-93888884D01*
X190539499Y-93904163D01*
X190679673Y-93949709D01*
X190874078Y-93980500D01*
X190874083Y-93980500D01*
X191070922Y-93980500D01*
X191265326Y-93949709D01*
X191334173Y-93927339D01*
X191452525Y-93888884D01*
X191627905Y-93799524D01*
X191787146Y-93683828D01*
X191926328Y-93544646D01*
X192042024Y-93385405D01*
X192131384Y-93210025D01*
X192132015Y-93208787D01*
X192179989Y-93157990D01*
X192247810Y-93141195D01*
X192313945Y-93163732D01*
X192352985Y-93208787D01*
X192442974Y-93385403D01*
X192468202Y-93420125D01*
X192558672Y-93544646D01*
X192697854Y-93683828D01*
X192767452Y-93734394D01*
X192857096Y-93799525D01*
X192908284Y-93825606D01*
X193011795Y-93878347D01*
X193062590Y-93926320D01*
X193079500Y-93988831D01*
X193079500Y-99219207D01*
X193059815Y-99286246D01*
X193028386Y-99319525D01*
X192897925Y-99414311D01*
X192764312Y-99547924D01*
X192764312Y-99547925D01*
X192764310Y-99547927D01*
X192721633Y-99606666D01*
X192653240Y-99700800D01*
X192567454Y-99869163D01*
X192509059Y-100048881D01*
X192479500Y-100235513D01*
X192479500Y-100424486D01*
X192504725Y-100583751D01*
X192495770Y-100653045D01*
X192469933Y-100690830D01*
X189891286Y-103269478D01*
X189779481Y-103381282D01*
X189779479Y-103381285D01*
X189729361Y-103468094D01*
X189729359Y-103468096D01*
X189700425Y-103518209D01*
X189700424Y-103518210D01*
X189700423Y-103518215D01*
X189659499Y-103670943D01*
X189659499Y-103670945D01*
X189659499Y-103839046D01*
X189659500Y-103839059D01*
X189659500Y-116223330D01*
X189659499Y-116223348D01*
X189659499Y-116389054D01*
X189659498Y-116389054D01*
X189695593Y-116523762D01*
X189700423Y-116541785D01*
X189704102Y-116548157D01*
X189704105Y-116548167D01*
X189704108Y-116548166D01*
X189734094Y-116600104D01*
X189779479Y-116678714D01*
X189779481Y-116678717D01*
X189898349Y-116797585D01*
X189898355Y-116797590D01*
X190726241Y-117625476D01*
X190759726Y-117686799D01*
X190756492Y-117751473D01*
X190742753Y-117793757D01*
X190710872Y-117995048D01*
X190709500Y-118003713D01*
X190709500Y-118216287D01*
X190742754Y-118426243D01*
X190766788Y-118500213D01*
X190808444Y-118628414D01*
X190904951Y-118817820D01*
X191029890Y-118989786D01*
X191180213Y-119140109D01*
X191352179Y-119265048D01*
X191352181Y-119265049D01*
X191352184Y-119265051D01*
X191361493Y-119269794D01*
X191412290Y-119317766D01*
X191429087Y-119385587D01*
X191406552Y-119451722D01*
X191361505Y-119490760D01*
X191352446Y-119495376D01*
X191352440Y-119495380D01*
X191298282Y-119534727D01*
X191298282Y-119534728D01*
X191930591Y-120167037D01*
X191867007Y-120184075D01*
X191752993Y-120249901D01*
X191659901Y-120342993D01*
X191594075Y-120457007D01*
X191577037Y-120520590D01*
X190944728Y-119888282D01*
X190944727Y-119888282D01*
X190905380Y-119942439D01*
X190808904Y-120131782D01*
X190743242Y-120333869D01*
X190743242Y-120333872D01*
X190710000Y-120543753D01*
X190710000Y-120756246D01*
X190743242Y-120966127D01*
X190743242Y-120966130D01*
X190808904Y-121168217D01*
X190905375Y-121357550D01*
X190944728Y-121411716D01*
X191577037Y-120779408D01*
X191594075Y-120842993D01*
X191659901Y-120957007D01*
X191752993Y-121050099D01*
X191867007Y-121115925D01*
X191930590Y-121132962D01*
X191298282Y-121765269D01*
X191298282Y-121765270D01*
X191352449Y-121804624D01*
X191541782Y-121901095D01*
X191743870Y-121966757D01*
X191953754Y-122000000D01*
X192166241Y-122000000D01*
X192169316Y-121999513D01*
X192169326Y-121999512D01*
X192376127Y-121966757D01*
X192376130Y-121966757D01*
X192578217Y-121901095D01*
X192767554Y-121804622D01*
X192821716Y-121765270D01*
X192821717Y-121765270D01*
X192189408Y-121132962D01*
X192252993Y-121115925D01*
X192367007Y-121050099D01*
X192460099Y-120957007D01*
X192525925Y-120842993D01*
X192542962Y-120779408D01*
X193175270Y-121411717D01*
X193175270Y-121411716D01*
X193214622Y-121357554D01*
X193311095Y-121168217D01*
X193376757Y-120966130D01*
X193376757Y-120966127D01*
X193410000Y-120756246D01*
X193410000Y-120543753D01*
X193376757Y-120333872D01*
X193376757Y-120333869D01*
X193311095Y-120131782D01*
X193214624Y-119942449D01*
X193175270Y-119888282D01*
X193175269Y-119888282D01*
X192542962Y-120520590D01*
X192525925Y-120457007D01*
X192460099Y-120342993D01*
X192367007Y-120249901D01*
X192252993Y-120184075D01*
X192189409Y-120167037D01*
X192821716Y-119534728D01*
X192767547Y-119495373D01*
X192767547Y-119495372D01*
X192758500Y-119490763D01*
X192707706Y-119442788D01*
X192690912Y-119374966D01*
X192713451Y-119308832D01*
X192758508Y-119269793D01*
X192767816Y-119265051D01*
X192847007Y-119207515D01*
X192939786Y-119140109D01*
X192939788Y-119140106D01*
X192939792Y-119140104D01*
X193090104Y-118989792D01*
X193090106Y-118989788D01*
X193090109Y-118989786D01*
X193190108Y-118852147D01*
X193215051Y-118817816D01*
X193222612Y-118802977D01*
X193235235Y-118778205D01*
X193283209Y-118727409D01*
X193345719Y-118710500D01*
X199664281Y-118710500D01*
X199731320Y-118730185D01*
X199774765Y-118778205D01*
X199794947Y-118817814D01*
X199794948Y-118817815D01*
X199919890Y-118989786D01*
X200070213Y-119140109D01*
X200242179Y-119265048D01*
X200242181Y-119265049D01*
X200242184Y-119265051D01*
X200431588Y-119361557D01*
X200633757Y-119427246D01*
X200843713Y-119460500D01*
X200843714Y-119460500D01*
X201056286Y-119460500D01*
X201056287Y-119460500D01*
X201266243Y-119427246D01*
X201468412Y-119361557D01*
X201657816Y-119265051D01*
X201679789Y-119249086D01*
X201829786Y-119140109D01*
X201829788Y-119140106D01*
X201829792Y-119140104D01*
X201980104Y-118989792D01*
X201980106Y-118989788D01*
X201980109Y-118989786D01*
X202105048Y-118817820D01*
X202105047Y-118817820D01*
X202105051Y-118817816D01*
X202201557Y-118628412D01*
X202267246Y-118426243D01*
X202300500Y-118216287D01*
X202300500Y-118003713D01*
X202267246Y-117793757D01*
X202201557Y-117591588D01*
X202105051Y-117402184D01*
X202105049Y-117402181D01*
X202105048Y-117402179D01*
X201980109Y-117230213D01*
X201829786Y-117079890D01*
X201657820Y-116954951D01*
X201468414Y-116858444D01*
X201468413Y-116858443D01*
X201468412Y-116858443D01*
X201266243Y-116792754D01*
X201266241Y-116792753D01*
X201266240Y-116792753D01*
X201104957Y-116767208D01*
X201056287Y-116759500D01*
X200843713Y-116759500D01*
X200795042Y-116767208D01*
X200633760Y-116792753D01*
X200431585Y-116858444D01*
X200242179Y-116954951D01*
X200070213Y-117079890D01*
X199919890Y-117230213D01*
X199794948Y-117402184D01*
X199794947Y-117402185D01*
X199774765Y-117441795D01*
X199726791Y-117492591D01*
X199664281Y-117509500D01*
X193345719Y-117509500D01*
X193278680Y-117489815D01*
X193235235Y-117441795D01*
X193215052Y-117402185D01*
X193215051Y-117402184D01*
X193090109Y-117230213D01*
X192939786Y-117079890D01*
X192767820Y-116954951D01*
X192767115Y-116954591D01*
X192759054Y-116950485D01*
X192708259Y-116902512D01*
X192691463Y-116834692D01*
X192713999Y-116768556D01*
X192759054Y-116729515D01*
X192767816Y-116725051D01*
X192831594Y-116678714D01*
X192939786Y-116600109D01*
X192939788Y-116600106D01*
X192939792Y-116600104D01*
X193090104Y-116449792D01*
X193090106Y-116449788D01*
X193090109Y-116449786D01*
X193192929Y-116308264D01*
X193215051Y-116277816D01*
X193222612Y-116262977D01*
X193235235Y-116238205D01*
X193283209Y-116187409D01*
X193345719Y-116170500D01*
X198323331Y-116170500D01*
X198323347Y-116170501D01*
X198330943Y-116170501D01*
X198489054Y-116170501D01*
X198489057Y-116170501D01*
X198641785Y-116129577D01*
X198691904Y-116100639D01*
X198778716Y-116050520D01*
X198890520Y-115938716D01*
X198890520Y-115938714D01*
X198900728Y-115928507D01*
X198900730Y-115928504D01*
X200465478Y-114363755D01*
X200526799Y-114330272D01*
X200591473Y-114333506D01*
X200633757Y-114347246D01*
X200843713Y-114380500D01*
X200843714Y-114380500D01*
X201056286Y-114380500D01*
X201056287Y-114380500D01*
X201266243Y-114347246D01*
X201468412Y-114281557D01*
X201657816Y-114185051D01*
X201679789Y-114169086D01*
X201829786Y-114060109D01*
X201829788Y-114060106D01*
X201829792Y-114060104D01*
X201980104Y-113909792D01*
X201980106Y-113909788D01*
X201980109Y-113909786D01*
X202105048Y-113737820D01*
X202105047Y-113737820D01*
X202105051Y-113737816D01*
X202201557Y-113548412D01*
X202267246Y-113346243D01*
X202300500Y-113136287D01*
X202300500Y-112923713D01*
X202267246Y-112713757D01*
X202201557Y-112511588D01*
X202105051Y-112322184D01*
X202105049Y-112322181D01*
X202105048Y-112322179D01*
X201980109Y-112150213D01*
X201829786Y-111999890D01*
X201657820Y-111874951D01*
X201468414Y-111778444D01*
X201468413Y-111778443D01*
X201468412Y-111778443D01*
X201266243Y-111712754D01*
X201266241Y-111712753D01*
X201266240Y-111712753D01*
X201104957Y-111687208D01*
X201056287Y-111679500D01*
X200843713Y-111679500D01*
X200815006Y-111684046D01*
X200633757Y-111712753D01*
X200591473Y-111726492D01*
X200521632Y-111728486D01*
X200465476Y-111696241D01*
X196216819Y-107447584D01*
X196183334Y-107386261D01*
X196180500Y-107359903D01*
X196180500Y-101440791D01*
X196200185Y-101373752D01*
X196231612Y-101340475D01*
X196362073Y-101245690D01*
X196495690Y-101112073D01*
X196606760Y-100959199D01*
X196692547Y-100790832D01*
X196750940Y-100611118D01*
X196780500Y-100424486D01*
X196780500Y-100235513D01*
X196750940Y-100048881D01*
X196710739Y-99925156D01*
X196692547Y-99869168D01*
X196692545Y-99869165D01*
X196692545Y-99869163D01*
X196606759Y-99700800D01*
X196584358Y-99669968D01*
X196495690Y-99547927D01*
X196362073Y-99414310D01*
X196209199Y-99303240D01*
X196180500Y-99288617D01*
X196040836Y-99217454D01*
X195861118Y-99159059D01*
X195674486Y-99129500D01*
X195674481Y-99129500D01*
X195507000Y-99129500D01*
X195439961Y-99109815D01*
X195394206Y-99057011D01*
X195383000Y-99005500D01*
X195383000Y-91564499D01*
X195402685Y-91497460D01*
X195455489Y-91451705D01*
X195507000Y-91440499D01*
X195580371Y-91440499D01*
X195580372Y-91440499D01*
X195639983Y-91434091D01*
X195774831Y-91383796D01*
X195890046Y-91297546D01*
X195976296Y-91182331D01*
X196026591Y-91047483D01*
X196033000Y-90987873D01*
X196032999Y-89392128D01*
X196026591Y-89332517D01*
X195990657Y-89236174D01*
X195976297Y-89197671D01*
X195976293Y-89197664D01*
X195890047Y-89082455D01*
X195890044Y-89082452D01*
X195774835Y-88996206D01*
X195774828Y-88996202D01*
X195639982Y-88945908D01*
X195639983Y-88945908D01*
X195580383Y-88939501D01*
X195580381Y-88939500D01*
X195580373Y-88939500D01*
X195580364Y-88939500D01*
X193984629Y-88939500D01*
X193984623Y-88939501D01*
X193925016Y-88945908D01*
X193790171Y-88996202D01*
X193790164Y-88996206D01*
X193674955Y-89082452D01*
X193674952Y-89082455D01*
X193588706Y-89197664D01*
X193588702Y-89197671D01*
X193538408Y-89332517D01*
X193533803Y-89375354D01*
X193532001Y-89392123D01*
X193532000Y-89392135D01*
X193532000Y-89455732D01*
X193512315Y-89522771D01*
X193459511Y-89568526D01*
X193390353Y-89578470D01*
X193326797Y-89549445D01*
X193307682Y-89528618D01*
X193208520Y-89392135D01*
X193196328Y-89375354D01*
X193057146Y-89236172D01*
X192897905Y-89120476D01*
X192722529Y-89031117D01*
X192535326Y-88970290D01*
X192340922Y-88939500D01*
X192340917Y-88939500D01*
X192144083Y-88939500D01*
X192144078Y-88939500D01*
X191949673Y-88970290D01*
X191762470Y-89031117D01*
X191587094Y-89120476D01*
X191496241Y-89186485D01*
X191427854Y-89236172D01*
X191427852Y-89236174D01*
X191427851Y-89236174D01*
X191288674Y-89375351D01*
X191288674Y-89375352D01*
X191288672Y-89375354D01*
X191276480Y-89392135D01*
X191172976Y-89534594D01*
X191082985Y-89711213D01*
X191035011Y-89762009D01*
X190967190Y-89778804D01*
X190901055Y-89756267D01*
X190862015Y-89711213D01*
X190794379Y-89578470D01*
X190772024Y-89534595D01*
X190656328Y-89375354D01*
X190517146Y-89236172D01*
X190357905Y-89120476D01*
X190182529Y-89031117D01*
X189995326Y-88970290D01*
X189800922Y-88939500D01*
X189800917Y-88939500D01*
X189604083Y-88939500D01*
X189604078Y-88939500D01*
X189409673Y-88970290D01*
X189222470Y-89031117D01*
X189047094Y-89120476D01*
X188956241Y-89186485D01*
X188887854Y-89236172D01*
X188887852Y-89236174D01*
X188887851Y-89236174D01*
X188748674Y-89375351D01*
X188748674Y-89375352D01*
X188748672Y-89375354D01*
X188736480Y-89392135D01*
X188632976Y-89534594D01*
X188542704Y-89711764D01*
X188494729Y-89762560D01*
X188426908Y-89779355D01*
X188360774Y-89756818D01*
X188321734Y-89711764D01*
X188231596Y-89534858D01*
X188206178Y-89499873D01*
X188206177Y-89499873D01*
X187542500Y-90163551D01*
X187542500Y-90139972D01*
X187516604Y-90043325D01*
X187466576Y-89956675D01*
X187395825Y-89885924D01*
X187309175Y-89835896D01*
X187212528Y-89810000D01*
X187188947Y-89810000D01*
X187852625Y-89146320D01*
X187852625Y-89146319D01*
X187817645Y-89120905D01*
X187642335Y-89031581D01*
X187455205Y-88970778D01*
X187260882Y-88940000D01*
X187064118Y-88940000D01*
X186869794Y-88970778D01*
X186682661Y-89031582D01*
X186507363Y-89120899D01*
X186507359Y-89120902D01*
X186472373Y-89146320D01*
X186472372Y-89146320D01*
X187136054Y-89810000D01*
X187112472Y-89810000D01*
X187015825Y-89835896D01*
X186929175Y-89885924D01*
X186858424Y-89956675D01*
X186808396Y-90043325D01*
X186782500Y-90139972D01*
X186782500Y-90163552D01*
X186118820Y-89499872D01*
X186118820Y-89499873D01*
X186093402Y-89534859D01*
X186093399Y-89534863D01*
X186004082Y-89710161D01*
X185943278Y-89897294D01*
X185912500Y-90091617D01*
X185912500Y-90288382D01*
X185943278Y-90482705D01*
X186004081Y-90669835D01*
X186093405Y-90845145D01*
X186118819Y-90880125D01*
X186118820Y-90880125D01*
X186782500Y-90216445D01*
X186782500Y-90240028D01*
X186808396Y-90336675D01*
X186858424Y-90423325D01*
X186929175Y-90494076D01*
X187015825Y-90544104D01*
X187112472Y-90570000D01*
X187136053Y-90570000D01*
X186472373Y-91233677D01*
X186472373Y-91233678D01*
X186507358Y-91259096D01*
X186682664Y-91348418D01*
X186869794Y-91409221D01*
X187064118Y-91440000D01*
X187260882Y-91440000D01*
X187455205Y-91409221D01*
X187642335Y-91348418D01*
X187817643Y-91259095D01*
X187852625Y-91233678D01*
X187852626Y-91233678D01*
X187188948Y-90570000D01*
X187212528Y-90570000D01*
X187309175Y-90544104D01*
X187395825Y-90494076D01*
X187466576Y-90423325D01*
X187516604Y-90336675D01*
X187542500Y-90240028D01*
X187542500Y-90216448D01*
X188206178Y-90880126D01*
X188206178Y-90880125D01*
X188231597Y-90845141D01*
X188321734Y-90668236D01*
X188369708Y-90617439D01*
X188437529Y-90600644D01*
X188503664Y-90623181D01*
X188542704Y-90668235D01*
X188543615Y-90670024D01*
X188543616Y-90670025D01*
X188632976Y-90845405D01*
X188748672Y-91004646D01*
X188887854Y-91143828D01*
X189047095Y-91259524D01*
X189121714Y-91297544D01*
X189222470Y-91348882D01*
X189222472Y-91348882D01*
X189222475Y-91348884D01*
X189322817Y-91381487D01*
X189409673Y-91409709D01*
X189604078Y-91440500D01*
X189604083Y-91440500D01*
X189800922Y-91440500D01*
X189995326Y-91409709D01*
X190075074Y-91383797D01*
X190182525Y-91348884D01*
X190357905Y-91259524D01*
X190517146Y-91143828D01*
X190656328Y-91004646D01*
X190772024Y-90845405D01*
X190861384Y-90670025D01*
X190862015Y-90668787D01*
X190909989Y-90617990D01*
X190977810Y-90601195D01*
X191043945Y-90623732D01*
X191082985Y-90668787D01*
X191172974Y-90845403D01*
X191177317Y-90851380D01*
X191288672Y-91004646D01*
X191427854Y-91143828D01*
X191587095Y-91259524D01*
X191661714Y-91297544D01*
X191762470Y-91348882D01*
X191762472Y-91348882D01*
X191762475Y-91348884D01*
X191862817Y-91381487D01*
X191949673Y-91409709D01*
X192144078Y-91440500D01*
X192144083Y-91440500D01*
X192340922Y-91440500D01*
X192535326Y-91409709D01*
X192615074Y-91383797D01*
X192722525Y-91348884D01*
X192897905Y-91259524D01*
X193057146Y-91143828D01*
X193196328Y-91004646D01*
X193307684Y-90851378D01*
X193363012Y-90808714D01*
X193432625Y-90802735D01*
X193494420Y-90835341D01*
X193528777Y-90896179D01*
X193532000Y-90924263D01*
X193532000Y-90987869D01*
X193532001Y-90987876D01*
X193538408Y-91047483D01*
X193588702Y-91182328D01*
X193588704Y-91182331D01*
X193662709Y-91281189D01*
X193687127Y-91346653D01*
X193672276Y-91414926D01*
X193622871Y-91464332D01*
X193563443Y-91479500D01*
X193414078Y-91479500D01*
X193219673Y-91510290D01*
X193032470Y-91571117D01*
X192857094Y-91660476D01*
X192766241Y-91726485D01*
X192697854Y-91776172D01*
X192697852Y-91776174D01*
X192697851Y-91776174D01*
X192558674Y-91915351D01*
X192558674Y-91915352D01*
X192558672Y-91915354D01*
X192508985Y-91983741D01*
X192442976Y-92074594D01*
X192352985Y-92251213D01*
X192305011Y-92302009D01*
X192237190Y-92318804D01*
X192171055Y-92296267D01*
X192132015Y-92251213D01*
X192104897Y-92197992D01*
X192042024Y-92074595D01*
X191926328Y-91915354D01*
X191787146Y-91776172D01*
X191627905Y-91660476D01*
X191452529Y-91571117D01*
X191265326Y-91510290D01*
X191070922Y-91479500D01*
X191070917Y-91479500D01*
X190874083Y-91479500D01*
X190874078Y-91479500D01*
X190679673Y-91510290D01*
X190492470Y-91571117D01*
X190317094Y-91660476D01*
X190226241Y-91726485D01*
X190157854Y-91776172D01*
X190157852Y-91776174D01*
X190157851Y-91776174D01*
X190018674Y-91915351D01*
X190018674Y-91915352D01*
X190018672Y-91915354D01*
X189968985Y-91983741D01*
X189902976Y-92074594D01*
X189812985Y-92251213D01*
X189765011Y-92302009D01*
X189697190Y-92318804D01*
X189631055Y-92296267D01*
X189592015Y-92251213D01*
X189564897Y-92197992D01*
X189502024Y-92074595D01*
X189386328Y-91915354D01*
X189247146Y-91776172D01*
X189087905Y-91660476D01*
X188912529Y-91571117D01*
X188725326Y-91510290D01*
X188530922Y-91479500D01*
X188530917Y-91479500D01*
X188334083Y-91479500D01*
X188334078Y-91479500D01*
X188139673Y-91510290D01*
X187952470Y-91571117D01*
X187777094Y-91660476D01*
X187686241Y-91726485D01*
X187617854Y-91776172D01*
X187617852Y-91776174D01*
X187617851Y-91776174D01*
X187478674Y-91915351D01*
X187478674Y-91915352D01*
X187478672Y-91915354D01*
X187428985Y-91983741D01*
X187362976Y-92074594D01*
X187272704Y-92251764D01*
X187224729Y-92302560D01*
X187156908Y-92319355D01*
X187090774Y-92296818D01*
X187051734Y-92251764D01*
X186961596Y-92074858D01*
X186936178Y-92039873D01*
X186936177Y-92039873D01*
X186272500Y-92703551D01*
X186272500Y-92679972D01*
X186246604Y-92583325D01*
X186196576Y-92496675D01*
X186125825Y-92425924D01*
X186039175Y-92375896D01*
X185942528Y-92350000D01*
X185918947Y-92350000D01*
X186582625Y-91686320D01*
X186582625Y-91686319D01*
X186547645Y-91660905D01*
X186372335Y-91571581D01*
X186185205Y-91510778D01*
X185990882Y-91480000D01*
X185794118Y-91480000D01*
X185599794Y-91510778D01*
X185412661Y-91571582D01*
X185237363Y-91660899D01*
X185237359Y-91660902D01*
X185202373Y-91686320D01*
X185202372Y-91686320D01*
X185866054Y-92350000D01*
X185842472Y-92350000D01*
X185745825Y-92375896D01*
X185659175Y-92425924D01*
X185588424Y-92496675D01*
X185538396Y-92583325D01*
X185512500Y-92679972D01*
X185512500Y-92703552D01*
X184848820Y-92039872D01*
X184848820Y-92039873D01*
X184823402Y-92074859D01*
X184823399Y-92074863D01*
X184734082Y-92250161D01*
X184673278Y-92437294D01*
X184642500Y-92631617D01*
X155991617Y-92631617D01*
X164904523Y-83718711D01*
X182772000Y-83718711D01*
X182772000Y-83961288D01*
X182803661Y-84201785D01*
X182866447Y-84436104D01*
X182936893Y-84606174D01*
X182959276Y-84660212D01*
X183080564Y-84870289D01*
X183080566Y-84870292D01*
X183080567Y-84870293D01*
X183228233Y-85062736D01*
X183228239Y-85062743D01*
X183399756Y-85234260D01*
X183399763Y-85234266D01*
X183498459Y-85309998D01*
X183592211Y-85381936D01*
X183802288Y-85503224D01*
X184026400Y-85596054D01*
X184260711Y-85658838D01*
X184441086Y-85682584D01*
X184501211Y-85690500D01*
X184501212Y-85690500D01*
X184743789Y-85690500D01*
X184791888Y-85684167D01*
X184984289Y-85658838D01*
X185218600Y-85596054D01*
X185442712Y-85503224D01*
X185652789Y-85381936D01*
X185845238Y-85234265D01*
X186016765Y-85062738D01*
X186164436Y-84870289D01*
X186285724Y-84660212D01*
X186378554Y-84436100D01*
X186441338Y-84201789D01*
X186473000Y-83961288D01*
X186473000Y-83718712D01*
X186473000Y-83718711D01*
X194202000Y-83718711D01*
X194202000Y-83961288D01*
X194233661Y-84201785D01*
X194296447Y-84436104D01*
X194366893Y-84606174D01*
X194389276Y-84660212D01*
X194510564Y-84870289D01*
X194510566Y-84870292D01*
X194510567Y-84870293D01*
X194658233Y-85062736D01*
X194658239Y-85062743D01*
X194829756Y-85234260D01*
X194829763Y-85234266D01*
X194928459Y-85309998D01*
X195022211Y-85381936D01*
X195232288Y-85503224D01*
X195456400Y-85596054D01*
X195690711Y-85658838D01*
X195871086Y-85682584D01*
X195931211Y-85690500D01*
X195931212Y-85690500D01*
X196173789Y-85690500D01*
X196221888Y-85684167D01*
X196414289Y-85658838D01*
X196648600Y-85596054D01*
X196872712Y-85503224D01*
X197082789Y-85381936D01*
X197275238Y-85234265D01*
X197446765Y-85062738D01*
X197594436Y-84870289D01*
X197715724Y-84660212D01*
X197808554Y-84436100D01*
X197871338Y-84201789D01*
X197903000Y-83961288D01*
X197903000Y-83718712D01*
X197871338Y-83478211D01*
X197808554Y-83243900D01*
X197715724Y-83019788D01*
X197594436Y-82809711D01*
X197476709Y-82656286D01*
X197446766Y-82617263D01*
X197446760Y-82617256D01*
X197275243Y-82445739D01*
X197275236Y-82445733D01*
X197082793Y-82298067D01*
X197082792Y-82298066D01*
X197082789Y-82298064D01*
X196872712Y-82176776D01*
X196872705Y-82176773D01*
X196648604Y-82083947D01*
X196414285Y-82021161D01*
X196173789Y-81989500D01*
X196173788Y-81989500D01*
X195931212Y-81989500D01*
X195931211Y-81989500D01*
X195690714Y-82021161D01*
X195456395Y-82083947D01*
X195232294Y-82176773D01*
X195232285Y-82176777D01*
X195022206Y-82298067D01*
X194829763Y-82445733D01*
X194829756Y-82445739D01*
X194658239Y-82617256D01*
X194658233Y-82617263D01*
X194510567Y-82809706D01*
X194389277Y-83019785D01*
X194389273Y-83019794D01*
X194296447Y-83243895D01*
X194233661Y-83478214D01*
X194202000Y-83718711D01*
X186473000Y-83718711D01*
X186441338Y-83478211D01*
X186378554Y-83243900D01*
X186285724Y-83019788D01*
X186164436Y-82809711D01*
X186046709Y-82656286D01*
X186016766Y-82617263D01*
X186016760Y-82617256D01*
X185845243Y-82445739D01*
X185845236Y-82445733D01*
X185652793Y-82298067D01*
X185652792Y-82298066D01*
X185652789Y-82298064D01*
X185442712Y-82176776D01*
X185442705Y-82176773D01*
X185218604Y-82083947D01*
X184984285Y-82021161D01*
X184743789Y-81989500D01*
X184743788Y-81989500D01*
X184501212Y-81989500D01*
X184501211Y-81989500D01*
X184260714Y-82021161D01*
X184026395Y-82083947D01*
X183802294Y-82176773D01*
X183802285Y-82176777D01*
X183592206Y-82298067D01*
X183399763Y-82445733D01*
X183399756Y-82445739D01*
X183228239Y-82617256D01*
X183228233Y-82617263D01*
X183080567Y-82809706D01*
X182959277Y-83019785D01*
X182959273Y-83019794D01*
X182866447Y-83243895D01*
X182803661Y-83478214D01*
X182772000Y-83718711D01*
X164904523Y-83718711D01*
X166275479Y-82347755D01*
X166336800Y-82314272D01*
X166401476Y-82317507D01*
X166443757Y-82331246D01*
X166653713Y-82364500D01*
X166653714Y-82364500D01*
X166866286Y-82364500D01*
X166866287Y-82364500D01*
X167076243Y-82331246D01*
X167278412Y-82265557D01*
X167467816Y-82169051D01*
X167554471Y-82106093D01*
X167639786Y-82044109D01*
X167639788Y-82044106D01*
X167639792Y-82044104D01*
X167790104Y-81893792D01*
X167790106Y-81893788D01*
X167790109Y-81893786D01*
X167915048Y-81721820D01*
X167915047Y-81721820D01*
X167915051Y-81721816D01*
X168011557Y-81532412D01*
X168077246Y-81330243D01*
X168098200Y-81197947D01*
X171529500Y-81197947D01*
X171529500Y-81430052D01*
X171541328Y-81519890D01*
X171559794Y-81660149D01*
X171573970Y-81713056D01*
X171619862Y-81884328D01*
X171708677Y-82098745D01*
X171708685Y-82098762D01*
X171824720Y-82299743D01*
X171824721Y-82299745D01*
X171966009Y-82483875D01*
X171966015Y-82483882D01*
X172130117Y-82647984D01*
X172130124Y-82647990D01*
X172314254Y-82789278D01*
X172314256Y-82789279D01*
X172515237Y-82905314D01*
X172515240Y-82905315D01*
X172515248Y-82905320D01*
X172729670Y-82994137D01*
X172953851Y-83054206D01*
X173183955Y-83084500D01*
X173183962Y-83084500D01*
X173416038Y-83084500D01*
X173416045Y-83084500D01*
X173646149Y-83054206D01*
X173870330Y-82994137D01*
X174084752Y-82905320D01*
X174285748Y-82789276D01*
X174469877Y-82647989D01*
X174633989Y-82483877D01*
X174775276Y-82299748D01*
X174891320Y-82098752D01*
X174980137Y-81884330D01*
X175040206Y-81660149D01*
X175070500Y-81430045D01*
X175070500Y-81197955D01*
X175040206Y-80967851D01*
X174980137Y-80743670D01*
X174891320Y-80529248D01*
X174804146Y-80378256D01*
X174775279Y-80328256D01*
X174775278Y-80328254D01*
X174633990Y-80144124D01*
X174633984Y-80144117D01*
X174469882Y-79980015D01*
X174469875Y-79980009D01*
X174359425Y-79895258D01*
X206529500Y-79895258D01*
X206529500Y-80124741D01*
X206553389Y-80306184D01*
X206559452Y-80352238D01*
X206597861Y-80495585D01*
X206618842Y-80573887D01*
X206706650Y-80785876D01*
X206706657Y-80785890D01*
X206821392Y-80984617D01*
X206961081Y-81166661D01*
X206961089Y-81166670D01*
X207123330Y-81328911D01*
X207123338Y-81328918D01*
X207123339Y-81328919D01*
X207156522Y-81354381D01*
X207305382Y-81468607D01*
X207305385Y-81468608D01*
X207305388Y-81468611D01*
X207504112Y-81583344D01*
X207504117Y-81583346D01*
X207504123Y-81583349D01*
X207595480Y-81621190D01*
X207716113Y-81671158D01*
X207937762Y-81730548D01*
X208165266Y-81760500D01*
X208165273Y-81760500D01*
X208394727Y-81760500D01*
X208394734Y-81760500D01*
X208622238Y-81730548D01*
X208843887Y-81671158D01*
X209055888Y-81583344D01*
X209254612Y-81468611D01*
X209436661Y-81328919D01*
X209436665Y-81328914D01*
X209436670Y-81328911D01*
X209598911Y-81166670D01*
X209598914Y-81166665D01*
X209598919Y-81166661D01*
X209738611Y-80984612D01*
X209853344Y-80785888D01*
X209941158Y-80573887D01*
X210000548Y-80352238D01*
X210030500Y-80124734D01*
X210030500Y-79895266D01*
X210000548Y-79667762D01*
X209941158Y-79446113D01*
X209888736Y-79319556D01*
X209853349Y-79234123D01*
X209853346Y-79234117D01*
X209853344Y-79234112D01*
X209738611Y-79035388D01*
X209738608Y-79035385D01*
X209738607Y-79035382D01*
X209598918Y-78853338D01*
X209598911Y-78853330D01*
X209436670Y-78691089D01*
X209436661Y-78691081D01*
X209254617Y-78551392D01*
X209055890Y-78436657D01*
X209055876Y-78436650D01*
X208843887Y-78348842D01*
X208798120Y-78336579D01*
X208622238Y-78289452D01*
X208584215Y-78284446D01*
X208394741Y-78259500D01*
X208394734Y-78259500D01*
X208165266Y-78259500D01*
X208165258Y-78259500D01*
X207948715Y-78288009D01*
X207937762Y-78289452D01*
X207844076Y-78314554D01*
X207716112Y-78348842D01*
X207504123Y-78436650D01*
X207504109Y-78436657D01*
X207305382Y-78551392D01*
X207123338Y-78691081D01*
X206961081Y-78853338D01*
X206821392Y-79035382D01*
X206706657Y-79234109D01*
X206706650Y-79234123D01*
X206618842Y-79446112D01*
X206584630Y-79573794D01*
X206568536Y-79633862D01*
X206559453Y-79667759D01*
X206559451Y-79667770D01*
X206529500Y-79895258D01*
X174359425Y-79895258D01*
X174285745Y-79838721D01*
X174285743Y-79838720D01*
X174084762Y-79722685D01*
X174084754Y-79722681D01*
X174084752Y-79722680D01*
X174052535Y-79709335D01*
X173870328Y-79633862D01*
X173719693Y-79593500D01*
X173646149Y-79573794D01*
X173617386Y-79570007D01*
X173416052Y-79543500D01*
X173416045Y-79543500D01*
X173183955Y-79543500D01*
X173183947Y-79543500D01*
X172953851Y-79573794D01*
X172729671Y-79633862D01*
X172515254Y-79722677D01*
X172515237Y-79722685D01*
X172314256Y-79838720D01*
X172314254Y-79838721D01*
X172130124Y-79980009D01*
X172130117Y-79980015D01*
X171966015Y-80144117D01*
X171966009Y-80144124D01*
X171824721Y-80328254D01*
X171824720Y-80328256D01*
X171708685Y-80529237D01*
X171708677Y-80529254D01*
X171619862Y-80743671D01*
X171559794Y-80967851D01*
X171529500Y-81197947D01*
X168098200Y-81197947D01*
X168110500Y-81120287D01*
X168110500Y-80907713D01*
X168077246Y-80697757D01*
X168011557Y-80495588D01*
X167915051Y-80306184D01*
X167915049Y-80306181D01*
X167915048Y-80306179D01*
X167790109Y-80134213D01*
X167639786Y-79983890D01*
X167467820Y-79858951D01*
X167278414Y-79762444D01*
X167278413Y-79762443D01*
X167278412Y-79762443D01*
X167076243Y-79696754D01*
X167076241Y-79696753D01*
X167076240Y-79696753D01*
X166914957Y-79671208D01*
X166866287Y-79663500D01*
X166653713Y-79663500D01*
X166605042Y-79671208D01*
X166443760Y-79696753D01*
X166241585Y-79762444D01*
X166052179Y-79858951D01*
X165880213Y-79983890D01*
X165729890Y-80134213D01*
X165604949Y-80306182D01*
X165600484Y-80314946D01*
X165552509Y-80365742D01*
X165484688Y-80382536D01*
X165418553Y-80359998D01*
X165379516Y-80314946D01*
X165375050Y-80306182D01*
X165250109Y-80134213D01*
X165099786Y-79983890D01*
X164927820Y-79858951D01*
X164738414Y-79762444D01*
X164738413Y-79762443D01*
X164738412Y-79762443D01*
X164536243Y-79696754D01*
X164536241Y-79696753D01*
X164536240Y-79696753D01*
X164374957Y-79671208D01*
X164326287Y-79663500D01*
X164113713Y-79663500D01*
X164065042Y-79671208D01*
X163903760Y-79696753D01*
X163701585Y-79762444D01*
X163512179Y-79858951D01*
X163340213Y-79983890D01*
X163189890Y-80134213D01*
X163064949Y-80306182D01*
X163060484Y-80314946D01*
X163012509Y-80365742D01*
X162944688Y-80382536D01*
X162878553Y-80359998D01*
X162839516Y-80314946D01*
X162835050Y-80306182D01*
X162710109Y-80134213D01*
X162559786Y-79983890D01*
X162387820Y-79858951D01*
X162198414Y-79762444D01*
X162198413Y-79762443D01*
X162198412Y-79762443D01*
X161996243Y-79696754D01*
X161996241Y-79696753D01*
X161996240Y-79696753D01*
X161834957Y-79671208D01*
X161786287Y-79663500D01*
X161573713Y-79663500D01*
X161525042Y-79671208D01*
X161363760Y-79696753D01*
X161161585Y-79762444D01*
X160972179Y-79858951D01*
X160800215Y-79983889D01*
X160686285Y-80097819D01*
X160624962Y-80131303D01*
X160555270Y-80126319D01*
X160499337Y-80084447D01*
X160482422Y-80053470D01*
X160433354Y-79921913D01*
X160433350Y-79921906D01*
X160347190Y-79806812D01*
X160347187Y-79806809D01*
X160232093Y-79720649D01*
X160232086Y-79720645D01*
X160097379Y-79670403D01*
X160097372Y-79670401D01*
X160037844Y-79664000D01*
X159390000Y-79664000D01*
X159390000Y-80580988D01*
X159332993Y-80548075D01*
X159205826Y-80514000D01*
X159074174Y-80514000D01*
X158947007Y-80548075D01*
X158890000Y-80580988D01*
X158890000Y-79664000D01*
X158242155Y-79664000D01*
X158182627Y-79670401D01*
X158182620Y-79670403D01*
X158047913Y-79720645D01*
X158047906Y-79720649D01*
X157932812Y-79806809D01*
X157932809Y-79806812D01*
X157846649Y-79921906D01*
X157846645Y-79921913D01*
X157796403Y-80056620D01*
X157796401Y-80056627D01*
X157790000Y-80116155D01*
X157790000Y-80764000D01*
X158706988Y-80764000D01*
X158674075Y-80821007D01*
X158640000Y-80948174D01*
X158640000Y-81079826D01*
X158674075Y-81206993D01*
X158706988Y-81264000D01*
X157790000Y-81264000D01*
X157790000Y-81911844D01*
X157796401Y-81971372D01*
X157796403Y-81971379D01*
X157846645Y-82106086D01*
X157846649Y-82106093D01*
X157932809Y-82221187D01*
X157932812Y-82221190D01*
X158047906Y-82307350D01*
X158047913Y-82307354D01*
X158182620Y-82357596D01*
X158182627Y-82357598D01*
X158242155Y-82363999D01*
X158242172Y-82364000D01*
X158890000Y-82364000D01*
X158890000Y-81447012D01*
X158947007Y-81479925D01*
X159074174Y-81514000D01*
X159205826Y-81514000D01*
X159332993Y-81479925D01*
X159390000Y-81447012D01*
X159390000Y-82364000D01*
X160037828Y-82364000D01*
X160037844Y-82363999D01*
X160097372Y-82357598D01*
X160097379Y-82357596D01*
X160232086Y-82307354D01*
X160232093Y-82307350D01*
X160347187Y-82221190D01*
X160347190Y-82221187D01*
X160433350Y-82106093D01*
X160433354Y-82106086D01*
X160482422Y-81974529D01*
X160524293Y-81918595D01*
X160589757Y-81894178D01*
X160658030Y-81909030D01*
X160686285Y-81930181D01*
X160800213Y-82044109D01*
X160972179Y-82169048D01*
X160972181Y-82169049D01*
X160972184Y-82169051D01*
X161161588Y-82265557D01*
X161363757Y-82331246D01*
X161573713Y-82364500D01*
X161573714Y-82364500D01*
X161786286Y-82364500D01*
X161786287Y-82364500D01*
X161996243Y-82331246D01*
X162198412Y-82265557D01*
X162387816Y-82169051D01*
X162474471Y-82106093D01*
X162559786Y-82044109D01*
X162559788Y-82044106D01*
X162559792Y-82044104D01*
X162710104Y-81893792D01*
X162710106Y-81893788D01*
X162710109Y-81893786D01*
X162835048Y-81721820D01*
X162835047Y-81721820D01*
X162835051Y-81721816D01*
X162839514Y-81713054D01*
X162887488Y-81662259D01*
X162955308Y-81645463D01*
X163021444Y-81667999D01*
X163060486Y-81713056D01*
X163064951Y-81721820D01*
X163189890Y-81893786D01*
X163340213Y-82044109D01*
X163512179Y-82169048D01*
X163512181Y-82169049D01*
X163512184Y-82169051D01*
X163701588Y-82265557D01*
X163903757Y-82331246D01*
X164113713Y-82364500D01*
X164113714Y-82364500D01*
X164260902Y-82364500D01*
X164327941Y-82384185D01*
X164373696Y-82436989D01*
X164383640Y-82506147D01*
X164354615Y-82569703D01*
X164348583Y-82576181D01*
X142031584Y-104893181D01*
X141970261Y-104926666D01*
X141943903Y-104929500D01*
X141015781Y-104929500D01*
X140948742Y-104909815D01*
X140902987Y-104857011D01*
X140893043Y-104787853D01*
X140905296Y-104749205D01*
X140915230Y-104729706D01*
X140951557Y-104658412D01*
X141017246Y-104456243D01*
X141050500Y-104246287D01*
X141050500Y-104033713D01*
X141017246Y-103823757D01*
X140951557Y-103621588D01*
X140855051Y-103432184D01*
X140855049Y-103432181D01*
X140855048Y-103432179D01*
X140730109Y-103260213D01*
X140579786Y-103109890D01*
X140407820Y-102984951D01*
X140407115Y-102984591D01*
X140399054Y-102980485D01*
X140348259Y-102932512D01*
X140331463Y-102864692D01*
X140353999Y-102798556D01*
X140399054Y-102759515D01*
X140407816Y-102755051D01*
X140429789Y-102739086D01*
X140579786Y-102630109D01*
X140579788Y-102630106D01*
X140579792Y-102630104D01*
X140730104Y-102479792D01*
X140730106Y-102479788D01*
X140730109Y-102479786D01*
X140855048Y-102307820D01*
X140855047Y-102307820D01*
X140855051Y-102307816D01*
X140951557Y-102118412D01*
X141017246Y-101916243D01*
X141050500Y-101706287D01*
X141050500Y-101493713D01*
X141017246Y-101283757D01*
X140951557Y-101081588D01*
X140855051Y-100892184D01*
X140855049Y-100892181D01*
X140855048Y-100892179D01*
X140730109Y-100720213D01*
X140579786Y-100569890D01*
X140407820Y-100444951D01*
X140407115Y-100444591D01*
X140399054Y-100440485D01*
X140348259Y-100392512D01*
X140331463Y-100324692D01*
X140353999Y-100258556D01*
X140399054Y-100219515D01*
X140407816Y-100215051D01*
X140429789Y-100199086D01*
X140579786Y-100090109D01*
X140579788Y-100090106D01*
X140579792Y-100090104D01*
X140730104Y-99939792D01*
X140730106Y-99939788D01*
X140730109Y-99939786D01*
X140855048Y-99767820D01*
X140855047Y-99767820D01*
X140855051Y-99767816D01*
X140951557Y-99578412D01*
X141017246Y-99376243D01*
X141050500Y-99166287D01*
X141050500Y-98953713D01*
X141017246Y-98743757D01*
X140951557Y-98541588D01*
X140855051Y-98352184D01*
X140855049Y-98352181D01*
X140855048Y-98352179D01*
X140730109Y-98180213D01*
X140579786Y-98029890D01*
X140407817Y-97904949D01*
X140398504Y-97900204D01*
X140347707Y-97852230D01*
X140330912Y-97784409D01*
X140353449Y-97718274D01*
X140398507Y-97679232D01*
X140407555Y-97674622D01*
X140461716Y-97635270D01*
X140461717Y-97635270D01*
X139829408Y-97002962D01*
X139892993Y-96985925D01*
X140007007Y-96920099D01*
X140100099Y-96827007D01*
X140165925Y-96712993D01*
X140182962Y-96649409D01*
X140815270Y-97281717D01*
X140815270Y-97281716D01*
X140854622Y-97227554D01*
X140951095Y-97038217D01*
X141016757Y-96836130D01*
X141016757Y-96836127D01*
X141050000Y-96626246D01*
X141050000Y-96413753D01*
X141016757Y-96203872D01*
X141016757Y-96203869D01*
X140951095Y-96001782D01*
X140854624Y-95812449D01*
X140815270Y-95758282D01*
X140815269Y-95758282D01*
X140182962Y-96390590D01*
X140165925Y-96327007D01*
X140100099Y-96212993D01*
X140007007Y-96119901D01*
X139892993Y-96054075D01*
X139829408Y-96037037D01*
X140461716Y-95404728D01*
X140407547Y-95365373D01*
X140407547Y-95365372D01*
X140398500Y-95360763D01*
X140347706Y-95312788D01*
X140330912Y-95244966D01*
X140353451Y-95178832D01*
X140398508Y-95139793D01*
X140407816Y-95135051D01*
X140511840Y-95059474D01*
X140579786Y-95010109D01*
X140579788Y-95010106D01*
X140579792Y-95010104D01*
X140730104Y-94859792D01*
X140730106Y-94859788D01*
X140730109Y-94859786D01*
X140855048Y-94687820D01*
X140855047Y-94687820D01*
X140855051Y-94687816D01*
X140951557Y-94498412D01*
X141017246Y-94296243D01*
X141050500Y-94086287D01*
X141050500Y-93873713D01*
X141017246Y-93663757D01*
X140951557Y-93461588D01*
X140855051Y-93272184D01*
X140855049Y-93272181D01*
X140855048Y-93272179D01*
X140730109Y-93100213D01*
X140616569Y-92986673D01*
X140583084Y-92925350D01*
X140588068Y-92855658D01*
X140629940Y-92799725D01*
X140660915Y-92782810D01*
X140792331Y-92733796D01*
X140907546Y-92647546D01*
X140993796Y-92532331D01*
X141044091Y-92397483D01*
X141050500Y-92337873D01*
X141050499Y-90542128D01*
X141044091Y-90482517D01*
X140993796Y-90347669D01*
X140993795Y-90347668D01*
X140993793Y-90347664D01*
X140907547Y-90232455D01*
X140907544Y-90232452D01*
X140792335Y-90146206D01*
X140792328Y-90146202D01*
X140657482Y-90095908D01*
X140657483Y-90095908D01*
X140597883Y-90089501D01*
X140597881Y-90089500D01*
X140597873Y-90089500D01*
X140597864Y-90089500D01*
X138802129Y-90089500D01*
X138802123Y-90089501D01*
X138742516Y-90095908D01*
X138607671Y-90146202D01*
X138607664Y-90146206D01*
X138492455Y-90232452D01*
X138492452Y-90232455D01*
X138406206Y-90347664D01*
X138406202Y-90347671D01*
X138355908Y-90482517D01*
X138349501Y-90542116D01*
X138349501Y-90542123D01*
X138349500Y-90542135D01*
X138349500Y-92337870D01*
X138349501Y-92337876D01*
X138355908Y-92397483D01*
X138406202Y-92532328D01*
X138406206Y-92532335D01*
X138492452Y-92647544D01*
X138492455Y-92647547D01*
X138607664Y-92733793D01*
X138607671Y-92733797D01*
X138739082Y-92782810D01*
X138795016Y-92824681D01*
X138819433Y-92890145D01*
X138804582Y-92958418D01*
X138783431Y-92986673D01*
X138669889Y-93100215D01*
X138544951Y-93272179D01*
X138448444Y-93461585D01*
X138382753Y-93663760D01*
X138361250Y-93799524D01*
X138349500Y-93873713D01*
X138349500Y-94086287D01*
X138366127Y-94191265D01*
X138382754Y-94296244D01*
X138382754Y-94296247D01*
X138396491Y-94338523D01*
X138398486Y-94408364D01*
X138366241Y-94464522D01*
X135797584Y-97033181D01*
X135736261Y-97066666D01*
X135709903Y-97069500D01*
X128412127Y-97069500D01*
X128345088Y-97049815D01*
X128299333Y-96997011D01*
X128289389Y-96927853D01*
X128294196Y-96907182D01*
X128317246Y-96836243D01*
X128350500Y-96626287D01*
X128350500Y-96413713D01*
X128317246Y-96203757D01*
X128251557Y-96001588D01*
X128155051Y-95812184D01*
X128155049Y-95812181D01*
X128155048Y-95812179D01*
X128030109Y-95640213D01*
X127879786Y-95489890D01*
X127707820Y-95364951D01*
X127699600Y-95360763D01*
X127699054Y-95360485D01*
X127648259Y-95312512D01*
X127631463Y-95244692D01*
X127653999Y-95178556D01*
X127699054Y-95139515D01*
X127707816Y-95135051D01*
X127811840Y-95059474D01*
X127879786Y-95010109D01*
X127879788Y-95010106D01*
X127879792Y-95010104D01*
X128030104Y-94859792D01*
X128030106Y-94859788D01*
X128030109Y-94859786D01*
X128155048Y-94687820D01*
X128155047Y-94687820D01*
X128155051Y-94687816D01*
X128251557Y-94498412D01*
X128317246Y-94296243D01*
X128350500Y-94086287D01*
X128350500Y-93873713D01*
X128317246Y-93663757D01*
X128251557Y-93461588D01*
X128155051Y-93272184D01*
X128155049Y-93272181D01*
X128155048Y-93272179D01*
X128030109Y-93100213D01*
X127916569Y-92986673D01*
X127883084Y-92925350D01*
X127888068Y-92855658D01*
X127929940Y-92799725D01*
X127960915Y-92782810D01*
X128092331Y-92733796D01*
X128207546Y-92647546D01*
X128293796Y-92532331D01*
X128344091Y-92397483D01*
X128350500Y-92337873D01*
X128350499Y-90542128D01*
X128344091Y-90482517D01*
X128293796Y-90347669D01*
X128293795Y-90347668D01*
X128293793Y-90347664D01*
X128207547Y-90232455D01*
X128207544Y-90232452D01*
X128092335Y-90146206D01*
X128092328Y-90146202D01*
X127957482Y-90095908D01*
X127957483Y-90095908D01*
X127897883Y-90089501D01*
X127897881Y-90089500D01*
X127897873Y-90089500D01*
X127897864Y-90089500D01*
X126102129Y-90089500D01*
X126102123Y-90089501D01*
X126042516Y-90095908D01*
X125907671Y-90146202D01*
X125907664Y-90146206D01*
X125792455Y-90232452D01*
X125792452Y-90232455D01*
X125706206Y-90347664D01*
X125706202Y-90347671D01*
X125655908Y-90482517D01*
X125649501Y-90542116D01*
X125649501Y-90542123D01*
X125649500Y-90542135D01*
X125649500Y-92337870D01*
X125649501Y-92337876D01*
X125655908Y-92397483D01*
X125706202Y-92532328D01*
X125706206Y-92532335D01*
X125792452Y-92647544D01*
X125792455Y-92647547D01*
X125907664Y-92733793D01*
X125907671Y-92733797D01*
X126039082Y-92782810D01*
X126095016Y-92824681D01*
X126119433Y-92890145D01*
X126104582Y-92958418D01*
X126083431Y-92986673D01*
X125969889Y-93100215D01*
X125844951Y-93272179D01*
X125748444Y-93461585D01*
X125682753Y-93663760D01*
X125661250Y-93799524D01*
X125649500Y-93873713D01*
X125649500Y-94086287D01*
X125682754Y-94296243D01*
X125737431Y-94464522D01*
X125748444Y-94498414D01*
X125844951Y-94687820D01*
X125969890Y-94859786D01*
X126120213Y-95010109D01*
X126292182Y-95135050D01*
X126300946Y-95139516D01*
X126351742Y-95187491D01*
X126368536Y-95255312D01*
X126345998Y-95321447D01*
X126300946Y-95360484D01*
X126292182Y-95364949D01*
X126120213Y-95489890D01*
X125969890Y-95640213D01*
X125844951Y-95812179D01*
X125748444Y-96001585D01*
X125682753Y-96203760D01*
X125649500Y-96413713D01*
X125649500Y-96626286D01*
X125682735Y-96836127D01*
X125682754Y-96836243D01*
X125746743Y-97033181D01*
X125748444Y-97038414D01*
X125844951Y-97227820D01*
X125969890Y-97399786D01*
X125989580Y-97419476D01*
X126023065Y-97480799D01*
X126018081Y-97550491D01*
X125989580Y-97594838D01*
X112589481Y-110994936D01*
X112589479Y-110994939D01*
X112539361Y-111081748D01*
X112539359Y-111081750D01*
X112510425Y-111131863D01*
X112510424Y-111131864D01*
X112510423Y-111131869D01*
X112469499Y-111284597D01*
X112469499Y-111284599D01*
X112469499Y-111452700D01*
X112469500Y-111452713D01*
X112469500Y-136952047D01*
X112449815Y-137019086D01*
X112401796Y-137062531D01*
X112309774Y-137109419D01*
X112125061Y-137243622D01*
X111963622Y-137405061D01*
X111829421Y-137589771D01*
X111725770Y-137793196D01*
X111655215Y-138010339D01*
X111619500Y-138235837D01*
X98290500Y-138235837D01*
X98290500Y-93877682D01*
X113040000Y-93877682D01*
X113040000Y-94082317D01*
X113072009Y-94284417D01*
X113135244Y-94479031D01*
X113228141Y-94661350D01*
X113228147Y-94661359D01*
X113260523Y-94705921D01*
X113260524Y-94705922D01*
X113940000Y-94026446D01*
X113940000Y-94032661D01*
X113967259Y-94134394D01*
X114019920Y-94225606D01*
X114094394Y-94300080D01*
X114185606Y-94352741D01*
X114287339Y-94380000D01*
X114293553Y-94380000D01*
X113614076Y-95059474D01*
X113658650Y-95091859D01*
X113840968Y-95184755D01*
X114035582Y-95247990D01*
X114237683Y-95280000D01*
X114442317Y-95280000D01*
X114644417Y-95247990D01*
X114839031Y-95184755D01*
X115021349Y-95091859D01*
X115065921Y-95059474D01*
X114386447Y-94380000D01*
X114392661Y-94380000D01*
X114494394Y-94352741D01*
X114585606Y-94300080D01*
X114660080Y-94225606D01*
X114712741Y-94134394D01*
X114740000Y-94032661D01*
X114740000Y-94026448D01*
X115419474Y-94705922D01*
X115419474Y-94705921D01*
X115451859Y-94661349D01*
X115544755Y-94479031D01*
X115607990Y-94284417D01*
X115640000Y-94082317D01*
X115640000Y-93877682D01*
X115639995Y-93877648D01*
X118039500Y-93877648D01*
X118039500Y-94082351D01*
X118071522Y-94284534D01*
X118134781Y-94479223D01*
X118198691Y-94604653D01*
X118227585Y-94661359D01*
X118227715Y-94661613D01*
X118348028Y-94827213D01*
X118492786Y-94971971D01*
X118613226Y-95059474D01*
X118658390Y-95092287D01*
X118742319Y-95135051D01*
X118840776Y-95185218D01*
X118840778Y-95185218D01*
X118840781Y-95185220D01*
X118945137Y-95219127D01*
X119035465Y-95248477D01*
X119108382Y-95260026D01*
X119237648Y-95280500D01*
X119237649Y-95280500D01*
X119442351Y-95280500D01*
X119442352Y-95280500D01*
X119644534Y-95248477D01*
X119839219Y-95185220D01*
X120021610Y-95092287D01*
X120134726Y-95010104D01*
X120187213Y-94971971D01*
X120187215Y-94971968D01*
X120187219Y-94971966D01*
X120331966Y-94827219D01*
X120331968Y-94827215D01*
X120331971Y-94827213D01*
X120384732Y-94754590D01*
X120452287Y-94661610D01*
X120545220Y-94479219D01*
X120608477Y-94284534D01*
X120640500Y-94082352D01*
X120640500Y-93877648D01*
X120624032Y-93773677D01*
X120608477Y-93675465D01*
X120565971Y-93544646D01*
X120545220Y-93480781D01*
X120545218Y-93480778D01*
X120545218Y-93480776D01*
X120452419Y-93298650D01*
X120452287Y-93298390D01*
X120444556Y-93287749D01*
X120331971Y-93132786D01*
X120187213Y-92988028D01*
X120021613Y-92867715D01*
X120021612Y-92867714D01*
X120021610Y-92867713D01*
X119964653Y-92838691D01*
X119839223Y-92774781D01*
X119644534Y-92711522D01*
X119469995Y-92683878D01*
X119442352Y-92679500D01*
X119237648Y-92679500D01*
X119213329Y-92683351D01*
X119035465Y-92711522D01*
X118840776Y-92774781D01*
X118658386Y-92867715D01*
X118492786Y-92988028D01*
X118348028Y-93132786D01*
X118227715Y-93298386D01*
X118134781Y-93480776D01*
X118071522Y-93675465D01*
X118039500Y-93877648D01*
X115639995Y-93877648D01*
X115607990Y-93675582D01*
X115544755Y-93480968D01*
X115451859Y-93298650D01*
X115419474Y-93254077D01*
X115419474Y-93254076D01*
X114740000Y-93933551D01*
X114740000Y-93927339D01*
X114712741Y-93825606D01*
X114660080Y-93734394D01*
X114585606Y-93659920D01*
X114494394Y-93607259D01*
X114392661Y-93580000D01*
X114386446Y-93580000D01*
X115065922Y-92900524D01*
X115065921Y-92900523D01*
X115021359Y-92868147D01*
X115021350Y-92868141D01*
X114839031Y-92775244D01*
X114644417Y-92712009D01*
X114442317Y-92680000D01*
X114237683Y-92680000D01*
X114035582Y-92712009D01*
X113840968Y-92775244D01*
X113658644Y-92868143D01*
X113614077Y-92900523D01*
X113614077Y-92900524D01*
X114293554Y-93580000D01*
X114287339Y-93580000D01*
X114185606Y-93607259D01*
X114094394Y-93659920D01*
X114019920Y-93734394D01*
X113967259Y-93825606D01*
X113940000Y-93927339D01*
X113940000Y-93933553D01*
X113260524Y-93254077D01*
X113260523Y-93254077D01*
X113228143Y-93298644D01*
X113135244Y-93480968D01*
X113072009Y-93675582D01*
X113040000Y-93877682D01*
X98290500Y-93877682D01*
X98290500Y-83701947D01*
X112727677Y-83701947D01*
X112727677Y-83938052D01*
X112764611Y-84171247D01*
X112837574Y-84395802D01*
X112944764Y-84606174D01*
X113005015Y-84689104D01*
X113005017Y-84689105D01*
X113744714Y-83949408D01*
X113761752Y-84012993D01*
X113827578Y-84127007D01*
X113920670Y-84220099D01*
X114034684Y-84285925D01*
X114098267Y-84302962D01*
X113358570Y-85042658D01*
X113441505Y-85102914D01*
X113651874Y-85210102D01*
X113876429Y-85283065D01*
X113876428Y-85283065D01*
X114109625Y-85320000D01*
X114345729Y-85320000D01*
X114578924Y-85283065D01*
X114803479Y-85210102D01*
X115013840Y-85102918D01*
X115013846Y-85102914D01*
X115096781Y-85042658D01*
X115096782Y-85042658D01*
X114357085Y-84302962D01*
X114420670Y-84285925D01*
X114534684Y-84220099D01*
X114627776Y-84127007D01*
X114693602Y-84012993D01*
X114710639Y-83949409D01*
X115450335Y-84689105D01*
X115450335Y-84689104D01*
X115510591Y-84606169D01*
X115510595Y-84606163D01*
X115617779Y-84395802D01*
X115690742Y-84171247D01*
X115727677Y-83938052D01*
X115727677Y-83701947D01*
X115690742Y-83468752D01*
X115617779Y-83244197D01*
X115530616Y-83073129D01*
X115530615Y-83073127D01*
X115510593Y-83033830D01*
X115500532Y-83019983D01*
X120227177Y-83019983D01*
X120227177Y-84620001D01*
X120227178Y-84620018D01*
X120237677Y-84722796D01*
X120237678Y-84722799D01*
X120286552Y-84870289D01*
X120292863Y-84889334D01*
X120384965Y-85038656D01*
X120509021Y-85162712D01*
X120658343Y-85254814D01*
X120824880Y-85309999D01*
X120927668Y-85320500D01*
X122527685Y-85320499D01*
X122630474Y-85309999D01*
X122797011Y-85254814D01*
X122946333Y-85162712D01*
X123070389Y-85038656D01*
X123162491Y-84889334D01*
X123217676Y-84722797D01*
X123228177Y-84620009D01*
X123228176Y-83019992D01*
X123221117Y-82950893D01*
X123217676Y-82917203D01*
X123217675Y-82917200D01*
X123191854Y-82839278D01*
X123162491Y-82750666D01*
X123070389Y-82601344D01*
X122946333Y-82477288D01*
X122891964Y-82443753D01*
X134540000Y-82443753D01*
X134540000Y-82656246D01*
X134573242Y-82866127D01*
X134573242Y-82866130D01*
X134638904Y-83068217D01*
X134735375Y-83257550D01*
X134774728Y-83311716D01*
X135407037Y-82679408D01*
X135424075Y-82742993D01*
X135489901Y-82857007D01*
X135582993Y-82950099D01*
X135697007Y-83015925D01*
X135760590Y-83032962D01*
X135128282Y-83665269D01*
X135128282Y-83665270D01*
X135182449Y-83704624D01*
X135371782Y-83801095D01*
X135573870Y-83866757D01*
X135783754Y-83900000D01*
X135996246Y-83900000D01*
X136206127Y-83866757D01*
X136206130Y-83866757D01*
X136408217Y-83801095D01*
X136597554Y-83704622D01*
X136651716Y-83665270D01*
X136651717Y-83665270D01*
X136019408Y-83032962D01*
X136082993Y-83015925D01*
X136197007Y-82950099D01*
X136290099Y-82857007D01*
X136355925Y-82742993D01*
X136372962Y-82679408D01*
X137005270Y-83311717D01*
X137005270Y-83311716D01*
X137044622Y-83257554D01*
X137141095Y-83068217D01*
X137206757Y-82866130D01*
X137206757Y-82866127D01*
X137240000Y-82656246D01*
X137240000Y-82443753D01*
X137239994Y-82443713D01*
X138349500Y-82443713D01*
X138349500Y-82656286D01*
X138382735Y-82866127D01*
X138382754Y-82866243D01*
X138443827Y-83054206D01*
X138448444Y-83068414D01*
X138544951Y-83257820D01*
X138669890Y-83429786D01*
X138820213Y-83580109D01*
X138992179Y-83705048D01*
X138992181Y-83705049D01*
X138992184Y-83705051D01*
X139181588Y-83801557D01*
X139383757Y-83867246D01*
X139593713Y-83900500D01*
X139593714Y-83900500D01*
X139806286Y-83900500D01*
X139806287Y-83900500D01*
X140016243Y-83867246D01*
X140218412Y-83801557D01*
X140407816Y-83705051D01*
X140462572Y-83665269D01*
X140579786Y-83580109D01*
X140579788Y-83580106D01*
X140579792Y-83580104D01*
X140730104Y-83429792D01*
X140730106Y-83429788D01*
X140730109Y-83429786D01*
X140855048Y-83257820D01*
X140855047Y-83257820D01*
X140855051Y-83257816D01*
X140951557Y-83068412D01*
X141017246Y-82866243D01*
X141050500Y-82656287D01*
X141050500Y-82443713D01*
X141017246Y-82233757D01*
X140951557Y-82031588D01*
X140855051Y-81842184D01*
X140855049Y-81842181D01*
X140855048Y-81842179D01*
X140730109Y-81670213D01*
X140579786Y-81519890D01*
X140407819Y-81394951D01*
X140407818Y-81394950D01*
X140407816Y-81394949D01*
X140262696Y-81321007D01*
X140218414Y-81298444D01*
X140218413Y-81298443D01*
X140218412Y-81298443D01*
X140063002Y-81247947D01*
X150829500Y-81247947D01*
X150829500Y-81480052D01*
X150843100Y-81583349D01*
X150859794Y-81710149D01*
X150880730Y-81788282D01*
X150919862Y-81934328D01*
X151008677Y-82148745D01*
X151008685Y-82148762D01*
X151124720Y-82349743D01*
X151124721Y-82349745D01*
X151266009Y-82533875D01*
X151266015Y-82533882D01*
X151430117Y-82697984D01*
X151430124Y-82697990D01*
X151614254Y-82839278D01*
X151614256Y-82839279D01*
X151815237Y-82955314D01*
X151815240Y-82955315D01*
X151815248Y-82955320D01*
X152029670Y-83044137D01*
X152253851Y-83104206D01*
X152483955Y-83134500D01*
X152483962Y-83134500D01*
X152716038Y-83134500D01*
X152716045Y-83134500D01*
X152946149Y-83104206D01*
X153170330Y-83044137D01*
X153384752Y-82955320D01*
X153585748Y-82839276D01*
X153769877Y-82697989D01*
X153933989Y-82533877D01*
X154075276Y-82349748D01*
X154076426Y-82347757D01*
X154179602Y-82169048D01*
X154191320Y-82148752D01*
X154280137Y-81934330D01*
X154340206Y-81710149D01*
X154370500Y-81480045D01*
X154370500Y-81247955D01*
X154340206Y-81017851D01*
X154280137Y-80793670D01*
X154191320Y-80579248D01*
X154175790Y-80552349D01*
X154075279Y-80378256D01*
X154075278Y-80378254D01*
X153933989Y-80194122D01*
X153769882Y-80030015D01*
X153769875Y-80030009D01*
X153585745Y-79888721D01*
X153585743Y-79888720D01*
X153384762Y-79772685D01*
X153384754Y-79772681D01*
X153384752Y-79772680D01*
X153384745Y-79772677D01*
X153170328Y-79683862D01*
X152983723Y-79633862D01*
X152946149Y-79623794D01*
X152917386Y-79620007D01*
X152716052Y-79593500D01*
X152716045Y-79593500D01*
X152483955Y-79593500D01*
X152483947Y-79593500D01*
X152253851Y-79623794D01*
X152029671Y-79683862D01*
X151815254Y-79772677D01*
X151815237Y-79772685D01*
X151614256Y-79888720D01*
X151614254Y-79888721D01*
X151430124Y-80030009D01*
X151430117Y-80030015D01*
X151266015Y-80194117D01*
X151266009Y-80194124D01*
X151124721Y-80378254D01*
X151124720Y-80378256D01*
X151008685Y-80579237D01*
X151008677Y-80579254D01*
X150919862Y-80793671D01*
X150859794Y-81017851D01*
X150829500Y-81247947D01*
X140063002Y-81247947D01*
X140016243Y-81232754D01*
X140016241Y-81232753D01*
X140016240Y-81232753D01*
X139853596Y-81206993D01*
X139806287Y-81199500D01*
X139593713Y-81199500D01*
X139546404Y-81206993D01*
X139383760Y-81232753D01*
X139181585Y-81298444D01*
X138992179Y-81394951D01*
X138820213Y-81519890D01*
X138669890Y-81670213D01*
X138544951Y-81842179D01*
X138448444Y-82031585D01*
X138382753Y-82233760D01*
X138349500Y-82443713D01*
X137239994Y-82443713D01*
X137206757Y-82233872D01*
X137206757Y-82233869D01*
X137141095Y-82031782D01*
X137044624Y-81842449D01*
X137005270Y-81788282D01*
X137005269Y-81788282D01*
X136372962Y-82420590D01*
X136355925Y-82357007D01*
X136290099Y-82242993D01*
X136197007Y-82149901D01*
X136082993Y-82084075D01*
X136019409Y-82067037D01*
X136651716Y-81434728D01*
X136597550Y-81395375D01*
X136408217Y-81298904D01*
X136206129Y-81233242D01*
X135996246Y-81200000D01*
X135783754Y-81200000D01*
X135573872Y-81233242D01*
X135573869Y-81233242D01*
X135371782Y-81298904D01*
X135182439Y-81395380D01*
X135128282Y-81434727D01*
X135128282Y-81434728D01*
X135760591Y-82067037D01*
X135697007Y-82084075D01*
X135582993Y-82149901D01*
X135489901Y-82242993D01*
X135424075Y-82357007D01*
X135407037Y-82420591D01*
X134774728Y-81788282D01*
X134774727Y-81788282D01*
X134735380Y-81842439D01*
X134638904Y-82031782D01*
X134573242Y-82233869D01*
X134573242Y-82233872D01*
X134540000Y-82443753D01*
X122891964Y-82443753D01*
X122797011Y-82385186D01*
X122630474Y-82330001D01*
X122630472Y-82330000D01*
X122527687Y-82319500D01*
X120927675Y-82319500D01*
X120927658Y-82319501D01*
X120824880Y-82330000D01*
X120824877Y-82330001D01*
X120658345Y-82385185D01*
X120658340Y-82385187D01*
X120509019Y-82477289D01*
X120384966Y-82601342D01*
X120292864Y-82750663D01*
X120292863Y-82750666D01*
X120237678Y-82917203D01*
X120237678Y-82917204D01*
X120237677Y-82917204D01*
X120227177Y-83019983D01*
X115500532Y-83019983D01*
X115450335Y-82950894D01*
X115450335Y-82950893D01*
X114710639Y-83690590D01*
X114693602Y-83627007D01*
X114627776Y-83512993D01*
X114534684Y-83419901D01*
X114420670Y-83354075D01*
X114357086Y-83337037D01*
X115096782Y-82597340D01*
X115096781Y-82597338D01*
X115013851Y-82537087D01*
X114803479Y-82429897D01*
X114578924Y-82356934D01*
X114578925Y-82356934D01*
X114345729Y-82320000D01*
X114109625Y-82320000D01*
X113876429Y-82356934D01*
X113651874Y-82429897D01*
X113441507Y-82537084D01*
X113358571Y-82597340D01*
X114098268Y-83337037D01*
X114034684Y-83354075D01*
X113920670Y-83419901D01*
X113827578Y-83512993D01*
X113761752Y-83627007D01*
X113744714Y-83690591D01*
X113005017Y-82950894D01*
X112944761Y-83033830D01*
X112837574Y-83244197D01*
X112764611Y-83468752D01*
X112727677Y-83701947D01*
X98290500Y-83701947D01*
X98290500Y-79895258D01*
X99849500Y-79895258D01*
X99849500Y-80124741D01*
X99873389Y-80306184D01*
X99879452Y-80352238D01*
X99917861Y-80495585D01*
X99938842Y-80573887D01*
X100026650Y-80785876D01*
X100026657Y-80785890D01*
X100141392Y-80984617D01*
X100281081Y-81166661D01*
X100281089Y-81166670D01*
X100443330Y-81328911D01*
X100443338Y-81328918D01*
X100443339Y-81328919D01*
X100476522Y-81354381D01*
X100625382Y-81468607D01*
X100625385Y-81468608D01*
X100625388Y-81468611D01*
X100824112Y-81583344D01*
X100824117Y-81583346D01*
X100824123Y-81583349D01*
X100915480Y-81621190D01*
X101036113Y-81671158D01*
X101257762Y-81730548D01*
X101485266Y-81760500D01*
X101485273Y-81760500D01*
X101714727Y-81760500D01*
X101714734Y-81760500D01*
X101942238Y-81730548D01*
X102163887Y-81671158D01*
X102375888Y-81583344D01*
X102574612Y-81468611D01*
X102756661Y-81328919D01*
X102837633Y-81247947D01*
X102918911Y-81166670D01*
X102918914Y-81166665D01*
X102918919Y-81166661D01*
X103058611Y-80984612D01*
X103173344Y-80785888D01*
X103261158Y-80573887D01*
X103320548Y-80352238D01*
X103350500Y-80124734D01*
X103350500Y-79895266D01*
X103320548Y-79667762D01*
X103261158Y-79446113D01*
X103208736Y-79319556D01*
X103173349Y-79234123D01*
X103173346Y-79234117D01*
X103173344Y-79234112D01*
X103058611Y-79035388D01*
X103054845Y-79030480D01*
X103042295Y-79014124D01*
X103042294Y-79014123D01*
X102918918Y-78853338D01*
X102918911Y-78853330D01*
X102756670Y-78691089D01*
X102756661Y-78691081D01*
X102574617Y-78551392D01*
X102378006Y-78437879D01*
X102378004Y-78437877D01*
X102378003Y-78437877D01*
X102375892Y-78436658D01*
X102375876Y-78436650D01*
X102163887Y-78348842D01*
X102118120Y-78336579D01*
X132245000Y-78336579D01*
X132245000Y-78490000D01*
X132995000Y-78490000D01*
X132995000Y-78990000D01*
X132245000Y-78990000D01*
X132245000Y-79143420D01*
X132285348Y-79346266D01*
X132285350Y-79346274D01*
X132364500Y-79537358D01*
X132364505Y-79537368D01*
X132479410Y-79709335D01*
X132479413Y-79709339D01*
X132625660Y-79855586D01*
X132625664Y-79855589D01*
X132797631Y-79970494D01*
X132797641Y-79970499D01*
X132988723Y-80049648D01*
X132988725Y-80049649D01*
X133045000Y-80060842D01*
X133045000Y-79206988D01*
X133054940Y-79224205D01*
X133110795Y-79280060D01*
X133179204Y-79319556D01*
X133255504Y-79340000D01*
X133334496Y-79340000D01*
X133410796Y-79319556D01*
X133479205Y-79280060D01*
X133535060Y-79224205D01*
X133545000Y-79206988D01*
X133545000Y-80060842D01*
X133601274Y-80049649D01*
X133601276Y-80049648D01*
X133792358Y-79970499D01*
X133792368Y-79970494D01*
X133964335Y-79855589D01*
X133964339Y-79855586D01*
X134110586Y-79709339D01*
X134110589Y-79709335D01*
X134225494Y-79537368D01*
X134225499Y-79537358D01*
X134304649Y-79346274D01*
X134304651Y-79346266D01*
X134344999Y-79143420D01*
X134345000Y-79143417D01*
X134345000Y-78990000D01*
X133595000Y-78990000D01*
X133595000Y-78490000D01*
X134345000Y-78490000D01*
X134345000Y-78336583D01*
X134344999Y-78336579D01*
X141190000Y-78336579D01*
X141190000Y-78490000D01*
X141940000Y-78490000D01*
X141940000Y-78990000D01*
X141190000Y-78990000D01*
X141190000Y-79143420D01*
X141230348Y-79346266D01*
X141230350Y-79346274D01*
X141309500Y-79537358D01*
X141309505Y-79537368D01*
X141424410Y-79709335D01*
X141424413Y-79709339D01*
X141570660Y-79855586D01*
X141570664Y-79855589D01*
X141742631Y-79970494D01*
X141742641Y-79970499D01*
X141933723Y-80049648D01*
X141933725Y-80049649D01*
X141990000Y-80060842D01*
X141990000Y-79206988D01*
X141999940Y-79224205D01*
X142055795Y-79280060D01*
X142124204Y-79319556D01*
X142200504Y-79340000D01*
X142279496Y-79340000D01*
X142355796Y-79319556D01*
X142424205Y-79280060D01*
X142480060Y-79224205D01*
X142490000Y-79206988D01*
X142490000Y-80060842D01*
X142546274Y-80049649D01*
X142546276Y-80049648D01*
X142737358Y-79970499D01*
X142737368Y-79970494D01*
X142909335Y-79855589D01*
X142909339Y-79855586D01*
X143055586Y-79709339D01*
X143055589Y-79709335D01*
X143170494Y-79537368D01*
X143170499Y-79537358D01*
X143249649Y-79346274D01*
X143249651Y-79346266D01*
X143289999Y-79143420D01*
X143290000Y-79143417D01*
X143290000Y-78990000D01*
X142540000Y-78990000D01*
X142540000Y-78490000D01*
X143290000Y-78490000D01*
X143290000Y-78336583D01*
X143289999Y-78336579D01*
X143249651Y-78133733D01*
X143249649Y-78133725D01*
X143170499Y-77942641D01*
X143170494Y-77942631D01*
X143055589Y-77770664D01*
X143055586Y-77770660D01*
X142909339Y-77624413D01*
X142909335Y-77624410D01*
X142737368Y-77509505D01*
X142737358Y-77509500D01*
X142546272Y-77430349D01*
X142546267Y-77430347D01*
X142490000Y-77419155D01*
X142490000Y-78273011D01*
X142480060Y-78255795D01*
X142424205Y-78199940D01*
X142355796Y-78160444D01*
X142279496Y-78140000D01*
X142200504Y-78140000D01*
X142124204Y-78160444D01*
X142055795Y-78199940D01*
X141999940Y-78255795D01*
X141990000Y-78273011D01*
X141990000Y-77419156D01*
X141989999Y-77419155D01*
X141933732Y-77430347D01*
X141933727Y-77430349D01*
X141742641Y-77509500D01*
X141742631Y-77509505D01*
X141570664Y-77624410D01*
X141570660Y-77624413D01*
X141424413Y-77770660D01*
X141424410Y-77770664D01*
X141309505Y-77942631D01*
X141309500Y-77942641D01*
X141230350Y-78133725D01*
X141230348Y-78133733D01*
X141190000Y-78336579D01*
X134344999Y-78336579D01*
X134304651Y-78133733D01*
X134304649Y-78133725D01*
X134225499Y-77942641D01*
X134225494Y-77942631D01*
X134110589Y-77770664D01*
X134110586Y-77770660D01*
X133964339Y-77624413D01*
X133964335Y-77624410D01*
X133792368Y-77509505D01*
X133792358Y-77509500D01*
X133601272Y-77430349D01*
X133601267Y-77430347D01*
X133545000Y-77419155D01*
X133545000Y-78273011D01*
X133535060Y-78255795D01*
X133479205Y-78199940D01*
X133410796Y-78160444D01*
X133334496Y-78140000D01*
X133255504Y-78140000D01*
X133179204Y-78160444D01*
X133110795Y-78199940D01*
X133054940Y-78255795D01*
X133045000Y-78273011D01*
X133045000Y-77419156D01*
X133044999Y-77419155D01*
X132988732Y-77430347D01*
X132988727Y-77430349D01*
X132797641Y-77509500D01*
X132797631Y-77509505D01*
X132625664Y-77624410D01*
X132625660Y-77624413D01*
X132479413Y-77770660D01*
X132479410Y-77770664D01*
X132364505Y-77942631D01*
X132364500Y-77942641D01*
X132285350Y-78133725D01*
X132285348Y-78133733D01*
X132245000Y-78336579D01*
X102118120Y-78336579D01*
X101942238Y-78289452D01*
X101904215Y-78284446D01*
X101714741Y-78259500D01*
X101714734Y-78259500D01*
X101485266Y-78259500D01*
X101485258Y-78259500D01*
X101268715Y-78288009D01*
X101257762Y-78289452D01*
X101164076Y-78314554D01*
X101036112Y-78348842D01*
X100824123Y-78436650D01*
X100824109Y-78436657D01*
X100625382Y-78551392D01*
X100443338Y-78691081D01*
X100281081Y-78853338D01*
X100141392Y-79035382D01*
X100026657Y-79234109D01*
X100026650Y-79234123D01*
X99938842Y-79446112D01*
X99904630Y-79573794D01*
X99888536Y-79633862D01*
X99879453Y-79667759D01*
X99879451Y-79667770D01*
X99849500Y-79895258D01*
X98290500Y-79895258D01*
X98290500Y-75554500D01*
X98310185Y-75487461D01*
X98362989Y-75441706D01*
X98414500Y-75430500D01*
X211465500Y-75430500D01*
X211532539Y-75450185D01*
G37*
%TD.AperFunction*%
%TD*%
M02*
