%TF.GenerationSoftware,KiCad,Pcbnew,10.0.3*%
%TF.CreationDate,2026-06-23T18:25:31+09:00*%
%TF.ProjectId,MyClockProject,4d79436c-6f63-46b5-9072-6f6a6563742e,rev?*%
%TF.SameCoordinates,Original*%
%TF.FileFunction,Soldermask,Top*%
%TF.FilePolarity,Negative*%
%FSLAX46Y46*%
G04 Gerber Fmt 4.6, Leading zero omitted, Abs format (unit mm)*
G04 Created by KiCad (PCBNEW 10.0.3) date 2026-06-23 18:25:31*
%MOMM*%
%LPD*%
G01*
G04 APERTURE LIST*
G04 Aperture macros list*
%AMRoundRect*
0 Rectangle with rounded corners*
0 $1 Rounding radius*
0 $2 $3 $4 $5 $6 $7 $8 $9 X,Y pos of 4 corners*
0 Add a 4 corners polygon primitive as box body*
4,1,4,$2,$3,$4,$5,$6,$7,$8,$9,$2,$3,0*
0 Add four circle primitives for the rounded corners*
1,1,$1+$1,$2,$3*
1,1,$1+$1,$4,$5*
1,1,$1+$1,$6,$7*
1,1,$1+$1,$8,$9*
0 Add four rect primitives between the rounded corners*
20,1,$1+$1,$2,$3,$4,$5,0*
20,1,$1+$1,$4,$5,$6,$7,0*
20,1,$1+$1,$6,$7,$8,$9,0*
20,1,$1+$1,$8,$9,$2,$3,0*%
G04 Aperture macros list end*
%ADD10C,2.500000*%
%ADD11RoundRect,0.250000X0.550000X0.550000X-0.550000X0.550000X-0.550000X-0.550000X0.550000X-0.550000X0*%
%ADD12C,1.600000*%
%ADD13RoundRect,0.250000X-0.550000X0.550000X-0.550000X-0.550000X0.550000X-0.550000X0.550000X0.550000X0*%
%ADD14R,1.700000X1.700000*%
%ADD15C,1.700000*%
%ADD16C,3.000000*%
%ADD17R,4.400000X1.800000*%
%ADD18O,4.000000X1.800000*%
%ADD19O,1.800000X4.000000*%
%ADD20C,3.250000*%
%ADD21R,1.500000X1.500000*%
%ADD22C,1.500000*%
%ADD23RoundRect,0.250000X-0.550000X-0.550000X0.550000X-0.550000X0.550000X0.550000X-0.550000X0.550000X0*%
%ADD24O,1.100000X1.700000*%
%ADD25RoundRect,0.102000X-0.664000X-0.664000X0.664000X-0.664000X0.664000X0.664000X-0.664000X0.664000X0*%
%ADD26C,1.532000*%
G04 APERTURE END LIST*
D10*
%TO.C,H2*%
X185420000Y-58420000D03*
%TD*%
D11*
%TO.C,C5*%
X179070000Y-109220000D03*
D12*
X176570000Y-109220000D03*
%TD*%
D10*
%TO.C,H1*%
X88900000Y-58420000D03*
%TD*%
D13*
%TO.C,C3*%
X173990000Y-76200000D03*
D12*
X173990000Y-78700000D03*
%TD*%
D10*
%TO.C,H4*%
X88900000Y-111760000D03*
%TD*%
D14*
%TO.C,J5*%
X179070000Y-100330000D03*
D15*
X179070000Y-97790000D03*
X179070000Y-95250000D03*
X179070000Y-92710000D03*
X179070000Y-90170000D03*
%TD*%
D12*
%TO.C,R1*%
X102870000Y-80010000D03*
X105410000Y-80010000D03*
%TD*%
D14*
%TO.C,J8*%
X147320000Y-62230000D03*
D15*
X144780000Y-62230000D03*
X142240000Y-62230000D03*
%TD*%
D16*
%TO.C,*%
X111370000Y-96580000D03*
X111370000Y-111531818D03*
X151383622Y-96548182D03*
X151383622Y-111531818D03*
D15*
X149760000Y-107850000D03*
X153570000Y-107850000D03*
X102480000Y-109120000D03*
X111370000Y-106580000D03*
X102480000Y-104040000D03*
X111370000Y-104040000D03*
X102480000Y-98960000D03*
X111370000Y-101500000D03*
X149760000Y-100230000D03*
X153570000Y-100230000D03*
X149760000Y-102770000D03*
X153570000Y-102770000D03*
X149760000Y-105310000D03*
X153570000Y-105310000D03*
%TD*%
D17*
%TO.C,J7*%
X169510000Y-70570000D03*
D18*
X169510000Y-64770000D03*
D19*
X164710000Y-67570000D03*
%TD*%
D12*
%TO.C,C4*%
X166370000Y-76240000D03*
X166370000Y-81240000D03*
%TD*%
D20*
%TO.C,J4*%
X109220000Y-62230000D03*
X97790000Y-62230000D03*
D21*
X107950000Y-68580000D03*
D22*
X106680000Y-71120000D03*
X105410000Y-68580000D03*
X104140000Y-71120000D03*
X102870000Y-68580000D03*
X101600000Y-71120000D03*
X100330000Y-68580000D03*
X99060000Y-71120000D03*
D16*
X111355000Y-59180000D03*
X95655000Y-59180000D03*
%TD*%
D14*
%TO.C,J1*%
X156210000Y-76200000D03*
D15*
X118110000Y-76200000D03*
X125730000Y-76200000D03*
X120650000Y-76200000D03*
X128270000Y-76200000D03*
X135890000Y-76200000D03*
X133350000Y-76200000D03*
X130810000Y-76200000D03*
X140970000Y-76200000D03*
X138430000Y-76200000D03*
X146050000Y-76200000D03*
X143510000Y-76200000D03*
X153670000Y-76200000D03*
X123190000Y-76200000D03*
X148590000Y-76200000D03*
X151130000Y-76200000D03*
%TD*%
D23*
%TO.C,C1*%
X127040000Y-68580000D03*
D12*
X129540000Y-68580000D03*
%TD*%
%TO.C,C2*%
X121880000Y-68580000D03*
X116880000Y-68580000D03*
%TD*%
D15*
%TO.C,J2*%
X120650000Y-62230000D03*
X124460000Y-62230000D03*
D24*
X127000000Y-58420000D03*
X118055000Y-58420000D03*
%TD*%
D25*
%TO.C,U1*%
X165100000Y-86360000D03*
D26*
X165100000Y-88900000D03*
X165100000Y-91440000D03*
X165100000Y-93980000D03*
X165100000Y-96520000D03*
X165100000Y-99060000D03*
X165100000Y-101600000D03*
X165100000Y-104140000D03*
X172720000Y-104140000D03*
X172720000Y-101600000D03*
X172720000Y-99060000D03*
X172720000Y-96520000D03*
X172720000Y-93980000D03*
X172720000Y-91440000D03*
X172720000Y-88900000D03*
X172720000Y-86360000D03*
%TD*%
D10*
%TO.C,H3*%
X185420000Y-111760000D03*
%TD*%
D15*
%TO.C,J2*%
X123190000Y-88900000D03*
X120650000Y-88900000D03*
X125730000Y-88900000D03*
X133350000Y-88900000D03*
X118110000Y-88900000D03*
X128270000Y-88900000D03*
X130810000Y-88900000D03*
X135890000Y-88900000D03*
X138430000Y-88900000D03*
X143510000Y-88900000D03*
X151130000Y-88900000D03*
X153670000Y-88900000D03*
D14*
X156210000Y-88900000D03*
D15*
X140970000Y-88900000D03*
X146050000Y-88900000D03*
X148590000Y-88900000D03*
%TD*%
D12*
%TO.C,R2*%
X144780000Y-69850000D03*
X142240000Y-69850000D03*
%TD*%
M02*
