%TF.GenerationSoftware,KiCad,Pcbnew,10.0.3*%
%TF.CreationDate,2026-06-23T18:25:31+09:00*%
%TF.ProjectId,MyClockProject,4d79436c-6f63-46b5-9072-6f6a6563742e,rev?*%
%TF.SameCoordinates,Original*%
%TF.FileFunction,Copper,L2,Bot*%
%TF.FilePolarity,Positive*%
%FSLAX46Y46*%
G04 Gerber Fmt 4.6, Leading zero omitted, Abs format (unit mm)*
G04 Created by KiCad (PCBNEW 10.0.3) date 2026-06-23 18:25:31*
%MOMM*%
%LPD*%
G01*
G04 APERTURE LIST*
G04 Aperture macros list*
%AMRoundRect*
0 Rectangle with rounded corners*
0 $1 Rounding radius*
0 $2 $3 $4 $5 $6 $7 $8 $9 X,Y pos of 4 corners*
0 Add a 4 corners polygon primitive as box body*
4,1,4,$2,$3,$4,$5,$6,$7,$8,$9,$2,$3,0*
0 Add four circle primitives for the rounded corners*
1,1,$1+$1,$2,$3*
1,1,$1+$1,$4,$5*
1,1,$1+$1,$6,$7*
1,1,$1+$1,$8,$9*
0 Add four rect primitives between the rounded corners*
20,1,$1+$1,$2,$3,$4,$5,0*
20,1,$1+$1,$4,$5,$6,$7,0*
20,1,$1+$1,$6,$7,$8,$9,0*
20,1,$1+$1,$8,$9,$2,$3,0*%
G04 Aperture macros list end*
%TA.AperFunction,ComponentPad*%
%ADD10RoundRect,0.250000X0.550000X0.550000X-0.550000X0.550000X-0.550000X-0.550000X0.550000X-0.550000X0*%
%TD*%
%TA.AperFunction,ComponentPad*%
%ADD11C,1.600000*%
%TD*%
%TA.AperFunction,ComponentPad*%
%ADD12RoundRect,0.250000X-0.550000X0.550000X-0.550000X-0.550000X0.550000X-0.550000X0.550000X0.550000X0*%
%TD*%
%TA.AperFunction,ComponentPad*%
%ADD13R,1.700000X1.700000*%
%TD*%
%TA.AperFunction,ComponentPad*%
%ADD14C,1.700000*%
%TD*%
%TA.AperFunction,WasherPad*%
%ADD15C,3.000000*%
%TD*%
%TA.AperFunction,ComponentPad*%
%ADD16R,4.400000X1.800000*%
%TD*%
%TA.AperFunction,ComponentPad*%
%ADD17O,4.000000X1.800000*%
%TD*%
%TA.AperFunction,ComponentPad*%
%ADD18O,1.800000X4.000000*%
%TD*%
%TA.AperFunction,ComponentPad*%
%ADD19R,1.500000X1.500000*%
%TD*%
%TA.AperFunction,ComponentPad*%
%ADD20C,1.500000*%
%TD*%
%TA.AperFunction,ComponentPad*%
%ADD21C,3.000000*%
%TD*%
%TA.AperFunction,ComponentPad*%
%ADD22RoundRect,0.250000X-0.550000X-0.550000X0.550000X-0.550000X0.550000X0.550000X-0.550000X0.550000X0*%
%TD*%
%TA.AperFunction,ComponentPad*%
%ADD23O,1.100000X1.700000*%
%TD*%
%TA.AperFunction,ComponentPad*%
%ADD24R,1.328000X1.328000*%
%TD*%
%TA.AperFunction,ComponentPad*%
%ADD25C,1.328000*%
%TD*%
%TA.AperFunction,Conductor*%
%ADD26C,0.200000*%
%TD*%
G04 APERTURE END LIST*
D10*
%TO.P,C5,1*%
%TO.N,Net-(J7-Pin_1)*%
X179070000Y-109220000D03*
D11*
%TO.P,C5,2*%
%TO.N,GND*%
X176570000Y-109220000D03*
%TD*%
D12*
%TO.P,C3,1*%
%TO.N,Net-(J7-Pin_1)*%
X173990000Y-76200000D03*
D11*
%TO.P,C3,2*%
%TO.N,GND*%
X173990000Y-78700000D03*
%TD*%
D13*
%TO.P,J5,1,Pin_1_1*%
%TO.N,Net-(J7-Pin_1)*%
X179070000Y-100330000D03*
D14*
%TO.P,J5,2,Pin_2_2*%
%TO.N,Net-(U1-Pin_13)*%
X179070000Y-97790000D03*
%TO.P,J5,3,Pin_3_3*%
%TO.N,Net-(U1-Pin_14)*%
X179070000Y-95250000D03*
%TO.P,J5,4,Pin_4_4*%
%TO.N,Net-(U1-Pin_15)*%
X179070000Y-92710000D03*
%TO.P,J5,5,Pin_5_5*%
%TO.N,Net-(U1-Pin_16)*%
X179070000Y-90170000D03*
%TD*%
D11*
%TO.P,R1,1*%
%TO.N,Net-(U3-OUT2)*%
X102870000Y-80010000D03*
%TO.P,R1,2*%
%TO.N,Net-(U3-OUT1)*%
X105410000Y-80010000D03*
%TD*%
D13*
%TO.P,J8,1,Pin_1_1*%
%TO.N,Net-(J1-Pin_3V3)*%
X147320000Y-62230000D03*
D14*
%TO.P,J8,2,Pin_2_2*%
%TO.N,GND*%
X144780000Y-62230000D03*
%TO.P,J8,3,Pin_3_3*%
%TO.N,Net-(J8-Pin_3)*%
X142240000Y-62230000D03*
%TD*%
D15*
%TO.P,,*%
%TO.N,*%
X111370000Y-96580000D03*
X111370000Y-111531818D03*
X151383622Y-96548182D03*
X151383622Y-111531818D03*
D14*
%TO.P,,5VO*%
%TO.N,Net-(J1_5V)*%
X149760000Y-107850000D03*
X153570000Y-107850000D03*
%TO.P,,A+*%
%TO.N,Net-(U3-OUT1)*%
X102480000Y-109120000D03*
X111370000Y-106580000D03*
%TO.P,,B-*%
%TO.N,Net-(U3-OUT2)*%
X102480000Y-104040000D03*
X111370000Y-104040000D03*
%TO.P,,GND*%
%TO.N,GND*%
X102480000Y-98960000D03*
X111370000Y-101500000D03*
X149760000Y-100230000D03*
X153570000Y-100230000D03*
%TO.P,,RXD*%
%TO.N,Net-(J2-Pin_TXO)*%
X149760000Y-102770000D03*
X153570000Y-102770000D03*
%TO.P,,TXD*%
%TO.N,Net-(J2-Pin_RXI)*%
X149760000Y-105310000D03*
X153570000Y-105310000D03*
%TD*%
D16*
%TO.P,J7,1*%
%TO.N,Net-(J7-Pin_1)*%
X169510000Y-70570000D03*
D17*
%TO.P,J7,2*%
%TO.N,GND*%
X169510000Y-64770000D03*
D18*
%TO.P,J7,3*%
%TO.N,N/C*%
X164710000Y-67570000D03*
%TD*%
D11*
%TO.P,C4,1*%
%TO.N,Net-(J7-Pin_1)*%
X166370000Y-76240000D03*
%TO.P,C4,2*%
%TO.N,GND*%
X166370000Y-81240000D03*
%TD*%
D19*
%TO.P,J4,1*%
%TO.N,Net-(U3-OUT1)*%
X107950000Y-68580000D03*
D20*
%TO.P,J4,2*%
%TO.N,Net-(U3-OUT2)*%
X106680000Y-71120000D03*
%TO.P,J4,3*%
%TO.N,unconnected-(J4-Pad3)*%
X105410000Y-68580000D03*
%TO.P,J4,4*%
%TO.N,unconnected-(J4-Pad4)*%
X104140000Y-71120000D03*
%TO.P,J4,5*%
%TO.N,unconnected-(J4-Pad5)*%
X102870000Y-68580000D03*
%TO.P,J4,6*%
%TO.N,unconnected-(J4-Pad6)*%
X101600000Y-71120000D03*
%TO.P,J4,7*%
%TO.N,GND*%
X100330000Y-68580000D03*
%TO.P,J4,8*%
X99060000Y-71120000D03*
D21*
%TO.P,J4,SH*%
%TO.N,N/C*%
X111355000Y-59180000D03*
X95655000Y-59180000D03*
%TD*%
D13*
%TO.P,J1,3V3,Pin_1_3V3*%
%TO.N,Net-(J1-Pin_3V3)*%
X156210000Y-76200000D03*
D14*
%TO.P,J1,5V*%
%TO.N,Net-(J1_5V)*%
X118110000Y-76200000D03*
%TO.P,J1,12,Pin_13_12*%
%TO.N,unconnected-(J1-Pin_13-Pad12)*%
X125730000Y-76200000D03*
%TO.P,J1,13,Pin_15_13*%
%TO.N,unconnected-(J1-Pin_15-Pad13)*%
X120650000Y-76200000D03*
%TO.P,J1,14,Pin_12_14*%
%TO.N,unconnected-(J1-Pin_12-Pad14)*%
X128270000Y-76200000D03*
%TO.P,J1,25,Pin_9_25*%
%TO.N,unconnected-(J1-Pin_9-Pad25)*%
X135890000Y-76200000D03*
%TO.P,J1,26,Pin_10_26*%
%TO.N,unconnected-(J1-Pin_10-Pad26)*%
X133350000Y-76200000D03*
%TO.P,J1,27,Pin_11_27*%
%TO.N,unconnected-(J1-Pin_11-Pad27)*%
X130810000Y-76200000D03*
%TO.P,J1,32,Pin_7_32*%
%TO.N,unconnected-(J1-Pin_7-Pad32)*%
X140970000Y-76200000D03*
%TO.P,J1,33,Pin_8_33*%
%TO.N,unconnected-(J1-Pin_8-Pad33)*%
X138430000Y-76200000D03*
%TO.P,J1,34,Pin_6_34*%
%TO.N,Net-(J1-Pin_34)*%
X146050000Y-76200000D03*
%TO.P,J1,35,Pin_5_35*%
%TO.N,unconnected-(J1-Pin_5-Pad35)*%
X143510000Y-76200000D03*
%TO.P,J1,EN,Pin_2_EN*%
%TO.N,unconnected-(J1-Pin_2-PadEN)*%
X153670000Y-76200000D03*
%TO.P,J1,GND,Pin_14_GND*%
%TO.N,GND*%
X123190000Y-76200000D03*
%TO.P,J1,SVN*%
%TO.N,N/C*%
X148590000Y-76200000D03*
%TO.P,J1,SVP*%
X151130000Y-76200000D03*
%TD*%
D22*
%TO.P,C1,1*%
%TO.N,Net-(J1_5V)*%
X127040000Y-68580000D03*
D11*
%TO.P,C1,2*%
%TO.N,GND*%
X129540000Y-68580000D03*
%TD*%
%TO.P,C2,1*%
%TO.N,Net-(J1_5V)*%
X121880000Y-68580000D03*
%TO.P,C2,2*%
%TO.N,GND*%
X116880000Y-68580000D03*
%TD*%
D14*
%TO.P,J2,5*%
%TO.N,GND*%
X120650000Y-62230000D03*
%TO.P,J2,6*%
%TO.N,Net-(J1_5V)*%
X124460000Y-62230000D03*
D23*
%TO.P,J2,SH,SHIELD_SH*%
%TO.N,N/C*%
X127000000Y-58420000D03*
X118055000Y-58420000D03*
%TD*%
D24*
%TO.P,U1,1,I1_1*%
%TO.N,Net-(J2_pin_18)*%
X165100000Y-86360000D03*
D25*
%TO.P,U1,2,I2_2*%
%TO.N,Net-(J2-Pin_19)*%
X165100000Y-88900000D03*
%TO.P,U1,3,I3_3*%
%TO.N,Net-(J2-Pin_21)*%
X165100000Y-91440000D03*
%TO.P,U1,4,I4_4*%
%TO.N,Net-(J2-Pin_22)*%
X165100000Y-93980000D03*
%TO.P,U1,5,I5_5*%
%TO.N,unconnected-(U1-I5-Pad5)*%
X165100000Y-96520000D03*
%TO.P,U1,6,I6_6*%
%TO.N,unconnected-(U1-I6-Pad6)*%
X165100000Y-99060000D03*
%TO.P,U1,7,I7_7*%
%TO.N,unconnected-(U1-I7-Pad7)*%
X165100000Y-101600000D03*
%TO.P,U1,8,GND_8*%
%TO.N,GND*%
X165100000Y-104140000D03*
%TO.P,U1,9,COM_9*%
%TO.N,Net-(J7-Pin_1)*%
X172720000Y-104140000D03*
%TO.P,U1,10,O7_10*%
%TO.N,unconnected-(U1-O7-Pad10)*%
X172720000Y-101600000D03*
%TO.P,U1,11,O6_11*%
%TO.N,unconnected-(U1-O6-Pad11)*%
X172720000Y-99060000D03*
%TO.P,U1,12,O5_12*%
%TO.N,unconnected-(U1-O5-Pad12)*%
X172720000Y-96520000D03*
%TO.P,U1,13,O4_13*%
%TO.N,Net-(U1-Pin_13)*%
X172720000Y-93980000D03*
%TO.P,U1,14,O3_14*%
%TO.N,Net-(U1-Pin_14)*%
X172720000Y-91440000D03*
%TO.P,U1,15,O2_15*%
%TO.N,Net-(U1-Pin_15)*%
X172720000Y-88900000D03*
%TO.P,U1,16,O1_16*%
%TO.N,Net-(U1-Pin_16)*%
X172720000Y-86360000D03*
%TD*%
D14*
%TO.P,J2,0,Pin_14_0*%
%TO.N,unconnected-(J2-Pin_14-Pad0)*%
X123190000Y-88900000D03*
%TO.P,J2,2,Pin_15_2*%
%TO.N,unconnected-(J2-Pin_15-Pad2)*%
X120650000Y-88900000D03*
%TO.P,J2,4,Pin_13_4*%
%TO.N,unconnected-(J2-Pin_13-Pad4)*%
X125730000Y-88900000D03*
%TO.P,J2,5,Pin_10_5*%
%TO.N,unconnected-(J2-Pin_10-Pad5)*%
X133350000Y-88900000D03*
%TO.P,J2,15,Pin_16_15*%
%TO.N,unconnected-(J2-Pin_16-Pad15)*%
X118110000Y-88900000D03*
%TO.P,J2,16,Pin_12_16*%
%TO.N,unconnected-(J2-Pin_12-Pad16)*%
X128270000Y-88900000D03*
%TO.P,J2,17,Pin_11_17*%
%TO.N,unconnected-(J2-Pin_11-Pad17)*%
X130810000Y-88900000D03*
%TO.P,J2,18,Pin_9_18*%
%TO.N,Net-(J2_pin_18)*%
X135890000Y-88900000D03*
%TO.P,J2,19,Pin_8_19*%
%TO.N,Net-(J2-Pin_19)*%
X138430000Y-88900000D03*
%TO.P,J2,21,Pin_6_21*%
%TO.N,Net-(J2-Pin_21)*%
X143510000Y-88900000D03*
%TO.P,J2,22,Pin_3_22*%
%TO.N,Net-(J2-Pin_22)*%
X151130000Y-88900000D03*
%TO.P,J2,23,Pin_2_23*%
%TO.N,unconnected-(J2-Pin_2-Pad23)*%
X153670000Y-88900000D03*
D13*
%TO.P,J2,GND,Pin_7_GND*%
%TO.N,GND*%
X156210000Y-88900000D03*
D14*
X140970000Y-88900000D03*
%TO.P,J2,RXI,Pin_5_RXI*%
%TO.N,Net-(J2-Pin_RXI)*%
X146050000Y-88900000D03*
%TO.P,J2,TXO,Pin_4_TXO*%
%TO.N,Net-(J2-Pin_TXO)*%
X148590000Y-88900000D03*
%TD*%
D11*
%TO.P,R2,1*%
%TO.N,Net-(J1-Pin_34)*%
X144780000Y-69850000D03*
%TO.P,R2,2*%
%TO.N,Net-(J8-Pin_3)*%
X142240000Y-69850000D03*
%TD*%
%TO.N,Net-(U1-Pin_13)*%
D26*
X175260000Y-93980000D02*
X179070000Y-97790000D01*
X172720000Y-93980000D02*
X175260000Y-93980000D01*
%TO.N,Net-(U1-Pin_14)*%
X175260000Y-91440000D02*
X179070000Y-95250000D01*
X172720000Y-91440000D02*
X175260000Y-91440000D01*
%TO.N,Net-(U1-Pin_15)*%
X172720000Y-88900000D02*
X175260000Y-88900000D01*
X175260000Y-88900000D02*
X179070000Y-92710000D01*
%TO.N,Net-(U1-Pin_16)*%
X172720000Y-86360000D02*
X175260000Y-86360000D01*
X175260000Y-86360000D02*
X179070000Y-90170000D01*
%TO.N,Net-(U3-OUT2)*%
X102870000Y-74930000D02*
X102870000Y-80010000D01*
X103669999Y-102850001D02*
X102480000Y-104040000D01*
X106680000Y-71120000D02*
X102870000Y-74930000D01*
X102480000Y-104040000D02*
X111370000Y-104040000D01*
X103669999Y-80809999D02*
X103669999Y-102850001D01*
X102870000Y-80010000D02*
X103669999Y-80809999D01*
%TO.N,Net-(U3-OUT1)*%
X111370000Y-106580000D02*
X114300000Y-103650000D01*
X114300000Y-88900000D02*
X105410000Y-80010000D01*
X105020000Y-106580000D02*
X111370000Y-106580000D01*
X107950000Y-77470000D02*
X105410000Y-80010000D01*
X114300000Y-103650000D02*
X114300000Y-88900000D01*
X102480000Y-109120000D02*
X105020000Y-106580000D01*
X107950000Y-68580000D02*
X107950000Y-77470000D01*
%TO.N,Net-(J8-Pin_3)*%
X142240000Y-69850000D02*
X142240000Y-62230000D01*
%TO.N,Net-(J2-Pin_TXO)*%
X148590000Y-101600000D02*
X149760000Y-102770000D01*
X149760000Y-102770000D02*
X153570000Y-102770000D01*
X148590000Y-88900000D02*
X148590000Y-101600000D01*
%TO.N,Net-(J2-Pin_RXI)*%
X146050000Y-88900000D02*
X146050000Y-101600000D01*
X146050000Y-101600000D02*
X149760000Y-105310000D01*
X149760000Y-105310000D02*
X153570000Y-105310000D01*
%TO.N,Net-(J1-Pin_34)*%
X146050000Y-76200000D02*
X146050000Y-74930000D01*
X146050000Y-74930000D02*
X144780000Y-73660000D01*
X144780000Y-73660000D02*
X144780000Y-69850000D01*
%TO.N,Net-(J2_pin_18)*%
X138430000Y-86360000D02*
X165100000Y-86360000D01*
X135890000Y-88900000D02*
X138430000Y-86360000D01*
%TO.N,Net-(J2-Pin_19)*%
X138430000Y-88900000D02*
X140100000Y-87230000D01*
X140100000Y-87230000D02*
X163430000Y-87230000D01*
X163430000Y-87230000D02*
X165100000Y-88900000D01*
%TO.N,Net-(J2-Pin_21)*%
X144780000Y-87630000D02*
X161290000Y-87630000D01*
X143510000Y-88900000D02*
X144780000Y-87630000D01*
X161290000Y-87630000D02*
X165100000Y-91440000D01*
%TO.N,Net-(J2-Pin_22)*%
X151130000Y-88900000D02*
X156210000Y-93980000D01*
X156210000Y-93980000D02*
X165100000Y-93980000D01*
%TD*%
M02*
