M48
; DRILL file KiCad 10.0.3 date 2026-06-23T18:26:07
; FORMAT={-:-/ absolute / metric / decimal}
; #@! TF.CreationDate,2026-06-23T18:26:07+09:00
; #@! TF.GenerationSoftware,Kicad,Pcbnew,10.0.3
; #@! TF.FileFunction,Plated,1,2,PTH
FMAT,2
METRIC
; #@! TA.AperFunction,Plated,PTH,ComponentDrill
T1C0.600
; #@! TA.AperFunction,Plated,PTH,ComponentDrill
T2C0.800
; #@! TA.AperFunction,Plated,PTH,ComponentDrill
T3C0.820
; #@! TA.AperFunction,Plated,PTH,ComponentDrill
T4C0.900
; #@! TA.AperFunction,Plated,PTH,ComponentDrill
T5C1.000
; #@! TA.AperFunction,Plated,PTH,ComponentDrill
T6C1.600
%
G90
G05
T2
X102.87Y-80.01
X105.41Y-80.01
X116.88Y-68.58
X121.88Y-68.58
X127.04Y-68.58
X129.54Y-68.58
X142.24Y-69.85
X144.78Y-69.85
X166.37Y-76.24
X166.37Y-81.24
X173.99Y-76.2
X173.99Y-78.7
X176.57Y-109.22
X179.07Y-109.22
T3
X165.1Y-86.36
X165.1Y-88.9
X165.1Y-91.44
X165.1Y-93.98
X165.1Y-96.52
X165.1Y-99.06
X165.1Y-101.6
X165.1Y-104.14
X172.72Y-86.36
X172.72Y-88.9
X172.72Y-91.44
X172.72Y-93.98
X172.72Y-96.52
X172.72Y-99.06
X172.72Y-101.6
X172.72Y-104.14
T4
X99.06Y-71.12
X100.33Y-68.58
X101.6Y-71.12
X102.87Y-68.58
X104.14Y-71.12
X105.41Y-68.58
X106.68Y-71.12
X107.95Y-68.58
T5
X102.48Y-98.96
X102.48Y-104.04
X102.48Y-109.12
X111.37Y-101.5
X111.37Y-104.04
X111.37Y-106.58
X118.11Y-76.2
X118.11Y-88.9
X120.65Y-62.23
X120.65Y-76.2
X120.65Y-88.9
X123.19Y-76.2
X123.19Y-88.9
X124.46Y-62.23
X125.73Y-76.2
X125.73Y-88.9
X128.27Y-76.2
X128.27Y-88.9
X130.81Y-76.2
X130.81Y-88.9
X133.35Y-76.2
X133.35Y-88.9
X135.89Y-76.2
X135.89Y-88.9
X138.43Y-76.2
X138.43Y-88.9
X140.97Y-76.2
X140.97Y-88.9
X142.24Y-62.23
X143.51Y-76.2
X143.51Y-88.9
X144.78Y-62.23
X146.05Y-76.2
X146.05Y-88.9
X147.32Y-62.23
X148.59Y-76.2
X148.59Y-88.9
X149.76Y-100.23
X149.76Y-102.77
X149.76Y-105.31
X149.76Y-107.85
X151.13Y-76.2
X151.13Y-88.9
X153.57Y-100.23
X153.57Y-102.77
X153.57Y-105.31
X153.57Y-107.85
X153.67Y-76.2
X153.67Y-88.9
X156.21Y-76.2
X156.21Y-88.9
X179.07Y-90.17
X179.07Y-92.71
X179.07Y-95.25
X179.07Y-97.79
X179.07Y-100.33
T6
X95.655Y-59.18
X111.355Y-59.18
T1
G00X118.055Y-58.72
M15
G01X118.055Y-58.12
M16
G05
G00X127.0Y-58.72
M15
G01X127.0Y-58.12
M16
G05
T2
G00X164.71Y-66.47
M15
G01X164.71Y-68.67
M16
G05
G00X170.61Y-64.77
M15
G01X168.41Y-64.77
M16
G05
G00X170.81Y-70.57
M15
G01X168.21Y-70.57
M16
G05
M30
